<svg height="480pt" viewBox="0 0 480 480" width="480pt" xmlns="http://www.w3.org/2000/svg"><path d="m64 368h352v16h-352zm0 0" fill="#edeff1"/><path d="m0 240h480v48h-480zm0 0" fill="#6e83b7"/><path d="m240 200h-208c-8.839844 0-16 7.160156-16 16v24h448v-24c0-8.839844-7.160156-16-16-16zm0 0" fill="#edeff1"/><path d="m112 160h18v24h-18zm0 0" fill="#fcb98b"/><path d="m264 144v56h-120c-8.839844 0-16-7.160156-16-16v-24c0-8.839844 7.160156-16 16-16zm0 0" fill="#80d6fb"/><path d="m288 152h152v32h-152zm0 0" fill="#466089"/><path d="m118 170c0 16.566406-13.433594 30-30 30h-12c-16.566406 0-30-13.433594-30-30s13.433594-30 30-30h12c16.566406 0 30 13.433594 30 30zm0 0" fill="#ffd3b3"/><path d="m70 164h9.511719c1.59375 0 3.121093.632812 4.242187 1.761719l4.246094 4.238281h-6v6c6.625 0 12 5.375 12 12v11.390625c-1.9375.402344-3.945312.609375-6 .609375h-24c-13.257812 0-24-10.742188-24-24v-40h22c4.414062 0 8 3.585938 8 8zm0 0" fill="#6e83b7"/><path d="m94 170v3c0 4.96875-4.03125 9-9 9s-9-4.03125-9-9v-3zm0 0" fill="#ffd3b3"/><path d="m78 139.953125 6.632812-3.320313c2.960938-1.480468 6.566407-.28125 8.046876 2.679688l3.320312 6.640625zm0 0" fill="#ffd3b3"/><path d="m88 173c0 1.65625-1.34375 3-3 3s-3-1.34375-3-3v-3h6zm0 0" fill="#fcb98b"/><path d="m296 168v-8c0-8.839844-7.160156-16-16-16h-16v56h176v-32zm0 0" fill="#6e83b7"/><path d="m176 200h-32c-8.839844 0-16-7.160156-16-16s7.160156-16 16-16h32zm0 0" fill="#46bee8"/><path d="m176 168h104c8.839844 0 16 7.160156 16 16s-7.160156 16-16 16h-104zm0 0" fill="#ffd3b3"/><path d="m464 184h-24v-40c0-4.414062 3.585938-8 8-8h8c4.414062 0 8 3.585938 8 8zm0 0" fill="#fcb98b"/><path d="m464 200h-24v-40c0-4.414062 3.585938-8 8-8h8c4.414062 0 8 3.585938 8 8zm0 0" fill="#ffd3b3"/><path d="m168 168h8v32h-8zm0 0" fill="#6e83b7"/><path d="m56 288h16v136h-16zm0 0" fill="#6e83b7"/><path d="m96 448c0 17.671875-14.328125 32-32 32s-32-14.328125-32-32 14.328125-32 32-32 32 14.328125 32 32zm0 0" fill="#edeff1"/><path d="m80 448c0 8.835938-7.164062 16-16 16s-16-7.164062-16-16 7.164062-16 16-16 16 7.164062 16 16zm0 0" fill="#d3d3d3"/><path d="m408 288h16v136h-16zm0 0" fill="#6e83b7"/><path d="m448 448c0 17.671875-14.328125 32-32 32s-32-14.328125-32-32 14.328125-32 32-32 32 14.328125 32 32zm0 0" fill="#edeff1"/><path d="m432 448c0 8.835938-7.164062 16-16 16s-16-7.164062-16-16 7.164062-16 16-16 16 7.164062 16 16zm0 0" fill="#d3d3d3"/><path d="m48 288h32v8h-32zm0 0" fill="#466089"/><path d="m400 288h32v8h-32zm0 0" fill="#466089"/><path d="m352 152h-160c-22.054688 0-40 17.945312-40 40v48h16v-24h208v24h16v-48c0-22.054688-17.945312-40-40-40zm-184 48v-8c0-13.230469 10.769531-24 24-24h160c13.230469 0 24 10.769531 24 24v8zm0 0" fill="#d3d3d3"/><path d="m464 168h16v72h-16zm0 0" fill="#d3d3d3"/><path d="m448 52c0 28.71875-23.28125 52-52 52s-52-23.28125-52-52 23.28125-52 52-52 52 23.28125 52 52zm0 0" fill="#80d6fb"/><path d="m432 40h-24v-24h-24v24h-24v24h24v24h24v-24h24zm0 0" fill="#edeff1"/></svg>