<svg height="480pt" viewBox="0 0 480 480" width="480pt" xmlns="http://www.w3.org/2000/svg"><path d="m0 480 384-136h96v136zm0 0" fill="#6e83b7"/><path d="m127.472656 253.335938 150.085938-41.167969c7.679687-2.105469 15.867187-1.273438 22.960937 2.328125l95 48.273437-22.390625 39.328125-76.535156-37.082031-154.304688 42.320313zm0 0" fill="#6e83b7"/><path d="m112.53125 108.121094 30.859375-8.464844 6.351563 23.144531-30.863282 8.464844zm0 0" fill="#fcb98b"/><path d="m224.535156 242.960938-92.445312 25.871093-32.347656-115.558593c-3.574219-12.769532 3.882812-26.007813 16.640624-29.585938l15.746094-4.40625c18.488282-5.175781 38.285156 1.167969 50.328125 16.117188l3.941407 4.898437c9.511718 11.816406 16.53125 25.4375 20.617187 40.046875zm0 0" fill="#80d6fb"/><g fill="#edeff1"><path d="m112.792969 290.542969-42.328125-154.304688c-1.695313-6.183593-5.695313-11.335937-11.265625-14.503906-5.574219-3.167969-12.039063-3.980469-18.230469-2.292969l-30.855469 8.460938-4.234375-15.421875 30.855469-8.464844c21.289063-5.839844 43.335937 6.726563 49.160156 28l42.328125 154.296875zm0 0"/><path d="m400.542969 337.113281c-3.703125 0-7.453125-.855469-10.984375-2.664062l-99.460938-51.050781-20.144531 5.523437-4.234375-15.433594 26.152344-7.167969 105 53.894532c3.832031 1.960937 8.480468.578125 10.601562-3.160156l20.414063-35.839844 13.90625 7.914062-20.417969 35.847656c-4.414062 7.75-12.488281 12.136719-20.832031 12.136719zm0 0"/><path d="m281.097656 312.191406c0 53.019532-42.980468 96-96 96-53.019531 0-96-42.980468-96-96 0-53.019531 42.980469-96 96-96 53.019532 0 96 42.980469 96 96zm0 0"/></g><path d="m265.097656 312.191406c0 44.183594-35.820312 80-80 80-44.183594 0-80-35.816406-80-80s35.816406-80 80-80c44.179688 0 80 35.816406 80 80zm0 0" fill="#d3d3d3"/><path d="m201.097656 312.191406c0 8.835938-7.164062 16-16 16-8.839844 0-16-7.164062-16-16 0-8.835937 7.160156-16 16-16 8.835938 0 16 7.164063 16 16zm0 0" fill="#6e83b7"/><path d="m398.320312 257.847656-25.199218 44.25 15.589844 8.878906c7.679687 4.375 17.449218 1.695313 21.824218-5.984374l17.28125-30.34375c4.632813-8.136719 1.792969-18.496094-6.34375-23.128907l-.015625-.007812c-8.144531-4.648438-18.496093-1.808594-23.136719 6.335937zm0 0" fill="#ffd3b3"/><path d="m136.832031 266.136719-26.265625-50.488281 14.027344-28.617188-28.738281-14.078125-17.566407 35.878906c-2.234374 4.558594-2.167968 9.910157.175782 14.414063l30.359375 58.371094c4.464843 8.574218 15.640625 11.445312 23.816406 5.40625 6.40625-4.742188 7.871094-13.808594 4.191406-20.886719zm0 0" fill="#ffd3b3"/><path d="m124.59375 187.03125-28.738281-14.078125 17.601562-35.921875c3.886719-7.933594 13.472657-11.214844 21.40625-7.328125 7.9375 3.890625 11.214844 13.472656 7.328125 21.410156zm0 0" fill="#46bee8"/><path d="m99.382812 165.765625 28.738282 14.082031-3.523438 7.183594-28.734375-14.082031zm0 0" fill="#6e83b7"/><path d="m128.871094 113.414062c-21.152344 6.371094-43.464844-5.621093-49.832032-26.773437l-4.605468-15.320313c-6.371094-21.152343 5.621094-43.464843 26.773437-49.832031 21.152344-6.367187 43.464844 5.625 49.832031 26.777344l4.609376 15.320313c6.367187 21.15625-5.625 43.46875-26.777344 49.828124zm0 0" fill="#ffd3b3"/><path d="m118.089844 49.832031 3.652344 12.152344c.609374 2.03125.394531 4.222656-.613282 6.09375l-3.785156 7.050781-2.304688-7.664062-7.664062 2.304687c2.546875 8.460938-2.246094 17.382813-10.710938 19.925781l-14.550781 4.375c-1.25-2.328124-2.289062-4.804687-3.082031-7.429687l-4.605469-15.320313-4.601562-15.320312c-5.089844-16.921875 4.496093-34.769531 21.421875-39.863281l16.625-5 37-11.136719 6.914062 22.984375c2.542969 8.464844-2.25 17.382813-10.714844 19.925781zm0 0" fill="#6e83b7"/><path d="m119.648438 82.777344-3.832032 1.152344c-6.34375 1.910156-13.039062-1.691407-14.953125-8.035157-1.910156-6.34375 1.6875-13.039062 8.03125-14.949219l3.832031-1.152343zm0 0" fill="#ffd3b3"/><path d="m151.039062 48.273438 6.785157 7.191406c3.03125 3.214844 2.878906 8.277344-.335938 11.3125l-7.191406 6.78125zm0 0" fill="#ffd3b3"/><path d="m113.511719 76.273438c-2.113281.636718-4.34375-.5625-4.984375-2.679688-.640625-2.121094.5625-4.347656 2.679687-4.984375l3.832031-1.152344 2.304688 7.664063zm0 0" fill="#fcb98b"/></svg>