<svg width="83" height="106" viewBox="0 0 83 106" fill="none" xmlns="http://www.w3.org/2000/svg">
<path fill-rule="evenodd" clip-rule="evenodd" d="M9.83203 95.834V75.2249L18.0711 66.7054L14.1493 56.3826L0 71.0137V95.834V106.001H9.83203H72.4366H82.2687V95.834V71.0137L48.0868 35.6676L41.1343 28.4785L34.1821 35.6676L22.6277 47.6155L27.9756 56.4635L41.1343 42.8566L72.4366 75.2249V95.834H9.83203Z" fill="#FE4856"/>
<path fill-rule="evenodd" clip-rule="evenodd" d="M41.1362 95.8646L34.3773 103.198C38.1606 106.934 44.1118 106.934 47.8953 103.198L41.1362 95.8646ZM63.2876 65.965C67.2282 58.3803 70.1051 50.1457 70.1051 42.2696C70.1051 33.747 67.0531 25.5736 61.6205 19.5473C56.1878 13.521 48.8195 10.1355 41.1362 10.1355C33.4532 10.1355 26.0848 13.521 20.6521 19.5473C15.2194 25.5736 12.1673 33.747 12.1673 42.2696C12.1673 59.4593 25.8706 78.356 34.4277 88.4801C34.8721 89.0063 35.3027 89.5084 35.7167 89.9856C38.9215 93.6779 41.1362 95.8646 41.1362 95.8646C34.3773 103.198 34.3756 103.197 34.3739 103.195L34.3699 103.191L34.3598 103.181L34.3319 103.153C34.3097 103.131 34.2806 103.103 34.2448 103.067C34.1731 102.995 34.0746 102.896 33.951 102.77C33.7037 102.519 33.3556 102.161 32.9212 101.706C32.0529 100.795 30.8357 99.4876 29.3856 97.8474C26.4956 94.5783 22.6287 89.9286 18.741 84.4133C11.3228 73.8888 2.375 58.2173 2.375 42.2696C2.375 31.2767 6.30544 20.605 13.4925 12.6326C20.701 4.63655 30.6287 0 41.1362 0C51.6437 0 61.5715 4.63655 68.7799 12.6326C75.967 20.605 79.8974 31.2767 79.8974 42.2696C79.8974 53.3257 75.5969 64.2492 70.487 73.4167L63.2876 65.965ZM57.4538 75.7681C54.1452 80.7256 50.7073 85.0936 47.8447 88.4805C47.4004 89.0063 46.9699 89.5084 46.5558 89.9852C43.3509 93.6779 41.1362 95.8646 41.1362 95.8646C47.8953 103.198 47.8969 103.197 47.8986 103.195L47.9026 103.191L47.9124 103.181L47.9406 103.153C47.9626 103.131 47.992 103.103 48.0275 103.067C48.0993 102.995 48.198 102.896 48.3217 102.77C48.5689 102.519 48.917 102.161 49.3511 101.706C50.2198 100.795 51.4369 99.4876 52.8869 97.8474C55.7769 94.5783 59.6436 89.9286 63.5316 84.4133C63.8217 84.0015 64.1138 83.5821 64.408 83.1552L57.4538 75.7681Z" fill="#4949E7"/>
</svg>
