<svg width="29" height="48" viewBox="0 0 29 48" fill="none" xmlns="http://www.w3.org/2000/svg">
<path d="M27.2745 48.0011C26.5507 47.6768 26.2543 47.1209 26.2061 46.3134C26.0369 43.4615 25.8121 40.6133 25.6108 37.7626C25.4144 34.9907 25.2316 32.2164 25.0228 29.4458C24.9314 28.2277 24.1261 27.5429 23.0787 27.7369C22.387 27.8659 21.8448 28.4367 21.8065 29.1466C21.7806 29.6123 21.825 30.0818 21.8473 30.5501C21.8868 31.3989 21.3816 32.0374 20.5961 32.12C19.8575 32.1976 19.1967 31.6568 19.1053 30.843C18.9632 29.581 18.8743 28.3153 19.5697 27.1372C18.0196 25.8577 16.4942 24.5995 14.8922 23.2774C14.7958 23.9585 14.7057 24.5632 14.6266 25.1691C13.9349 30.5075 13.247 35.8458 12.5553 41.1842C12.3206 42.9945 12.081 44.8048 11.8364 46.6139C11.7215 47.4627 11.2164 47.9234 10.374 47.9272C8.63245 47.9347 6.89089 47.9297 5.14933 47.9234C4.16122 47.9197 3.60787 47.3563 3.60911 46.3485C3.61281 42.3961 3.62146 38.4449 3.62887 34.4925C3.62887 34.3072 3.62887 34.1219 3.62887 33.879C2.94583 33.879 2.30356 33.8803 1.66128 33.879C0.5163 33.874 -0.00246151 33.3482 8.77927e-06 32.1864C0.0086548 27.8133 0.0741176 23.4389 0.0148305 19.0659C-0.0456916 14.6853 2.84208 10.5788 6.91065 9.10654C6.99711 9.07525 7.07987 9.03769 7.20956 8.9851C6.07446 7.32126 5.80026 5.53847 6.49935 3.65302C7.0317 2.21828 7.99388 1.15161 9.37724 0.508109C12.0859 -0.753863 15.3356 0.424228 16.6523 3.14974C17.9751 5.88526 17.0426 9.3344 13.72 10.8781C13.8534 11.0233 13.9695 11.1572 14.0918 11.2837C17.3625 14.6402 20.6232 18.0067 23.91 21.3469C24.9179 22.371 25.4292 23.5178 25.1575 24.9763C25.1365 25.0878 25.2513 25.2918 25.3576 25.3519C26.8052 26.1582 27.6376 27.3751 27.7649 29.0502C27.981 31.8997 28.1786 34.7491 28.38 37.5998C28.5776 40.3879 28.7382 43.1785 28.9815 45.9629C29.063 46.8968 28.858 47.5779 28.0119 48.0048H27.272L27.2745 48.0011ZM11.0719 31.0308C11.4856 27.8295 11.8883 24.6884 12.3045 21.5485C12.3428 21.2618 12.265 21.0915 12.0476 20.9162C11.0472 20.1087 10.0578 19.2875 9.06969 18.4637C8.33848 17.8552 8.21126 17.0202 8.74114 16.3729C9.27349 15.7219 10.0961 15.6906 10.8322 16.2965C12.685 17.8239 14.5364 19.3538 16.3879 20.8824C17.9294 22.1544 19.4684 23.4302 21.0111 24.6997C21.4916 25.0953 21.9659 25.089 22.2746 24.7009C22.5748 24.3253 22.5093 23.9184 22.0659 23.464C18.2098 19.5078 14.3561 15.5504 10.4876 11.6067C10.3308 11.4465 10.0356 11.335 9.81201 11.3463C5.95465 11.5516 2.82602 14.9619 2.80503 18.9782C2.78526 22.8355 2.78403 26.694 2.77538 30.5513C2.77538 30.7028 2.77538 30.8543 2.77538 31.027H11.0719V31.0308ZM9.24261 45.089C9.72926 41.3394 10.2122 37.6223 10.6951 33.9003H6.41906V45.089H9.24137H9.24261ZM14.4413 5.63612C14.4413 4.08119 13.2247 2.83424 11.6944 2.82172C10.1579 2.81046 8.898 4.0837 8.89677 5.64864C8.89553 7.14848 10.1554 8.43299 11.6351 8.438C13.2013 8.44301 14.4413 7.20482 14.4413 5.63612Z" fill="#FE4856"/>
</svg>
