<svg width="42" height="42" viewBox="0 0 42 42" fill="none" xmlns="http://www.w3.org/2000/svg">
<path d="M20.9992 39.5706C31.2559 39.5706 39.5706 31.2559 39.5706 20.9992C39.5706 10.7424 31.2559 2.42773 20.9992 2.42773C10.7424 2.42773 2.42773 10.7424 2.42773 20.9992C2.42773 31.2559 10.7424 39.5706 20.9992 39.5706Z" stroke="#FE4856" stroke-width="3" stroke-linecap="round" stroke-linejoin="round"/>
<path d="M20.9992 32.142C27.1532 32.142 32.142 27.1532 32.142 20.9992C32.142 14.8451 27.1532 9.85631 20.9992 9.85631C14.8451 9.85631 9.85631 14.8451 9.85631 20.9992C9.85631 27.1532 14.8451 32.142 20.9992 32.142Z" stroke="#FE4856" stroke-width="3" stroke-linecap="round" stroke-linejoin="round"/>
<path d="M20.9992 24.7135C23.0505 24.7135 24.7135 23.0505 24.7135 20.9992C24.7135 18.9478 23.0505 17.2849 20.9992 17.2849C18.9478 17.2849 17.2849 18.9478 17.2849 20.9992C17.2849 23.0505 18.9478 24.7135 20.9992 24.7135Z" stroke="#FE4856" stroke-width="3" stroke-linecap="round" stroke-linejoin="round"/>
</svg>
