<svg width="43" height="43" viewBox="0 0 43 43" fill="none" xmlns="http://www.w3.org/2000/svg">
<path d="M39.8017 27.5452L27.5452 39.8017M39.8017 27.5452L33.6733 21.4168M39.8017 27.5452L41.3338 29.0773M27.5452 39.8017L21.4168 33.6733M27.5452 39.8017L29.0773 41.3338M21.4168 33.6733L33.6733 21.4168M21.4168 33.6733C18.0323 30.2888 18.0324 24.8015 21.417 21.417M33.6733 21.4168C30.2888 18.0323 24.8015 18.0324 21.417 21.417M21.4168 9.1603L9.1603 21.4168M21.4168 9.1603C24.8014 12.5448 24.8015 18.0324 21.417 21.417M21.4168 9.1603L15.2887 3.03217M9.1603 21.4168C12.5448 24.8014 18.0324 24.8015 21.417 21.417M9.1603 21.4168L3.03217 15.2887M15.2887 3.03217L3.03217 15.2887M15.2887 3.03217L13.7565 1.5M3.03217 15.2887L1.5 13.7565" stroke="#FE4856" stroke-width="3" stroke-linecap="round" stroke-linejoin="round"/>
</svg>
