<svg width="42" height="38" viewBox="0 0 42 38" fill="none" xmlns="http://www.w3.org/2000/svg">
<path d="M5.33036 20.0827L21 36.3327L36.6696 20.0827M5.33036 20.0827L4.3847 19.102C2.53765 17.1865 1.5 14.5886 1.5 11.8798C1.5 6.23887 5.90954 1.66602 11.349 1.66602C13.9611 1.66602 16.4662 2.74211 18.3133 4.65756L21 7.44379L23.6867 4.65756C25.5338 2.7421 28.0389 1.66602 30.651 1.66602C36.0905 1.66602 40.5 6.23887 40.5 11.8798C40.5 14.5886 39.4623 17.1865 37.6153 19.102L36.6696 20.0827M5.33036 20.0827H12.3334L14.5001 15.7493L18.8334 24.416L25.3334 10.3327L29.6667 20.0827H36.6696" stroke="#FE4856" stroke-width="3" stroke-linecap="round" stroke-linejoin="round"/>
</svg>
