<svg height="480pt" viewBox="0 0 480.00107 480" width="480pt" xmlns="http://www.w3.org/2000/svg"><path d="m87.511719 238.625h155.625c7.960937 0 15.632812 2.96875 21.527343 8.320312l78.847657 71.679688-32 32-64-56h-160zm0 0" fill="#6e83b7"/><path d="m112 96h32v24h-32zm0 0" fill="#fcb98b"/><path d="m184 256h-96v-120c0-13.253906 10.746094-24 24-24h16.34375c19.203125 0 36.554688 11.441406 44.121094 29.089844l2.480468 5.773437c5.976563 13.945313 9.054688 28.960938 9.054688 44.128907zm0 0" fill="#80d6fb"/><path d="m96 176h32v48h-32zm0 0" fill="#ffd3b3"/><path d="m128 176h-32v-40c0-8.839844 7.160156-16 16-16s16 7.160156 16 16zm0 0" fill="#46bee8"/><path d="m96 168h32v8h-32zm0 0" fill="#6e83b7"/><g fill="#edeff1"><path d="m80 272h-16v-160c0-13.230469-10.765625-24-24-24h-32v-16h32c22.058594 0 40 17.945312 40 40zm0 0"/><path d="m335.511719 393.871094c-5.796875 0-11.597657-2.09375-16.207031-6.328125l-82.414063-75.542969h-20.890625v-16h27.113281l87 79.753906c3.167969 2.902344 8.023438 2.816406 11.0625-.242187l29.167969-29.167969 11.3125 11.3125-29.167969 29.167969c-4.679687 4.6875-10.824219 7.046875-16.976562 7.046875zm0 0"/><path d="m224 312c0 53.019531-42.980469 96-96 96s-96-42.980469-96-96 42.980469-96 96-96 96 42.980469 96 96zm0 0"/></g><path d="m208 312c0 44.183594-35.816406 80-80 80s-80-35.816406-80-80 35.816406-80 80-80 80 35.816406 80 80zm0 0" fill="#d3d3d3"/><path d="m144 312c0 8.835938-7.164062 16-16 16s-16-7.164062-16-16 7.164062-16 16-16 16 7.164062 16 16zm0 0" fill="#6e83b7"/><path d="m128 104c-22.085938 0-40-17.910156-40-40v-16c0-22.085938 17.914062-40 40-40 22.089844 0 40 17.914062 40 40v16c0 22.089844-17.910156 40-40 40zm0 0" fill="#ffd3b3"/><path d="m136 40v12.6875c0 2.121094-.839844 4.160156-2.34375 5.65625l-5.65625 5.65625v-8h-8c0 8.839844-7.160156 16-16 16h-15.191406c-.527344-2.582031-.808594-5.261719-.808594-8v-32c0-17.671875 14.328125-32 32-32h56v24c0 8.839844-7.160156 16-16 16zm0 0" fill="#6e83b7"/><path d="m128 72h-4c-6.621094 0-12-5.375-12-12s5.378906-12 12-12h4zm0 0" fill="#ffd3b3"/><path d="m168 48 4.425781 8.847656c1.976563 3.953125.375 8.753906-3.578125 10.730469l-8.847656 4.421875zm0 0" fill="#ffd3b3"/><path d="m124 64c-2.207031 0-4-1.792969-4-4s1.792969-4 4-4h4v8zm0 0" fill="#fcb98b"/><path d="m392 336h24v136h-24zm0 0" fill="#edeff1"/><path d="m416 328h64v152h-64zm0 0" fill="#ffb0aa"/><path d="m376 344c-11.503906-22.566406-43.582031-32-64-32-20.414062 0-48.246094 8.753906-64 32h-72c-13.253906 0-24 10.746094-24 24 0 13.257812 10.746094 24 24 24h-24l-100.023438-59.441406c-14.648437-8.789063-33.617187-4.519532-43.085937 9.691406l-6.203125 9.292969c-4.902344 7.355469-2.910156 17.289062 4.441406 22.195312l128.816406 84.886719c5.246094 3.503906 11.382813 5.375 17.703126 5.375 27.367187 0 103.449218 0 102.351562 0h136v-120zm0 0" fill="#ffd3b3"/><path d="m158.234375 384c4.390625 4.878906 10.6875 8 17.765625 8h80v-8zm0 0" fill="#fcb98b"/><path d="m408 336h8v136h-8zm0 0" fill="#d3d3d3"/><path d="m280 208s80-55.664062 80-104c0-21.207031-18.789062-40-40-40-19.398438 0-36 12.664062-40 24-4-11.335938-20.597656-24-40-24-21.207031 0-40 18.792969-40 40 0 48.335938 80 104 80 104zm0 0" fill="#ffb0aa"/></svg>