<svg xmlns="http://www.w3.org/2000/svg" height="511pt" version="1.1" viewBox="0 -43 511.99938 511" width="511pt">
<g id="surface1">
<path d="M 318.558594 301.144531 C 318.558594 311.039062 310.539062 319.058594 300.644531 319.058594 C 290.75 319.058594 282.730469 311.039062 282.730469 301.144531 C 282.730469 291.25 290.75 283.230469 300.644531 283.230469 C 310.539062 283.230469 318.558594 291.25 318.558594 301.144531 Z M 318.558594 301.144531 " style=" stroke:none;fill-rule:nonzero;fill:rgb(0%,42.745098%,94.117647%);fill-opacity:1;" />
<path d="M 381.207031 356.542969 C 382.125 341.730469 370.859375 328.980469 356.046875 328.0625 C 341.230469 327.148438 328.480469 338.414062 327.5625 353.226562 C 326.648438 368.039062 337.914062 380.789062 352.726562 381.707031 C 352.726562 381.707031 352.730469 381.707031 352.730469 381.707031 C 367.542969 382.621094 380.289062 371.355469 381.207031 356.542969 Z M 381.207031 356.542969 " style=" stroke:none;fill-rule:nonzero;fill:rgb(92.941176%,10.980392%,14.117647%);fill-opacity:1;" />
<path d="M 273.769531 354.886719 C 273.769531 364.78125 265.75 372.800781 255.855469 372.800781 C 245.960938 372.800781 237.941406 364.78125 237.941406 354.886719 C 237.941406 344.992188 245.960938 336.972656 255.855469 336.972656 C 265.75 336.972656 273.769531 344.992188 273.769531 354.886719 Z M 273.769531 354.886719 " style=" stroke:none;fill-rule:nonzero;fill:rgb(0%,42.745098%,94.117647%);fill-opacity:1;" />
<path d="M 211.070312 390.71875 C 211.070312 400.613281 203.046875 408.632812 193.152344 408.632812 C 183.261719 408.632812 175.238281 400.613281 175.238281 390.71875 C 175.238281 380.824219 183.261719 372.804688 193.152344 372.804688 C 203.046875 372.804688 211.070312 380.824219 211.070312 390.71875 Z M 211.070312 390.71875 " style=" stroke:none;fill-rule:nonzero;fill:rgb(47.058824%,72.54902%,92.156863%);fill-opacity:1;" />
<path d="M 255.855469 413.109375 C 255.855469 420.53125 249.839844 426.546875 242.421875 426.546875 C 235 426.546875 228.984375 420.53125 228.984375 413.109375 C 228.984375 405.691406 235 399.675781 242.421875 399.675781 C 249.839844 399.675781 255.855469 405.691406 255.855469 413.109375 Z M 255.855469 413.109375 " style=" stroke:none;fill-rule:nonzero;fill:rgb(100%,31.372549%,13.72549%);fill-opacity:1;" />
<path d="M 327.515625 408.632812 C 327.515625 418.527344 319.496094 426.546875 309.601562 426.546875 C 299.707031 426.546875 291.6875 418.527344 291.6875 408.632812 C 291.6875 398.738281 299.707031 390.71875 309.601562 390.71875 C 319.496094 390.71875 327.515625 398.738281 327.515625 408.632812 Z M 327.515625 408.632812 " style=" stroke:none;fill-rule:nonzero;fill:rgb(47.058824%,72.54902%,92.156863%);fill-opacity:1;" />
<path d="M 408.132812 305.621094 C 408.132812 313.042969 402.117188 319.058594 394.695312 319.058594 C 387.277344 319.058594 381.261719 313.042969 381.261719 305.621094 C 381.261719 298.199219 387.277344 292.183594 394.695312 292.183594 C 402.117188 292.183594 408.132812 298.199219 408.132812 305.621094 Z M 408.132812 305.621094 " style=" stroke:none;fill-rule:nonzero;fill:rgb(100%,31.372549%,13.72549%);fill-opacity:1;" />
<path d="M 25.648438 286.390625 L 124.699219 385.40625 L 196.574219 313.523438 L 31.554688 148.5 C -8.09375 188.28125 -10.734375 249.96875 25.648438 286.390625 Z M 25.648438 286.390625 " style=" stroke:none;fill-rule:nonzero;fill:rgb(100%,52.156863%,42.745098%);fill-opacity:1;" />
<path d="M 169.703125 142.363281 C 133.246094 105.90625 71.449219 108.59375 31.679688 148.367188 L 31.550781 148.5 L 196.574219 313.523438 L 268.726562 241.378906 Z M 169.703125 142.363281 " style=" stroke:none;fill-rule:nonzero;fill:rgb(100%,46.666667%,32.941176%);fill-opacity:1;" />
<path d="M 342.269531 26.148438 L 243.253906 125.203125 L 315.136719 197.078125 L 480.160156 32.054688 C 440.378906 -7.59375 378.691406 -10.234375 342.269531 26.148438 Z M 342.269531 26.148438 " style=" stroke:none;fill-rule:nonzero;fill:rgb(58.823529%,78.823529%,93.72549%);fill-opacity:1;" />
<path d="M 480.292969 32.179688 L 480.160156 32.050781 L 315.136719 197.074219 L 387.28125 269.226562 L 486.296875 170.203125 C 522.789062 133.746094 520.101562 71.949219 480.292969 32.179688 Z M 480.292969 32.179688 " style=" stroke:none;fill-rule:nonzero;fill:rgb(47.058824%,72.54902%,92.156863%);fill-opacity:1;" />
</g>
</svg>