<?xml version="1.0" encoding="iso-8859-1"?>
<!-- Generator: Adobe Illustrator 19.0.0, SVG Export Plug-In . SVG Version: 6.00 Build 0)  -->
<svg version="1.1" id="Layer_1" xmlns="http://www.w3.org/2000/svg" xmlns:xlink="http://www.w3.org/1999/xlink" x="0px" y="0px"
	 viewBox="0 0 512 512" style="enable-background:new 0 0 512 512;" xml:space="preserve">
<path style="fill:#979CA7;" d="M417.391,306.087c-9.217,0-16.696-7.473-16.696-16.696V55.652c0-9.206-7.49-16.696-16.696-16.696
	h-66.783c-9.206,0-16.696,7.49-16.696,16.696v33.391c0,9.223-7.479,16.696-16.696,16.696c-9.217,0-16.696-7.473-16.696-16.696
	V55.652c0-27.619,22.468-50.087,50.087-50.087H384c27.619,0,50.087,22.468,50.087,50.087v233.739
	C434.087,298.614,426.608,306.087,417.391,306.087z"/>
<path style="fill:#C4CAD9;" d="M50.087,506.435c-9.223,0-16.696-7.473-16.696-16.696V389.565c0-9.223,7.473-16.696,16.696-16.696
	s16.696,7.473,16.696,16.696v100.174C66.783,498.962,59.31,506.435,50.087,506.435z"/>
<path style="fill:#B8BFCC;" d="M461.913,506.435c-9.223,0-16.696-7.473-16.696-16.696V389.565c0-9.223,7.473-16.696,16.696-16.696
	s16.696,7.473,16.696,16.696v100.174C478.609,498.962,471.136,506.435,461.913,506.435z"/>
<path style="fill:#F9BC35;" d="M61.217,339.478c-27.619,0-50.087-22.468-50.087-50.087s22.468-50.087,50.087-50.087
	s50.087,22.468,50.087,50.087S88.836,339.478,61.217,339.478z"/>
<path style="fill:#5C5F66;" d="M512,372.87c0,18.365-15.026,33.391-33.391,33.391H33.391C15.026,406.261,0,391.235,0,372.87
	s15.026-33.391,33.391-33.391h133.565l179.2-11.13l132.452,11.13C496.974,339.478,512,354.504,512,372.87z"/>
<path style="fill:#F9BC35;" d="M512,306.087c0,18.365-15.026,33.391-33.391,33.391H178.087V384c0,5.12-1.224,10.351-3.563,14.915
	l-33.391,66.783c-8.348,16.918-28.604,23.04-44.744,14.915c-16.473-8.237-23.149-28.271-14.913-44.744l29.828-59.77v-70.233
	c0.111-18.365,15.026-33.169,33.391-33.169h333.913C496.974,272.696,512,287.722,512,306.087z"/>
<path style="fill:#E6EEFF;" d="M333.913,122.769v-0.334c0-27.603-22.483-50.087-50.087-50.087c-10.35,0-19.812,3.117-27.826,8.459
	c-13.468,9.016-22.261,24.376-22.261,41.628v0.334c-20.814,15.694-33.391,40.292-33.391,66.449v33.391
	c0,9.238,7.456,16.696,16.696,16.696h133.565c9.239,0,16.696-7.457,16.696-16.696v-33.391
	C367.304,163.061,354.727,138.463,333.913,122.769z"/>
<path style="fill:#53565C;" d="M283.826,406.261h194.783c18.365,0,33.391-15.026,33.391-33.391s-15.026-33.391-33.391-33.391
	H283.826V406.261z"/>
<path style="fill:#F39E31;" d="M283.826,339.478h194.783c18.365,0,33.391-15.026,33.391-33.391s-15.026-33.391-33.391-33.391
	H283.826V339.478z"/>
<path style="fill:#DAE2F2;" d="M350.609,239.304c9.239,0,16.696-7.457,16.696-16.696v-33.391c0-26.157-12.577-50.755-33.391-66.449
	v-0.334c0-27.603-22.483-50.087-50.087-50.087v166.957L350.609,239.304L350.609,239.304z"/>
<g>
</g>
<g>
</g>
<g>
</g>
<g>
</g>
<g>
</g>
<g>
</g>
<g>
</g>
<g>
</g>
<g>
</g>
<g>
</g>
<g>
</g>
<g>
</g>
<g>
</g>
<g>
</g>
<g>
</g>
</svg>
