<svg width="42" height="42" viewBox="0 0 42 42" fill="none" xmlns="http://www.w3.org/2000/svg">
<path d="M36.75 21.322V7C36.75 6.53587 36.5656 6.09075 36.2374 5.76256C35.9092 5.43437 35.4641 5.25 35 5.25C34.5359 5.25 34.0908 5.43437 33.7626 5.76256C33.4344 6.09075 33.25 6.53587 33.25 7V8.75H8.75V7C8.75 6.53587 8.56563 6.09075 8.23744 5.76256C7.90925 5.43437 7.46413 5.25 7 5.25C6.53587 5.25 6.09075 5.43437 5.76256 5.76256C5.43437 6.09075 5.25 6.53587 5.25 7V21.322C4.22991 21.6826 3.34616 22.3497 2.71965 23.2318C2.09315 24.1139 1.75449 25.168 1.75 26.25V35C1.75 35.4641 1.93437 35.9093 2.26256 36.2374C2.59075 36.5656 3.03587 36.75 3.5 36.75C3.96413 36.75 4.40925 36.5656 4.73744 36.2374C5.06563 35.9093 5.25 35.4641 5.25 35V33.25H36.75V35C36.75 35.4641 36.9344 35.9093 37.2626 36.2374C37.5908 36.5656 38.0359 36.75 38.5 36.75C38.9641 36.75 39.4092 36.5656 39.7374 36.2374C40.0656 35.9093 40.25 35.4641 40.25 35V26.25C40.2455 25.168 39.9069 24.1139 39.2803 23.2318C38.6538 22.3497 37.7701 21.6826 36.75 21.322ZM33.25 21H31.5V17.5C31.5 17.0359 31.3156 16.5908 30.9874 16.2626C30.6593 15.9344 30.2141 15.75 29.75 15.75H12.25C11.7859 15.75 11.3408 15.9344 11.0126 16.2626C10.6844 16.5908 10.5 17.0359 10.5 17.5V21H8.75V12.25H33.25V21ZM14 21V19.25H19.25V21H14ZM22.75 19.25H28V21H22.75V19.25ZM5.25 26.25C5.25 25.7859 5.43437 25.3408 5.76256 25.0126C6.09075 24.6844 6.53587 24.5 7 24.5H35C35.4641 24.5 35.9092 24.6844 36.2374 25.0126C36.5656 25.3408 36.75 25.7859 36.75 26.25V29.75H5.25V26.25Z" fill="#8ABF3D"/>
</svg>
