<svg width="42" height="42" viewBox="0 0 42 42" fill="none" xmlns="http://www.w3.org/2000/svg">
<path d="M35.8749 8.06597C34.9169 6.90676 33.7136 5.97447 32.3519 5.33627C30.9901 4.69807 29.5038 4.36984 27.9999 4.37522C25.4268 4.29731 22.9217 5.20855 20.9999 6.92147C19.0782 5.20855 16.5731 4.29731 13.9999 4.37522C12.4961 4.36984 11.0097 4.69807 9.64798 5.33627C8.28624 5.97447 7.083 6.90676 6.12494 8.06597C4.45719 10.089 2.71244 13.7517 3.86919 19.721C5.71544 29.2532 19.5597 37.0757 20.1442 37.396C20.4047 37.5413 20.6981 37.6175 20.9964 37.6175C21.2948 37.6175 21.5881 37.5413 21.8487 37.396C22.4367 37.0687 36.2809 29.2462 38.1237 19.721C39.2874 13.7517 37.5427 10.089 35.8749 8.06597ZM34.6954 19.056C33.3899 25.7952 23.9014 32.0637 20.9999 33.8452C16.9119 31.3777 8.50144 25.1827 7.31319 19.056C6.41544 14.4255 7.64394 11.7357 8.83394 10.2937C9.46325 9.53441 10.2528 8.92379 11.146 8.50565C12.0391 8.08751 13.0137 7.87222 13.9999 7.87522C15.0532 7.79622 16.1091 7.99152 17.0644 8.44205C18.0198 8.89259 18.8421 9.583 19.4512 10.446C19.6014 10.7224 19.823 10.9534 20.0928 11.115C20.3627 11.2767 20.671 11.3629 20.9855 11.3649C21.3001 11.3669 21.6094 11.2844 21.8812 11.1262C22.1531 10.968 22.3775 10.7397 22.5312 10.4652C23.1391 9.59553 23.9632 8.89928 24.9222 8.44511C25.8811 7.99093 26.9419 7.79452 27.9999 7.87522C28.9882 7.87041 29.9652 8.08483 30.8606 8.50303C31.756 8.92123 32.5476 9.53281 33.1782 10.2937C34.3647 11.7357 35.5932 14.4255 34.6954 19.056Z" fill="#8ABF3D"/>
</svg>
