<svg width="42" height="42" viewBox="0 0 42 42" fill="none" xmlns="http://www.w3.org/2000/svg">
<path d="M7 40.25C7.46413 40.25 7.90925 40.0656 8.23744 39.7374C8.56563 39.4092 8.75 38.9641 8.75 38.5V28H15.75C16.2141 28 16.6592 27.8156 16.9874 27.4874C17.3156 27.1592 17.5 26.7141 17.5 26.25V12.25C17.4972 9.46608 16.3901 6.79698 14.4216 4.82845C12.453 2.85992 9.78392 1.75278 7 1.75C6.53587 1.75 6.09075 1.93437 5.76256 2.26256C5.43437 2.59075 5.25 3.03587 5.25 3.5V38.5C5.25 38.9641 5.43437 39.4092 5.76256 39.7374C6.09075 40.0656 6.53587 40.25 7 40.25ZM8.75 5.4705C10.2517 5.86071 11.5816 6.73784 12.5316 7.96458C13.4816 9.19132 13.998 10.6984 14 12.25V24.5H8.75V5.4705ZM36.75 12.25V3.5C36.75 3.03587 36.5656 2.59075 36.2374 2.26256C35.9093 1.93437 35.4641 1.75 35 1.75C34.5359 1.75 34.0907 1.93437 33.7626 2.26256C33.4344 2.59075 33.25 3.03587 33.25 3.5V10.5H31.5V3.5C31.5 3.03587 31.3156 2.59075 30.9874 2.26256C30.6593 1.93437 30.2141 1.75 29.75 1.75C29.2859 1.75 28.8407 1.93437 28.5126 2.26256C28.1844 2.59075 28 3.03587 28 3.5V10.5H26.25V3.5C26.25 3.03587 26.0656 2.59075 25.7374 2.26256C25.4092 1.93437 24.9641 1.75 24.5 1.75C24.0359 1.75 23.5908 1.93437 23.2626 2.26256C22.9344 2.59075 22.75 3.03587 22.75 3.5V12.25C22.7558 13.7974 23.2742 15.2992 24.224 16.5208C25.1739 17.7423 26.5017 18.6147 28 19.0015V23.121C27.2207 23.4611 26.5574 24.021 26.0912 24.7321C25.625 25.4432 25.3761 26.2747 25.375 27.125V35.875C25.375 37.0353 25.8359 38.1481 26.6564 38.9686C27.4769 39.7891 28.5897 40.25 29.75 40.25C30.9103 40.25 32.0231 39.7891 32.8436 38.9686C33.6641 38.1481 34.125 37.0353 34.125 35.875V27.125C34.1239 26.2747 33.875 25.4432 33.4088 24.7321C32.9426 24.021 32.2793 23.4611 31.5 23.121V19.0015C32.9983 18.6147 34.3261 17.7423 35.276 16.5208C36.2258 15.2992 36.7442 13.7974 36.75 12.25ZM26.7208 14H32.7793C32.4718 14.5312 32.0301 14.9722 31.4984 15.2788C30.9667 15.5854 30.3638 15.7468 29.75 15.7468C29.1362 15.7468 28.5333 15.5854 28.0016 15.2788C27.4699 14.9722 27.0282 14.5312 26.7208 14ZM30.625 35.875C30.625 36.1071 30.5328 36.3296 30.3687 36.4937C30.2046 36.6578 29.9821 36.75 29.75 36.75C29.5179 36.75 29.2954 36.6578 29.1313 36.4937C28.9672 36.3296 28.875 36.1071 28.875 35.875V27.125C28.875 26.8929 28.9672 26.6704 29.1313 26.5063C29.2954 26.3422 29.5179 26.25 29.75 26.25C29.9821 26.25 30.2046 26.3422 30.3687 26.5063C30.5328 26.6704 30.625 26.8929 30.625 27.125V35.875Z" fill="#8ABF3D"/>
</svg>
