<svg width="42" height="42" viewBox="0 0 42 42" fill="none" xmlns="http://www.w3.org/2000/svg">
<path d="M40.159 18.697L34.909 2.947C34.793 2.59867 34.5704 2.29566 34.2726 2.08084C33.9749 1.86602 33.6171 1.75028 33.25 1.75H8.75C8.38286 1.75028 8.02511 1.86602 7.72738 2.08084C7.42965 2.29566 7.20702 2.59867 7.091 2.947L1.841 18.697C1.78668 18.8766 1.75608 19.0625 1.75 19.25V38.5C1.75 38.9641 1.93437 39.4092 2.26256 39.7374C2.59075 40.0656 3.03587 40.25 3.5 40.25H38.5C38.9641 40.25 39.4092 40.0656 39.7374 39.7374C40.0656 39.4092 40.25 38.9641 40.25 38.5C40.25 38.325 40.236 19.0278 40.25 19.2027C40.2451 19.0306 40.2144 18.8601 40.159 18.697ZM10.0118 5.25H31.9882L36.071 17.5H30.471L22.2372 9.26275C21.9091 8.93468 21.464 8.75037 21 8.75037C20.536 8.75037 20.0909 8.93468 19.7628 9.26275L11.5255 17.5H5.9255L10.0118 5.25ZM19.25 36.75V28H22.75V36.75H19.25ZM36.75 36.75H26.25V26.25C26.25 25.7859 26.0656 25.3408 25.7374 25.0126C25.4092 24.6844 24.9641 24.5 24.5 24.5H17.5C17.0359 24.5 16.5908 24.6844 16.2626 25.0126C15.9344 25.3408 15.75 25.7859 15.75 26.25V36.75H5.25V21H12.25C12.7141 20.9999 13.1591 20.8155 13.4872 20.4872L21 12.9745L28.5127 20.4872C28.8409 20.8155 29.2859 20.9999 29.75 21H36.75V36.75ZM22.75 19.25C22.75 19.5961 22.6474 19.9345 22.4551 20.2222C22.2628 20.51 21.9895 20.7343 21.6697 20.8668C21.3499 20.9992 20.9981 21.0339 20.6586 20.9664C20.3191 20.8988 20.0073 20.7322 19.7626 20.4874C19.5178 20.2427 19.3512 19.9309 19.2836 19.5914C19.2161 19.2519 19.2508 18.9001 19.3832 18.5803C19.5157 18.2605 19.74 17.9872 20.0278 17.7949C20.3155 17.6026 20.6539 17.5 21 17.5C21.4641 17.5 21.9092 17.6844 22.2374 18.0126C22.5656 18.3408 22.75 18.7859 22.75 19.25ZM7 24.5H14V28H7V24.5ZM28 24.5H35V28H28V24.5ZM7 29.75H14V33.25H7V29.75ZM28 29.75H35V33.25H28V29.75Z" fill="#8ABF3D"/>
</svg>
