<svg width="42" height="42" viewBox="0 0 42 42" fill="none" xmlns="http://www.w3.org/2000/svg">
<path d="M8.75 36.75V37.625C8.75 38.3212 9.02656 38.9889 9.51884 39.4812C10.0111 39.9734 10.6788 40.25 11.375 40.25C12.0712 40.25 12.7389 39.9734 13.2312 39.4812C13.7234 38.9889 14 38.3212 14 37.625V36.75H28V37.625C28 38.3212 28.2766 38.9889 28.7688 39.4812C29.2611 39.9734 29.9288 40.25 30.625 40.25C31.3212 40.25 31.9889 39.9734 32.4812 39.4812C32.9734 38.9889 33.25 38.3212 33.25 37.625V36.75C34.1783 36.75 35.0685 36.3812 35.7249 35.7249C36.3813 35.0685 36.75 34.1783 36.75 33.25V24.5C36.7454 23.3418 36.358 22.2177 35.648 21.3027C34.9381 20.3876 33.9454 19.733 32.8247 19.4408L29.6607 9.947C29.5446 9.59839 29.3217 9.29517 29.0237 9.08033C28.7256 8.86548 28.3674 8.74991 28 8.75H14C13.6326 8.74991 13.2744 8.86548 12.9763 9.08033C12.6783 9.29517 12.4554 9.59839 12.3393 9.947L9.17525 19.4408C8.05456 19.733 7.06195 20.3876 6.352 21.3027C5.64205 22.2177 5.2546 23.3418 5.25 24.5V33.25C5.25 34.1783 5.61875 35.0685 6.27513 35.7249C6.9315 36.3812 7.82174 36.75 8.75 36.75ZM15.2617 12.25H26.7383L29.0728 19.25H12.9272L15.2617 12.25ZM8.75 24.5C8.75 24.0359 8.93437 23.5908 9.26256 23.2626C9.59075 22.9344 10.0359 22.75 10.5 22.75H31.5C31.9641 22.75 32.4093 22.9344 32.7374 23.2626C33.0656 23.5908 33.25 24.0359 33.25 24.5V33.25H8.75V24.5ZM15.75 3.5C15.75 3.03587 15.9344 2.59075 16.2626 2.26256C16.5908 1.93437 17.0359 1.75 17.5 1.75H24.5C24.9641 1.75 25.4092 1.93437 25.7374 2.26256C26.0656 2.59075 26.25 3.03587 26.25 3.5C26.25 3.96413 26.0656 4.40925 25.7374 4.73744C25.4092 5.06563 24.9641 5.25 24.5 5.25H17.5C17.0359 5.25 16.5908 5.06563 16.2626 4.73744C15.9344 4.40925 15.75 3.96413 15.75 3.5ZM14 28C14 28.3461 13.8974 28.6845 13.7051 28.9722C13.5128 29.26 13.2395 29.4843 12.9197 29.6168C12.5999 29.7492 12.2481 29.7839 11.9086 29.7164C11.5691 29.6488 11.2573 29.4822 11.0126 29.2374C10.7678 28.9927 10.6011 28.6809 10.5336 28.3414C10.4661 28.0019 10.5008 27.6501 10.6332 27.3303C10.7657 27.0105 10.99 26.7372 11.2778 26.5449C11.5655 26.3526 11.9039 26.25 12.25 26.25C12.7141 26.25 13.1592 26.4344 13.4874 26.7626C13.8156 27.0908 14 27.5359 14 28ZM31.5 28C31.5 28.3461 31.3974 28.6845 31.2051 28.9722C31.0128 29.26 30.7395 29.4843 30.4197 29.6168C30.0999 29.7492 29.7481 29.7839 29.4086 29.7164C29.0691 29.6488 28.7573 29.4822 28.5126 29.2374C28.2678 28.9927 28.1012 28.6809 28.0336 28.3414C27.9661 28.0019 28.0008 27.6501 28.1332 27.3303C28.2657 27.0105 28.49 26.7372 28.7778 26.5449C29.0655 26.3526 29.4039 26.25 29.75 26.25C30.2141 26.25 30.6593 26.4344 30.9874 26.7626C31.3156 27.0908 31.5 27.5359 31.5 28Z" fill="#8ABF3D"/>
</svg>
