<svg width="42" height="42" viewBox="0 0 42 42" fill="none" xmlns="http://www.w3.org/2000/svg">
<path d="M19.25 33.11V36.75H14C13.5359 36.75 13.0908 36.9344 12.7626 37.2626C12.4344 37.5908 12.25 38.0359 12.25 38.5C12.25 38.9641 12.4344 39.4092 12.7626 39.7374C13.0908 40.0656 13.5359 40.25 14 40.25H28C28.4641 40.25 28.9093 40.0656 29.2374 39.7374C29.5656 39.4092 29.75 38.9641 29.75 38.5C29.75 38.0359 29.5656 37.5908 29.2374 37.2626C28.9093 36.9344 28.4641 36.75 28 36.75H22.75V33.11C25.663 32.6895 28.3273 31.2343 30.2554 29.0106C32.1835 26.7868 33.2466 23.9432 33.25 21V14C33.25 10.7511 31.9594 7.63526 29.6621 5.33794C27.3647 3.04062 24.2489 1.75 21 1.75C17.7511 1.75 14.6353 3.04062 12.3379 5.33794C10.0406 7.63526 8.75 10.7511 8.75 14V21C8.75345 23.9432 9.81646 26.7868 11.7446 29.0106C13.6727 31.2343 16.337 32.6895 19.25 33.11ZM12.25 14C12.25 11.6794 13.1719 9.45376 14.8128 7.81282C16.4538 6.17187 18.6794 5.25 21 5.25C23.3206 5.25 25.5462 6.17187 27.1872 7.81282C28.8281 9.45376 29.75 11.6794 29.75 14V21C29.7475 23.0164 29.0498 24.9702 27.7747 26.5322C26.4996 28.0942 24.725 29.1688 22.75 29.575V25.2245L27.4872 20.4872C27.806 20.1572 27.9824 19.7151 27.9784 19.2563C27.9744 18.7975 27.7904 18.3585 27.4659 18.0341C27.1415 17.7096 26.7025 17.5256 26.2437 17.5216C25.7849 17.5176 25.3428 17.694 25.0128 18.0128L22.75 20.2755V15.75C22.75 15.2859 22.5656 14.8408 22.2374 14.5126C21.9092 14.1844 21.4641 14 21 14C20.5359 14 20.0908 14.1844 19.7626 14.5126C19.4344 14.8408 19.25 15.2859 19.25 15.75V20.2755L16.9872 18.0128C16.6572 17.694 16.2151 17.5176 15.7563 17.5216C15.2975 17.5256 14.8585 17.7096 14.5341 18.0341C14.2096 18.3585 14.0256 18.7975 14.0216 19.2563C14.0176 19.7151 14.194 20.1572 14.5128 20.4872L19.25 25.2245V29.575C17.275 29.1688 15.5004 28.0942 14.2253 26.5322C12.9502 24.9702 12.2525 23.0164 12.25 21V14Z" fill="#8ABF3D"/>
</svg>
