<svg width="52" height="52" viewBox="0 0 52 52" fill="none" xmlns="http://www.w3.org/2000/svg">
<path d="M40.0944 41.1666H43.3333C45.7266 41.1666 47.8116 39.1645 47.0513 36.8953C45.8927 33.437 43.0421 31.3456 38.0309 30.6212M31.4169 23.5396C32.0474 23.7389 32.7695 23.8333 33.5833 23.8333C37.1945 23.8333 39 21.9761 39 17.3333C39 12.6904 37.1945 10.8333 33.5833 10.8333C32.7695 10.8333 32.0474 10.9276 31.4169 11.1269M20.5833 30.3333C29.6688 30.3333 33.8308 33.2789 34.5517 39.1702C34.6858 40.2666 33.7712 41.1666 32.6667 41.1666H8.5C7.39543 41.1666 6.48086 40.2666 6.615 39.1702C7.33582 33.2789 11.4979 30.3333 20.5833 30.3333ZM20.5833 23.8333C24.1944 23.8333 26 21.9761 26 17.3333C26 12.6904 24.1944 10.8333 20.5833 10.8333C16.9722 10.8333 15.1667 12.6904 15.1667 17.3333C15.1667 21.9761 16.9722 23.8333 20.5833 23.8333Z" stroke="#FE4856" stroke-width="2" stroke-linecap="round" stroke-linejoin="round"/>
</svg>
