<svg width="52" height="52" viewBox="0 0 52 52" fill="none" xmlns="http://www.w3.org/2000/svg">
<path d="M34.6663 7.5835V5.3335C34.6663 4.78121 34.2186 4.3335 33.6663 4.3335H30.333M21.6663 4.3335H17.333M8.66634 4.3335H5.33301C4.78072 4.3335 4.33301 4.78121 4.33301 5.3335V8.66683M4.33301 17.3335V21.6668M4.33301 30.3335V33.6668C4.33301 34.2191 4.78072 34.6668 5.33301 34.6668H7.58301M21.6663 34.6668H17.333V46.6668C17.333 47.2191 17.7807 47.6668 18.333 47.6668H46.6663C47.2186 47.6668 47.6663 47.2191 47.6663 46.6668V18.3335C47.6663 17.7812 47.2186 17.3335 46.6663 17.3335H34.6663V21.6668M30.333 34.6668H33.6663C34.2186 34.6668 34.6663 34.2191 34.6663 33.6668V30.3335" stroke="#4949E7" stroke-width="2" stroke-linecap="round" stroke-linejoin="round"/>
</svg>
