<svg width="84" height="84" viewBox="0 0 84 84" fill="none" xmlns="http://www.w3.org/2000/svg">
<path d="M30.665 27L41.255 15.4433C44.6325 12.0658 49.2134 10.1683 53.99 10.1683C58.7665 10.1683 63.3475 12.0658 66.725 15.4433C70.1025 18.8209 72 23.4018 72 28.1783C72 32.9549 70.1025 37.5358 66.725 40.9133L39.155 68.4833C36.9033 70.735 33.8494 72 30.665 72C27.4806 72 24.4267 70.735 22.175 68.4833C19.9233 66.2316 18.6583 63.1777 18.6583 59.9933C18.6583 56.809 19.9233 53.755 22.175 51.5033L49.775 23.9333C50.9008 22.8075 52.4278 22.175 54.02 22.175C55.6122 22.175 57.1391 22.8075 58.265 23.9333C59.3908 25.0592 60.0233 26.5861 60.0233 28.1783C60.0233 29.7705 59.3908 31.2975 58.265 32.4233L32.795 57.8633" stroke="#4949E7" stroke-width="2" stroke-linecap="round" stroke-linejoin="round"/>
</svg>
