<svg width="26" height="26" viewBox="0 0 26 26" fill="none" xmlns="http://www.w3.org/2000/svg">
<path d="M11.05 5.2C11.768 5.2 12.35 5.78203 12.35 6.5V9.75H15.6C16.318 9.75 16.9 10.332 16.9 11.05C16.9 11.768 16.318 12.35 15.6 12.35H12.35V15.6C12.35 16.318 11.768 16.9 11.05 16.9C10.332 16.9 9.75 16.318 9.75 15.6V12.35H6.5C5.78203 12.35 5.2 11.768 5.2 11.05C5.2 10.332 5.78203 9.75 6.5 9.75H9.75V6.5C9.75 5.78203 10.332 5.2 11.05 5.2Z" fill="white"/>
<path fill-rule="evenodd" clip-rule="evenodd" d="M11.05 0C4.94725 0 0 4.94725 0 11.05C0 17.1527 4.94725 22.1 11.05 22.1C13.6329 22.1 16.0089 21.2138 17.8904 19.7288L23.7808 25.6192C24.2884 26.1269 25.1116 26.1269 25.6192 25.6192C26.1269 25.1116 26.1269 24.2884 25.6192 23.7808L19.7288 17.8904C21.2138 16.0089 22.1 13.6329 22.1 11.05C22.1 4.94725 17.1527 0 11.05 0ZM2.6 11.05C2.6 6.38319 6.38319 2.6 11.05 2.6C15.7168 2.6 19.5 6.38319 19.5 11.05C19.5 15.7168 15.7168 19.5 11.05 19.5C6.38319 19.5 2.6 15.7168 2.6 11.05Z" fill="white"/>
</svg>
