<svg width="50" height="50" viewBox="0 0 50 50" fill="none" xmlns="http://www.w3.org/2000/svg">
    <path d="M25.0013 43.75C25.0013 43.75 4.16797 35.7083 4.16797 17.7083C4.16797 14.6694 5.37503 11.755 7.52389 9.60617C9.67274 7.45732 12.5874 6.25 15.6263 6.25C17.468 6.24938 19.282 6.69423 20.9145 7.54674C22.547 8.39926 23.9494 9.63408 25.0013 11.1458C26.0545 9.63534 27.4564 8.40165 29.0886 7.54929C30.7208 6.69692 32.535 6.25114 34.3763 6.25C37.4152 6.25 40.3294 7.45732 42.4782 9.60617C44.6271 11.755 45.8346 14.6694 45.8346 17.7083C45.8346 35.7083 25.0013 43.75 25.0013 43.75Z"
          stroke="#4949E7" stroke-width="2" stroke-linejoin="round"/>
    <circle cx="35" cy="17" r="3" fill="#FE4856"/>
</svg>
