<svg width="50" height="50" viewBox="0 0 50 50" fill="none" xmlns="http://www.w3.org/2000/svg">
    <path d="M14.6641 20.8327L20.0392 6.60361C20.2958 5.89149 20.7653 5.27551 21.384 4.83944C22.0027 4.40337 22.7404 4.16824 23.4974 4.16602V4.16602C24.4698 4.16602 25.4022 4.55235 26.0898 5.23998C26.7775 5.92761 27.1641 6.86024 27.1641 7.8327V20.8327H41.7474C42.3867 20.8331 43.0175 20.9807 43.5907 21.2639C44.1638 21.5471 44.6642 21.9583 45.053 22.4659C45.4417 22.9735 45.7081 23.5637 45.8322 24.1909C45.9562 24.8181 45.9343 25.4654 45.7681 26.0827L41.7682 42.7494C41.5263 43.6299 41.0014 44.4066 40.2749 44.9599C39.5485 45.5132 38.6608 45.8126 37.7476 45.812H14.6641"
          stroke="#4949E7" stroke-width="2" stroke-linejoin="round"/>
    <path d="M8.33464 20.8535H14.5846V45.8535H8.33464C7.22957 45.8535 6.16976 45.4145 5.38835 44.6331C4.60695 43.8517 4.16797 42.7919 4.16797 41.6868V25.0202C4.16797 23.9151 4.60695 22.8553 5.38835 22.0739C6.16976 21.2925 7.22957 20.8535 8.33464 20.8535Z"
          stroke="#FE4856" stroke-width="2" stroke-linejoin="round"/>
</svg>
