<svg width="50" height="50" viewBox="0 0 50 50" fill="none" xmlns="http://www.w3.org/2000/svg">
<path d="M27.6024 5.24634L30.4568 8.07977C31.1572 8.76915 32.0986 9.15776 33.0813 9.16301H37.0817C38.0671 9.163 39.0125 9.55306 39.7113 10.2479C40.41 10.9428 40.8054 11.886 40.8109 12.8714V16.8922C40.8216 17.8677 41.2099 18.8012 41.8943 19.4964L44.7274 22.3505C45.0751 22.6936 45.3512 23.1023 45.5396 23.5529C45.7281 24.0036 45.825 24.4871 45.825 24.9756C45.825 25.464 45.7281 25.9476 45.5396 26.3982C45.3512 26.8488 45.0751 27.2576 44.7274 27.6006L41.8943 30.4547C41.2105 31.1588 40.8227 32.0983 40.8109 33.0798V37.0797C40.8109 38.0688 40.4178 39.0172 39.7184 39.7166C39.019 40.4159 38.0707 40.8089 37.0817 40.8089H33.0813C32.0986 40.8141 31.1572 41.2028 30.4568 41.8922L27.6024 44.7255C27.2594 45.0732 26.8506 45.3494 26.4 45.5378C25.9494 45.7262 25.4658 45.8233 24.9774 45.8233C24.489 45.8233 24.0054 45.7262 23.5548 45.5378C23.1041 45.3494 22.6954 45.0732 22.3524 44.7255L19.5193 41.8922C18.8189 41.2028 17.877 40.8141 16.8943 40.8089H12.8731C11.8877 40.8033 10.9445 40.4081 10.2496 39.7093C9.55476 39.0106 9.1647 38.0652 9.16471 37.0797V33.0798C9.16168 32.0966 8.7726 31.1539 8.08134 30.4547L5.24829 27.6006C4.5562 26.9022 4.16797 25.9588 4.16797 24.9756C4.16797 23.9924 4.5562 23.0489 5.24829 22.3505L8.08134 19.4964C8.77328 18.8062 9.16297 17.8695 9.16471 16.8922V12.8714C9.16471 11.8879 9.55569 10.9446 10.2511 10.2492C10.9466 9.55374 11.8896 9.16301 12.8731 9.16301H16.8943C17.877 9.15776 18.8189 8.76915 19.5193 8.07977L22.3524 5.24634C23.0507 4.55425 23.9942 4.16602 24.9774 4.16602C25.9606 4.16602 26.9041 4.55425 27.6024 5.24634V5.24634Z" stroke="#4949E7" stroke-width="2" stroke-miterlimit="10"/>
<path d="M33.3112 19.8086L22.6445 30.2253L16.6445 24.4752" stroke="#FE4856" stroke-width="2" stroke-miterlimit="10"/>
</svg>
