<svg width="50" height="50" viewBox="0 0 50 50" fill="none" xmlns="http://www.w3.org/2000/svg">
    <path d="M12.5013 39.6035H31.2513C32.3564 39.6035 33.4159 39.1646 34.1973 38.3832C34.9787 37.6018 35.418 36.5419 35.418 35.4368V18.7702C35.418 17.6651 34.9787 16.6054 34.1973 15.824C33.4159 15.0426 32.3564 14.6035 31.2513 14.6035H8.33467C7.2296 14.6035 6.1696 15.0426 5.3882 15.824C4.6068 16.6054 4.168 17.6651 4.168 18.7702V42.9161C4.1656 43.3299 4.28613 43.735 4.51489 44.0798C4.74364 44.4246 5.07011 44.6935 5.45229 44.8522C5.83446 45.0108 6.25506 45.0522 6.66078 44.9708C7.06651 44.8894 7.43903 44.689 7.73042 44.3952L12.5013 39.6035Z"
          stroke="#4949E7" stroke-width="2" stroke-linejoin="round"/>
    <path d="M37.5026 31.25H41.6693C42.7743 31.25 43.8338 30.8111 44.6152 30.0297C45.3966 29.2483 45.8359 28.1884 45.8359 27.0833V10.4167C45.8359 9.3116 45.3966 8.25185 44.6152 7.47045C43.8338 6.68905 42.7743 6.25 41.6693 6.25H18.7526C17.6475 6.25 16.5875 6.68905 15.8061 7.47045C15.0247 8.25185 14.5859 9.3116 14.5859 10.4167V14.7083"
          stroke="#FE4856" stroke-width="2" stroke-linejoin="round"/>
</svg>
