<svg width="50" height="50" viewBox="0 0 50 50" fill="none" xmlns="http://www.w3.org/2000/svg">
    <path d="M25.0011 45.8327C36.507 45.8327 45.8344 36.5053 45.8344 24.9994C45.8344 13.4934 36.507 4.16602 25.0011 4.16602C13.4951 4.16602 4.16772 13.4934 4.16772 24.9994C4.16772 36.5053 13.4951 45.8327 25.0011 45.8327Z"
          stroke="#4949E7" stroke-width="2" stroke-miterlimit="10"/>
    <path d="M16.166 33.8333C14.9994 32.6778 14.0744 31.3017 13.4449 29.7852C12.8153 28.2686 12.4944 26.642 12.4998 25C12.4998 21.6848 13.8167 18.5053 16.1609 16.1611C18.5051 13.8169 21.6846 12.5 24.9998 12.5"
          stroke="#4949E7" stroke-width="2" stroke-miterlimit="10"/>
    <path d="M24.9998 24.9987L35.4164 14.582" stroke="#FE4856" stroke-width="2" stroke-miterlimit="10"/>
    <path d="M27.6248 25C27.6248 26.4497 26.4495 27.625 24.9998 27.625C23.55 27.625 22.3748 26.4497 22.3748 25C22.3748 23.5503 23.55 22.375 24.9998 22.375C26.4495 22.375 27.6248 23.5503 27.6248 25Z"
          fill="#FE4856" stroke="#FE4856"/>
</svg>
