<svg width="50" height="50" viewBox="0 0 50 50" fill="none" xmlns="http://www.w3.org/2000/svg">
<path d="M40.7097 28.5625C43.8972 30.3958 45.8346 32.7292 45.8346 35.4167C45.8346 41.1667 36.5013 45.8333 25.0013 45.8333C13.5013 45.8333 4.16797 41.1667 4.16797 35.4167C4.16797 32.7917 6.10541 30.3958 9.31374 28.5625" stroke="#FE4856" stroke-width="2" stroke-linejoin="round"/>
<path d="M12.5 16.668C12.5 13.3528 13.8169 10.1734 16.1611 7.82916C18.5053 5.48495 21.6848 4.16797 25 4.16797C28.3152 4.16797 31.4947 5.48495 33.8389 7.82916C36.1831 10.1734 37.5 13.3528 37.5 16.668C37.5 29.2721 25 35.418 25 35.418C25 35.418 12.5 29.2721 12.5 16.668Z" stroke="#4949E7" stroke-width="2" stroke-linejoin="round"/>
<path d="M25.0026 19.7923C27.3038 19.7923 29.1693 17.9268 29.1693 15.6257C29.1693 13.3245 27.3038 11.459 25.0026 11.459C22.7014 11.459 20.8359 13.3245 20.8359 15.6257C20.8359 17.9268 22.7014 19.7923 25.0026 19.7923Z" fill="#4949E7"/>
</svg>
