<svg width="50" height="50" viewBox="0 0 50 50" fill="none" xmlns="http://www.w3.org/2000/svg">
<path d="M35.8215 30.2793L42.4678 33.6335C42.8037 33.8102 43.0848 34.0754 43.281 34.4003C43.4773 34.7253 43.5811 35.0977 43.5811 35.4773C43.5811 35.8569 43.4773 36.2292 43.281 36.5542C43.0848 36.8791 42.8037 37.1442 42.4678 37.321L26.0717 45.6543C25.7114 45.8294 25.3162 45.9203 24.9156 45.9203C24.515 45.9203 24.1198 45.8294 23.7595 45.6543L7.36338 37.321C7.02744 37.1442 6.74631 36.8791 6.55009 36.5542C6.35387 36.2292 6.25 35.8569 6.25 35.4773C6.25 35.0977 6.35387 34.7253 6.55009 34.4003C6.74631 34.0754 7.02744 33.8102 7.36338 33.6335L14.0091 30.2793" stroke="#4949E7" stroke-width="2" stroke-linejoin="round"/>
<path d="M35.8215 19.8633L42.4678 23.2175C42.8037 23.3942 43.0848 23.6594 43.281 23.9843C43.4773 24.3092 43.5811 24.6817 43.5811 25.0613C43.5811 25.4408 43.4773 25.8132 43.281 26.1381C43.0848 26.4631 42.8037 26.7282 42.4678 26.905L26.0717 35.2383C25.7114 35.4133 25.3162 35.5043 24.9156 35.5043C24.515 35.5043 24.1198 35.4133 23.7595 35.2383L7.36338 26.905C7.02744 26.7282 6.74631 26.4631 6.55009 26.1381C6.35387 25.8132 6.25 25.4408 6.25 25.0613C6.25 24.6817 6.35387 24.3092 6.55009 23.9843C6.74631 23.6594 7.02744 23.3942 7.36338 23.2175L14.0091 19.8633" stroke="#FE4856" stroke-width="2" stroke-linejoin="round"/>
<path d="M23.7595 24.801L7.36338 16.4677C7.02744 16.291 6.74631 16.0258 6.55009 15.7008C6.35387 15.3759 6.25 15.0035 6.25 14.6239C6.25 14.2444 6.35387 13.872 6.55009 13.5471C6.74631 13.2221 7.02744 12.9569 7.36338 12.7802L23.7595 4.44684C24.1169 4.26231 24.5133 4.16602 24.9156 4.16602C25.3179 4.16602 25.7142 4.26231 26.0717 4.44684L42.4678 12.7802C42.8037 12.9569 43.0848 13.2221 43.281 13.5471C43.4773 13.872 43.5811 14.2444 43.5811 14.6239C43.5811 15.0035 43.4773 15.3759 43.281 15.7008C43.0848 16.0258 42.8037 16.291 42.4678 16.4677L26.0717 24.801C25.7114 24.9761 25.3162 25.0671 24.9156 25.0671C24.515 25.0671 24.1198 24.9761 23.7595 24.801V24.801Z" stroke="#4949E7" stroke-width="2" stroke-linejoin="round"/>
</svg>
