<?xml version="1.0" standalone="no"?>
<!DOCTYPE svg PUBLIC "-//W3C//DTD SVG 1.1//EN" "http://www.w3.org/Graphics/SVG/1.1/DTD/svg11.dtd" >
<svg>
<metadata>
Created by FontForge 20090622 at Tue Sep 17 15:10:04 2019
 By deploy user
Copyright (c) 2013 by Aviation Partners. All rights reserved.
</metadata>
<defs>
<font id="CorsicaRamblerLX-SemiBoldIt" horiz-adv-x="574" >
  <font-face 
    font-family="Corsica Rambler LX SemiBold"
    font-weight="600"
    font-style="italic"
    font-stretch="normal"
    units-per-em="1000"
    panose-1="2 0 0 0 0 0 0 0 0 0"
    ascent="775"
    descent="-225"
    x-height="534"
    cap-height="712"
    bbox="-162 -274 1265 987"
    underline-thickness="50"
    underline-position="-50"
    slope="-12"
    unicode-range="U+000D-U+FB04"
  />
<missing-glyph horiz-adv-x="586" 
d="M146 724h500l-153 -724h-500zM463 37l139 650h-426l-139 -650h426zM181 233l-22 29l131 109l-84 110l34 28l86 -109l132 109l22 -28l-132 -110l85 -109l-34 -29l-86 109z" />
    <glyph glyph-name=".notdef" horiz-adv-x="586" 
d="M146 724h500l-153 -724h-500zM463 37l139 650h-426l-139 -650h426zM181 233l-22 29l131 109l-84 110l34 28l86 -109l132 109l22 -28l-132 -110l85 -109l-34 -29l-86 109z" />
    <glyph glyph-name="NULL" horiz-adv-x="0" 
 />
    <glyph glyph-name="NULL" horiz-adv-x="0" 
 />
    <glyph glyph-name="nonmarkingreturn" unicode="&#xd;" horiz-adv-x="333" 
 />
    <glyph glyph-name="space" unicode=" " horiz-adv-x="195" 
 />
    <glyph glyph-name="exclam" unicode="!" horiz-adv-x="290" 
d="M67 182l113 530h132l-113 -530h-132zM126 153q28 0 46 -18.5t18 -45.5q0 -38 -31 -66q-29 -28 -67 -28q-28 0 -45.5 16.5t-17.5 43.5q0 39 30 68q30 30 67 30z" />
    <glyph glyph-name="quotedbl" unicode="&#x22;" horiz-adv-x="401" 
d="M148 712h133l-82 -290h-93zM322 712h133l-82 -290h-92z" />
    <glyph glyph-name="numbersign" unicode="#" horiz-adv-x="430" 
d="M192 663h126l-60 -163h54l60 163h128l-60 -163h67l-27 -127h-87l-29 -77h73l-26 -125h-94l-63 -171h-127l63 171h-54l-64 -171h-126l62 171h-74l26 125h95l29 77h-81l27 127h101zM209 383l-37 -96h66l37 96h-66z" />
    <glyph glyph-name="dollar" unicode="$" horiz-adv-x="564" 
d="M344 432q30 -17 45 -27q8 -5 18 -12t23 -17q26 -20 39 -37t23.5 -43.5t10.5 -55.5q0 -106 -73 -176q-74 -71 -180 -75l-12 -55h-52l12 57q-93 12 -153 72l41 168q12 -17 28 -34t34 -31.5t38 -25.5t41 -15l38 178l-32.5 19l-23.5 14q-10 7 -21 16l-25 20
q-27 24 -39.5 53.5t-12.5 65.5q0 100 69 166q68 67 174 67l12 58h52l-13 -62q83 -12 132 -59l-37 -153q-53 57 -123 77zM251 520q0 -29 47 -61l28 131q-29 -3 -51.5 -22t-23.5 -48zM278 124q36 6 60.5 27t24.5 54q0 36 -52 70z" />
    <glyph glyph-name="percent" unicode="%" horiz-adv-x="761" 
d="M281 724q128 0 128 -128q0 -28 -6 -62q-36 -189 -193 -189q-130 0 -130 126q0 31 7 63q34 190 194 190zM225 434q25 0 49 21.5t34 64.5q6 25 6 59q0 56 -47 56q-25 0 -50 -23t-35 -69q-2 -13 -3.5 -26t-1.5 -27q0 -56 48 -56zM602 372q130 0 130 -124q0 -11 -1.5 -27.5
t-5.5 -37.5q-35 -189 -195 -189q-129 0 -129 126q0 25 7 63q36 189 194 189zM545 83q25 0 48.5 18.5t34.5 60.5q8 30 8 65q0 56 -48 56q-26 0 -50.5 -22.5t-34.5 -70.5q-5 -28 -5 -51q0 -56 47 -56zM680 669l-495 -685l-69 49l496 685z" />
    <glyph glyph-name="ampersand" unicode="&#x26;" horiz-adv-x="726" 
d="M536 0l-76 100q-116 -111 -223 -111q-87 0 -140 50t-53 128q0 45 12.5 81.5t36 67.5t56.5 58t75 51q-31 44 -31 104q0 87 62 141q61 54 146 54q67 0 114 -41q46 -40 46 -108q0 -112 -140 -192l59 -79l73 86h153l-156 -184l156 -206h-170zM297 321q-23 -11 -43 -26
t-38 -32q-36 -35 -36 -69q0 -15 6.5 -27.5t18 -22.5t26 -15.5t29.5 -5.5q55 0 129 73zM382 602q-22 0 -42 -15t-20 -39q0 -36 25 -67q81 39 81 82q0 17 -12.5 28t-31.5 11z" />
    <glyph glyph-name="quotesingle" unicode="'" horiz-adv-x="226" 
d="M147 712h133l-81 -290h-93z" />
    <glyph glyph-name="parenleft" unicode="(" horiz-adv-x="320" 
d="M378 724l-40.5 -52t-32.5 -45t-30 -49l-35 -63q-36 -69 -55 -152t-19 -177q0 -185 80 -348h-122l-12 26l-12 29l-3.5 10t-7.5 18q-9 22 -12 31l-10 32q-7 21 -10 35.5t-8 36.5q-7 31 -9.5 62t-2.5 68q0 26 1.5 52t5.5 52t8 48t9 42.5t12 41t17 44.5l19 41t13 31
q6 13 16.5 30l24.5 40t23.5 37l14.5 21t14.5 21.5t25.5 36.5h137z" />
    <glyph glyph-name="parenright" unicode=")" horiz-adv-x="319" 
d="M-41 -162l40 52t32 45t30.5 48.5t34.5 62.5q37 70 56 153t19 177q0 185 -80 348h122l11 -26q11 -23 12 -29l12 -28q9 -22 12 -31l10 -32q7 -21 10 -35.5t8 -36.5q7 -31 9.5 -62t2.5 -68q0 -26 -2 -52.5t-6 -52.5q-3 -26 -7 -47.5t-9 -42t-12.5 -41t-17.5 -44.5l-18 -41
l-14 -31q-5 -13 -15.5 -30l-24.5 -40t-23.5 -37l-14.5 -21t-14.5 -21.5t-25.5 -36.5h-137z" />
    <glyph glyph-name="asterisk" unicode="*" horiz-adv-x="445" 
d="M235 712h115l-12 -116l105 48l35 -110l-111 -26l76 -83l-94 -69l-57 98l-58 -98l-93 69l77 83l-113 26l36 110l105 -48z" />
    <glyph glyph-name="plus" unicode="+" 
d="M221 483h128v-177h178v-129h-178v-177h-128v177h-177v129h177v177z" />
    <glyph glyph-name="comma" unicode="," horiz-adv-x="301" 
d="M-67 -175q34 75 59.5 146.5t44.5 141.5l147 12q-38 -94 -80.5 -172t-88.5 -142z" />
    <glyph glyph-name="hyphen" unicode="-" horiz-adv-x="334" 
d="M60 360h267l-26 -123h-267z" />
    <glyph glyph-name="period" unicode="." horiz-adv-x="301" 
d="M127 153q33 0 53.5 -23.5t17.5 -56.5q-4 -34 -29.5 -56t-58.5 -22q-32 0 -52.5 22.5t-16.5 55.5q1 16 9 31t19.5 25.5t26.5 17t31 6.5z" />
    <glyph glyph-name="slash" unicode="/" horiz-adv-x="460" 
d="M443 742l98 -57l-500 -868l-96 57z" />
    <glyph glyph-name="zero" unicode="0" 
d="M385 724q197 0 197 -221q0 -54 -11 -112l-14 -68q-69 -334 -309 -334q-198 0 -198 220q0 61 11 114l14 68q64 333 310 333zM267 122q53 0 91.5 48t61.5 162l10 49q13 65 13 103q0 57 -19 81.5t-57 24.5q-54 0 -93 -47.5t-62 -161.5l-10 -49q-13 -59 -13 -104
q0 -57 19 -81.5t59 -24.5z" />
    <glyph glyph-name="one" unicode="1" 
d="M406 712h122l-151 -712h-137l111 525l-208 -142l35 167z" />
    <glyph glyph-name="two" unicode="2" 
d="M491 133l-28 -133h-438l26 124l264 238l41 37l35 36q22 24 31.5 43t9.5 36q0 32 -23 53.5t-58 21.5q-50 0 -108 -29t-97 -71l37 178q99 57 188 57q85 0 143 -53q57 -53 57 -131q0 -72 -39 -130q-37 -57 -129 -139l-154 -138h242z" />
    <glyph glyph-name="three" unicode="3" 
d="M187 315l25 124h49q66 0 101.5 25t35.5 61q0 28 -21.5 46t-53.5 18q-43 0 -91 -19.5t-86 -51.5l32 168q85 38 167 38t137 -50q55 -49 55 -126q0 -49 -22 -97t-70 -78q57 -42 57 -115q0 -117 -82 -193q-80 -76 -198 -76q-105 0 -182 50l30 139q58 -54 162 -54q53 0 92 30
t39 81q0 18 -10 32.5t-27 25t-40 16.5t-50 6h-49z" />
    <glyph glyph-name="four" unicode="4" 
d="M474 266h73l-28 -132h-73l-28 -134h-138l28 134h-314l29 135l408 443h138zM336 266l22 103q2 11 7 28.5l12 41.5l16 57h-11l-39.5 -50t-39.5 -46l-124 -134h157z" />
    <glyph glyph-name="five" unicode="5" 
d="M519 278q0 -114 -85 -202q-84 -87 -202 -87q-117 0 -200 62l30 142q74 -71 178 -71q58 0 99 42q41 44 41 100q0 39 -23 63t-65 24q-69 0 -138 -45l-63 34l131 372h367l-29 -133h-249l-33 -98q19 3 31 3q95 0 152 -59q58 -58 58 -147z" />
    <glyph glyph-name="six" unicode="6" 
d="M398 712h163l-207 -228q85 -5 137 -63q54 -59 54 -141q0 -115 -84 -203t-204 -88q-95 0 -158 60q-62 60 -62 150q0 115 110 237zM269 121q53 0 94 40q42 40 42 94q0 42 -28 69.5t-70 27.5q-50 0 -90 -40q-41 -41 -41 -95q0 -40 24 -68t69 -28z" />
    <glyph glyph-name="seven" unicode="7" 
d="M423 579h-289l21 133h485l-13 -75l-434 -637h-162z" />
    <glyph glyph-name="eight" unicode="8" 
d="M50 179q0 59 33 118q35 59 88 90q-39 30 -39 103q0 99 78 167q77 67 171 67q80 0 130 -49q52 -49 52 -125q0 -36 -25 -85q-24 -49 -67 -78q58 -37 58 -136q0 -110 -84 -186q-82 -76 -191 -76q-90 0 -148 53q-56 53 -56 137zM310 320q-44 -1 -83 -37q-37 -34 -37 -80
q0 -38 25.5 -60.5t59.5 -22.5q41 0 79 35t38 83q0 36 -24.5 59t-57.5 23zM361 594q-36 -2 -63 -26q-29 -26 -29 -61q0 -24 18.5 -43.5t46.5 -19.5q34 0 61 27q28 27 28 61q0 26 -17.5 44t-44.5 18z" />
    <glyph glyph-name="nine" unicode="9" 
d="M228 0h-163l207 229q-85 5 -138 62q-53 59 -53 142q0 113 84 202t204 89q96 0 157 -61q63 -60 63 -149q0 -115 -110 -237zM356 592q-53 0 -94 -40q-41 -41 -41 -93q0 -43 27.5 -70.5t69.5 -27.5q50 0 90 40q42 40 42 96q0 39 -25.5 67t-68.5 28z" />
    <glyph glyph-name="colon" unicode=":" horiz-adv-x="301" 
d="M127 153q33 0 53.5 -23.5t17.5 -56.5q-4 -34 -29.5 -56t-58.5 -22q-32 0 -52.5 22.5t-16.5 55.5q1 16 9 31t19.5 25.5t26.5 17t31 6.5zM209 540q33 0 53.5 -23.5t17.5 -56.5q-4 -34 -29.5 -56t-58.5 -22q-32 0 -52.5 22.5t-16.5 55.5q1 16 9 31t19.5 25.5t26.5 17t31 6.5
z" />
    <glyph glyph-name="semicolon" unicode=";" horiz-adv-x="301" 
d="M205 540q33 0 53.5 -23.5t17.5 -56.5q-4 -34 -29.5 -56t-58.5 -22q-32 0 -52.5 22.5t-16.5 55.5q1 16 9 31t19.5 25.5t26.5 17t31 6.5zM-67 -175q34 75 59.5 146.5t44.5 141.5l147 12q-38 -94 -80.5 -172t-88.5 -142z" />
    <glyph glyph-name="less" unicode="&#x3c;" 
d="M528 498v-139l-281 -118l281 -118v-138l-485 207v99z" />
    <glyph glyph-name="equal" unicode="=" 
d="M44 396h483v-128h-483v128zM44 215h483v-130h-483v130z" />
    <glyph glyph-name="greater" unicode="&#x3e;" 
d="M43 359v139l484 -207v-99l-484 -207v138l279 118z" />
    <glyph glyph-name="question" unicode="?" horiz-adv-x="526" 
d="M261 73q0 -30 -28 -54q-27 -24 -60 -24q-31 0 -51 19t-20 48q0 18 7 34.5t19 29t28 20t34 7.5q34 0 52.5 -23.5t18.5 -56.5zM348 724q37 0 67.5 -11t52 -30.5t33 -48t11.5 -62.5q0 -44 -15.5 -77.5t-39 -60t-51.5 -47.5l-53 -40.5t-43.5 -39t-23.5 -42.5l-15 -70h-131
l19 91q6 30 24.5 56t43 48t51 42t48.5 39t36.5 38t14.5 40q0 47 -56 47q-60 0 -124 -41l32 147q60 22 119 22z" />
    <glyph glyph-name="at" unicode="@" horiz-adv-x="1008" 
d="M502 -225q-144 0 -247 63q-104 63 -154 163.5t-50 223.5q0 145 69 261q35 57 82 101.5t103 75t120 46t133 15.5q177 0 296 -95q120 -95 120 -257q0 -81 -27 -154.5t-69 -122.5q-42 -48 -91 -77t-95 -29q-32 0 -56.5 16.5t-33.5 46.5q-74 -63 -158 -63q-93 0 -144 62
q-50 62 -50 156q0 117 74 206q73 88 189 88q70 0 140 -65l11 53h112l-72 -339q-3 -14 -3 -33q0 -21 12 -21q53 0 99 79q48 79 48 177q0 137 -81.5 201t-228.5 64q-162 0 -275 -110q-112 -109 -112 -276q0 -93 38 -172q38 -78 120 -127q82 -51 197 -51zM464 97q56 0 97 48
q39 48 53 109l16 74q-46 61 -124 61q-68 0 -103 -53t-35 -121q0 -54 24 -86t72 -32z" />
    <glyph glyph-name="A" unicode="A" horiz-adv-x="739" 
d="M504 712l178 -712h-145l-37 151h-287l-93 -151h-156l454 712h86zM469 285l-30 124q-11 39 -15 78h-6l-28.5 -53.5t-14.5 -25.5l-77 -123h171z" />
    <glyph glyph-name="B" unicode="B" horiz-adv-x="587" 
d="M281 579l-33 -152h80q45 0 74.5 22.5t29.5 67.5q0 29 -21 45.5t-57 16.5h-73zM220 294l-34 -160h101q51 0 85 24.5t34 72.5q0 31 -24.5 47t-69.5 16h-92zM572 539q0 -105 -94 -169q68 -42 68 -128q0 -111 -83 -177q-83 -65 -188 -65h-253l151 712h191q51 0 90 -13
t65.5 -36t39.5 -55t13 -69z" />
    <glyph glyph-name="C" unicode="C" horiz-adv-x="613" 
d="M525 25q-83 -36 -156 -36q-135 0 -220 87q-86 88 -86 219q0 112 60 213q59 98 158 158q97 58 206 58q78 0 156 -42l-32 -150q-65 57 -139 57q-110 0 -189 -85q-80 -86 -80 -196q0 -81 49 -133t134 -52q76 0 174 65z" />
    <glyph glyph-name="D" unicode="D" horiz-adv-x="693" 
d="M345 712q88 0 151.5 -24.5t104.5 -65.5t60 -94.5t19 -111.5q0 -48 -12.5 -97.5t-37.5 -95.5t-63 -86.5t-87.5 -71t-111.5 -48t-136 -17.5h-210l151 712h172zM229 134q136 0 224 71q87 70 87 202q0 85 -59 128.5t-168 43.5h-31l-95 -445h42z" />
    <glyph glyph-name="E" unicode="E" horiz-adv-x="555" 
d="M22 0l151 712h421l-28 -133h-284l-30 -138h276l-28 -134h-276l-37 -173h284l-28 -134h-421z" />
    <glyph glyph-name="F" unicode="F" horiz-adv-x="506" 
d="M536 579h-254l-30 -139h245l-28 -134h-245l-65 -306h-137l151 712h391z" />
    <glyph glyph-name="G" unicode="G" horiz-adv-x="703" 
d="M346 262l29 135h290l-77 -364q-2 0 -7.5 -2t-12 -4t-12 -4t-8.5 -2l-18 -5q-14 -4 -20 -5.5t-20 -4.5q-26 -6 -54.5 -9t-65.5 -3q-134 0 -221 84q-86 86 -86 216q0 114 60 213q59 99 157 158t207 59q91 0 179 -49l-31 -146q-83 60 -163 60q-110 0 -189 -85
q-80 -85 -80 -195q0 -81 49 -131q50 -50 135 -50q21 0 42 2t42 6l27 126h-152z" />
    <glyph glyph-name="H" unicode="H" horiz-adv-x="671" 
d="M505 441l58 271h138l-151 -712h-138l65 306h-253l-65 -306h-137l151 712h137l-58 -271h253z" />
    <glyph glyph-name="I" unicode="I" horiz-adv-x="281" 
d="M310 712l-151 -712h-137l151 712h137z" />
    <glyph glyph-name="J" unicode="J" horiz-adv-x="423" 
d="M315 712h137l-101 -473q-13 -62 -38.5 -108.5t-60.5 -78t-78.5 -47.5t-93.5 -16q-54 0 -84 10l31 146q25 -16 56 -16q45 0 82.5 28t49.5 86l17 77l42 202z" />
    <glyph glyph-name="K" unicode="K" horiz-adv-x="640" 
d="M173 712h136l-44 -210q-8 -34 -18 -68h6l37.5 43t22.5 24l228 211h190l-376 -337l221 -375h-163l-160 282l-43 -37l-52 -245h-136z" />
    <glyph glyph-name="L" unicode="L" horiz-adv-x="462" 
d="M310 712l-123 -578h229l-28 -134h-366l151 712h137z" />
    <glyph glyph-name="M" unicode="M" horiz-adv-x="835" 
d="M576 0l76 360q6 33 33 134h-6l-48.5 -48.5t-42.5 -37.5l-162 -133l-105 133q-34 41 -54 86h-7q-4 -38 -24 -134l-76 -360h-137l151 712h91l192 -243l294 243h113l-151 -712h-137z" />
    <glyph glyph-name="N" unicode="N" horiz-adv-x="708" 
d="M599 712h138l-151 -712h-89l-196 364q-11 19 -22 42t-22 51h-5q-6 -38 -10 -61t-6 -33l-77 -363h-137l151 712h103l185 -348q17 -32 28 -55t16 -38h6q3 28 6.5 51t7.5 42z" />
    <glyph glyph-name="O" unicode="O" horiz-adv-x="807" 
d="M486 724q136 0 221 -88q87 -87 87 -220q0 -113 -61 -213q-61 -98 -159 -157q-98 -57 -206 -57q-134 0 -219 87q-86 88 -86 219q0 112 60 213q59 99 157 158q97 58 206 58zM386 124q108 0 188 84q80 85 80 195q0 81 -49 133q-50 53 -133 53q-110 0 -189 -85
q-80 -86 -80 -196q0 -80 49 -132t134 -52z" />
    <glyph glyph-name="P" unicode="P" 
d="M281 579l-45 -209h73q62 0 105 35q43 36 43 91q0 38 -29 60.5t-80 22.5h-67zM173 712h194q55 0 98 -14t72.5 -39.5t44.5 -61.5t15 -79q0 -74 -27.5 -127t-71.5 -87.5t-101 -51t-115 -16.5h-74l-50 -236h-136z" />
    <glyph glyph-name="Q" unicode="Q" horiz-adv-x="807" 
d="M772 133l-29 -133h-372q-133 0 -221 86q-86 88 -86 217q0 169 129 295q130 126 294 126q135 0 221 -86q87 -86 87 -216q0 -174 -139 -289l1 -6q45 6 66 6h49zM387 133q108 0 188 83t80 193q0 78 -50 130q-49 52 -133 52q-109 0 -189 -83q-79 -82 -79 -192q0 -79 49 -131
t134 -52z" />
    <glyph glyph-name="R" unicode="R" horiz-adv-x="614" 
d="M402 0l-130 267h-57l-56 -267h-137l151 712h197q106 0 160.5 -49.5t54.5 -130.5q0 -87 -49 -154q-47 -66 -128 -95q14 -24 33.5 -61l44.5 -88l43 -84l26 -50h-153zM282 579l-38 -179h73q55 0 91.5 29.5t36.5 77.5q0 34 -25.5 53t-70.5 19h-67z" />
    <glyph glyph-name="S" unicode="S" horiz-adv-x="548" 
d="M498 240q0 -110 -78 -180q-77 -71 -188 -71q-115 0 -189 74l30 144q82 -85 178 -85q21 0 40.5 5.5t34.5 16.5t23.5 26t8.5 35q0 27 -26 50t-63 43q-27 14 -56 31.5t-53 40.5t-39 52.5t-15 68.5q0 104 71 169q70 64 172 64q116 0 181 -63l-30 -140q-29 27 -78 48
q-47 22 -90 22q-15 0 -30.5 -5t-28 -14t-20 -22.5t-7.5 -29.5q0 -23 26 -44.5t63 -41.5q27 -14 55.5 -31.5t52.5 -41t39.5 -53.5t15.5 -68z" />
    <glyph glyph-name="T" unicode="T" horiz-adv-x="496" 
d="M389 578l-122 -578h-138l122 578h-164l29 134h466l-29 -134h-164z" />
    <glyph glyph-name="U" unicode="U" horiz-adv-x="662" 
d="M595 261q-26 -125 -109 -199q-82 -73 -188 -73q-95 0 -162 57q-66 57 -66 154q0 32 7 61l96 451h136l-95 -444q-5 -28 -5 -42q0 -49 26.5 -75t71.5 -26q25 0 49.5 9.5t45 28t35.5 45t22 60.5l95 444h137z" />
    <glyph glyph-name="V" unicode="V" horiz-adv-x="693" 
d="M616 712h158l-428 -712h-92l-153 712h142l76 -373q0 -1 3.5 -27l10.5 -80h7q20 51 54 106z" />
    <glyph glyph-name="W" unicode="W" horiz-adv-x="878" 
d="M675 367l124 345h147l-258 -712h-130l-61 278q-7 32 -12.5 63.5t-9.5 61.5h-6q-18 -34 -36 -64.5l-35 -59.5l-170 -279h-132l18 712h134l-11 -346q-1 -29 -3.5 -58.5t-6.5 -58.5h6l38 73.5t23 42.5l195 323h61l67 -322q6 -31 10 -60t6 -57h6l15 51z" />
    <glyph glyph-name="X" unicode="X" horiz-adv-x="660" 
d="M135 0h-178l320 380l-150 332h150l55 -128l22.5 -52t14.5 -40h9l11.5 16l18.5 26l20 28l16 22l105 128h178l-296 -350l169 -362h-157l-69 160l-22 51l-14 38h-8q-2 -3 -9.5 -13.5l-17 -24l-20 -27.5l-18.5 -24z" />
    <glyph glyph-name="Y" unicode="Y" horiz-adv-x="637" 
d="M562 712h166l-329 -419l-62 -293h-137l62 293l-151 419h145l68 -184l11.5 -37t13.5 -49h6q12 19 27 40.5t34 44.5z" />
    <glyph glyph-name="Z" unicode="Z" horiz-adv-x="578" 
d="M538 134l-26 -134h-539l17 90l354 405q14 17 33.5 36.5l44.5 42.5v8q-42 -3 -90 -3h-218l25 133h509l-17 -90l-358 -408l-73 -74l-2 -9q48 3 86 3h254z" />
    <glyph glyph-name="bracketleft" unicode="[" horiz-adv-x="336" 
d="M392 627h-93l-146 -686h93l-27 -127h-227l200 940h227z" />
    <glyph glyph-name="backslash" unicode="\" horiz-adv-x="460" 
d="M364 -145l-127 -19l-130 868l127 19z" />
    <glyph glyph-name="bracketright" unicode="]" horiz-adv-x="336" 
d="M203 627h-93l27 127h227l-200 -940h-226l26 127h93z" />
    <glyph glyph-name="asciicircum" unicode="^" horiz-adv-x="584" 
d="M450 724l113 -426h-130l-66 252l-172 -252h-148l292 426h111z" />
    <glyph glyph-name="underscore" unicode="_" horiz-adv-x="489" 
d="M419 -60l-22 -104h-474l22 104h474z" />
    <glyph glyph-name="grave" unicode="`" horiz-adv-x="423" 
d="M425 595l-52 -66l-205 144l64 81z" />
    <glyph glyph-name="a" unicode="a" horiz-adv-x="649" 
d="M334 546q24 0 46.5 -6.5t43 -17.5t38 -25t29.5 -29l7 36q4 27 6 30h133l-113 -534h-118l9 66q-86 -77 -161 -77q-103 0 -161 63q-57 64 -57 160q0 130 85 231q85 103 213 103zM280 114q59 0 106 45q48 46 61 107l17 75q-14 28 -46 53q-33 27 -80 27q-68 0 -116 -56
t-48 -137q0 -52 27.5 -83t78.5 -31z" />
    <glyph glyph-name="b" unicode="b" horiz-adv-x="648" 
d="M615 320q0 -82 -36 -157q-35 -74 -107 -124q-71 -50 -162 -50q-39 0 -83 22q-45 22 -68 55l-20 -66h-123l162 764h133l-58 -274q91 56 147 56q103 0 159 -65t56 -161zM315 114q70 0 116 58t46 134q0 52 -26.5 83.5t-77.5 31.5q-62 0 -108 -46q-47 -45 -60 -108l-15 -72
q13 -28 45 -55q34 -26 80 -26z" />
    <glyph glyph-name="c" unicode="c" horiz-adv-x="474" 
d="M376 13q-59 -24 -113 -24q-103 0 -164 64t-61 161q0 139 96 235q97 97 221 97q57 0 110 -29l-31 -141q-45 45 -97 45q-61 0 -112 -55q-50 -55 -50 -132q0 -52 29.5 -86t77.5 -34q61 0 125 49z" />
    <glyph glyph-name="d" unicode="d" horiz-adv-x="649" 
d="M36 212q0 127 85 230q86 104 217 104q82 0 159 -50l57 268h132l-162 -764h-121l9 66q-86 -77 -165 -77q-102 0 -157 63q-54 63 -54 160zM338 421q-71 0 -118 -59q-46 -58 -46 -134q0 -52 27.5 -83t78.5 -31q59 0 106 44q48 46 61 107l22 96q-10 16 -49 38q-37 22 -82 22z
" />
    <glyph glyph-name="e" unicode="e" horiz-adv-x="568" 
d="M413 329v12q0 20 -7 37.5t-18.5 31t-27.5 21.5t-34 8q-43 0 -77 -29.5t-55 -80.5h219zM417 20q-69 -31 -151 -31q-106 0 -168 59.5t-62 167.5q0 143 86 237q87 93 218 93q87 0 141 -58.5t54 -169.5q0 -15 -1.5 -34.5t-5.5 -44.5h-353v-14q0 -54 29 -86.5t80 -32.5
q18 0 39.5 4t43.5 10.5t42 16t37 21.5z" />
    <glyph glyph-name="f" unicode="f" horiz-adv-x="358" 
d="M75 534h69l9 43q18 83 83 140q65 58 148 58q23 0 43.5 -2t39.5 -6l-28 -130q-35 13 -58 13q-30 0 -59 -22q-29 -23 -36 -51l-9 -43h132l-23 -110h-132l-90 -424h-133l90 424h-69z" />
    <glyph glyph-name="g" unicode="g" horiz-adv-x="634" 
d="M447 340q-14 31 -46 56t-75 25q-64 0 -108 -53q-42 -53 -42 -130q0 -48 25.5 -76t74.5 -28q58 0 102 41t56 100zM622 534l-112 -528q-23 -106 -104 -168q-83 -63 -191 -63q-109 0 -185 45l29 135q76 -54 166 -54q46 0 95 37q49 36 61 90l9 40q-86 -59 -146 -59
q-100 0 -152 61t-52 153q0 81 34 153t103 121q68 49 155 49q18 0 38.5 -6t40.5 -16.5t38 -25t31 -31.5l18 67h124z" />
    <glyph glyph-name="h" unicode="h" horiz-adv-x="607" 
d="M178 764h132l-61 -292q21 19 39 33t35 23t34.5 13.5t38.5 4.5q159 0 159 -153q0 -21 -2 -41.5t-6 -40.5l-65 -311h-132l63 299q5 25 5 42q0 80 -76 80q-12 0 -25.5 -4t-27 -10.5t-25.5 -14t-21 -14.5l-17 -14l-78 -364h-132z" />
    <glyph glyph-name="i" unicode="i" horiz-adv-x="274" 
d="M297 649q0 -16 -7.5 -30.5t-19.5 -25t-27.5 -17t-31.5 -6.5q-31 0 -51 20.5t-20 50.5q0 34 27 60q28 26 61 26q30 0 49.5 -21.5t19.5 -56.5zM148 0h-132l113 534h133z" />
    <glyph glyph-name="j" unicode="j" horiz-adv-x="273" 
d="M-135 -95q25 -9 58 -9q16 0 30.5 7t26.5 18t20 26t11 30l117 557h132l-114 -543q-19 -92 -83 -154q-62 -62 -161 -62q-24 0 -64 8zM297 649q0 -16 -7.5 -30.5t-19.5 -25t-27.5 -17t-31.5 -6.5q-31 0 -51 20.5t-20 50.5q0 34 27 60q28 26 61 26q30 0 49.5 -21.5
t19.5 -56.5z" />
    <glyph glyph-name="k" unicode="k" horiz-adv-x="567" 
d="M427 534h170l-281 -255l175 -279h-153l-115 197l-40 -35l-36 -162h-132l163 764h132l-69 -326l-23 -95h8l44 45.5t25 24.5z" />
    <glyph glyph-name="l" unicode="l" horiz-adv-x="273" 
d="M16 0l162 764h132l-162 -764h-132z" />
    <glyph glyph-name="m" unicode="m" horiz-adv-x="878" 
d="M663 546q73 0 119 -41t46 -119q0 -14 -2 -31.5t-6 -38.5l-67 -316h-132l64 304l6 46q0 71 -63 71q-38 0 -70 -29q-31 -28 -36 -55l-71 -337h-132l62 298q8 38 8 53q0 70 -61 70q-37 0 -68 -26q-30 -26 -38 -50l-74 -345h-132l113 534h123l-8 -68l44 45q13 12 37.5 23.5
t53.5 11.5q84 0 122 -74q79 74 162 74z" />
    <glyph glyph-name="n" unicode="n" horiz-adv-x="607" 
d="M129 534h124l-6 -61l24.5 22.5t18.5 15.5q16 13 43 24t58 11q164 0 164 -153q0 -23 -2 -43.5t-6 -40.5l-65 -309h-132l62 296q6 28 6 45q0 80 -76 80q-12 0 -25.5 -4t-27 -10.5t-25.5 -14t-21 -14.5l-17 -14l-78 -364h-132z" />
    <glyph glyph-name="o" unicode="o" horiz-adv-x="617" 
d="M350 546q104 0 169 -68t65 -170q0 -128 -94 -223q-93 -96 -220 -96q-106 0 -170 67t-64 170q0 128 93 224q94 96 221 96zM285 114q61 0 111 53q50 55 50 130q0 55 -31.5 89.5t-77.5 34.5q-62 0 -113 -54q-50 -55 -50 -130q0 -55 31.5 -89t79.5 -34z" />
    <glyph glyph-name="p" unicode="p" horiz-adv-x="647" 
d="M616 322q0 -81 -36 -157q-36 -74 -107 -126q-71 -50 -158 -50t-160 49l-54 -254h-132l159 750h121l-8 -66q85 78 164 78q102 0 156 -64q55 -62 55 -160zM315 114q71 0 117 58q47 59 47 134q0 52 -28 83.5t-79 31.5q-61 0 -107 -45q-46 -43 -60 -107l-22 -96
q14 -19 50 -39q38 -20 82 -20z" />
    <glyph glyph-name="q" unicode="q" horiz-adv-x="649" 
d="M36 212q0 60 21.5 119.5t61.5 107t96 77.5t125 30q43 0 85.5 -22t67.5 -54l11 32l12 32h121l-159 -750h-133l56 260q-91 -55 -151 -55q-104 0 -159 63q-55 62 -55 160zM337 421q-71 0 -117 -60q-46 -58 -46 -133q0 -52 27 -83t78 -31q60 0 107 45q48 46 61 108l16 72
q-12 28 -46 54q-32 28 -80 28z" />
    <glyph glyph-name="r" unicode="r" horiz-adv-x="386" 
d="M243 462q61 79 159 79q5 0 11.5 -0.5t14.5 -1.5l-28 -131q-5 1 -11.5 1h-15.5q-39 0 -67.5 -9.5t-48 -27t-32 -43t-19.5 -58.5l-58 -271h-133l114 534h120z" />
    <glyph glyph-name="s" unicode="s" horiz-adv-x="441" 
d="M374 173q0 -81 -60 -133q-59 -51 -140 -51q-78 0 -149 44l29 134q55 -63 126 -63q17 0 31.5 7.5t20.5 20t1.5 28.5t-23.5 33l-26.5 22t-28.5 21t-29.5 24t-26 30.5t-18.5 35.5t-7 39q0 76 59 129q58 52 142 52q60 0 130 -40l-28 -128q-51 53 -111 53q-20 0 -37.5 -13
t-17.5 -33q0 -9 7 -19.5t18.5 -21.5t26 -22t29.5 -21q31 -20 56.5 -54t25.5 -74z" />
    <glyph glyph-name="t" unicode="t" horiz-adv-x="373" 
d="M300 0q-38 -9 -70 -9q-81 0 -120 41t-39 110q0 36 7 63l47 219h-69l24 110h68q2 8 4.5 20t5.5 29l10 49l146 56l-34 -154h133l-24 -110h-132l-47 -224q-3 -18 -3 -23q0 -64 68 -64q10 0 22 2t28 6z" />
    <glyph glyph-name="u" unicode="u" horiz-adv-x="608" 
d="M595 534l-65 -310q-22 -105 -97 -171q-73 -64 -178 -64q-93 0 -145.5 45t-52.5 127q0 35 6 61l67 312h133l-63 -296q-7 -31 -7 -39q0 -85 80 -85q42 0 77.5 30t48.5 91l64 299h132z" />
    <glyph glyph-name="v" unicode="v" horiz-adv-x="597" 
d="M69 534h140l44 -198q11 -57 21 -133h7q35 78 69 133l120 198h158l-340 -534h-85z" />
    <glyph glyph-name="w" unicode="w" horiz-adv-x="815" 
d="M78 534h136l15 -208q1 -14 1.5 -45t0.5 -79h6q48 100 63 123l122 187h60l50 -187q6 -25 11.5 -55.5t10.5 -67.5h5q2 4 6.5 19l10.5 34t13 38t14 33l95 208h142l-249 -534h-89l-64 198q-10 30 -15.5 55.5t-7.5 46.5h-4q-14 -37 -59 -102l-140 -198h-91z" />
    <glyph glyph-name="x" unicode="x" horiz-adv-x="610" 
d="M92 534h149l41 -85q7 -15 15.5 -38t17.5 -43h6q42 60 59 79l78 87h171l-253 -267l150 -267h-150l-50 102l-10 24.5l-21 53.5h-7q-7 -12 -27 -38q-21 -27 -32 -38l-91 -104h-171l265 282z" />
    <glyph glyph-name="y" unicode="y" horiz-adv-x="602" 
d="M68 534h138l52 -204q10 -42 21 -111h8l37 68t24 41l132 206h155l-500 -750h-151l200 296z" />
    <glyph glyph-name="z" unicode="z" horiz-adv-x="517" 
d="M103 534h437l-12 -65l-257 -285q-46 -49 -71 -71l-1 -6h11.5t26.5 1t30.5 1h24.5h166l-21 -109h-459l11 61l267 295q20 22 37 38.5t31 28.5v5q-39 -3 -94 -3h-148z" />
    <glyph glyph-name="braceleft" unicode="{" horiz-adv-x="324" 
d="M208 285q24 -36 24 -80q0 -22 -4 -37q-6 -26 -51 -95t-45 -101q0 -15 8 -23.5t19 -8.5h70l-27 -124h-70q-31 0 -56.5 10t-43.5 28t-27.5 42.5t-9.5 52.5q0 20 4 35q7 34 51 105q45 70 45 91q0 43 -66 43l26 124q39 0 64.5 17.5t25.5 52.5q0 14 -11 66q-10 47 -10 75
q0 74 64 135t144 61h70l-27 -124h-70q-17 0 -31.5 -18t-14.5 -50q0 -25 10 -69q5 -23 8 -40t3 -28q0 -76 -72 -140z" />
    <glyph glyph-name="bar" unicode="|" horiz-adv-x="274" 
d="M219 764v-980h-112v980h112z" />
    <glyph glyph-name="braceright" unicode="}" horiz-adv-x="324" 
d="M136 285q-24 36 -24 80q0 22 4 37q4 25 50 95q46 68 46 101q0 15 -8 23.5t-19 8.5h-70l27 124h70q31 0 56.5 -10t43.5 -28t27.5 -42.5t9.5 -52.5q0 -5 -1 -14t-3 -21q-4 -17 -17 -43.5t-35 -61.5q-44 -71 -44 -91q0 -43 66 -43l-26 -124q-39 0 -64.5 -17.5t-25.5 -52.5
q0 -20 10 -67q11 -52 11 -75q0 -74 -65 -134q-64 -61 -143 -61h-69l26 124h70q17 0 31.5 18t14.5 50q0 20 -11 69q-10 44 -10 68q0 72 72 140z" />
    <glyph glyph-name="asciitilde" unicode="~" horiz-adv-x="586" 
d="M12 154q43 202 182 202q34 1 66 -13t59.5 -31t48 -31.5t32.5 -12.5q44 0 60 82h120q-43 -202 -182 -202q-34 -2 -66 12.5t-59.5 31.5t-48 31t-32.5 13q-44 0 -60 -82h-120z" />
    <glyph glyph-name="uni00A0" unicode="&#xa0;" horiz-adv-x="195" 
 />
    <glyph glyph-name="exclamdown" unicode="&#xa1;" horiz-adv-x="290" 
d="M220 281l-105 -497h-132l105 497h132zM177 345q-31 0 -51.5 21t-20.5 51q0 18 7 33.5t19 27t28 18t34 6.5q30 0 50 -19t20 -49q0 -34 -26 -62q-26 -27 -60 -27z" />
    <glyph glyph-name="cent" unicode="&#xa2;" horiz-adv-x="558" 
d="M392 11q-44 -19 -101 -22l-16 -75h-43l16 75q-90 14 -142 75q-52 62 -52 150q0 137 94 231q95 97 219 101l14 65h43l-14 -68q20 -5 37.5 -11.5t33.5 -14.5l-30 -141q-31 29 -69 40l-64 -302q58 11 106 49zM191 234q0 -43 22.5 -75.5t61.5 -43.5l65 306q-59 -10 -105 -64
q-44 -53 -44 -123z" />
    <glyph glyph-name="sterling" unicode="&#xa3;" horiz-adv-x="558" 
d="M209 129h292l-27 -129h-490l27 129h67l25 117h-67l16 76h67l36 170q21 98 95 165t187 67q59 0 109 -26l-30 -140q-41 37 -107 37q-41 0 -77 -30q-36 -28 -45 -70l-37 -173h216l-16 -76h-216z" />
    <glyph glyph-name="currency" unicode="&#xa4;" 
d="M586 114l-86 -87l-64 60q-52 -28 -109 -28t-109 28l-64 -60l-86 87l60 63q-13 23 -19.5 50.5t-6.5 55.5t6.5 55.5t19.5 50.5l-60 63l86 89l33.5 -32.5t30.5 -30.5q49 28 109 28t109 -28q14 15 30.5 30.5l33.5 32.5l86 -89l-60 -63q13 -23 19.5 -50.5t6.5 -55.5
t-6.5 -55.5t-19.5 -50.5zM430 283q0 21 -8 39.5t-22 32t-33 21.5t-40 8t-40 -8t-33 -21.5t-22 -32t-8 -39.5q0 -41 30 -72q30 -30 73 -30t73 30q30 31 30 72z" />
    <glyph glyph-name="yen" unicode="&#xa5;" horiz-adv-x="637" 
d="M484 401l-62 -79h167l-16 -76h-184l-52 -246h-137l52 246h-177l16 76h160l-29 79h-114l16 76h72l-85 235h141l97 -263l209 263h170l-185 -235h78l-16 -76h-121z" />
    <glyph glyph-name="brokenbar" unicode="&#xa6;" horiz-adv-x="274" 
d="M214 775v-375h-112v375h112zM214 283v-375h-112v375h112z" />
    <glyph glyph-name="section" unicode="&#xa7;" horiz-adv-x="548" 
d="M324 255q59 29 59 70q0 19 -28.5 37.5t-82.5 42.5q-59 -29 -59 -70q0 -19 28.5 -37.5t82.5 -42.5zM516 605q-62 39 -164 39q-33 0 -55 -12.5t-22 -34.5q0 -23 39 -47l42 -22t45 -21q47 -20 86 -60q40 -39 40 -89q0 -107 -104 -176q41 -41 41 -89q0 -85 -69 -146
q-67 -61 -172 -61q-93 0 -171 37l28 133q61 -40 164 -40q33 0 55 13t22 35q0 17 -18.5 31.5t-46.5 29t-61 30t-61 36.5t-46.5 47.5t-18.5 63.5q0 108 104 177q-41 39 -41 89q0 83 68 145t172 62q90 0 172 -38z" />
    <glyph glyph-name="dieresis" unicode="&#xa8;" horiz-adv-x="409" 
d="M382 706q25 0 41.5 -17t16.5 -42q0 -28 -22.5 -49t-50.5 -21q-25 0 -41 16t-16 39q0 30 21 52t51 22zM211 706q25 0 41.5 -17t16.5 -42q0 -28 -22.5 -49t-50.5 -21q-25 0 -41 16t-16 39q0 30 21 52t51 22z" />
    <glyph glyph-name="copyright" unicode="&#xa9;" horiz-adv-x="822" 
d="M431 578q49 0 98 -25v-106q-53 41 -98 41q-55 0 -92 -39q-36 -39 -36 -93q0 -55 36 -94q38 -38 92 -38q46 0 98 40v-105q-49 -25 -98 -25q-91 0 -155 64t-64 158q0 93 64 157q65 65 155 65zM411 724q152 0 259 -108q108 -108 108 -260t-108 -260q-107 -107 -259 -107
t-261 107q-107 109 -107 260t107 260q108 108 261 108zM411 67q119 0 204 85t85 204t-85 203q-85 85 -204 85q-120 0 -204 -84t-84 -204t84 -205q84 -84 204 -84z" />
    <glyph glyph-name="ordfeminine" unicode="&#xaa;" horiz-adv-x="427" 
d="M385 716h94l-69 -322h-82l2 28q-43 -35 -82 -35q-64 0 -98 39t-34 99q0 75 51 137q53 62 127 62q48 0 86 -36zM360 597q-20 38 -64 38q-36 0 -60.5 -30.5t-24.5 -75.5q0 -25 13.5 -39.5t38.5 -14.5q32 0 55.5 23.5t32.5 57.5zM85 338h313l-18 -87h-313z" />
    <glyph glyph-name="guillemotleft" unicode="&#xab;" horiz-adv-x="537" 
d="M345 461l-178 -199l88 -189h-134l-93 199l169 189h148zM560 461l-178 -199l88 -189h-134l-93 199l169 189h148z" />
    <glyph glyph-name="logicalnot" unicode="&#xac;" 
d="M420 92v162h-353v128h483v-290h-130z" />
    <glyph glyph-name="registered" unicode="&#xae;" horiz-adv-x="435" 
d="M352 515q0 -76 -54 -130t-130 -54t-131 54q-54 54 -54 130q0 77 54 131q55 54 131 54t130 -54t54 -131zM310 515q0 59 -42 100q-41 41 -100 41t-100 -41t-41 -100t41 -100t100 -41t100 41q42 42 42 100zM255 407h-61l-41 78h-4v-78h-50v218h65q37 0 57.5 -19.5
t20.5 -49.5q0 -47 -39 -63zM149 578v-44h15q28 0 28 22t-28 22h-15z" />
    <glyph glyph-name="macron" unicode="&#xaf;" horiz-adv-x="411" 
d="M152 685h293l-17 -84h-293z" />
    <glyph glyph-name="degree" unicode="&#xb0;" horiz-adv-x="419" 
d="M52 558q0 69 48 117q48 49 117 49q68 0 117 -49t49 -117t-49 -117t-117 -49t-117 49q-48 49 -48 117zM137 559q0 -33 22.5 -56.5t57.5 -23.5q34 0 57 23.5t23 55.5q0 33 -23 55.5t-58 22.5q-34 0 -56.5 -22.5t-22.5 -54.5z" />
    <glyph glyph-name="plusminus" unicode="&#xb1;" 
d="M49 -10v129h483v-129h-483zM226 561h128v-144h178v-128h-178v-140h-128v140h-177v128h177v144z" />
    <glyph glyph-name="twosuperior" unicode="&#xb2;" horiz-adv-x="294" 
d="M232 606h108l-17 -80h-232l15 72l134 121q54 49 54 69q0 14 -9.5 23t-24.5 9q-12 0 -26.5 -5t-29.5 -14t-30 -21t-27 -26l24 116q55 32 102 32q46 0 75.5 -28t29.5 -71q0 -18 -4.5 -34t-15 -32t-26.5 -34t-40 -40z" />
    <glyph glyph-name="threesuperior" unicode="&#xb3;" horiz-adv-x="273" 
d="M167 683l15 76h19q32 0 49.5 11.5t17.5 26.5q0 12 -8.5 19t-21.5 7q-50 0 -91 -29l16 86q45 22 86 22q45 0 75 -25.5t30 -67.5q0 -46 -47 -85q27 -27 27 -61q1 -60 -45 -102q-46 -41 -107 -41q-53 0 -94 22l17 80q31 -23 86 -23q21 0 39 15t18 37q0 15 -18.5 23.5
t-45.5 8.5h-17z" />
    <glyph glyph-name="acute" unicode="&#xb4;" horiz-adv-x="422" 
d="M198 529l-39 66l229 159l46 -81z" />
    <glyph glyph-name="mu" unicode="&#xb5;" horiz-adv-x="605" 
d="M-24 -216l158 750h132l-64 -303q-2 -14 -3.5 -23.5t-1.5 -16.5q0 -42 22.5 -61t57.5 -19q24 0 52.5 14t44.5 28l17 14l78 367h131l-113 -534h-122l2 50q-86 -62 -135 -62q-46 0 -77 22l-48 -226h-131z" />
    <glyph glyph-name="paragraph" unicode="&#xb6;" horiz-adv-x="614" 
d="M691 712l-23 -106h-59l-155 -730h-106l155 730h-63l-155 -730h-106l91 426q-70 0 -118 45q-48 46 -48 119q0 105 77 176q76 70 190 70h320z" />
    <glyph glyph-name="periodcentered" unicode="&#xb7;" horiz-adv-x="425" 
d="M221 321q31 0 51 -21t20 -52q0 -35 -27 -60q-26 -25 -61 -25q-30 0 -50.5 19.5t-20.5 48.5q0 18 7 34.5t19 28.5t28 19.5t34 7.5z" />
    <glyph glyph-name="cedilla" unicode="&#xb8;" horiz-adv-x="401" 
d="M88 -101l42 101h40l-11 -55q30 0 47 -19.5t17 -47.5q0 -23 -9 -42.5t-25 -34t-38 -23t-48 -8.5q-42 0 -66 21l14 65q27 -18 54 -18q43 0 43 38q0 23 -35 23h-25z" />
    <glyph glyph-name="onesuperior" unicode="&#xb9;" horiz-adv-x="258" 
d="M280 896h71l-79 -370h-83l54 253l-105 -74l23 106z" />
    <glyph glyph-name="ordmasculine" unicode="&#xba;" horiz-adv-x="429" 
d="M447 578q0 -75 -56 -134q-56 -57 -132 -57q-33 0 -59 11t-44 31t-28 46.5t-10 58.5q0 76 55 132q55 58 132 58q63 0 102 -42q40 -41 40 -104zM352 572q-1 29 -16.5 46t-38.5 17q-17 0 -32 -7.5t-27 -21t-19 -31t-7 -37.5q0 -28 16 -45t39 -17q16 0 31.5 7.5t27.5 21
t19 30.5t7 37zM84 338h305l-17 -87h-306z" />
    <glyph glyph-name="guillemotright" unicode="&#xbb;" horiz-adv-x="537" 
d="M205 73l178 199l-88 189h134l93 -199l-169 -189h-148zM-10 73l178 199l-88 189h134l93 -199l-169 -189h-148z" />
    <glyph glyph-name="onequarter" unicode="&#xbc;" horiz-adv-x="766" 
d="M626 172h43l-19 -92h-43l-17 -80h-95l17 80h-189l19 89l249 270h92zM535 167l13 61l12 40l11 37h-9q-37 -51 -53 -67l-67 -71h93zM138 719h82l-93 -439h-94l65 307l-126 -90l26 122zM118 -17l-69 49l495 685l68 -49z" />
    <glyph glyph-name="onehalf" unicode="&#xbd;" horiz-adv-x="825" 
d="M564 92h132l-19 -92h-275l17 82l165 149q62 56 62 81q0 18 -12 29.5t-31 11.5q-14 0 -31 -5.5t-34.5 -15.5t-34.5 -24t-32 -30l27 131q62 37 116 37t91 -34q38 -35 38 -84q0 -75 -89 -155zM138 719h82l-93 -439h-94l65 307l-126 -90l26 122zM118 -17l-69 49l495 685
l68 -49z" />
    <glyph glyph-name="threequarters" unicode="&#xbe;" horiz-adv-x="786" 
d="M647 172h43l-19 -92h-43l-17 -80h-95l17 80h-189l19 89l249 270h92zM556 167l13 61l12 40l11 37h-9q-37 -51 -53 -67l-67 -71h93zM31 469l16 86h33q34 0 54.5 14t20.5 32q0 15 -11.5 23.5t-28.5 8.5q-66 0 -112 -34l22 102q53 25 99 25q27 0 50.5 -8t40.5 -23t26.5 -35
t9.5 -44q0 -58 -57 -101q33 -33 33 -73q0 -70 -53 -120q-52 -49 -125 -49q-66 0 -115 25l22 97q38 -29 101 -29q27 0 50.5 18t23.5 45q0 40 -77 40h-23zM152 -17l-69 49l495 685l68 -49z" />
    <glyph glyph-name="questiondown" unicode="&#xbf;" horiz-adv-x="479" 
d="M293 344q-30 0 -50 21t-20 51q0 18 7.5 33.5t19.5 27.5t27.5 18.5t32.5 6.5q30 0 50.5 -19t20.5 -48q0 -18 -7 -34.5t-19 -29t-28 -20t-34 -7.5zM136 -225q-37 0 -67.5 11t-52 30.5t-33 47.5t-11.5 63q0 44 15.5 77.5t39 60t51.5 47.5l53 40.5t43.5 39t23.5 42.5l15 70
h131l-19 -91q-6 -31 -24.5 -56.5t-43 -47.5t-51 -41.5t-48.5 -38.5t-36.5 -38.5t-14.5 -40.5q0 -47 56 -47q60 0 124 41l-32 -147q-60 -22 -119 -22z" />
    <glyph glyph-name="Agrave" unicode="&#xc0;" horiz-adv-x="739" 
d="M504 712l178 -712h-145l-37 151h-287l-93 -151h-156l454 712h86zM469 285l-30 124q-11 39 -15 78h-6l-28.5 -53.5t-14.5 -25.5l-77 -123h171zM635 828l-52 -66l-205 144l64 81z" />
    <glyph glyph-name="Aacute" unicode="&#xc1;" horiz-adv-x="739" 
d="M504 712l178 -712h-145l-37 151h-287l-93 -151h-156l454 712h86zM469 285l-30 124q-11 39 -15 78h-6l-28.5 -53.5t-14.5 -25.5l-77 -123h171zM405 762l-39 66l229 159l46 -81z" />
    <glyph glyph-name="Acircumflex" unicode="&#xc2;" horiz-adv-x="739" 
d="M504 712l178 -712h-145l-37 151h-287l-93 -151h-156l454 712h86zM469 285l-30 124q-11 39 -15 78h-6l-28.5 -53.5t-14.5 -25.5l-77 -123h171zM692 834l-50 -60l-135 88l-156 -88l-42 60l207 147z" />
    <glyph glyph-name="Atilde" unicode="&#xc3;" horiz-adv-x="739" 
d="M504 712l178 -712h-145l-37 151h-287l-93 -151h-156l454 712h86zM469 285l-30 124q-11 39 -15 78h-6l-28.5 -53.5t-14.5 -25.5l-77 -123h171zM550 814q-26 0 -61 16t-50 16q-25 0 -44 -30l-63 43q50 74 119 74q27 0 62 -16q36 -16 49 -16q25 0 44 31l64 -43
q-50 -75 -120 -75z" />
    <glyph glyph-name="Adieresis" unicode="&#xc4;" horiz-adv-x="739" 
d="M504 712l178 -712h-145l-37 151h-287l-93 -151h-156l454 712h86zM469 285l-30 124q-11 39 -15 78h-6l-28.5 -53.5t-14.5 -25.5l-77 -123h171zM596 939q25 0 41.5 -17t16.5 -42q0 -28 -22.5 -49t-50.5 -21q-25 0 -41 16t-16 39q0 30 21 52t51 22zM425 939q25 0 41.5 -17
t16.5 -42q0 -28 -22.5 -49t-50.5 -21q-25 0 -41 16t-16 39q0 30 21 52t51 22z" />
    <glyph glyph-name="Aring" unicode="&#xc5;" horiz-adv-x="739" 
d="M504 712l178 -712h-145l-37 151h-287l-93 -151h-156l454 712h86zM469 285l-30 124q-11 39 -15 78h-6l-28.5 -53.5t-14.5 -25.5l-77 -123h171zM405 874q-1 43 30 73q31 31 74 31q21 0 39.5 -8t32.5 -22.5t22.5 -33.5t8.5 -40t-8.5 -40t-22.5 -33t-33.5 -22t-40.5 -8t-40 8
t-32.5 22t-21.5 33t-8 40zM468 874q-1 -17 11 -29t29 -12t29 12t13 29q-1 17 -13.5 29t-29.5 12t-28.5 -12t-10.5 -29z" />
    <glyph glyph-name="AE" unicode="&#xc6;" horiz-adv-x="956" 
d="M967 579h-325v-138h286l-28 -134h-258v-173h230l-28 -134h-343v151h-246l-115 -151h-176l550 712h481zM357 285h144v219h-7q-12 -39 -68 -120z" />
    <glyph glyph-name="Ccedilla" unicode="&#xc7;" horiz-adv-x="613" 
d="M293 -101l38 92q-121 14 -194 97q-74 85 -74 207q0 112 60 213q59 98 158 158q97 58 206 58q78 0 156 -42l-32 -150q-65 57 -139 57q-110 0 -189 -85q-80 -86 -80 -196q0 -81 49 -133t134 -52q76 0 174 65l-35 -163q-78 -34 -152 -36l-9 -44q30 0 47 -19.5t17 -47.5
q0 -23 -9 -42.5t-25 -34t-38 -23t-48 -8.5q-42 0 -66 21l14 65q27 -18 54 -18q43 0 43 38q0 23 -35 23h-25z" />
    <glyph glyph-name="Egrave" unicode="&#xc8;" horiz-adv-x="555" 
d="M22 0l151 712h421l-28 -133h-284l-30 -138h276l-28 -134h-276l-37 -173h284l-28 -134h-421zM549 828l-52 -66l-205 144l64 81z" />
    <glyph glyph-name="Eacute" unicode="&#xc9;" horiz-adv-x="555" 
d="M22 0l151 712h421l-28 -133h-284l-30 -138h276l-28 -134h-276l-37 -173h284l-28 -134h-421zM319 762l-39 66l229 159l46 -81z" />
    <glyph glyph-name="Ecircumflex" unicode="&#xca;" horiz-adv-x="555" 
d="M22 0l151 712h421l-28 -133h-284l-30 -138h276l-28 -134h-276l-37 -173h284l-28 -134h-421zM604 834l-50 -60l-135 88l-156 -88l-42 60l207 147z" />
    <glyph glyph-name="Edieresis" unicode="&#xcb;" horiz-adv-x="555" 
d="M22 0l151 712h421l-28 -133h-284l-30 -138h276l-28 -134h-276l-37 -173h284l-28 -134h-421zM508 939q25 0 41.5 -17t16.5 -42q0 -28 -22.5 -49t-50.5 -21q-25 0 -41 16t-16 39q0 30 21 52t51 22zM337 939q25 0 41.5 -17t16.5 -42q0 -28 -22.5 -49t-50.5 -21q-25 0 -41 16
t-16 39q0 30 21 52t51 22z" />
    <glyph glyph-name="Igrave" unicode="&#xcc;" horiz-adv-x="281" 
d="M310 712l-151 -712h-137l151 712h137zM405 828l-52 -66l-205 144l64 81z" />
    <glyph glyph-name="Iacute" unicode="&#xcd;" horiz-adv-x="281" 
d="M310 712l-151 -712h-137l151 712h137zM176 762l-39 66l229 159l46 -81z" />
    <glyph glyph-name="Icircumflex" unicode="&#xce;" horiz-adv-x="281" 
d="M310 712l-151 -712h-137l151 712h137zM461 834l-50 -60l-135 88l-156 -88l-42 60l207 147z" />
    <glyph glyph-name="Idieresis" unicode="&#xcf;" horiz-adv-x="281" 
d="M310 712l-151 -712h-137l151 712h137zM365 939q25 0 41.5 -17t16.5 -42q0 -28 -22.5 -49t-50.5 -21q-25 0 -41 16t-16 39q0 30 21 52t51 22zM194 939q25 0 41.5 -17t16.5 -42q0 -28 -22.5 -49t-50.5 -21q-25 0 -41 16t-16 39q0 30 21 52t51 22z" />
    <glyph glyph-name="Eth" unicode="&#xd0;" horiz-adv-x="693" 
d="M26 328l11 52h65l71 332h172q88 0 151.5 -24.5t104.5 -65.5t60 -94.5t19 -111.5q0 -48 -12.5 -97.5t-37.5 -95.5t-63 -86.5t-87.5 -71t-111.5 -48t-136 -17.5h-210l69 328h-65zM229 134q136 0 224 71q87 70 87 202q0 85 -59 128.5t-168 43.5h-31l-43 -199h153l-11 -52
h-153l-41 -194h42z" />
    <glyph glyph-name="Ntilde" unicode="&#xd1;" horiz-adv-x="708" 
d="M599 712h138l-151 -712h-89l-196 364q-11 19 -22 42t-22 51h-5q-6 -38 -10 -61t-6 -33l-77 -363h-137l151 712h103l185 -348q17 -32 28 -55t16 -38h6q3 28 6.5 51t7.5 42zM534 814q-26 0 -61 16t-50 16q-25 0 -44 -30l-63 43q50 74 119 74q27 0 62 -16q36 -16 49 -16
q25 0 44 31l64 -43q-50 -75 -120 -75z" />
    <glyph glyph-name="Ograve" unicode="&#xd2;" horiz-adv-x="807" 
d="M486 724q136 0 221 -88q87 -87 87 -220q0 -113 -61 -213q-61 -98 -159 -157q-98 -57 -206 -57q-134 0 -219 87q-86 88 -86 219q0 112 60 213q59 99 157 158q97 58 206 58zM386 124q108 0 188 84q80 85 80 195q0 81 -49 133q-50 53 -133 53q-110 0 -189 -85
q-80 -86 -80 -196q0 -80 49 -132t134 -52zM673 828l-52 -66l-205 144l64 81z" />
    <glyph glyph-name="Oacute" unicode="&#xd3;" horiz-adv-x="807" 
d="M486 724q136 0 221 -88q87 -87 87 -220q0 -113 -61 -213q-61 -98 -159 -157q-98 -57 -206 -57q-134 0 -219 87q-86 88 -86 219q0 112 60 213q59 99 157 158q97 58 206 58zM386 124q108 0 188 84q80 85 80 195q0 81 -49 133q-50 53 -133 53q-110 0 -189 -85
q-80 -86 -80 -196q0 -80 49 -132t134 -52zM447 762l-39 66l229 159l46 -81z" />
    <glyph glyph-name="Ocircumflex" unicode="&#xd4;" horiz-adv-x="807" 
d="M486 724q136 0 221 -88q87 -87 87 -220q0 -113 -61 -213q-61 -98 -159 -157q-98 -57 -206 -57q-134 0 -219 87q-86 88 -86 219q0 112 60 213q59 99 157 158q97 58 206 58zM386 124q108 0 188 84q80 85 80 195q0 81 -49 133q-50 53 -133 53q-110 0 -189 -85
q-80 -86 -80 -196q0 -80 49 -132t134 -52zM729 834l-50 -60l-135 88l-156 -88l-42 60l207 147z" />
    <glyph glyph-name="Otilde" unicode="&#xd5;" horiz-adv-x="807" 
d="M486 724q136 0 221 -88q87 -87 87 -220q0 -113 -61 -213q-61 -98 -159 -157q-98 -57 -206 -57q-134 0 -219 87q-86 88 -86 219q0 112 60 213q59 99 157 158q97 58 206 58zM386 124q108 0 188 84q80 85 80 195q0 81 -49 133q-50 53 -133 53q-110 0 -189 -85
q-80 -86 -80 -196q0 -80 49 -132t134 -52zM588 814q-26 0 -61 16t-50 16q-25 0 -44 -30l-63 43q50 74 119 74q27 0 62 -16q36 -16 49 -16q25 0 44 31l64 -43q-50 -75 -120 -75z" />
    <glyph glyph-name="Odieresis" unicode="&#xd6;" horiz-adv-x="807" 
d="M486 724q136 0 221 -88q87 -87 87 -220q0 -113 -61 -213q-61 -98 -159 -157q-98 -57 -206 -57q-134 0 -219 87q-86 88 -86 219q0 112 60 213q59 99 157 158q97 58 206 58zM386 124q108 0 188 84q80 85 80 195q0 81 -49 133q-50 53 -133 53q-110 0 -189 -85
q-80 -86 -80 -196q0 -80 49 -132t134 -52zM630 939q25 0 41.5 -17t16.5 -42q0 -28 -22.5 -49t-50.5 -21q-25 0 -41 16t-16 39q0 30 21 52t51 22zM459 939q25 0 41.5 -17t16.5 -42q0 -28 -22.5 -49t-50.5 -21q-25 0 -41 16t-16 39q0 30 21 52t51 22z" />
    <glyph glyph-name="multiply" unicode="&#xd7;" 
d="M46 395l90 92l154 -155l153 155l91 -92l-153 -153l154 -155l-90 -90l-155 154l-155 -154l-90 90l155 155z" />
    <glyph glyph-name="Oslash" unicode="&#xd8;" horiz-adv-x="807" 
d="M486 724q98 0 176 -51l86 102l40 -34l-85 -101q91 -88 91 -224q0 -113 -61 -213q-61 -98 -159 -157q-98 -57 -206 -57q-99 0 -172 48l-83 -99l-39 34l81 97q-92 87 -92 226q0 112 60 213q59 99 157 158q97 58 206 58zM203 308q0 -79 45 -128l323 384q-41 25 -99 25
q-110 0 -189 -85q-80 -86 -80 -196zM386 124q108 0 188 84q80 85 80 195q0 77 -43 127l-322 -383q41 -23 97 -23z" />
    <glyph glyph-name="Ugrave" unicode="&#xd9;" horiz-adv-x="662" 
d="M595 261q-26 -125 -109 -199q-82 -73 -188 -73q-95 0 -162 57q-66 57 -66 154q0 32 7 61l96 451h136l-95 -444q-5 -28 -5 -42q0 -49 26.5 -75t71.5 -26q25 0 49.5 9.5t45 28t35.5 45t22 60.5l95 444h137zM591 828l-52 -66l-205 144l64 81z" />
    <glyph glyph-name="Uacute" unicode="&#xda;" horiz-adv-x="662" 
d="M595 261q-26 -125 -109 -199q-82 -73 -188 -73q-95 0 -162 57q-66 57 -66 154q0 32 7 61l96 451h136l-95 -444q-5 -28 -5 -42q0 -49 26.5 -75t71.5 -26q25 0 49.5 9.5t45 28t35.5 45t22 60.5l95 444h137zM371 762l-39 66l229 159l46 -81z" />
    <glyph glyph-name="Ucircumflex" unicode="&#xdb;" horiz-adv-x="662" 
d="M595 261q-26 -125 -109 -199q-82 -73 -188 -73q-95 0 -162 57q-66 57 -66 154q0 32 7 61l96 451h136l-95 -444q-5 -28 -5 -42q0 -49 26.5 -75t71.5 -26q25 0 49.5 9.5t45 28t35.5 45t22 60.5l95 444h137zM653 834l-50 -60l-135 88l-156 -88l-42 60l207 147z" />
    <glyph glyph-name="Udieresis" unicode="&#xdc;" horiz-adv-x="662" 
d="M595 261q-26 -125 -109 -199q-82 -73 -188 -73q-95 0 -162 57q-66 57 -66 154q0 32 7 61l96 451h136l-95 -444q-5 -28 -5 -42q0 -49 26.5 -75t71.5 -26q25 0 49.5 9.5t45 28t35.5 45t22 60.5l95 444h137zM554 939q25 0 41.5 -17t16.5 -42q0 -28 -22.5 -49t-50.5 -21
q-25 0 -41 16t-16 39q0 30 21 52t51 22zM383 939q25 0 41.5 -17t16.5 -42q0 -28 -22.5 -49t-50.5 -21q-25 0 -41 16t-16 39q0 30 21 52t51 22z" />
    <glyph glyph-name="Yacute" unicode="&#xdd;" horiz-adv-x="637" 
d="M562 712h166l-329 -419l-62 -293h-137l62 293l-151 419h145l68 -184l11.5 -37t13.5 -49h6q12 19 27 40.5t34 44.5zM357 762l-39 66l229 159l46 -81z" />
    <glyph glyph-name="Thorn" unicode="&#xde;" 
d="M173 712h136l-24 -111h59q55 0 98.5 -14.5t72.5 -40t44.5 -61.5t15.5 -79q0 -93 -48 -159t-117 -94.5t-151 -28.5h-75l-26 -124h-136zM257 467l-45 -209h74q61 0 105 35q44 36 44 90q0 39 -29.5 61.5t-80.5 22.5h-68z" />
    <glyph glyph-name="germandbls" unicode="&#xdf;" horiz-adv-x="585" 
d="M467 413q75 -53 75 -143q0 -123 -82 -202t-216 -79q-19 0 -32 0.5t-20 1.5l29 137q11 -4 40 -4q27 0 51.5 9t43 26t29.5 43t11 59q0 83 -118 83h-11l26 126h9q118 0 118 109q0 27 -16.5 44.5t-47.5 17.5q-15 0 -29.5 -6.5t-27 -18t-21.5 -27t-12 -33.5l-119 -556h-134
l119 557q19 96 86 157q65 61 155 61q81 0 131 -50t50 -126q0 -27 -7 -53t-18.5 -50.5t-27.5 -45.5t-34 -37z" />
    <glyph glyph-name="agrave" unicode="&#xe0;" horiz-adv-x="649" 
d="M334 546q24 0 46.5 -6.5t43 -17.5t38 -25t29.5 -29l7 36q4 27 6 30h133l-113 -534h-118l9 66q-86 -77 -161 -77q-103 0 -161 63q-57 64 -57 160q0 130 85 231q85 103 213 103zM280 114q59 0 106 45q48 46 61 107l17 75q-14 28 -46 53q-33 27 -80 27q-68 0 -116 -56
t-48 -137q0 -52 27.5 -83t78.5 -31zM497 650l-52 -66l-205 144l64 81z" />
    <glyph glyph-name="aacute" unicode="&#xe1;" horiz-adv-x="649" 
d="M334 546q24 0 46.5 -6.5t43 -17.5t38 -25t29.5 -29l7 36q4 27 6 30h133l-113 -534h-118l9 66q-86 -77 -161 -77q-103 0 -161 63q-57 64 -57 160q0 130 85 231q85 103 213 103zM280 114q59 0 106 45q48 46 61 107l17 75q-14 28 -46 53q-33 27 -80 27q-68 0 -116 -56
t-48 -137q0 -52 27.5 -83t78.5 -31zM276 584l-39 66l229 159l46 -81z" />
    <glyph glyph-name="acircumflex" unicode="&#xe2;" horiz-adv-x="649" 
d="M334 546q24 0 46.5 -6.5t43 -17.5t38 -25t29.5 -29l7 36q4 27 6 30h133l-113 -534h-118l9 66q-86 -77 -161 -77q-103 0 -161 63q-57 64 -57 160q0 130 85 231q85 103 213 103zM280 114q59 0 106 45q48 46 61 107l17 75q-14 28 -46 53q-33 27 -80 27q-68 0 -116 -56
t-48 -137q0 -52 27.5 -83t78.5 -31zM564 656l-50 -60l-135 88l-156 -88l-42 60l207 147z" />
    <glyph glyph-name="atilde" unicode="&#xe3;" horiz-adv-x="649" 
d="M334 546q24 0 46.5 -6.5t43 -17.5t38 -25t29.5 -29l7 36q4 27 6 30h133l-113 -534h-118l9 66q-86 -77 -161 -77q-103 0 -161 63q-57 64 -57 160q0 130 85 231q85 103 213 103zM280 114q59 0 106 45q48 46 61 107l17 75q-14 28 -46 53q-33 27 -80 27q-68 0 -116 -56
t-48 -137q0 -52 27.5 -83t78.5 -31zM428 636q-26 0 -61 16t-50 16q-25 0 -44 -30l-63 43q50 74 119 74q27 0 62 -16q36 -16 49 -16q25 0 44 31l64 -43q-50 -75 -120 -75z" />
    <glyph glyph-name="adieresis" unicode="&#xe4;" horiz-adv-x="649" 
d="M334 546q24 0 46.5 -6.5t43 -17.5t38 -25t29.5 -29l7 36q4 27 6 30h133l-113 -534h-118l9 66q-86 -77 -161 -77q-103 0 -161 63q-57 64 -57 160q0 130 85 231q85 103 213 103zM280 114q59 0 106 45q48 46 61 107l17 75q-14 28 -46 53q-33 27 -80 27q-68 0 -116 -56
t-48 -137q0 -52 27.5 -83t78.5 -31zM470 761q25 0 41.5 -17t16.5 -42q0 -28 -22.5 -49t-50.5 -21q-25 0 -41 16t-16 39q0 30 21 52t51 22zM299 761q25 0 41.5 -17t16.5 -42q0 -28 -22.5 -49t-50.5 -21q-25 0 -41 16t-16 39q0 30 21 52t51 22z" />
    <glyph glyph-name="aring" unicode="&#xe5;" horiz-adv-x="649" 
d="M334 546q24 0 46.5 -6.5t43 -17.5t38 -25t29.5 -29l7 36q4 27 6 30h133l-113 -534h-118l9 66q-86 -77 -161 -77q-103 0 -161 63q-57 64 -57 160q0 130 85 231q85 103 213 103zM280 114q59 0 106 45q48 46 61 107l17 75q-14 28 -46 53q-33 27 -80 27q-68 0 -116 -56
t-48 -137q0 -52 27.5 -83t78.5 -31zM273 696q-1 43 30 73q31 31 74 31q21 0 39.5 -8t32.5 -22.5t22.5 -33.5t8.5 -40t-8.5 -40t-22.5 -33t-33.5 -22t-40.5 -8t-40 8t-32.5 22t-21.5 33t-8 40zM336 696q-1 -17 11 -29t29 -12t29 12t13 29q-1 17 -13.5 29t-29.5 12t-28.5 -12
t-10.5 -29z" />
    <glyph glyph-name="ae" unicode="&#xe6;" horiz-adv-x="899" 
d="M667 546q90 0 143.5 -56.5t53.5 -165.5q0 -60 -7 -85h-352v-14q0 -54 28.5 -86.5t79.5 -32.5q39 0 85 16.5t79 44.5l-26 -141q-81 -37 -153 -37q-118 0 -184 77q-92 -77 -223 -77q-81 0 -120 37t-39 103q0 103 65.5 151.5t203.5 48.5h81l4 23q1 2 1 10q0 28 -26 48
t-62 20q-81 0 -161 -46l24 131q81 31 150 31q110 0 169 -65q85 65 186 65zM365 239h-75q-125 0 -125 -89q0 -48 64 -48q51 0 86.5 29.5t43.5 74.5zM746 329v10q0 45 -26 72.5t-65 27.5q-42 0 -76.5 -29.5t-55.5 -80.5h223z" />
    <glyph glyph-name="ccedilla" unicode="&#xe7;" horiz-adv-x="474" 
d="M188 -101l38 93q-86 11 -137 72t-51 150q0 139 96 235q97 97 221 97q57 0 110 -29l-31 -141q-45 45 -97 45q-61 0 -112 -55q-50 -55 -50 -132q0 -52 29.5 -86t77.5 -34q61 0 125 49l-31 -150q-59 -23 -108 -24l-9 -44q30 0 47 -19.5t17 -47.5q0 -23 -9 -42.5t-25 -34
t-38 -23t-48 -8.5q-42 0 -66 21l14 65q27 -18 54 -18q43 0 43 38q0 23 -35 23h-25z" />
    <glyph glyph-name="egrave" unicode="&#xe8;" horiz-adv-x="568" 
d="M413 329v12q0 20 -7 37.5t-18.5 31t-27.5 21.5t-34 8q-43 0 -77 -29.5t-55 -80.5h219zM417 20q-69 -31 -151 -31q-106 0 -168 59.5t-62 167.5q0 143 86 237q87 93 218 93q87 0 141 -58.5t54 -169.5q0 -15 -1.5 -34.5t-5.5 -44.5h-353v-14q0 -54 29 -86.5t80 -32.5
q18 0 39.5 4t43.5 10.5t42 16t37 21.5zM510 650l-52 -66l-205 144l64 81z" />
    <glyph glyph-name="eacute" unicode="&#xe9;" horiz-adv-x="568" 
d="M413 329v12q0 20 -7 37.5t-18.5 31t-27.5 21.5t-34 8q-43 0 -77 -29.5t-55 -80.5h219zM417 20q-69 -31 -151 -31q-106 0 -168 59.5t-62 167.5q0 143 86 237q87 93 218 93q87 0 141 -58.5t54 -169.5q0 -15 -1.5 -34.5t-5.5 -44.5h-353v-14q0 -54 29 -86.5t80 -32.5
q18 0 39.5 4t43.5 10.5t42 16t37 21.5zM279 584l-39 66l229 159l46 -81z" />
    <glyph glyph-name="ecircumflex" unicode="&#xea;" horiz-adv-x="568" 
d="M413 329v12q0 20 -7 37.5t-18.5 31t-27.5 21.5t-34 8q-43 0 -77 -29.5t-55 -80.5h219zM417 20q-69 -31 -151 -31q-106 0 -168 59.5t-62 167.5q0 143 86 237q87 93 218 93q87 0 141 -58.5t54 -169.5q0 -15 -1.5 -34.5t-5.5 -44.5h-353v-14q0 -54 29 -86.5t80 -32.5
q18 0 39.5 4t43.5 10.5t42 16t37 21.5zM573 656l-50 -60l-135 88l-156 -88l-42 60l207 147z" />
    <glyph glyph-name="edieresis" unicode="&#xeb;" horiz-adv-x="568" 
d="M413 329v12q0 20 -7 37.5t-18.5 31t-27.5 21.5t-34 8q-43 0 -77 -29.5t-55 -80.5h219zM417 20q-69 -31 -151 -31q-106 0 -168 59.5t-62 167.5q0 143 86 237q87 93 218 93q87 0 141 -58.5t54 -169.5q0 -15 -1.5 -34.5t-5.5 -44.5h-353v-14q0 -54 29 -86.5t80 -32.5
q18 0 39.5 4t43.5 10.5t42 16t37 21.5zM470 761q25 0 41.5 -17t16.5 -42q0 -28 -22.5 -49t-50.5 -21q-25 0 -41 16t-16 39q0 30 21 52t51 22zM299 761q25 0 41.5 -17t16.5 -42q0 -28 -22.5 -49t-50.5 -21q-25 0 -41 16t-16 39q0 30 21 52t51 22z" />
    <glyph glyph-name="igrave" unicode="&#xec;" horiz-adv-x="275" 
d="M268 534l-113 -534h-133l113 534h133zM356 650l-52 -66l-205 144l64 81z" />
    <glyph glyph-name="iacute" unicode="&#xed;" horiz-adv-x="275" 
d="M268 534l-113 -534h-133l113 534h133zM129 584l-39 66l229 159l46 -81z" />
    <glyph glyph-name="icircumflex" unicode="&#xee;" horiz-adv-x="275" 
d="M268 534l-113 -534h-133l113 534h133zM420 656l-50 -60l-135 88l-156 -88l-42 60l207 147z" />
    <glyph glyph-name="idieresis" unicode="&#xef;" horiz-adv-x="275" 
d="M321 761q25 0 41.5 -17t16.5 -42q0 -28 -22.5 -49t-50.5 -21q-25 0 -41 16t-16 39q0 30 21 52t51 22zM150 761q25 0 41.5 -17t16.5 -42q0 -28 -22.5 -49t-50.5 -21q-25 0 -41 16t-16 39q0 30 21 52t51 22zM268 534l-113 -534h-133l113 534h133z" />
    <glyph glyph-name="eth" unicode="&#xf0;" horiz-adv-x="618" 
d="M441 756l-70 -59q106 -58 164 -139t58 -180q0 -31 -6 -64q-28 -144 -124 -235q-95 -90 -213 -90q-96 0 -158 59q-61 58 -61 149q0 125 94 218q94 94 217 94q35 0 58 -5q-50 57 -142 99l-86 -73l-33 40l64 54l-36.5 9.5l-33.5 8.5l26 133q43 -11 83 -24t78 -29l88 74z
M271 115q57 0 107 53q50 52 70 134q-45 81 -125 81q-61 0 -107 -49q-47 -50 -47 -113q0 -45 28 -75.5t74 -30.5z" />
    <glyph glyph-name="ntilde" unicode="&#xf1;" horiz-adv-x="607" 
d="M129 534h124l-6 -61l24.5 22.5t18.5 15.5q16 13 43 24t58 11q164 0 164 -153q0 -23 -2 -43.5t-6 -40.5l-65 -309h-132l62 296q6 28 6 45q0 80 -76 80q-12 0 -25.5 -4t-27 -10.5t-25.5 -14t-21 -14.5l-17 -14l-78 -364h-132zM441 636q-26 0 -61 16t-50 16q-25 0 -44 -30
l-63 43q50 74 119 74q27 0 62 -16q36 -16 49 -16q25 0 44 31l64 -43q-50 -75 -120 -75z" />
    <glyph glyph-name="ograve" unicode="&#xf2;" horiz-adv-x="617" 
d="M350 546q104 0 169 -68t65 -170q0 -128 -94 -223q-93 -96 -220 -96q-106 0 -170 67t-64 170q0 128 93 224q94 96 221 96zM285 114q61 0 111 53q50 55 50 130q0 55 -31.5 89.5t-77.5 34.5q-62 0 -113 -54q-50 -55 -50 -130q0 -55 31.5 -89t79.5 -34zM522 650l-52 -66
l-205 144l64 81z" />
    <glyph glyph-name="oacute" unicode="&#xf3;" horiz-adv-x="617" 
d="M350 546q104 0 169 -68t65 -170q0 -128 -94 -223q-93 -96 -220 -96q-106 0 -170 67t-64 170q0 128 93 224q94 96 221 96zM285 114q61 0 111 53q50 55 50 130q0 55 -31.5 89.5t-77.5 34.5q-62 0 -113 -54q-50 -55 -50 -130q0 -55 31.5 -89t79.5 -34zM293 584l-39 66
l229 159l46 -81z" />
    <glyph glyph-name="ocircumflex" unicode="&#xf4;" horiz-adv-x="617" 
d="M350 546q104 0 169 -68t65 -170q0 -128 -94 -223q-93 -96 -220 -96q-106 0 -170 67t-64 170q0 128 93 224q94 96 221 96zM285 114q61 0 111 53q50 55 50 130q0 55 -31.5 89.5t-77.5 34.5q-62 0 -113 -54q-50 -55 -50 -130q0 -55 31.5 -89t79.5 -34zM582 656l-50 -60
l-135 88l-156 -88l-42 60l207 147z" />
    <glyph glyph-name="otilde" unicode="&#xf5;" horiz-adv-x="617" 
d="M350 546q104 0 169 -68t65 -170q0 -128 -94 -223q-93 -96 -220 -96q-106 0 -170 67t-64 170q0 128 93 224q94 96 221 96zM285 114q61 0 111 53q50 55 50 130q0 55 -31.5 89.5t-77.5 34.5q-62 0 -113 -54q-50 -55 -50 -130q0 -55 31.5 -89t79.5 -34zM441 636q-26 0 -61 16
t-50 16q-25 0 -44 -30l-63 43q50 74 119 74q27 0 62 -16q36 -16 49 -16q25 0 44 31l64 -43q-50 -75 -120 -75z" />
    <glyph glyph-name="odieresis" unicode="&#xf6;" horiz-adv-x="617" 
d="M350 546q104 0 169 -68t65 -170q0 -128 -94 -223q-93 -96 -220 -96q-106 0 -170 67t-64 170q0 128 93 224q94 96 221 96zM285 114q61 0 111 53q50 55 50 130q0 55 -31.5 89.5t-77.5 34.5q-62 0 -113 -54q-50 -55 -50 -130q0 -55 31.5 -89t79.5 -34zM483 761
q25 0 41.5 -17t16.5 -42q0 -28 -22.5 -49t-50.5 -21q-25 0 -41 16t-16 39q0 30 21 52t51 22zM312 761q25 0 41.5 -17t16.5 -42q0 -28 -22.5 -49t-50.5 -21q-25 0 -41 16t-16 39q0 30 21 52t51 22z" />
    <glyph glyph-name="divide" unicode="&#xf7;" 
d="M21 186v129h483v-129h-483zM261 153q33 0 56 -23.5t23 -56.5t-23 -55.5t-56 -22.5t-55.5 22.5t-22.5 55.5t23 56.5t55 23.5zM261 503q33 0 56 -23t23 -56t-23 -55.5t-56 -22.5q-32 0 -55 22.5t-23 55.5t23 56t55 23z" />
    <glyph glyph-name="oslash" unicode="&#xf8;" horiz-adv-x="617" 
d="M350 546q71 0 135 -38l64 75q7 -6 18.5 -14.5t15.5 -12.5l-65 -76q66 -71 66 -172q0 -128 -94 -223q-93 -96 -220 -96q-75 0 -134 37l-64 -76l-33 30l62 74q-65 71 -65 172q0 128 93 224q94 96 221 96zM285 114q61 0 111 53q50 55 50 130q0 37 -21 73l-201 -239
q26 -17 61 -17zM174 237q0 -32 20 -74l202 240q-29 18 -59 18q-62 0 -113 -54q-50 -55 -50 -130z" />
    <glyph glyph-name="ugrave" unicode="&#xf9;" horiz-adv-x="608" 
d="M595 534l-65 -310q-22 -105 -97 -171q-73 -64 -178 -64q-93 0 -145.5 45t-52.5 127q0 35 6 61l67 312h133l-63 -296q-7 -31 -7 -39q0 -85 80 -85q42 0 77.5 30t48.5 91l64 299h132zM522 650l-52 -66l-205 144l64 81z" />
    <glyph glyph-name="uacute" unicode="&#xfa;" horiz-adv-x="608" 
d="M595 534l-65 -310q-22 -105 -97 -171q-73 -64 -178 -64q-93 0 -145.5 45t-52.5 127q0 35 6 61l67 312h133l-63 -296q-7 -31 -7 -39q0 -85 80 -85q42 0 77.5 30t48.5 91l64 299h132zM293 584l-39 66l229 159l46 -81z" />
    <glyph glyph-name="ucircumflex" unicode="&#xfb;" horiz-adv-x="608" 
d="M595 534l-65 -310q-22 -105 -97 -171q-73 -64 -178 -64q-93 0 -145.5 45t-52.5 127q0 35 6 61l67 312h133l-63 -296q-7 -31 -7 -39q0 -85 80 -85q42 0 77.5 30t48.5 91l64 299h132zM585 656l-50 -60l-135 88l-156 -88l-42 60l207 147z" />
    <glyph glyph-name="udieresis" unicode="&#xfc;" horiz-adv-x="608" 
d="M595 534l-65 -310q-22 -105 -97 -171q-73 -64 -178 -64q-93 0 -145.5 45t-52.5 127q0 35 6 61l67 312h133l-63 -296q-7 -31 -7 -39q0 -85 80 -85q42 0 77.5 30t48.5 91l64 299h132zM484 761q25 0 41.5 -17t16.5 -42q0 -28 -22.5 -49t-50.5 -21q-25 0 -41 16t-16 39
q0 30 21 52t51 22zM313 761q25 0 41.5 -17t16.5 -42q0 -28 -22.5 -49t-50.5 -21q-25 0 -41 16t-16 39q0 30 21 52t51 22z" />
    <glyph glyph-name="yacute" unicode="&#xfd;" horiz-adv-x="602" 
d="M68 534h138l52 -204q10 -42 21 -111h8l37 68t24 41l132 206h155l-500 -750h-151l200 296zM285 584l-39 66l229 159l46 -81z" />
    <glyph glyph-name="thorn" unicode="&#xfe;" horiz-adv-x="644" 
d="M613 320q0 -81 -39 -157q-38 -76 -111 -125q-71 -49 -160 -49q-81 0 -151 46l-52 -251h-131l208 980h131l-62 -293q46 44 81 59.5t71 15.5q103 0 159 -65t56 -161zM314 114q70 0 117 57q47 58 47 131q0 54 -29 87t-80 33q-61 0 -107 -45q-45 -44 -59 -109l-16 -75
q7 -14 19 -28t28.5 -25t36.5 -18.5t43 -7.5z" />
    <glyph glyph-name="ydieresis" unicode="&#xff;" horiz-adv-x="602" 
d="M68 534h138l52 -204q10 -42 21 -111h8l37 68t24 41l132 206h155l-500 -750h-151l200 296zM475 761q25 0 41.5 -17t16.5 -42q0 -28 -22.5 -49t-50.5 -21q-25 0 -41 16t-16 39q0 30 21 52t51 22zM304 761q25 0 41.5 -17t16.5 -42q0 -28 -22.5 -49t-50.5 -21q-25 0 -41 16
t-16 39q0 30 21 52t51 22z" />
    <glyph glyph-name="Amacron" unicode="&#x100;" horiz-adv-x="739" 
d="M504 712l178 -712h-145l-37 151h-287l-93 -151h-156l454 712h86zM469 285l-30 124q-11 39 -15 78h-6l-28.5 -53.5t-14.5 -25.5l-77 -123h171zM364 918h293l-17 -84h-293z" />
    <glyph glyph-name="amacron" unicode="&#x101;" horiz-adv-x="649" 
d="M334 546q24 0 46.5 -6.5t43 -17.5t38 -25t29.5 -29l7 36q4 27 6 30h133l-113 -534h-118l9 66q-86 -77 -161 -77q-103 0 -161 63q-57 64 -57 160q0 130 85 231q85 103 213 103zM280 114q59 0 106 45q48 46 61 107l17 75q-14 28 -46 53q-33 27 -80 27q-68 0 -116 -56
t-48 -137q0 -52 27.5 -83t78.5 -31zM236 740h293l-17 -84h-293z" />
    <glyph glyph-name="Abreve" unicode="&#x102;" horiz-adv-x="739" 
d="M504 712l178 -712h-145l-37 151h-287l-93 -151h-156l454 712h86zM469 285l-30 124q-11 39 -15 78h-6l-28.5 -53.5t-14.5 -25.5l-77 -123h171zM690 917q-69 -126 -197 -126q-54 0 -99.5 30t-69.5 96l81 36q18 -48 45 -66q14 -7 25 -9t27 -2q23 0 38 3q16 4 38.5 22
t41.5 52z" />
    <glyph glyph-name="abreve" unicode="&#x103;" horiz-adv-x="649" 
d="M334 546q24 0 46.5 -6.5t43 -17.5t38 -25t29.5 -29l7 36q4 27 6 30h133l-113 -534h-118l9 66q-86 -77 -161 -77q-103 0 -161 63q-57 64 -57 160q0 130 85 231q85 103 213 103zM280 114q59 0 106 45q48 46 61 107l17 75q-14 28 -46 53q-33 27 -80 27q-68 0 -116 -56
t-48 -137q0 -52 27.5 -83t78.5 -31zM558 739q-69 -126 -197 -126q-54 0 -99.5 30t-69.5 96l81 36q18 -48 45 -66q14 -7 25 -9t27 -2q23 0 38 3q16 4 38.5 22t41.5 52z" />
    <glyph glyph-name="Aogonek" unicode="&#x104;" horiz-adv-x="739" 
d="M589 -210q-39 -17 -74 -17q-40 0 -64.5 23.5t-24.5 57.5q0 79 111 147l-37 150h-287l-93 -151h-156l454 712h86l178 -712h-15q-52 -15 -103 -54q-50 -39 -50 -72q0 -20 25 -20q31 0 69 23zM469 285l-30 124q-11 39 -15 78h-6l-28.5 -53.5t-14.5 -25.5l-77 -123h171z" />
    <glyph glyph-name="aogonek" unicode="&#x105;" horiz-adv-x="649" 
d="M457 -210q-39 -17 -74 -17q-40 0 -64.5 23.5t-24.5 57.5q0 80 112 147l9 65q-86 -77 -161 -77q-103 0 -161 63q-57 64 -57 160q0 130 85 231q85 103 213 103q24 0 46.5 -6.5t43 -17.5t38 -25t29.5 -29l7 36q4 27 6 30h133l-113 -533q-45 -17 -93 -55q-49 -40 -49 -72
q0 -20 25 -20q31 0 69 23zM280 114q59 0 106 45q48 46 61 107l17 75q-14 28 -46 53q-33 27 -80 27q-68 0 -116 -56t-48 -137q0 -52 27.5 -83t78.5 -31z" />
    <glyph glyph-name="Cacute" unicode="&#x106;" horiz-adv-x="613" 
d="M525 25q-83 -36 -156 -36q-135 0 -220 87q-86 88 -86 219q0 112 60 213q59 98 158 158q97 58 206 58q78 0 156 -42l-32 -150q-65 57 -139 57q-110 0 -189 -85q-80 -86 -80 -196q0 -81 49 -133t134 -52q76 0 174 65zM415 762l-39 66l229 159l46 -81z" />
    <glyph glyph-name="cacute" unicode="&#x107;" horiz-adv-x="474" 
d="M376 13q-59 -24 -113 -24q-103 0 -164 64t-61 161q0 139 96 235q97 97 221 97q57 0 110 -29l-31 -141q-45 45 -97 45q-61 0 -112 -55q-50 -55 -50 -132q0 -52 29.5 -86t77.5 -34q61 0 125 49zM286 584l-39 66l229 159l46 -81z" />
    <glyph glyph-name="Ccircumflex" unicode="&#x108;" horiz-adv-x="613" 
d="M525 25q-83 -36 -156 -36q-135 0 -220 87q-86 88 -86 219q0 112 60 213q59 98 158 158q97 58 206 58q78 0 156 -42l-32 -150q-65 57 -139 57q-110 0 -189 -85q-80 -86 -80 -196q0 -81 49 -133t134 -52q76 0 174 65zM709 834l-50 -60l-135 88l-156 -88l-42 60l207 147z
" />
    <glyph glyph-name="ccircumflex" unicode="&#x109;" horiz-adv-x="474" 
d="M376 13q-59 -24 -113 -24q-103 0 -164 64t-61 161q0 139 96 235q97 97 221 97q57 0 110 -29l-31 -141q-45 45 -97 45q-61 0 -112 -55q-50 -55 -50 -132q0 -52 29.5 -86t77.5 -34q61 0 125 49zM559 656l-50 -60l-135 88l-156 -88l-42 60l207 147z" />
    <glyph glyph-name="Cdotaccent" unicode="&#x10a;" horiz-adv-x="613" 
d="M525 25q-83 -36 -156 -36q-135 0 -220 87q-86 88 -86 219q0 112 60 213q59 98 158 158q97 58 206 58q78 0 156 -42l-32 -150q-65 57 -139 57q-110 0 -189 -85q-80 -86 -80 -196q0 -81 49 -133t134 -52q76 0 174 65zM584 880q0 -13 -6 -25.5t-15.5 -22.5t-22.5 -16t-28 -6
q-25 0 -41.5 16t-16.5 39q0 30 21.5 52t51.5 22q25 0 41 -17t16 -42z" />
    <glyph glyph-name="cdotaccent" unicode="&#x10b;" horiz-adv-x="474" 
d="M376 13q-59 -24 -113 -24q-103 0 -164 64t-61 161q0 139 96 235q97 97 221 97q57 0 110 -29l-31 -141q-45 45 -97 45q-61 0 -112 -55q-50 -55 -50 -132q0 -52 29.5 -86t77.5 -34q61 0 125 49zM454 702q0 -13 -6 -25.5t-15.5 -22.5t-22.5 -16t-28 -6q-25 0 -41.5 16
t-16.5 39q0 30 21.5 52t51.5 22q25 0 41 -17t16 -42z" />
    <glyph glyph-name="Ccaron" unicode="&#x10c;" horiz-adv-x="613" 
d="M525 25q-83 -36 -156 -36q-135 0 -220 87q-86 88 -86 219q0 112 60 213q59 98 158 158q97 58 206 58q78 0 156 -42l-32 -150q-65 57 -139 57q-110 0 -189 -85q-80 -86 -80 -196q0 -81 49 -133t134 -52q76 0 174 65zM663 981l42 -61l-206 -146l-177 146l50 61l137 -89z
" />
    <glyph glyph-name="ccaron" unicode="&#x10d;" horiz-adv-x="474" 
d="M376 13q-59 -24 -113 -24q-103 0 -164 64t-61 161q0 139 96 235q97 97 221 97q57 0 110 -29l-31 -141q-45 45 -97 45q-61 0 -112 -55q-50 -55 -50 -132q0 -52 29.5 -86t77.5 -34q61 0 125 49zM520 803l42 -61l-206 -146l-177 146l50 61l137 -89z" />
    <glyph glyph-name="Dcaron" unicode="&#x10e;" horiz-adv-x="693" 
d="M345 712q88 0 151.5 -24.5t104.5 -65.5t60 -94.5t19 -111.5q0 -48 -12.5 -97.5t-37.5 -95.5t-63 -86.5t-87.5 -71t-111.5 -48t-136 -17.5h-210l151 712h172zM229 134q136 0 224 71q87 70 87 202q0 85 -59 128.5t-168 43.5h-31l-95 -445h42zM568 981l42 -61l-206 -146
l-177 146l50 61l137 -89z" />
    <glyph glyph-name="dcaron" unicode="&#x10f;" horiz-adv-x="649" 
d="M36 212q0 127 85 230q86 104 217 104q82 0 159 -50l57 268h132l-162 -764h-121l9 66q-86 -77 -165 -77q-102 0 -157 63q-54 63 -54 160zM338 421q-71 0 -118 -59q-46 -58 -46 -134q0 -52 27.5 -83t78.5 -31q59 0 106 44q48 46 61 107l22 96q-10 16 -49 38q-37 22 -82 22z
M731 572q24 52 43.5 104.5t33.5 107.5l117 10q-53 -133 -125 -234z" />
    <glyph glyph-name="Dcroat" unicode="&#x110;" horiz-adv-x="693" 
d="M26 328l11 52h65l71 332h172q88 0 151.5 -24.5t104.5 -65.5t60 -94.5t19 -111.5q0 -48 -12.5 -97.5t-37.5 -95.5t-63 -86.5t-87.5 -71t-111.5 -48t-136 -17.5h-210l69 328h-65zM229 134q136 0 224 71q87 70 87 202q0 85 -59 128.5t-168 43.5h-31l-43 -199h153l-11 -52
h-153l-41 -194h42z" />
    <glyph glyph-name="dcroat" unicode="&#x111;" horiz-adv-x="649" 
d="M36 212q0 127 85 230q86 104 217 104q82 0 159 -50l24 114h-168l11 52h168l22 102h132l-12 -56l-9 -46h46l-11 -52h-47l-129 -610h-121l9 66q-86 -77 -165 -77q-102 0 -157 63q-54 63 -54 160zM338 421q-71 0 -118 -59q-46 -58 -46 -134q0 -52 27.5 -83t78.5 -31
q59 0 106 44q48 46 61 107l22 96q-10 16 -49 38q-37 22 -82 22z" />
    <glyph glyph-name="Emacron" unicode="&#x112;" horiz-adv-x="555" 
d="M22 0l151 712h421l-28 -133h-284l-30 -138h276l-28 -134h-276l-37 -173h284l-28 -134h-421zM270 918h293l-17 -84h-293z" />
    <glyph glyph-name="emacron" unicode="&#x113;" horiz-adv-x="568" 
d="M413 329v12q0 20 -7 37.5t-18.5 31t-27.5 21.5t-34 8q-43 0 -77 -29.5t-55 -80.5h219zM417 20q-69 -31 -151 -31q-106 0 -168 59.5t-62 167.5q0 143 86 237q87 93 218 93q87 0 141 -58.5t54 -169.5q0 -15 -1.5 -34.5t-5.5 -44.5h-353v-14q0 -54 29 -86.5t80 -32.5
q18 0 39.5 4t43.5 10.5t42 16t37 21.5zM240 740h293l-17 -84h-293z" />
    <glyph glyph-name="Ebreve" unicode="&#x114;" horiz-adv-x="555" 
d="M22 0l151 712h421l-28 -133h-284l-30 -138h276l-28 -134h-276l-37 -173h284l-28 -134h-421zM600 917q-69 -126 -197 -126q-54 0 -99.5 30t-69.5 96l81 36q18 -48 45 -66q14 -7 25 -9t27 -2q23 0 38 3q16 4 38.5 22t41.5 52z" />
    <glyph glyph-name="ebreve" unicode="&#x115;" horiz-adv-x="568" 
d="M413 329v12q0 20 -7 37.5t-18.5 31t-27.5 21.5t-34 8q-43 0 -77 -29.5t-55 -80.5h219zM417 20q-69 -31 -151 -31q-106 0 -168 59.5t-62 167.5q0 143 86 237q87 93 218 93q87 0 141 -58.5t54 -169.5q0 -15 -1.5 -34.5t-5.5 -44.5h-353v-14q0 -54 29 -86.5t80 -32.5
q18 0 39.5 4t43.5 10.5t42 16t37 21.5zM563 739q-69 -126 -197 -126q-54 0 -99.5 30t-69.5 96l81 36q18 -48 45 -66q14 -7 25 -9t27 -2q23 0 38 3q16 4 38.5 22t41.5 52z" />
    <glyph glyph-name="Edotaccent" unicode="&#x116;" horiz-adv-x="555" 
d="M22 0l151 712h421l-28 -133h-284l-30 -138h276l-28 -134h-276l-37 -173h284l-28 -134h-421zM476 880q0 -13 -6 -25.5t-15.5 -22.5t-22.5 -16t-28 -6q-25 0 -41.5 16t-16.5 39q0 30 21.5 52t51.5 22q25 0 41 -17t16 -42z" />
    <glyph glyph-name="edotaccent" unicode="&#x117;" horiz-adv-x="568" 
d="M413 329v12q0 20 -7 37.5t-18.5 31t-27.5 21.5t-34 8q-43 0 -77 -29.5t-55 -80.5h219zM417 20q-69 -31 -151 -31q-106 0 -168 59.5t-62 167.5q0 143 86 237q87 93 218 93q87 0 141 -58.5t54 -169.5q0 -15 -1.5 -34.5t-5.5 -44.5h-353v-14q0 -54 29 -86.5t80 -32.5
q18 0 39.5 4t43.5 10.5t42 16t37 21.5zM443 702q0 -13 -6 -25.5t-15.5 -22.5t-22.5 -16t-28 -6q-25 0 -41.5 16t-16.5 39q0 30 21.5 52t51.5 22q25 0 41 -17t16 -42z" />
    <glyph glyph-name="Eogonek" unicode="&#x118;" horiz-adv-x="555" 
d="M22 0l151 712h421l-28 -133h-284l-30 -138h276l-28 -134h-276l-37 -173h284l-28 -134h-4q-52 -15 -103 -54q-50 -39 -50 -72q0 -20 25 -20q31 0 69 23l-19 -87q-39 -17 -74 -17q-40 0 -64.5 23.5t-24.5 57.5q0 79 109 146h-285z" />
    <glyph glyph-name="eogonek" unicode="&#x119;" horiz-adv-x="568" 
d="M250 -210q-39 -17 -74 -17q-40 0 -64.5 23.5t-24.5 57.5q0 76 105 144q-75 18 -115.5 74t-40.5 144q0 143 86 237q87 93 218 93q87 0 141 -58.5t54 -169.5q0 -15 -1.5 -34.5t-5.5 -44.5h-353v-14q0 -54 29 -86.5t80 -32.5q18 0 39.5 4t43.5 10.5t42 16t37 21.5l-29 -138
q-24 -11 -52.5 -18t-60.5 -11q-47 -20 -89 -54q-40 -34 -40 -63q0 -20 25 -20q31 0 69 23zM413 329v12q0 20 -7 37.5t-18.5 31t-27.5 21.5t-34 8q-43 0 -77 -29.5t-55 -80.5h219z" />
    <glyph glyph-name="Ecaron" unicode="&#x11a;" horiz-adv-x="555" 
d="M22 0l151 712h421l-28 -133h-284l-30 -138h276l-28 -134h-276l-37 -173h284l-28 -134h-421zM565 981l42 -61l-206 -146l-177 146l50 61l137 -89z" />
    <glyph glyph-name="ecaron" unicode="&#x11b;" horiz-adv-x="568" 
d="M413 329v12q0 20 -7 37.5t-18.5 31t-27.5 21.5t-34 8q-43 0 -77 -29.5t-55 -80.5h219zM417 20q-69 -31 -151 -31q-106 0 -168 59.5t-62 167.5q0 143 86 237q87 93 218 93q87 0 141 -58.5t54 -169.5q0 -15 -1.5 -34.5t-5.5 -44.5h-353v-14q0 -54 29 -86.5t80 -32.5
q18 0 39.5 4t43.5 10.5t42 16t37 21.5zM530 803l42 -61l-206 -146l-177 146l50 61l137 -89z" />
    <glyph glyph-name="Gcircumflex" unicode="&#x11c;" horiz-adv-x="703" 
d="M346 262l29 135h290l-77 -364q-2 0 -7.5 -2t-12 -4t-12 -4t-8.5 -2l-18 -5q-14 -4 -20 -5.5t-20 -4.5q-26 -6 -54.5 -9t-65.5 -3q-134 0 -221 84q-86 86 -86 216q0 114 60 213q59 99 157 158t207 59q91 0 179 -49l-31 -146q-83 60 -163 60q-110 0 -189 -85
q-80 -85 -80 -195q0 -81 49 -131q50 -50 135 -50q21 0 42 2t42 6l27 126h-152zM711 834l-50 -60l-135 88l-156 -88l-42 60l207 147z" />
    <glyph glyph-name="gcircumflex" unicode="&#x11d;" horiz-adv-x="634" 
d="M447 340q-14 31 -46 56t-75 25q-64 0 -108 -53q-42 -53 -42 -130q0 -48 25.5 -76t74.5 -28q58 0 102 41t56 100zM622 534l-112 -528q-23 -106 -104 -168q-83 -63 -191 -63q-109 0 -185 45l29 135q76 -54 166 -54q46 0 95 37q49 36 61 90l9 40q-86 -59 -146 -59
q-100 0 -152 61t-52 153q0 81 34 153t103 121q68 49 155 49q18 0 38.5 -6t40.5 -16.5t38 -25t31 -31.5l18 67h124zM567 656l-50 -60l-135 88l-156 -88l-42 60l207 147z" />
    <glyph glyph-name="Gbreve" unicode="&#x11e;" horiz-adv-x="703" 
d="M346 262l29 135h290l-77 -364q-2 0 -7.5 -2t-12 -4t-12 -4t-8.5 -2l-18 -5q-14 -4 -20 -5.5t-20 -4.5q-26 -6 -54.5 -9t-65.5 -3q-134 0 -221 84q-86 86 -86 216q0 114 60 213q59 99 157 158t207 59q91 0 179 -49l-31 -146q-83 60 -163 60q-110 0 -189 -85
q-80 -85 -80 -195q0 -81 49 -131q50 -50 135 -50q21 0 42 2t42 6l27 126h-152zM707 917q-69 -126 -197 -126q-54 0 -99.5 30t-69.5 96l81 36q18 -48 45 -66q14 -7 25 -9t27 -2q23 0 38 3q16 4 38.5 22t41.5 52z" />
    <glyph glyph-name="gbreve" unicode="&#x11f;" horiz-adv-x="634" 
d="M447 340q-14 31 -46 56t-75 25q-64 0 -108 -53q-42 -53 -42 -130q0 -48 25.5 -76t74.5 -28q58 0 102 41t56 100zM622 534l-112 -528q-23 -106 -104 -168q-83 -63 -191 -63q-109 0 -185 45l29 135q76 -54 166 -54q46 0 95 37q49 36 61 90l9 40q-86 -59 -146 -59
q-100 0 -152 61t-52 153q0 81 34 153t103 121q68 49 155 49q18 0 38.5 -6t40.5 -16.5t38 -25t31 -31.5l18 67h124zM566 739q-69 -126 -197 -126q-54 0 -99.5 30t-69.5 96l81 36q18 -48 45 -66q14 -7 25 -9t27 -2q23 0 38 3q16 4 38.5 22t41.5 52z" />
    <glyph glyph-name="Gdotaccent" unicode="&#x120;" horiz-adv-x="703" 
d="M346 262l29 135h290l-77 -364q-2 0 -7.5 -2t-12 -4t-12 -4t-8.5 -2l-18 -5q-14 -4 -20 -5.5t-20 -4.5q-26 -6 -54.5 -9t-65.5 -3q-134 0 -221 84q-86 86 -86 216q0 114 60 213q59 99 157 158t207 59q91 0 179 -49l-31 -146q-83 60 -163 60q-110 0 -189 -85
q-80 -85 -80 -195q0 -81 49 -131q50 -50 135 -50q21 0 42 2t42 6l27 126h-152zM593 880q0 -13 -6 -25.5t-15.5 -22.5t-22.5 -16t-28 -6q-25 0 -41.5 16t-16.5 39q0 30 21.5 52t51.5 22q25 0 41 -17t16 -42z" />
    <glyph glyph-name="gdotaccent" unicode="&#x121;" horiz-adv-x="634" 
d="M447 340q-14 31 -46 56t-75 25q-64 0 -108 -53q-42 -53 -42 -130q0 -48 25.5 -76t74.5 -28q58 0 102 41t56 100zM622 534l-112 -528q-23 -106 -104 -168q-83 -63 -191 -63q-109 0 -185 45l29 135q76 -54 166 -54q46 0 95 37q49 36 61 90l9 40q-86 -59 -146 -59
q-100 0 -152 61t-52 153q0 81 34 153t103 121q68 49 155 49q18 0 38.5 -6t40.5 -16.5t38 -25t31 -31.5l18 67h124zM448 702q0 -13 -6 -25.5t-15.5 -22.5t-22.5 -16t-28 -6q-25 0 -41.5 16t-16.5 39q0 30 21.5 52t51.5 22q25 0 41 -17t16 -42z" />
    <glyph glyph-name="Gcommaaccent" unicode="&#x122;" horiz-adv-x="703" 
d="M346 262l29 135h290l-77 -364q-2 0 -7.5 -2t-12 -4t-12 -4t-8.5 -2l-18 -5q-14 -4 -20 -5.5t-20 -4.5q-26 -6 -54.5 -9t-65.5 -3q-134 0 -221 84q-86 86 -86 216q0 114 60 213q59 99 157 158t207 59q91 0 179 -49l-31 -146q-83 60 -163 60q-110 0 -189 -85
q-80 -85 -80 -195q0 -81 49 -131q50 -50 135 -50q21 0 42 2t42 6l27 126h-152zM211 -262q24 52 43.5 104.5t33.5 107.5l117 10q-53 -133 -125 -234z" />
    <glyph glyph-name="gcommaaccent" unicode="&#x123;" horiz-adv-x="634" 
d="M447 340q-14 31 -46 56t-75 25q-64 0 -108 -53q-42 -53 -42 -130q0 -48 25.5 -76t74.5 -28q58 0 102 41t56 100zM622 534l-112 -528q-23 -106 -104 -168q-83 -63 -191 -63q-109 0 -185 45l29 135q76 -54 166 -54q46 0 95 37q49 36 61 90l9 40q-86 -59 -146 -59
q-100 0 -152 61t-52 153q0 81 34 153t103 121q68 49 155 49q18 0 38.5 -6t40.5 -16.5t38 -25t31 -31.5l18 67h124zM457 813q-24 -52 -43.5 -104.5t-33.5 -107.5l-117 -10q53 133 125 234z" />
    <glyph glyph-name="Hcircumflex" unicode="&#x124;" horiz-adv-x="672" 
d="M505 441l58 271h138l-151 -712h-138l65 306h-253l-65 -306h-137l151 712h137l-58 -271h253zM658 834l-50 -60l-135 88l-156 -88l-42 60l207 147z" />
    <glyph glyph-name="hcircumflex" unicode="&#x125;" horiz-adv-x="607" 
d="M178 764h132l-61 -292q21 19 39 33t35 23t34.5 13.5t38.5 4.5q159 0 159 -153q0 -21 -2 -41.5t-6 -40.5l-65 -311h-132l63 299q5 25 5 42q0 80 -76 80q-12 0 -25.5 -4t-27 -10.5t-25.5 -14t-21 -14.5l-17 -14l-78 -364h-132zM448 834l-50 -60l-135 88l-156 -88l-42 60
l207 147z" />
    <glyph glyph-name="Hbar" unicode="&#x126;" horiz-adv-x="672" 
d="M741 602l-10 -51h-64l-117 -551h-138l65 306h-253l-65 -306h-137l117 551h-65l10 51h65l24 110h137l-24 -110h253l24 110h138l-24 -110h64zM505 441l24 110h-253l-24 -110h253z" />
    <glyph glyph-name="hbar" unicode="&#x127;" horiz-adv-x="607" 
d="M178 764h132l-21 -102h135l-11 -52h-135l-29 -138q83 74 147 74q159 0 159 -153q0 -21 -2 -41.5t-6 -40.5l-65 -311h-132l39.5 190l22.5 105l1 4q5 25 5 42q0 80 -76 80q-12 0 -25.5 -4t-27 -10.5t-25.5 -14t-21 -14.5l-17 -14l-78 -364h-132l129 610h-54l11 52h54z" />
    <glyph glyph-name="Itilde" unicode="&#x128;" horiz-adv-x="281" 
d="M321 814q-26 0 -61 16t-50 16q-25 0 -44 -30l-63 43q50 74 119 74q27 0 62 -16q36 -16 49 -16q25 0 44 31l64 -43q-50 -75 -120 -75zM310 712l-151 -712h-137l151 712h137z" />
    <glyph glyph-name="itilde" unicode="&#x129;" horiz-adv-x="275" 
d="M275 636q-26 0 -61 16t-50 16q-25 0 -44 -30l-63 43q50 74 119 74q27 0 62 -16q36 -16 49 -16q25 0 44 31l64 -43q-50 -75 -120 -75zM268 534l-113 -534h-133l113 534h133z" />
    <glyph glyph-name="Imacron" unicode="&#x12a;" horiz-adv-x="281" 
d="M310 712l-151 -712h-137l151 712h137zM135 918h293l-17 -84h-293z" />
    <glyph glyph-name="imacron" unicode="&#x12b;" horiz-adv-x="275" 
d="M268 534l-113 -534h-133l113 534h133zM90 740h293l-17 -84h-293z" />
    <glyph glyph-name="Ibreve" unicode="&#x12c;" horiz-adv-x="281" 
d="M310 712l-151 -712h-137l151 712h137zM463 917q-69 -126 -197 -126q-54 0 -99.5 30t-69.5 96l81 36q18 -48 45 -66q14 -7 25 -9t27 -2q23 0 38 3q16 4 38.5 22t41.5 52z" />
    <glyph glyph-name="ibreve" unicode="&#x12d;" horiz-adv-x="275" 
d="M268 534l-113 -534h-133l113 534h133zM412 739q-69 -126 -197 -126q-54 0 -99.5 30t-69.5 96l81 36q18 -48 45 -66q14 -7 25 -9t27 -2q23 0 38 3q16 4 38.5 22t41.5 52z" />
    <glyph glyph-name="Iogonek" unicode="&#x12e;" horiz-adv-x="281" 
d="M75 -210q-39 -17 -74 -17q-40 0 -64.5 23.5t-24.5 57.5q0 80 110 146l151 712h137l-151 -712h-6q-52 -15 -103 -54q-50 -39 -50 -72q0 -20 25 -20q31 0 69 23z" />
    <glyph glyph-name="iogonek" unicode="&#x12f;" horiz-adv-x="274" 
d="M68 -210q-39 -17 -74 -17q-40 0 -64.5 23.5t-24.5 57.5q0 79 111 147l113 533h133l-114 -534q-52 -16 -104 -55q-51 -39 -51 -71q0 -20 25 -20q31 0 69 23zM297 649q0 -16 -7.5 -30.5t-19.5 -25t-27.5 -17t-31.5 -6.5q-31 0 -51 20.5t-20 50.5q0 34 27 60q28 26 61 26
q30 0 49.5 -21.5t19.5 -56.5z" />
    <glyph glyph-name="Idotaccent" unicode="&#x130;" horiz-adv-x="281" 
d="M310 712l-151 -712h-137l151 712h137zM343 880q0 -13 -6 -25.5t-15.5 -22.5t-22.5 -16t-28 -6q-25 0 -41.5 16t-16.5 39q0 30 21.5 52t51.5 22q25 0 41 -17t16 -42z" />
    <glyph glyph-name="dotlessi" unicode="&#x131;" horiz-adv-x="275" 
d="M262 534l-113 -534h-133l113 534h133z" />
    <glyph glyph-name="IJ" unicode="&#x132;" horiz-adv-x="710" 
d="M310 712l-151 -712h-137l151 712h137zM602 712h137l-101 -473q-13 -62 -38.5 -108.5t-60.5 -78t-78.5 -47.5t-93.5 -16q-54 0 -84 10l31 146q25 -16 56 -16q45 0 82.5 28t49.5 86l16 77l19 88.5l24 113.5z" />
    <glyph glyph-name="ij" unicode="&#x133;" horiz-adv-x="553" 
d="M145 -95q25 -9 58 -9q16 0 30.5 7t26.5 18t20 26t11 30l117 557h132l-114 -543q-19 -92 -83 -154q-62 -62 -161 -62q-24 0 -64 8zM577 649q0 -16 -7.5 -30.5t-19.5 -25t-27.5 -17t-31.5 -6.5q-31 0 -51 20.5t-20 50.5q0 34 27 60q28 26 61 26q30 0 49.5 -21.5t19.5 -56.5
zM297 649q0 -16 -7.5 -30.5t-19.5 -25t-27.5 -17t-31.5 -6.5q-31 0 -51 20.5t-20 50.5q0 34 27 60q28 26 61 26q30 0 49.5 -21.5t19.5 -56.5zM148 0h-132l113 534h133z" />
    <glyph glyph-name="Jcircumflex" unicode="&#x134;" horiz-adv-x="423" 
d="M315 712h137l-101 -473q-13 -62 -38.5 -108.5t-60.5 -78t-78.5 -47.5t-93.5 -16q-54 0 -84 10l31 146q25 -16 56 -16q45 0 82.5 28t49.5 86l17 77l42 202zM605 834l-50 -60l-135 88l-156 -88l-42 60l207 147z" />
    <glyph glyph-name="jcircumflex" unicode="&#x135;" horiz-adv-x="273" 
d="M-135 -95q25 -9 58 -9q16 0 30.5 7t26.5 18t20 26t11 30l117 557h132l-114 -543q-19 -92 -83 -154q-62 -62 -161 -62q-24 0 -64 8zM417 656l-50 -60l-135 88l-156 -88l-42 60l207 147z" />
    <glyph glyph-name="Kcommaaccent" unicode="&#x136;" horiz-adv-x="640" 
d="M173 712h136l-44 -210q-8 -34 -18 -68h6l37.5 43t22.5 24l228 211h190l-376 -337l221 -375h-163l-160 282l-43 -37l-52 -245h-136zM130 -262q24 52 43.5 104.5t33.5 107.5l117 10q-53 -133 -125 -234z" />
    <glyph glyph-name="kcommaaccent" unicode="&#x137;" horiz-adv-x="567" 
d="M427 534h170l-281 -255l175 -279h-153l-115 197l-40 -35l-36 -162h-132l163 764h132l-69 -326l-23 -95h8l44 45.5t25 24.5zM62 -262q24 52 43.5 104.5t33.5 107.5l117 10q-53 -133 -125 -234z" />
    <glyph glyph-name="kgreenlandic" unicode="&#x138;" horiz-adv-x="567" 
d="M427 534h170l-281 -255l175 -279h-153l-115 197l-40 -35l-36 -162h-132l114 534h132l-20 -96l-23 -95h8l44 45.5t25 24.5z" />
    <glyph glyph-name="Lacute" unicode="&#x139;" horiz-adv-x="462" 
d="M310 712l-123 -578h229l-28 -134h-366l151 712h137zM179 762l-39 66l229 159l46 -81z" />
    <glyph glyph-name="lacute" unicode="&#x13a;" horiz-adv-x="273" 
d="M16 0l151 712h132l-151 -712h-132zM164 762l-39 66l229 159l46 -81z" />
    <glyph glyph-name="Lcommaaccent" unicode="&#x13b;" horiz-adv-x="462" 
d="M310 712l-123 -578h229l-28 -134h-366l151 712h137zM59 -262q24 52 43.5 104.5t33.5 107.5l117 10q-53 -133 -125 -234z" />
    <glyph glyph-name="lcommaaccent" unicode="&#x13c;" horiz-adv-x="273" 
d="M16 0l162 764h132l-162 -764h-132zM-57 -262q24 52 43.5 104.5t33.5 107.5l117 10q-53 -133 -125 -234z" />
    <glyph glyph-name="Lcaron" unicode="&#x13d;" horiz-adv-x="462" 
d="M310 712l-123 -578h229l-28 -134h-366l151 712h137zM357 548q24 52 43.5 104.5t33.5 107.5l117 10q-53 -133 -125 -234z" />
    <glyph glyph-name="lcaron" unicode="&#x13e;" horiz-adv-x="273" 
d="M16 0l162 764h132l-162 -764h-132zM356 572q24 52 43.5 104.5t33.5 107.5l117 10q-53 -133 -125 -234z" />
    <glyph glyph-name="Ldot" unicode="&#x13f;" horiz-adv-x="462" 
d="M310 712l-123 -578h229l-28 -134h-366l151 712h137zM366 349q31 0 51 -21t20 -52q0 -35 -27 -60q-26 -25 -61 -25q-30 0 -50.5 19.5t-20.5 48.5q0 18 7 34.5t19 28.5t28 19.5t34 7.5z" />
    <glyph glyph-name="ldot" unicode="&#x140;" horiz-adv-x="427" 
d="M16 0l162 764h132l-162 -764h-132zM349 349q31 0 51 -21t20 -52q0 -35 -27 -60q-26 -25 -61 -25q-30 0 -50.5 19.5t-20.5 48.5q0 18 7 34.5t19 28.5t28 19.5t34 7.5z" />
    <glyph glyph-name="Lslash" unicode="&#x141;" horiz-adv-x="462" 
d="M239 380l-52 -246h229l-28 -134h-366l56 265l-75 -53l-25 39l114 81l81 380h137l-56 -265l80 57l25 -39z" />
    <glyph glyph-name="lslash" unicode="&#x142;" horiz-adv-x="275" 
d="M-4 190l-25 39l110 79l97 456h133l-73 -344l80 57l25 -39l-119 -86l-75 -352h-133l51 241z" />
    <glyph glyph-name="Nacute" unicode="&#x143;" horiz-adv-x="708" 
d="M599 712h138l-151 -712h-89l-196 364q-11 19 -22 42t-22 51h-5q-6 -38 -10 -61t-6 -33l-77 -363h-137l151 712h103l185 -348q17 -32 28 -55t16 -38h6q3 28 6.5 51t7.5 42zM385 762l-39 66l229 159l46 -81z" />
    <glyph glyph-name="nacute" unicode="&#x144;" horiz-adv-x="607" 
d="M129 534h124l-6 -61l24.5 22.5t18.5 15.5q16 13 43 24t58 11q164 0 164 -153q0 -23 -2 -43.5t-6 -40.5l-65 -309h-132l62 296q6 28 6 45q0 80 -76 80q-12 0 -25.5 -4t-27 -10.5t-25.5 -14t-21 -14.5l-17 -14l-78 -364h-132zM291 584l-39 66l229 159l46 -81z" />
    <glyph glyph-name="Ncommaaccent" unicode="&#x145;" horiz-adv-x="708" 
d="M599 712h138l-151 -712h-89l-196 364q-11 19 -22 42t-22 51h-5q-6 -38 -10 -61t-6 -33l-77 -363h-137l151 712h103l185 -348q17 -32 28 -55t16 -38h6q3 28 6.5 51t7.5 42zM180 -262q24 52 43.5 104.5t33.5 107.5l117 10q-53 -133 -125 -234z" />
    <glyph glyph-name="ncommaaccent" unicode="&#x146;" horiz-adv-x="607" 
d="M129 534h124l-6 -61l24.5 22.5t18.5 15.5q16 13 43 24t58 11q164 0 164 -153q0 -23 -2 -43.5t-6 -40.5l-65 -309h-132l62 296q6 28 6 45q0 80 -76 80q-12 0 -25.5 -4t-27 -10.5t-25.5 -14t-21 -14.5l-17 -14l-78 -364h-132zM90 -262q24 52 43.5 104.5t33.5 107.5l117 10
q-53 -133 -125 -234z" />
    <glyph glyph-name="Ncaron" unicode="&#x147;" horiz-adv-x="708" 
d="M599 712h138l-151 -712h-89l-196 364q-11 19 -22 42t-22 51h-5q-6 -38 -10 -61t-6 -33l-77 -363h-137l151 712h103l185 -348q17 -32 28 -55t16 -38h6q3 28 6.5 51t7.5 42zM639 981l42 -61l-206 -146l-177 146l50 61l137 -89z" />
    <glyph glyph-name="ncaron" unicode="&#x148;" horiz-adv-x="607" 
d="M129 534h124l-6 -61l24.5 22.5t18.5 15.5q16 13 43 24t58 11q164 0 164 -153q0 -23 -2 -43.5t-6 -40.5l-65 -309h-132l62 296q6 28 6 45q0 80 -76 80q-12 0 -25.5 -4t-27 -10.5t-25.5 -14t-21 -14.5l-17 -14l-78 -364h-132zM540 803l42 -61l-206 -146l-177 146l50 61
l137 -89z" />
    <glyph glyph-name="napostrophe" unicode="&#x149;" horiz-adv-x="837" 
d="M359 534h124l-6 -61l24.5 22.5t18.5 15.5q16 13 43 24t58 11q164 0 164 -153q0 -23 -2 -43.5t-6 -40.5l-65 -309h-132l62 296q6 28 6 45q0 80 -76 80q-12 0 -25.5 -4t-27 -10.5t-25.5 -14t-21 -14.5l-17 -14l-78 -364h-132zM90 475q34 75 59.5 146.5t44.5 141.5l147 12
q-38 -94 -80.5 -172t-88.5 -142z" />
    <glyph glyph-name="Eng" unicode="&#x14a;" horiz-adv-x="708" 
d="M22 0l151 712h103l231 -433l92 433h138l-161 -758q-16 -75 -73 -127q-55 -52 -135 -52q-35 0 -62 9l25 120q27 -11 50 -11q21 0 38.5 17t22.5 39l23 110l-211 390l-95 -449h-137z" />
    <glyph glyph-name="eng" unicode="&#x14b;" horiz-adv-x="607" 
d="M129 534h124l-6 -61q76 73 144 73q164 0 164 -153q0 -23 -2 -43.5t-6 -40.5l-68 -319q-19 -91 -83 -153t-160 -62q-23 0 -63 8l13 63l8.5 35t5.5 25q24 -10 49 -10q35 0 61 23.5t34 58.5l68 317l1 4l3.5 25.5t1.5 16.5q0 80 -76 80q-12 0 -25.5 -4t-27 -10.5t-25.5 -14
t-21 -14.5l-17 -14l-78 -364h-132z" />
    <glyph glyph-name="Omacron" unicode="&#x14c;" horiz-adv-x="807" 
d="M486 724q136 0 221 -88q87 -87 87 -220q0 -113 -61 -213q-61 -98 -159 -157q-98 -57 -206 -57q-134 0 -219 87q-86 88 -86 219q0 112 60 213q59 99 157 158q97 58 206 58zM386 124q108 0 188 84q80 85 80 195q0 81 -49 133q-50 53 -133 53q-110 0 -189 -85
q-80 -86 -80 -196q0 -80 49 -132t134 -52zM402 918h293l-17 -84h-293z" />
    <glyph glyph-name="omacron" unicode="&#x14d;" horiz-adv-x="617" 
d="M350 546q104 0 169 -68t65 -170q0 -128 -94 -223q-93 -96 -220 -96q-106 0 -170 67t-64 170q0 128 93 224q94 96 221 96zM285 114q61 0 111 53q50 55 50 130q0 55 -31.5 89.5t-77.5 34.5q-62 0 -113 -54q-50 -55 -50 -130q0 -55 31.5 -89t79.5 -34zM254 740h293l-17 -84
h-293z" />
    <glyph glyph-name="Obreve" unicode="&#x14e;" horiz-adv-x="807" 
d="M486 724q136 0 221 -88q87 -87 87 -220q0 -113 -61 -213q-61 -98 -159 -157q-98 -57 -206 -57q-134 0 -219 87q-86 88 -86 219q0 112 60 213q59 99 157 158q97 58 206 58zM386 124q108 0 188 84q80 85 80 195q0 81 -49 133q-50 53 -133 53q-110 0 -189 -85
q-80 -86 -80 -196q0 -80 49 -132t134 -52zM728 917q-69 -126 -197 -126q-54 0 -99.5 30t-69.5 96l81 36q18 -48 45 -66q14 -7 25 -9t27 -2q23 0 38 3q16 4 38.5 22t41.5 52z" />
    <glyph glyph-name="obreve" unicode="&#x14f;" horiz-adv-x="617" 
d="M350 546q104 0 169 -68t65 -170q0 -128 -94 -223q-93 -96 -220 -96q-106 0 -170 67t-64 170q0 128 93 224q94 96 221 96zM285 114q61 0 111 53q50 55 50 130q0 55 -31.5 89.5t-77.5 34.5q-62 0 -113 -54q-50 -55 -50 -130q0 -55 31.5 -89t79.5 -34zM580 739
q-69 -126 -197 -126q-54 0 -99.5 30t-69.5 96l81 36q18 -48 45 -66q14 -7 25 -9t27 -2q23 0 38 3q16 4 38.5 22t41.5 52z" />
    <glyph glyph-name="Ohungarumlaut" unicode="&#x150;" horiz-adv-x="807" 
d="M486 724q136 0 221 -88q87 -87 87 -220q0 -113 -61 -213q-61 -98 -159 -157q-98 -57 -206 -57q-134 0 -219 87q-86 88 -86 219q0 112 60 213q59 99 157 158q97 58 206 58zM386 124q108 0 188 84q80 85 80 195q0 81 -49 133q-50 53 -133 53q-110 0 -189 -85
q-80 -86 -80 -196q0 -80 49 -132t134 -52zM385 827l152 149l58 -67l-164 -135zM553 827l152 149l59 -67l-165 -135z" />
    <glyph glyph-name="ohungarumlaut" unicode="&#x151;" horiz-adv-x="617" 
d="M350 546q104 0 169 -68t65 -170q0 -128 -94 -223q-93 -96 -220 -96q-106 0 -170 67t-64 170q0 128 93 224q94 96 221 96zM285 114q61 0 111 53q50 55 50 130q0 55 -31.5 89.5t-77.5 34.5q-62 0 -113 -54q-50 -55 -50 -130q0 -55 31.5 -89t79.5 -34zM228 649l152 149
l58 -67l-164 -135zM396 649l152 149l59 -67l-165 -135z" />
    <glyph glyph-name="OE" unicode="&#x152;" horiz-adv-x="959" 
d="M847 0h-389q-49 -11 -90 -11q-134 0 -219 87q-86 88 -86 219q0 112 60 213q59 99 157 158q97 58 206 58q49 0 91 -12h421l-28 -133h-284l-30 -138h276l-28 -134h-276l-37 -173h284zM386 124q39 0 68 10l94 441q-36 14 -76 14q-110 0 -189 -85q-80 -86 -80 -196
q0 -80 49 -132t134 -52z" />
    <glyph glyph-name="oe" unicode="&#x153;" horiz-adv-x="981" 
d="M576 238v-20q0 -23 8.5 -42.5t23 -34.5t34 -23.5t42.5 -8.5q97 0 175 75l62 -81q-128 -114 -254 -114q-125 0 -185 93q-93 -93 -212 -93q-106 0 -170 67t-64 170q0 128 93 224q94 96 221 96q117 0 181 -91q88 91 217 91q97 0 150.5 -63t53.5 -178q0 -15 -1.5 -31.5
t-3.5 -35.5h-371zM285 114q61 0 111 53q50 55 50 130q0 55 -31.5 89.5t-77.5 34.5q-62 0 -113 -54q-50 -55 -50 -130q0 -55 31.5 -89t79.5 -34zM736 435q-42 0 -81 -27.5t-57 -75.5h226q0 46 -24.5 74.5t-63.5 28.5z" />
    <glyph glyph-name="Racute" unicode="&#x154;" horiz-adv-x="614" 
d="M402 0l-130 267h-57l-56 -267h-137l151 712h197q106 0 160.5 -49.5t54.5 -130.5q0 -87 -49 -154q-47 -66 -128 -95q14 -24 33.5 -61l44.5 -88l43 -84l26 -50h-153zM282 579l-38 -179h73q55 0 91.5 29.5t36.5 77.5q0 34 -25.5 53t-70.5 19h-67zM313 762l-39 66l229 159
l46 -81z" />
    <glyph glyph-name="racute" unicode="&#x155;" horiz-adv-x="386" 
d="M243 462q61 79 159 79q5 0 11.5 -0.5t14.5 -1.5l-28 -131q-5 1 -11.5 1h-15.5q-39 0 -67.5 -9.5t-48 -27t-32 -43t-19.5 -58.5l-58 -271h-133l114 534h120zM198 584l-39 66l229 159l46 -81z" />
    <glyph glyph-name="Rcommaaccent" unicode="&#x156;" horiz-adv-x="614" 
d="M402 0l-130 267h-57l-56 -267h-137l151 712h197q106 0 160.5 -49.5t54.5 -130.5q0 -87 -49 -154q-47 -66 -128 -95q14 -24 33.5 -61l44.5 -88l43 -84l26 -50h-153zM282 579l-38 -179h73q55 0 91.5 29.5t36.5 77.5q0 34 -25.5 53t-70.5 19h-67zM130 -262q24 52 43.5 104.5
t33.5 107.5l117 10q-53 -133 -125 -234z" />
    <glyph glyph-name="rcommaaccent" unicode="&#x157;" horiz-adv-x="386" 
d="M243 462q61 79 159 79q5 0 11.5 -0.5t14.5 -1.5l-28 -131q-5 1 -11.5 1h-15.5q-39 0 -67.5 -9.5t-48 -27t-32 -43t-19.5 -58.5l-58 -271h-133l114 534h120zM-55 -262q24 52 43.5 104.5t33.5 107.5l117 10q-53 -133 -125 -234z" />
    <glyph glyph-name="Rcaron" unicode="&#x158;" horiz-adv-x="614" 
d="M402 0l-130 267h-57l-56 -267h-137l151 712h197q106 0 160.5 -49.5t54.5 -130.5q0 -87 -49 -154q-47 -66 -128 -95q14 -24 33.5 -61l44.5 -88l43 -84l26 -50h-153zM282 579l-38 -179h73q55 0 91.5 29.5t36.5 77.5q0 34 -25.5 53t-70.5 19h-67zM528 981l42 -61l-206 -146
l-177 146l50 61l137 -89z" />
    <glyph glyph-name="rcaron" unicode="&#x159;" horiz-adv-x="386" 
d="M243 462q61 79 159 79q5 0 11.5 -0.5t14.5 -1.5l-28 -131q-5 1 -11.5 1h-15.5q-39 0 -67.5 -9.5t-48 -27t-32 -43t-19.5 -58.5l-58 -271h-133l114 534h120zM454 803l42 -61l-206 -146l-177 146l50 61l137 -89z" />
    <glyph glyph-name="Sacute" unicode="&#x15a;" horiz-adv-x="548" 
d="M498 240q0 -110 -78 -180q-77 -71 -188 -71q-115 0 -189 74l30 144q82 -85 178 -85q21 0 40.5 5.5t34.5 16.5t23.5 26t8.5 35q0 27 -26 50t-63 43q-27 14 -56 31.5t-53 40.5t-39 52.5t-15 68.5q0 104 71 169q70 64 172 64q116 0 181 -63l-30 -140q-29 27 -78 48
q-47 22 -90 22q-15 0 -30.5 -5t-28 -14t-20 -22.5t-7.5 -29.5q0 -23 26 -44.5t63 -41.5q27 -14 55.5 -31.5t52.5 -41t39.5 -53.5t15.5 -68zM288 762l-39 66l229 159l46 -81z" />
    <glyph glyph-name="sacute" unicode="&#x15b;" horiz-adv-x="441" 
d="M374 173q0 -81 -60 -133q-59 -51 -140 -51q-78 0 -149 44l29 134q55 -63 126 -63q17 0 31.5 7.5t20.5 20t1.5 28.5t-23.5 33l-26.5 22t-28.5 21t-29.5 24t-26 30.5t-18.5 35.5t-7 39q0 76 59 129q58 52 142 52q60 0 130 -40l-28 -128q-51 53 -111 53q-20 0 -37.5 -13
t-17.5 -33q0 -9 7 -19.5t18.5 -21.5t26 -22t29.5 -21q31 -20 56.5 -54t25.5 -74zM211 584l-39 66l229 159l46 -81z" />
    <glyph glyph-name="Scircumflex" unicode="&#x15c;" horiz-adv-x="548" 
d="M498 240q0 -110 -78 -180q-77 -71 -188 -71q-115 0 -189 74l30 144q82 -85 178 -85q21 0 40.5 5.5t34.5 16.5t23.5 26t8.5 35q0 27 -26 50t-63 43q-27 14 -56 31.5t-53 40.5t-39 52.5t-15 68.5q0 104 71 169q70 64 172 64q116 0 181 -63l-30 -140q-29 27 -78 48
q-47 22 -90 22q-15 0 -30.5 -5t-28 -14t-20 -22.5t-7.5 -29.5q0 -23 26 -44.5t63 -41.5q27 -14 55.5 -31.5t52.5 -41t39.5 -53.5t15.5 -68zM576 834l-50 -60l-135 88l-156 -88l-42 60l207 147z" />
    <glyph glyph-name="scircumflex" unicode="&#x15d;" horiz-adv-x="441" 
d="M374 173q0 -81 -60 -133q-59 -51 -140 -51q-78 0 -149 44l29 134q55 -63 126 -63q17 0 31.5 7.5t20.5 20t1.5 28.5t-23.5 33l-26.5 22t-28.5 21t-29.5 24t-26 30.5t-18.5 35.5t-7 39q0 76 59 129q58 52 142 52q60 0 130 -40l-28 -128q-51 53 -111 53q-20 0 -37.5 -13
t-17.5 -33q0 -9 7 -19.5t18.5 -21.5t26 -22t29.5 -21q31 -20 56.5 -54t25.5 -74zM502 656l-50 -60l-135 88l-156 -88l-42 60l207 147z" />
    <glyph glyph-name="Scedilla" unicode="&#x15e;" horiz-adv-x="548" 
d="M158 -101l38 92q-95 10 -153 72l30 144q82 -85 178 -85q21 0 40.5 5.5t34.5 16.5t23.5 26t8.5 35q0 27 -26 50t-63 43q-27 14 -56 31.5t-53 40.5t-39 52.5t-15 68.5q0 104 71 169q70 64 172 64q116 0 181 -63l-30 -140q-29 27 -78 48q-47 22 -90 22q-15 0 -30.5 -5
t-28 -14t-20 -22.5t-7.5 -29.5q0 -23 26 -44.5t63 -41.5q27 -14 55.5 -31.5t52.5 -41t39.5 -53.5t15.5 -68q0 -109 -76 -179q-75 -71 -184 -72l-9 -44q30 0 47 -19.5t17 -47.5q0 -23 -9 -42.5t-25 -34t-38 -23t-48 -8.5q-42 0 -66 21l14 65q27 -18 54 -18q43 0 43 38
q0 23 -35 23h-25z" />
    <glyph glyph-name="scedilla" unicode="&#x15f;" horiz-adv-x="441" 
d="M101 -101l38 93q-61 7 -114 41l29 134q55 -63 126 -63q17 0 31.5 7.5t20.5 20t1.5 28.5t-23.5 33l-26.5 22t-28.5 21t-29.5 24t-26 30.5t-18.5 35.5t-7 39q0 76 59 129q58 52 142 52q60 0 130 -40l-28 -128q-51 53 -111 53q-20 0 -37.5 -13t-17.5 -33q0 -9 7 -19.5
t18.5 -21.5t26 -22t29.5 -21q31 -20 56.5 -54t25.5 -74q0 -79 -57 -130t-136 -54l-9 -44q30 0 47 -19.5t17 -47.5q0 -23 -9 -42.5t-25 -34t-38 -23t-48 -8.5q-42 0 -66 21l14 65q27 -18 54 -18q43 0 43 38q0 23 -35 23h-25z" />
    <glyph glyph-name="Scaron" unicode="&#x160;" horiz-adv-x="548" 
d="M498 240q0 -110 -78 -180q-77 -71 -188 -71q-115 0 -189 74l30 144q82 -85 178 -85q21 0 40.5 5.5t34.5 16.5t23.5 26t8.5 35q0 27 -26 50t-63 43q-27 14 -56 31.5t-53 40.5t-39 52.5t-15 68.5q0 104 71 169q70 64 172 64q116 0 181 -63l-30 -140q-29 27 -78 48
q-47 22 -90 22q-15 0 -30.5 -5t-28 -14t-20 -22.5t-7.5 -29.5q0 -23 26 -44.5t63 -41.5q27 -14 55.5 -31.5t52.5 -41t39.5 -53.5t15.5 -68zM545 981l42 -61l-206 -146l-177 146l50 61l137 -89z" />
    <glyph glyph-name="scaron" unicode="&#x161;" horiz-adv-x="441" 
d="M374 173q0 -81 -60 -133q-59 -51 -140 -51q-78 0 -149 44l29 134q55 -63 126 -63q17 0 31.5 7.5t20.5 20t1.5 28.5t-23.5 33l-26.5 22t-28.5 21t-29.5 24t-26 30.5t-18.5 35.5t-7 39q0 76 59 129q58 52 142 52q60 0 130 -40l-28 -128q-51 53 -111 53q-20 0 -37.5 -13
t-17.5 -33q0 -9 7 -19.5t18.5 -21.5t26 -22t29.5 -21q31 -20 56.5 -54t25.5 -74zM463 803l42 -61l-206 -146l-177 146l50 61l137 -89z" />
    <glyph glyph-name="Tcommaaccent" unicode="&#x162;" horiz-adv-x="496" 
d="M389 578l-122 -578h-138l122 578h-164l29 134h466l-29 -134h-164zM69 -262q24 52 43.5 104.5t33.5 107.5l117 10q-53 -133 -125 -234z" />
    <glyph glyph-name="tcommaaccent" unicode="&#x163;" horiz-adv-x="373" 
d="M300 0q-38 -9 -70 -9q-81 0 -120 41t-39 110q0 36 7 63l47 219h-69l24 110h68q2 8 4.5 20t5.5 29l10 49l146 56l-34 -154h133l-24 -110h-132l-47 -224q-3 -18 -3 -23q0 -64 68 -64q10 0 22 2t28 6zM1 -262q24 52 43.5 104.5t33.5 107.5l117 10q-53 -133 -125 -234z" />
    <glyph glyph-name="Tcaron" unicode="&#x164;" horiz-adv-x="496" 
d="M389 578l-122 -578h-138l122 578h-164l29 134h466l-29 -134h-164zM535 981l42 -61l-206 -146l-177 146l50 61l137 -89z" />
    <glyph glyph-name="tcaron" unicode="&#x165;" horiz-adv-x="373" 
d="M300 0q-38 -9 -70 -9q-81 0 -120 41t-39 110q0 36 7 63l47 219h-69l24 110h68q2 8 4.5 20t5.5 29l10 49l146 56l-34 -154h133l-24 -110h-132l-47 -224q-3 -18 -3 -23q0 -64 68 -64q10 0 22 2t28 6zM374 572q24 52 43.5 104.5t33.5 107.5l117 10q-53 -133 -125 -234z" />
    <glyph glyph-name="Tbar" unicode="&#x166;" horiz-adv-x="496" 
d="M512 382l-11 -52h-164l-70 -330h-138l70 330h-164l11 52h164l41 196h-164l29 134h466l-29 -134h-164l-41 -196h164z" />
    <glyph glyph-name="tbar" unicode="&#x167;" horiz-adv-x="373" 
d="M219 245l-10 -46q-1 -5 -1 -21q0 -64 67 -64q10 0 22 2t28 6l-25 -121q-38 -9 -70 -9q-81 0 -119.5 41t-38.5 110q0 37 6 63l8 39h-70q2 9 6 23t5 21h69l29 136h-69l24 109h68q2 8 4.5 20t5.5 29l10 49l146 56l-34 -154h133l-24 -109h-132l-29 -136h133q-2 -9 -6 -23
t-5 -21h-131z" />
    <glyph glyph-name="Utilde" unicode="&#x168;" horiz-adv-x="662" 
d="M595 261q-26 -125 -109 -199q-82 -73 -188 -73q-95 0 -162 57q-66 57 -66 154q0 32 7 61l96 451h136l-95 -444q-5 -28 -5 -42q0 -49 26.5 -75t71.5 -26q25 0 49.5 9.5t45 28t35.5 45t22 60.5l95 444h137zM512 814q-26 0 -61 16t-50 16q-25 0 -44 -30l-63 43q50 74 119 74
q27 0 62 -16q36 -16 49 -16q25 0 44 31l64 -43q-50 -75 -120 -75z" />
    <glyph glyph-name="utilde" unicode="&#x169;" horiz-adv-x="608" 
d="M595 534l-65 -310q-22 -105 -97 -171q-73 -64 -178 -64q-93 0 -145.5 45t-52.5 127q0 35 6 61l67 312h133l-63 -296q-7 -31 -7 -39q0 -85 80 -85q42 0 77.5 30t48.5 91l64 299h132zM441 636q-26 0 -61 16t-50 16q-25 0 -44 -30l-63 43q50 74 119 74q27 0 62 -16
q36 -16 49 -16q25 0 44 31l64 -43q-50 -75 -120 -75z" />
    <glyph glyph-name="Umacron" unicode="&#x16a;" horiz-adv-x="662" 
d="M595 261q-26 -125 -109 -199q-82 -73 -188 -73q-95 0 -162 57q-66 57 -66 154q0 32 7 61l96 451h136l-95 -444q-5 -28 -5 -42q0 -49 26.5 -75t71.5 -26q25 0 49.5 9.5t45 28t35.5 45t22 60.5l95 444h137zM330 918h293l-17 -84h-293z" />
    <glyph glyph-name="umacron" unicode="&#x16b;" horiz-adv-x="608" 
d="M595 534l-65 -310q-22 -105 -97 -171q-73 -64 -178 -64q-93 0 -145.5 45t-52.5 127q0 35 6 61l67 312h133l-63 -296q-7 -31 -7 -39q0 -85 80 -85q42 0 77.5 30t48.5 91l64 299h132zM255 740h293l-17 -84h-293z" />
    <glyph glyph-name="Ubreve" unicode="&#x16c;" horiz-adv-x="662" 
d="M595 261q-26 -125 -109 -199q-82 -73 -188 -73q-95 0 -162 57q-66 57 -66 154q0 32 7 61l96 451h136l-95 -444q-5 -28 -5 -42q0 -49 26.5 -75t71.5 -26q25 0 49.5 9.5t45 28t35.5 45t22 60.5l95 444h137zM654 917q-69 -126 -197 -126q-54 0 -99.5 30t-69.5 96l81 36
q18 -48 45 -66q14 -7 25 -9t27 -2q23 0 38 3q16 4 38.5 22t41.5 52z" />
    <glyph glyph-name="ubreve" unicode="&#x16d;" horiz-adv-x="608" 
d="M595 534l-65 -310q-22 -105 -97 -171q-73 -64 -178 -64q-93 0 -145.5 45t-52.5 127q0 35 6 61l67 312h133l-63 -296q-7 -31 -7 -39q0 -85 80 -85q42 0 77.5 30t48.5 91l64 299h132zM574 739q-69 -126 -197 -126q-54 0 -99.5 30t-69.5 96l81 36q18 -48 45 -66q14 -7 25 -9
t27 -2q23 0 38 3q16 4 38.5 22t41.5 52z" />
    <glyph glyph-name="Uring" unicode="&#x16e;" horiz-adv-x="662" 
d="M595 261q-26 -125 -109 -199q-82 -73 -188 -73q-95 0 -162 57q-66 57 -66 154q0 32 7 61l96 451h136l-95 -444q-5 -28 -5 -42q0 -49 26.5 -75t71.5 -26q25 0 49.5 9.5t45 28t35.5 45t22 60.5l95 444h137zM366 874q-1 43 30 73q31 31 74 31q21 0 39.5 -8t32.5 -22.5
t22.5 -33.5t8.5 -40t-8.5 -40t-22.5 -33t-33.5 -22t-40.5 -8t-40 8t-32.5 22t-21.5 33t-8 40zM429 874q-1 -17 11 -29t29 -12t29 12t13 29q-1 17 -13.5 29t-29.5 12t-28.5 -12t-10.5 -29z" />
    <glyph glyph-name="uring" unicode="&#x16f;" horiz-adv-x="608" 
d="M595 534l-65 -310q-22 -105 -97 -171q-73 -64 -178 -64q-93 0 -145.5 45t-52.5 127q0 35 6 61l67 312h133l-63 -296q-7 -31 -7 -39q0 -85 80 -85q42 0 77.5 30t48.5 91l64 299h132zM291 696q-1 43 30 73q31 31 74 31q21 0 39.5 -8t32.5 -22.5t22.5 -33.5t8.5 -40
t-8.5 -40t-22.5 -33t-33.5 -22t-40.5 -8t-40 8t-32.5 22t-21.5 33t-8 40zM354 696q-1 -17 11 -29t29 -12t29 12t13 29q-1 17 -13.5 29t-29.5 12t-28.5 -12t-10.5 -29z" />
    <glyph glyph-name="Uhungarumlaut" unicode="&#x170;" horiz-adv-x="662" 
d="M595 261q-26 -125 -109 -199q-82 -73 -188 -73q-95 0 -162 57q-66 57 -66 154q0 32 7 61l96 451h136l-95 -444q-5 -28 -5 -42q0 -49 26.5 -75t71.5 -26q25 0 49.5 9.5t45 28t35.5 45t22 60.5l95 444h137zM297 827l152 149l58 -67l-164 -135zM465 827l152 149l59 -67
l-165 -135z" />
    <glyph glyph-name="uhungarumlaut" unicode="&#x171;" horiz-adv-x="608" 
d="M595 534l-65 -310q-22 -105 -97 -171q-73 -64 -178 -64q-93 0 -145.5 45t-52.5 127q0 35 6 61l67 312h133l-63 -296q-7 -31 -7 -39q0 -85 80 -85q42 0 77.5 30t48.5 91l64 299h132zM217 649l152 149l58 -67l-164 -135zM385 649l152 149l59 -67l-165 -135z" />
    <glyph glyph-name="Uogonek" unicode="&#x172;" horiz-adv-x="662" 
d="M294 -210q-39 -17 -74 -17q-40 0 -64.5 23.5t-24.5 57.5q0 76 103 143q-72 17 -118 70t-46 133q0 32 7 61l96 451h136l-95 -444q-5 -28 -5 -42q0 -49 26.5 -75t71.5 -26q25 0 49.5 9.5t45 28t35.5 45t22 60.5l95 444h137l-96 -451q-12 -53 -34 -97t-52.5 -78t-68 -57
t-79.5 -33q-50 -18 -97 -54q-45 -38 -45 -68q0 -20 25 -20q31 0 69 23z" />
    <glyph glyph-name="uogonek" unicode="&#x173;" horiz-adv-x="608" 
d="M256 -210q-39 -17 -74 -17q-40 0 -64.5 23.5t-24.5 57.5q0 76 101 141q-66 14 -101.5 56.5t-35.5 109.5q0 35 6 61l67 312h133l-63 -296q-8 -29 -6 -44q0 -80 79 -80q42 0 77.5 30t48.5 91l64 299h132l-65 -310q-18 -85 -68.5 -143t-123.5 -79q-54 -17 -105 -55
q-52 -40 -52 -73q0 -20 25 -20q31 0 69 23z" />
    <glyph glyph-name="Wcircumflex" unicode="&#x174;" horiz-adv-x="878" 
d="M675 367l124 345h147l-258 -712h-130l-61 278q-7 32 -12.5 63.5t-9.5 61.5h-6q-18 -34 -36 -64.5l-35 -59.5l-170 -279h-132l18 712h134l-11 -346q-1 -29 -3.5 -58.5t-6.5 -58.5h6l38 73.5t23 42.5l195 323h61l67 -322q6 -31 10 -60t6 -57h6l15 51zM763 834l-50 -60
l-135 88l-156 -88l-42 60l207 147z" />
    <glyph glyph-name="wcircumflex" unicode="&#x175;" horiz-adv-x="815" 
d="M78 534h136l15 -208q1 -14 1.5 -45t0.5 -79h6q48 100 63 123l122 187h60l50 -187q6 -25 11.5 -55.5t10.5 -67.5h5q2 4 6.5 19l10.5 34t13 38t14 33l95 208h142l-249 -534h-89l-64 198q-10 30 -15.5 55.5t-7.5 46.5h-4q-14 -37 -59 -102l-140 -198h-91zM689 656l-50 -60
l-135 88l-156 -88l-42 60l207 147z" />
    <glyph glyph-name="Ycircumflex" unicode="&#x176;" horiz-adv-x="637" 
d="M562 712h166l-329 -419l-62 -293h-137l62 293l-151 419h145l68 -184l11.5 -37t13.5 -49h6q12 19 27 40.5t34 44.5zM641 834l-50 -60l-135 88l-156 -88l-42 60l207 147z" />
    <glyph glyph-name="ycircumflex" unicode="&#x177;" horiz-adv-x="602" 
d="M68 534h138l52 -204q10 -42 21 -111h8l37 68t24 41l132 206h155l-500 -750h-151l200 296zM573 656l-50 -60l-135 88l-156 -88l-42 60l207 147z" />
    <glyph glyph-name="Ydieresis" unicode="&#x178;" horiz-adv-x="637" 
d="M562 712h166l-329 -419l-62 -293h-137l62 293l-151 419h145l68 -184l11.5 -37t13.5 -49h6q12 19 27 40.5t34 44.5zM549 939q25 0 41.5 -17t16.5 -42q0 -28 -22.5 -49t-50.5 -21q-25 0 -41 16t-16 39q0 30 21 52t51 22zM378 939q25 0 41.5 -17t16.5 -42q0 -28 -22.5 -49
t-50.5 -21q-25 0 -41 16t-16 39q0 30 21 52t51 22z" />
    <glyph glyph-name="Zacute" unicode="&#x179;" horiz-adv-x="578" 
d="M538 134l-26 -134h-539l17 90l354 405q14 17 33.5 36.5l44.5 42.5v8q-42 -3 -90 -3h-218l25 133h509l-17 -90l-358 -408l-73 -74l-2 -9q48 3 86 3h254zM337 762l-39 66l229 159l46 -81z" />
    <glyph glyph-name="zacute" unicode="&#x17a;" horiz-adv-x="517" 
d="M103 534h437l-12 -65l-257 -285q-46 -49 -71 -71l-1 -6h11.5t26.5 1t30.5 1h24.5h166l-21 -109h-459l11 61l267 295q20 22 37 38.5t31 28.5v5q-39 -3 -94 -3h-148zM251 584l-39 66l229 159l46 -81z" />
    <glyph glyph-name="Zdotaccent" unicode="&#x17b;" horiz-adv-x="578" 
d="M538 134l-26 -134h-539l17 90l354 405q14 17 33.5 36.5l44.5 42.5v8q-42 -3 -90 -3h-218l25 133h509l-17 -90l-358 -408l-73 -74l-2 -9q48 3 86 3h254zM492 880q0 -13 -6 -25.5t-15.5 -22.5t-22.5 -16t-28 -6q-25 0 -41.5 16t-16.5 39q0 30 21.5 52t51.5 22q25 0 41 -17
t16 -42z" />
    <glyph glyph-name="zdotaccent" unicode="&#x17c;" horiz-adv-x="517" 
d="M103 534h437l-12 -65l-257 -285q-46 -49 -71 -71l-1 -6h11.5t26.5 1t30.5 1h24.5h166l-21 -109h-459l11 61l267 295q20 22 37 38.5t31 28.5v5q-39 -3 -94 -3h-148zM417 702q0 -13 -6 -25.5t-15.5 -22.5t-22.5 -16t-28 -6q-25 0 -41.5 16t-16.5 39q0 30 21.5 52t51.5 22
q25 0 41 -17t16 -42z" />
    <glyph glyph-name="Zcaron" unicode="&#x17d;" horiz-adv-x="578" 
d="M538 134l-26 -134h-539l17 90l354 405q14 17 33.5 36.5l44.5 42.5v8q-42 -3 -90 -3h-218l25 133h509l-17 -90l-358 -408l-73 -74l-2 -9q48 3 86 3h254zM583 981l42 -61l-206 -146l-177 146l50 61l137 -89z" />
    <glyph glyph-name="zcaron" unicode="&#x17e;" horiz-adv-x="517" 
d="M103 534h437l-12 -65l-257 -285q-46 -49 -71 -71l-1 -6h11.5t26.5 1t30.5 1h24.5h166l-21 -109h-459l11 61l267 295q20 22 37 38.5t31 28.5v5q-39 -3 -94 -3h-148zM502 803l42 -61l-206 -146l-177 146l50 61l137 -89z" />
    <glyph glyph-name="longs" unicode="&#x17f;" horiz-adv-x="277" 
d="M132 534l6 26q21 91 83 153q64 62 160 62q33 0 63 -8q-5 -24 -15 -66l-12 -56q-27 10 -58 10q-33 0 -57 -25t-31 -58l-122 -572h-130l104 491h-59l5.5 22t4.5 21h58z" />
    <glyph glyph-name="florin" unicode="&#x192;" horiz-adv-x="715" 
d="M556 503h98l-18 -120h-100l-53 -275l-12 -58q-2 -10 -5.5 -22.5l-8.5 -29.5q-10 -35 -19 -50q-10 -17 -27.5 -40t-38.5 -34t-51.5 -19t-68.5 -8q-49 0 -69 4l23 128q11 -2 24.5 -3t28.5 -1q19 0 33.5 7t22.5 17q8 8 16 28q7 20 10 33.5t8 40.5l53 282h-73l20 120h75
l13 74q23 129 84 166q30 19 54 25t55 7q22 1 72 -6l-23 -133q-26 13 -49 13q-13 0 -23.5 -6.5t-16.5 -14.5q-2 -4 -5 -9t-6 -13q-6 -14 -7.5 -21.5t-5.5 -23.5z" />
    <glyph glyph-name="AEacute" unicode="&#x1fc;" horiz-adv-x="956" 
d="M967 579h-325v-138h286l-28 -134h-258v-173h230l-28 -134h-343v151h-246l-115 -151h-176l550 712h481zM357 285h144v219h-7q-12 -39 -68 -120zM692 756l-39 66l229 159l46 -81z" />
    <glyph glyph-name="aeacute" unicode="&#x1fd;" horiz-adv-x="899" 
d="M667 546q90 0 143.5 -56.5t53.5 -165.5q0 -60 -7 -85h-352v-14q0 -54 28.5 -86.5t79.5 -32.5q39 0 85 16.5t79 44.5l-26 -141q-81 -37 -153 -37q-118 0 -184 77q-92 -77 -223 -77q-81 0 -120 37t-39 103q0 103 65.5 151.5t203.5 48.5h81l4 23q1 2 1 10q0 28 -26 48
t-62 20q-81 0 -161 -46l24 131q81 31 150 31q110 0 169 -65q85 65 186 65zM365 239h-75q-125 0 -125 -89q0 -48 64 -48q51 0 86.5 29.5t43.5 74.5zM746 329v10q0 45 -26 72.5t-65 27.5q-42 0 -76.5 -29.5t-55.5 -80.5h223zM608 584l-39 66l229 159l46 -81z" />
    <glyph glyph-name="Oslashacute" unicode="&#x1fe;" horiz-adv-x="807" 
d="M486 724q98 0 176 -51l86 102l40 -34l-85 -101q91 -88 91 -224q0 -113 -61 -213q-61 -98 -159 -157q-98 -57 -206 -57q-99 0 -172 48l-83 -99l-39 34l81 97q-92 87 -92 226q0 112 60 213q59 99 157 158q97 58 206 58zM203 308q0 -79 45 -128l323 384q-41 25 -99 25
q-110 0 -189 -85q-80 -86 -80 -196zM386 124q108 0 188 84q80 85 80 195q0 77 -43 127l-322 -383q41 -23 97 -23zM424 756l-39 66l229 159l46 -81z" />
    <glyph glyph-name="oslashacute" unicode="&#x1ff;" horiz-adv-x="617" 
d="M350 546q71 0 135 -38l64 75q7 -6 18.5 -14.5t15.5 -12.5l-65 -76q66 -71 66 -172q0 -128 -94 -223q-93 -96 -220 -96q-75 0 -134 37l-64 -76l-33 30l62 74q-65 71 -65 172q0 128 93 224q94 96 221 96zM285 114q61 0 111 53q50 55 50 130q0 37 -21 73l-201 -239
q26 -17 61 -17zM174 237q0 -32 20 -74l202 240q-29 18 -59 18q-62 0 -113 -54q-50 -55 -50 -130zM282 584l-39 66l229 159l46 -81z" />
    <glyph glyph-name="uni0200" unicode="&#x200;" horiz-adv-x="739" 
d="M504 712l178 -712h-145l-37 151h-287l-93 -151h-156l454 712h86zM469 285l-30 124q-11 39 -15 78h-6l-28.5 -53.5t-14.5 -25.5l-77 -123h171zM517 976l122 -149l-61 -53l-134 135zM349 976l121 -149l-60 -53l-134 135z" />
    <glyph glyph-name="uni0201" unicode="&#x201;" horiz-adv-x="649" 
d="M334 546q24 0 46.5 -6.5t43 -17.5t38 -25t29.5 -29l7 36q4 27 6 30h133l-113 -534h-118l9 66q-86 -77 -161 -77q-103 0 -161 63q-57 64 -57 160q0 130 85 231q85 103 213 103zM280 114q59 0 106 45q48 46 61 107l17 75q-14 28 -46 53q-33 27 -80 27q-68 0 -116 -56
t-48 -137q0 -52 27.5 -83t78.5 -31zM395 798l122 -149l-61 -53l-134 135zM227 798l121 -149l-60 -53l-134 135z" />
    <glyph glyph-name="uni0202" unicode="&#x202;" horiz-adv-x="739" 
d="M504 712l178 -712h-145l-37 151h-287l-93 -151h-156l454 712h86zM469 285l-30 124q-11 39 -15 78h-6l-28.5 -53.5t-14.5 -25.5l-77 -123h171zM693 834l-50 -60l-135 88l-156 -88l-42 60l207 147z" />
    <glyph glyph-name="uni0203" unicode="&#x203;" horiz-adv-x="649" 
d="M334 546q24 0 46.5 -6.5t43 -17.5t38 -25t29.5 -29l7 36q4 27 6 30h133l-113 -534h-118l9 66q-86 -77 -161 -77q-103 0 -161 63q-57 64 -57 160q0 130 85 231q85 103 213 103zM280 114q59 0 106 45q48 46 61 107l17 75q-14 28 -46 53q-33 27 -80 27q-68 0 -116 -56
t-48 -137q0 -52 27.5 -83t78.5 -31zM567 656l-50 -60l-135 88l-156 -88l-42 60l207 147z" />
    <glyph glyph-name="uni0204" unicode="&#x204;" horiz-adv-x="555" 
d="M22 0l151 712h421l-28 -133h-284l-30 -138h276l-28 -134h-276l-37 -173h284l-28 -134h-421zM433 976l122 -149l-61 -53l-134 135zM265 976l121 -149l-60 -53l-134 135z" />
    <glyph glyph-name="uni0205" unicode="&#x205;" horiz-adv-x="568" 
d="M413 329v12q0 20 -7 37.5t-18.5 31t-27.5 21.5t-34 8q-43 0 -77 -29.5t-55 -80.5h219zM417 20q-69 -31 -151 -31q-106 0 -168 59.5t-62 167.5q0 143 86 237q87 93 218 93q87 0 141 -58.5t54 -169.5q0 -15 -1.5 -34.5t-5.5 -44.5h-353v-14q0 -54 29 -86.5t80 -32.5
q18 0 39.5 4t43.5 10.5t42 16t37 21.5zM410 798l122 -149l-61 -53l-134 135zM242 798l121 -149l-60 -53l-134 135z" />
    <glyph glyph-name="uni0206" unicode="&#x206;" horiz-adv-x="555" 
d="M22 0l151 712h421l-28 -133h-284l-30 -138h276l-28 -134h-276l-37 -173h284l-28 -134h-421zM597 834l-50 -60l-135 88l-156 -88l-42 60l207 147z" />
    <glyph glyph-name="uni0207" unicode="&#x207;" horiz-adv-x="568" 
d="M413 329v12q0 20 -7 37.5t-18.5 31t-27.5 21.5t-34 8q-43 0 -77 -29.5t-55 -80.5h219zM417 20q-69 -31 -151 -31q-106 0 -168 59.5t-62 167.5q0 143 86 237q87 93 218 93q87 0 141 -58.5t54 -169.5q0 -15 -1.5 -34.5t-5.5 -44.5h-353v-14q0 -54 29 -86.5t80 -32.5
q18 0 39.5 4t43.5 10.5t42 16t37 21.5zM566 656l-50 -60l-135 88l-156 -88l-42 60l207 147z" />
    <glyph glyph-name="uni0208" unicode="&#x208;" horiz-adv-x="281" 
d="M310 712l-151 -712h-137l151 712h137zM289 976l122 -149l-61 -53l-134 135zM121 976l121 -149l-60 -53l-134 135z" />
    <glyph glyph-name="uni0209" unicode="&#x209;" horiz-adv-x="275" 
d="M262 534l-113 -534h-133l113 534h133zM257 798l122 -149l-61 -53l-134 135zM89 798l121 -149l-60 -53l-134 135z" />
    <glyph glyph-name="uni020A" unicode="&#x20a;" horiz-adv-x="281" 
d="M310 712l-151 -712h-137l151 712h137zM463 834l-50 -60l-135 88l-156 -88l-42 60l207 147z" />
    <glyph glyph-name="uni020B" unicode="&#x20b;" horiz-adv-x="275" 
d="M262 534l-113 -534h-133l113 534h133zM411 656l-50 -60l-135 88l-156 -88l-42 60l207 147z" />
    <glyph glyph-name="uni020C" unicode="&#x20c;" horiz-adv-x="807" 
d="M486 724q136 0 221 -88q87 -87 87 -220q0 -113 -61 -213q-61 -98 -159 -157q-98 -57 -206 -57q-134 0 -219 87q-86 88 -86 219q0 112 60 213q59 99 157 158q97 58 206 58zM386 124q108 0 188 84q80 85 80 195q0 81 -49 133q-50 53 -133 53q-110 0 -189 -85
q-80 -86 -80 -196q0 -80 49 -132t134 -52zM542 976l122 -149l-61 -53l-134 135zM374 976l121 -149l-60 -53l-134 135z" />
    <glyph glyph-name="uni020D" unicode="&#x20d;" horiz-adv-x="617" 
d="M350 546q104 0 169 -68t65 -170q0 -128 -94 -223q-93 -96 -220 -96q-106 0 -170 67t-64 170q0 128 93 224q94 96 221 96zM285 114q61 0 111 53q50 55 50 130q0 55 -31.5 89.5t-77.5 34.5q-62 0 -113 -54q-50 -55 -50 -130q0 -55 31.5 -89t79.5 -34zM416 798l122 -149
l-61 -53l-134 135zM248 798l121 -149l-60 -53l-134 135z" />
    <glyph glyph-name="uni020E" unicode="&#x20e;" horiz-adv-x="807" 
d="M486 724q136 0 221 -88q87 -87 87 -220q0 -113 -61 -213q-61 -98 -159 -157q-98 -57 -206 -57q-134 0 -219 87q-86 88 -86 219q0 112 60 213q59 99 157 158q97 58 206 58zM386 124q108 0 188 84q80 85 80 195q0 81 -49 133q-50 53 -133 53q-110 0 -189 -85
q-80 -86 -80 -196q0 -80 49 -132t134 -52zM721 834l-50 -60l-135 88l-156 -88l-42 60l207 147z" />
    <glyph glyph-name="uni020F" unicode="&#x20f;" horiz-adv-x="617" 
d="M350 546q104 0 169 -68t65 -170q0 -128 -94 -223q-93 -96 -220 -96q-106 0 -170 67t-64 170q0 128 93 224q94 96 221 96zM285 114q61 0 111 53q50 55 50 130q0 55 -31.5 89.5t-77.5 34.5q-62 0 -113 -54q-50 -55 -50 -130q0 -55 31.5 -89t79.5 -34zM583 656l-50 -60
l-135 88l-156 -88l-42 60l207 147z" />
    <glyph glyph-name="uni0210" unicode="&#x210;" horiz-adv-x="614" 
d="M402 0l-130 267h-57l-56 -267h-137l151 712h197q106 0 160.5 -49.5t54.5 -130.5q0 -87 -49 -154q-47 -66 -128 -95q14 -24 33.5 -61l44.5 -88l43 -84l26 -50h-153zM282 579l-38 -179h73q55 0 91.5 29.5t36.5 77.5q0 34 -25.5 53t-70.5 19h-67zM425 976l122 -149l-61 -53
l-134 135zM257 976l121 -149l-60 -53l-134 135z" />
    <glyph glyph-name="uni0211" unicode="&#x211;" horiz-adv-x="386" 
d="M243 462q61 79 159 79q5 0 11.5 -0.5t14.5 -1.5l-28 -131q-5 1 -11.5 1h-15.5q-39 0 -67.5 -9.5t-48 -27t-32 -43t-19.5 -58.5l-58 -271h-133l114 534h120zM324 798l122 -149l-61 -53l-134 135zM156 798l121 -149l-60 -53l-134 135z" />
    <glyph glyph-name="uni0212" unicode="&#x212;" horiz-adv-x="614" 
d="M402 0l-130 267h-57l-56 -267h-137l151 712h197q106 0 160.5 -49.5t54.5 -130.5q0 -87 -49 -154q-47 -66 -128 -95q14 -24 33.5 -61l44.5 -88l43 -84l26 -50h-153zM282 579l-38 -179h73q55 0 91.5 29.5t36.5 77.5q0 34 -25.5 53t-70.5 19h-67zM577 834l-50 -60l-135 88
l-156 -88l-42 60l207 147z" />
    <glyph glyph-name="uni0213" unicode="&#x213;" horiz-adv-x="386" 
d="M243 462q61 79 159 79q5 0 11.5 -0.5t14.5 -1.5l-28 -131q-5 1 -11.5 1h-15.5q-39 0 -67.5 -9.5t-48 -27t-32 -43t-19.5 -58.5l-58 -271h-133l114 534h120zM490 656l-50 -60l-135 88l-156 -88l-42 60l207 147z" />
    <glyph glyph-name="uni0214" unicode="&#x214;" horiz-adv-x="662" 
d="M595 261q-26 -125 -109 -199q-82 -73 -188 -73q-95 0 -162 57q-66 57 -66 154q0 32 7 61l96 451h136l-95 -444q-5 -28 -5 -42q0 -49 26.5 -75t71.5 -26q25 0 49.5 9.5t45 28t35.5 45t22 60.5l95 444h137zM482 976l122 -149l-61 -53l-134 135zM314 976l121 -149l-60 -53
l-134 135z" />
    <glyph glyph-name="uni0215" unicode="&#x215;" horiz-adv-x="608" 
d="M595 534l-65 -310q-22 -105 -97 -171q-73 -64 -178 -64q-93 0 -145.5 45t-52.5 127q0 35 6 61l67 312h133l-63 -296q-7 -31 -7 -39q0 -85 80 -85q42 0 77.5 30t48.5 91l64 299h132zM418 798l122 -149l-61 -53l-134 135zM250 798l121 -149l-60 -53l-134 135z" />
    <glyph glyph-name="uni0216" unicode="&#x216;" horiz-adv-x="662" 
d="M595 261q-26 -125 -109 -199q-82 -73 -188 -73q-95 0 -162 57q-66 57 -66 154q0 32 7 61l96 451h136l-95 -444q-5 -28 -5 -42q0 -49 26.5 -75t71.5 -26q25 0 49.5 9.5t45 28t35.5 45t22 60.5l95 444h137zM651 834l-50 -60l-135 88l-156 -88l-42 60l207 147z" />
    <glyph glyph-name="uni0217" unicode="&#x217;" horiz-adv-x="608" 
d="M595 534l-65 -310q-22 -105 -97 -171q-73 -64 -178 -64q-93 0 -145.5 45t-52.5 127q0 35 6 61l67 312h133l-63 -296q-7 -31 -7 -39q0 -85 80 -85q42 0 77.5 30t48.5 91l64 299h132zM581 656l-50 -60l-135 88l-156 -88l-42 60l207 147z" />
    <glyph glyph-name="Scommaaccent" unicode="&#x218;" horiz-adv-x="548" 
d="M498 240q0 -110 -78 -180q-77 -71 -188 -71q-115 0 -189 74l30 144q82 -85 178 -85q21 0 40.5 5.5t34.5 16.5t23.5 26t8.5 35q0 27 -26 50t-63 43q-27 14 -56 31.5t-53 40.5t-39 52.5t-15 68.5q0 104 71 169q70 64 172 64q116 0 181 -63l-30 -140q-29 27 -78 48
q-47 22 -90 22q-15 0 -30.5 -5t-28 -14t-20 -22.5t-7.5 -29.5q0 -23 26 -44.5t63 -41.5q27 -14 55.5 -31.5t52.5 -41t39.5 -53.5t15.5 -68zM88 -262q24 52 43.5 104.5t33.5 107.5l117 10q-53 -133 -125 -234z" />
    <glyph glyph-name="scommaaccent" unicode="&#x219;" horiz-adv-x="441" 
d="M374 173q0 -81 -60 -133q-59 -51 -140 -51q-78 0 -149 44l29 134q55 -63 126 -63q17 0 31.5 7.5t20.5 20t1.5 28.5t-23.5 33l-26.5 22t-28.5 21t-29.5 24t-26 30.5t-18.5 35.5t-7 39q0 76 59 129q58 52 142 52q60 0 130 -40l-28 -128q-51 53 -111 53q-20 0 -37.5 -13
t-17.5 -33q0 -9 7 -19.5t18.5 -21.5t26 -22t29.5 -21q31 -20 56.5 -54t25.5 -74zM29 -262q24 52 43.5 104.5t33.5 107.5l117 10q-53 -133 -125 -234z" />
    <glyph glyph-name="uni021A" unicode="&#x21a;" horiz-adv-x="496" 
d="M389 578l-122 -578h-138l122 578h-164l29 134h466l-29 -134h-164zM67 -262q24 52 43.5 104.5t33.5 107.5l117 10q-53 -133 -125 -234z" />
    <glyph glyph-name="uni021B" unicode="&#x21b;" horiz-adv-x="373" 
d="M300 0q-38 -9 -70 -9q-81 0 -120 41t-39 110q0 36 7 63l47 219h-69l24 110h68q2 8 4.5 20t5.5 29l10 49l146 56l-34 -154h133l-24 -110h-132l-47 -224q-3 -18 -3 -23q0 -64 68 -64q10 0 22 2t28 6zM13 -262q24 52 43.5 104.5t33.5 107.5l117 10q-53 -133 -125 -234z" />
    <glyph glyph-name="circumflex" unicode="&#x2c6;" horiz-adv-x="426" 
d="M485 601l-50 -60l-135 88l-156 -88l-42 60l207 147z" />
    <glyph glyph-name="caron" unicode="&#x2c7;" horiz-adv-x="426" 
d="M451 748l42 -61l-206 -146l-177 146l50 61l137 -89z" />
    <glyph glyph-name="breve" unicode="&#x2d8;" horiz-adv-x="419" 
d="M480 684q-69 -126 -197 -126q-54 0 -99.5 30t-69.5 96l81 36q18 -48 45 -66q14 -7 25 -9t27 -2q23 0 38 3q16 4 38.5 22t41.5 52z" />
    <glyph glyph-name="dotaccent" unicode="&#x2d9;" horiz-adv-x="409" 
d="M356 647q0 -13 -6 -25.5t-15.5 -22.5t-22.5 -16t-28 -6q-25 0 -41.5 16t-16.5 39q0 30 21.5 52t51.5 22q25 0 41 -17t16 -42z" />
    <glyph glyph-name="ring" unicode="&#x2da;" horiz-adv-x="404" 
d="M185 641q-1 43 30 73q31 31 74 31q21 0 39.5 -8t32.5 -22.5t22.5 -33.5t8.5 -40t-8.5 -40t-22.5 -33t-33.5 -22t-40.5 -8t-40 8t-32.5 22t-21.5 33t-8 40zM248 641q-1 -17 11 -29t29 -12t29 12t13 29q-1 17 -13.5 29t-29.5 12t-28.5 -12t-10.5 -29z" />
    <glyph glyph-name="ogonek" unicode="&#x2db;" horiz-adv-x="410" 
d="M212 -210q-39 -17 -74 -17q-40 0 -64.5 23.5t-24.5 57.5q0 79 111 147h134q-53 -15 -105 -54q-52 -40 -52 -73q0 -20 25 -20q31 0 69 23z" />
    <glyph glyph-name="tilde" unicode="&#x2dc;" horiz-adv-x="418" 
d="M340 581q-26 0 -61 16t-50 16q-25 0 -44 -30l-63 43q50 74 119 74q27 0 62 -16q36 -16 49 -16q25 0 44 31l64 -43q-50 -75 -120 -75z" />
    <glyph glyph-name="hungarumlaut" unicode="&#x2dd;" horiz-adv-x="422" 
d="M106 594l152 149l58 -67l-164 -135zM274 594l152 149l59 -67l-165 -135z" />
    <glyph glyph-name="doublegrave" unicode="&#x30f;" horiz-adv-x="422" 
d="M355 743l122 -149l-61 -53l-134 135zM187 743l121 -149l-60 -53l-134 135z" />
    <glyph glyph-name="uni037E" unicode="&#x37e;" horiz-adv-x="301" 
d="M197 502q33 0 53.5 -23.5t17.5 -56.5q-4 -34 -29.5 -56t-58.5 -22q-32 0 -52.5 22.5t-16.5 55.5q1 16 9 31t19.5 25.5t26.5 17t31 6.5zM-67 -175q34 75 59.5 146.5t44.5 141.5l147 12q-38 -94 -80.5 -172t-88.5 -142z" />
    <glyph glyph-name="tonos" unicode="&#x384;" horiz-adv-x="301" 
d="M256 762l83 -40l-120 -190l-66 34z" />
    <glyph glyph-name="dieresistonos" unicode="&#x385;" horiz-adv-x="346" 
d="M184 647q0 -13 -6 -25.5t-15.5 -22.5t-22.5 -16t-28 -6q-25 0 -41.5 16.5t-16.5 40.5q0 29 21.5 50.5t50.5 21.5q25 0 41.5 -17t16.5 -42zM405 706q25 0 41.5 -17t16.5 -42q0 -28 -22 -49t-50 -21q-25 0 -41.5 16.5t-16.5 40.5q0 29 21.5 50.5t50.5 21.5zM269 742l70 -35
l-98 -155l-58 30z" />
    <glyph glyph-name="Alphatonos" unicode="&#x386;" horiz-adv-x="739" 
d="M504 712l178 -712h-145l-37 151h-287l-93 -151h-156l454 712h86zM469 285l-30 124q-11 39 -15 78h-6l-28.5 -53.5t-14.5 -25.5l-77 -123h171zM140 762l83 -40l-120 -190l-66 34z" />
    <glyph glyph-name="anoteleia" unicode="&#x387;" horiz-adv-x="425" 
d="M221 321q31 0 51 -21t20 -52q0 -35 -27 -60q-26 -25 -61 -25q-30 0 -50.5 19.5t-20.5 48.5q0 18 7 34.5t19 28.5t28 19.5t34 7.5z" />
    <glyph glyph-name="Epsilontonos" unicode="&#x388;" horiz-adv-x="629" 
d="M96 0l151 712h421l-28 -133h-284l-30 -138h276l-28 -134h-276l-37 -173h284l-28 -134h-421zM103 762l83 -40l-120 -190l-66 34z" />
    <glyph glyph-name="Etatonos" unicode="&#x389;" horiz-adv-x="746" 
d="M579 441l58 271h138l-151 -712h-138l65 306h-253l-65 -306h-137l151 712h137l-58 -271h253zM103 762l83 -40l-120 -190l-66 34z" />
    <glyph glyph-name="Iotatonos" unicode="&#x38a;" horiz-adv-x="355" 
d="M384 712l-151 -712h-137l151 712h137zM103 762l83 -40l-120 -190l-66 34z" />
    <glyph glyph-name="Omicrontonos" unicode="&#x38c;" horiz-adv-x="881" 
d="M560 724q136 0 221 -88q87 -87 87 -220q0 -113 -61 -213q-61 -98 -159 -157q-98 -57 -206 -57q-134 0 -219 87q-86 88 -86 219q0 112 60 213q59 99 157 158q97 58 206 58zM460 124q108 0 188 84q80 85 80 195q0 81 -49 133q-50 53 -133 53q-110 0 -189 -85
q-80 -86 -80 -196q0 -80 49 -132t134 -52zM103 762l83 -40l-120 -190l-66 34z" />
    <glyph glyph-name="Upsilontonos" unicode="&#x38e;" horiz-adv-x="734" 
d="M659 712h166l-329 -419l-62 -293h-137l62 293l-151 419h145l68 -184l11.5 -37t13.5 -49h6q12 19 27 40.5t34 44.5zM103 762l83 -40l-120 -190l-66 34z" />
    <glyph glyph-name="Omegatonos" unicode="&#x38f;" horiz-adv-x="870" 
d="M697 130l34 3.5t27 1.5h57l-28 -135h-304l31 146q86 35 142 110q57 76 57 163q0 76 -46.5 123t-128.5 47q-101 0 -178 -74q-75 -74 -75 -178q0 -30 9 -59t25.5 -54t39 -45t49.5 -33l-31 -146h-288l28 135h57q14 0 29 -1.5t32 -3.5l1 7q-89 77 -89 196q0 163 120 277
t283 114q137 0 219 -82q83 -83 83 -213q0 -186 -154 -292zM103 762l83 -40l-120 -190l-66 34z" />
    <glyph glyph-name="iotadieresistonos" unicode="&#x390;" horiz-adv-x="355" 
d="M184 702q0 -13 -6 -25.5t-15.5 -22.5t-22.5 -16t-28 -6q-25 0 -41.5 16.5t-16.5 40.5q0 29 21.5 50.5t50.5 21.5q25 0 41.5 -17t16.5 -42zM405 761q25 0 41.5 -17t16.5 -42q0 -28 -22 -49t-50 -21q-25 0 -41.5 16.5t-16.5 40.5q0 29 21.5 50.5t50.5 21.5zM269 797l70 -35
l-98 -155l-58 30zM251 -4q-76 1 -122 49q-45 49 -45 123q0 8 1.5 17.5t3.5 20.5l68 328h133l-68 -322q-3 -14 -3 -25q0 -29 15.5 -49t43.5 -21z" />
    <glyph glyph-name="Alpha" unicode="&#x391;" horiz-adv-x="739" 
d="M504 712l178 -712h-145l-37 151h-287l-93 -151h-156l454 712h86zM469 285l-30 124q-11 39 -15 78h-6l-28.5 -53.5t-14.5 -25.5l-77 -123h171z" />
    <glyph glyph-name="Beta" unicode="&#x392;" horiz-adv-x="587" 
d="M281 579l-33 -152h80q45 0 74.5 22.5t29.5 67.5q0 29 -21 45.5t-57 16.5h-73zM220 294l-34 -160h101q51 0 85 24.5t34 72.5q0 31 -24.5 47t-69.5 16h-92zM572 539q0 -105 -94 -169q68 -42 68 -128q0 -111 -83 -177q-83 -65 -188 -65h-253l151 712h191q51 0 90 -13
t65.5 -36t39.5 -55t13 -69z" />
    <glyph glyph-name="Gamma" unicode="&#x393;" horiz-adv-x="453" 
d="M281 578l-122 -578h-137l151 712h366l-29 -134h-229z" />
    <glyph glyph-name="Delta" unicode="&#x394;" horiz-adv-x="692" 
d="M199 136h265l-53 238q-3 11 -5 27.5l-4 33t-3.5 30.5t-2.5 19h-7l-26 -57.5t-27 -53.5zM2 0l15 89l365 623h92l144 -622l-16 -90h-600z" />
    <glyph glyph-name="Epsilon" unicode="&#x395;" horiz-adv-x="555" 
d="M22 0l151 712h421l-28 -133h-284l-30 -138h276l-28 -134h-276l-37 -173h284l-28 -134h-421z" />
    <glyph glyph-name="Zeta" unicode="&#x396;" horiz-adv-x="578" 
d="M538 134l-26 -134h-539l17 90l354 405q14 17 33.5 36.5l44.5 42.5v8q-42 -3 -90 -3h-218l25 133h509l-17 -90l-358 -408l-73 -74l-2 -9q48 3 86 3h254z" />
    <glyph glyph-name="Eta" unicode="&#x397;" horiz-adv-x="672" 
d="M505 441l58 271h138l-151 -712h-138l65 306h-253l-65 -306h-137l151 712h137l-58 -271h253z" />
    <glyph glyph-name="Theta" unicode="&#x398;" horiz-adv-x="807" 
d="M328 418h221l-27 -123h-221zM482 724q136 0 221 -88q87 -87 87 -220q0 -113 -61 -213q-61 -98 -159 -157q-98 -57 -206 -57q-134 0 -219 87q-86 88 -86 219q0 112 60 213q59 99 157 158q97 58 206 58zM382 124q108 0 188 84q80 85 80 195q0 81 -49 133q-50 53 -133 53
q-110 0 -189 -85q-80 -86 -80 -196q0 -80 49 -132t134 -52z" />
    <glyph glyph-name="Iota" unicode="&#x399;" horiz-adv-x="281" 
d="M310 712l-151 -712h-137l151 712h137z" />
    <glyph glyph-name="Kappa" unicode="&#x39a;" horiz-adv-x="640" 
d="M173 712h136l-44 -210q-8 -34 -18 -68h6l37.5 43t22.5 24l228 211h190l-376 -337l221 -375h-163l-160 282l-43 -37l-52 -245h-136z" />
    <glyph glyph-name="Lambda" unicode="&#x39b;" horiz-adv-x="693" 
d="M122 0h-158l428 712h92l153 -712h-142l-76 373q0 1 -3.5 27l-10.5 80h-7q-20 -51 -54 -106z" />
    <glyph glyph-name="Mu" unicode="&#x39c;" horiz-adv-x="835" 
d="M576 0l76 360q6 33 33 134h-6l-48.5 -48.5t-42.5 -37.5l-162 -133l-105 133q-34 41 -54 86h-7q-4 -38 -24 -134l-76 -360h-137l151 712h91l192 -243l294 243h113l-151 -712h-137z" />
    <glyph glyph-name="Nu" unicode="&#x39d;" horiz-adv-x="708" 
d="M599 712h138l-151 -712h-89l-196 364q-11 19 -22 42t-22 51h-5q-6 -38 -10 -61t-6 -33l-77 -363h-137l151 712h103l185 -348q17 -32 28 -55t16 -38h6q3 28 6.5 51t7.5 42z" />
    <glyph glyph-name="Xi" unicode="&#x39e;" horiz-adv-x="518" 
d="M145 579l28 133h421l-28 -133h-421zM22 0l28 134h421l-28 -134h-421zM95 307l28 134h405l-28 -134h-405z" />
    <glyph glyph-name="Omicron" unicode="&#x39f;" horiz-adv-x="807" 
d="M486 724q136 0 221 -88q87 -87 87 -220q0 -113 -61 -213q-61 -98 -159 -157q-98 -57 -206 -57q-134 0 -219 87q-86 88 -86 219q0 112 60 213q59 99 157 158q97 58 206 58zM386 124q108 0 188 84q80 85 80 195q0 81 -49 133q-50 53 -133 53q-110 0 -189 -85
q-80 -86 -80 -196q0 -80 49 -132t134 -52z" />
    <glyph glyph-name="Pi" unicode="&#x3a0;" horiz-adv-x="674" 
d="M173 712h530l-151 -712h-138l122 578h-254l-122 -578h-138z" />
    <glyph glyph-name="Rho" unicode="&#x3a1;" 
d="M281 579l-45 -209h73q62 0 105 35q43 36 43 91q0 38 -29 60.5t-80 22.5h-67zM173 712h194q55 0 98 -14t72.5 -39.5t44.5 -61.5t15 -79q0 -74 -27.5 -127t-71.5 -87.5t-101 -51t-115 -16.5h-74l-50 -236h-136z" />
    <glyph glyph-name="Sigma" unicode="&#x3a3;" horiz-adv-x="596" 
d="M635 712l-28 -133h-283l121 -223l-216 -223h283l-28 -133h-472l25 118l242 251l-135 251l19 92h472z" />
    <glyph glyph-name="Tau" unicode="&#x3a4;" horiz-adv-x="496" 
d="M389 578l-122 -578h-138l122 578h-164l29 134h466l-29 -134h-164z" />
    <glyph glyph-name="Upsilon" unicode="&#x3a5;" horiz-adv-x="637" 
d="M562 712h166l-329 -419l-62 -293h-137l62 293l-151 419h145l68 -184l11.5 -37t13.5 -49h6q12 19 27 40.5t34 44.5z" />
    <glyph glyph-name="Phi" unicode="&#x3a6;" horiz-adv-x="819" 
d="M278 -30l18 83q-5 0 -24.5 3.5t-45.5 13t-54.5 27t-52.5 44.5t-40 66t-16 92q0 79 25 136t63.5 97t84 65t85.5 38.5t69 18.5t35 5l17 82h138l-17 -82q10 0 32 -5t58 -22q18 -8 34.5 -18t31.5 -23q30 -25 52.5 -72.5t22.5 -107.5q0 -78 -25.5 -135t-63.5 -97t-83.5 -64.5
t-85.5 -38t-68.5 -18.5t-33.5 -5l-18 -83h-138zM462 188q6 0 22.5 3.5t38 12.5t45 24t43 38.5t32 55.5t12.5 76q0 39 -15.5 63.5t-36 38.5t-40.5 19t-29 5zM396 524q-8 0 -39 -8t-65.5 -31t-61.5 -64t-27 -106q0 -39 15.5 -63.5t36 -38.5t40.5 -19.5t29 -5.5z" />
    <glyph glyph-name="Chi" unicode="&#x3a7;" horiz-adv-x="660" 
d="M135 0h-178l320 380l-150 332h150l55 -128l22.5 -52t14.5 -40h9l11.5 16l18.5 26l20 28l16 22l105 128h178l-296 -350l169 -362h-157l-69 160l-22 51l-14 38h-8q-2 -3 -9.5 -13.5l-17 -24l-20 -27.5l-18.5 -24z" />
    <glyph glyph-name="Psi" unicode="&#x3a8;" horiz-adv-x="771" 
d="M681 712h137l-52 -244q-27 -126 -115 -198q-88 -73 -207 -74l-41 -196h-136l41 196q-102 1 -157.5 52t-55.5 145q0 37 8 75l52 244h137l-51 -237q-5 -23 -5 -45q0 -49 26 -74t74 -27l82 383h136l-82 -383q126 1 158 146z" />
    <glyph glyph-name="Omega" unicode="&#x3a9;" horiz-adv-x="782" 
d="M610 130l34.5 3.5t26.5 1.5h57l-28 -135h-304l31 146q86 35 142 110q57 76 57 163q0 76 -46.5 123t-128.5 47q-101 0 -178 -74q-75 -74 -75 -178q0 -30 9 -59t25.5 -54t39 -45t49.5 -33l-31 -146h-288l28 135h57q14 0 29.5 -1.5t31.5 -3.5l1 7q-89 77 -89 196
q0 163 120 277t283 114q137 0 219 -82q83 -83 83 -213q0 -186 -154 -292z" />
    <glyph glyph-name="Iotadieresis" unicode="&#x3aa;" horiz-adv-x="281" 
d="M366 939q25 0 41.5 -17t16.5 -42q0 -28 -22.5 -49t-50.5 -21q-25 0 -41 16t-16 39q0 30 21 52t51 22zM195 939q25 0 41.5 -17t16.5 -42q0 -28 -22.5 -49t-50.5 -21q-25 0 -41 16t-16 39q0 30 21 52t51 22zM310 712l-151 -712h-137l151 712h137z" />
    <glyph glyph-name="Upsilondieresis" unicode="&#x3ab;" horiz-adv-x="637" 
d="M562 712h166l-329 -419l-62 -293h-137l62 293l-151 419h145l68 -184l11.5 -37t13.5 -49h6q12 19 27 40.5t34 44.5zM536 939q25 0 41.5 -17t16.5 -42q0 -28 -22.5 -49t-50.5 -21q-25 0 -41 16t-16 39q0 30 21 52t51 22zM365 939q25 0 41.5 -17t16.5 -42q0 -28 -22.5 -49
t-50.5 -21q-25 0 -41 16t-16 39q0 30 21 52t51 22z" />
    <glyph glyph-name="alphatonos" unicode="&#x3ac;" horiz-adv-x="639" 
d="M520 535h119l-113 -535h-121l6 59q-82 -70 -153 -70q-103 0 -162 65q-57 66 -57 163q0 82 35 157q36 76 106 123q70 49 157 49q21 0 43.5 -4.5t44 -13.5t40 -23.5t32.5 -34.5zM284 114q68 0 118 56t50 127q0 54 -31 89t-85 35q-67 0 -114 -56q-46 -55 -46 -134
q0 -54 28 -85.5t80 -31.5zM394 817l83 -40l-120 -190l-66 34z" />
    <glyph glyph-name="epsilontonos" unicode="&#x3ad;" horiz-adv-x="484" 
d="M386 326l-20 -94h-80q-57 0 -92 -19.5t-35 -56.5q0 -51 82 -51q113 0 183 22l-24 -115q-101 -23 -177 -23q-86 0 -144 41q-56 41 -56 107q0 42 23 84t68 69q-31 34 -31 74q0 79 73 130q73 52 166 52q91 0 178 -24l-25 -116q-63 23 -171 23q-35 0 -61 -17t-26 -42
q0 -44 80 -44h89zM378 817l83 -40l-120 -190l-66 34z" />
    <glyph glyph-name="etatonos" unicode="&#x3ae;" horiz-adv-x="597" 
d="M129 534h124l-6 -61l24.5 22.5t18.5 15.5q16 13 43 24t58 11q164 0 164 -153q0 -23 -2 -43.5t-6 -40.5l-111 -525h-132l108 512q6 28 6 45q0 80 -76 80q-12 0 -25.5 -4t-27 -10.5t-25.5 -14t-21 -14.5l-17 -14l-78 -364h-132zM406 817l83 -40l-120 -190l-66 34z" />
    <glyph glyph-name="iotatonos" unicode="&#x3af;" horiz-adv-x="301" 
d="M224 -4q-76 1 -122 49q-45 49 -45 123q0 8 1.5 17.5t3.5 20.5l68 328h133l-68 -322q-3 -14 -3 -25q0 -29 15.5 -49t43.5 -21zM244 817l83 -40l-120 -190l-66 34z" />
    <glyph glyph-name="upsilondieresistonos" unicode="&#x3b0;" horiz-adv-x="605" 
d="M553 534q24 -63 24 -147q0 -90 -29 -166t-77 -127q-46 -49 -103 -77t-114 -28q-93 0 -146 45.5t-53 127.5q0 34 7 63l66 309h133l-64 -296q-2 -10 -3 -20t-1 -21q0 -83 83 -83q60 0 111 76t51 181q0 102 -40 163h155zM317 702q0 -13 -6 -25.5t-15.5 -22.5t-22.5 -16
t-28 -6q-25 0 -41.5 16.5t-16.5 40.5q0 29 21.5 50.5t50.5 21.5q25 0 41.5 -17t16.5 -42zM538 761q25 0 41.5 -17t16.5 -42q0 -28 -22 -49t-50 -21q-25 0 -41.5 16.5t-16.5 40.5q0 29 21.5 50.5t50.5 21.5zM402 797l70 -35l-98 -155l-58 30z" />
    <glyph glyph-name="alpha" unicode="&#x3b1;" horiz-adv-x="641" 
d="M520 535h119l-113 -535h-121l6 59q-82 -70 -153 -70q-103 0 -162 65q-57 66 -57 163q0 82 35 157q36 76 106 123q70 49 157 49q21 0 43.5 -4.5t44 -13.5t40 -23.5t32.5 -34.5zM284 114q68 0 118 56t50 127q0 54 -31 89t-85 35q-67 0 -114 -56q-46 -55 -46 -134
q0 -54 28 -85.5t80 -31.5z" />
    <glyph glyph-name="beta" unicode="&#x3b2;" horiz-adv-x="601" 
d="M285 115q51 0 92 35t41 104q0 45 -34 69.5t-91 24.5h-18l27 124h17q63 0 91.5 31.5t28.5 76.5q0 29 -19 49t-54 20q-34 0 -66 -31q-33 -32 -42 -73l-82 -388q16 -17 47.5 -29.5t61.5 -12.5zM476 412q79 -46 79 -145q0 -123 -78 -201q-77 -77 -205 -77q-16 0 -34 3t-35 8
t-31.5 11.5t-23.5 13.5l-51 -241h-133l161 760q21 100 93 165q72 66 167 66q84 0 139 -50q54 -50 54 -122q0 -57 -28.5 -107.5t-73.5 -83.5z" />
    <glyph glyph-name="gamma" unicode="&#x3b3;" horiz-adv-x="597" 
d="M69 534h140l44 -198q11 -57 21 -133h7q35 78 69 133l120 198h158l-304 -478l-58 -272h-132l56 265z" />
    <glyph glyph-name="delta" unicode="&#x3b4;" horiz-adv-x="609" 
d="M284 114q65 0 113 56q48 55 48 137q0 46 -14 100q-34 14 -93 14q-62 0 -113 -56q-50 -56 -50 -133q0 -52 29 -85t80 -33zM437 650q65 -59 106 -147q40 -84 40 -175q0 -135 -92 -238q-92 -101 -223 -101q-104 0 -167 66q-62 67 -62 166q0 136 94 230q95 95 216 95h31
q-44 81 -97 131l19 87h346l-24 -111h-98q-6 0 -28 1t-60 3z" />
    <glyph glyph-name="epsilon" unicode="&#x3b5;" horiz-adv-x="484" 
d="M386 326l-20 -94h-80q-57 0 -92 -19.5t-35 -56.5q0 -51 82 -51q113 0 183 22l-24 -115q-101 -23 -177 -23q-86 0 -144 41q-56 41 -56 107q0 42 23 84t68 69q-31 34 -31 74q0 79 73 130q73 52 166 52q91 0 178 -24l-25 -116q-63 23 -171 23q-35 0 -61 -17t-26 -42
q0 -44 80 -44h89z" />
    <glyph glyph-name="zeta" unicode="&#x3b6;" horiz-adv-x="472" 
d="M187 253q-3 -15 -3 -28q0 -105 200 -105h45q-48 -94 -98 -172t-104 -142l-81 14l46 87.5t46 96.5q-42 9 -78 26t-61.5 42.5t-40 59t-14.5 75.5q0 113 91 235q91 124 222 208l1 7q-38 -2 -60.5 -3t-29.5 -1h-98l24 111h346l-19 -87q-51 -35 -102.5 -84t-105.5 -115
q-107 -129 -126 -225z" />
    <glyph glyph-name="eta" unicode="&#x3b7;" horiz-adv-x="607" 
d="M129 534h124l-6 -61l24.5 22.5t18.5 15.5q16 13 43 24t58 11q164 0 164 -153q0 -23 -2 -43.5t-6 -40.5l-111 -525h-132l108 512q6 28 6 45q0 80 -76 80q-12 0 -25.5 -4t-27 -10.5t-25.5 -14t-21 -14.5l-17 -14l-78 -364h-132z" />
    <glyph glyph-name="theta" unicode="&#x3b8;" horiz-adv-x="659" 
d="M409 649q-30 0 -59 -15t-54.5 -42.5t-46 -66.5t-34.5 -87h311q1 13 1.5 22.5t0.5 14.5q0 81 -31 127.5t-88 46.5zM309 115q63 0 115.5 57t80.5 154h-311q-1 -7 -1.5 -17t-0.5 -24q0 -79 31.5 -124.5t85.5 -45.5zM421 775q104 0 169 -78q64 -77 64 -216q0 -112 -31.5 -207
t-83.5 -156q-51 -61 -114 -95t-129 -34q-103 0 -168 77q-64 76 -64 214q0 112 31.5 206.5t82.5 157.5t114 97t129 34z" />
    <glyph glyph-name="iota" unicode="&#x3b9;" horiz-adv-x="301" 
d="M224 -4q-76 1 -122 49q-45 49 -45 123q0 8 1.5 17.5t3.5 20.5l68 328h133l-68 -322q-3 -14 -3 -25q0 -29 15.5 -49t43.5 -21z" />
    <glyph glyph-name="kappa" unicode="&#x3ba;" horiz-adv-x="561" 
d="M427 534h170l-281 -255l175 -279h-153l-115 197l-40 -35l-36 -162h-132l114 534h132l-20 -96l-23 -95h8l44 45.5t25 24.5z" />
    <glyph glyph-name="lambda" unicode="&#x3bb;" horiz-adv-x="594" 
d="M393 0l-49 204q-5 23 -10 49.5t-9 57.5h-9q-10 -20 -25 -46.5t-36 -58.5l-137 -206h-152l312 469l-81 295h135l200 -764h-139z" />
    <glyph glyph-name="uni03BC" unicode="&#x3bc;" horiz-adv-x="605" 
d="M-24 -216l158 750h132l-64 -303q-2 -14 -3.5 -23.5t-1.5 -16.5q0 -42 22.5 -61t57.5 -19q24 0 52.5 14t44.5 28l17 14l78 367h131l-113 -534h-122l2 50q-86 -62 -135 -62q-46 0 -77 22l-48 -226h-131z" />
    <glyph glyph-name="nu" unicode="&#x3bd;" horiz-adv-x="589" 
d="M69 534h140l44 -198q11 -57 21 -133h7q35 78 69 133l120 198h158l-340 -534h-85z" />
    <glyph glyph-name="xi" unicode="&#x3be;" horiz-adv-x="500" 
d="M174 -179l45 85.5l48 99.5q-97 20 -159 74q-62 56 -62 148q0 66 31 125.5t96 94.5q-42 40 -42 96q0 98 83 164q83 67 189 67q62 0 142 -30l-29 -137q-50 25 -72 33q-24 8 -63 8q-43 0 -77 -25q-35 -26 -35 -67q0 -28 29.5 -44.5t78.5 -16.5h76l-25 -117h-68
q-38 0 -70 -8.5t-55 -24.5t-36.5 -40t-13.5 -54q0 -37 21.5 -62t54.5 -40.5t73 -22t78 -6.5h45q-48 -94 -98 -172t-104 -142z" />
    <glyph glyph-name="omicron" unicode="&#x3bf;" horiz-adv-x="608" 
d="M350 546q104 0 169 -68t65 -170q0 -128 -94 -223q-93 -96 -220 -96q-106 0 -170 67t-64 170q0 128 93 224q94 96 221 96zM285 114q61 0 111 53q50 55 50 130q0 55 -31.5 89.5t-77.5 34.5q-62 0 -113 -54q-50 -55 -50 -130q0 -55 31.5 -89t79.5 -34z" />
    <glyph glyph-name="pi" unicode="&#x3c0;" horiz-adv-x="621" 
d="M539 -4q-74 1 -121 48q-46 47 -46 119q0 8 1.5 18l3.5 24l46 220h-142l-89 -425h-132l89 425h-65l24 109h536l-24 -109h-65l-45 -211q-3 -14 -3 -27q0 -29 15.5 -49t43.5 -21z" />
    <glyph glyph-name="rho" unicode="&#x3c1;" horiz-adv-x="634" 
d="M315 114q62 0 109 53q48 54 48 130q0 57 -30.5 90.5t-78.5 33.5q-52 0 -99 -44q-45 -44 -59 -110l-17 -80q46 -73 127 -73zM376 546q104 0 169 -68t65 -168q0 -128 -90 -225q-89 -96 -214 -96q-18 0 -38.5 3.5t-40.5 10.5t-38.5 16t-33.5 20l-53 -255h-132l102 479
q28 132 105.5 207.5t198.5 75.5z" />
    <glyph glyph-name="uni03C2" unicode="&#x3c2;" horiz-adv-x="494" 
d="M163 -179l46 88t45 93q-48 10 -88 29.5t-69 47.5t-45 65t-16 82q0 145 99 232q100 88 231 88q66 0 128 -35l-31 -139q-51 51 -113 51t-118 -50q-55 -49 -55 -130q0 -124 230 -124h39q-94 -182 -202 -312z" />
    <glyph glyph-name="sigma" unicode="&#x3c3;" horiz-adv-x="624" 
d="M669 534l-25 -109h-14q-7 0 -25 1t-48 3v-11q29 -41 29 -116q0 -127 -93 -220t-221 -93q-107 0 -171 64t-64 167q0 127 93 220q93 94 221 94h318zM286 114q62 0 112 51q51 51 51 125q0 54 -32 86.5t-78 32.5q-63 0 -114 -52q-50 -52 -50 -126q0 -57 31.5 -87t79.5 -30z
" />
    <glyph glyph-name="tau" unicode="&#x3c4;" horiz-adv-x="431" 
d="M305 -4q-76 2 -122 48q-46 47 -46 119q0 11 1 22t3 21l48 219h-115l25 109h373l-25 -109h-127l-44 -213q-4 -15 -4 -25q0 -30 16 -49.5t44 -20.5z" />
    <glyph glyph-name="upsilon" unicode="&#x3c5;" horiz-adv-x="605" 
d="M553 534q24 -63 24 -147q0 -90 -29 -166t-77 -127q-46 -49 -103 -77t-114 -28q-93 0 -146 45.5t-53 127.5q0 34 7 63l66 309h133l-64 -296q-2 -10 -3 -20t-1 -21q0 -83 83 -83q60 0 111 76t51 181q0 102 -40 163h155z" />
    <glyph glyph-name="phi" unicode="&#x3c6;" horiz-adv-x="762" 
d="M422 115q82 0 134 61q53 62 53 148q0 51 -22 75t-50 24q-23 0 -41 -17t-23 -44zM550 546q80 0 138 -55q59 -56 59 -152q0 -142 -102 -245q-100 -103 -250 -103l-44 -207h-130l44 207q-99 0 -165 67t-66 161q0 127 88 215q89 89 205 107l-28 -125q-27 -9 -50 -26t-40 -41
t-27 -53.5t-10 -62.5q0 -52 32.5 -85t86.5 -33l51 244q16 82 75 135q58 52 133 52z" />
    <glyph glyph-name="chi" unicode="&#x3c7;" horiz-adv-x="601" 
d="M92 534h149l41 -85q7 -15 15.5 -38t17.5 -43h6q42 60 59 79l78 87h171l-253 -267l150 -267h-150l-50 102l-10 24.5l-21 53.5h-7q-7 -12 -27 -38q-21 -27 -32 -38l-91 -104h-171l265 282z" />
    <glyph glyph-name="psi" unicode="&#x3c8;" horiz-adv-x="809" 
d="M647 373q0 95 -42 161h156q26 -70 26 -144q0 -88 -34 -164.5t-89 -127.5q-54 -51 -119 -79t-129 -28l-43 -207h-131l44 207q-94 0 -161 51q-68 51 -68 136q0 24 5 49l66 307h131l-62 -293q-3 -15 -3 -28q0 -24 10 -42.5t26.5 -30.5t37.5 -18.5t44 -6.5l127 597h130
l-127 -597q70 0 138 78q67 77 67 180z" />
    <glyph glyph-name="omega" unicode="&#x3c9;" horiz-adv-x="898" 
d="M738 371q0 98 -41 163h155q25 -66 25 -145q0 -175 -101 -288q-100 -112 -221 -112q-94 0 -134 58q-64 -58 -160 -58q-86 0 -147 64q-60 64 -60 169q0 164 124 312h152q-28 -28 -52.5 -61.5t-44.5 -74.5q-40 -79 -40 -158q0 -58 23.5 -92.5t63.5 -34.5q42 0 66 28.5
t39 94.5l40 179h129l-38 -177q-6 -29 -6 -58q0 -36 15 -51.5t49 -15.5q61 0 112 77q52 76 52 181z" />
    <glyph glyph-name="iotadieresis" unicode="&#x3ca;" horiz-adv-x="301" 
d="M224 -4q-76 1 -122 49q-45 49 -45 123q0 8 1.5 17.5t3.5 20.5l68 328h133l-68 -322q-3 -14 -3 -25q0 -29 15.5 -49t43.5 -21zM322 761q25 0 41.5 -17t16.5 -42q0 -28 -22.5 -49t-50.5 -21q-25 0 -41 16t-16 39q0 30 21 52t51 22zM151 761q25 0 41.5 -17t16.5 -42
q0 -28 -22.5 -49t-50.5 -21q-25 0 -41 16t-16 39q0 30 21 52t51 22z" />
    <glyph glyph-name="upsilondieresis" unicode="&#x3cb;" horiz-adv-x="605" 
d="M553 534q24 -63 24 -147q0 -90 -29 -166t-77 -127q-46 -49 -103 -77t-114 -28q-93 0 -146 45.5t-53 127.5q0 34 7 63l66 309h133l-64 -296q-2 -10 -3 -20t-1 -21q0 -83 83 -83q60 0 111 76t51 181q0 102 -40 163h155zM478 761q25 0 41.5 -17t16.5 -42q0 -28 -22.5 -49
t-50.5 -21q-25 0 -41 16t-16 39q0 30 21 52t51 22zM307 761q25 0 41.5 -17t16.5 -42q0 -28 -22.5 -49t-50.5 -21q-25 0 -41 16t-16 39q0 30 21 52t51 22z" />
    <glyph glyph-name="omicrontonos" unicode="&#x3cc;" horiz-adv-x="608" 
d="M350 546q104 0 169 -68t65 -170q0 -128 -94 -223q-93 -96 -220 -96q-106 0 -170 67t-64 170q0 128 93 224q94 96 221 96zM285 114q61 0 111 53q50 55 50 130q0 55 -31.5 89.5t-77.5 34.5q-62 0 -113 -54q-50 -55 -50 -130q0 -55 31.5 -89t79.5 -34zM403 817l83 -40
l-120 -190l-66 34z" />
    <glyph glyph-name="upsilontonos" unicode="&#x3cd;" horiz-adv-x="605" 
d="M553 534q24 -63 24 -147q0 -90 -29 -166t-77 -127q-46 -49 -103 -77t-114 -28q-93 0 -146 45.5t-53 127.5q0 34 7 63l66 309h133l-64 -296q-2 -10 -3 -20t-1 -21q0 -83 83 -83q60 0 111 76t51 181q0 102 -40 163h155zM391 817l83 -40l-120 -190l-66 34z" />
    <glyph glyph-name="omegatonos" unicode="&#x3ce;" horiz-adv-x="894" 
d="M736 371q0 98 -41 163h155q25 -66 25 -145q0 -175 -101 -288q-100 -112 -221 -112q-94 0 -134 58q-64 -58 -160 -58q-86 0 -147 64q-60 64 -60 169q0 164 124 312h152q-28 -28 -52.5 -61.5t-44.5 -74.5q-40 -79 -40 -158q0 -58 23.5 -92.5t63.5 -34.5q42 0 66 28.5
t39 94.5l40 179h129l-38 -177q-6 -29 -6 -58q0 -36 15 -51.5t49 -15.5q61 0 112 77q52 76 52 181zM563 817l83 -40l-120 -190l-66 34z" />
    <glyph glyph-name="uni0400" unicode="&#x400;" horiz-adv-x="555" 
d="M22 0l151 712h421l-28 -133h-284l-30 -138h276l-28 -134h-276l-37 -173h284l-28 -134h-421zM551 828l-52 -66l-205 144l64 81z" />
    <glyph glyph-name="afii10023" unicode="&#x401;" horiz-adv-x="555" 
d="M22 0l151 712h421l-28 -133h-284l-30 -138h276l-28 -134h-276l-37 -173h284l-28 -134h-421zM518 939q25 0 41.5 -17t16.5 -42q0 -28 -22.5 -49t-50.5 -21q-25 0 -41 16t-16 39q0 30 21 52t51 22zM347 939q25 0 41.5 -17t16.5 -42q0 -28 -22.5 -49t-50.5 -21q-25 0 -41 16
t-16 39q0 30 21 52t51 22z" />
    <glyph glyph-name="afii10051" unicode="&#x402;" horiz-adv-x="718" 
d="M685 312q0 -144 -80 -227q-79 -82 -217 -90l27 127q27 3 49.5 16t39 34.5t25.5 50t9 63.5q0 31 -15.5 42t-46.5 11q-58 0 -140 -17l-68 -322h-138l122 578h-165l29 134h468l-29 -134h-165l-27 -130q100 18 161 18q161 0 161 -154z" />
    <glyph glyph-name="afii10052" unicode="&#x403;" horiz-adv-x="453" 
d="M281 578l-122 -578h-137l151 712h366l-29 -134h-229zM294 762l-39 66l229 159l46 -81z" />
    <glyph glyph-name="afii10053" unicode="&#x404;" horiz-adv-x="607" 
d="M466 589q-79 0 -144 -46q-66 -48 -98 -119h281l-28 -134h-277q3 -36 17.5 -67t38.5 -53t56 -34.5t71 -12.5q58 0 162 33l-31 -146q-98 -21 -142 -21q-136 0 -225 89q-88 88 -88 224q0 112 59 210t155 155q97 57 204 57q93 0 183 -25l-30 -140q-74 30 -164 30z" />
    <glyph glyph-name="afii10054" unicode="&#x405;" horiz-adv-x="548" 
d="M498 240q0 -110 -78 -180q-77 -71 -188 -71q-115 0 -189 74l30 144q82 -85 178 -85q21 0 40.5 5.5t34.5 16.5t23.5 26t8.5 35q0 27 -26 50t-63 43q-27 14 -56 31.5t-53 40.5t-39 52.5t-15 68.5q0 104 71 169q70 64 172 64q116 0 181 -63l-30 -140q-29 27 -78 48
q-47 22 -90 22q-15 0 -30.5 -5t-28 -14t-20 -22.5t-7.5 -29.5q0 -23 26 -44.5t63 -41.5q27 -14 55.5 -31.5t52.5 -41t39.5 -53.5t15.5 -68z" />
    <glyph glyph-name="afii10055" unicode="&#x406;" horiz-adv-x="281" 
d="M310 712l-151 -712h-137l151 712h137z" />
    <glyph glyph-name="afii10056" unicode="&#x407;" horiz-adv-x="281" 
d="M310 712l-151 -712h-137l151 712h137zM365 939q25 0 41.5 -17t16.5 -42q0 -28 -22.5 -49t-50.5 -21q-25 0 -41 16t-16 39q0 30 21 52t51 22zM194 939q25 0 41.5 -17t16.5 -42q0 -28 -22.5 -49t-50.5 -21q-25 0 -41 16t-16 39q0 30 21 52t51 22z" />
    <glyph glyph-name="afii10057" unicode="&#x408;" horiz-adv-x="423" 
d="M315 712h137l-101 -473q-13 -62 -38.5 -108.5t-60.5 -78t-78.5 -47.5t-93.5 -16q-54 0 -84 10l31 146q25 -16 56 -16q45 0 82.5 28t49.5 86l17 77l42 202z" />
    <glyph glyph-name="afii10058" unicode="&#x409;" horiz-adv-x="998" 
d="M752 441q91 0 147 -49q58 -48 58 -132q0 -117 -84 -189q-85 -71 -195 -71h-260l122 578h-221l-70 -333q-24 -117 -103 -181q-80 -65 -178 -69l30 141q40 3 70.5 30.5t42.5 82.5l99 463h497l-58 -271h103zM691 129q51 0 86 31q37 31 37 82q0 32 -23 50.5t-61 18.5h-108
l-39 -182h108z" />
    <glyph glyph-name="afii10059" unicode="&#x40a;" horiz-adv-x="992" 
d="M746 441q91 0 147 -49q58 -48 58 -132q0 -117 -84 -189q-85 -71 -195 -71h-260l65 307h-253l-65 -307h-137l151 712h137l-58 -271h253l58 271h138l-58 -271h103zM685 130q25 0 47.5 7.5t39 21.5t26.5 34t10 46q0 32 -23 50t-62 18h-108l-38 -177h108z" />
    <glyph glyph-name="afii10060" unicode="&#x40b;" horiz-adv-x="723" 
d="M530 466q78 0 115.5 -38t37.5 -108q0 -32 -9 -74l-52 -246h-138l49 234l3.5 25t1.5 19q0 61 -59 61q-61 0 -143 -17l-68 -322h-138l122 578h-165l29 134h468l-29 -134h-165l-27 -130q100 18 167 18z" />
    <glyph glyph-name="afii10061" unicode="&#x40c;" horiz-adv-x="647" 
d="M415 398q30 -12 53 -29.5t38 -36.5q16 -18 26.5 -45.5t15.5 -49.5q3 -11 5.5 -26t4 -30.5t2.5 -31t1 -27.5q1 -11 1 -26.5t1 -35.5l2 -60h-141q-1 8 -1 18v24v15t0.5 19t0.5 18.5v13.5q0 48 -5 76.5t-24 54.5q-18 27 -57 38.5t-102 11.5h-16l-61 -289h-137l151 712h137
l-62 -289h8l280 289h182zM341 762l-39 66l229 159l46 -81z" />
    <glyph glyph-name="uni040D" unicode="&#x40d;" horiz-adv-x="708" 
d="M22 0l151 712h138l-74 -348q-12 -56 -27 -96h6q20 26 41 49.5l42 46.5l327 348h111l-151 -712h-137l77 363q6 28 12 52t13 44h-6l-39 -47t-43 -48l-344 -364h-97zM613 828l-52 -66l-205 144l64 81z" />
    <glyph glyph-name="afii10062" unicode="&#x40e;" horiz-adv-x="641" 
d="M186 0h-164l227 314l-157 398h150l73 -183q21 -50 27 -84h6q12 22 57 84l139 183h169zM615 917q-69 -126 -197 -126q-54 0 -99.5 30t-69.5 96l81 36q18 -48 45 -66q14 -7 25 -9t27 -2q23 0 38 3q16 4 38.5 22t41.5 52z" />
    <glyph glyph-name="afii10145" unicode="&#x40f;" horiz-adv-x="674" 
d="M189 -177l38 177h-205l151 712h138l-123 -578h254l123 578h138l-151 -712h-204l-38 -177h-121z" />
    <glyph glyph-name="afii10017" unicode="&#x410;" horiz-adv-x="739" 
d="M504 712l178 -712h-145l-37 151h-287l-93 -151h-156l454 712h86zM469 285l-30 124q-11 39 -15 78h-6l-28.5 -53.5t-14.5 -25.5l-77 -123h171z" />
    <glyph glyph-name="afii10018" unicode="&#x411;" horiz-adv-x="602" 
d="M576 578h-294l-29 -137h103q91 0 147 -49q58 -48 58 -132q0 -117 -84 -189q-85 -71 -195 -71h-260l151 712h432zM295 129q51 0 86 31q37 31 37 82q0 32 -23 50.5t-61 18.5h-108l-39 -182h108z" />
    <glyph glyph-name="afii10019" unicode="&#x412;" horiz-adv-x="587" 
d="M281 579l-33 -152h80q45 0 74.5 22.5t29.5 67.5q0 29 -21 45.5t-57 16.5h-73zM220 294l-34 -160h101q51 0 85 24.5t34 72.5q0 31 -24.5 47t-69.5 16h-92zM572 539q0 -105 -94 -169q68 -42 68 -128q0 -111 -83 -177q-83 -65 -188 -65h-253l151 712h191q51 0 90 -13
t65.5 -36t39.5 -55t13 -69z" />
    <glyph glyph-name="afii10020" unicode="&#x413;" horiz-adv-x="453" 
d="M281 578l-122 -578h-137l151 712h366l-29 -134h-229z" />
    <glyph glyph-name="afii10021" unicode="&#x414;" horiz-adv-x="755" 
d="M-6 134h84q14 13 31.5 43.5t38.5 83t46 131t54 188.5l35 132h455l-123 -578h83l-60 -281h-138l31 147h-429l-31 -147h-137zM477 134l94 444h-190l-8 -32q-23 -87 -44 -154t-39 -117t-33.5 -84.5t-28.5 -56.5h249z" />
    <glyph glyph-name="afii10022" unicode="&#x415;" horiz-adv-x="555" 
d="M22 0l151 712h421l-28 -133h-284l-30 -138h276l-28 -134h-276l-37 -173h284l-28 -134h-421z" />
    <glyph glyph-name="afii10024" unicode="&#x416;" horiz-adv-x="1000" 
d="M507 712h136l-46 -215q-4 -19 -8 -35l-7 -29h15l32.5 36.5t26.5 26.5l206 216h185l-351 -347l214 -365h-175l-135 241q-6 11 -13.5 26.5l-17.5 36.5h-15q-2 -13 -5.5 -33t-7.5 -39l-49 -232h-136l49 232q4 19 9 39t8 33h-15q-18 -18 -30.5 -34.5t-23.5 -28.5l-227 -241
h-187l372 385l-208 327h172l124 -216q7 -11 16 -26.5t20 -36.5h15l4.5 29t6.5 35z" />
    <glyph glyph-name="afii10025" unicode="&#x417;" horiz-adv-x="514" 
d="M169 315l25 124h49q66 0 101.5 25t35.5 61q0 28 -21.5 46t-53.5 18q-43 0 -91 -19.5t-86 -51.5l32 168q85 38 167 38t137 -50q55 -49 55 -126q0 -49 -22 -97t-70 -78q57 -42 57 -115q0 -117 -82 -193q-80 -76 -198 -76q-105 0 -182 50l30 139q58 -54 162 -54q53 0 92 30
t39 81q0 18 -10 32.5t-27 25t-40 16.5t-50 6h-49z" />
    <glyph glyph-name="afii10026" unicode="&#x418;" horiz-adv-x="708" 
d="M22 0l151 712h138l-74 -348q-12 -56 -27 -96h6q20 26 41 49.5l42 46.5l327 348h111l-151 -712h-137l77 363q6 28 12 52t13 44h-6l-39 -47t-43 -48l-344 -364h-97z" />
    <glyph glyph-name="afii10027" unicode="&#x419;" horiz-adv-x="708" 
d="M22 0l151 712h138l-74 -348q-12 -56 -27 -96h6q20 26 41 49.5l42 46.5l327 348h111l-151 -712h-137l77 363q6 28 12 52t13 44h-6l-39 -47t-43 -48l-344 -364h-97zM670 917q-69 -126 -197 -126q-54 0 -99.5 30t-69.5 96l81 36q18 -48 45 -66q14 -7 25 -9t27 -2q23 0 38 3
q16 4 38.5 22t41.5 52z" />
    <glyph glyph-name="afii10028" unicode="&#x41a;" horiz-adv-x="640" 
d="M132 0h-135l150 712h136l-46 -215q-4 -19 -8 -35l-7 -29h5q18 21 33 36.5l26 26.5l216 216h185l-359 -346l232 -366h-180l-146 238q-7 11 -15.5 28l-19.5 38h-5q-2 -13 -5.5 -33t-7.5 -39z" />
    <glyph glyph-name="afii10029" unicode="&#x41b;" horiz-adv-x="678" 
d="M210 712h497l-151 -712h-138l122 578h-221l-70 -333q-26 -117 -103 -181q-78 -65 -178 -69l30 141q42 3 72 31t41 82z" />
    <glyph glyph-name="afii10030" unicode="&#x41c;" horiz-adv-x="835" 
d="M576 0l76 360q6 33 33 134h-6l-48.5 -48.5t-42.5 -37.5l-162 -133l-105 133q-34 41 -54 86h-7q-4 -38 -24 -134l-76 -360h-137l151 712h91l192 -243l294 243h113l-151 -712h-137z" />
    <glyph glyph-name="afii10031" unicode="&#x41d;" horiz-adv-x="672" 
d="M505 441l58 271h138l-151 -712h-138l65 306h-253l-65 -306h-137l151 712h137l-58 -271h253z" />
    <glyph glyph-name="afii10032" unicode="&#x41e;" horiz-adv-x="807" 
d="M486 724q136 0 221 -88q87 -87 87 -220q0 -113 -61 -213q-61 -98 -159 -157q-98 -57 -206 -57q-134 0 -219 87q-86 88 -86 219q0 112 60 213q59 99 157 158q97 58 206 58zM386 124q108 0 188 84q80 85 80 195q0 81 -49 133q-50 53 -133 53q-110 0 -189 -85
q-80 -86 -80 -196q0 -80 49 -132t134 -52z" />
    <glyph glyph-name="afii10033" unicode="&#x41f;" horiz-adv-x="674" 
d="M173 712h530l-151 -712h-138l122 578h-254l-122 -578h-138z" />
    <glyph glyph-name="afii10034" unicode="&#x420;" 
d="M281 579l-45 -209h73q62 0 105 35q43 36 43 91q0 38 -29 60.5t-80 22.5h-67zM173 712h194q55 0 98 -14t72.5 -39.5t44.5 -61.5t15 -79q0 -74 -27.5 -127t-71.5 -87.5t-101 -51t-115 -16.5h-74l-50 -236h-136z" />
    <glyph glyph-name="afii10035" unicode="&#x421;" horiz-adv-x="613" 
d="M525 25q-83 -36 -156 -36q-135 0 -220 87q-86 88 -86 219q0 112 60 213q59 98 158 158q97 58 206 58q78 0 156 -42l-32 -150q-65 57 -139 57q-110 0 -189 -85q-80 -86 -80 -196q0 -81 49 -133t134 -52q76 0 174 65z" />
    <glyph glyph-name="afii10036" unicode="&#x422;" horiz-adv-x="496" 
d="M389 578l-122 -578h-138l122 578h-164l29 134h466l-29 -134h-164z" />
    <glyph glyph-name="afii10037" unicode="&#x423;" horiz-adv-x="663" 
d="M331 458q5 -16 7 -29t2 -28h8q7 15 14.5 28.5t18.5 28.5l183 254h164l-497 -712h-163l177 253l-160 459h158z" />
    <glyph glyph-name="afii10038" unicode="&#x424;" horiz-adv-x="808" 
d="M278 -30l18 83q-5 0 -24.5 3.5t-45.5 13t-54.5 27t-52.5 44.5t-40 66t-16 92q0 79 25 136t63.5 97t84 65t85.5 38.5t69 18.5t35 5l17 82h138l-17 -82q10 0 32 -5t58 -22q18 -8 34.5 -18t31.5 -23q30 -25 52.5 -72.5t22.5 -107.5q0 -78 -25.5 -135t-63.5 -97t-83.5 -64.5
t-85.5 -38t-68.5 -18.5t-33.5 -5l-18 -83h-138zM462 188q6 0 22.5 3.5t38 12.5t45 24t43 38.5t32 55.5t12.5 76q0 39 -15.5 63.5t-36 38.5t-40.5 19t-29 5zM396 524q-8 0 -39 -8t-65.5 -31t-61.5 -64t-27 -106q0 -39 15.5 -63.5t36 -38.5t40.5 -19.5t29 -5.5z" />
    <glyph glyph-name="afii10039" unicode="&#x425;" horiz-adv-x="660" 
d="M135 0h-178l320 380l-150 332h150l55 -128l22.5 -52t14.5 -40h9l11.5 16l18.5 26l20 28l16 22l105 128h178l-296 -350l169 -362h-157l-69 160l-22 51l-14 38h-8q-2 -3 -9.5 -13.5l-17 -24l-20 -27.5l-18.5 -24z" />
    <glyph glyph-name="afii10040" unicode="&#x426;" horiz-adv-x="745" 
d="M688 134l-60 -280h-138l31 146h-510l152 712h138l-123 -578h254l123 578h138l-123 -578h118z" />
    <glyph glyph-name="afii10041" unicode="&#x427;" horiz-adv-x="627" 
d="M505 0h-138l56 264q-95 -18 -171 -18q-152 0 -152 141q0 35 9 79l52 246h138l-50 -234q-5 -28 -5 -39q0 -66 64 -66q56 0 141 17l69 322h138z" />
    <glyph glyph-name="afii10042" unicode="&#x428;" horiz-adv-x="1011" 
d="M876 712h138l-151 -712h-866l150 712h138l-122 -577h227l122 577h138l-122 -577h226z" />
    <glyph glyph-name="afii10043" unicode="&#x429;" horiz-adv-x="1082" 
d="M11 0l152 712h138l-123 -578h227l123 578h138l-123 -578h226l123 578h138l-123 -578h118l-60 -280h-138l31 146h-847z" />
    <glyph glyph-name="afii10044" unicode="&#x42a;" horiz-adv-x="718" 
d="M472 441q91 0 147 -49q58 -48 58 -132q0 -117 -84 -189q-85 -71 -195 -71h-260l122 578h-173l29 134h311l-58 -271h103zM411 129q51 0 86 31q37 31 37 82q0 32 -23 50.5t-61 18.5h-108l-39 -182h108z" />
    <glyph glyph-name="afii10045" unicode="&#x42b;" horiz-adv-x="872" 
d="M356 441q91 0 147 -49q58 -48 58 -132q0 -117 -84 -189q-85 -71 -195 -71h-260l151 712h138l-58 -271h103zM295 129q51 0 86 31q37 31 37 82q0 32 -23 50.5t-61 18.5h-108l-39 -182h108zM901 712l-151 -712h-137l151 712h137z" />
    <glyph glyph-name="afii10046" unicode="&#x42c;" horiz-adv-x="602" 
d="M356 441q91 0 147 -49q58 -48 58 -132q0 -117 -84 -189q-85 -71 -195 -71h-260l151 712h138l-58 -271h103zM295 129q51 0 86 31q37 31 37 82q0 32 -23 50.5t-61 18.5h-108l-39 -182h108z" />
    <glyph glyph-name="afii10047" unicode="&#x42d;" horiz-adv-x="608" 
d="M192 124q79 0 143 46q67 47 99 119h-281l28 134h277q-3 36 -17.5 67t-38.5 53t-56 34.5t-71 12.5q-59 0 -162 -33l31 146q97 21 142 21q135 0 224 -89t89 -224q0 -112 -59 -210t-156 -155q-96 -57 -203 -57q-93 0 -183 25l30 140q73 -30 164 -30z" />
    <glyph glyph-name="afii10048" unicode="&#x42e;" horiz-adv-x="1088" 
d="M767 724q136 0 221 -88q87 -87 87 -220q0 -113 -61 -213q-61 -98 -159 -157q-98 -57 -206 -57q-133 0 -219 86q-84 84 -86 217h-123l-62 -292h-137l151 712h137l-63 -297h116q40 132 155 221q115 88 249 88zM667 124q108 0 188 84q80 85 80 195q0 81 -49 133
q-50 53 -133 53q-110 0 -189 -85q-80 -86 -80 -196q0 -80 49 -132t134 -52z" />
    <glyph glyph-name="afii10049" unicode="&#x42f;" horiz-adv-x="603" 
d="M632 712l-151 -712h-137l56 267h-18l-249 -267h-171l270 283q-54 21 -81.5 63.5t-27.5 100.5q0 110 78 187q79 78 212 78h219zM429 400l38 179h-70q-29 0 -53.5 -8t-42.5 -22t-28 -34t-10 -44q0 -33 25 -52t70 -19h71z" />
    <glyph glyph-name="afii10065" unicode="&#x430;" horiz-adv-x="639" 
d="M334 546q24 0 46.5 -6.5t43 -17.5t38 -25t29.5 -29l7 36q4 27 6 30h133l-113 -534h-118l9 66q-86 -77 -161 -77q-103 0 -161 63q-57 64 -57 160q0 130 85 231q85 103 213 103zM280 114q59 0 106 45q48 46 61 107l17 75q-14 28 -46 53q-33 27 -80 27q-68 0 -116 -56
t-48 -137q0 -52 27.5 -83t78.5 -31z" />
    <glyph glyph-name="afii10066" unicode="&#x431;" horiz-adv-x="636" 
d="M269 114q36 0 66.5 16.5t53.5 43.5t36 61.5t13 70.5q0 52 -27.5 83.5t-75.5 31.5q-37 0 -68 -16t-54 -42.5t-36 -61.5t-13 -74q0 -47 27.5 -80t77.5 -33zM237 505q15 11 34 20q17 8 40.5 14.5t54.5 6.5q51 0 90 -17t66 -47t41 -71.5t14 -90.5q0 -63 -24 -122.5t-67 -106
t-103 -74.5t-132 -28q-108 0 -164 64.5t-56 179.5q0 92 26 183t79.5 164t136 118t195.5 45q32 0 59.5 5.5t53.5 27.5l62 -92q-19 -22 -37.5 -35.5t-41.5 -21t-52.5 -10t-69.5 -2.5q-146 0 -211 -106z" />
    <glyph glyph-name="afii10067" unicode="&#x432;" horiz-adv-x="514" 
d="M236 417l-19 -97h68q28 0 46 15t18 42q0 40 -50 40h-63zM195 220l-22 -102h77q32 0 52.5 16.5t20.5 46.5q0 39 -58 39h-70zM130 534h187q82 0 120 -35.5t38 -92.5q0 -82 -62 -126q44 -41 44 -94q0 -85 -64 -136q-65 -50 -149 -50h-227z" />
    <glyph glyph-name="afii10068" unicode="&#x433;" horiz-adv-x="397" 
d="M236 415l-87 -415h-132l114 534h309l-25 -119h-179z" />
    <glyph glyph-name="afii10069" unicode="&#x434;" horiz-adv-x="642" 
d="M8 119h69q15 16 33.5 51.5t36 79.5t33 91t26.5 85l29 108h375l-88 -415h76l-53 -253h-119l28 134h-352l-28 -134h-118zM314 368q-11 -36 -25.5 -75t-29.5 -74.5t-28.5 -62.5t-23.5 -37h182l63 295h-125z" />
    <glyph glyph-name="afii10070" unicode="&#x435;" horiz-adv-x="561" 
d="M413 329v12q0 20 -7 37.5t-18.5 31t-27.5 21.5t-34 8q-43 0 -77 -29.5t-55 -80.5h219zM417 20q-69 -31 -151 -31q-106 0 -168 59.5t-62 167.5q0 143 86 237q87 93 218 93q87 0 141 -58.5t54 -169.5q0 -15 -1.5 -34.5t-5.5 -44.5h-353v-14q0 -54 29 -86.5t80 -32.5
q18 0 39.5 4t43.5 10.5t42 16t37 21.5z" />
    <glyph glyph-name="afii10072" unicode="&#x436;" horiz-adv-x="854" 
d="M417 534h133l-34 -162q-2 -9 -3.5 -17.5t-3.5 -15.5q-2 -8 -4 -15h13l12 14q6 7 14 15l19 19l158 162h160l-262 -265l159 -269h-162l-94 171q-13 23 -19 39q-4 10 -6 18h-13q0 -7 -2 -15q-2 -7 -4 -17t-4 -22l-37 -174h-133l37 174q2 12 4.5 21.5l4.5 17.5t3 15h-13
l-11 -11q-5 -6 -14 -14.5t-20 -21.5l-168 -181h-164l277 292l-155 242h161l90 -152l10 -20t8 -18q4 -10 7 -20h13l9 48z" />
    <glyph glyph-name="afii10073" unicode="&#x437;" horiz-adv-x="482" 
d="M115 232l20 94h81q48 0 75 17t27 43q0 19 -17.5 31t-45.5 12q-102 0 -176 -23l25 116q97 24 167 24q77 0 130 -41t53 -102q0 -74 -67 -123q47 -36 47 -98q0 -86 -79 -140q-80 -53 -182 -53q-95 0 -185 23l24 115q62 -22 177 -22q48 0 78.5 19.5t30.5 55.5q0 52 -99 52
h-84z" />
    <glyph glyph-name="afii10074" unicode="&#x438;" horiz-adv-x="598" 
d="M17 0l113 534h133l-37 -176q-1 -4 -3.5 -15.5t-7.5 -31.5l-16 -71h6q49 58 73 82l205 212h113l-113 -534h-133l39 185l27 119h-7l-42 -48l-40 -42l-208 -214h-102z" />
    <glyph glyph-name="afii10075" unicode="&#x439;" horiz-adv-x="598" 
d="M17 0l113 534h133l-37 -176q-1 -4 -3.5 -15.5t-7.5 -31.5l-16 -71h6q49 58 73 82l205 212h113l-113 -534h-133l39 185l27 119h-7l-42 -48l-40 -42l-208 -214h-102zM582 739q-69 -126 -197 -126q-54 0 -99.5 30t-69.5 96l81 36q18 -48 45 -66q14 -7 25 -9t27 -2q23 0 38 3
q16 4 38.5 22t41.5 52z" />
    <glyph glyph-name="afii10076" unicode="&#x43a;" horiz-adv-x="564" 
d="M144 0h-133l113 534h133l-34 -162q-3 -14 -6 -26t-5 -22h3l24.5 28t20.5 20l161 162h170l-270 -261l167 -273h-162l-106 181q-5 8 -11.5 19.5t-14.5 27.5h-3l-10 -54z" />
    <glyph glyph-name="afii10077" unicode="&#x43b;" horiz-adv-x="572" 
d="M158 534h411l-113 -534h-132l88 415h-147l-48 -227q-19 -88 -79 -140t-162 -52l26 123q71 8 84 71z" />
    <glyph glyph-name="afii10078" unicode="&#x43c;" horiz-adv-x="693" 
d="M218 331l-71 -331h-131l113 534h82l149 -171l222 171h110l-113 -534h-133l72 333l-181 -141z" />
    <glyph glyph-name="afii10079" unicode="&#x43d;" horiz-adv-x="568" 
d="M392 340l41 194h132l-113 -534h-133l47 219h-172l-46 -219h-132l114 534h131l-41 -194h172z" />
    <glyph glyph-name="afii10080" unicode="&#x43e;" horiz-adv-x="608" 
d="M350 546q104 0 169 -68t65 -170q0 -128 -94 -223q-93 -96 -220 -96q-106 0 -170 67t-64 170q0 128 93 224q94 96 221 96zM285 114q61 0 111 53q50 55 50 130q0 55 -31.5 89.5t-77.5 34.5q-62 0 -113 -54q-50 -55 -50 -130q0 -55 31.5 -89t79.5 -34z" />
    <glyph glyph-name="afii10081" unicode="&#x43f;" horiz-adv-x="564" 
d="M130 534h430l-113 -534h-132l87 415h-166l-88 -415h-132z" />
    <glyph glyph-name="afii10082" unicode="&#x440;" horiz-adv-x="638" 
d="M616 322q0 -81 -36 -157q-36 -74 -107 -126q-71 -50 -158 -50t-160 49l-54 -254h-132l159 750h121l-8 -66q85 78 164 78q102 0 156 -64q55 -62 55 -160zM315 114q71 0 117 58q47 59 47 134q0 52 -28 83.5t-79 31.5q-61 0 -107 -45q-46 -43 -60 -107l-22 -96
q14 -19 50 -39q38 -20 82 -20z" />
    <glyph glyph-name="afii10083" unicode="&#x441;" horiz-adv-x="475" 
d="M376 13q-59 -24 -113 -24q-103 0 -164 64t-61 161q0 139 96 235q97 97 221 97q57 0 110 -29l-31 -141q-45 45 -97 45q-61 0 -112 -55q-50 -55 -50 -132q0 -52 29.5 -86t77.5 -34q61 0 125 49z" />
    <glyph glyph-name="afii10084" unicode="&#x442;" horiz-adv-x="423" 
d="M313 415l-87 -415h-132l88 415h-129l27 119h387l-26 -119h-128z" />
    <glyph glyph-name="afii10085" unicode="&#x443;" horiz-adv-x="594" 
d="M68 534h138l52 -204q10 -42 21 -111h8l37 68t24 41l132 206h155l-500 -750h-151l200 296z" />
    <glyph glyph-name="afii10086" unicode="&#x444;" horiz-adv-x="766" 
d="M563 764l-48 -221q11 0 34.5 -5t58.5 -20q34 -14 66 -38q31 -22 53 -63.5t22 -92.5q0 -14 -2 -30t-6 -35q-16 -67 -54.5 -118.5t-81.5 -78.5q-44 -28 -90 -44q-48 -17 -75 -21.5t-42 -4.5l-44 -208h-131l44 208q-12 0 -35.5 4.5t-59.5 18.5q-25 10 -49.5 26t-44.5 40
t-33 55.5t-13 72.5q0 20 9 65t28 81t43.5 63.5t52.5 47.5t55 33q30 15 57 23t49 12.5t37 6t21 2.5l49 221h130zM360 421q-61 0 -125 -54t-64 -134q0 -28 10 -50t27 -37t39.5 -23t47.5 -8zM421 115q63 0 126 54q64 54 64 134q0 54 -38 86t-87 32z" />
    <glyph glyph-name="afii10087" unicode="&#x445;" horiz-adv-x="601" 
d="M92 534h149l41 -85q7 -15 15.5 -38t17.5 -43h6q42 60 59 79l78 87h171l-253 -267l150 -267h-150l-50 102l-10 24.5l-21 53.5h-7q-7 -12 -27 -38q-21 -27 -32 -38l-91 -104h-171l265 282z" />
    <glyph glyph-name="afii10088" unicode="&#x446;" horiz-adv-x="596" 
d="M21 0l113 534h133l-88 -415h164l88 415h133l-88 -415h76l-53 -253h-119l28 134h-387z" />
    <glyph glyph-name="afii10089" unicode="&#x447;" horiz-adv-x="538" 
d="M421 0h-133l39 188q-34 -5 -63.5 -8t-55.5 -3q-131 0 -131 111q0 28 7 57l39 189h132l-37 -176q-1 -5 -1.5 -11t-0.5 -14q0 -42 40 -42q41 0 96 11l49 232h133z" />
    <glyph glyph-name="afii10090" unicode="&#x448;" horiz-adv-x="823" 
d="M681 534h133l-113 -534h-694l113 534h133l-88 -415h147l88 415h133l-88 -415h148z" />
    <glyph glyph-name="afii10091" unicode="&#x449;" horiz-adv-x="859" 
d="M21 0l113 534h133l-88 -415h147l88 415h133l-88 -415h147l88 415h133l-88 -415h76l-53 -253h-119l28 134h-650z" />
    <glyph glyph-name="afii10092" unicode="&#x44a;" horiz-adv-x="597" 
d="M393 341q72 0 113.5 -35.5t41.5 -99.5q0 -93 -65 -150q-65 -56 -153 -56h-225l87 415h-140l27 119h271l-41 -193h84zM335 115q32 0 55 17.5t23 46.5q0 21 -15.5 32.5t-41.5 11.5h-73l-23 -108h75z" />
    <glyph glyph-name="afii10093" unicode="&#x44b;" horiz-adv-x="767" 
d="M305 341q72 0 114 -35.5t42 -99.5q0 -93 -65 -150q-65 -56 -153 -56h-226l113 534h132l-41 -193h84zM248 115q32 0 55 17.5t23 46.5q0 21 -15.5 32.5t-42.5 11.5h-73l-22 -108h75zM756 534l-113 -534h-133l113 534h133z" />
    <glyph glyph-name="afii10094" unicode="&#x44c;" horiz-adv-x="511" 
d="M305 341q72 0 114 -35.5t42 -99.5q0 -93 -65 -150q-65 -56 -153 -56h-226l113 534h132l-41 -193h84zM248 115q32 0 55 17.5t23 46.5q0 21 -15.5 32.5t-42.5 11.5h-73l-22 -108h75z" />
    <glyph glyph-name="afii10095" unicode="&#x44d;" horiz-adv-x="486" 
d="M164 106q24 0 47 8t43.5 23.5t37 37t26.5 48.5h-217l19 90h214q-1 54 -33 85t-80 31q-76 0 -155 -35l27 128q79 24 139 24q106 0 171 -60t65 -166q0 -149 -92 -241q-92 -90 -223 -90q-78 0 -168 30l26 120q61 -33 153 -33z" />
    <glyph glyph-name="afii10096" unicode="&#x44e;" horiz-adv-x="881" 
d="M632 546q104 0 169 -68q64 -67 64 -169q0 -129 -94 -224q-93 -96 -220 -96q-96 0 -160 59q-62 59 -73 155h-130l-42 -203h-132l113 534h132l-44 -210h118q35 99 116 159q82 63 183 63zM566 114q62 0 112 53q50 55 50 130q0 57 -31 91t-79 34q-62 0 -113 -54
q-50 -55 -50 -130q0 -27 8.5 -50t23.5 -39.5t35 -25.5t44 -9z" />
    <glyph glyph-name="afii10097" unicode="&#x44f;" horiz-adv-x="519" 
d="M136 0h-178l195 203q-72 49 -72 125q0 88 60 147q61 59 173 59h200l-113 -534h-133l40 186zM333 302l24 113h-71q-29 0 -49 -20.5t-20 -50.5q0 -42 47 -42h69z" />
    <glyph glyph-name="uni0450" unicode="&#x450;" horiz-adv-x="561" 
d="M413 329v12q0 20 -7 37.5t-18.5 31t-27.5 21.5t-34 8q-43 0 -77 -29.5t-55 -80.5h219zM417 20q-69 -31 -151 -31q-106 0 -168 59.5t-62 167.5q0 143 86 237q87 93 218 93q87 0 141 -58.5t54 -169.5q0 -15 -1.5 -34.5t-5.5 -44.5h-353v-14q0 -54 29 -86.5t80 -32.5
q18 0 39.5 4t43.5 10.5t42 16t37 21.5zM504 650l-52 -66l-205 144l64 81z" />
    <glyph glyph-name="afii10071" unicode="&#x451;" horiz-adv-x="561" 
d="M413 329v12q0 20 -7 37.5t-18.5 31t-27.5 21.5t-34 8q-43 0 -77 -29.5t-55 -80.5h219zM417 20q-69 -31 -151 -31q-106 0 -168 59.5t-62 167.5q0 143 86 237q87 93 218 93q87 0 141 -58.5t54 -169.5q0 -15 -1.5 -34.5t-5.5 -44.5h-353v-14q0 -54 29 -86.5t80 -32.5
q18 0 39.5 4t43.5 10.5t42 16t37 21.5zM466 761q25 0 41.5 -17t16.5 -42q0 -28 -22.5 -49t-50.5 -21q-25 0 -41 16t-16 39q0 30 21 52t51 22zM295 761q25 0 41.5 -17t16.5 -42q0 -28 -22.5 -49t-50.5 -21q-25 0 -41 16t-16 39q0 30 21 52t51 22z" />
    <glyph glyph-name="afii10099" unicode="&#x452;" horiz-adv-x="607" 
d="M257 -104q16 0 30.5 7t26.5 18t20 26t11 30l68 322q5 25 5 42q0 80 -76 80q-12 0 -25.5 -4t-27 -10.5t-25.5 -14t-21 -14.5l-17 -14l-78 -364h-132l129 610h-54l11 52h54l22 102h132l-21 -102h135l-11 -52h-135l-29 -138q83 74 147 74q159 0 159 -153q0 -21 -2 -41.5
t-6 -40.5l-67 -320q-19 -92 -84 -154q-64 -62 -167 -62z" />
    <glyph glyph-name="afii10100" unicode="&#x453;" horiz-adv-x="397" 
d="M236 415l-87 -415h-132l114 534h309l-25 -119h-179zM219 584l-39 66l229 159l46 -81z" />
    <glyph glyph-name="afii10101" unicode="&#x454;" horiz-adv-x="486" 
d="M334 429q-24 0 -47 -8t-43.5 -23.5t-37 -37t-26.5 -48.5h217l-19 -90h-214q1 -54 33 -85t80 -31q76 0 155 35l-27 -128q-80 -24 -139 -24q-108 0 -172 60t-64 166q0 150 91 240q91 91 224 91q78 0 168 -30l-26 -120q-62 33 -153 33z" />
    <glyph glyph-name="afii10102" unicode="&#x455;" horiz-adv-x="442" 
d="M374 173q0 -81 -60 -133q-59 -51 -140 -51q-78 0 -149 44l29 134q55 -63 126 -63q17 0 31.5 7.5t20.5 20t1.5 28.5t-23.5 33l-26.5 22t-28.5 21t-29.5 24t-26 30.5t-18.5 35.5t-7 39q0 76 59 129q58 52 142 52q60 0 130 -40l-28 -128q-51 53 -111 53q-20 0 -37.5 -13
t-17.5 -33q0 -9 7 -19.5t18.5 -21.5t26 -22t29.5 -21q31 -20 56.5 -54t25.5 -74z" />
    <glyph glyph-name="afii10103" unicode="&#x456;" horiz-adv-x="273" 
d="M297 649q0 -16 -7.5 -30.5t-19.5 -25t-27.5 -17t-31.5 -6.5q-31 0 -51 20.5t-20 50.5q0 34 27 60q28 26 61 26q30 0 49.5 -21.5t19.5 -56.5zM148 0h-132l113 534h133z" />
    <glyph glyph-name="afii10104" unicode="&#x457;" horiz-adv-x="273" 
d="M322 761q25 0 41.5 -17t16.5 -42q0 -28 -22.5 -49t-50.5 -21q-25 0 -41 16t-16 39q0 30 21 52t51 22zM151 761q25 0 41.5 -17t16.5 -42q0 -28 -22.5 -49t-50.5 -21q-25 0 -41 16t-16 39q0 30 21 52t51 22zM262 534l-113 -534h-133l113 534h133z" />
    <glyph glyph-name="afii10105" unicode="&#x458;" horiz-adv-x="273" 
d="M-135 -95q25 -9 58 -9q16 0 30.5 7t26.5 18t20 26t11 30l117 557h132l-114 -543q-19 -92 -83 -154q-62 -62 -161 -62q-24 0 -64 8zM297 649q0 -16 -7.5 -30.5t-19.5 -25t-27.5 -17t-31.5 -6.5q-31 0 -51 20.5t-20 50.5q0 34 27 60q28 26 61 26q30 0 49.5 -21.5
t19.5 -56.5z" />
    <glyph glyph-name="afii10106" unicode="&#x459;" horiz-adv-x="810" 
d="M611 341q72 0 114.5 -35.5t42.5 -99.5q0 -93 -65 -150q-65 -56 -155 -56h-225l87 415h-147l-47 -227q-18 -87 -80.5 -139.5t-161.5 -52.5l27 123q31 3 53.5 21t29.5 50l72 344h412l-41 -193h84zM553 115q33 0 56 17.5t23 46.5q0 21 -15.5 32.5t-42.5 11.5h-73l-23 -108
h75z" />
    <glyph glyph-name="afii10107" unicode="&#x45a;" horiz-adv-x="806" 
d="M607 340q72 0 113.5 -35.5t41.5 -98.5q0 -93 -65 -150q-65 -56 -153 -56h-226l47 222h-172l-46 -222h-132l113 534h132l-41 -194h172l41 194h131l-41 -194h85zM549 115q32 0 55 17.5t23 46.5q0 43 -58 43h-72l-23 -107h75z" />
    <glyph glyph-name="afii10108" unicode="&#x45b;" horiz-adv-x="607" 
d="M178 764h132l-21 -102h135l-11 -52h-135l-29 -138q83 74 147 74q159 0 159 -153q0 -21 -2 -41.5t-6 -40.5l-65 -311h-132l39.5 190l22.5 105l1 4q5 25 5 42q0 80 -76 80q-12 0 -25.5 -4t-27 -10.5t-25.5 -14t-21 -14.5l-17 -14l-78 -364h-132l129 610h-54l11 52h54z" />
    <glyph glyph-name="afii10109" unicode="&#x45c;" horiz-adv-x="540" 
d="M262 534l-44 -204h20l160 204h167l-191 -228q50 -29 67 -78t17 -121q0 -16 -1 -42.5t-1 -64.5h-135q1 29 1.5 48t0.5 28q0 63 -19.5 96t-77.5 33h-34l-43 -205h-133l114 534h132zM255 584l-39 66l229 159l46 -81z" />
    <glyph glyph-name="uni045D" unicode="&#x45d;" horiz-adv-x="598" 
d="M17 0l113 534h133l-37 -176q-1 -4 -3.5 -15.5t-7.5 -31.5l-16 -71h6q49 58 73 82l205 212h113l-113 -534h-133l39 185l27 119h-7l-42 -48l-40 -42l-208 -214h-102zM521 650l-52 -66l-205 144l64 81z" />
    <glyph glyph-name="afii10110" unicode="&#x45e;" horiz-adv-x="594" 
d="M68 534h138l52 -204q10 -42 21 -111h8l37 68t24 41l132 206h155l-500 -750h-151l200 296zM564 739q-69 -126 -197 -126q-54 0 -99.5 30t-69.5 96l81 36q18 -48 45 -66q14 -7 25 -9t27 -2q23 0 38 3q16 4 38.5 22t41.5 52z" />
    <glyph glyph-name="afii10193" unicode="&#x45f;" horiz-adv-x="564" 
d="M135 -175l37 175h-156l114 534h131l-88 -415h167l88 415h132l-113 -534h-156l-38 -175h-118z" />
    <glyph glyph-name="afii10050" unicode="&#x490;" horiz-adv-x="453" 
d="M281 578l-122 -578h-137l151 712h245l37 177h121l-66 -311h-229z" />
    <glyph glyph-name="afii10098" unicode="&#x491;" horiz-adv-x="397" 
d="M236 414l-87 -414h-132l113 534h192l36 176h120l-64 -296h-178z" />
    <glyph glyph-name="afii10846" unicode="&#x4d9;" horiz-adv-x="560" 
d="M148 205v-12q0 -20 7 -37.5t18.5 -31t27.5 -21.5t34 -8q43 0 77 29.5t55 80.5h-219zM144 514q69 31 151 31q106 0 168 -59.5t62 -167.5q0 -144 -87 -237q-86 -93 -217 -93q-87 0 -141 58.5t-54 169.5q0 15 1.5 34.5t5.5 44.5h353v14q0 54 -29 86.5t-80 32.5
q-18 0 -39.5 -4t-43.5 -10.5t-42.5 -16t-36.5 -21.5z" />
    <glyph glyph-name="Wgrave" unicode="&#x1e80;" horiz-adv-x="878" 
d="M675 367l124 345h147l-258 -712h-130l-61 278q-7 32 -12.5 63.5t-9.5 61.5h-6q-18 -34 -36 -64.5l-35 -59.5l-170 -279h-132l18 712h134l-11 -346q-1 -29 -3.5 -58.5t-6.5 -58.5h6l38 73.5t23 42.5l195 323h61l67 -322q6 -31 10 -60t6 -57h6l15 51zM701 828l-52 -66
l-205 144l64 81z" />
    <glyph glyph-name="wgrave" unicode="&#x1e81;" horiz-adv-x="815" 
d="M78 534h136l15 -208q1 -14 1.5 -45t0.5 -79h6q48 100 63 123l122 187h60l50 -187q6 -25 11.5 -55.5t10.5 -67.5h5q2 4 6.5 19l10.5 34t13 38t14 33l95 208h142l-249 -534h-89l-64 198q-10 30 -15.5 55.5t-7.5 46.5h-4q-14 -37 -59 -102l-140 -198h-91zM626 650l-52 -66
l-205 144l64 81z" />
    <glyph glyph-name="Wacute" unicode="&#x1e82;" horiz-adv-x="878" 
d="M675 367l124 345h147l-258 -712h-130l-61 278q-7 32 -12.5 63.5t-9.5 61.5h-6q-18 -34 -36 -64.5l-35 -59.5l-170 -279h-132l18 712h134l-11 -346q-1 -29 -3.5 -58.5t-6.5 -58.5h6l38 73.5t23 42.5l195 323h61l67 -322q6 -31 10 -60t6 -57h6l15 51zM475 762l-39 66
l229 159l46 -81z" />
    <glyph glyph-name="wacute" unicode="&#x1e83;" horiz-adv-x="815" 
d="M78 534h136l15 -208q1 -14 1.5 -45t0.5 -79h6q48 100 63 123l122 187h60l50 -187q6 -25 11.5 -55.5t10.5 -67.5h5q2 4 6.5 19l10.5 34t13 38t14 33l95 208h142l-249 -534h-89l-64 198q-10 30 -15.5 55.5t-7.5 46.5h-4q-14 -37 -59 -102l-140 -198h-91zM400 584l-39 66
l229 159l46 -81z" />
    <glyph glyph-name="Wdieresis" unicode="&#x1e84;" horiz-adv-x="878" 
d="M675 367l124 345h147l-258 -712h-130l-61 278q-7 32 -12.5 63.5t-9.5 61.5h-6q-18 -34 -36 -64.5l-35 -59.5l-170 -279h-132l18 712h134l-11 -346q-1 -29 -3.5 -58.5t-6.5 -58.5h6l38 73.5t23 42.5l195 323h61l67 -322q6 -31 10 -60t6 -57h6l15 51zM665 939
q25 0 41.5 -17t16.5 -42q0 -28 -22.5 -49t-50.5 -21q-25 0 -41 16t-16 39q0 30 21 52t51 22zM494 939q25 0 41.5 -17t16.5 -42q0 -28 -22.5 -49t-50.5 -21q-25 0 -41 16t-16 39q0 30 21 52t51 22z" />
    <glyph glyph-name="wdieresis" unicode="&#x1e85;" horiz-adv-x="815" 
d="M78 534h136l15 -208q1 -14 1.5 -45t0.5 -79h6q48 100 63 123l122 187h60l50 -187q6 -25 11.5 -55.5t10.5 -67.5h5q2 4 6.5 19l10.5 34t13 38t14 33l95 208h142l-249 -534h-89l-64 198q-10 30 -15.5 55.5t-7.5 46.5h-4q-14 -37 -59 -102l-140 -198h-91zM591 761
q25 0 41.5 -17t16.5 -42q0 -28 -22.5 -49t-50.5 -21q-25 0 -41 16t-16 39q0 30 21 52t51 22zM420 761q25 0 41.5 -17t16.5 -42q0 -28 -22.5 -49t-50.5 -21q-25 0 -41 16t-16 39q0 30 21 52t51 22z" />
    <glyph glyph-name="Ygrave" unicode="&#x1ef2;" horiz-adv-x="637" 
d="M562 712h166l-329 -419l-62 -293h-137l62 293l-151 419h145l68 -184l11.5 -37t13.5 -49h6q12 19 27 40.5t34 44.5zM581 828l-52 -66l-205 144l64 81z" />
    <glyph glyph-name="ygrave" unicode="&#x1ef3;" horiz-adv-x="602" 
d="M68 534h138l52 -204q10 -42 21 -111h8l37 68t24 41l132 206h155l-500 -750h-151l200 296zM513 650l-52 -66l-205 144l64 81z" />
    <glyph glyph-name="endash" unicode="&#x2013;" horiz-adv-x="515" 
d="M60 360h447l-26 -123h-447z" />
    <glyph glyph-name="emdash" unicode="&#x2014;" horiz-adv-x="924" 
d="M60 360h856l-26 -123h-856z" />
    <glyph glyph-name="quoteleft" unicode="&#x2018;" horiz-adv-x="269" 
d="M339 761q-34 -76 -59.5 -147.5t-43.5 -140.5l-148 -12q39 94 81 172t88 142z" />
    <glyph glyph-name="quoteright" unicode="&#x2019;" horiz-adv-x="269" 
d="M90 475q34 75 59.5 146.5t44.5 141.5l147 12q-38 -94 -80.5 -172t-88.5 -142z" />
    <glyph glyph-name="quotesinglbase" unicode="&#x201a;" horiz-adv-x="269" 
d="M-48 -175q34 75 59.5 146.5t44.5 141.5l147 12q-38 -94 -80.5 -172t-88.5 -142z" />
    <glyph glyph-name="quotedblleft" unicode="&#x201c;" horiz-adv-x="489" 
d="M339 761q-34 -76 -59.5 -147.5t-43.5 -140.5l-148 -12q39 94 81 172t88 142zM559 761q-34 -76 -59.5 -147.5t-43.5 -140.5l-148 -12q39 94 81 172t88 142z" />
    <glyph glyph-name="quotedblright" unicode="&#x201d;" horiz-adv-x="489" 
d="M90 475q34 75 59.5 146.5t44.5 141.5l147 12q-38 -94 -80.5 -172t-88.5 -142zM310 475q34 75 59.5 146.5t44.5 141.5l147 12q-38 -94 -80.5 -172t-88.5 -142z" />
    <glyph glyph-name="quotedblbase" unicode="&#x201e;" horiz-adv-x="489" 
d="M-48 -175q34 75 59.5 146.5t44.5 141.5l147 12q-38 -94 -80.5 -172t-88.5 -142zM171 -175q34 75 59.5 146.5t44.5 141.5l147 12q-38 -94 -80.5 -172t-88.5 -142z" />
    <glyph glyph-name="dagger" unicode="&#x2020;" horiz-adv-x="533" 
d="M313 764h131l-44 -205h148l-27 -129h-148l-114 -535h-131l114 535h-148l27 129h148z" />
    <glyph glyph-name="daggerdbl" unicode="&#x2021;" horiz-adv-x="533" 
d="M313 764h131l-43 -204h148l-27 -127h-148l-33 -152h148l-27 -128h-148l-55 -258h-131l55 258h-148l27 128h148l33 152h-148l27 127h148z" />
    <glyph glyph-name="bullet" unicode="&#x2022;" horiz-adv-x="411" 
d="M262 516q71 0 121 -51q51 -51 51 -123q0 -73 -51 -124q-50 -50 -121 -50t-122 51q-50 52 -50 123q0 72 49 122q49 52 123 52z" />
    <glyph glyph-name="ellipsis" unicode="&#x2026;" horiz-adv-x="836" 
d="M198 73q-4 -33 -29.5 -55.5t-58.5 -22.5t-53 22.5t-16 55.5q1 16 9 31t19.5 25.5t26.5 17t31 6.5q32 0 53 -23.5t18 -56.5zM395 153q33 0 53.5 -23.5t17.5 -56.5q-4 -34 -29.5 -56t-58.5 -22t-53.5 22.5t-16.5 55.5q1 16 9 31t20 25.5t27 17t31 6.5zM662 153
q33 0 53.5 -23.5t17.5 -56.5q-4 -34 -29.5 -56t-58.5 -22q-32 0 -53 22.5t-17 55.5q1 16 9 31t20 25.5t27 17t31 6.5z" />
    <glyph glyph-name="perthousand" unicode="&#x2030;" horiz-adv-x="1106" 
d="M281 724q128 0 128 -128q0 -28 -6 -62q-36 -189 -193 -189q-130 0 -130 126q0 31 7 63q34 190 194 190zM225 434q25 0 49 21.5t34 64.5q6 25 6 59q0 56 -47 56q-25 0 -50 -23t-35 -69q-2 -13 -3.5 -26t-1.5 -27q0 -56 48 -56zM602 372q130 0 130 -124q0 -11 -1.5 -27.5
t-5.5 -37.5q-35 -189 -195 -189q-129 0 -129 126q0 25 7 63q36 189 194 189zM545 83q25 0 48.5 18.5t34.5 60.5q8 30 8 65q0 56 -48 56q-26 0 -50.5 -22.5t-34.5 -70.5q-5 -28 -5 -51q0 -56 47 -56zM680 669l-495 -685l-69 49l496 685zM950 372q130 0 130 -124
q0 -11 -1.5 -27.5t-5.5 -37.5q-35 -189 -195 -189q-129 0 -129 126q0 25 7 63q36 189 194 189zM893 83q25 0 48.5 18.5t34.5 60.5q8 30 8 65q0 56 -48 56q-26 0 -50.5 -22.5t-34.5 -70.5q-5 -28 -5 -51q0 -56 47 -56z" />
    <glyph glyph-name="guilsinglleft" unicode="&#x2039;" horiz-adv-x="329" 
d="M350 461l-178 -199l88 -189h-134l-93 199l169 189h148z" />
    <glyph glyph-name="guilsinglright" unicode="&#x203a;" horiz-adv-x="329" 
d="M-10 73l178 199l-88 189h134l93 -199l-169 -189h-148z" />
    <glyph glyph-name="fraction" unicode="&#x2044;" horiz-adv-x="200" 
d="M-88 -17l-69 49l495 685l68 -49z" />
    <glyph glyph-name="zerosuperior" unicode="&#x2070;" horiz-adv-x="330" 
d="M300 902q51 0 79.5 -27.5t28.5 -84.5q0 -15 -1.5 -30.5t-5.5 -31.5l-7 -34q-19 -91 -62.5 -132.5t-104.5 -41.5q-108 0 -108 112q0 15 1.5 30.5t5.5 31.5l7 34q36 174 167 174zM240 601q50 0 71 98l5 24q6 30 6 50q0 48 -35 48q-51 0 -72 -98l-5 -24q-6 -32 -6 -51
q0 -47 36 -47z" />
    <glyph glyph-name="foursuperior" unicode="&#x2074;" horiz-adv-x="324" 
d="M349 673h37l-17 -80h-37l-14 -67h-83l14 67h-156l17 77l207 226h80zM268 670l20 97l-89 -94z" />
    <glyph glyph-name="fivesuperior" unicode="&#x2075;" horiz-adv-x="298" 
d="M246 769q51 0 80.5 -25.5t29.5 -68.5q0 -61 -47 -108t-110 -47q-56 0 -96 28l17 83q29 -35 91 -35q27 0 44.5 21t17.5 47q0 39 -37 39q-32 0 -70 -23l-32 20l67 196h191l-18 -81h-125l-16 -48q2 0 6 1t7 1z" />
    <glyph glyph-name="sixsuperior" unicode="&#x2076;" horiz-adv-x="304" 
d="M288 896h99l-103 -115q38 -6 61.5 -35.5t23.5 -69.5q0 -62 -46 -109q-47 -47 -110 -47q-49 0 -80 31.5t-31 79.5q0 56 61 124zM224 595q25 0 45 20t20 47q0 20 -11.5 32.5t-30.5 12.5q-12 0 -24 -5.5t-21.5 -14.5t-15.5 -21.5t-6 -25.5q0 -19 11.5 -32t32.5 -13z" />
    <glyph glyph-name="sevensuperior" unicode="&#x2077;" horiz-adv-x="282" 
d="M275 815h-137l14 81h256l-8 -46l-227 -324h-95z" />
    <glyph glyph-name="eightsuperior" unicode="&#x2078;" horiz-adv-x="302" 
d="M106 618q0 59 55 108q-14 20 -14 50q0 53 43 89q43 37 93 37q42 0 67.5 -24.5t25.5 -63.5q0 -52 -41 -87q24 -20 24 -66q0 -58 -47 -100q-47 -41 -103 -41q-48 0 -75.5 26.5t-27.5 71.5zM241 690q-21 0 -38.5 -17.5t-17.5 -40.5q0 -17 11.5 -26.5t27.5 -9.5q9 0 19 4
t18.5 11.5t13.5 17.5t5 22q0 17 -11.5 28t-27.5 11zM268 826q-16 0 -29.5 -12t-13.5 -28q0 -11 9 -19t22 -8q16 0 27.5 12t11.5 27q0 11 -7.5 19.5t-19.5 8.5z" />
    <glyph glyph-name="ninesuperior" unicode="&#x2079;" horiz-adv-x="305" 
d="M199 526h-99l103 115q-38 6 -61.5 35.5t-23.5 69.5q0 62 46 108q46 48 110 48q49 0 80 -31.5t31 -79.5q0 -56 -61 -124zM263 827q-25 0 -45 -20t-20 -47q0 -20 11.5 -32.5t30.5 -12.5q12 0 24 5.5t21.5 14.5t15.5 21t6 26q0 19 -11.5 32t-32.5 13z" />
    <glyph glyph-name="parenleftsuperior" unicode="&#x207d;" horiz-adv-x="203" 
d="M250 938h84q-15 -19 -27 -36l-22 -31q-20 -29 -39 -85t-19 -117q0 -98 40 -175h-75q-2 4 -6.5 15t-7.5 16q-2 5 -6 16t-7 18q-7 23 -12.5 49.5t-5.5 60.5q0 45 8 83.5t28 76.5l30 54z" />
    <glyph glyph-name="parenrightsuperior" unicode="&#x207e;" horiz-adv-x="202" 
d="M73 493l27 35.5l22 30.5t19 35.5t19 50.5q20 58 20 117q0 98 -40 175h75q2 -4 6.5 -15l6.5 -16q3 -5 7 -16t6 -18q19 -46 19 -110q0 -45 -8 -83.5t-29 -77.5q-20 -38 -30 -54q-9 -15 -36 -54h-84z" />
    <glyph glyph-name="zeroinferior" unicode="&#x2080;" horiz-adv-x="330" 
d="M146 181q51 0 79.5 -27.5t28.5 -84.5q0 -15 -1.5 -30.5t-5.5 -31.5l-7 -34q-19 -91 -62.5 -132.5t-104.5 -41.5q-108 0 -108 112q0 15 1.5 30.5t5.5 31.5l7 34q36 174 167 174zM86 -120q50 0 71 98l5 24q6 30 6 50q0 48 -35 48q-51 0 -72 -98l-5 -24q-6 -32 -6 -51
q0 -47 36 -47z" />
    <glyph glyph-name="oneinferior" unicode="&#x2081;" horiz-adv-x="258" 
d="M118 175h71l-79 -370h-83l54 253l-105 -74l23 106z" />
    <glyph glyph-name="twoinferior" unicode="&#x2082;" horiz-adv-x="295" 
d="M80 -115h108l-17 -80h-232l15 72l134 121q54 49 54 69q0 14 -9.5 23t-24.5 9q-12 0 -26.5 -5t-29.5 -14t-30 -21t-27 -26l24 116q55 32 102 32q46 0 75.5 -28t29.5 -71q0 -18 -4.5 -34t-15 -32t-26.5 -34t-40 -40z" />
    <glyph glyph-name="threeinferior" unicode="&#x2083;" horiz-adv-x="273" 
d="M16 -38l15 76h19q32 0 49.5 11.5t17.5 26.5q0 12 -8.5 19t-21.5 7q-50 0 -91 -29l16 86q45 22 86 22q45 0 75 -25.5t30 -67.5q0 -46 -47 -85q27 -27 27 -61q2 -60 -45 -101q-45 -42 -107 -42q-53 0 -94 22l17 80q31 -23 86 -23q21 0 39 15t18 37q0 15 -18.5 23.5
t-45.5 8.5h-17z" />
    <glyph glyph-name="fourinferior" unicode="&#x2084;" horiz-adv-x="325" 
d="M196 -48h37l-17 -80h-37l-14 -67h-83l14 67h-156l17 77l207 226h80zM115 -51l20 97l-89 -94z" />
    <glyph glyph-name="fiveinferior" unicode="&#x2085;" horiz-adv-x="298" 
d="M94 48q51 0 80.5 -25.5t29.5 -68.5q0 -61 -47 -108t-110 -47q-56 0 -96 28l17 83q29 -35 91 -35q27 0 44.5 21t17.5 47q0 39 -37 39q-32 0 -70 -23l-32 20l67 196h191l-18 -81h-125l-16 -48q2 0 6 1t7 1z" />
    <glyph glyph-name="sixinferior" unicode="&#x2086;" horiz-adv-x="305" 
d="M139 175h99l-103 -115q38 -6 61.5 -35.5t23.5 -69.5q0 -62 -46 -108q-47 -48 -110 -48q-49 0 -80 31.5t-31 79.5q0 56 61 124zM75 -126q25 0 45 20t20 47q0 20 -11.5 32.5t-30.5 12.5q-12 0 -24 -5.5t-21.5 -14.5t-15.5 -21.5t-6 -25.5q0 -19 11.5 -32t32.5 -13z" />
    <glyph glyph-name="seveninferior" unicode="&#x2087;" horiz-adv-x="283" 
d="M125 94h-137l14 81h256l-8 -46l-227 -324h-95z" />
    <glyph glyph-name="eightinferior" unicode="&#x2088;" horiz-adv-x="302" 
d="M-44 -103q0 59 55 108q-14 20 -14 50q0 53 43 89q43 37 93 37q42 0 67.5 -24.5t25.5 -63.5q0 -52 -41 -87q24 -20 24 -66q0 -58 -47 -99q-47 -42 -103 -42q-48 0 -75.5 26.5t-27.5 71.5zM91 -31q-21 0 -38.5 -17.5t-17.5 -40.5q0 -17 11.5 -26.5t27.5 -9.5q9 0 19 4
t18.5 11.5t13.5 17.5t5 22q0 17 -11.5 28t-27.5 11zM118 105q-16 0 -29.5 -12t-13.5 -28q0 -11 9 -19t22 -8q16 0 27.5 12t11.5 27q0 11 -7.5 19.5t-19.5 8.5z" />
    <glyph glyph-name="nineinferior" unicode="&#x2089;" horiz-adv-x="305" 
d="M55 -195h-99l103 115q-38 6 -61.5 35.5t-23.5 69.5q0 62 46 108q46 48 110 48q49 0 80 -31.5t31 -79.5q0 -56 -61 -124zM119 106q-25 0 -45 -20t-20 -47q0 -20 11.5 -32.5t30.5 -12.5q12 0 24 5.5t21.5 14.5t15.5 21t6 26q0 19 -11.5 32t-32.5 13z" />
    <glyph glyph-name="parenleftinferior" unicode="&#x208d;" horiz-adv-x="203" 
d="M99 213h84q-15 -19 -27 -36l-22 -31q-20 -29 -39 -85t-19 -117q0 -98 40 -175h-75q-2 4 -6.5 15t-7.5 16q-2 5 -6 16t-7 18q-7 23 -12.5 49.5t-5.5 60.5q0 45 8 83.5t28 76.5l30 54z" />
    <glyph glyph-name="parenrightinferior" unicode="&#x208e;" horiz-adv-x="203" 
d="M-87 -232q15 19 27 36l22 31t19 35t19 50q20 58 20 117q0 98 -40 175h75q2 -4 6.5 -15l6.5 -16q3 -5 7 -16t6 -18q19 -46 19 -110q0 -45 -8 -83.5t-29 -76.5q-20 -39 -30 -54q-8 -14 -36 -55h-84z" />
    <glyph glyph-name="Euro" unicode="&#x20ac;" horiz-adv-x="666" 
d="M437 123q76 0 174 65l-35 -163q-83 -36 -156 -36q-120 0 -203 71q-83 72 -99 186h-95l17 76h75q2 19 5.5 38.5t8.5 40.5h-73l17 76h85q55 109 159 178q103 69 221 69q78 0 156 -42l-32 -150q-65 57 -139 57q-63 0 -118 -30t-93 -82h259l-17 -76h-283q-14 -39 -16 -79h283
l-17 -76h-258q17 -57 62.5 -90t111.5 -33z" />
    <glyph glyph-name="trademark" unicode="&#x2122;" horiz-adv-x="880" 
d="M837 712v-416h-89v252l-107 -252h-62l-104 255v-255h-88v416h110l114 -266l116 266h110zM346 712v-84h-108v-332h-87v332h-107v84h302z" />
    <glyph glyph-name="uni2126" unicode="&#x2126;" horiz-adv-x="783" 
d="M610 130l34.5 3.5t26.5 1.5h57l-28 -135h-304l31 146q86 35 142 110q57 76 57 163q0 76 -46.5 123t-128.5 47q-101 0 -178 -74q-75 -74 -75 -178q0 -30 9 -59t25.5 -54t39 -45t49.5 -33l-31 -146h-288l28 135h57q14 0 29.5 -1.5t31.5 -3.5l1 7q-89 77 -89 196
q0 163 120 277t283 114q137 0 219 -82q83 -83 83 -213q0 -186 -154 -292z" />
    <glyph glyph-name="estimated" unicode="&#x212e;" horiz-adv-x="760" 
d="M649 130q-51 -67 -123 -104t-151 -37q-133 0 -234 98q-100 99 -100 237q0 142 100 238q100 97 234 97q136 0 235 -99q99 -98 99 -236v-18h-542v-195q89 -86 208 -86q130 0 216 105h58zM167 343h417v194q-89 86 -209 86q-124 0 -208 -86v-194z" />
    <glyph glyph-name="arrowleft" unicode="&#x2190;" horiz-adv-x="826" 
d="M607 712l-287 -288h449v-137h-449l287 -287h-194l-356 356l356 356h194z" />
    <glyph glyph-name="arrowup" unicode="&#x2191;" horiz-adv-x="826" 
d="M769 162l-288 287v-449h-137v449l-287 -287v194l356 356l356 -356v-194z" />
    <glyph glyph-name="arrowright" unicode="&#x2192;" horiz-adv-x="826" 
d="M219 0l287 288h-449v137h449l-287 287h194l356 -356l-356 -356h-194z" />
    <glyph glyph-name="arrowdown" unicode="&#x2193;" horiz-adv-x="826" 
d="M57 550l288 -287v449h137v-449l287 287v-194l-356 -356l-356 356v194z" />
    <glyph glyph-name="partialdiff" unicode="&#x2202;" horiz-adv-x="619" 
d="M531 645q64 -67 64 -204q0 -82 -22.5 -160.5t-67.5 -144.5q-43 -66 -115 -106.5t-163 -40.5q-85 0 -137 52t-52 135q0 69 32.5 131.5t83.5 105.5t111.5 69t114.5 26q42 0 66 -6q-39 90 -154 90q-11 0 -27 -2l-31.5 -4t-28.5 -4t-16 -3l-6 125q10 4 54 12q22 4 41 6t36 2
q142 0 217 -79zM246 121q67 0 129 59q63 58 63 127q0 33 -20.5 53t-54.5 20q-64 0 -125 -61q-60 -60 -60 -127q0 -33 18 -52t50 -19z" />
    <glyph glyph-name="uni2206" unicode="&#x2206;" horiz-adv-x="704" 
d="M205 136h265l-53 238q-3 11 -5 27.5l-4 33t-3.5 30.5t-2.5 19h-7l-26 -57.5t-27 -53.5zM8 0l15 89l365 623h92l144 -622l-16 -90h-600z" />
    <glyph glyph-name="product" unicode="&#x220f;" horiz-adv-x="659" 
d="M96 578l29 134h611l-29 -134h-62l-169 -797h-139l169 797h-208l-169 -797h-139l169 797h-63z" />
    <glyph glyph-name="summation" unicode="&#x2211;" horiz-adv-x="618" 
d="M125 712h563l-29 -134h-400l141 -330l-262 -331h388l-29 -136h-569l25 116l287 366l-140 332z" />
    <glyph glyph-name="minus" unicode="&#x2212;" 
d="M46 177v129h483v-129h-483z" />
    <glyph glyph-name="radical" unicode="&#x221a;" horiz-adv-x="542" 
d="M502 764h138l-380 -764h-141l-17 216h-83l29 136h171l16 -135z" />
    <glyph glyph-name="infinity" unicode="&#x221e;" horiz-adv-x="712" 
d="M503 112q-84 0 -148 82q-68 -81 -149 -81q-38 0 -68.5 13.5t-53 37.5t-34.5 57.5t-12 74.5q0 82 46 132q46 52 122 52q83 0 146 -81q64 81 151 81q74 0 120 -52q47 -52 47 -132q0 -81 -47 -133q-47 -51 -120 -51zM495 354q-35 0 -73 -59q37 -58 73 -58q21 0 34.5 16.5
t13.5 42.5t-13.5 42t-34.5 16zM212 237q32 0 74 59q-36 58 -74 58q-21 0 -34.5 -16.5t-13.5 -41.5q0 -26 13.5 -42.5t34.5 -16.5z" />
    <glyph glyph-name="integral" unicode="&#x222b;" horiz-adv-x="388" 
d="M448 586q-35 12 -64 12q-23 0 -39.5 -18.5t-21.5 -41.5l-122 -572q-9 -43 -27 -79t-45 -62t-63.5 -40.5t-83.5 -14.5q-19 0 -63 10l27 128q35 -13 62 -13q23 0 39.5 18.5t21.5 42.5l122 572q9 43 27 79t45 62t63.5 40.5t83.5 14.5q19 0 65 -10z" />
    <glyph glyph-name="therefore" unicode="&#x2234;" 
d="M124 153q33 0 56 -23.5t23 -56.5t-23 -55.5t-56 -22.5q-32 0 -55 22.5t-23 55.5t23 56.5t55 23.5zM449 153q33 0 56 -23.5t23 -56.5t-23 -55.5t-56 -22.5q-32 0 -55 22.5t-23 55.5t23 56.5t55 23.5zM287 476q33 0 56 -23.5t23 -56.5t-23 -55.5t-56 -22.5q-32 0 -55 22.5
t-23 55.5t23 56.5t55 23.5z" />
    <glyph glyph-name="approxequal" unicode="&#x2248;" 
d="M569 364q-17 -26 -36 -49t-40 -40t-43 -27.5t-43 -10.5q-38 0 -111 36q-73 37 -82 37q-31 0 -77 -66l-93 66q81 126 162 126q22 1 54.5 -10.5t63 -25.5l53.5 -25.5t28 -10.5q14 0 26 14.5t30 45.5q5 9 6 11zM44 99q81 126 162 126q35 0 109 -36q73 -36 83 -36
q18 0 40 19.5t38 45.5l93 -65q-81 -126 -162 -126q-43 0 -119 36q-77 36 -80 36q-17 1 -30 -20l-32 -51z" />
    <glyph glyph-name="notequal" unicode="&#x2260;" 
d="M59 396h254l59 115l102 -53l-32 -62h100v-128h-167l-27 -53h194v-130h-262l-58 -112l-101 50l32 62h-94v130h161l26 53h-187v128z" />
    <glyph glyph-name="lessequal" unicode="&#x2264;" 
d="M543 648v-139l-281 -118l281 -116v-139l-485 206v99zM61 119h482v-129h-482v129z" />
    <glyph glyph-name="greaterequal" unicode="&#x2265;" 
d="M58 509v139l485 -207v-99l-485 -206v139l280 116zM58 119h482v-129h-482v129z" />
    <glyph glyph-name="triagup" unicode="&#x25b2;" horiz-adv-x="826" 
d="M769 55h-712l356 617z" />
    <glyph glyph-name="triagrt" unicode="&#x25ba;" horiz-adv-x="826" 
d="M104 0v712l617 -356z" />
    <glyph glyph-name="triagdn" unicode="&#x25bc;" horiz-adv-x="826" 
d="M57 651h712l-356 -617z" />
    <glyph glyph-name="triaglf" unicode="&#x25c4;" horiz-adv-x="826" 
d="M721 709v-712l-617 356z" />
    <glyph glyph-name="lozenge" unicode="&#x25ca;" horiz-adv-x="595" 
d="M594 298l-314 -426h-123l-129 426l310 426h123zM367 532l-188 -249l76 -218l184 244z" />
    <glyph glyph-name="slash.small" unicode="&#xe00c;" horiz-adv-x="324" 
d="M-66 -33l369 643l98 -57l-370 -642z" />
    <glyph glyph-name="backslash.small" unicode="&#xe00d;" horiz-adv-x="333" 
d="M185 592l97 -645l-124 -18l-97 645z" />
    <glyph glyph-name="bar.small" unicode="&#xe00e;" horiz-adv-x="199" 
d="M175 579v-615h-114v615h114z" />
    <glyph glyph-name="zero.small" unicode="&#xe019;" horiz-adv-x="486" 
d="M299 543q76 0 118.5 -41.5t42.5 -129.5q0 -46 -8 -83l-10 -47q-26 -124 -90 -187t-151 -63q-162 0 -162 171q0 46 8 84l10 47q26 124 90 186.5t152 62.5zM215 115q29 0 55.5 33t40.5 105l7 35q9 43 9 70q0 61 -41 61q-31 0 -57.5 -33.5t-40.5 -103.5l-7 -35
q-9 -45 -9 -71q0 -61 43 -61z" />
    <glyph glyph-name="one.small" unicode="&#xe01a;" horiz-adv-x="370" 
d="M243 534h113l-113 -534h-133l75 352l-148 -97l34 157z" />
    <glyph glyph-name="two.small" unicode="&#xe01b;" horiz-adv-x="418" 
d="M198 123h154l-25 -123h-347l22 107l194 174q77 68 77 98q0 17 -11.5 28.5t-28.5 11.5q-18 0 -39.5 -6t-44 -17t-45 -27t-41.5 -36l34 162q84 48 150 48q68 0 113 -42q46 -40 46 -103q0 -54 -29 -98q-28 -42 -96 -103z" />
    <glyph glyph-name="three.small" unicode="&#xe01c;" horiz-adv-x="407" 
d="M110 224l23 116h23q45 0 71 13t26 33q0 14 -11 23.5t-26 9.5q-81 0 -145 -38l28 130q72 32 133 32q66 0 110 -39q45 -38 45 -98q0 -79 -65 -129q40 -34 40 -84q0 -88 -63 -145q-64 -56 -154 -56q-85 0 -150 34l23 119q46 -29 134 -29q31 0 54 16.5t23 45.5q0 19 -26 32.5
t-62 13.5h-31z" />
    <glyph glyph-name="four.small" unicode="&#xe01d;" horiz-adv-x="475" 
d="M382 217h52l-26 -122h-52l-20 -95h-132l20 95h-223l24 114l299 325h125zM254 210l13 65l5.5 19.5l8.5 29.5l8.5 28.5t4.5 16.5h-10q-38 -53 -66 -84l-67 -75h103z" />
    <glyph glyph-name="five.small" unicode="&#xe01e;" horiz-adv-x="446" 
d="M217 360h17q75 0 113.5 -41.5t38.5 -110.5q-1 -85 -66 -151q-65 -65 -154 -65q-94 0 -158 41l25 123q49 -42 139 -42q36 0 59 24t23 61q0 45 -48 45q-46 0 -98 -33l-60 33l102 290h286l-25 -117h-173z" />
    <glyph glyph-name="six.small" unicode="&#xe01f;" horiz-adv-x="450" 
d="M287 534h157l-150 -166q55 -13 88 -55.5t34 -99.5q2 -87 -64 -154t-157 -67q-75 0 -124 46q-49 47 -50 117q0 35 13 68q7 17 14 31t14 25t17 24l24 30zM203 114q31 0 55 25q25 25 24 58q0 23 -15 38t-37 15q-15 0 -28.5 -7t-24.5 -18.5t-17 -26.5t-6 -32
q0 -21 13.5 -36.5t35.5 -15.5z" />
    <glyph glyph-name="seven.small" unicode="&#xe020;" horiz-adv-x="422" 
d="M249 412h-195l19 122h381l-13 -71l-316 -463h-153z" />
    <glyph glyph-name="eight.small" unicode="&#xe021;" horiz-adv-x="456" 
d="M28 141q0 42 22 83t58 67q-22 29 -22 71q0 77 61 129t133 52q32 0 58.5 -10t46 -28.5t30.5 -44t11 -55.5q0 -25 -14.5 -58t-42.5 -58q33 -33 33 -97q0 -83 -65 -142q-64 -58 -147 -58q-36 0 -66 11t-51 30.5t-33 47t-12 60.5zM276 184q0 21 -14 35t-31 15
q-15 0 -28.5 -6.5t-24 -17t-17 -24.5t-6.5 -29q0 -22 15 -36t34 -14q26 0 49 23t23 54zM269 430q-21 0 -40.5 -17t-19.5 -41q0 -14 10 -25t25 -11q22 0 39.5 17.5t17.5 40.5q0 15 -9 25.5t-23 10.5z" />
    <glyph glyph-name="nine.small" unicode="&#xe022;" horiz-adv-x="450" 
d="M175 0h-157l150 167q-54 13 -87 55.5t-35 99.5q-2 86 64 153q66 68 157 68q75 0 124 -47q48 -46 50 -117q1 -32 -13 -69q-7 -17 -14 -30.5t-14 -23.5q-14 -20 -42 -54zM260 421q-31 0 -56 -25t-24 -58q1 -24 15.5 -38.5t36.5 -14.5q15 0 28.5 7t24.5 18.5t17 26.5t6 32
q0 21 -13 36.5t-35 15.5z" />
    <glyph glyph-name="dollar.small" unicode="&#xe023;" horiz-adv-x="426" 
d="M257 331l24 -14t19 -12t18 -13l20 -16q43 -36 43 -91q0 -82 -57 -136q-55 -52 -139 -57l-9 -40h-40l9 42q-71 10 -122 61l32 150q64 -76 116 -88l21 100l-44 25q-16 11 -37 28q-43 37 -43 93q0 80 55 129q55 51 138 51l9 41h41l-10 -45q62 -11 104 -51l-29 -137
q-52 48 -101 64zM192 384q0 -18 29 -33l14 68q-43 -6 -43 -35zM212 118q20 2 33.5 13t12.5 29q-1 22 -30 37z" />
    <glyph glyph-name="percent.small" unicode="&#xe024;" horiz-adv-x="661" 
d="M211 543q108 0 108 -105q0 -6 -1 -18t-3 -30q-28 -145 -155 -145q-109 0 -109 104q0 25 5 48q15 73 56.5 109.5t98.5 36.5zM171 337q12 0 24 12t18 38q4 15 4 39q0 25 -16 25q-13 0 -25.5 -14t-18.5 -40q-3 -15 -3 -35q0 -25 17 -25zM515 292q109 0 109 -102
q0 -11 -1.5 -23t-3.5 -26q-25 -145 -155 -145q-109 0 -109 103q0 20 5 48q31 145 155 145zM475 87q12 0 24 11t19 35l-1 -1q2 11 3.5 21.5t1.5 21.5q0 26 -17 26q-13 0 -25 -14t-18 -41q-4 -17 -4 -33q0 -26 17 -26zM560 494l-370 -513l-76 52l371 513z" />
    <glyph glyph-name="at.small" unicode="&#xe025;" horiz-adv-x="749" 
d="M366 -164q-160 0 -250 97q-89 97 -89 238q0 163 110 267t266 104q132 0 221 -71t89 -193q0 -119 -69 -203q-69 -83 -143 -83q-50 0 -70 41q-52 -41 -110 -41q-36 0 -63.5 12.5t-47 35t-29.5 52.5t-10 66q0 88 56 155q57 67 143 67q46 0 97 -39l9 30h96l-55 -257
q-3 -12 -3 -21q0 -8 7 -8q35 0 64 54q30 55 30 124q0 96 -57.5 141t-160.5 45q-115 0 -194 -78t-79 -196q0 -110 63 -177q64 -69 191 -69zM335 86q38 0 65 33t36 74l11 52q-29 38 -82 38q-45 0 -69 -37q-23 -37 -23 -82q0 -36 16 -57t46 -21z" />
    <glyph glyph-name="cent.small" unicode="&#xe026;" horiz-adv-x="358" 
d="M310 231q-37 28 -57 35l-32 -153q34 9 86 41l-30 -140q-48 -19 -82 -22l-10 -47h-40l10 49q-31 4 -56.5 18.5t-43.5 35.5t-27.5 48.5t-9.5 59.5q0 95 66 163q68 68 155 69l8 42h41l-9 -46q30 -6 59 -24zM147 169q0 -43 33 -56l33 155q-27 -9 -46.5 -36t-19.5 -63z" />
    <glyph glyph-name="sterling.small" unicode="&#xe027;" horiz-adv-x="450" 
d="M306 423q-22 0 -42.5 -18t-27.5 -42l-27 -126h153l-11 -52h-153l-14 -65h207l-24 -120h-383l24 120h48l14 65h-48l11 52h48l27 130q15 75 73 125q58 51 145 51q48 0 96 -27l-27 -125q-38 32 -89 32z" />
    <glyph glyph-name="copyright.small" unicode="&#xe028;" horiz-adv-x="620" 
d="M317 435q35 0 78 -20v-98q-47 38 -78 38q-37 0 -61 -26t-24 -63t24 -62.5t61 -25.5q31 0 78 37v-97q-44 -21 -78 -21q-69 0 -118 49t-49 120q0 70 49 119q50 50 118 50zM305 542q113 0 193 -81q81 -81 81 -195q0 -113 -81 -194q-80 -80 -193 -80t-195 80q-80 82 -80 194
q0 113 80 195q81 81 195 81zM508 266q0 84 -60 143q-59 59 -143 59t-143 -59q-58 -58 -58 -143t58 -143q59 -59 143 -59t143 59q60 60 60 143z" />
    <glyph glyph-name="yen.small" unicode="&#xe029;" horiz-adv-x="504" 
d="M557 534l-145 -184h61l-11 -52h-91l-47 -61h125l-11 -52h-136l-39 -185h-131l39 185h-137l11 52h126l-22 61h-91l11 52h61l-66 184h141l42 -112q11 -26 15 -61h6l23 35.5t18 25.5l91 112h157z" />
    <glyph glyph-name="Euro.small" unicode="&#xe02a;" horiz-adv-x="511" 
d="M378 419q-81 0 -135 -69h159l-11 -52h-177q-11 -31 -11 -61h175l-11 -52h-156q12 -32 39.5 -51t65.5 -19q73 0 146 50l-31 -142q-66 -31 -127 -31q-91 0 -156 53q-63 54 -75 140h-60l11 52h46q1 31 9 61h-42l11 52h50q38 84 119 139q79 54 171 54q59 0 130 -38l-28 -132
q-49 46 -112 46z" />
    <glyph glyph-name="germandbls.small" unicode="&#xe02b;" horiz-adv-x="885" 
d="M645 384q0 -8 7.5 -16.5t20.5 -17.5t28.5 -18.5t32.5 -18.5t33 -22t29 -29.5t20.5 -36t7.5 -40.5q0 -84 -60 -139q-60 -54 -146 -54q-92 0 -155 63l34 130q25 -30 63 -50t71 -20q24 0 42 12t18 33q0 9 -7.5 18.5t-20.5 19t-29 18.5l-33 18t-33 21.5t-29 29t-20.5 36.5
t-7.5 42q0 81 55 130q56 50 135 50q93 0 149 -55l-30 -128q-26 25 -65 42q-39 18 -66 18q-16 0 -30 -9.5t-14 -26.5zM212 384q0 -8 7.5 -16.5t20.5 -17.5t28.5 -18.5t32.5 -18.5t33 -22t29 -29.5t20.5 -36t7.5 -40.5q0 -84 -60 -139q-60 -54 -146 -54q-92 0 -155 63l34 130
q25 -30 63 -50t71 -20q24 0 42 12t18 33q0 9 -7.5 18.5t-20.5 19t-29 18.5l-33 18t-33 21.5t-29 29t-20.5 36.5t-7.5 42q0 81 55 130q56 50 135 50q93 0 149 -55l-30 -128q-26 25 -65 42q-39 18 -66 18q-16 0 -30 -9.5t-14 -26.5z" />
    <glyph glyph-name="dotlessi.small" unicode="&#xe02c;" horiz-adv-x="277" 
d="M267 534l-113 -534h-133l113 534h133z" />
    <glyph glyph-name="ampersand.01" unicode="&#xe37a;" horiz-adv-x="826" 
d="M292 0l61 287h-287l29 137h287l61 288h137l-61 -288h288l-29 -137h-288l-61 -287h-137z" />
    <glyph glyph-name="f_j" unicode="&#xe380;" horiz-adv-x="608" 
d="M542 604q-91 46 -162 46q-30 0 -58 -22q-29 -23 -36 -51l-9 -43h318l-115 -543q-19 -92 -83 -154q-62 -62 -161 -62q-24 0 -64 8l27 122q25 -9 58 -9q32 0 56 24.5t31 56.5l94 446h-185l-89 -423h-133l89 423h-68l24 111h68l9 43q18 83 83 140q64 58 147 58q98 0 188 -35
z" />
    <glyph glyph-name="f_b" unicode="&#xe381;" horiz-adv-x="980" 
d="M947 320q0 -82 -36 -157q-35 -74 -107 -124q-71 -50 -162 -50q-39 0 -83 22q-45 22 -68 55l-19 -66h-124l134 634q-58 16 -102 16q-30 0 -58 -22q-29 -23 -36 -51l-9 -43h132l-24 -111h-132l-89 -423h-133l89 423h-68l24 111h68l9 43q18 83 83 140q64 58 147 58
q118 0 252 -49l-50 -236q91 56 147 56q103 0 159 -65t56 -161zM647 114q70 0 116 58t46 134q0 52 -26.5 83.5t-77.5 31.5q-62 0 -108 -46q-47 -45 -60 -108l-15 -72q13 -28 45 -55q34 -26 80 -26z" />
    <glyph glyph-name="f_f_b" unicode="&#xe382;" horiz-adv-x="1298" 
d="M1265 320q0 -82 -36 -157q-35 -74 -107 -124q-71 -50 -162 -50q-39 0 -83 22q-45 22 -68 55l-19 -66h-124l134 634q-58 16 -102 16q-30 0 -58 -22q-29 -23 -36 -51l-9 -43h132l-24 -111h-132l-89 -423h-133l89 423h-185l-89 -423h-133l89 423h-68l24 111h68l7 32
q18 83 83 140q64 58 147 58q41 0 81 -8l-27 -130q-35 13 -58 13q-30 0 -58 -22q-29 -23 -35 -51l-7 -32h185l9 43q18 83 83 140q64 58 147 58q118 0 252 -49l-50 -236q91 56 147 56q103 0 159 -65t56 -161zM965 114q70 0 116 58t46 134q0 52 -26.5 83.5t-77.5 31.5
q-62 0 -108 -46q-47 -45 -60 -108l-15 -72q13 -28 45 -55q34 -26 80 -26z" />
    <glyph glyph-name="f_f_h" unicode="&#xe383;" horiz-adv-x="1258" 
d="M76 534h68l7 32q18 83 83 140q64 58 147 58q41 0 81 -8l-27 -130q-35 13 -58 13q-30 0 -58 -22q-29 -23 -35 -51l-7 -32h185l9 43q18 83 83 140q64 58 147 58q118 0 252 -49l-54 -254q21 19 39 33t35 23t34.5 13.5t38.5 4.5q159 0 159 -153q0 -23 -1.5 -44t-5.5 -38
l-66 -311h-133l63 299q5 25 5 42q0 80 -75 80q-12 0 -25.5 -4t-27 -10.5t-25.5 -14t-21 -14.5l-17 -14l-77 -364h-133l134 634q-58 16 -102 16q-30 0 -58 -22q-29 -23 -36 -51l-9 -43h132l-24 -111h-132l-89 -423h-133l89 423h-185l-89 -423h-133l89 423h-68z" />
    <glyph glyph-name="f_f_j" unicode="&#xe384;" horiz-adv-x="926" 
d="M517 -95q25 -9 58 -9q32 0 56.5 24.5t30.5 56.5l94 446h-185l-89 -423h-133l89 423h-185l-89 -423h-133l89 423h-68l24 111h68l7 32q18 83 83 140q64 58 147 58q41 0 81 -8l-27 -130q-35 13 -58 13q-30 0 -58 -22q-29 -23 -35 -51l-7 -32h185l9 43q18 83 83 140
q64 58 147 58q98 0 188 -35l-29 -136q-91 46 -162 46q-30 0 -58 -22q-29 -23 -36 -51l-9 -43h318l-115 -543q-19 -92 -83 -154q-62 -62 -161 -62q-24 0 -64 8z" />
    <glyph glyph-name="f_f_k" unicode="&#xe385;" horiz-adv-x="1219" 
d="M1078 534h170l-281 -255l176 -279h-153l-116 197l-41 -35l-34 -162h-133l134 634q-58 16 -102 16q-30 0 -58 -22q-29 -23 -36 -51l-9 -43h132l-24 -111h-132l-89 -423h-133l89 423h-185l-89 -423h-133l89 423h-68l24 111h68l7 32q18 83 83 140q64 58 147 58q41 0 81 -8
l-27 -130q-35 13 -58 13q-30 0 -58 -22q-29 -23 -35 -51l-7 -32h185l9 43q18 83 83 140q64 58 147 58q118 0 252 -49l-61 -288l-23 -95h8l44 45.5t25 24.5z" />
    <glyph glyph-name="f_h" unicode="&#xe386;" horiz-adv-x="940" 
d="M76 534h68l9 43q18 83 83 140q64 58 147 58q118 0 252 -49l-54 -254q21 19 39 33t35 23t34.5 13.5t38.5 4.5q159 0 159 -153q0 -23 -1.5 -44t-5.5 -38l-66 -311h-133l63 299q5 25 5 42q0 80 -75 80q-12 0 -25.5 -4t-27 -10.5t-25.5 -14t-21 -14.5l-17 -14l-77 -364h-133
l134 634q-58 16 -102 16q-30 0 -58 -22q-29 -23 -36 -51l-9 -43h132l-24 -111h-132l-89 -423h-133l89 423h-68z" />
    <glyph glyph-name="f_k" unicode="&#xe388;" horiz-adv-x="901" 
d="M760 534h170l-281 -255l176 -279h-153l-116 197l-41 -35l-34 -162h-133l134 634q-58 16 -102 16q-30 0 -58 -22q-29 -23 -36 -51l-9 -43h132l-24 -111h-132l-89 -423h-133l89 423h-68l24 111h68l9 43q18 83 83 140q64 58 147 58q118 0 252 -49l-61 -288l-23 -95h8
l44 45.5t25 24.5z" />
    <glyph glyph-name="f_t" unicode="&#xe389;" horiz-adv-x="686" 
d="M613 0q-38 -9 -70 -9q-81 0 -120 41t-39 110q0 36 7 63l47 219h-184l-90 -424h-133l90 424h-69l23 110h69l9 43q18 83 83 140q65 58 148 58q23 0 43.5 -2t39.5 -6l-28 -130q-35 13 -58 13q-30 0 -59 -22q-29 -23 -36 -51l-9 -43h184q2 8 4.5 20t5.5 29l10 49l146 56
l-34 -154h133l-24 -110h-132l-47 -224q-3 -18 -3 -23q0 -64 68 -64q10 0 22 2t28 6z" />
    <glyph glyph-name="t_f" unicode="&#xe38a;" horiz-adv-x="721" 
d="M300 0q-38 -9 -70 -9q-81 0 -120 41t-39 110q0 36 7 63l47 219h-69l24 110h68q2 8 4.5 20t5.5 29l10 49l146 56l-34 -154h227l9 43q18 83 83 140q65 58 148 58q23 0 43.5 -2t39.5 -6l-28 -130q-35 13 -58 13q-30 0 -59 -22q-29 -23 -36 -51l-9 -43h132l-23 -110h-132
l-90 -424h-133l90 424h-227l-47 -224q-3 -18 -3 -23q0 -64 68 -64q10 0 22 2t28 6z" />
    <glyph glyph-name="t_t" unicode="&#xe38b;" horiz-adv-x="736" 
d="M663 0q-38 -9 -70 -9q-81 0 -120 41t-39 110q0 36 7 63l47 219h-231l-47 -224q-3 -18 -3 -23q0 -64 68 -64q10 0 22 2t28 6l-25 -121q-38 -9 -70 -9q-81 0 -120 41t-39 110q0 36 7 63l47 219h-69l24 110h68q2 7 4.5 19t4.5 24l4 23.5t4 19.5l146 56l-31 -142h231
q2 8 4.5 20t5.5 29l10 49l146 56l-34 -154h133l-24 -110h-132l-47 -224q-3 -18 -3 -23q0 -64 68 -64q10 0 22 2t28 6z" />
    <glyph glyph-name="parenleft.uc" unicode="&#xe440;" horiz-adv-x="320" 
d="M394 800l-40.5 -52t-32.5 -45t-30 -49l-35 -63q-36 -69 -55 -152t-19 -177q0 -185 80 -348h-122l-12 26l-12 29l-3.5 10t-7.5 18q-5 10 -7.5 17.5l-4.5 13.5l-4.5 13t-5.5 18q-7 22 -10 36.5t-8 36.5q-7 31 -9.5 62t-2.5 68q0 26 1.5 52t5.5 52t8 48t9 42.5t12 41
t17 44.5l19 41t13 31q6 13 16.5 30l24.5 40t23.5 37l14.5 21t14.5 21.5t25.5 36.5h137z" />
    <glyph glyph-name="parenright.uc" unicode="&#xe441;" horiz-adv-x="319" 
d="M-25 -86l40 52t32 45t30.5 48.5t34.5 62.5q37 70 56 153t19 177q0 185 -80 348h122l11 -26q11 -23 12 -29l12 -28q9 -22 12 -31l10 -32q7 -21 10 -35.5t8 -36.5q7 -31 9.5 -62t2.5 -68q0 -26 -2 -52.5t-6 -52.5q-3 -26 -7 -47.5t-9 -42t-12.5 -41t-17.5 -44.5l-18 -41
l-14 -31q-5 -13 -15.5 -30l-24.5 -40t-23.5 -37l-14.5 -21t-14.5 -21.5t-25.5 -36.5h-137z" />
    <glyph glyph-name="hyphen.uc" unicode="&#xe442;" horiz-adv-x="334" 
d="M72 417h267l-26 -123h-267z" />
    <glyph glyph-name="bracketleft.uc" unicode="&#xe443;" horiz-adv-x="336" 
d="M408 703h-93l-146 -686h93l-27 -127h-227l200 940h227z" />
    <glyph glyph-name="bracketright.uc" unicode="&#xe444;" horiz-adv-x="336" 
d="M219 703h-93l27 127h227l-200 -940h-226l26 127h93z" />
    <glyph glyph-name="braceleft.uc" unicode="&#xe460;" horiz-adv-x="324" 
d="M224 361q24 -36 24 -80q0 -22 -4 -37q-6 -26 -51 -95t-45 -101q0 -15 8 -23.5t19 -8.5h70l-27 -124h-70q-31 0 -56.5 10t-43.5 28t-27.5 42.5t-9.5 52.5q0 20 4 35q7 34 51 105q45 70 45 91q0 43 -66 43l26 124q39 0 64.5 17.5t25.5 52.5q0 14 -11 66q-10 47 -10 75
q0 74 64 135t144 61h70l-27 -124h-70q-17 0 -31.5 -18t-14.5 -50q0 -25 10 -69q5 -23 8 -40t3 -28q0 -76 -72 -140z" />
    <glyph glyph-name="bar.uc" unicode="&#xe461;" horiz-adv-x="274" 
d="M235 840v-980h-112v980h112z" />
    <glyph glyph-name="braceright.uc" unicode="&#xe462;" horiz-adv-x="324" 
d="M152 361q-24 36 -24 80q0 22 4 37q4 25 50 95q46 68 46 101q0 15 -8 23.5t-19 8.5h-70l27 124h70q31 0 56.5 -10t43.5 -28t27.5 -42.5t9.5 -52.5q0 -5 -1 -14t-3 -21q-4 -17 -17 -43.5t-35 -61.5q-44 -71 -44 -91q0 -43 66 -43l-26 -124q-39 0 -64.5 -17.5t-25.5 -52.5
q0 -20 10 -67q11 -52 11 -75q0 -74 -65 -134q-64 -61 -143 -61h-69l26 124h70q17 0 31.5 18t14.5 50q0 20 -11 69q-10 44 -10 68q0 72 72 140z" />
    <glyph glyph-name="slash.uc" unicode="&#xe463;" horiz-adv-x="460" 
d="M459 818l98 -57l-500 -868l-96 57z" />
    <glyph glyph-name="questiondown.uc" unicode="&#xe464;" horiz-adv-x="480" 
d="M209 645q0 30 27 54q28 24 61 24q31 0 51 -19t20 -48q0 -18 -7 -34.5t-19 -29t-28 -20t-34 -7.5q-34 0 -52.5 23.5t-18.5 56.5zM122 -6q-37 0 -67.5 11t-52 30.5t-33 47.5t-11.5 63q0 44 15.5 77.5t39 60t51.5 47.5l53 40.5t43.5 39t23.5 42.5l15 70h131l-19 -91
q-6 -31 -24.5 -56.5t-43 -47.5t-51 -42t-48.5 -39t-36.5 -38t-14.5 -40q0 -47 56 -47q60 0 124 41l-32 -147q-60 -22 -119 -22z" />
    <glyph glyph-name="exclamdown.uc" unicode="&#xe465;" horiz-adv-x="293" 
d="M214 524l-113 -530h-132l113 530h132zM155 553q-28 0 -46 18.5t-18 45.5q0 37 30 66q31 28 68 28q28 0 45.5 -16.5t17.5 -43.5q0 -39 -30 -69q-31 -29 -67 -29z" />
    <glyph glyph-name="backslash.uc" unicode="&#xe466;" horiz-adv-x="460" 
d="M380 -69l-127 -19l-130 868l127 19z" />
    <glyph glyph-name="endash.uc" unicode="&#xe470;" horiz-adv-x="515" 
d="M72 417h447l-26 -123h-447z" />
    <glyph glyph-name="emdash.uc" unicode="&#xe471;" horiz-adv-x="924" 
d="M72 417h856l-26 -123h-856z" />
    <glyph glyph-name="guilsinglleft.uc" unicode="&#xe472;" horiz-adv-x="329" 
d="M367 550l-177 -199l88 -189h-134l-92 199l167 189h148z" />
    <glyph glyph-name="guilsinglright.uc" unicode="&#xe473;" horiz-adv-x="329" 
d="M9 162l177 199l-88 189h133l94 -199l-169 -189h-147z" />
    <glyph glyph-name="guillemotleft.uc" unicode="&#xe474;" horiz-adv-x="537" 
d="M362 550l-177 -199l88 -189h-134l-92 199l167 189h148zM577 550l-177 -199l88 -189h-134l-93 199l168 189h148z" />
    <glyph glyph-name="guillemotright.uc" unicode="&#xe475;" horiz-adv-x="537" 
d="M223 162l178 199l-89 189h134l94 -199l-169 -189h-148zM9 162l177 199l-88 189h133l94 -199l-169 -189h-147z" />
    <glyph glyph-name="uni0200.small" unicode="&#xe540;" horiz-adv-x="580" 
d="M388 534l134 -534h-139l-25 107h-180l-65 -107h-150l341 534h84zM249 227h86l-12 88q-1 9 -2 22.5t-2 30.5h-4q-4 -12 -9.5 -25.5t-12.5 -27.5zM411 798l122 -149l-61 -53l-134 135zM243 798l121 -149l-60 -53l-134 135z" />
    <glyph glyph-name="uni0202.small" unicode="&#xe541;" horiz-adv-x="580" 
d="M388 534l134 -534h-139l-25 107h-180l-65 -107h-150l341 534h84zM249 227h86l-12 88q-1 9 -2 22.5t-2 30.5h-4q-4 -12 -9.5 -25.5t-12.5 -27.5zM579 656l-50 -60l-135 88l-156 -88l-42 60l207 147z" />
    <glyph glyph-name="uni0204.small" unicode="&#xe542;" horiz-adv-x="469" 
d="M21 0l113 534h334l-25 -122h-201l-17 -71h196l-24 -123h-197l-21 -95h202l-25 -123h-335zM364 798l122 -149l-61 -53l-134 135zM196 798l121 -149l-60 -53l-134 135z" />
    <glyph glyph-name="uni0206.small" unicode="&#xe543;" horiz-adv-x="469" 
d="M21 0l113 534h334l-25 -122h-201l-17 -71h196l-24 -123h-197l-21 -95h202l-25 -123h-335zM519 656l-50 -60l-135 88l-156 -88l-42 60l207 147z" />
    <glyph glyph-name="uni0208.small" unicode="&#xe544;" horiz-adv-x="277" 
d="M267 534l-113 -534h-133l113 534h133zM242 798l122 -149l-61 -53l-134 135zM74 798l121 -149l-60 -53l-134 135z" />
    <glyph glyph-name="uni020A.small" unicode="&#xe545;" horiz-adv-x="277" 
d="M267 534l-113 -534h-133l113 534h133zM424 656l-50 -60l-135 88l-156 -88l-42 60l207 147z" />
    <glyph glyph-name="uni020C.small" unicode="&#xe546;" horiz-adv-x="633" 
d="M362 543q103 0 169 -67q67 -66 67 -166q0 -129 -98 -224q-97 -94 -222 -94q-103 0 -169 66q-65 67 -65 166q0 129 97 223q97 96 221 96zM290 116q71 0 122 55q52 55 52 130q0 51 -30.5 84.5t-81.5 33.5q-70 0 -123 -56q-52 -55 -52 -130q0 -51 30.5 -84t82.5 -33z
M425 798l122 -149l-61 -53l-134 135zM257 798l121 -149l-60 -53l-134 135z" />
    <glyph glyph-name="uni020E.small" unicode="&#xe550;" horiz-adv-x="633" 
d="M362 543q103 0 169 -67q67 -66 67 -166q0 -129 -98 -224q-97 -94 -222 -94q-103 0 -169 66q-65 67 -65 166q0 129 97 223q97 96 221 96zM290 116q71 0 122 55q52 55 52 130q0 51 -30.5 84.5t-81.5 33.5q-70 0 -123 -56q-52 -55 -52 -130q0 -51 30.5 -84t82.5 -33z
M596 656l-50 -60l-135 88l-156 -88l-42 60l207 147z" />
    <glyph glyph-name="uni0210.small" unicode="&#xe551;" horiz-adv-x="508" 
d="M448 0h-151l-92 190h-11l-40 -190h-133l113 534h155q85 0 127.5 -39t42.5 -103q0 -63 -31.5 -111t-88.5 -72zM241 412l-20 -100h30q32 0 53 17.5t21 44.5q0 17 -13.5 27.5t-37.5 10.5h-33zM355 798l122 -149l-61 -53l-134 135zM187 798l121 -149l-60 -53l-134 135z" />
    <glyph glyph-name="uni0212.small" unicode="&#xe552;" horiz-adv-x="508" 
d="M448 0h-151l-92 190h-11l-40 -190h-133l113 534h155q85 0 127.5 -39t42.5 -103q0 -63 -31.5 -111t-88.5 -72zM241 412l-20 -100h30q32 0 53 17.5t21 44.5q0 17 -13.5 27.5t-37.5 10.5h-33zM510 656l-50 -60l-135 88l-156 -88l-42 60l207 147z" />
    <glyph glyph-name="uni0214.small" unicode="&#xe553;" horiz-adv-x="547" 
d="M465 197q-21 -95 -84 -150q-62 -55 -144 -55q-74 0 -127 44q-52 43 -52 120q0 11 1.5 23t3.5 24l70 331h132l-71 -332q-3 -15 -3 -27q0 -28 14.5 -43t37.5 -15q30 0 56 23t35 68l70 326h133zM404 798l122 -149l-61 -53l-134 135zM236 798l121 -149l-60 -53l-134 135z" />
    <glyph glyph-name="uni0216.small" unicode="&#xe554;" horiz-adv-x="547" 
d="M465 197q-21 -95 -84 -150q-62 -55 -144 -55q-74 0 -127 44q-52 43 -52 120q0 11 1.5 23t3.5 24l70 331h132l-71 -332q-3 -15 -3 -27q0 -28 14.5 -43t37.5 -15q30 0 56 23t35 68l70 326h133zM557 656l-50 -60l-135 88l-156 -88l-42 60l207 147z" />
    <glyph glyph-name="uni021A.small" unicode="&#xe555;" horiz-adv-x="399" 
d="M303 411l-87 -411h-134l87 411h-116l25 123h368l-27 -123h-116zM21 -262q24 52 43.5 104.5t33.5 107.5l117 10q-53 -133 -125 -234z" />
    <glyph glyph-name="quotedbl.small" unicode="&#xe640;" horiz-adv-x="401" 
d="M142 623h133l-82 -290h-93zM316 623h133l-82 -290h-92z" />
    <glyph glyph-name="quotesingle.small" unicode="&#xe641;" horiz-adv-x="226" 
d="M141 623h133l-81 -290h-93z" />
    <glyph glyph-name="quoteleft.small" unicode="&#xe642;" horiz-adv-x="269" 
d="M321 672q-34 -76 -59.5 -147.5t-43.5 -140.5l-148 -12q39 94 81 172t88 142z" />
    <glyph glyph-name="quoteright.small" unicode="&#xe643;" horiz-adv-x="269" 
d="M72 386q34 75 59.5 146.5t44.5 141.5l147 12q-38 -94 -80.5 -172t-88.5 -142z" />
    <glyph glyph-name="quotedblleft.small" unicode="&#xe644;" horiz-adv-x="489" 
d="M321 672q-34 -76 -59.5 -147.5t-43.5 -140.5l-148 -12q39 94 81 172t88 142zM540 672q-34 -76 -59.5 -147.5t-43.5 -140.5l-148 -12q39 94 81 172t88 142z" />
    <glyph glyph-name="quotedblright.small" unicode="&#xe645;" horiz-adv-x="489" 
d="M72 386q34 75 59.5 146.5t44.5 141.5l147 12q-38 -94 -80.5 -172t-88.5 -142zM291 386q34 75 59.5 146.5t44.5 141.5l147 12q-38 -94 -80.5 -172t-88.5 -142z" />
    <glyph glyph-name="M.alt1" unicode="&#xe646;" horiz-adv-x="836" 
d="M576 0l76 360q6 33 33 134h-6l-48.5 -48.5t-42.5 -37.5l-162 -133l-105 133q-34 41 -54 86h-7q-4 -38 -24 -134l-76 -360h-137l151 712h91l192 -243l294 243h113l-151 -712h-137z" />
    <glyph glyph-name="m.smallalt1" unicode="&#xe647;" horiz-adv-x="693" 
d="M364 372l196 162h123l-113 -534h-132l49 231q12 55 27 106h-7q-17 -20 -35.5 -37.5t-38.5 -33.5l-98 -81l-63 81q-31 41 -45 71h-6q-11 -76 -18 -106l-49 -231h-132l113 534h101z" />
    <glyph glyph-name="ampersand.alt1" unicode="&#xe648;" horiz-adv-x="711" 
d="M298 124q52 0 89 29t50 74l20 97h-105q-65 0 -114 -33t-49 -90q0 -37 29 -57t80 -20zM494 497l145 55l-25 -117h120l-24 -111h-120l-29 -136q-1 -6 -1.5 -10.5t-0.5 -6.5q0 -23 12.5 -38t35.5 -15q31 0 62 10l-27 -124q-35 -9 -68 -9q-43 0 -74.5 18t-47.5 45
q-78 -69 -175 -69q-111 0 -168.5 52t-57.5 140q0 130 115 200q-43 37 -43 95q0 103 82 175q82 73 186 73q84 0 145 -26l-31 -147q-56 38 -133 38q-20 0 -38.5 -6.5t-33 -17.5t-23.5 -27.5t-9 -35.5q0 -29 28.5 -48t77.5 -19h107z" />
    <glyph glyph-name="ampersand.smallalt1" unicode="&#xe649;" horiz-adv-x="597" 
d="M321 219h-49q-101 0 -101 -66q0 -20 17 -30t42 -10q28 0 51.5 17t29.5 44zM574 219h-120l-7 -34q-1 -6 -1.5 -10.5t-0.5 -7.5q0 -23 12 -37.5t35 -14.5q31 0 62 10l-26 -124q-36 -9 -68 -9q-68 0 -115 56q-71 -59 -136 -59q-81 0 -126 37.5t-45 103.5q0 39 20 84
q21 46 64 68q-31 19 -31 69q0 83 62 136t148 53q45 0 86 -11l-27 -127q-33 14 -72 14q-27 0 -44.5 -14t-17.5 -38q0 -17 14.5 -25.5t53.5 -8.5h51l7 35l145 55l-19 -90h120z" />
    <glyph glyph-name="alpha.small" unicode="&#xe800;" horiz-adv-x="580" 
d="M388 534l134 -534h-139l-25 107h-180l-65 -107h-150l341 534h84zM249 227h86l-12 88q-1 9 -2 22.5t-2 30.5h-4q-4 -12 -9.5 -25.5t-12.5 -27.5z" />
    <glyph glyph-name="beta.small" unicode="&#xe801;" horiz-adv-x="485" 
d="M241 412l-18 -80h36q24 0 40.5 12.5t16.5 37.5q0 14 -10.5 22t-27.5 8h-37zM197 209l-18 -86h51q28 0 48 14.5t20 40.5q0 31 -50 31h-51zM450 397q0 -74 -64 -120q45 -32 45 -91q0 -85 -64 -136q-64 -50 -145 -50h-201l113 534h151q82 0 123.5 -38.5t41.5 -98.5z" />
    <glyph glyph-name="chi.small" unicode="&#xe802;" horiz-adv-x="531" 
d="M344 270l126 -270h-148l-45 106q-12 25 -21 60h-5q-33 -51 -43 -62l-84 -104h-168l241 286l-113 248h144l37 -85q5 -12 11 -34l8 -27h6q28 46 42 63l68 83h169z" />
    <glyph glyph-name="delta.small" unicode="&#xe803;" horiz-adv-x="506" 
d="M-22 0l13 75l267 456h87l105 -455l-13 -76h-459zM247 295l-82 -171h143l-25 171q-1 5 -2 20.5t-3 25.5h-10l-11 -24z" />
    <glyph glyph-name="epsilon.small" unicode="&#xe804;" horiz-adv-x="468" 
d="M21 0l113 534h334l-25 -122h-201l-17 -71h196l-24 -123h-197l-21 -95h202l-25 -123h-335z" />
    <glyph glyph-name="eta.small" unicode="&#xe805;" horiz-adv-x="553" 
d="M370 342l41 192h134l-113 -534h-134l47 218h-145l-46 -218h-133l113 534h133l-42 -192h145z" />
    </font>
</defs>
</svg>
