<?xml version="1.0" standalone="no"?>
<!DOCTYPE svg PUBLIC "-//W3C//DTD SVG 1.1//EN" "http://www.w3.org/Graphics/SVG/1.1/DTD/svg11.dtd" >
<svg>
<metadata>
Created by FontForge 20090622 at Tue Sep 17 15:06:52 2019
 By deploy user
Copyright (c) 2013 by Aviation Partners. All rights reserved.
</metadata>
<defs>
<font id="CorsicaRamblerLX-LightIt" horiz-adv-x="565" >
  <font-face 
    font-family="Corsica Rambler LX Light"
    font-weight="300"
    font-style="italic"
    font-stretch="normal"
    units-per-em="1000"
    panose-1="2 0 0 0 0 0 0 0 0 0"
    ascent="775"
    descent="-225"
    x-height="522"
    cap-height="712"
    bbox="-167 -256 1185 959"
    underline-thickness="50"
    underline-position="-50"
    slope="-12"
    unicode-range="U+000D-U+FB04"
  />
<missing-glyph horiz-adv-x="599" 
d="M148 724h500l-153 -724h-500zM465 37l139 650h-426l-139 -650h426zM183 233l-22 29l130 109l-83 110l34 28l86 -109l132 109l22 -28l-133 -110l86 -109l-34 -29l-86 109z" />
    <glyph glyph-name=".notdef" horiz-adv-x="599" 
d="M148 724h500l-153 -724h-500zM465 37l139 650h-426l-139 -650h426zM183 233l-22 29l130 109l-83 110l34 28l86 -109l132 109l22 -28l-133 -110l86 -109l-34 -29l-86 109z" />
    <glyph glyph-name="NULL" horiz-adv-x="0" 
 />
    <glyph glyph-name="NULL" horiz-adv-x="0" 
 />
    <glyph glyph-name="nonmarkingreturn" unicode="&#xd;" horiz-adv-x="333" 
 />
    <glyph glyph-name="space" unicode=" " horiz-adv-x="280" 
 />
    <glyph glyph-name="exclam" unicode="!" horiz-adv-x="236" 
d="M71 63q13 0 22 -9t9 -23q0 -15 -12 -26t-27 -11q-13 0 -22 8.5t-9 21.5q0 16 12 27.5t27 11.5zM85 182l113 530h29l-113 -530h-29z" />
    <glyph glyph-name="quotedbl" unicode="&#x22;" horiz-adv-x="368" 
d="M178 702h39l-68 -270h-19zM332 702h39l-68 -270h-19z" />
    <glyph glyph-name="numbersign" unicode="#" horiz-adv-x="573" 
d="M528 703h29l-79 -212h103l-6 -29h-107l-82 -218h112l-6 -29h-116l-80 -215h-29l79 215h-166l-79 -215h-29l79 215h-111l6 29h116l81 218h-120l6 29h125l78 212h30l-79 -212h166zM357 244l81 218h-165l-82 -218h166z" />
    <glyph glyph-name="dollar" unicode="$" horiz-adv-x="534" 
d="M373 783l-13 -59q77 -3 138 -50l-6 -33q-59 52 -138 54l-64 -302l24.5 -14.5t17.5 -11.5q17 -10 38 -27q32 -23 46.5 -49.5t17.5 -65.5q0 -93 -69 -160t-161 -75l-12 -60h-25l12 59q-90 3 -142 54l6 35q60 -60 142 -60l76 356q-31 18 -49.5 30.5t-39.5 30.5
q-41 37 -41 89q0 85 61 139t143 60l13 60h25zM404 218q0 46 -31.5 78t-89.5 65l-72 -342q77 11 134 65q59 56 59 134zM161 531q0 -39 27 -67t79 -59l62 288q-64 -7 -117 -53q-51 -45 -51 -109z" />
    <glyph glyph-name="percent" unicode="%" horiz-adv-x="800" 
d="M274 724q120 0 120 -117q0 -14 -2 -30.5t-6 -36.5q-39 -184 -182 -184q-121 0 -121 118q0 23 8 66q39 184 183 184zM206 385q118 0 150 155q4 16 5.5 31.5t1.5 29.5q0 94 -91 94q-119 0 -151 -155q-7 -29 -7 -60q0 -95 92 -95zM689 715l-527 -727l-23 15l528 727z
M641 361q120 0 120 -117q0 -14 -2 -30.5t-6 -36.5q-39 -184 -182 -184q-121 0 -121 118q0 23 8 66q39 184 183 184zM573 22q118 0 150 155q4 16 5.5 31.5t1.5 29.5q0 94 -91 94q-119 0 -151 -155q-7 -29 -7 -60q0 -95 92 -95z" />
    <glyph glyph-name="ampersand" unicode="&#x26;" horiz-adv-x="682" 
d="M321 390q-30 -14 -54 -26.5l-42 -22.5q-36 -20 -73 -50q-37 -29 -54 -62.5t-17 -75.5q0 -55 44 -96q43 -39 103 -39q119 0 252 154zM330 427l27 13q26 11 32 15l30 17q11 6 19 11t13 9q10 8 26 22t23 27t13 29.5t6 34.5q0 45 -28.5 67.5t-77.5 22.5q-59 0 -105 -41
q-45 -41 -45 -91q0 -21 11 -48l11 -23t10 -17zM514 173l129 -173h-36l-110 148q-137 -159 -267 -159q-81 0 -130 45q-49 46 -49 115q0 95 77 159q41 33 77 55q37 22 99 51q-1 1 -4 5l-7 9l-7 9t-4 6q-2 4 -10 15t-11 16q-12 19 -20 41t-8 44q0 66 56 116q56 49 126 49
q56 0 95 -33q39 -32 39 -83q0 -74 -72 -128l-33 -23t-30 -18.5l-31 -17t-37 -17.5l151 -208l128 148h36z" />
    <glyph glyph-name="quotesingle" unicode="'" horiz-adv-x="200" 
d="M175 702h39l-68 -270h-19z" />
    <glyph glyph-name="parenleft" unicode="(" horiz-adv-x="287" 
d="M262 724h31l-32.5 -42.5l-25.5 -35.5t-24 -37.5t-29 -50.5q-31 -54 -51 -107q-18 -51 -31.5 -120.5t-13.5 -144.5q0 -110 21 -189q22 -80 60 -159h-27l-23 51l-18 43q-7 19 -14 46t-15 62q-14 73 -14 146q0 75 14 144t31 120q18 48 50 107q32 56 54 88z" />
    <glyph glyph-name="parenright" unicode=")" horiz-adv-x="286" 
d="M42 -162h-31q36 46 57 78q22 31 54 87q32 59 50 107q19 51 32.5 121t13.5 145q0 111 -22 189q-11 40 -25.5 79.5t-33.5 79.5h27l23 -51t17 -43q16 -39 29 -109q15 -71 15 -145q0 -75 -14 -144t-32 -120q-16 -47 -50 -108q-16 -29 -29 -50.5t-24 -36.5z" />
    <glyph glyph-name="asterisk" unicode="*" horiz-adv-x="428" 
d="M264 712h35l-5 -148l140 50l11 -34l-142 -42l90 -117l-27 -21l-85 122l-83 -122l-29 21l90 117l-142 42l11 34l140 -50z" />
    <glyph glyph-name="plus" unicode="+" 
d="M268 472h29v-216h215v-29h-215v-215h-29v215h-215v29h215v216z" />
    <glyph glyph-name="comma" unicode="," horiz-adv-x="268" 
d="M-29 -196q59 124 93 259l50 12q-56 -158 -126 -276z" />
    <glyph glyph-name="hyphen" unicode="-" horiz-adv-x="300" 
d="M53 322h222l-6 -29h-222z" />
    <glyph glyph-name="period" unicode="." horiz-adv-x="268" 
d="M125 28q-1 -14 -13 -24t-26 -10t-23 10t-8 24t13 24.5t26 10.5t23.5 -10.5t7.5 -24.5z" />
    <glyph glyph-name="slash" unicode="/" horiz-adv-x="415" 
d="M-28 -174l-26 12l517 895l25 -13z" />
    <glyph glyph-name="zero" unicode="0" 
d="M388 724q182 0 182 -201q0 -33 -4 -67.5t-12 -69.5l-13 -59q-20 -91 -49 -155.5t-66.5 -105t-83.5 -59t-100 -18.5q-183 0 -183 200q0 68 16 138l13 59q41 184 115 260q75 78 185 78zM523 382q17 85 17 139q0 174 -154 174q-98 0 -165 -72q-66 -71 -104 -241l-11 -51
q-17 -80 -17 -140q0 -93 39 -133t114 -40q49 0 90.5 17.5t75.5 55t60 97t44 143.5z" />
    <glyph glyph-name="one" unicode="1" 
d="M451 712h26l-151 -712h-29l141 666l-255 -179l8 39z" />
    <glyph glyph-name="two" unicode="2" 
d="M447 29l-6 -29h-422l4 22l412 360q86 77 86 161q0 65 -43 108q-44 44 -109 44q-89 0 -189 -85l8 43q89 71 183 71q76 0 129 -50q52 -49 52 -124q0 -105 -102 -193l-377 -328h374z" />
    <glyph glyph-name="three" unicode="3" 
d="M217 369l5 26h78q84 0 140 52q57 52 57 122q0 27 -10.5 50.5t-29 40t-44 26t-55.5 9.5q-80 0 -162 -64l8 40q74 53 156 53q73 0 120 -42t47 -108q0 -30 -10 -59t-29 -54.5t-47 -46.5t-64 -34q51 -18 77.5 -57.5t26.5 -87.5q0 -100 -85 -173t-188 -73q-88 0 -144 49l7 33
q53 -53 140 -53q89 0 165 65q75 66 75 151q0 56 -45 95q-43 40 -111 40h-78z" />
    <glyph glyph-name="four" unicode="4" 
d="M399 1h-29l33 156h-380l5 32l508 523h14l-112 -526h90l-6 -29h-90zM409 186l64 299l36 159h-4q-8 -10 -39 -42.5l-85 -88.5l-318 -327h346z" />
    <glyph glyph-name="five" unicode="5" 
d="M486 274q0 -111 -88 -198q-87 -87 -204 -87q-91 0 -146 49l7 31q61 -51 140 -51q100 0 179 76q81 76 81 177q0 70 -44 114q-43 45 -115.5 45t-160.5 -43l-12 7l112 318h316l-6 -29h-291l-89 -252q84 28 134 28q82 0 135 -53q52 -52 52 -132z" />
    <glyph glyph-name="six" unicode="6" 
d="M439 712h38l-275 -298q64 36 130 36q82 0 137 -53q55 -52 55 -129q0 -109 -81 -194t-198 -85q-86 0 -141 54t-55 133q0 66 31.5 124t91.5 122zM248 18q98 0 171 73q75 73 75 169q0 72 -44 116.5t-119 44.5q-93 0 -172 -70q-80 -69 -80 -166q0 -69 45 -118q46 -49 124 -49
z" />
    <glyph glyph-name="seven" unicode="7" 
d="M532 683h-404l5 29h450l-2 -11l-488 -701h-38z" />
    <glyph glyph-name="eight" unicode="8" 
d="M383 383q60 -16 90 -57.5t30 -92.5q0 -101 -77 -173q-77 -71 -180 -71q-78 0 -131 47q-52 48 -52 119q0 28 9.5 60t29.5 67q20 36 59 64t93 40q-48 19 -71.5 55.5t-23.5 75.5q0 89 67 147q67 60 154 60q69 0 115 -43q46 -42 46 -108q0 -18 -6.5 -41t-21.5 -53
q-15 -29 -48.5 -55.5t-81.5 -40.5zM378 695q-69 0 -129 -51q-60 -50 -60 -120q0 -50 38 -88q37 -37 94 -37q73 0 131 55q59 56 59 119q0 52 -36 87t-97 35zM248 18q85 0 155 62q70 63 70 148q0 63 -47 102q-46 40 -111 40q-50 0 -99 -24q-50 -23 -87 -72q-36 -48 -36 -108
q0 -32 11.5 -59t31.5 -47t48.5 -31t63.5 -11z" />
    <glyph glyph-name="nine" unicode="9" 
d="M188 1h-38l275 298q-65 -36 -130 -36q-83 0 -138 52q-54 52 -54 130q0 107 81 193t198 86q84 0 140 -54t56 -133q0 -66 -31.5 -123t-91.5 -123zM379 695q-96 0 -172 -74q-74 -74 -74 -168q0 -72 44 -116.5t119 -44.5q92 0 172 69q80 71 80 167q0 68 -46 117
q-45 50 -123 50z" />
    <glyph glyph-name="colon" unicode=":" horiz-adv-x="268" 
d="M125 28q-1 -14 -13 -24t-26 -10t-23 10t-8 24t13 24.5t26 10.5t23.5 -10.5t7.5 -24.5zM223 494q-1 -14 -13 -24t-26 -10t-23 10t-8 24t13 24.5t26 10.5t23.5 -10.5t7.5 -24.5z" />
    <glyph glyph-name="semicolon" unicode=";" horiz-adv-x="268" 
d="M222 494q-1 -14 -13 -24t-26 -10t-23 10t-8 24t13 24.5t26 10.5t23.5 -10.5t7.5 -24.5zM-29 -196q59 124 93 259l50 12q-56 -158 -126 -276z" />
    <glyph glyph-name="less" unicode="&#x3c;" 
d="M515 460v-33l-437 -186l437 -183v-34l-465 200v35z" />
    <glyph glyph-name="equal" unicode="=" 
d="M53 349h459v-29h-459v29zM53 163h459v-29h-459v29z" />
    <glyph glyph-name="greater" unicode="&#x3e;" 
d="M50 427v33l465 -201v-35l-465 -200v34l437 183z" />
    <glyph glyph-name="question" unicode="?" horiz-adv-x="495" 
d="M162 63q13 0 22 -9t9 -23q0 -15 -12 -26t-27 -11q-13 0 -22 8.5t-9 21.5q0 16 12 27.5t27 11.5zM341 724q67 0 111 -44t44 -105q0 -49 -26.5 -91.5t-65.5 -73.5l-59 -42.5t-58 -44t-47 -45.5t-25 -47l-11 -49h-29l12 55q8 37 40 70.5t71 60.5l59 42.5t54 45.5t39.5 52.5
t15.5 62.5q0 25 -9.5 48t-27 39.5t-41.5 26.5t-52 10q-56 0 -108 -40l8 41q49 28 105 28z" />
    <glyph glyph-name="at" unicode="@" horiz-adv-x="1021" 
d="M772 476l-68 -320q-12 -41 -12 -69q0 -58 54 -58q75 0 133 94q60 94 60 222q0 163 -105 256q-103 94 -265 94q-197 0 -333 -141q-137 -140 -137 -341q0 -81 27 -154t78 -130q52 -58 133 -91.5t184 -33.5l-5 -29q-106 0 -192.5 35t-141.5 95t-84.5 138.5t-29.5 166.5
q0 144 68 263q70 120 184 185q115 66 252 66q175 0 286 -102t111 -269q0 -153 -69 -253q-67 -100 -157 -100q-35 0 -56 19t-21 61q0 25 7 52q-92 -132 -220 -132q-82 0 -126 56q-43 56 -43 141q0 112 70 200t182 88q60 0 113 -38q52 -37 71 -74l23 104zM712 334l-8 13
t-23 29q-15 20 -36 37q-19 17 -50 30t-63 13q-92 0 -155 -75t-63 -180q0 -76 38.5 -124t110.5 -48q79 0 147 71q66 69 83 146z" />
    <glyph glyph-name="A" unicode="A" horiz-adv-x="696" 
d="M455 712l164 -712h-32l-39 179h-420l-115 -179h-36l466 712h12zM542 208l-75 327q-8 34 -14 64.5t-11 59.5h-4l-26.5 -42l-52.5 -82l-213 -327h396z" />
    <glyph glyph-name="B" unicode="B" horiz-adv-x="580" 
d="M219 683l-66 -307h168q80 0 141 49t61 136q0 61 -40 91.5t-112 30.5h-152zM147 347l-67 -318h177q90 0 158 52q69 52 69 146q0 57 -43 88.5t-118 31.5h-176zM409 362q105 -32 105 -131q0 -109 -78 -170q-76 -61 -179 -61h-212l151 712h177q88 0 134 -41t46 -104
q0 -36 -10.5 -68.5t-30 -59t-46 -46t-57.5 -31.5z" />
    <glyph glyph-name="C" unicode="C" horiz-adv-x="646" 
d="M500 695q-107 0 -199 -58t-148 -153q-54 -95 -54 -200q0 -115 74 -191q75 -75 197 -75q90 0 179 48l-8 -35q-90 -42 -174 -42q-129 0 -214 81q-84 82 -84 204q0 94 36 177t96 143t138.5 95t163.5 35q90 0 162 -42l-7 -34q-67 47 -158 47z" />
    <glyph glyph-name="D" unicode="D" horiz-adv-x="696" 
d="M344 712q162 0 248 -74q85 -73 85 -194q0 -88 -32 -167.5t-90 -142.5q-58 -61 -148.5 -97.5t-199.5 -36.5h-162l151 712h148zM207 29h16q179 0 301 116q123 117 123 293q0 121 -80.5 183t-227.5 62h-120l-139 -654h127z" />
    <glyph glyph-name="E" unicode="E" horiz-adv-x="532" 
d="M45 0l151 712h364l-6 -29h-335l-62 -291h325l-6 -29h-325l-71 -334h335l-6 -29h-364z" />
    <glyph glyph-name="F" unicode="F" horiz-adv-x="482" 
d="M518 683h-299l-63 -293h289l-6 -29h-289l-76 -361h-29l151 712h328z" />
    <glyph glyph-name="G" unicode="G" horiz-adv-x="707" 
d="M415 340h238l-67 -314q-111 -32 -225 -32q-130 0 -210 79q-81 79 -81 205q0 122 63 226q64 103 165 162q100 58 212 58q108 0 188 -46l-7 -30q-83 47 -183 47q-108 0 -202 -58q-95 -59 -150 -154q-56 -95 -56 -202q0 -112 71 -186q72 -72 193 -72q108 0 198 26l56 262
h-209z" />
    <glyph glyph-name="H" unicode="H" horiz-adv-x="681" 
d="M588 391l68 321h29l-151 -712h-29l76 362h-431l-76 -362h-29l151 712h29l-68 -321h431z" />
    <glyph glyph-name="I" unicode="I" horiz-adv-x="231" 
d="M225 712l-151 -712h-29l151 712h29z" />
    <glyph glyph-name="J" unicode="J" horiz-adv-x="418" 
d="M387 712h29l-113 -532q-20 -87 -76 -139q-55 -52 -129 -52q-59 0 -97 32l8 32q41 -35 93 -35q56 0 106 46q51 47 66 115z" />
    <glyph glyph-name="K" unicode="K" horiz-adv-x="572" 
d="M642 712l-369 -331l222 -381h-32l-212 364l-125 -115l-52 -249h-29l151 712h29l-72 -340q-1 -9 -9 -40l-9 -37h4q8 9 62 59l400 358h41z" />
    <glyph glyph-name="L" unicode="L" horiz-adv-x="420" 
d="M225 712l-145 -683h269l-6 -29h-298l151 712h29z" />
    <glyph glyph-name="M" unicode="M" horiz-adv-x="817" 
d="M640 0l118 557l12.5 55t9.5 37h-5l-64 -54l-276 -227l-179 227l-42 54h-4l-18 -92l-118 -557h-29l151 712h5l239 -303l367 303h13l-151 -712h-29z" />
    <glyph glyph-name="N" unicode="N" horiz-adv-x="722" 
d="M728 712l-151 -712h-13l-296 560l-29 56.5t-23 47.5l-4 -1l-24 -122l-114 -541h-29l151 712h22l297 -557q37 -69 44 -92h4l11.5 60.5l14.5 73.5l110 515h29z" />
    <glyph glyph-name="O" unicode="O" horiz-adv-x="822" 
d="M503 724q130 0 213 -86q84 -86 84 -214q0 -116 -63 -218q-62 -101 -162 -159t-208 -58q-131 0 -213 84q-83 85 -83 212q0 43 9.5 86t27 83t42 75.5t54.5 64.5q60 60 138.5 95t160.5 35zM370 18q99 0 191 54q93 56 151 149q58 94 58 202q0 119 -75 196q-75 76 -195 76
q-75 0 -148 -33.5t-128 -88.5t-89 -130.5t-34 -156.5q0 -118 75 -193t194 -75z" />
    <glyph glyph-name="P" unicode="P" horiz-adv-x="561" 
d="M372 712q50 0 88.5 -12.5t65 -35.5t40.5 -54.5t14 -68.5q0 -109 -82 -185q-83 -77 -212 -77h-153l-59 -279h-29l151 712h176zM288 308q112 0 186 64q76 64 76 166q0 67 -47.5 106t-134.5 39h-149l-80 -375h149z" />
    <glyph glyph-name="Q" unicode="Q" horiz-adv-x="822" 
d="M760 29l-6 -29h-387q-129 0 -213 81t-84 205q0 117 62 220q61 101 161 160q100 58 211 58q128 0 213 -82t85 -206q0 -140 -79 -247q-80 -108 -207 -159l-1 -4q66 3 113 3h132zM500 695q-51 1 -100.5 -13.5t-94 -42t-83 -65.5t-66 -83t-42.5 -95.5t-13 -101.5
q0 -116 76 -191q77 -74 196 -74q99 0 191 53q91 52 149 145q58 92 58 200q0 117 -77 192q-76 76 -194 76z" />
    <glyph glyph-name="R" unicode="R" horiz-adv-x="554" 
d="M468 0h-36l-160 315h-132l-66 -315h-29l151 712h176q94 0 143.5 -44t49.5 -114q0 -92 -71 -163q-70 -68 -186 -76zM147 344h145q102 0 172 58q71 59 71 150q0 63 -44.5 97t-123.5 34h-148z" />
    <glyph glyph-name="S" unicode="S" horiz-adv-x="502" 
d="M349 695q-68 0 -130 -47q-61 -46 -61 -117q0 -37 28 -67t68 -53l60.5 -34t57.5 -40t42.5 -49.5t16.5 -62.5q0 -98 -76 -167q-77 -69 -173 -69q-93 0 -148 54l6 35q60 -60 144 -60q80 0 148 58q69 58 69 142q0 42 -27.5 74t-69.5 55q-29 18 -60.5 35.5t-57 38t-42 45.5
t-16.5 58q0 90 67 145t154 55q85 0 146 -50l-6 -33q-59 54 -140 54z" />
    <glyph glyph-name="T" unicode="T" horiz-adv-x="471" 
d="M346 683l-145 -683h-29l145 683h-195l6 29h417l-6 -29h-193z" />
    <glyph glyph-name="U" unicode="U" horiz-adv-x="659" 
d="M570 245q-25 -116 -108 -187q-83 -69 -180 -69q-85 0 -140 52t-55 142q0 17 1.5 33t5.5 32l98 464h29l-98 -459q-4 -16 -5.5 -32t-1.5 -32q0 -41 12.5 -72.5t34.5 -53.5t53 -33.5t68 -11.5q86 0 160 62q74 63 98 173l98 459h29z" />
    <glyph glyph-name="V" unicode="V" horiz-adv-x="650" 
d="M691 712h33l-441 -712h-17l-138 712h29l103 -532q15 -84 21 -129h4l76 129z" />
    <glyph glyph-name="W" unicode="W" horiz-adv-x="904" 
d="M922 712h30l-276 -712h-32l-97 509q-14 64 -15 90h-4l-53 -90l-313 -509h-34l26 712h28l-19 -528q-1 -18 -2 -40l-2 -42t-2 -35.5t-1 -20.5h4l79 134l296 481h12l92 -481l6.5 -37l7.5 -44l9 -53h4q5 10 21 58l30 80z" />
    <glyph glyph-name="X" unicode="X" horiz-adv-x="564" 
d="M328 373l159 -373h-30l-124 284q-16 33 -23 62h-5l-51 -62l-241 -284h-38l318 375l-142 337h31l100 -235l13.5 -35t15.5 -45h5l64 80l198 235h39z" />
    <glyph glyph-name="Y" unicode="Y" horiz-adv-x="560" 
d="M598 712h36l-327 -415l-63 -297h-29l63 297l-150 415h31l102 -283l35 -99h4l28 38.5t46 59.5z" />
    <glyph glyph-name="Z" unicode="Z" horiz-adv-x="563" 
d="M28 27q11 1 38 1.5t72 0.5h352l-6 -29h-505l4 20l543 598q6 7 14.5 16l19.5 20l26 27v4h-10.5t-28.5 -1q-18 -1 -33.5 -1h-28.5h-324l6 29h468l-4 -20l-535 -590q-8 -10 -18.5 -20.5l-23.5 -23.5q-25 -25 -26 -27v-4z" />
    <glyph glyph-name="bracketleft" unicode="[" horiz-adv-x="282" 
d="M354 725h-114l-188 -882h114l-6 -29h-143l200 940h143z" />
    <glyph glyph-name="backslash" unicode="\" horiz-adv-x="415" 
d="M127 724l29 6l136 -895l-29 -5z" />
    <glyph glyph-name="bracketright" unicode="]" horiz-adv-x="282" 
d="M250 725h-114l6 29h143l-200 -940h-142l6 29h113z" />
    <glyph glyph-name="asciicircum" unicode="^" horiz-adv-x="544" 
d="M382 724l111 -415h-31l-98 376l-256 -376h-36l286 415h24z" />
    <glyph glyph-name="underscore" unicode="_" horiz-adv-x="494" 
d="M405 -123l-6 -29h-474l6 29h474z" />
    <glyph glyph-name="grave" unicode="`" horiz-adv-x="374" 
d="M347 592l-15 -20l-152 104l25 29z" />
    <glyph glyph-name="a" unicode="a" horiz-adv-x="668" 
d="M269 18q90 0 175 65q84 64 102 145l28 131q-15 56 -66 101q-49 46 -132 46q-117 0 -205 -90q-88 -89 -88 -214q0 -41 13 -75t37 -58t58.5 -37.5t77.5 -13.5zM608 522h30l-111 -522h-23l20 129q-44 -65 -116 -102q-74 -38 -146 -38q-99 0 -154 60q-55 61 -55 151
q0 130 96 232q97 103 228 103q39 0 71.5 -10t58.5 -27t45.5 -39.5t31.5 -48.5z" />
    <glyph glyph-name="b" unicode="b" horiz-adv-x="668" 
d="M401 506q-92 0 -175 -65q-82 -64 -100 -146l-30 -134q14 -56 64 -100q50 -43 134 -43q116 0 205 89q89 91 89 213q0 84 -49.5 135t-137.5 51zM57 0h-23l163 764h29l-79 -367q42 63 116 101q71 37 145 37q97 0 153 -62q57 -62 57 -152q0 -130 -97 -231q-98 -101 -228 -101
q-76 0 -129.5 36.5t-78.5 87.5z" />
    <glyph glyph-name="c" unicode="c" horiz-adv-x="496" 
d="M362 506q-108 0 -193 -87q-86 -86 -86 -214q0 -42 13.5 -76.5t38.5 -59t59 -38t75 -13.5q70 0 141 46l-5 -38q-67 -37 -140 -37q-92 0 -153 59q-59 61 -59 154q0 140 95 237q94 96 218 96q75 0 128 -38l-6 -32q-53 41 -126 41z" />
    <glyph glyph-name="d" unicode="d" horiz-adv-x="668" 
d="M269 18q91 0 176 65q84 65 101 145l28 132q-15 55 -66 100q-50 46 -132 46q-117 0 -205 -90q-88 -89 -88 -214q0 -41 13 -75t37 -58t58.5 -37.5t77.5 -13.5zM659 764h30l-162 -764h-23l20 127q-43 -64 -116 -101q-71 -37 -145 -37q-99 0 -154 61q-56 62 -56 151
q0 130 96 232q97 102 228 102q39 0 71.5 -10t58.5 -27t45.5 -39.5t31.5 -48.5z" />
    <glyph glyph-name="e" unicode="e" horiz-adv-x="569" 
d="M435 41q-82 -52 -174 -52q-90 0 -148 63q-58 62 -58 157q0 124 84 225q86 101 209 101q39 0 72 -11.5t57 -34t37 -54.5t13 -72q0 -51 -10 -91h-427q-2 -17 -3.5 -31.5t-1.5 -28.5q0 -85 49 -140q49 -54 131 -54q90 0 177 60zM491 301q6 33 6 59q0 70 -42.5 108t-108.5 38
q-85 0 -150 -55.5t-98 -149.5h393z" />
    <glyph glyph-name="f" unicode="f" horiz-adv-x="328" 
d="M94 522h80l21 103q14 64 65 106q53 44 113 44q8 0 18 -1t22 -3l-6 -29q-12 2 -21 3t-14 1q-51 0 -94 -36q-44 -36 -54 -85l-21 -103h153l-7 -29h-153l-104 -493h-29l104 493h-80z" />
    <glyph glyph-name="g" unicode="g" horiz-adv-x="649" 
d="M262 38q88 0 170 67q83 68 99 145l23 112q-8 30 -25 56.5t-42 46t-57 30.5t-69 11q-107 0 -192 -87q-84 -86 -84 -203q0 -40 12.5 -73t35.5 -56t55.5 -36t73.5 -13zM596 522h22l-106 -497q-22 -103 -109 -176q-88 -74 -191 -74t-179 55l7 31q18 -15 36 -25.5t38.5 -17.5
t45 -10.5t54.5 -3.5q79 0 164 62q84 62 104 154l27 128q-51 -69 -116 -104t-137 -35q-93 0 -147 58t-54 146q0 125 91 223q91 99 216 99q72 0 125 -33.5t81 -88.5z" />
    <glyph glyph-name="h" unicode="h" horiz-adv-x="609" 
d="M196 764h29l-72 -339q40 45 97.5 77.5t121.5 32.5q78 0 123.5 -44.5t45.5 -119.5q0 -25 -7 -56l-67 -315h-29l66 312q6 30 6 55q0 69 -38.5 104t-104.5 35q-76 0 -141 -50q-64 -49 -87 -98l-76 -358h-29z" />
    <glyph glyph-name="i" unicode="i" horiz-adv-x="205" 
d="M156 647q0 14 10 25t24 11q12 0 20.5 -8t8.5 -21t-10.5 -23.5t-24.5 -10.5q-12 0 -20 8t-8 19zM63 0h-29l111 522h29z" />
    <glyph glyph-name="j" unicode="j" horiz-adv-x="205" 
d="M-160 -195q5 -1 11.5 -1h15.5q59 0 101 42t54 99l123 577h29l-122 -572q-8 -38 -24.5 -70t-40.5 -55.5t-55 -36.5t-68 -13q-20 0 -30 2zM156 647q0 14 10 25t24 11q12 0 20.5 -8t8.5 -21t-10.5 -23.5t-24.5 -10.5q-12 0 -20 8t-8 19z" />
    <glyph glyph-name="k" unicode="k" horiz-adv-x="495" 
d="M467 522h38l-271 -245l173 -277h-33l-163 259l-113 -95l-35 -164h-29l162 764h29l-98 -463q-2 -13 -8 -36t-14 -57h5q25 23 77 65z" />
    <glyph glyph-name="l" unicode="l" horiz-adv-x="205" 
d="M34 0l163 764h29l-163 -764h-29z" />
    <glyph glyph-name="m" unicode="m" horiz-adv-x="936" 
d="M713 535q72 0 114.5 -40t42.5 -110q0 -29 -6 -59l-70 -326h-29l68 321q7 29 7 54q0 60 -32.5 95t-98.5 35q-71 0 -134 -54q-61 -52 -75 -112l-72 -339h-29l68 323q2 22 3.5 33t1.5 12q0 63 -31.5 100.5t-97.5 37.5q-67 0 -126 -50q-58 -49 -77 -95l-77 -361h-29l111 522
h24l-16 -92q85 105 195 105q60 0 102 -32t51 -93q39 60 94 92.5t118 32.5z" />
    <glyph glyph-name="n" unicode="n" horiz-adv-x="609" 
d="M145 522h24l-19 -100q20 23 45.5 43.5t54 36t60 24.5t63.5 9q78 0 123 -44.5t45 -119.5q0 -25 -7 -56l-67 -315h-29l66 312q6 30 6 55q0 69 -38.5 104t-104.5 35q-76 0 -141 -50q-64 -49 -87 -98l-76 -358h-29z" />
    <glyph glyph-name="o" unicode="o" horiz-adv-x="644" 
d="M368 506q-114 0 -199 -90q-85 -89 -85 -206q0 -86 52 -139q53 -53 139 -53q108 0 197 86t89 206q0 87 -55 141q-54 55 -138 55zM370 535q98 0 159 -64q62 -65 62 -160q0 -129 -97 -226q-96 -96 -221 -96q-96 0 -158 62q-61 61 -61 155q0 134 96 232q96 97 220 97z" />
    <glyph glyph-name="p" unicode="p" horiz-adv-x="668" 
d="M401 506q-93 0 -176 -65q-82 -64 -99 -146l-28 -131q13 -53 64 -101q51 -45 132 -45q116 0 205 89q89 91 89 213q0 84 -49.5 135t-137.5 51zM-12 -216l157 738h23l-24 -129q46 66 117 103q73 39 146 39q99 0 154 -61q57 -62 57 -152q0 -131 -97 -232q-96 -101 -227 -101
q-76 0 -129 36t-78 87l-69 -328h-30z" />
    <glyph glyph-name="q" unicode="q" horiz-adv-x="668" 
d="M269 18q91 0 176 65q84 65 101 145l28 132q-15 55 -66 100q-50 46 -132 46q-117 0 -205 -90q-88 -89 -88 -214q0 -41 13 -75t37 -58t58.5 -37.5t77.5 -13.5zM615 522h23l-157 -738h-29l71 340q-23 -32 -52.5 -57t-63.5 -42t-70 -26.5t-72 -9.5q-98 0 -155 61t-57 151
q0 130 96 232t227 102q39 0 72 -10t59.5 -27t46.5 -40t32 -48z" />
    <glyph glyph-name="r" unicode="r" horiz-adv-x="350" 
d="M149 412q27 46 79 81q52 37 110 37q23 0 41 -3l-6 -31q-20 3 -41 3q-68 0 -130 -62q-59 -61 -70 -112l-69 -325h-29l111 522h24z" />
    <glyph glyph-name="s" unicode="s" horiz-adv-x="431" 
d="M267 506q-49 0 -96 -31q-47 -32 -47 -81q0 -24 16 -44t40 -38t52 -36t52 -38t40 -44t16 -54q0 -64 -56 -108q-55 -43 -129 -43q-79 0 -129 35l7 32q49 -38 123 -38q60 0 106 31q48 31 48 88q0 26 -16 47t-40 39.5t-52 36.5t-52 37.5t-40 42t-16 50.5q0 63 52 103
q52 42 123 42q75 0 124 -41l-7 -31q-50 43 -119 43z" />
    <glyph glyph-name="t" unicode="t" horiz-adv-x="334" 
d="M243 -5q-8 -3 -22 -3q-132 0 -132 119q0 25 6 52l70 330h-79l7 29h79l27 129l32 11l-30 -140h154l-8 -29h-153l-70 -332q-2 -14 -3.5 -23.5t-1.5 -14.5q0 -45 24 -73.5t72 -28.5q12 0 20.5 0.5t13.5 1.5z" />
    <glyph glyph-name="u" unicode="u" horiz-adv-x="608" 
d="M548 522h29l-67 -310q-23 -102 -92 -162q-68 -61 -165 -61q-82 0 -131.5 45.5t-49.5 123.5q0 24 6 54l67 310h29l-65 -307q-7 -31 -7 -55q0 -69 41 -105.5t110 -36.5q80 0 144 52q66 54 85 145z" />
    <glyph glyph-name="v" unicode="v" horiz-adv-x="541" 
d="M534 522h34l-348 -522h-8l-125 522h30l83 -348l14.5 -61.5t10.5 -52.5h5q14 24 32 52l40 60z" />
    <glyph glyph-name="w" unicode="w" horiz-adv-x="794" 
d="M789 522h32l-251 -522h-24l-97 370q-5 18 -8.5 33.5t-4.5 28.5h-4q-4 -7 -13 -21.5l-23 -36.5l-256 -374h-24l-29 522h28l20 -349q6 -101 6 -119h5q6 11 25.5 40l51.5 77l216 315h11l82 -314l29 -118h5q7 20 20 49.5t33 69.5z" />
    <glyph glyph-name="x" unicode="x" horiz-adv-x="502" 
d="M506 522l-232 -248l144 -274h-33l-98 186l-33 66h-5l-61 -68l-174 -184h-40l263 277l-125 245h34l77 -150l22.5 -47l12.5 -26h5q14 19 29 36l29 33l146 154h39z" />
    <glyph glyph-name="y" unicode="y" horiz-adv-x="542" 
d="M535 522h34l-503 -738h-32l175 257l-122 481h30l89 -345q7 -27 12.5 -52.5l10.5 -49.5h5q13 24 65 100z" />
    <glyph glyph-name="z" unicode="z" horiz-adv-x="483" 
d="M34 27q12 1 35 1.5t58 0.5h272l-6 -29h-411l3 17l390 410q8 9 24 24.5l39 37.5v6q-33 -3 -101 -3h-239l7 30h385l-4 -19l-382 -400l-40.5 -42.5t-29.5 -28.5v-5z" />
    <glyph glyph-name="braceleft" unicode="{" horiz-adv-x="281" 
d="M359 754l-6 -29h-36q-23 0 -43 -10t-35 -27.5t-23.5 -42t-8.5 -54.5q0 -11 1.5 -28t5.5 -40q8 -46 8 -68q0 -68 -33 -110.5t-79 -62.5q55 -28 55 -94q1 -31 -15.5 -68t-36.5 -74.5t-37 -72.5t-15 -62q0 -32 18.5 -51t49.5 -19h36l-6 -29h-36q-42 0 -67 27.5t-25 70.5
q0 41 52 138q53 98 53 133q0 42 -26 65t-71 23l6 29q61 0 105 42t44 108q0 11 -2 29t-6 43q-4 26 -5.5 44.5t-1.5 29.5q0 67 42 114q43 46 102 46h36z" />
    <glyph glyph-name="bar" unicode="|" horiz-adv-x="235" 
d="M126 764v-980h-29v980h29z" />
    <glyph glyph-name="braceright" unicode="}" horiz-adv-x="281" 
d="M-59 -188l6 29h36q23 0 43 10t35 27.5t23.5 42t8.5 54.5q0 21 -8 67q-4 23 -5.5 40t-1.5 29q0 68 33 110.5t79 62.5q-55 28 -55 94q-2 31 15 68t37 74.5t36.5 72.5t15.5 62q0 32 -18.5 51t-49.5 19h-36l6 29h36q42 0 67 -27.5t25 -70.5q0 -40 -53 -138q-52 -97 -52 -133
q0 -42 26 -65t71 -23l-6 -29q-63 0 -106 -42t-43 -108q0 -11 1.5 -29t5.5 -44q4 -25 6 -43.5t2 -29.5q0 -68 -43 -114q-42 -46 -101 -46h-36z" />
    <glyph glyph-name="asciitilde" unicode="~" horiz-adv-x="573" 
d="M35 194q6 30 19 52t29.5 36.5t35.5 21.5t38 7q40 0 136 -45q91 -44 130 -44q35 0 58.5 24t32.5 63h30q-6 -30 -18.5 -52t-29 -36.5t-36 -21.5t-38.5 -7q-39 0 -135 45q-96 44 -131 44t-59 -23.5t-32 -63.5h-30z" />
    <glyph glyph-name="uni00A0" unicode="&#xa0;" horiz-adv-x="280" 
 />
    <glyph glyph-name="exclamdown" unicode="&#xa1;" horiz-adv-x="236" 
d="M153 422q-13 0 -22 9t-9 22q0 15 12 26.5t27 11.5q13 0 22 -8.5t9 -22.5q0 -15 -12 -26.5t-27 -11.5zM140 303l-110 -519h-29l110 519h29z" />
    <glyph glyph-name="cent" unicode="&#xa2;" horiz-adv-x="496" 
d="M399 603l-15 -69q66 -6 110 -37l-6 -32q-47 36 -110 39l-104 -487q68 3 136 46q0 -6 -2 -19t-3 -19q-65 -36 -138 -37l-15 -72h-29l15 74q-81 7 -134 66q-52 58 -52 146q0 138 91 232q92 96 212 101l15 68h29zM84 205q0 -79 44.5 -129t116.5 -57l103 485
q-103 -6 -184 -91q-80 -85 -80 -208z" />
    <glyph glyph-name="sterling" unicode="&#xa3;" horiz-adv-x="564" 
d="M168 273l-52 -244h371l-6 -29h-487l6 29h87l52 244h-87l6 29h87l41 196q19 89 91 158q71 68 162 68q65 0 108 -32l-8 -31q-40 34 -102 34q-77 0 -141 -58q-65 -59 -81 -139l-41 -196h290l-6 -29h-290z" />
    <glyph glyph-name="currency" unicode="&#xa4;" 
d="M498 528l20 -20l-75 -75q53 -62 53 -141q0 -78 -53 -140l75 -75l-20 -20l-75 74q-62 -53 -141 -53q-78 0 -140 53l-75 -74l-21 20l75 75q-53 62 -53 140q0 79 53 141l-75 75l21 20l75 -74q58 52 140 52q83 0 141 -52zM467 292q0 75 -55 130q-56 56 -130 56
q-75 0 -130 -55t-55 -131q0 -75 55 -130q55 -54 130 -54q77 0 131 54t54 130z" />
    <glyph glyph-name="yen" unicode="&#xa5;" horiz-adv-x="568" 
d="M601 712h36l-203 -257h138l-6 -29h-155l-97 -124h226l-6 -29h-229l-58 -273h-29l58 273h-228l6 29h225l-45 124h-154l6 29h137l-92 257h31l103 -283q5 -13 13.5 -37.5l20.5 -61.5h4l28 38.5t46 59.5z" />
    <glyph glyph-name="brokenbar" unicode="&#xa6;" horiz-adv-x="235" 
d="M126 775v-317h-29v317h29zM126 265v-317h-29v317h29z" />
    <glyph glyph-name="section" unicode="&#xa7;" horiz-adv-x="492" 
d="M293 158q73 -43 73 -102q0 -67 -62 -115t-130 -48q-21 0 -43 3.5t-42.5 10t-38.5 14.5t-30 17l8 33q73 -49 148 -49q58 0 108 40q52 39 52 91q0 26 -19.5 46t-49.5 38t-65 36t-65 38.5t-49.5 45.5t-19.5 58q0 94 165 195q-74 47 -74 102q0 67 61 115t131 48q21 0 43 -3.5
t42.5 -10t38.5 -14.5t30 -17l-7 -32q-71 48 -149 48q-57 0 -109 -40q-51 -39 -51 -92q0 -25 20 -45t49.5 -38.5t64.5 -36t64.5 -38.5t49.5 -46t20 -58q0 -95 -164 -194zM259 495q-161 -92 -161 -178q0 -20 8.5 -36.5t29.5 -32.5l36 -25q8 -5 20 -11.5l29 -15.5l46 -23
q33 19 56 35.5t49 39.5q55 47 55 102q-3 28 -15.5 46.5t-40.5 36.5q-10 7 -18.5 11.5l-15.5 8.5l-40 21z" />
    <glyph glyph-name="dieresis" unicode="&#xa8;" horiz-adv-x="385" 
d="M162 636q0 14 9.5 24.5t23.5 10.5q12 0 20 -8t8 -20q0 -13 -10.5 -22.5t-23.5 -9.5q-11 0 -19 7t-8 18zM332 636q0 14 9.5 24.5t23.5 10.5q12 0 20 -8t8 -20q0 -13 -10.5 -22.5t-23.5 -9.5q-11 0 -19 7t-8 18z" />
    <glyph glyph-name="copyright" unicode="&#xa9;" horiz-adv-x="834" 
d="M424 724q151 0 258 -108q108 -108 108 -260t-108 -260q-107 -107 -258 -107q-153 0 -260 107q-107 109 -107 260q0 153 107 260q106 108 260 108zM424 18q139 0 238 99t99 239t-99 239q-99 100 -238 100q-140 0 -239 -100q-99 -99 -99 -239t99 -239t239 -99zM434 564
q46 0 89 -22v-30q-41 23 -89 23q-76 0 -125 -52t-49 -127t49 -127q50 -53 125 -53q48 0 89 24v-29q-48 -24 -89 -24q-84 0 -144 61t-60 148t60 147q60 61 144 61z" />
    <glyph glyph-name="ordfeminine" unicode="&#xaa;" horiz-adv-x="420" 
d="M472 716l-67 -313h-28l9 67q-62 -74 -142 -74q-60 0 -93.5 38.5t-33.5 95.5q0 76 52 134q52 60 129 60q76 0 129 -69l13 61h32zM418 620q-42 75 -114 75q-67 0 -110 -49q-43 -47 -43 -122q0 -46 27 -73t75 -27q56 0 99 41q42 39 56 100zM82 321h306l-6 -29h-306z" />
    <glyph glyph-name="guillemotleft" unicode="&#xab;" horiz-adv-x="449" 
d="M282 453l-176 -195l88 -188h-31l-92 192l174 191h37zM439 453l-176 -195l88 -188h-31l-92 192l174 191h37z" />
    <glyph glyph-name="logicalnot" unicode="&#xac;" 
d="M483 124v196h-430v29h459v-225h-29z" />
    <glyph glyph-name="registered" unicode="&#xae;" horiz-adv-x="444" 
d="M89 648q54 55 131 55t131 -55q54 -54 54 -131t-55 -131q-54 -54 -130 -54t-131 54q-54 54 -54 131t54 131zM109 406q46 -45 111 -45t110 45q46 46 46 111t-46 111q-45 46 -110 46t-111 -46q-45 -47 -45 -111q0 -65 45 -111zM303 413h-37l-61 84h-18v-84h-28v210h57
q34 0 52.5 -18t18.5 -43q0 -48 -49 -64zM187 594v-68h29q42 0 42 36q0 32 -42 32h-29z" />
    <glyph glyph-name="macron" unicode="&#xaf;" horiz-adv-x="384" 
d="M165 655h220l-6 -28h-220z" />
    <glyph glyph-name="degree" unicode="&#xb0;" horiz-adv-x="378" 
d="M86 484q-41 43 -41 100q0 58 41 99q43 41 100 41q58 0 99 -41t41 -99q0 -57 -41 -100q-41 -41 -99 -41q-57 0 -100 41zM107 662q-33 -32 -33 -78t33 -79t79 -33t78 33q33 33 33 79t-33 78q-32 33 -78 33t-79 -33z" />
    <glyph glyph-name="plusminus" unicode="&#xb1;" 
d="M53 0v29h459v-29h-459zM268 503h29v-176h215v-29h-215v-174h-29v174h-215v29h215v176z" />
    <glyph glyph-name="twosuperior" unicode="&#xb2;" horiz-adv-x="295" 
d="M324 566l-6 -29h-215l3 19l198 178q39 34 39 72q0 28 -19 46t-48 18q-53 0 -99 -51l8 42q46 38 92 38q40 0 68 -25.5t28 -62.5q0 -52 -51 -97l-167 -148h169z" />
    <glyph glyph-name="threesuperior" unicode="&#xb3;" horiz-adv-x="276" 
d="M188 715l4 24h33q40 0 65.5 23t25.5 55q0 23 -16 38t-43 15q-44 0 -85 -40l8 39q37 30 80 30q38 0 62 -22.5t24 -55.5q0 -67 -65 -96q43 -19 43 -68q0 -52 -42 -89q-40 -37 -95 -37q-49 0 -75 26l7 32q26 -29 71 -29q40 0 72 27q32 29 32 68q0 26 -19.5 43t-53.5 17h-33z
" />
    <glyph glyph-name="acute" unicode="&#xb4;" horiz-adv-x="374" 
d="M182 572l-11 20l168 113l19 -30z" />
    <glyph glyph-name="mu" unicode="&#xb5;" horiz-adv-x="595" 
d="M-25 -216l157 738h29l-66 -312q-7 -21 -7 -55q0 -69 38.5 -104t104.5 -35q77 0 143 51q67 50 85 98l78 357h29l-112 -522h-24l18 100q-40 -48 -97.5 -80.5t-123.5 -32.5q-58 0 -101 28t-57 74l-65 -305h-29z" />
    <glyph glyph-name="paragraph" unicode="&#xb6;" horiz-adv-x="550" 
d="M603 712l-6 -29h-69l-172 -807h-29l172 807h-100l-172 -807h-29l91 426q-72 0 -119 43q-48 43 -48 116q0 104 78 178q77 73 190 73h213z" />
    <glyph glyph-name="periodcentered" unicode="&#xb7;" horiz-adv-x="378" 
d="M184 277q14 0 23 -9.5t9 -22.5q0 -15 -12 -26t-27 -11q-13 0 -22 8.5t-9 21.5q0 16 11.5 27.5t26.5 11.5z" />
    <glyph glyph-name="cedilla" unicode="&#xb8;" horiz-adv-x="399" 
d="M94 -72l31 72h18l-11 -54q31 -2 48 -22.5t11 -48.5q-7 -34 -35 -56.5t-70 -22.5q-23 0 -44 12l6 28q25 -11 33 -11q69 0 80 50q5 24 -12 38.5t-47 14.5h-8z" />
    <glyph glyph-name="onesuperior" unicode="&#xb9;" horiz-adv-x="255" 
d="M285 893h22l-75 -356h-29l65 311l-119 -83l8 36z" />
    <glyph glyph-name="ordmasculine" unicode="&#xba;" horiz-adv-x="420" 
d="M440 584q-2 -78 -56 -132q-54 -56 -129 -56q-63 0 -100.5 39t-37.5 99q0 76 54 133q55 57 131 57q63 0 100 -39.5t38 -100.5zM406 588q0 48 -29.5 77.5t-74.5 29.5q-58 0 -105 -47q-46 -46 -46 -116q0 -48 29.5 -78t74.5 -30q58 0 105 47q46 46 46 117zM82 321h295
l-6 -29h-295z" />
    <glyph glyph-name="guillemotright" unicode="&#xbb;" horiz-adv-x="448" 
d="M184 70l176 195l-88 188h31l92 -192l-174 -191h-37zM27 70l176 195l-88 188h31l92 -192l-174 -191h-37z" />
    <glyph glyph-name="onequarter" unicode="&#xbc;" horiz-adv-x="737" 
d="M577 0h-29l19 92h-220l7 31l292 304h21l-65 -306h53l-6 -29h-53zM573 121l34 158q5 28 10 49t10 37l-3 2q-4 -5 -13.5 -14.5l-20 -21l-20 -22l-15.5 -17.5l-166 -171h184zM272 707h23l-90 -427h-29l81 383l-147 -105l8 39zM662 715l-526 -727l-23 16l527 727z" />
    <glyph glyph-name="onehalf" unicode="&#xbd;" horiz-adv-x="808" 
d="M723 29l-6 -29h-257l3 20l241 214q48 42 48 89q0 35 -23 58.5t-60 23.5q-62 0 -117 -58l8 43q53 44 111 44q48 0 80 -30.5t32 -75.5q0 -63 -60 -115l-209 -184h209zM272 707h23l-90 -427h-29l81 383l-147 -105l8 39zM662 715l-526 -727l-23 16l527 727z" />
    <glyph glyph-name="threequarters" unicode="&#xbe;" horiz-adv-x="789" 
d="M719 715l-526 -727l-23 16l527 727zM619 0h-29l19 92h-220l7 31l292 304h21l-65 -306h53l-6 -29h-53zM615 121l34 158q5 28 10 49t10 37l-3 2q-4 -5 -13.5 -14.5l-20 -21l-20 -22l-15.5 -17.5l-166 -171h184zM157 496l5 25h41q48 0 80 29q33 28 33 67q0 29 -21 48.5
t-54 19.5q-52 0 -102 -44l8 39q44 34 96 34q45 0 74 -26.5t29 -66.5q0 -36 -21.5 -67.5t-59.5 -47.5q54 -23 54 -84q0 -59 -50 -104t-113 -45q-59 0 -93 31l7 31q33 -33 87 -33q50 0 91 35q41 36 41 83q0 32 -25 53.5t-67 22.5h-40z" />
    <glyph glyph-name="questiondown" unicode="&#xbf;" horiz-adv-x="480" 
d="M306 416q-13 0 -22 9t-9 23q0 15 12 26t27 11q13 0 22 -8.5t9 -21.5q0 -16 -12 -27.5t-27 -11.5zM133 -225q-67 0 -111 44t-44 105q0 49 26.5 91.5t65.5 72.5q28 22 59 43.5t58 43.5t47 45t25 48l11 49h29l-12 -55q-8 -37 -40 -70.5t-71 -61.5l-59 -41.5t-54 -46
t-39.5 -52.5t-15.5 -62q0 -26 9.5 -48.5t27 -39t41 -26.5t52.5 -10q56 0 108 40l-8 -41q-49 -28 -105 -28z" />
    <glyph glyph-name="Agrave" unicode="&#xc0;" horiz-adv-x="696" 
d="M455 712l164 -712h-32l-39 179h-420l-115 -179h-36l466 712h12zM542 208l-75 327q-8 34 -14 64.5t-11 59.5h-4l-26.5 -42l-52.5 -82l-213 -327h396zM561 825l-15 -20l-152 104l25 29z" />
    <glyph glyph-name="Aacute" unicode="&#xc1;" horiz-adv-x="696" 
d="M455 712l164 -712h-32l-39 179h-420l-115 -179h-36l466 712h12zM542 208l-75 327q-8 34 -14 64.5t-11 59.5h-4l-26.5 -42l-52.5 -82l-213 -327h396zM395 805l-11 20l168 113l19 -30z" />
    <glyph glyph-name="Acircumflex" unicode="&#xc2;" horiz-adv-x="696" 
d="M455 712l164 -712h-32l-39 179h-420l-115 -179h-36l466 712h12zM542 208l-75 327q-8 34 -14 64.5t-11 59.5h-4l-26.5 -42l-52.5 -82l-213 -327h396zM611 831l-15 -19l-114 80l-132 -80l-11 20l147 104z" />
    <glyph glyph-name="Atilde" unicode="&#xc3;" horiz-adv-x="696" 
d="M455 712l164 -712h-32l-39 179h-420l-115 -179h-36l466 712h12zM542 208l-75 327q-8 34 -14 64.5t-11 59.5h-4l-26.5 -42l-52.5 -82l-213 -327h396zM531 837q-23 0 -58 20q-35 21 -57 21q-37 0 -63 -32l-17 18q36 45 88 45q21 0 59 -21q40 -20 56 -20q33 0 62 33l17 -17
q-42 -47 -87 -47z" />
    <glyph glyph-name="Adieresis" unicode="&#xc4;" horiz-adv-x="696" 
d="M455 712l164 -712h-32l-39 179h-420l-115 -179h-36l466 712h12zM542 208l-75 327q-8 34 -14 64.5t-11 59.5h-4l-26.5 -42l-52.5 -82l-213 -327h396zM367 869q0 14 9.5 24.5t23.5 10.5q12 0 20 -8t8 -20q0 -13 -10.5 -22.5t-23.5 -9.5q-11 0 -19 7t-8 18zM537 869
q0 14 9.5 24.5t23.5 10.5q12 0 20 -8t8 -20q0 -13 -10.5 -22.5t-23.5 -9.5q-11 0 -19 7t-8 18z" />
    <glyph glyph-name="Aring" unicode="&#xc5;" horiz-adv-x="696" 
d="M455 712l164 -712h-32l-39 179h-420l-115 -179h-36l466 712h12zM542 208l-75 327q-8 34 -14 64.5t-11 59.5h-4l-26.5 -42l-52.5 -82l-213 -327h396zM394 874q0 35 24.5 60t59.5 25q18 0 34 -6.5t27.5 -18t18.5 -27t7 -33.5q-1 -36 -25.5 -60.5t-60.5 -24.5
q-18 0 -33.5 6.5t-27 18t-18 27t-6.5 33.5zM420 874q-1 -24 16.5 -41.5t41.5 -17.5q25 0 42.5 17.5t18.5 41.5q0 24 -18 41.5t-43 17.5q-23 0 -40.5 -17.5t-17.5 -41.5z" />
    <glyph glyph-name="AE" unicode="&#xc6;" horiz-adv-x="958" 
d="M980 683h-404v-291h332l-6 -29h-326v-334h265l-6 -29h-288v179h-391l-138 -179h-41l551 712h458zM179 208h368v477h-5l-9.5 -14l-17.5 -24.5l-20 -27l-17 -22.5z" />
    <glyph glyph-name="Ccedilla" unicode="&#xc7;" horiz-adv-x="646" 
d="M324 -72l26 62q-121 4 -202 85q-79 80 -79 199q0 94 36 177t96 143t138.5 95t163.5 35q90 0 162 -42l-7 -34q-67 47 -158 47q-107 0 -199 -58t-148 -153q-54 -95 -54 -200q0 -115 74 -191q75 -75 197 -75q90 0 179 48l-8 -35q-85 -40 -170 -42l-9 -43q31 -2 48 -22.5
t11 -48.5q-7 -34 -35 -56.5t-70 -22.5q-23 0 -44 12l6 28q25 -11 33 -11q69 0 80 50q5 24 -12 38.5t-47 14.5h-8z" />
    <glyph glyph-name="Egrave" unicode="&#xc8;" horiz-adv-x="532" 
d="M45 0l151 712h364l-6 -29h-335l-62 -291h325l-6 -29h-325l-71 -334h335l-6 -29h-364zM492 825l-15 -20l-152 104l25 29z" />
    <glyph glyph-name="Eacute" unicode="&#xc9;" horiz-adv-x="532" 
d="M45 0l151 712h364l-6 -29h-335l-62 -291h325l-6 -29h-325l-71 -334h335l-6 -29h-364zM322 805l-11 20l168 113l19 -30z" />
    <glyph glyph-name="Ecircumflex" unicode="&#xca;" horiz-adv-x="532" 
d="M45 0l151 712h364l-6 -29h-335l-62 -291h325l-6 -29h-325l-71 -334h335l-6 -29h-364zM538 831l-15 -19l-114 80l-132 -80l-11 20l147 104z" />
    <glyph glyph-name="Edieresis" unicode="&#xcb;" horiz-adv-x="532" 
d="M45 0l151 712h364l-6 -29h-335l-62 -291h325l-6 -29h-325l-71 -334h335l-6 -29h-364zM297 869q0 14 9.5 24.5t23.5 10.5q12 0 20 -8t8 -20q0 -13 -10.5 -22.5t-23.5 -9.5q-11 0 -19 7t-8 18zM467 869q0 14 9.5 24.5t23.5 10.5q12 0 20 -8t8 -20q0 -13 -10.5 -22.5
t-23.5 -9.5q-11 0 -19 7t-8 18z" />
    <glyph glyph-name="Igrave" unicode="&#xcc;" horiz-adv-x="231" 
d="M225 712l-151 -712h-29l151 712h29zM326 825l-15 -20l-152 104l25 29z" />
    <glyph glyph-name="Iacute" unicode="&#xcd;" horiz-adv-x="231" 
d="M225 712l-151 -712h-29l151 712h29zM159 805l-11 20l168 113l19 -30z" />
    <glyph glyph-name="Icircumflex" unicode="&#xce;" horiz-adv-x="231" 
d="M225 712l-151 -712h-29l151 712h29zM375 831l-15 -19l-114 80l-132 -80l-11 20l147 104z" />
    <glyph glyph-name="Idieresis" unicode="&#xcf;" horiz-adv-x="231" 
d="M225 712l-151 -712h-29l151 712h29zM131 869q0 14 9.5 24.5t23.5 10.5q12 0 20 -8t8 -20q0 -13 -10.5 -22.5t-23.5 -9.5q-11 0 -19 7t-8 18zM301 869q0 14 9.5 24.5t23.5 10.5q12 0 20 -8t8 -20q0 -13 -10.5 -22.5t-23.5 -9.5q-11 0 -19 7t-8 18z" />
    <glyph glyph-name="Eth" unicode="&#xd0;" horiz-adv-x="696" 
d="M30 342l6 29h87l73 341h148q162 0 248 -74q85 -73 85 -194q0 -88 -32 -167.5t-90 -142.5q-58 -61 -148.5 -97.5t-199.5 -36.5h-162l72 342h-87zM207 29q184 -6 312 111q128 119 128 298q0 121 -80.5 183t-227.5 62h-120l-67 -312h223l-6 -29h-223l-66 -313h127z" />
    <glyph glyph-name="Ntilde" unicode="&#xd1;" horiz-adv-x="734" 
d="M728 712l-151 -712h-13l-296 560l-29 56.5t-23 47.5l-4 -1l-24 -122l-114 -541h-29l151 712h22l297 -557q37 -69 44 -92h4l11.5 60.5l14.5 73.5l110 515h29zM541 837q-23 0 -58 20q-35 21 -57 21q-37 0 -63 -32l-17 18q36 45 88 45q20 0 59 -21q40 -20 56 -20q33 0 62 33
l17 -17q-42 -47 -87 -47z" />
    <glyph glyph-name="Ograve" unicode="&#xd2;" horiz-adv-x="822" 
d="M503 724q130 0 213 -86q84 -86 84 -214q0 -116 -63 -218q-62 -101 -162 -159t-208 -58q-131 0 -213 84q-83 85 -83 212q0 43 9.5 86t27 83t42 75.5t54.5 64.5q60 60 138.5 95t160.5 35zM370 18q99 0 191 54q93 56 151 149q58 94 58 202q0 119 -75 196q-75 76 -195 76
q-75 0 -148 -33.5t-128 -88.5t-89 -130.5t-34 -156.5q0 -118 75 -193t194 -75zM621 825l-15 -20l-152 104l25 29z" />
    <glyph glyph-name="Oacute" unicode="&#xd3;" horiz-adv-x="822" 
d="M503 724q130 0 213 -86q84 -86 84 -214q0 -116 -63 -218q-62 -101 -162 -159t-208 -58q-131 0 -213 84q-83 85 -83 212q0 43 9.5 86t27 83t42 75.5t54.5 64.5q60 60 138.5 95t160.5 35zM370 18q99 0 191 54q93 56 151 149q58 94 58 202q0 119 -75 196q-75 76 -195 76
q-75 0 -148 -33.5t-128 -88.5t-89 -130.5t-34 -156.5q0 -118 75 -193t194 -75zM453 805l-11 20l168 113l19 -30z" />
    <glyph glyph-name="Ocircumflex" unicode="&#xd4;" horiz-adv-x="822" 
d="M503 724q130 0 213 -86q84 -86 84 -214q0 -116 -63 -218q-62 -101 -162 -159t-208 -58q-131 0 -213 84q-83 85 -83 212q0 43 9.5 86t27 83t42 75.5t54.5 64.5q60 60 138.5 95t160.5 35zM370 18q99 0 191 54q93 56 151 149q58 94 58 202q0 119 -75 196q-75 76 -195 76
q-75 0 -148 -33.5t-128 -88.5t-89 -130.5t-34 -156.5q0 -118 75 -193t194 -75zM673 831l-15 -19l-114 80l-132 -80l-11 20l147 104z" />
    <glyph glyph-name="Otilde" unicode="&#xd5;" horiz-adv-x="822" 
d="M503 724q130 0 213 -86q84 -86 84 -214q0 -116 -63 -218q-62 -101 -162 -159t-208 -58q-131 0 -213 84q-83 85 -83 212q0 43 9.5 86t27 83t42 75.5t54.5 64.5q60 60 138.5 95t160.5 35zM370 18q99 0 191 54q93 56 151 149q58 94 58 202q0 119 -75 196q-75 76 -195 76
q-75 0 -148 -33.5t-128 -88.5t-89 -130.5t-34 -156.5q0 -118 75 -193t194 -75zM596 837q-23 0 -58 20q-35 21 -57 21q-37 0 -63 -32l-17 18q36 45 88 45q21 0 59 -21q38 -20 56 -20q33 0 62 33l17 -17q-42 -47 -87 -47z" />
    <glyph glyph-name="Odieresis" unicode="&#xd6;" horiz-adv-x="822" 
d="M503 724q130 0 213 -86q84 -86 84 -214q0 -116 -63 -218q-62 -101 -162 -159t-208 -58q-131 0 -213 84q-83 85 -83 212q0 43 9.5 86t27 83t42 75.5t54.5 64.5q60 60 138.5 95t160.5 35zM370 18q99 0 191 54q93 56 151 149q58 94 58 202q0 119 -75 196q-75 76 -195 76
q-75 0 -148 -33.5t-128 -88.5t-89 -130.5t-34 -156.5q0 -118 75 -193t194 -75zM430 869q0 14 9.5 24.5t23.5 10.5q12 0 20 -8t8 -20q0 -13 -10.5 -22.5t-23.5 -9.5q-11 0 -19 7t-8 18zM600 869q0 14 9.5 24.5t23.5 10.5q12 0 20 -8t8 -20q0 -13 -10.5 -22.5t-23.5 -9.5
q-11 0 -19 7t-8 18z" />
    <glyph glyph-name="multiply" unicode="&#xd7;" 
d="M68 435l21 20l193 -193l193 192l20 -20l-192 -193l193 -193l-21 -20l-193 193l-192 -193l-21 20l193 193z" />
    <glyph glyph-name="Oslash" unicode="&#xd8;" horiz-adv-x="822" 
d="M503 724q127 0 212 -85l109 104l18 -19l-109 -104q67 -82 67 -196q0 -116 -63 -218q-62 -101 -162 -159t-208 -58q-128 0 -211 82l-107 -102l-19 19l108 102q-67 79 -67 195q0 43 9.5 86t27 83t42 75.5t54.5 64.5q60 60 138.5 95t160.5 35zM101 286q0 -105 58 -175
l535 508q-76 76 -194 76q-75 0 -148 -33.5t-128 -88.5t-89 -130.5t-34 -156.5zM370 18q99 0 191 54q93 56 151 149q58 94 58 202q0 102 -59 176l-533 -508q74 -73 192 -73z" />
    <glyph glyph-name="Ugrave" unicode="&#xd9;" horiz-adv-x="659" 
d="M570 245q-25 -116 -108 -187q-83 -69 -180 -69q-85 0 -140 52t-55 142q0 17 1.5 33t5.5 32l98 464h29l-98 -459q-4 -16 -5.5 -32t-1.5 -32q0 -41 12.5 -72.5t34.5 -53.5t53 -33.5t68 -11.5q86 0 160 62q74 63 98 173l98 459h29zM538 825l-15 -20l-152 104l25 29z" />
    <glyph glyph-name="Uacute" unicode="&#xda;" horiz-adv-x="659" 
d="M570 245q-25 -116 -108 -187q-83 -69 -180 -69q-85 0 -140 52t-55 142q0 17 1.5 33t5.5 32l98 464h29l-98 -459q-4 -16 -5.5 -32t-1.5 -32q0 -41 12.5 -72.5t34.5 -53.5t53 -33.5t68 -11.5q86 0 160 62q74 63 98 173l98 459h29zM371 805l-11 20l168 113l19 -30z" />
    <glyph glyph-name="Ucircumflex" unicode="&#xdb;" horiz-adv-x="659" 
d="M570 245q-25 -116 -108 -187q-83 -69 -180 -69q-85 0 -140 52t-55 142q0 17 1.5 33t5.5 32l98 464h29l-98 -459q-4 -16 -5.5 -32t-1.5 -32q0 -41 12.5 -72.5t34.5 -53.5t53 -33.5t68 -11.5q86 0 160 62q74 63 98 173l98 459h29zM590 831l-15 -19l-114 80l-132 -80l-11 20
l147 104z" />
    <glyph glyph-name="Udieresis" unicode="&#xdc;" horiz-adv-x="659" 
d="M570 245q-25 -116 -108 -187q-83 -69 -180 -69q-85 0 -140 52t-55 142q0 17 1.5 33t5.5 32l98 464h29l-98 -459q-4 -16 -5.5 -32t-1.5 -32q0 -41 12.5 -72.5t34.5 -53.5t53 -33.5t68 -11.5q86 0 160 62q74 63 98 173l98 459h29zM347 869q0 14 9.5 24.5t23.5 10.5
q12 0 20 -8t8 -20q0 -13 -10.5 -22.5t-23.5 -9.5q-11 0 -19 7t-8 18zM517 869q0 14 9.5 24.5t23.5 10.5q12 0 20 -8t8 -20q0 -13 -10.5 -22.5t-23.5 -9.5q-11 0 -19 7t-8 18z" />
    <glyph glyph-name="Yacute" unicode="&#xdd;" horiz-adv-x="560" 
d="M598 712h36l-327 -415l-63 -297h-29l63 297l-150 415h31l102 -283l35 -99h4l28 38.5t46 59.5zM326 805l-11 20l168 113l19 -30z" />
    <glyph glyph-name="Thorn" unicode="&#xde;" horiz-adv-x="561" 
d="M344 580q50 0 88.5 -13t65 -35.5t40.5 -54.5t14 -69q0 -109 -82 -185q-80 -76 -211 -76h-154l-31 -147h-29l151 712h29l-28 -132h147zM260 176q112 0 186 64q76 64 76 166q0 67 -47.5 106t-134.5 39h-149l-80 -375h149z" />
    <glyph glyph-name="germandbls" unicode="&#xdf;" horiz-adv-x="531" 
d="M369 423q55 -20 82 -63t27 -97q0 -112 -76 -192q-77 -81 -191 -81q-26 0 -42 3l6 28q6 -1 15 -1.5t20 -0.5q93 0 166 65q72 66 72 179q0 72 -46.5 109.5t-127.5 37.5h-16l6 29h16q99 0 150 58q52 58 52 130q0 50 -30 84.5t-89 34.5q-60 0 -112 -46q-54 -48 -67 -114
l-124 -586h-29l124 587q16 82 78 135t136 53q32 0 58.5 -10.5t45 -29.5t29 -45.5t10.5 -57.5q0 -33 -10 -64.5t-28.5 -58.5t-45 -49t-59.5 -37z" />
    <glyph glyph-name="agrave" unicode="&#xe0;" horiz-adv-x="668" 
d="M269 18q90 0 175 65q84 64 102 145l28 131q-15 56 -66 101q-49 46 -132 46q-117 0 -205 -90q-88 -89 -88 -214q0 -41 13 -75t37 -58t58.5 -37.5t77.5 -13.5zM608 522h30l-111 -522h-23l20 129q-44 -65 -116 -102q-74 -38 -146 -38q-99 0 -154 60q-55 61 -55 151
q0 130 96 232q97 103 228 103q39 0 71.5 -10t58.5 -27t45.5 -39.5t31.5 -48.5zM505 636l-15 -20l-152 104l25 29z" />
    <glyph glyph-name="aacute" unicode="&#xe1;" horiz-adv-x="668" 
d="M269 18q90 0 175 65q84 64 102 145l28 131q-15 56 -66 101q-49 46 -132 46q-117 0 -205 -90q-88 -89 -88 -214q0 -41 13 -75t37 -58t58.5 -37.5t77.5 -13.5zM608 522h30l-111 -522h-23l20 129q-44 -65 -116 -102q-74 -38 -146 -38q-99 0 -154 60q-55 61 -55 151
q0 130 96 232q97 103 228 103q39 0 71.5 -10t58.5 -27t45.5 -39.5t31.5 -48.5zM337 616l-11 20l168 113l19 -30z" />
    <glyph glyph-name="acircumflex" unicode="&#xe2;" horiz-adv-x="668" 
d="M269 18q90 0 175 65q84 64 102 145l28 131q-15 56 -66 101q-49 46 -132 46q-117 0 -205 -90q-88 -89 -88 -214q0 -41 13 -75t37 -58t58.5 -37.5t77.5 -13.5zM608 522h30l-111 -522h-23l20 129q-44 -65 -116 -102q-74 -38 -146 -38q-99 0 -154 60q-55 61 -55 151
q0 130 96 232q97 103 228 103q39 0 71.5 -10t58.5 -27t45.5 -39.5t31.5 -48.5zM555 642l-15 -19l-114 80l-132 -80l-11 20l147 104z" />
    <glyph glyph-name="atilde" unicode="&#xe3;" horiz-adv-x="668" 
d="M269 18q90 0 175 65q84 64 102 145l28 131q-15 56 -66 101q-49 46 -132 46q-117 0 -205 -90q-88 -89 -88 -214q0 -41 13 -75t37 -58t58.5 -37.5t77.5 -13.5zM608 522h30l-111 -522h-23l20 129q-44 -65 -116 -102q-74 -38 -146 -38q-99 0 -154 60q-55 61 -55 151
q0 130 96 232q97 103 228 103q39 0 71.5 -10t58.5 -27t45.5 -39.5t31.5 -48.5zM476 648q-23 0 -58 20q-35 21 -57 21q-37 0 -63 -32l-17 18q36 45 88 45q21 0 59 -21q38 -20 56 -20q33 0 62 33l17 -17q-42 -47 -87 -47z" />
    <glyph glyph-name="adieresis" unicode="&#xe4;" horiz-adv-x="668" 
d="M269 18q90 0 175 65q84 64 102 145l28 131q-15 56 -66 101q-49 46 -132 46q-117 0 -205 -90q-88 -89 -88 -214q0 -41 13 -75t37 -58t58.5 -37.5t77.5 -13.5zM608 522h30l-111 -522h-23l20 129q-44 -65 -116 -102q-74 -38 -146 -38q-99 0 -154 60q-55 61 -55 151
q0 130 96 232q97 103 228 103q39 0 71.5 -10t58.5 -27t45.5 -39.5t31.5 -48.5zM302 680q0 14 9.5 24.5t23.5 10.5q12 0 20 -8t8 -20q0 -13 -10.5 -22.5t-23.5 -9.5q-11 0 -19 7t-8 18zM472 680q0 14 9.5 24.5t23.5 10.5q12 0 20 -8t8 -20q0 -13 -10.5 -22.5t-23.5 -9.5
q-11 0 -19 7t-8 18z" />
    <glyph glyph-name="aring" unicode="&#xe5;" horiz-adv-x="668" 
d="M269 18q90 0 175 65q84 64 102 145l28 131q-15 56 -66 101q-49 46 -132 46q-117 0 -205 -90q-88 -89 -88 -214q0 -41 13 -75t37 -58t58.5 -37.5t77.5 -13.5zM608 522h30l-111 -522h-23l20 129q-44 -65 -116 -102q-74 -38 -146 -38q-99 0 -154 60q-55 61 -55 151
q0 130 96 232q97 103 228 103q39 0 71.5 -10t58.5 -27t45.5 -39.5t31.5 -48.5zM331 685q0 35 24.5 60t59.5 25q18 0 34 -6.5t27.5 -18t18.5 -27t7 -33.5q-1 -36 -25.5 -60.5t-60.5 -24.5q-18 0 -33.5 6.5t-27 18t-18 27t-6.5 33.5zM357 685q-1 -24 17 -41.5t41 -17.5
q25 0 42.5 17.5t18.5 41.5q0 24 -18 41.5t-43 17.5q-23 0 -40.5 -17.5t-17.5 -41.5z" />
    <glyph glyph-name="ae" unicode="&#xe6;" horiz-adv-x="949" 
d="M892 272h-424q-6 -30 -6 -60q0 -85 48 -140q49 -54 130 -54q93 0 178 58l-8 -35q-85 -52 -176 -52q-78 0 -131 44.5t-67 119.5q-40 -73 -118 -119q-77 -45 -153 -45q-69 0 -109 35t-40 89q0 75 63 131q63 57 156 57h209l10 48q2 15 3 24t1 12q0 63 -49 91q-50 30 -111 30
t-141 -34l8 34q81 29 135 29q42 0 76 -10t59 -29t38.5 -46.5t13.5 -61.5q45 66 108 106.5t133 40.5q40 0 73 -11.5t56 -34t36 -54.5t13 -72q0 -28 -8 -68zM438 271h-206q-72 0 -130 -44q-56 -44 -56 -110q0 -46 32.5 -72.5t89.5 -26.5q78 0 156 57q78 59 99 127zM869 301
q6 33 6 58q0 72 -42 109.5t-108 37.5q-79 0 -146 -58q-67 -56 -103 -147h393z" />
    <glyph glyph-name="ccedilla" unicode="&#xe7;" horiz-adv-x="496" 
d="M222 -72l26 62q-85 4 -141 64q-54 58 -54 148q0 140 95 237q94 96 218 96q75 0 128 -38l-6 -32q-53 41 -126 41q-108 0 -193 -87q-86 -86 -86 -214q0 -42 13.5 -76.5t38.5 -59t59 -38t75 -13.5q70 0 141 46l-5 -38q-65 -36 -136 -37l-9 -43q31 -2 48 -22.5t11 -48.5
q-7 -34 -35 -56.5t-70 -22.5q-23 0 -44 12l6 28q25 -11 33 -11q69 0 80 50q5 24 -12 38.5t-47 14.5h-8z" />
    <glyph glyph-name="egrave" unicode="&#xe8;" horiz-adv-x="569" 
d="M435 41q-82 -52 -174 -52q-90 0 -148 63q-58 62 -58 157q0 124 84 225q86 101 209 101q39 0 72 -11.5t57 -34t37 -54.5t13 -72q0 -51 -10 -91h-427q-2 -17 -3.5 -31.5t-1.5 -28.5q0 -85 49 -140q49 -54 131 -54q90 0 177 60zM491 301q6 33 6 59q0 70 -42.5 108t-108.5 38
q-85 0 -150 -55.5t-98 -149.5h393zM472 636l-15 -20l-152 104l25 29z" />
    <glyph glyph-name="eacute" unicode="&#xe9;" horiz-adv-x="569" 
d="M435 41q-82 -52 -174 -52q-90 0 -148 63q-58 62 -58 157q0 124 84 225q86 101 209 101q39 0 72 -11.5t57 -34t37 -54.5t13 -72q0 -51 -10 -91h-427q-2 -17 -3.5 -31.5t-1.5 -28.5q0 -85 49 -140q49 -54 131 -54q90 0 177 60zM491 301q6 33 6 59q0 70 -42.5 108t-108.5 38
q-85 0 -150 -55.5t-98 -149.5h393zM304 616l-11 20l168 113l19 -30z" />
    <glyph glyph-name="ecircumflex" unicode="&#xea;" horiz-adv-x="569" 
d="M435 41q-82 -52 -174 -52q-90 0 -148 63q-58 62 -58 157q0 124 84 225q86 101 209 101q39 0 72 -11.5t57 -34t37 -54.5t13 -72q0 -51 -10 -91h-427q-2 -17 -3.5 -31.5t-1.5 -28.5q0 -85 49 -140q49 -54 131 -54q90 0 177 60zM491 301q6 33 6 59q0 70 -42.5 108t-108.5 38
q-85 0 -150 -55.5t-98 -149.5h393zM521 642l-15 -19l-114 80l-132 -80l-11 20l147 104z" />
    <glyph glyph-name="edieresis" unicode="&#xeb;" horiz-adv-x="569" 
d="M435 41q-82 -52 -174 -52q-90 0 -148 63q-58 62 -58 157q0 124 84 225q86 101 209 101q39 0 72 -11.5t57 -34t37 -54.5t13 -72q0 -51 -10 -91h-427q-2 -17 -3.5 -31.5t-1.5 -28.5q0 -85 49 -140q49 -54 131 -54q90 0 177 60zM491 301q6 33 6 59q0 70 -42.5 108t-108.5 38
q-85 0 -150 -55.5t-98 -149.5h393zM274 680q0 14 9.5 24.5t23.5 10.5q12 0 20 -8t8 -20q0 -13 -10.5 -22.5t-23.5 -9.5q-11 0 -19 7t-8 18zM444 680q0 14 9.5 24.5t23.5 10.5q12 0 20 -8t8 -20q0 -13 -10.5 -22.5t-23.5 -9.5q-11 0 -19 7t-8 18z" />
    <glyph glyph-name="igrave" unicode="&#xec;" horiz-adv-x="205" 
d="M66 0h-29l111 522h29zM275 636l-15 -20l-152 104l25 29z" />
    <glyph glyph-name="iacute" unicode="&#xed;" horiz-adv-x="205" 
d="M66 0h-29l111 522h29zM109 616l-11 20l168 113l19 -30z" />
    <glyph glyph-name="icircumflex" unicode="&#xee;" horiz-adv-x="205" 
d="M66 0h-29l111 522h29zM329 642l-15 -19l-114 80l-132 -80l-11 20l147 104z" />
    <glyph glyph-name="idieresis" unicode="&#xef;" horiz-adv-x="205" 
d="M77 680q0 14 9.5 24.5t23.5 10.5q12 0 20 -8t8 -20q0 -13 -10.5 -22.5t-23.5 -9.5q-11 0 -19 7t-8 18zM247 680q0 14 9.5 24.5t23.5 10.5q12 0 20 -8t8 -20q0 -13 -10.5 -22.5t-23.5 -9.5q-11 0 -19 7t-8 18zM66 0h-29l111 522h29z" />
    <glyph glyph-name="eth" unicode="&#xf0;" horiz-adv-x="610" 
d="M565 741l-116 -97q126 -110 126 -263q0 -84 -28.5 -158t-76.5 -125q-46 -51 -104 -80t-116 -29q-90 0 -145 55q-56 56 -56 141q0 116 87 205q87 88 200 88q67 0 121.5 -32t87.5 -89q0 3 0.5 10t0.5 11q0 146 -119 247l-125 -104l-16 21l120 101q-108 81 -235 103l5 29
q155 -38 252 -113l120 100zM252 18q97 0 180 83q81 81 107 210q-66 138 -203 138q-100 0 -179 -78q-78 -78 -78 -179q0 -74 47 -124q48 -50 126 -50z" />
    <glyph glyph-name="ntilde" unicode="&#xf1;" horiz-adv-x="609" 
d="M145 522h24l-19 -100q20 23 45.5 43.5t54 36t60 24.5t63.5 9q78 0 123 -44.5t45 -119.5q0 -25 -7 -56l-67 -315h-29l66 312q6 30 6 55q0 69 -38.5 104t-104.5 35q-76 0 -141 -50q-64 -49 -87 -98l-76 -358h-29zM457 648q-23 0 -58 20q-35 21 -57 21q-37 0 -63 -32l-17 18
q36 45 88 45q20 0 59 -21q40 -20 56 -20q33 0 62 33l17 -17q-42 -47 -87 -47z" />
    <glyph glyph-name="ograve" unicode="&#xf2;" horiz-adv-x="644" 
d="M368 506q-114 0 -199 -90q-85 -89 -85 -206q0 -86 52 -139q53 -53 139 -53q108 0 197 86t89 206q0 87 -55 141q-54 55 -138 55zM370 535q98 0 159 -64q62 -65 62 -160q0 -129 -97 -226q-96 -96 -221 -96q-96 0 -158 62q-61 61 -61 155q0 134 96 232q96 97 220 97z
M491 636l-15 -20l-152 104l25 29z" />
    <glyph glyph-name="oacute" unicode="&#xf3;" horiz-adv-x="644" 
d="M368 506q-114 0 -199 -90q-85 -89 -85 -206q0 -86 52 -139q53 -53 139 -53q108 0 197 86t89 206q0 87 -55 141q-54 55 -138 55zM370 535q98 0 159 -64q62 -65 62 -160q0 -129 -97 -226q-96 -96 -221 -96q-96 0 -158 62q-61 61 -61 155q0 134 96 232q96 97 220 97z
M327 616l-11 20l168 113l19 -30z" />
    <glyph glyph-name="ocircumflex" unicode="&#xf4;" horiz-adv-x="644" 
d="M368 506q-114 0 -199 -90q-85 -89 -85 -206q0 -86 52 -139q53 -53 139 -53q108 0 197 86t89 206q0 87 -55 141q-54 55 -138 55zM370 535q98 0 159 -64q62 -65 62 -160q0 -129 -97 -226q-96 -96 -221 -96q-96 0 -158 62q-61 61 -61 155q0 134 96 232q96 97 220 97z
M543 642l-15 -19l-114 80l-132 -80l-11 20l147 104z" />
    <glyph glyph-name="otilde" unicode="&#xf5;" horiz-adv-x="644" 
d="M368 506q-114 0 -199 -90q-85 -89 -85 -206q0 -86 52 -139q53 -53 139 -53q108 0 197 86t89 206q0 87 -55 141q-54 55 -138 55zM370 535q98 0 159 -64q62 -65 62 -160q0 -129 -97 -226q-96 -96 -221 -96q-96 0 -158 62q-61 61 -61 155q0 134 96 232q96 97 220 97z
M464 648q-23 0 -58 20q-35 21 -57 21q-37 0 -63 -32l-17 18q36 45 88 45q21 0 59 -21q38 -20 56 -20q33 0 62 33l17 -17q-42 -47 -87 -47z" />
    <glyph glyph-name="odieresis" unicode="&#xf6;" horiz-adv-x="644" 
d="M368 506q-114 0 -199 -90q-85 -89 -85 -206q0 -86 52 -139q53 -53 139 -53q108 0 197 86t89 206q0 87 -55 141q-54 55 -138 55zM370 535q98 0 159 -64q62 -65 62 -160q0 -129 -97 -226q-96 -96 -221 -96q-96 0 -158 62q-61 61 -61 155q0 134 96 232q96 97 220 97z
M295 680q0 14 9.5 24.5t23.5 10.5q12 0 20 -8t8 -20q0 -13 -10.5 -22.5t-23.5 -9.5q-11 0 -19 7t-8 18zM465 680q0 14 9.5 24.5t23.5 10.5q12 0 20 -8t8 -20q0 -13 -10.5 -22.5t-23.5 -9.5q-11 0 -19 7t-8 18z" />
    <glyph glyph-name="divide" unicode="&#xf7;" 
d="M41 227v30h483v-30h-483zM257 52q12 12 26 10.5t23 -11t10.5 -23t-10.5 -24.5q-11 -12 -24.5 -10.5t-23 11t-11.5 23t10 24.5zM257 474q12 12 26 10.5t23 -11t10.5 -23t-10.5 -24.5q-11 -12 -24.5 -10.5t-23 11t-11.5 23t10 24.5z" />
    <glyph glyph-name="oslash" unicode="&#xf8;" horiz-adv-x="644" 
d="M370 535q93 0 155 -60l81 77l18 -18l-82 -78q49 -61 49 -145q0 -129 -97 -226q-96 -96 -221 -96q-96 0 -157 61l-86 -82l-19 18l88 83q-45 57 -45 137q0 134 96 232q96 97 220 97zM561 310q0 72 -41 125l-382 -365q52 -52 137 -52q108 0 197 86t89 206zM368 506
q-114 0 -199 -90q-85 -89 -85 -206q0 -71 37 -120l382 364q-53 52 -135 52z" />
    <glyph glyph-name="ugrave" unicode="&#xf9;" horiz-adv-x="608" 
d="M548 522h29l-67 -310q-23 -102 -92 -162q-68 -61 -165 -61q-82 0 -131.5 45.5t-49.5 123.5q0 24 6 54l67 310h29l-65 -307q-7 -31 -7 -55q0 -69 41 -105.5t110 -36.5q80 0 144 52q66 54 85 145zM474 636l-15 -20l-152 104l25 29z" />
    <glyph glyph-name="uacute" unicode="&#xfa;" horiz-adv-x="608" 
d="M548 522h29l-67 -310q-23 -102 -92 -162q-68 -61 -165 -61q-82 0 -131.5 45.5t-49.5 123.5q0 24 6 54l67 310h29l-65 -307q-7 -31 -7 -55q0 -69 41 -105.5t110 -36.5q80 0 144 52q66 54 85 145zM305 616l-11 20l168 113l19 -30z" />
    <glyph glyph-name="ucircumflex" unicode="&#xfb;" horiz-adv-x="608" 
d="M548 522h29l-67 -310q-23 -102 -92 -162q-68 -61 -165 -61q-82 0 -131.5 45.5t-49.5 123.5q0 24 6 54l67 310h29l-65 -307q-7 -31 -7 -55q0 -69 41 -105.5t110 -36.5q80 0 144 52q66 54 85 145zM521 642l-15 -19l-114 80l-132 -80l-11 20l147 104z" />
    <glyph glyph-name="udieresis" unicode="&#xfc;" horiz-adv-x="608" 
d="M548 522h29l-67 -310q-23 -102 -92 -162q-68 -61 -165 -61q-82 0 -131.5 45.5t-49.5 123.5q0 24 6 54l67 310h29l-65 -307q-7 -31 -7 -55q0 -69 41 -105.5t110 -36.5q80 0 144 52q66 54 85 145zM275 680q0 14 9.5 24.5t23.5 10.5q12 0 20 -8t8 -20q0 -13 -10.5 -22.5
t-23.5 -9.5q-11 0 -19 7t-8 18zM445 680q0 14 9.5 24.5t23.5 10.5q12 0 20 -8t8 -20q0 -13 -10.5 -22.5t-23.5 -9.5q-11 0 -19 7t-8 18z" />
    <glyph glyph-name="yacute" unicode="&#xfd;" horiz-adv-x="542" 
d="M535 522h34l-503 -738h-32l175 257l-122 481h30l89 -345q7 -27 12.5 -52.5l10.5 -49.5h5q13 24 65 100zM276 616l-11 20l168 113l19 -30z" />
    <glyph glyph-name="thorn" unicode="&#xfe;" horiz-adv-x="668" 
d="M401 506q-92 0 -175 -65q-82 -64 -100 -146l-29 -133q15 -56 65 -100t132 -44q115 0 204 90q90 91 90 212q0 87 -48.5 136.5t-138.5 49.5zM-12 -216l208 980h29l-78 -366q22 32 52 57.5t64 43t71 27t73 9.5q99 0 154 -61q57 -62 57 -152q0 -130 -97 -231
q-98 -102 -228 -102q-76 0 -128.5 36t-77.5 87l-69 -328h-30z" />
    <glyph glyph-name="ydieresis" unicode="&#xff;" horiz-adv-x="542" 
d="M535 522h34l-503 -738h-32l175 257l-122 481h30l89 -345q7 -27 12.5 -52.5l10.5 -49.5h5q13 24 65 100zM243 680q0 14 9.5 24.5t23.5 10.5q12 0 20 -8t8 -20q0 -13 -10.5 -22.5t-23.5 -9.5q-11 0 -19 7t-8 18zM413 680q0 14 9.5 24.5t23.5 10.5q12 0 20 -8t8 -20
q0 -13 -10.5 -22.5t-23.5 -9.5q-11 0 -19 7t-8 18z" />
    <glyph glyph-name="Amacron" unicode="&#x100;" horiz-adv-x="696" 
d="M455 712l164 -712h-32l-39 179h-420l-115 -179h-36l466 712h12zM542 208l-75 327q-8 34 -14 64.5t-11 59.5h-4l-26.5 -42l-52.5 -82l-213 -327h396zM371 888h220l-6 -28h-220z" />
    <glyph glyph-name="amacron" unicode="&#x101;" horiz-adv-x="668" 
d="M269 18q90 0 175 65q84 64 102 145l28 131q-15 56 -66 101q-49 46 -132 46q-117 0 -205 -90q-88 -89 -88 -214q0 -41 13 -75t37 -58t58.5 -37.5t77.5 -13.5zM608 522h30l-111 -522h-23l20 129q-44 -65 -116 -102q-74 -38 -146 -38q-99 0 -154 60q-55 61 -55 151
q0 130 96 232q97 103 228 103q39 0 71.5 -10t58.5 -27t45.5 -39.5t31.5 -48.5zM316 699h220l-6 -28h-220z" />
    <glyph glyph-name="Abreve" unicode="&#x102;" horiz-adv-x="696" 
d="M455 712l164 -712h-32l-39 179h-420l-115 -179h-36l466 712h12zM542 208l-75 327q-8 34 -14 64.5t-11 59.5h-4l-26.5 -42l-52.5 -82l-213 -327h396zM622 911q-50 -89 -147 -89q-100 0 -130 88l24 9q22 -70 107 -70q86 0 123 70z" />
    <glyph glyph-name="abreve" unicode="&#x103;" horiz-adv-x="668" 
d="M269 18q90 0 175 65q84 64 102 145l28 131q-15 56 -66 101q-49 46 -132 46q-117 0 -205 -90q-88 -89 -88 -214q0 -41 13 -75t37 -58t58.5 -37.5t77.5 -13.5zM608 522h30l-111 -522h-23l20 129q-44 -65 -116 -102q-74 -38 -146 -38q-99 0 -154 60q-55 61 -55 151
q0 130 96 232q97 103 228 103q39 0 71.5 -10t58.5 -27t45.5 -39.5t31.5 -48.5zM558 722q-50 -89 -147 -89q-100 0 -130 88l24 9q22 -70 107 -70q86 0 123 70z" />
    <glyph glyph-name="Aogonek" unicode="&#x104;" horiz-adv-x="696" 
d="M592 -168q-18 -7 -38 -7q-35 0 -53 20.5t-11 51.5q6 29 32.5 56.5t64.5 46.5l-39 179h-420l-115 -179h-36l466 712h12l164 -712h-5q-17 -10 -32.5 -22.5t-28 -25t-21 -25.5t-11.5 -25q-5 -23 9 -35.5t37 -12.5q16 0 31 6zM542 208l-75 327q-8 34 -14 64.5t-11 59.5h-4
l-26.5 -42l-52.5 -82l-213 -327h396z" />
    <glyph glyph-name="aogonek" unicode="&#x105;" horiz-adv-x="668" 
d="M508 -168q-18 -7 -38 -7q-35 0 -53 20.5t-11 51.5q12 59 98 104l20 128q-44 -65 -116 -102q-74 -38 -146 -38q-99 0 -154 60q-55 61 -55 151q0 130 96 232q97 103 228 103q39 0 71.5 -10t58.5 -27t45.5 -39.5t31.5 -48.5l24 112h30l-111 -521q-80 -53 -90 -99
q-5 -23 9 -35.5t37 -12.5q16 0 31 6zM269 18q92 0 175 65q84 64 102 145l28 131q-15 56 -66 101q-49 46 -132 46q-117 0 -205 -90q-88 -89 -88 -214q0 -41 13 -75t37 -58t58.5 -37.5t77.5 -13.5z" />
    <glyph glyph-name="Cacute" unicode="&#x106;" horiz-adv-x="646" 
d="M500 695q-107 0 -199 -58t-148 -153q-54 -95 -54 -200q0 -115 74 -191q75 -75 197 -75q90 0 179 48l-8 -35q-90 -42 -174 -42q-129 0 -214 81q-84 82 -84 204q0 94 36 177t96 143t138.5 95t163.5 35q90 0 162 -42l-7 -34q-67 47 -158 47zM442 805l-11 20l168 113l19 -30z
" />
    <glyph glyph-name="cacute" unicode="&#x107;" horiz-adv-x="496" 
d="M362 506q-108 0 -193 -87q-86 -86 -86 -214q0 -42 13.5 -76.5t38.5 -59t59 -38t75 -13.5q70 0 141 46l-5 -38q-67 -37 -140 -37q-92 0 -153 59q-59 61 -59 154q0 140 95 237q94 96 218 96q75 0 128 -38l-6 -32q-53 41 -126 41zM316 616l-11 20l168 113l19 -30z" />
    <glyph glyph-name="Ccircumflex" unicode="&#x108;" horiz-adv-x="646" 
d="M500 695q-107 0 -199 -58t-148 -153q-54 -95 -54 -200q0 -115 74 -191q75 -75 197 -75q90 0 179 48l-8 -35q-90 -42 -174 -42q-129 0 -214 81q-84 82 -84 204q0 94 36 177t96 143t138.5 95t163.5 35q90 0 162 -42l-7 -34q-67 47 -158 47zM645 831l-15 -19l-114 80
l-132 -80l-11 20l147 104z" />
    <glyph glyph-name="ccircumflex" unicode="&#x109;" horiz-adv-x="496" 
d="M362 506q-108 0 -193 -87q-86 -86 -86 -214q0 -42 13.5 -76.5t38.5 -59t59 -38t75 -13.5q70 0 141 46l-5 -38q-67 -37 -140 -37q-92 0 -153 59q-59 61 -59 154q0 140 95 237q94 96 218 96q75 0 128 -38l-6 -32q-53 41 -126 41zM532 642l-15 -19l-114 80l-132 -80l-11 20
l147 104z" />
    <glyph glyph-name="Cdotaccent" unicode="&#x10a;" horiz-adv-x="646" 
d="M500 695q-107 0 -199 -58t-148 -153q-54 -95 -54 -200q0 -115 74 -191q75 -75 197 -75q90 0 179 48l-8 -35q-90 -42 -174 -42q-129 0 -214 81q-84 82 -84 204q0 94 36 177t96 143t138.5 95t163.5 35q90 0 162 -42l-7 -34q-67 47 -158 47zM506 869q0 14 9.5 24.5
t23.5 10.5q12 0 20 -8t8 -20q0 -13 -10.5 -22.5t-23.5 -9.5q-11 0 -19 7t-8 18z" />
    <glyph glyph-name="cdotaccent" unicode="&#x10b;" horiz-adv-x="496" 
d="M362 506q-108 0 -193 -87q-86 -86 -86 -214q0 -42 13.5 -76.5t38.5 -59t59 -38t75 -13.5q70 0 141 46l-5 -38q-67 -37 -140 -37q-92 0 -153 59q-59 61 -59 154q0 140 95 237q94 96 218 96q75 0 128 -38l-6 -32q-53 41 -126 41zM372 680q0 14 9.5 24.5t23.5 10.5
q12 0 20 -8t8 -20q0 -13 -10.5 -22.5t-23.5 -9.5q-11 0 -19 7t-8 18z" />
    <glyph glyph-name="Ccaron" unicode="&#x10c;" horiz-adv-x="646" 
d="M500 695q-107 0 -199 -58t-148 -153q-54 -95 -54 -200q0 -115 74 -191q75 -75 197 -75q90 0 179 48l-8 -35q-90 -42 -174 -42q-129 0 -214 81q-84 82 -84 204q0 94 36 177t96 143t138.5 95t163.5 35q90 0 162 -42l-7 -34q-67 47 -158 47zM663 935l11 -20l-147 -103
l-127 103l16 20l115 -79z" />
    <glyph glyph-name="ccaron" unicode="&#x10d;" horiz-adv-x="496" 
d="M362 506q-108 0 -193 -87q-86 -86 -86 -214q0 -42 13.5 -76.5t38.5 -59t59 -38t75 -13.5q70 0 141 46l-5 -38q-67 -37 -140 -37q-92 0 -153 59q-59 61 -59 154q0 140 95 237q94 96 218 96q75 0 128 -38l-6 -32q-53 41 -126 41zM531 746l11 -20l-147 -103l-127 103l16 20
l115 -79z" />
    <glyph glyph-name="Dcaron" unicode="&#x10e;" horiz-adv-x="696" 
d="M344 712q162 0 248 -74q85 -73 85 -194q0 -88 -32 -167.5t-90 -142.5q-58 -61 -148.5 -97.5t-199.5 -36.5h-162l151 712h148zM207 29h16q179 0 301 116q123 117 123 293q0 121 -80.5 183t-227.5 62h-120l-139 -654h127zM545 935l11 -20l-147 -103l-127 103l16 20l115 -79
z" />
    <glyph glyph-name="dcaron" unicode="&#x10f;" horiz-adv-x="668" 
d="M269 18q91 0 176 65q84 65 101 145l28 132q-15 55 -66 100q-50 46 -132 46q-117 0 -205 -90q-88 -89 -88 -214q0 -41 13 -75t37 -58t58.5 -37.5t77.5 -13.5zM659 764h30l-162 -764h-23l20 127q-43 -64 -116 -101q-71 -37 -145 -37q-99 0 -154 61q-56 62 -56 151
q0 130 96 232q97 102 228 102q39 0 71.5 -10t58.5 -27t45.5 -39.5t31.5 -48.5zM756 588q44 97 66 184l40 10q-20 -57 -43 -107t-48 -93z" />
    <glyph glyph-name="Dcroat" unicode="&#x110;" horiz-adv-x="696" 
d="M30 342l6 29h87l73 341h148q162 0 248 -74q85 -73 85 -194q0 -88 -32 -167.5t-90 -142.5q-58 -61 -148.5 -97.5t-199.5 -36.5h-162l72 342h-87zM207 29q184 -6 312 111q128 119 128 298q0 121 -80.5 183t-227.5 62h-120l-67 -312h223l-6 -29h-223l-66 -313h127z" />
    <glyph glyph-name="dcroat" unicode="&#x111;" horiz-adv-x="668" 
d="M659 764h30l-19 -90h72l-7 -30h-72l-136 -644h-23l20 127q-43 -64 -116 -101q-71 -37 -145 -37q-99 0 -154 61q-56 62 -56 151q0 130 96 232q97 102 228 102q39 0 71.5 -10t58.5 -27t45.5 -39.5t31.5 -48.5l49 234h-228l6 30h229zM269 18q91 0 176 65q84 65 101 145
l28 132q-15 55 -66 100q-50 46 -132 46q-117 0 -205 -90q-88 -89 -88 -214q0 -41 13 -75t37 -58t58.5 -37.5t77.5 -13.5z" />
    <glyph glyph-name="Emacron" unicode="&#x112;" horiz-adv-x="532" 
d="M45 0l151 712h364l-6 -29h-335l-62 -291h325l-6 -29h-325l-71 -334h335l-6 -29h-364zM300 888h220l-6 -28h-220z" />
    <glyph glyph-name="emacron" unicode="&#x113;" horiz-adv-x="569" 
d="M435 41q-82 -52 -174 -52q-90 0 -148 63q-58 62 -58 157q0 124 84 225q86 101 209 101q39 0 72 -11.5t57 -34t37 -54.5t13 -72q0 -51 -10 -91h-427q-2 -17 -3.5 -31.5t-1.5 -28.5q0 -85 49 -140q49 -54 131 -54q90 0 177 60zM491 301q6 33 6 59q0 70 -42.5 108t-108.5 38
q-85 0 -150 -55.5t-98 -149.5h393zM280 699h220l-6 -28h-220z" />
    <glyph glyph-name="Ebreve" unicode="&#x114;" horiz-adv-x="532" 
d="M45 0l151 712h364l-6 -29h-335l-62 -291h325l-6 -29h-325l-71 -334h335l-6 -29h-364zM549 911q-50 -89 -147 -89q-100 0 -130 88l24 9q22 -70 107 -70q86 0 123 70z" />
    <glyph glyph-name="ebreve" unicode="&#x115;" horiz-adv-x="569" 
d="M435 41q-82 -52 -174 -52q-90 0 -148 63q-58 62 -58 157q0 124 84 225q86 101 209 101q39 0 72 -11.5t57 -34t37 -54.5t13 -72q0 -51 -10 -91h-427q-2 -17 -3.5 -31.5t-1.5 -28.5q0 -85 49 -140q49 -54 131 -54q90 0 177 60zM491 301q6 33 6 59q0 70 -42.5 108t-108.5 38
q-85 0 -150 -55.5t-98 -149.5h393zM531 722q-50 -89 -147 -89q-100 0 -130 88l24 9q22 -70 107 -70q86 0 123 70z" />
    <glyph glyph-name="Edotaccent" unicode="&#x116;" horiz-adv-x="532" 
d="M45 0l151 712h364l-6 -29h-335l-62 -291h325l-6 -29h-325l-71 -334h335l-6 -29h-364zM383 869q0 14 9.5 24.5t23.5 10.5q12 0 20 -8t8 -20q0 -13 -10.5 -22.5t-23.5 -9.5q-11 0 -19 7t-8 18z" />
    <glyph glyph-name="edotaccent" unicode="&#x117;" horiz-adv-x="569" 
d="M435 41q-82 -52 -174 -52q-90 0 -148 63q-58 62 -58 157q0 124 84 225q86 101 209 101q39 0 72 -11.5t57 -34t37 -54.5t13 -72q0 -51 -10 -91h-427q-2 -17 -3.5 -31.5t-1.5 -28.5q0 -85 49 -140q49 -54 131 -54q90 0 177 60zM491 301q6 33 6 59q0 70 -42.5 108t-108.5 38
q-85 0 -150 -55.5t-98 -149.5h393zM356 680q0 14 9.5 24.5t23.5 10.5q12 0 20 -8t8 -20q0 -13 -10.5 -22.5t-23.5 -9.5q-11 0 -19 7t-8 18z" />
    <glyph glyph-name="Eogonek" unicode="&#x118;" horiz-adv-x="532" 
d="M45 0l151 712h364l-6 -29h-335l-62 -291h325l-6 -29h-325l-71 -334h335l-6 -29q-35 -21 -62.5 -48t-32.5 -50t9 -35.5t37 -12.5q16 0 31 6l-6 -28q-18 -7 -38 -7q-35 0 -53 20.5t-11 51.5q12 58 96 103h-334z" />
    <glyph glyph-name="eogonek" unicode="&#x119;" horiz-adv-x="569" 
d="M264 -168q-18 -7 -38 -7q-35 0 -53 20.5t-11 51.5q10 51 78 93q-84 8 -134 68q-51 61 -51 151q0 124 84 225q86 101 209 101q39 0 72 -11.5t57 -34t37 -54.5t13 -72q0 -51 -10 -91h-427q-2 -17 -3.5 -31.5t-1.5 -28.5q0 -85 49 -140q49 -54 131 -54q90 0 177 60l-7 -37
q-77 -49 -167 -52q-66 -47 -75 -87q-5 -23 9 -35.5t37 -12.5q16 0 31 6zM491 301q6 33 6 58q0 70 -43 108.5t-109 38.5q-85 0 -149.5 -54.5t-97.5 -150.5h393z" />
    <glyph glyph-name="Ecaron" unicode="&#x11a;" horiz-adv-x="532" 
d="M45 0l151 712h364l-6 -29h-335l-62 -291h325l-6 -29h-325l-71 -334h335l-6 -29h-364zM528 935l11 -20l-147 -103l-127 103l16 20l115 -79z" />
    <glyph glyph-name="ecaron" unicode="&#x11b;" horiz-adv-x="569" 
d="M435 41q-82 -52 -174 -52q-90 0 -148 63q-58 62 -58 157q0 124 84 225q86 101 209 101q39 0 72 -11.5t57 -34t37 -54.5t13 -72q0 -51 -10 -91h-427q-2 -17 -3.5 -31.5t-1.5 -28.5q0 -85 49 -140q49 -54 131 -54q90 0 177 60zM491 301q6 33 6 59q0 70 -42.5 108t-108.5 38
q-85 0 -150 -55.5t-98 -149.5h393zM514 746l11 -20l-147 -103l-127 103l16 20l115 -79z" />
    <glyph glyph-name="Gcircumflex" unicode="&#x11c;" horiz-adv-x="707" 
d="M415 340h238l-67 -314q-111 -32 -225 -32q-130 0 -210 79q-81 79 -81 205q0 122 63 226q64 103 165 162q100 58 212 58q108 0 188 -46l-7 -30q-83 47 -183 47q-108 0 -202 -58q-95 -59 -150 -154q-56 -95 -56 -202q0 -112 71 -186q72 -72 193 -72q108 0 198 26l56 262
h-209zM665 831l-15 -19l-114 80l-132 -80l-11 20l147 104z" />
    <glyph glyph-name="gcircumflex" unicode="&#x11d;" horiz-adv-x="649" 
d="M262 38q88 0 170 67q83 68 99 145l23 112q-8 30 -25 56.5t-42 46t-57 30.5t-69 11q-107 0 -192 -87q-84 -86 -84 -203q0 -40 12.5 -73t35.5 -56t55.5 -36t73.5 -13zM596 522h22l-106 -497q-22 -103 -109 -176q-88 -74 -191 -74t-179 55l7 31q18 -15 36 -25.5t38.5 -17.5
t45 -10.5t54.5 -3.5q79 0 164 62q84 62 104 154l27 128q-51 -69 -116 -104t-137 -35q-93 0 -147 58t-54 146q0 125 91 223q91 99 216 99q72 0 125 -33.5t81 -88.5zM532 642l-15 -19l-114 80l-132 -80l-11 20l147 104z" />
    <glyph glyph-name="Gbreve" unicode="&#x11e;" horiz-adv-x="707" 
d="M415 340h238l-67 -314q-111 -32 -225 -32q-130 0 -210 79q-81 79 -81 205q0 122 63 226q64 103 165 162q100 58 212 58q108 0 188 -46l-7 -30q-83 47 -183 47q-108 0 -202 -58q-95 -59 -150 -154q-56 -95 -56 -202q0 -112 71 -186q72 -72 193 -72q108 0 198 26l56 262
h-209zM680 911q-50 -89 -147 -89q-100 0 -130 88l24 9q22 -70 107 -70q86 0 123 70z" />
    <glyph glyph-name="gbreve" unicode="&#x11f;" horiz-adv-x="649" 
d="M262 38q88 0 170 67q83 68 99 145l23 112q-8 30 -25 56.5t-42 46t-57 30.5t-69 11q-107 0 -192 -87q-84 -86 -84 -203q0 -40 12.5 -73t35.5 -56t55.5 -36t73.5 -13zM596 522h22l-106 -497q-22 -103 -109 -176q-88 -74 -191 -74t-179 55l7 31q18 -15 36 -25.5t38.5 -17.5
t45 -10.5t54.5 -3.5q79 0 164 62q84 62 104 154l27 128q-51 -69 -116 -104t-137 -35q-93 0 -147 58t-54 146q0 125 91 223q91 99 216 99q72 0 125 -33.5t81 -88.5zM542 722q-50 -89 -147 -89q-100 0 -130 88l24 9q22 -70 107 -70q86 0 123 70z" />
    <glyph glyph-name="Gdotaccent" unicode="&#x120;" horiz-adv-x="707" 
d="M415 340h238l-67 -314q-111 -32 -225 -32q-130 0 -210 79q-81 79 -81 205q0 122 63 226q64 103 165 162q100 58 212 58q108 0 188 -46l-7 -30q-83 47 -183 47q-108 0 -202 -58q-95 -59 -150 -154q-56 -95 -56 -202q0 -112 71 -186q72 -72 193 -72q108 0 198 26l56 262
h-209zM510 869q0 14 9.5 24.5t23.5 10.5q12 0 20 -8t8 -20q0 -13 -10.5 -22.5t-23.5 -9.5q-11 0 -19 7t-8 18z" />
    <glyph glyph-name="gdotaccent" unicode="&#x121;" horiz-adv-x="649" 
d="M262 38q88 0 170 67q83 68 99 145l23 112q-8 30 -25 56.5t-42 46t-57 30.5t-69 11q-107 0 -192 -87q-84 -86 -84 -203q0 -40 12.5 -73t35.5 -56t55.5 -36t73.5 -13zM596 522h22l-106 -497q-22 -103 -109 -176q-88 -74 -191 -74t-179 55l7 31q18 -15 36 -25.5t38.5 -17.5
t45 -10.5t54.5 -3.5q79 0 164 62q84 62 104 154l27 128q-51 -69 -116 -104t-137 -35q-93 0 -147 58t-54 146q0 125 91 223q91 99 216 99q72 0 125 -33.5t81 -88.5zM369 680q0 14 9.5 24.5t23.5 10.5q12 0 20 -8t8 -20q0 -13 -10.5 -22.5t-23.5 -9.5q-11 0 -19 7t-8 18z" />
    <glyph glyph-name="Gcommaaccent" unicode="&#x122;" horiz-adv-x="707" 
d="M415 340h238l-67 -314q-111 -32 -225 -32q-130 0 -210 79q-81 79 -81 205q0 122 63 226q64 103 165 162q100 58 212 58q108 0 188 -46l-7 -30q-83 47 -183 47q-108 0 -202 -58q-95 -59 -150 -154q-56 -95 -56 -202q0 -112 71 -186q72 -72 193 -72q108 0 198 26l56 262
h-209zM255 -246q44 97 66 184l40 10q-20 -57 -43 -107t-48 -93z" />
    <glyph glyph-name="gcommaaccent" unicode="&#x123;" horiz-adv-x="649" 
d="M262 38q88 0 170 67q83 68 99 145l23 112q-8 30 -25 56.5t-42 46t-57 30.5t-69 11q-107 0 -192 -87q-84 -86 -84 -203q0 -40 12.5 -73t35.5 -56t55.5 -36t73.5 -13zM596 522h22l-106 -497q-22 -103 -109 -176q-88 -74 -191 -74t-179 55l7 31q18 -15 36 -25.5t38.5 -17.5
t45 -10.5t54.5 -3.5q79 0 164 62q84 62 104 154l27 128q-51 -69 -116 -104t-137 -35q-93 0 -147 58t-54 146q0 125 91 223q91 99 216 99q72 0 125 -33.5t81 -88.5zM445 783q-44 -97 -66 -184l-40 -10q20 57 43 107t48 93z" />
    <glyph glyph-name="Hcircumflex" unicode="&#x124;" horiz-adv-x="691" 
d="M588 391l68 321h29l-151 -712h-29l76 362h-431l-76 -362h-29l151 712h29l-68 -321h431zM598 831l-15 -19l-114 80l-132 -80l-11 20l147 104z" />
    <glyph glyph-name="hcircumflex" unicode="&#x125;" horiz-adv-x="609" 
d="M196 764h29l-72 -339q40 45 97.5 77.5t121.5 32.5q78 0 123.5 -44.5t45.5 -119.5q0 -25 -7 -56l-67 -315h-29l66 312q6 30 6 55q0 69 -38.5 104t-104.5 35q-76 0 -141 -50q-64 -49 -87 -98l-76 -358h-29zM372 831l-15 -19l-114 80l-132 -80l-11 20l147 104z" />
    <glyph glyph-name="Hbar" unicode="&#x126;" horiz-adv-x="691" 
d="M737 572l-6 -29h-82l-115 -543h-29l76 362h-431l-76 -362h-29l115 543h-83l6 29h83l30 140h29l-30 -140h431l30 140h29l-30 -140h82zM588 391l32 152h-431l-32 -152h431z" />
    <glyph glyph-name="hbar" unicode="&#x127;" horiz-adv-x="609" 
d="M196 764h29l-19 -90h201l-6 -30h-202l-46 -219q40 45 97.5 77.5t121.5 32.5q78 0 123.5 -44.5t45.5 -119.5q0 -25 -7 -56l-67 -315h-29l66 312q6 30 6 55q0 69 -38.5 104t-104.5 35q-76 0 -141 -50q-64 -49 -87 -98l-76 -358h-29l136 644h-76l6 30h77z" />
    <glyph glyph-name="Itilde" unicode="&#x128;" horiz-adv-x="231" 
d="M295 837q-23 0 -58 20q-35 21 -57 21q-37 0 -63 -32l-17 18q36 45 88 45q20 0 59 -21q40 -20 56 -20q33 0 62 33l17 -17q-42 -47 -87 -47zM225 712l-151 -712h-29l151 712h29z" />
    <glyph glyph-name="itilde" unicode="&#x129;" horiz-adv-x="205" 
d="M246 648q-23 0 -58 20q-35 21 -57 21q-37 0 -63 -32l-17 18q36 45 88 45q21 0 59 -21q38 -20 56 -20q33 0 62 33l17 -17q-42 -47 -87 -47zM66 0h-29l111 522h29z" />
    <glyph glyph-name="Imacron" unicode="&#x12a;" horiz-adv-x="231" 
d="M225 712l-151 -712h-29l151 712h29zM136 888h220l-6 -28h-220z" />
    <glyph glyph-name="imacron" unicode="&#x12b;" horiz-adv-x="205" 
d="M66 0h-29l111 522h29zM86 699h220l-6 -28h-220z" />
    <glyph glyph-name="Ibreve" unicode="&#x12c;" horiz-adv-x="231" 
d="M225 712l-151 -712h-29l151 712h29zM386 911q-50 -89 -147 -89q-100 0 -130 88l24 9q22 -70 107 -70q86 0 123 70z" />
    <glyph glyph-name="ibreve" unicode="&#x12d;" horiz-adv-x="205" 
d="M66 0h-29l111 522h29zM332 722q-50 -89 -147 -89q-100 0 -130 88l24 9q22 -70 107 -70q86 0 123 70z" />
    <glyph glyph-name="Iogonek" unicode="&#x12e;" horiz-adv-x="231" 
d="M57 -168q-18 -7 -38 -7q-35 0 -53 20.5t-11 51.5q6 29 33 56.5t64 46.5l151 712h29l-151 -712q-35 -21 -62.5 -48t-32.5 -50t9 -35.5t37 -12.5q16 0 31 6z" />
    <glyph glyph-name="iogonek" unicode="&#x12f;" horiz-adv-x="205" 
d="M47 -168q-18 -7 -38 -7q-35 0 -53 20.5t-11 51.5q12 58 96 103l111 522h29l-112 -522q-17 -10 -32.5 -22.5t-28 -25t-21 -25.5t-11.5 -25q-5 -23 9 -35.5t37 -12.5q16 0 31 6zM163 647q0 14 10 25t24 11q12 0 20.5 -8t8.5 -21t-10.5 -23.5t-24.5 -10.5q-12 0 -20 8t-8 19
z" />
    <glyph glyph-name="Idotaccent" unicode="&#x130;" horiz-adv-x="231" 
d="M225 712l-151 -712h-29l151 712h29zM215 869q0 14 9.5 24.5t23.5 10.5q12 0 20 -8t8 -20q0 -13 -10.5 -22.5t-23.5 -9.5q-11 0 -19 7t-8 18z" />
    <glyph glyph-name="dotlessi" unicode="&#x131;" horiz-adv-x="205" 
d="M63 0h-29l111 522h29z" />
    <glyph glyph-name="IJ" unicode="&#x132;" horiz-adv-x="655" 
d="M624 712h29l-113 -532q-20 -87 -76 -139q-55 -52 -129 -52q-59 0 -97 32l8 32q41 -35 93 -35q56 0 106 46q51 47 66 115zM225 712l-151 -712h-29l151 712h29z" />
    <glyph glyph-name="ij" unicode="&#x133;" horiz-adv-x="416" 
d="M156 647q0 14 10 25t24 11q12 0 20.5 -8t8.5 -21t-10.5 -23.5t-24.5 -10.5q-12 0 -20 8t-8 19zM63 0h-29l111 522h29zM51 -195q5 -1 11.5 -1h15.5q59 0 101 42t54 99l123 577h29l-122 -572q-8 -38 -24.5 -70t-40.5 -55.5t-55 -36.5t-68 -13q-20 0 -30 2zM367 647
q0 14 9.5 25t24.5 11q12 0 20.5 -8t8.5 -21t-10.5 -23.5t-24.5 -10.5q-12 0 -20 8t-8 19z" />
    <glyph glyph-name="Jcircumflex" unicode="&#x134;" horiz-adv-x="417" 
d="M390 712h29l-113 -532q-20 -87 -76 -139q-55 -52 -129 -52q-59 0 -97 32l8 32q41 -35 93 -35q56 0 106 46q51 47 66 115zM564 831l-15 -19l-114 80l-132 -80l-11 20l147 104z" />
    <glyph glyph-name="jcircumflex" unicode="&#x135;" horiz-adv-x="204" 
d="M-161 -195q5 -1 11.5 -1h15.5q59 0 101 42t54 99l123 577h29l-122 -572q-8 -38 -24.5 -70t-40.5 -55.5t-55 -36.5t-68 -13q-20 0 -30 2zM330 642l-15 -19l-114 80l-132 -80l-11 20l147 104z" />
    <glyph glyph-name="Kcommaaccent" unicode="&#x136;" horiz-adv-x="568" 
d="M632 712l-369 -331l222 -381h-32l-212 364l-125 -115l-52 -249h-29l151 712h29l-72 -340q-1 -9 -9 -40l-9 -37h4q8 9 62 59l400 358h41zM140 -246q44 97 66 184l40 10q-20 -57 -43 -107t-48 -93z" />
    <glyph glyph-name="kcommaaccent" unicode="&#x137;" horiz-adv-x="495" 
d="M467 522h38l-271 -245l173 -277h-33l-163 259l-113 -95l-35 -164h-29l162 764h29l-98 -463q-2 -13 -8 -36t-14 -57h5q25 23 77 65zM90 -246q44 97 66 184l40 10q-20 -57 -43 -107t-48 -93z" />
    <glyph glyph-name="kgreenlandic" unicode="&#x138;" horiz-adv-x="495" 
d="M467 522h38l-271 -245l173 -277h-33l-163 259l-113 -95l-20 -92l-15 -72h-29l111 522h29l-47 -221l-3 -12t-2 -12q-3 -14 -7 -31l-9 -37h8q16 16 34.5 31.5l39.5 32.5z" />
    <glyph glyph-name="Lacute" unicode="&#x139;" horiz-adv-x="420" 
d="M225 712l-145 -683h269l-6 -29h-298l151 712h29zM162 805l-11 20l168 113l19 -30z" />
    <glyph glyph-name="lacute" unicode="&#x13a;" horiz-adv-x="205" 
d="M34 0l163 764h29l-163 -764h-29zM150 805l-11 20l168 113l19 -30z" />
    <glyph glyph-name="Lcommaaccent" unicode="&#x13b;" horiz-adv-x="420" 
d="M225 712l-145 -683h269l-6 -29h-298l151 712h29zM85 -246q44 97 66 184l40 10q-20 -57 -43 -107t-48 -93z" />
    <glyph glyph-name="lcommaaccent" unicode="&#x13c;" horiz-adv-x="205" 
d="M34 0l163 764h29l-163 -764h-29zM-38 -246q44 97 66 184l40 10q-20 -57 -43 -107t-48 -93z" />
    <glyph glyph-name="Lcaron" unicode="&#x13d;" horiz-adv-x="420" 
d="M225 712l-145 -683h269l-6 -29h-298l151 712h29zM335 580q44 97 66 184l40 10q-20 -57 -43 -107t-48 -93z" />
    <glyph glyph-name="lcaron" unicode="&#x13e;" horiz-adv-x="205" 
d="M34 0l163 764h29l-163 -764h-29zM293 588q44 97 66 184l40 10q-20 -57 -43 -107t-48 -93z" />
    <glyph glyph-name="Ldot" unicode="&#x13f;" horiz-adv-x="420" 
d="M225 712l-145 -683h269l-6 -29h-298l151 712h29zM286 289q14 0 23 -9.5t9 -22.5q0 -15 -12 -26t-27 -11q-13 0 -22 8.5t-9 21.5q0 16 11.5 27.5t26.5 11.5z" />
    <glyph glyph-name="ldot" unicode="&#x140;" horiz-adv-x="261" 
d="M34 0l163 764h29l-163 -764h-29zM222 289q14 0 23 -9.5t9 -22.5q0 -15 -12 -26t-27 -11q-13 0 -22 8.5t-9 21.5q0 16 11.5 27.5t26.5 11.5z" />
    <glyph glyph-name="Lslash" unicode="&#x141;" horiz-adv-x="420" 
d="M225 712l-69 -325l116 83l14 -23l-138 -97l-68 -321h269l-6 -29h-298l69 326l-118 -83l-13 22l139 98l74 349h29z" />
    <glyph glyph-name="lslash" unicode="&#x142;" horiz-adv-x="205" 
d="M34 0l74 349l-96 -67l-13 22l117 82l80 378h29l-75 -353l100 71l13 -23l-121 -86l-79 -373h-29z" />
    <glyph glyph-name="Nacute" unicode="&#x143;" horiz-adv-x="734" 
d="M728 712l-151 -712h-13l-296 560l-29 56.5t-23 47.5l-4 -1l-24 -122l-114 -541h-29l151 712h22l297 -557q37 -69 44 -92h4l11.5 60.5l14.5 73.5l110 515h29zM405 805l-11 20l168 113l19 -30z" />
    <glyph glyph-name="nacute" unicode="&#x144;" horiz-adv-x="609" 
d="M145 522h24l-19 -100q20 23 45.5 43.5t54 36t60 24.5t63.5 9q78 0 123 -44.5t45 -119.5q0 -25 -7 -56l-67 -315h-29l66 312q6 30 6 55q0 69 -38.5 104t-104.5 35q-76 0 -141 -50q-64 -49 -87 -98l-76 -358h-29zM322 616l-11 20l168 113l19 -30z" />
    <glyph glyph-name="Ncommaaccent" unicode="&#x145;" horiz-adv-x="734" 
d="M728 712l-151 -712h-13l-296 560l-29 56.5t-23 47.5l-4 -1l-24 -122l-114 -541h-29l151 712h22l297 -557q37 -69 44 -92h4l11.5 60.5l14.5 73.5l110 515h29zM224 -246q44 97 66 184l40 10q-20 -57 -43 -107t-48 -93z" />
    <glyph glyph-name="ncommaaccent" unicode="&#x146;" horiz-adv-x="609" 
d="M145 522h24l-19 -100q20 23 45.5 43.5t54 36t60 24.5t63.5 9q78 0 123 -44.5t45 -119.5q0 -25 -7 -56l-67 -315h-29l66 312q6 30 6 55q0 69 -38.5 104t-104.5 35q-76 0 -141 -50q-64 -49 -87 -98l-76 -358h-29zM138 -246q44 97 66 184l40 10q-20 -57 -43 -107t-48 -93z
" />
    <glyph glyph-name="Ncaron" unicode="&#x147;" horiz-adv-x="734" 
d="M728 712l-151 -712h-13l-296 560l-29 56.5t-23 47.5l-4 -1l-24 -122l-114 -541h-29l151 712h22l297 -557q37 -69 44 -92h4l11.5 60.5l14.5 73.5l110 515h29zM614 935l11 -20l-147 -103l-127 103l16 20l115 -79z" />
    <glyph glyph-name="ncaron" unicode="&#x148;" horiz-adv-x="609" 
d="M145 522h24l-19 -100q20 23 45.5 43.5t54 36t60 24.5t63.5 9q78 0 123 -44.5t45 -119.5q0 -25 -7 -56l-67 -315h-29l66 312q6 30 6 55q0 69 -38.5 104t-104.5 35q-76 0 -141 -50q-64 -49 -87 -98l-76 -358h-29zM532 746l11 -20l-147 -103l-127 103l16 20l115 -79z" />
    <glyph glyph-name="napostrophe" unicode="&#x149;" horiz-adv-x="786" 
d="M322 522h24l-19 -100q20 23 45.5 43.5t54 36t60 24.5t63.5 9q78 0 123 -44.5t45 -119.5q0 -25 -7 -56l-67 -315h-29l66 312q6 30 6 55q0 69 -38.5 104t-104.5 35q-76 0 -141 -50q-64 -49 -87 -98l-76 -358h-29zM115 504q59 124 93 259l50 12q-56 -158 -126 -276z" />
    <glyph glyph-name="Eng" unicode="&#x14a;" horiz-adv-x="734" 
d="M364 -195q5 -1 12 -1h15q27 0 50.5 10t41.5 27.5t31 41t19 50.5l20 88l-285 539q-43 82 -52 104l-4 -1q-5 -32 -24 -122l-114 -541h-29l151 712h24l295 -557q37 -69 44 -92h4l11.5 60.5l14.5 73.5l110 515h29l-165 -774q-8 -36 -23 -65.5t-37.5 -51.5t-51.5 -34t-64 -12
q-19 0 -29 2z" />
    <glyph glyph-name="eng" unicode="&#x14b;" horiz-adv-x="609" 
d="M243 -195q5 -1 11.5 -1h16.5q59 0 101 42t54 99l78 367q4 19 6 55q0 69 -38.5 104t-104.5 35q-77 0 -144 -51q-66 -51 -84 -97l-76 -358h-29l111 522h24l-19 -100q21 23 46 43.5t53.5 36t59.5 24.5t63 9q78 0 123 -44.5t45 -119.5q0 -26 -6 -56l-78 -365q-8 -38 -24 -70
t-40 -55.5t-55.5 -36.5t-68.5 -13q-21 0 -31 2z" />
    <glyph glyph-name="Omacron" unicode="&#x14c;" horiz-adv-x="822" 
d="M503 724q130 0 213 -86q84 -86 84 -214q0 -116 -63 -218q-62 -101 -162 -159t-208 -58q-131 0 -213 84q-83 85 -83 212q0 43 9.5 86t27 83t42 75.5t54.5 64.5q60 60 138.5 95t160.5 35zM370 18q99 0 191 54q93 56 151 149q58 94 58 202q0 119 -75 196q-75 76 -195 76
q-75 0 -148 -33.5t-128 -88.5t-89 -130.5t-34 -156.5q0 -118 75 -193t194 -75zM431 888h220l-6 -28h-220z" />
    <glyph glyph-name="omacron" unicode="&#x14d;" horiz-adv-x="644" 
d="M368 506q-114 0 -199 -90q-85 -89 -85 -206q0 -86 52 -139q53 -53 139 -53q108 0 197 86t89 206q0 87 -55 141q-54 55 -138 55zM370 535q98 0 159 -64q62 -65 62 -160q0 -129 -97 -226q-96 -96 -221 -96q-96 0 -158 62q-61 61 -61 155q0 134 96 232q96 97 220 97z
M303 699h220l-6 -28h-220z" />
    <glyph glyph-name="Obreve" unicode="&#x14e;" horiz-adv-x="822" 
d="M503 724q130 0 213 -86q84 -86 84 -214q0 -116 -63 -218q-62 -101 -162 -159t-208 -58q-131 0 -213 84q-83 85 -83 212q0 43 9.5 86t27 83t42 75.5t54.5 64.5q60 60 138.5 95t160.5 35zM370 18q99 0 191 54q93 56 151 149q58 94 58 202q0 119 -75 196q-75 76 -195 76
q-75 0 -148 -33.5t-128 -88.5t-89 -130.5t-34 -156.5q0 -118 75 -193t194 -75zM688 911q-50 -89 -147 -89q-100 0 -130 88l24 9q22 -70 107 -70q86 0 123 70z" />
    <glyph glyph-name="obreve" unicode="&#x14f;" horiz-adv-x="644" 
d="M368 506q-114 0 -199 -90q-85 -89 -85 -206q0 -86 52 -139q53 -53 139 -53q108 0 197 86t89 206q0 87 -55 141q-54 55 -138 55zM370 535q98 0 159 -64q62 -65 62 -160q0 -129 -97 -226q-96 -96 -221 -96q-96 0 -158 62q-61 61 -61 155q0 134 96 232q96 97 220 97z
M550 722q-50 -89 -147 -89q-100 0 -130 88l24 9q22 -70 107 -70q86 0 123 70z" />
    <glyph glyph-name="Ohungarumlaut" unicode="&#x150;" horiz-adv-x="822" 
d="M503 724q130 0 213 -86q84 -86 84 -214q0 -116 -63 -218q-62 -101 -162 -159t-208 -58q-131 0 -213 84q-83 85 -83 212q0 43 9.5 86t27 83t42 75.5t54.5 64.5q60 60 138.5 95t160.5 35zM370 18q99 0 191 54q93 56 151 149q58 94 58 202q0 119 -75 196q-75 76 -195 76
q-75 0 -148 -33.5t-128 -88.5t-89 -130.5t-34 -156.5q0 -118 75 -193t194 -75zM529 933l22 -25l-114 -94l-15 16zM659 933l22 -25l-113 -94l-16 16z" />
    <glyph glyph-name="ohungarumlaut" unicode="&#x151;" horiz-adv-x="644" 
d="M368 506q-114 0 -199 -90q-85 -89 -85 -206q0 -86 52 -139q53 -53 139 -53q108 0 197 86t89 206q0 87 -55 141q-54 55 -138 55zM370 535q98 0 159 -64q62 -65 62 -160q0 -129 -97 -226q-96 -96 -221 -96q-96 0 -158 62q-61 61 -61 155q0 134 96 232q96 97 220 97z
M421 744l22 -25l-114 -94l-15 16zM551 744l22 -25l-113 -94l-16 16z" />
    <glyph glyph-name="OE" unicode="&#x152;" horiz-adv-x="927" 
d="M804 0h-348q-49 -11 -90 -11q-131 0 -213 84q-83 85 -83 212q0 43 9.5 86t27 83t42 75.5t54.5 64.5q60 60 138.5 95t160.5 35q47 0 89 -12h364l-6 -29h-335l-62 -291h325l-6 -29h-325l-71 -334h335zM369 18q38 0 77 9l139 656q-41 12 -86 12q-75 0 -148 -33.5t-128 -88.5
t-89 -130.5t-34 -156.5q0 -118 75 -193t194 -75z" />
    <glyph glyph-name="oe" unicode="&#x153;" horiz-adv-x="1068" 
d="M934 41q-85 -52 -175 -52q-42 0 -76.5 13t-60.5 36.5t-42.5 56.5t-22.5 74q-44 -81 -122 -130q-79 -50 -166 -50q-95 0 -156 61q-60 61 -60 151q0 135 98 235q97 99 223 99q85 0 144 -50q60 -50 70 -129q43 79 111 129q70 50 149 50q39 0 72 -11.5t57 -34t37 -54.5
t13 -72q0 -37 -14 -91h-424q-2 -17 -3.5 -31.5t-1.5 -28.5q0 -85 49 -140q49 -54 131 -54q90 0 177 60zM371 506q-114 0 -201 -91q-87 -92 -87 -208q0 -84 52 -136q53 -53 138 -53q110 0 199 87q90 88 90 208q0 85 -54 139q-53 54 -137 54zM990 301q6 33 6 58
q0 70 -43 108.5t-109 38.5q-79 0 -146 -58t-101 -147h393z" />
    <glyph glyph-name="Racute" unicode="&#x154;" horiz-adv-x="554" 
d="M468 0h-36l-160 315h-132l-66 -315h-29l151 712h176q94 0 143.5 -44t49.5 -114q0 -92 -71 -163q-70 -68 -186 -76zM147 344h145q102 0 172 58q71 59 71 150q0 63 -44.5 97t-123.5 34h-148zM317 805l-11 20l168 113l19 -30z" />
    <glyph glyph-name="racute" unicode="&#x155;" horiz-adv-x="350" 
d="M149 412q27 46 79 81q52 37 110 37q23 0 41 -3l-6 -31q-20 3 -41 3q-68 0 -130 -62q-59 -61 -70 -112l-69 -325h-29l111 522h24zM197 616l-11 20l168 113l19 -30z" />
    <glyph glyph-name="Rcommaaccent" unicode="&#x156;" horiz-adv-x="554" 
d="M468 0h-36l-160 315h-132l-66 -315h-29l151 712h176q94 0 143.5 -44t49.5 -114q0 -92 -71 -163q-70 -68 -186 -76zM147 344h145q102 0 172 58q71 59 71 150q0 63 -44.5 97t-123.5 34h-148zM148 -246q44 97 66 184l40 10q-20 -57 -43 -107t-48 -93z" />
    <glyph glyph-name="rcommaaccent" unicode="&#x157;" horiz-adv-x="350" 
d="M149 412q27 46 79 81q52 37 110 37q23 0 41 -3l-6 -31q-20 3 -41 3q-68 0 -130 -62q-59 -61 -70 -112l-69 -325h-29l111 522h24zM66 -250q44 97 66 184l40 10q-20 -57 -43 -107t-48 -93z" />
    <glyph glyph-name="Rcaron" unicode="&#x158;" horiz-adv-x="554" 
d="M468 0h-36l-160 315h-132l-66 -315h-29l151 712h176q94 0 143.5 -44t49.5 -114q0 -92 -71 -163q-70 -68 -186 -76zM147 344h145q102 0 172 58q71 59 71 150q0 63 -44.5 97t-123.5 34h-148zM517 935l11 -20l-147 -103l-127 103l16 20l115 -79z" />
    <glyph glyph-name="rcaron" unicode="&#x159;" horiz-adv-x="350" 
d="M149 412q27 46 79 81q52 37 110 37q23 0 41 -3l-6 -31q-20 3 -41 3q-68 0 -130 -62q-59 -61 -70 -112l-69 -325h-29l111 522h24zM418 746l11 -20l-147 -103l-127 103l16 20l115 -79z" />
    <glyph glyph-name="Sacute" unicode="&#x15a;" horiz-adv-x="502" 
d="M349 695q-68 0 -130 -47q-61 -46 -61 -117q0 -37 28 -67t68 -53l60.5 -34t57.5 -40t42.5 -49.5t16.5 -62.5q0 -98 -76 -167q-77 -69 -173 -69q-93 0 -148 54l6 35q60 -60 144 -60q80 0 148 58q69 58 69 142q0 42 -27.5 74t-69.5 55q-29 18 -60.5 35.5t-57 38t-42 45.5
t-16.5 58q0 90 67 145t154 55q85 0 146 -50l-6 -33q-59 54 -140 54zM319 805l-11 20l168 113l19 -30z" />
    <glyph glyph-name="sacute" unicode="&#x15b;" horiz-adv-x="431" 
d="M267 506q-49 0 -96 -31q-47 -32 -47 -81q0 -24 16 -44t40 -38t52 -36t52 -38t40 -44t16 -54q0 -64 -56 -108q-55 -43 -129 -43q-79 0 -129 35l7 32q49 -38 123 -38q60 0 106 31q48 31 48 88q0 26 -16 47t-40 39.5t-52 36.5t-52 37.5t-40 42t-16 50.5q0 63 52 103
q52 42 123 42q75 0 124 -41l-7 -31q-50 43 -119 43zM221 616l-11 20l168 113l19 -30z" />
    <glyph glyph-name="Scircumflex" unicode="&#x15c;" horiz-adv-x="502" 
d="M349 695q-68 0 -130 -47q-61 -46 -61 -117q0 -37 28 -67t68 -53l60.5 -34t57.5 -40t42.5 -49.5t16.5 -62.5q0 -98 -76 -167q-77 -69 -173 -69q-93 0 -148 54l6 35q60 -60 144 -60q80 0 148 58q69 58 69 142q0 42 -27.5 74t-69.5 55q-29 18 -60.5 35.5t-57 38t-42 45.5
t-16.5 58q0 90 67 145t154 55q85 0 146 -50l-6 -33q-59 54 -140 54zM530 831l-15 -19l-114 80l-132 -80l-11 20l147 104z" />
    <glyph glyph-name="scircumflex" unicode="&#x15d;" horiz-adv-x="431" 
d="M267 506q-49 0 -96 -31q-47 -32 -47 -81q0 -24 16 -44t40 -38t52 -36t52 -38t40 -44t16 -54q0 -64 -56 -108q-55 -43 -129 -43q-79 0 -129 35l7 32q49 -38 123 -38q60 0 106 31q48 31 48 88q0 26 -16 47t-40 39.5t-52 36.5t-52 37.5t-40 42t-16 50.5q0 63 52 103
q52 42 123 42q75 0 124 -41l-7 -31q-50 43 -119 43zM439 642l-15 -19l-114 80l-132 -80l-11 20l147 104z" />
    <glyph glyph-name="Scedilla" unicode="&#x15e;" horiz-adv-x="502" 
d="M137 -72l26 62q-82 6 -129 53l6 35q60 -60 144 -60q80 0 148 58q69 58 69 142q0 42 -27.5 74t-69.5 55q-29 18 -60.5 35.5t-57 38t-42 45.5t-16.5 58q0 90 67 145t154 55q85 0 146 -50l-6 -33q-59 54 -140 54q-68 0 -130 -47q-61 -46 -61 -117q0 -37 28 -67t68 -53
l60.5 -34t57.5 -40t42.5 -49.5t16.5 -62.5q0 -98 -76 -167q-75 -68 -171 -69l-9 -43q31 -2 48 -22.5t11 -48.5q-7 -34 -35 -56.5t-70 -22.5q-23 0 -44 12l6 28q25 -11 33 -11q69 0 80 50q5 24 -12 38.5t-47 14.5h-8z" />
    <glyph glyph-name="scedilla" unicode="&#x15f;" horiz-adv-x="431" 
d="M112 -72l26 62q-71 5 -112 34l7 32q49 -38 123 -38q60 0 106 31q48 31 48 88q0 26 -16 47t-40 39.5t-52 36.5t-52 37.5t-40 42t-16 50.5q0 63 52 103q52 42 123 42q75 0 124 -41l-7 -31q-50 43 -119 43q-49 0 -96 -31q-47 -32 -47 -81q0 -24 16 -44t40 -38t52 -36t52 -38
t40 -44t16 -54q0 -64 -55 -107t-126 -44l-9 -43q31 -2 48 -22.5t11 -48.5q-7 -34 -35 -56.5t-70 -22.5q-23 0 -44 12l6 28q25 -11 33 -11q69 0 80 50q5 24 -12 38.5t-47 14.5h-8z" />
    <glyph glyph-name="Scaron" unicode="&#x160;" horiz-adv-x="502" 
d="M349 695q-68 0 -130 -47q-61 -46 -61 -117q0 -37 28 -67t68 -53l60.5 -34t57.5 -40t42.5 -49.5t16.5 -62.5q0 -98 -76 -167q-77 -69 -173 -69q-93 0 -148 54l6 35q60 -60 144 -60q80 0 148 58q69 58 69 142q0 42 -27.5 74t-69.5 55q-29 18 -60.5 35.5t-57 38t-42 45.5
t-16.5 58q0 90 67 145t154 55q85 0 146 -50l-6 -33q-59 54 -140 54zM524 915l11 -20l-147 -103l-127 103l16 20l115 -79z" />
    <glyph glyph-name="scaron" unicode="&#x161;" horiz-adv-x="431" 
d="M267 506q-49 0 -96 -31q-47 -32 -47 -81q0 -24 16 -44t40 -38t52 -36t52 -38t40 -44t16 -54q0 -64 -56 -108q-55 -43 -129 -43q-79 0 -129 35l7 32q49 -38 123 -38q60 0 106 31q48 31 48 88q0 26 -16 47t-40 39.5t-52 36.5t-52 37.5t-40 42t-16 50.5q0 63 52 103
q52 42 123 42q75 0 124 -41l-7 -31q-50 43 -119 43zM436 746l11 -20l-147 -103l-127 103l16 20l115 -79z" />
    <glyph glyph-name="Tcommaaccent" unicode="&#x162;" horiz-adv-x="471" 
d="M346 683l-145 -683h-29l145 683h-195l6 29h417l-6 -29h-193zM98 -246q44 97 66 184l40 10q-20 -57 -43 -107t-48 -93z" />
    <glyph glyph-name="tcommaaccent" unicode="&#x163;" horiz-adv-x="334" 
d="M243 -5q-8 -3 -22 -3q-132 0 -132 119q0 25 6 52l70 330h-79l7 29h79l27 129l32 11l-30 -140h154l-8 -29h-153l-70 -332q-2 -14 -3.5 -23.5t-1.5 -14.5q0 -45 24 -73.5t72 -28.5q12 0 20.5 0.5t13.5 1.5zM42 -246q44 97 66 184l40 10q-20 -57 -43 -107t-48 -93z" />
    <glyph glyph-name="Tcaron" unicode="&#x164;" horiz-adv-x="471" 
d="M346 683l-145 -683h-29l145 683h-195l6 29h417l-6 -29h-193zM494 935l11 -20l-147 -103l-127 103l16 20l115 -79z" />
    <glyph glyph-name="tcaron" unicode="&#x165;" horiz-adv-x="334" 
d="M243 -5q-8 -3 -22 -3q-132 0 -132 119q0 25 6 52l70 330h-79l7 29h79l27 129l32 11l-30 -140h154l-8 -29h-153l-70 -332q-2 -14 -3.5 -23.5t-1.5 -14.5q0 -45 24 -73.5t72 -28.5q12 0 20.5 0.5t13.5 1.5zM320 588q44 97 66 184l40 10q-20 -57 -43 -107t-48 -93z" />
    <glyph glyph-name="Tbar" unicode="&#x166;" horiz-adv-x="471" 
d="M346 683l-67 -312h201l-6 -29h-201l-72 -342h-29l72 342h-202l6 29h202l67 312h-195l6 29h417l-6 -29h-193z" />
    <glyph glyph-name="tbar" unicode="&#x167;" horiz-adv-x="334" 
d="M242 -5q-8 -3 -32 -3q-61 0 -91.5 32.5t-30.5 86.5q0 25 6 52l17 79h-79l6 29h79l47 221h-79l7 30h79l27 129q5 2 16 5.5t16 5.5l-30 -140h154q-1 -5 -4 -15t-4 -15h-153l-47 -221h154l-7 -29h-153l-17 -81q0 -1 -1 -5t-1 -5q-3 -12 -3 -28q0 -45 24 -73t72 -28
q12 0 20.5 0.5t13.5 1.5z" />
    <glyph glyph-name="Utilde" unicode="&#x168;" horiz-adv-x="659" 
d="M570 245q-25 -116 -108 -187q-83 -69 -180 -69q-85 0 -140 52t-55 142q0 17 1.5 33t5.5 32l98 464h29l-98 -459q-4 -16 -5.5 -32t-1.5 -32q0 -41 12.5 -72.5t34.5 -53.5t53 -33.5t68 -11.5q86 0 160 62q74 63 98 173l98 459h29zM507 837q-23 0 -58 20q-35 21 -57 21
q-37 0 -63 -32l-17 18q36 45 88 45q20 0 59 -21q40 -20 56 -20q33 0 62 33l17 -17q-42 -47 -87 -47z" />
    <glyph glyph-name="utilde" unicode="&#x169;" horiz-adv-x="608" 
d="M548 522h29l-67 -310q-23 -102 -92 -162q-68 -61 -165 -61q-82 0 -131.5 45.5t-49.5 123.5q0 24 6 54l67 310h29l-65 -307q-7 -31 -7 -55q0 -69 41 -105.5t110 -36.5q80 0 144 52q66 54 85 145zM443 648q-23 0 -58 20q-35 21 -57 21q-37 0 -63 -32l-17 18q36 45 88 45
q20 0 59 -21q40 -20 56 -20q33 0 62 33l17 -17q-42 -47 -87 -47z" />
    <glyph glyph-name="Umacron" unicode="&#x16a;" horiz-adv-x="659" 
d="M570 245q-25 -116 -108 -187q-83 -69 -180 -69q-85 0 -140 52t-55 142q0 17 1.5 33t5.5 32l98 464h29l-98 -459q-4 -16 -5.5 -32t-1.5 -32q0 -41 12.5 -72.5t34.5 -53.5t53 -33.5t68 -11.5q86 0 160 62q74 63 98 173l98 459h29zM352 888h220l-6 -28h-220z" />
    <glyph glyph-name="umacron" unicode="&#x16b;" horiz-adv-x="608" 
d="M548 522h29l-67 -310q-23 -102 -92 -162q-68 -61 -165 -61q-82 0 -131.5 45.5t-49.5 123.5q0 24 6 54l67 310h29l-65 -307q-7 -31 -7 -55q0 -69 41 -105.5t110 -36.5q80 0 144 52q66 54 85 145zM284 699h220l-6 -28h-220z" />
    <glyph glyph-name="Ubreve" unicode="&#x16c;" horiz-adv-x="659" 
d="M570 245q-25 -116 -108 -187q-83 -69 -180 -69q-85 0 -140 52t-55 142q0 17 1.5 33t5.5 32l98 464h29l-98 -459q-4 -16 -5.5 -32t-1.5 -32q0 -41 12.5 -72.5t34.5 -53.5t53 -33.5t68 -11.5q86 0 160 62q74 63 98 173l98 459h29zM600 911q-50 -89 -147 -89q-100 0 -130 88
l24 9q22 -70 107 -70q86 0 123 70z" />
    <glyph glyph-name="ubreve" unicode="&#x16d;" horiz-adv-x="608" 
d="M548 522h29l-67 -310q-23 -102 -92 -162q-68 -61 -165 -61q-82 0 -131.5 45.5t-49.5 123.5q0 24 6 54l67 310h29l-65 -307q-7 -31 -7 -55q0 -69 41 -105.5t110 -36.5q80 0 144 52q66 54 85 145zM531 722q-50 -89 -147 -89q-100 0 -130 88l24 9q22 -70 107 -70
q86 0 123 70z" />
    <glyph glyph-name="Uring" unicode="&#x16e;" horiz-adv-x="659" 
d="M570 245q-25 -116 -108 -187q-83 -69 -180 -69q-85 0 -140 52t-55 142q0 17 1.5 33t5.5 32l98 464h29l-98 -459q-4 -16 -5.5 -32t-1.5 -32q0 -41 12.5 -72.5t34.5 -53.5t53 -33.5t68 -11.5q86 0 160 62q74 63 98 173l98 459h29zM371 874q0 35 24.5 60t59.5 25
q18 0 34 -6.5t27.5 -18t18.5 -27t7 -33.5q-1 -36 -25.5 -60.5t-60.5 -24.5q-18 0 -33.5 6.5t-27 18t-18 27t-6.5 33.5zM397 874q-1 -24 17 -41.5t41 -17.5q25 0 42.5 17.5t18.5 41.5q0 24 -18 41.5t-43 17.5q-23 0 -40.5 -17.5t-17.5 -41.5z" />
    <glyph glyph-name="uring" unicode="&#x16f;" horiz-adv-x="608" 
d="M548 522h29l-67 -310q-23 -102 -92 -162q-68 -61 -165 -61q-82 0 -131.5 45.5t-49.5 123.5q0 24 6 54l67 310h29l-65 -307q-7 -31 -7 -55q0 -69 41 -105.5t110 -36.5q80 0 144 52q66 54 85 145zM306 685q0 35 24.5 60t59.5 25q18 0 34 -6.5t27.5 -18t18.5 -27t7 -33.5
q-1 -36 -25.5 -60.5t-60.5 -24.5q-18 0 -33.5 6.5t-27 18t-18 27t-6.5 33.5zM332 685q-1 -24 16.5 -41.5t41.5 -17.5q25 0 42.5 17.5t18.5 41.5q0 24 -18 41.5t-43 17.5q-23 0 -40.5 -17.5t-17.5 -41.5z" />
    <glyph glyph-name="Uhungarumlaut" unicode="&#x170;" horiz-adv-x="659" 
d="M570 245q-25 -116 -108 -187q-83 -69 -180 -69q-85 0 -140 52t-55 142q0 17 1.5 33t5.5 32l98 464h29l-98 -459q-4 -16 -5.5 -32t-1.5 -32q0 -41 12.5 -72.5t34.5 -53.5t53 -33.5t68 -11.5q86 0 160 62q74 63 98 173l98 459h29zM450 933l22 -25l-114 -94l-15 16zM580 933
l22 -25l-113 -94l-16 16z" />
    <glyph glyph-name="uhungarumlaut" unicode="&#x171;" horiz-adv-x="608" 
d="M548 522h29l-67 -310q-23 -102 -92 -162q-68 -61 -165 -61q-82 0 -131.5 45.5t-49.5 123.5q0 24 6 54l67 310h29l-65 -307q-7 -31 -7 -55q0 -69 41 -105.5t110 -36.5q80 0 144 52q66 54 85 145zM380 744l22 -25l-114 -94l-15 16zM510 744l22 -25l-113 -94l-16 16z" />
    <glyph glyph-name="Uogonek" unicode="&#x172;" horiz-adv-x="659" 
d="M292 -168q-18 -7 -38 -7q-35 0 -53 20.5t-11 51.5q11 50 77 93q-81 5 -130.5 55.5t-49.5 137.5q0 17 1.5 33t5.5 32l98 464h29l-98 -459q-4 -16 -5.5 -32t-1.5 -32q0 -41 12.5 -72.5t34.5 -53.5t53 -33.5t68 -11.5q86 0 160 62q74 63 98 173l98 459h29l-99 -467
q-26 -113 -102 -182q-78 -69 -171 -73q-67 -45 -76 -88q-5 -23 9 -35.5t37 -12.5q16 0 31 6z" />
    <glyph glyph-name="uogonek" unicode="&#x173;" horiz-adv-x="608" 
d="M261 -168q-18 -7 -38 -7q-35 0 -53 20.5t-11 51.5q10 49 78 93q-76 5 -120.5 49t-44.5 119q0 24 6 54l67 310h29l-65 -307q-7 -31 -7 -55q0 -69 41 -105.5t110 -36.5q80 0 144 52q66 54 85 145l66 307h29l-67 -310q-21 -98 -88 -159q-65 -59 -157 -64q-66 -47 -75 -87
q-5 -23 9 -35.5t37 -12.5q16 0 31 6z" />
    <glyph glyph-name="Wcircumflex" unicode="&#x174;" horiz-adv-x="904" 
d="M922 712h30l-276 -712h-32l-97 509q-14 64 -15 90h-4l-53 -90l-313 -509h-34l26 712h28l-19 -528q-1 -18 -2 -40l-2 -42t-2 -35.5t-1 -20.5h4l79 134l296 481h12l92 -481l6.5 -37l7.5 -44l9 -53h4q5 10 21 58l30 80zM720 831l-15 -19l-114 80l-132 -80l-11 20l147 104z
" />
    <glyph glyph-name="wcircumflex" unicode="&#x175;" horiz-adv-x="794" 
d="M789 522h32l-251 -522h-24l-97 370q-5 18 -8.5 33.5t-4.5 28.5h-4q-4 -7 -13 -21.5l-23 -36.5l-256 -374h-24l-29 522h28l20 -349q6 -101 6 -119h5q6 11 25.5 40l51.5 77l216 315h11l82 -314l29 -118h5q7 20 20 49.5t33 69.5zM622 642l-15 -19l-114 80l-132 -80l-11 20
l147 104z" />
    <glyph glyph-name="Ycircumflex" unicode="&#x176;" horiz-adv-x="560" 
d="M598 712h36l-327 -415l-63 -297h-29l63 297l-150 415h31l102 -283l35 -99h4l28 38.5t46 59.5zM541 831l-15 -19l-114 80l-132 -80l-11 20l147 104z" />
    <glyph glyph-name="ycircumflex" unicode="&#x177;" horiz-adv-x="542" 
d="M535 522h34l-503 -738h-32l175 257l-122 481h30l89 -345q7 -27 12.5 -52.5l10.5 -49.5h5q13 24 65 100zM494 642l-15 -19l-114 80l-132 -80l-11 20l147 104z" />
    <glyph glyph-name="Ydieresis" unicode="&#x178;" horiz-adv-x="560" 
d="M598 712h36l-327 -415l-63 -297h-29l63 297l-150 415h31l102 -283l35 -99h4l28 38.5t46 59.5zM298 869q0 14 9.5 24.5t23.5 10.5q12 0 20 -8t8 -20q0 -13 -10.5 -22.5t-23.5 -9.5q-11 0 -19 7t-8 18zM468 869q0 14 9.5 24.5t23.5 10.5q12 0 20 -8t8 -20
q0 -13 -10.5 -22.5t-23.5 -9.5q-11 0 -19 7t-8 18z" />
    <glyph glyph-name="Zacute" unicode="&#x179;" horiz-adv-x="563" 
d="M28 27q11 1 38 1.5t72 0.5h352l-6 -29h-505l4 20l543 598q6 7 14.5 16l19.5 20l26 27v4h-10.5t-28.5 -1q-18 -1 -33.5 -1h-28.5h-324l6 29h468l-4 -20l-535 -590q-8 -10 -18.5 -20.5l-23.5 -23.5q-25 -25 -26 -27v-4zM321 805l-11 20l168 113l19 -30z" />
    <glyph glyph-name="zacute" unicode="&#x17a;" horiz-adv-x="483" 
d="M34 27q12 1 35 1.5t58 0.5h272l-6 -29h-411l3 17l390 410q8 9 24 24.5l39 37.5v6q-33 -3 -101 -3h-239l7 30h385l-4 -19l-382 -400l-40.5 -42.5t-29.5 -28.5v-5zM243 616l-11 20l168 113l19 -30z" />
    <glyph glyph-name="Zdotaccent" unicode="&#x17b;" horiz-adv-x="563" 
d="M28 27q11 1 38 1.5t72 0.5h352l-6 -29h-505l4 20l543 598q6 7 14.5 16l19.5 20l26 27v4h-10.5t-28.5 -1q-18 -1 -33.5 -1h-28.5h-324l6 29h468l-4 -20l-535 -590q-8 -10 -18.5 -20.5l-23.5 -23.5q-25 -25 -26 -27v-4zM384 869q0 14 9.5 24.5t23.5 10.5q12 0 20 -8t8 -20
q0 -13 -10.5 -22.5t-23.5 -9.5q-11 0 -19 7t-8 18z" />
    <glyph glyph-name="zdotaccent" unicode="&#x17c;" horiz-adv-x="483" 
d="M34 27q12 1 35 1.5t58 0.5h272l-6 -29h-411l3 17l390 410q8 9 24 24.5l39 37.5v6q-33 -3 -101 -3h-239l7 30h385l-4 -19l-382 -400l-40.5 -42.5t-29.5 -28.5v-5zM293 680q0 14 9.5 24.5t23.5 10.5q12 0 20 -8t8 -20q0 -13 -10.5 -22.5t-23.5 -9.5q-11 0 -19 7t-8 18z" />
    <glyph glyph-name="Zcaron" unicode="&#x17d;" horiz-adv-x="563" 
d="M28 27q11 1 38 1.5t72 0.5h352l-6 -29h-505l4 20l543 598q6 7 14.5 16l19.5 20l26 27v4h-10.5t-28.5 -1q-18 -1 -33.5 -1h-28.5h-324l6 29h468l-4 -20l-535 -590q-8 -10 -18.5 -20.5l-23.5 -23.5q-25 -25 -26 -27v-4zM543 935l11 -20l-147 -103l-127 103l16 20l115 -79z
" />
    <glyph glyph-name="zcaron" unicode="&#x17e;" horiz-adv-x="483" 
d="M34 27q12 1 35 1.5t58 0.5h272l-6 -29h-411l3 17l390 410q8 9 24 24.5l39 37.5v6q-33 -3 -101 -3h-239l7 30h385l-4 -19l-382 -400l-40.5 -42.5t-29.5 -28.5v-5zM454 746l11 -20l-147 -103l-127 103l16 20l115 -79z" />
    <glyph glyph-name="longs" unicode="&#x17f;" horiz-adv-x="312" 
d="M403 805q-5 1 -27 1q-60 0 -100.5 -39.5t-53.5 -100.5l-141 -666h-30l104 492h-80q1 5 4 15t4 15h79l30 142q15 74 66 122q52 49 127 49q8 0 14 -0.5t11 -1.5z" />
    <glyph glyph-name="florin" unicode="&#x192;" horiz-adv-x="513" 
d="M25 -123q5 -1 26 -1q55 0 91.5 35.5t45.5 92.5l80 452h-74l5 29h74l23 131q13 69 58.5 114t115.5 45q14 0 24 -2l-5 -28q-5 1 -26 1q-55 0 -91.5 -35.5t-45.5 -92.5l-24 -133h141l-5 -29h-141l-79 -450q-13 -69 -58.5 -114t-115.5 -45q-14 0 -24 2z" />
    <glyph glyph-name="AEacute" unicode="&#x1fc;" horiz-adv-x="958" 
d="M980 683h-404v-291h332l-6 -29h-326v-334h265l-6 -29h-288v179h-391l-138 -179h-41l551 712h458zM179 208h368v477h-5l-9.5 -14l-17.5 -24.5l-20 -27l-17 -22.5zM705 799l-11 20l168 113l19 -30z" />
    <glyph glyph-name="aeacute" unicode="&#x1fd;" horiz-adv-x="949" 
d="M892 272h-424q-6 -30 -6 -60q0 -85 48 -140q49 -54 130 -54q93 0 178 58l-8 -35q-85 -52 -176 -52q-78 0 -131 44.5t-67 119.5q-40 -73 -118 -119q-77 -45 -153 -45q-69 0 -109 35t-40 89q0 75 63 131q63 57 156 57h209l10 48q2 15 3 24t1 12q0 63 -49 91q-50 30 -111 30
t-141 -34l8 34q81 29 135 29q42 0 76 -10t59 -29t38.5 -46.5t13.5 -61.5q45 66 108 106.5t133 40.5q40 0 73 -11.5t56 -34t36 -54.5t13 -72q0 -28 -8 -68zM438 271h-206q-72 0 -130 -44q-56 -44 -56 -110q0 -46 32.5 -72.5t89.5 -26.5q78 0 156 57q78 59 99 127zM869 301
q6 33 6 58q0 72 -42 109.5t-108 37.5q-79 0 -146 -58q-67 -56 -103 -147h393zM678 616l-11 20l168 113l19 -30z" />
    <glyph glyph-name="Oslashacute" unicode="&#x1fe;" horiz-adv-x="821" 
d="M503 724q127 0 212 -85l109 104l18 -19l-109 -104q67 -82 67 -196q0 -116 -63 -218q-62 -101 -162 -159t-208 -58q-128 0 -211 82l-107 -102l-19 19l108 102q-67 79 -67 195q0 43 9.5 86t27 83t42 75.5t54.5 64.5q60 60 138.5 95t160.5 35zM101 286q0 -105 58 -175
l535 508q-76 76 -194 76q-75 0 -148 -33.5t-128 -88.5t-89 -130.5t-34 -156.5zM370 18q99 0 191 54q93 56 151 149q58 94 58 202q0 102 -59 176l-533 -508q74 -73 192 -73zM456 799l-11 20l168 113l19 -30z" />
    <glyph glyph-name="oslashacute" unicode="&#x1ff;" horiz-adv-x="644" 
d="M370 535q93 0 155 -60l81 77l18 -18l-82 -78q49 -61 49 -145q0 -129 -97 -226q-96 -96 -221 -96q-96 0 -157 61l-86 -82l-19 18l88 83q-45 57 -45 137q0 134 96 232q96 97 220 97zM561 310q0 72 -41 125l-382 -365q52 -52 137 -52q108 0 197 86t89 206zM368 506
q-114 0 -199 -90q-85 -89 -85 -206q0 -71 37 -120l382 364q-53 52 -135 52zM323 616l-11 20l168 113l19 -30z" />
    <glyph glyph-name="uni0200" unicode="&#x200;" horiz-adv-x="696" 
d="M455 712l164 -712h-32l-39 179h-420l-115 -179h-36l466 712h12zM542 208l-75 327q-8 34 -14 64.5t-11 59.5h-4l-26.5 -42l-52.5 -82l-213 -327h396zM458 908l26 24l85 -102l-16 -16zM328 908l26 24l85 -102l-16 -16z" />
    <glyph glyph-name="uni0201" unicode="&#x201;" horiz-adv-x="668" 
d="M269 18q90 0 175 65q84 64 102 145l28 131q-15 56 -66 101q-49 46 -132 46q-117 0 -205 -90q-88 -89 -88 -214q0 -41 13 -75t37 -58t58.5 -37.5t77.5 -13.5zM608 522h30l-111 -522h-23l20 129q-44 -65 -116 -102q-74 -38 -146 -38q-99 0 -154 60q-55 61 -55 151
q0 130 96 232q97 103 228 103q39 0 71.5 -10t58.5 -27t45.5 -39.5t31.5 -48.5zM376 719l26 24l85 -102l-16 -16zM246 719l26 24l85 -102l-16 -16z" />
    <glyph glyph-name="uni0202" unicode="&#x202;" horiz-adv-x="696" 
d="M455 712l164 -712h-32l-39 179h-420l-115 -179h-36l466 712h12zM542 208l-75 327q-8 34 -14 64.5t-11 59.5h-4l-26.5 -42l-52.5 -82l-213 -327h396zM610 831l-15 -19l-114 80l-132 -80l-11 20l147 104z" />
    <glyph glyph-name="uni0203" unicode="&#x203;" horiz-adv-x="668" 
d="M269 18q90 0 175 65q84 64 102 145l28 131q-15 56 -66 101q-49 46 -132 46q-117 0 -205 -90q-88 -89 -88 -214q0 -41 13 -75t37 -58t58.5 -37.5t77.5 -13.5zM608 522h30l-111 -522h-23l20 129q-44 -65 -116 -102q-74 -38 -146 -38q-99 0 -154 60q-55 61 -55 151
q0 130 96 232q97 103 228 103q39 0 71.5 -10t58.5 -27t45.5 -39.5t31.5 -48.5zM553 642l-15 -19l-114 80l-132 -80l-11 20l147 104z" />
    <glyph glyph-name="uni0204" unicode="&#x204;" horiz-adv-x="532" 
d="M45 0l151 712h364l-6 -29h-335l-62 -291h325l-6 -29h-325l-71 -334h335l-6 -29h-364zM382 908l26 24l85 -102l-16 -16zM252 908l26 24l85 -102l-16 -16z" />
    <glyph glyph-name="uni0205" unicode="&#x205;" horiz-adv-x="569" 
d="M435 41q-82 -52 -174 -52q-90 0 -148 63q-58 62 -58 157q0 124 84 225q86 101 209 101q39 0 72 -11.5t57 -34t37 -54.5t13 -72q0 -51 -10 -91h-427q-2 -17 -3.5 -31.5t-1.5 -28.5q0 -85 49 -140q49 -54 131 -54q90 0 177 60zM491 301q6 33 6 59q0 70 -42.5 108t-108.5 38
q-85 0 -150 -55.5t-98 -149.5h393zM369 719l26 24l85 -102l-16 -16zM239 719l26 24l85 -102l-16 -16z" />
    <glyph glyph-name="uni0206" unicode="&#x206;" horiz-adv-x="532" 
d="M45 0l151 712h364l-6 -29h-335l-62 -291h325l-6 -29h-325l-71 -334h335l-6 -29h-364zM532 831l-15 -19l-114 80l-132 -80l-11 20l147 104z" />
    <glyph glyph-name="uni0207" unicode="&#x207;" horiz-adv-x="569" 
d="M435 41q-82 -52 -174 -52q-90 0 -148 63q-58 62 -58 157q0 124 84 225q86 101 209 101q39 0 72 -11.5t57 -34t37 -54.5t13 -72q0 -51 -10 -91h-427q-2 -17 -3.5 -31.5t-1.5 -28.5q0 -85 49 -140q49 -54 131 -54q90 0 177 60zM491 301q6 33 6 59q0 70 -42.5 108t-108.5 38
q-85 0 -150 -55.5t-98 -149.5h393zM520 642l-15 -19l-114 80l-132 -80l-11 20l147 104z" />
    <glyph glyph-name="uni0208" unicode="&#x208;" horiz-adv-x="231" 
d="M225 712l-151 -712h-29l151 712h29zM212 908l26 24l85 -102l-16 -16zM82 908l26 24l85 -102l-16 -16z" />
    <glyph glyph-name="uni0209" unicode="&#x209;" horiz-adv-x="205" 
d="M63 0h-29l111 522h29zM176 719l26 24l85 -102l-16 -16zM46 719l26 24l85 -102l-16 -16z" />
    <glyph glyph-name="uni020A" unicode="&#x20a;" horiz-adv-x="231" 
d="M225 712l-151 -712h-29l151 712h29zM375 831l-15 -19l-114 80l-132 -80l-11 20l147 104z" />
    <glyph glyph-name="uni020B" unicode="&#x20b;" horiz-adv-x="205" 
d="M63 0h-29l111 522h29zM326 642l-15 -19l-114 80l-132 -80l-11 20l147 104z" />
    <glyph glyph-name="uni020C" unicode="&#x20c;" horiz-adv-x="822" 
d="M503 724q130 0 213 -86q84 -86 84 -214q0 -116 -63 -218q-62 -101 -162 -159t-208 -58q-131 0 -213 84q-83 85 -83 212q0 43 9.5 86t27 83t42 75.5t54.5 64.5q60 60 138.5 95t160.5 35zM370 18q99 0 191 54q93 56 151 149q58 94 58 202q0 119 -75 196q-75 76 -195 76
q-75 0 -148 -33.5t-128 -88.5t-89 -130.5t-34 -156.5q0 -118 75 -193t194 -75zM525 908l26 24l85 -102l-16 -16zM395 908l26 24l85 -102l-16 -16z" />
    <glyph glyph-name="uni020D" unicode="&#x20d;" horiz-adv-x="644" 
d="M368 506q-114 0 -199 -90q-85 -89 -85 -206q0 -86 52 -139q53 -53 139 -53q108 0 197 86t89 206q0 87 -55 141q-54 55 -138 55zM370 535q98 0 159 -64q62 -65 62 -160q0 -129 -97 -226q-96 -96 -221 -96q-96 0 -158 62q-61 61 -61 155q0 134 96 232q96 97 220 97z
M386 719l26 24l85 -102l-16 -16zM256 719l26 24l85 -102l-16 -16z" />
    <glyph glyph-name="uni020E" unicode="&#x20e;" horiz-adv-x="822" 
d="M503 724q130 0 213 -86q84 -86 84 -214q0 -116 -63 -218q-62 -101 -162 -159t-208 -58q-131 0 -213 84q-83 85 -83 212q0 43 9.5 86t27 83t42 75.5t54.5 64.5q60 60 138.5 95t160.5 35zM370 18q99 0 191 54q93 56 151 149q58 94 58 202q0 119 -75 196q-75 76 -195 76
q-75 0 -148 -33.5t-128 -88.5t-89 -130.5t-34 -156.5q0 -118 75 -193t194 -75zM671 831l-15 -19l-114 80l-132 -80l-11 20l147 104z" />
    <glyph glyph-name="uni020F" unicode="&#x20f;" horiz-adv-x="644" 
d="M368 506q-114 0 -199 -90q-85 -89 -85 -206q0 -86 52 -139q53 -53 139 -53q108 0 197 86t89 206q0 87 -55 141q-54 55 -138 55zM370 535q98 0 159 -64q62 -65 62 -160q0 -129 -97 -226q-96 -96 -221 -96q-96 0 -158 62q-61 61 -61 155q0 134 96 232q96 97 220 97z
M539 642l-15 -19l-114 80l-132 -80l-11 20l147 104z" />
    <glyph glyph-name="uni0210" unicode="&#x210;" horiz-adv-x="554" 
d="M468 0h-36l-160 315h-132l-66 -315h-29l151 712h176q94 0 143.5 -44t49.5 -114q0 -92 -71 -163q-70 -68 -186 -76zM147 344h145q102 0 172 58q71 59 71 150q0 63 -44.5 97t-123.5 34h-148zM359 908l26 24l85 -102l-16 -16zM229 908l26 24l85 -102l-16 -16z" />
    <glyph glyph-name="uni0211" unicode="&#x211;" horiz-adv-x="350" 
d="M149 412q27 46 79 81q52 37 110 37q23 0 41 -3l-6 -31q-20 3 -41 3q-68 0 -130 -62q-59 -61 -70 -112l-69 -325h-29l111 522h24zM270 719l26 24l85 -102l-16 -16zM140 719l26 24l85 -102l-16 -16z" />
    <glyph glyph-name="uni0212" unicode="&#x212;" horiz-adv-x="554" 
d="M468 0h-36l-160 315h-132l-66 -315h-29l151 712h176q94 0 143.5 -44t49.5 -114q0 -92 -71 -163q-70 -68 -186 -76zM147 344h145q102 0 172 58q71 59 71 150q0 63 -44.5 97t-123.5 34h-148zM518 831l-15 -19l-114 80l-132 -80l-11 20l147 104z" />
    <glyph glyph-name="uni0213" unicode="&#x213;" horiz-adv-x="350" 
d="M149 412q27 46 79 81q52 37 110 37q23 0 41 -3l-6 -31q-20 3 -41 3q-68 0 -130 -62q-59 -61 -70 -112l-69 -325h-29l111 522h24zM421 642l-15 -19l-114 80l-132 -80l-11 20l147 104z" />
    <glyph glyph-name="uni0214" unicode="&#x214;" horiz-adv-x="659" 
d="M570 245q-25 -116 -108 -187q-83 -69 -180 -69q-85 0 -140 52t-55 142q0 17 1.5 33t5.5 32l98 464h29l-98 -459q-4 -16 -5.5 -32t-1.5 -32q0 -41 12.5 -72.5t34.5 -53.5t53 -33.5t68 -11.5q86 0 160 62q74 63 98 173l98 459h29zM428 908l26 24l85 -102l-16 -16zM298 908
l26 24l85 -102l-16 -16z" />
    <glyph glyph-name="uni0215" unicode="&#x215;" horiz-adv-x="608" 
d="M548 522h29l-67 -310q-23 -102 -92 -162q-68 -61 -165 -61q-82 0 -131.5 45.5t-49.5 123.5q0 24 6 54l67 310h29l-65 -307q-7 -31 -7 -55q0 -69 41 -105.5t110 -36.5q80 0 144 52q66 54 85 145zM370 719l26 24l85 -102l-16 -16zM240 719l26 24l85 -102l-16 -16z" />
    <glyph glyph-name="uni0216" unicode="&#x216;" horiz-adv-x="659" 
d="M570 245q-25 -116 -108 -187q-83 -69 -180 -69q-85 0 -140 52t-55 142q0 17 1.5 33t5.5 32l98 464h29l-98 -459q-4 -16 -5.5 -32t-1.5 -32q0 -41 12.5 -72.5t34.5 -53.5t53 -33.5t68 -11.5q86 0 160 62q74 63 98 173l98 459h29zM588 831l-15 -19l-114 80l-132 -80l-11 20
l147 104z" />
    <glyph glyph-name="uni0217" unicode="&#x217;" horiz-adv-x="608" 
d="M548 522h29l-67 -310q-23 -102 -92 -162q-68 -61 -165 -61q-82 0 -131.5 45.5t-49.5 123.5q0 24 6 54l67 310h29l-65 -307q-7 -31 -7 -55q0 -69 41 -105.5t110 -36.5q80 0 144 52q66 54 85 145zM522 642l-15 -19l-114 80l-132 -80l-11 20l147 104z" />
    <glyph glyph-name="Scommaaccent" unicode="&#x218;" horiz-adv-x="502" 
d="M349 695q-68 0 -130 -47q-61 -46 -61 -117q0 -37 28 -67t68 -53l60.5 -34t57.5 -40t42.5 -49.5t16.5 -62.5q0 -98 -76 -167q-77 -69 -173 -69q-93 0 -148 54l6 35q60 -60 144 -60q80 0 148 58q69 58 69 142q0 42 -27.5 74t-69.5 55q-29 18 -60.5 35.5t-57 38t-42 45.5
t-16.5 58q0 90 67 145t154 55q85 0 146 -50l-6 -33q-59 54 -140 54zM110 -246q44 97 66 184l40 10q-20 -57 -43 -107t-48 -93z" />
    <glyph glyph-name="scommaaccent" unicode="&#x219;" horiz-adv-x="431" 
d="M267 506q-49 0 -96 -31q-47 -32 -47 -81q0 -24 16 -44t40 -38t52 -36t52 -38t40 -44t16 -54q0 -64 -56 -108q-55 -43 -129 -43q-79 0 -129 35l7 32q49 -38 123 -38q60 0 106 31q48 31 48 88q0 26 -16 47t-40 39.5t-52 36.5t-52 37.5t-40 42t-16 50.5q0 63 52 103
q52 42 123 42q75 0 124 -41l-7 -31q-50 43 -119 43zM44 -246q44 97 66 184l40 10q-20 -57 -43 -107t-48 -93z" />
    <glyph glyph-name="uni021A" unicode="&#x21a;" horiz-adv-x="471" 
d="M346 683l-145 -683h-29l145 683h-195l6 29h417l-6 -29h-193zM100 -246q44 97 66 184l40 10q-20 -57 -43 -107t-48 -93z" />
    <glyph glyph-name="uni021B" unicode="&#x21b;" horiz-adv-x="334" 
d="M243 -5q-8 -3 -22 -3q-132 0 -132 119q0 25 6 52l70 330h-79l7 29h79l27 129l32 11l-30 -140h154l-8 -29h-153l-70 -332q-2 -14 -3.5 -23.5t-1.5 -14.5q0 -45 24 -73.5t72 -28.5q12 0 20.5 0.5t13.5 1.5zM39 -246q44 97 66 184l40 10q-20 -57 -43 -107t-48 -93z" />
    <glyph glyph-name="circumflex" unicode="&#x2c6;" horiz-adv-x="365" 
d="M396 598l-15 -19l-114 80l-132 -80l-11 20l147 104z" />
    <glyph glyph-name="caron" unicode="&#x2c7;" horiz-adv-x="364" 
d="M394 702l11 -20l-147 -103l-127 103l16 20l115 -79z" />
    <glyph glyph-name="breve" unicode="&#x2d8;" horiz-adv-x="372" 
d="M410 678q-50 -89 -147 -89q-100 0 -130 88l24 9q22 -70 107 -70q86 0 123 70z" />
    <glyph glyph-name="dotaccent" unicode="&#x2d9;" horiz-adv-x="393" 
d="M244 636q0 14 9.5 24.5t23.5 10.5q12 0 20 -8t8 -20q0 -13 -10.5 -22.5t-23.5 -9.5q-11 0 -19 7t-8 18z" />
    <glyph glyph-name="ring" unicode="&#x2da;" horiz-adv-x="394" 
d="M192 641q0 35 24.5 60t59.5 25q18 0 34 -6.5t27.5 -18t18.5 -27t7 -33.5q-1 -36 -25.5 -60.5t-60.5 -24.5q-18 0 -33.5 6.5t-27 18t-18 27t-6.5 33.5zM218 641q-1 -24 17 -41.5t41 -17.5q25 0 42.5 17.5t18.5 41.5q0 24 -18 41.5t-43 17.5q-23 0 -40.5 -17.5t-17.5 -41.5
z" />
    <glyph glyph-name="ogonek" unicode="&#x2db;" horiz-adv-x="391" 
d="M154 -168q-18 -7 -38 -7q-35 0 -53 20.5t-11 51.5q12 59 98 104h28q-35 -20 -62.5 -48t-32.5 -51t9 -35.5t37 -12.5q16 0 31 6z" />
    <glyph glyph-name="tilde" unicode="&#x2dc;" horiz-adv-x="373" 
d="M321 604q-23 0 -58 20q-35 21 -57 21q-37 0 -63 -32l-17 18q36 45 88 45q20 0 59 -21q40 -20 56 -20q33 0 62 33l17 -17q-42 -47 -87 -47z" />
    <glyph glyph-name="hungarumlaut" unicode="&#x2dd;" horiz-adv-x="371" 
d="M245 700l22 -25l-114 -94l-15 16zM375 700l22 -25l-113 -94l-16 16z" />
    <glyph glyph-name="doublegrave" unicode="&#x30f;" horiz-adv-x="371" 
d="M278 675l26 24l85 -102l-16 -16zM148 675l26 24l85 -102l-16 -16z" />
    <glyph glyph-name="uni037E" unicode="&#x37e;" horiz-adv-x="268" 
d="M215 457q-1 -14 -13 -24t-26 -10t-23 10t-8 24t13 24.5t26 10.5t23.5 -10.5t7.5 -24.5zM-29 -196q59 124 93 259l50 12q-56 -158 -126 -276z" />
    <glyph glyph-name="tonos" unicode="&#x384;" horiz-adv-x="301" 
d="M276 733l30 -16l-96 -155l-21 11z" />
    <glyph glyph-name="dieresistonos" unicode="&#x385;" horiz-adv-x="346" 
d="M285 722l31 -15l-85 -135l-22 11zM131 637q0 14 9 24t24 10q12 0 19.5 -8t7.5 -20q0 -13 -10.5 -22.5t-23.5 -9.5q-12 0 -19 7.5t-7 18.5zM327 637q0 14 9 24t24 10q12 0 19.5 -8t7.5 -20q0 -13 -10.5 -22.5t-23.5 -9.5q-12 0 -19 7.5t-7 18.5z" />
    <glyph glyph-name="Alphatonos" unicode="&#x386;" horiz-adv-x="696" 
d="M455 712l164 -712h-32l-39 179h-420l-115 -179h-36l466 712h12zM542 208l-75 327q-8 34 -14 64.5t-11 59.5h-4l-26.5 -42l-52.5 -82l-213 -327h396zM168 733l30 -16l-96 -155l-21 11z" />
    <glyph glyph-name="anoteleia" unicode="&#x387;" horiz-adv-x="378" 
d="M184 277q14 0 23 -9.5t9 -22.5q0 -15 -12 -26t-27 -11q-13 0 -22 8.5t-9 21.5q0 16 11.5 27.5t26.5 11.5z" />
    <glyph glyph-name="Epsilontonos" unicode="&#x388;" horiz-adv-x="534" 
d="M45 0l151 712h364l-6 -29h-335l-62 -291h325l-6 -29h-325l-71 -334h335l-6 -29h-364zM87 733l30 -16l-96 -155l-21 11z" />
    <glyph glyph-name="Etatonos" unicode="&#x389;" horiz-adv-x="683" 
d="M588 391l68 321h29l-151 -712h-29l76 362h-431l-76 -362h-29l151 712h29l-68 -321h431zM87 733l30 -16l-96 -155l-21 11z" />
    <glyph glyph-name="Iotatonos" unicode="&#x38a;" horiz-adv-x="223" 
d="M225 712l-151 -712h-29l151 712h29zM87 733l30 -16l-96 -155l-21 11z" />
    <glyph glyph-name="Omicrontonos" unicode="&#x38c;" horiz-adv-x="822" 
d="M503 724q130 0 213 -86q84 -86 84 -214q0 -116 -63 -218q-62 -101 -162 -159t-208 -58q-131 0 -213 84q-83 85 -83 212q0 43 9.5 86t27 83t42 75.5t54.5 64.5q60 60 138.5 95t160.5 35zM370 18q99 0 191 54q93 56 151 149q58 94 58 202q0 119 -75 196q-75 76 -195 76
q-75 0 -148 -33.5t-128 -88.5t-89 -130.5t-34 -156.5q0 -118 75 -193t194 -75zM87 733l30 -16l-96 -155l-21 11z" />
    <glyph glyph-name="Upsilontonos" unicode="&#x38e;" horiz-adv-x="583" 
d="M621 712h36l-327 -415l-63 -297h-29l63 297l-150 415h31l102 -283l35 -99h4l28 38.5t46 59.5zM87 733l30 -16l-96 -155l-21 11z" />
    <glyph glyph-name="Omegatonos" unicode="&#x38f;" horiz-adv-x="812" 
d="M482 27h12t21 1t23 1h18h161l-6 -29h-265l9 47q133 63 213 165q81 103 81 230q0 114 -69 183q-69 70 -192 70q-143 0 -247 -92t-129 -233q-2 -15 -3.5 -28.5t-1.5 -24.5q0 -85 47 -154.5t125 -115.5l-9 -47h-249l6 29h151h17.5t22.5 -1t20.5 -1h11.5v5q-85 51 -129 126
t-44 159q0 11 1.5 24.5t3.5 28.5q29 156 142 254q115 100 265 100q130 0 210 -78t80 -204q0 -115 -78 -230q-77 -114 -219 -180v-5zM87 733l30 -16l-96 -155l-21 11z" />
    <glyph glyph-name="iotadieresistonos" unicode="&#x390;" horiz-adv-x="283" 
d="M220 766l31 -15l-85 -135l-22 11zM66 681q0 14 9 24t24 10q12 0 19.5 -8t7.5 -20q0 -13 -10.5 -22.5t-23.5 -9.5q-12 0 -19 7.5t-7 18.5zM262 681q0 14 9 24t24 10q12 0 19.5 -8t7.5 -20q0 -13 -10.5 -22.5t-23.5 -9.5q-12 0 -19 7.5t-7 18.5zM193 -4q-55 1 -93 38
q-37 37 -37 89q0 12 3 24l79 375h29l-77 -365q-3 -15 -3 -27q0 -45 29.5 -74.5t75.5 -30.5z" />
    <glyph glyph-name="Alpha" unicode="&#x391;" horiz-adv-x="693" 
d="M455 712l164 -712h-32l-39 179h-420l-115 -179h-36l466 712h12zM542 208l-75 327q-8 34 -14 64.5t-11 59.5h-4l-26.5 -42l-52.5 -82l-213 -327h396z" />
    <glyph glyph-name="Beta" unicode="&#x392;" horiz-adv-x="586" 
d="M219 683l-66 -307h168q80 0 141 49t61 136q0 61 -40 91.5t-112 30.5h-152zM147 347l-67 -318h177q90 0 158 52q69 52 69 146q0 57 -43 88.5t-118 31.5h-176zM409 362q105 -32 105 -131q0 -109 -78 -170q-76 -61 -179 -61h-212l151 712h177q88 0 134 -41t46 -104
q0 -36 -10.5 -68.5t-30 -59t-46 -46t-57.5 -31.5z" />
    <glyph glyph-name="Gamma" unicode="&#x393;" horiz-adv-x="425" 
d="M221 683l-145 -683h-29l151 712h298l-6 -29h-269z" />
    <glyph glyph-name="Delta" unicode="&#x394;" horiz-adv-x="692" 
d="M12 0l4 25l403 687h17l160 -688l-4 -24h-580zM419 661q-20 -39 -72 -129l-294 -503h511l-116 503q-10 40 -16 72t-9 57h-4z" />
    <glyph glyph-name="Epsilon" unicode="&#x395;" horiz-adv-x="538" 
d="M45 0l151 712h364l-6 -29h-335l-62 -291h325l-6 -29h-325l-71 -334h335l-6 -29h-364z" />
    <glyph glyph-name="Zeta" unicode="&#x396;" horiz-adv-x="563" 
d="M28 27q11 1 38 1.5t72 0.5h352l-6 -29h-505l4 20l543 598q6 7 14.5 16l19.5 20l26 27v4h-10.5t-28.5 -1q-18 -1 -33.5 -1h-28.5h-324l6 29h468l-4 -20l-535 -590q-8 -10 -18.5 -20.5l-23.5 -23.5q-25 -25 -26 -27v-4z" />
    <glyph glyph-name="Eta" unicode="&#x397;" horiz-adv-x="680" 
d="M588 391l68 321h29l-151 -712h-29l76 362h-431l-76 -362h-29l151 712h29l-68 -321h431z" />
    <glyph glyph-name="Theta" unicode="&#x398;" horiz-adv-x="810" 
d="M275 371h328l-6 -29h-328zM503 724q130 0 213 -86q84 -86 84 -214q0 -116 -63 -218q-62 -101 -162 -159t-208 -58q-131 0 -213 84q-83 85 -83 212q0 43 9.5 86t27 83t42 75.5t54.5 64.5q60 60 138.5 95t160.5 35zM370 18q99 0 191 54q93 56 151 149q58 94 58 202
q0 119 -75 196q-75 76 -195 76q-75 0 -148 -33.5t-128 -88.5t-89 -130.5t-34 -156.5q0 -118 75 -193t194 -75z" />
    <glyph glyph-name="Iota" unicode="&#x399;" horiz-adv-x="233" 
d="M225 712l-151 -712h-29l151 712h29z" />
    <glyph glyph-name="Kappa" unicode="&#x39a;" horiz-adv-x="583" 
d="M642 712l-369 -331l222 -381h-32l-212 364l-125 -115l-52 -249h-29l151 712h29l-72 -340q-1 -9 -9 -40l-9 -37h4q8 9 62 59l400 358h41z" />
    <glyph glyph-name="Lambda" unicode="&#x39b;" horiz-adv-x="648" 
d="M1 0h-33l441 712h17l138 -712h-29l-103 532q-15 84 -21 129h-4l-76 -129z" />
    <glyph glyph-name="Mu" unicode="&#x39c;" horiz-adv-x="807" 
d="M640 0l118 557l12.5 55t9.5 37h-5l-64 -54l-276 -227l-179 227l-42 54h-4l-18 -92l-118 -557h-29l151 712h5l239 -303l367 303h13l-151 -712h-29z" />
    <glyph glyph-name="Nu" unicode="&#x39d;" horiz-adv-x="721" 
d="M728 712l-151 -712h-13l-296 560l-29 56.5t-23 47.5l-4 -1l-24 -122l-114 -541h-29l151 712h22l297 -557q37 -69 44 -92h4l11.5 60.5l14.5 73.5l110 515h29z" />
    <glyph glyph-name="Xi" unicode="&#x39e;" horiz-adv-x="510" 
d="M168 683l6 29h364l-6 -29h-364zM110 363l6 29h344l-6 -29h-344zM23 0l6 29h364l-6 -29h-364z" />
    <glyph glyph-name="Omicron" unicode="&#x39f;" horiz-adv-x="820" 
d="M503 724q130 0 213 -86q84 -86 84 -214q0 -116 -63 -218q-62 -101 -162 -159t-208 -58q-131 0 -213 84q-83 85 -83 212q0 43 9.5 86t27 83t42 75.5t54.5 64.5q60 60 138.5 95t160.5 35zM370 18q99 0 191 54q93 56 151 149q58 94 58 202q0 119 -75 196q-75 76 -195 76
q-75 0 -148 -33.5t-128 -88.5t-89 -130.5t-34 -156.5q0 -118 75 -193t194 -75z" />
    <glyph glyph-name="Pi" unicode="&#x3a0;" horiz-adv-x="678" 
d="M198 712h489l-151 -712h-29l145 683h-431l-145 -683h-29z" />
    <glyph glyph-name="Rho" unicode="&#x3a1;" horiz-adv-x="564" 
d="M372 712q50 0 88.5 -12.5t65 -35.5t40.5 -54.5t14 -68.5q0 -109 -82 -185q-83 -77 -212 -77h-153l-59 -279h-29l151 712h176zM288 308q112 0 186 64q76 64 76 166q0 67 -47.5 106t-134.5 39h-149l-80 -375h149z" />
    <glyph glyph-name="Sigma" unicode="&#x3a3;" horiz-adv-x="545" 
d="M573 712l-6 -29h-335l143 -327l-282 -327h335l-6 -29h-375l5 25l289 336l-146 336l3 15h375z" />
    <glyph glyph-name="Tau" unicode="&#x3a4;" horiz-adv-x="470" 
d="M346 683l-145 -683h-29l145 683h-195l6 29h417l-6 -29h-193z" />
    <glyph glyph-name="Upsilon" unicode="&#x3a5;" horiz-adv-x="560" 
d="M598 712h36l-327 -415l-63 -297h-29l63 297l-150 415h31l102 -283l35 -99h4l28 38.5t46 59.5z" />
    <glyph glyph-name="Phi" unicode="&#x3a6;" horiz-adv-x="819" 
d="M517 668q124 0 204 -68q81 -68 81 -180q0 -81 -36 -152.5t-96 -120.5q-60 -48 -133.5 -75.5t-151.5 -27.5l-16 -73h-29l16 73q-125 0 -205 68q-80 69 -80 180q0 107 62 196q31 44 71.5 77.5t86 56.5t96 34.5t101.5 11.5l16 72h29zM482 639q-70 0 -138 -24.5t-122 -70
t-87.5 -109.5t-33.5 -142q0 -101 73 -161q74 -59 188 -59zM391 73q94 0 180 42q87 42 144 123t57 181q0 103 -73 161q-74 59 -188 59z" />
    <glyph glyph-name="Chi" unicode="&#x3a7;" horiz-adv-x="573" 
d="M328 373l159 -373h-30l-124 284q-16 33 -23 62h-5l-51 -62l-241 -284h-38l318 375l-142 337h31l100 -235l13.5 -35t15.5 -45h5l64 80l198 235h39z" />
    <glyph glyph-name="Psi" unicode="&#x3a8;" horiz-adv-x="757" 
d="M754 712h29l-48 -223q-26 -116 -126 -186q-101 -69 -217 -69l-49 -234h-29l49 234q-102 0 -172 54q-69 55 -69 148q0 24 6 53l48 223h29l-46 -215q-6 -27 -6 -51q0 -85 62 -135q63 -48 154 -48l96 449h29l-96 -449q48 -2 98 13.5t93 46t75 74.5t44 100z" />
    <glyph glyph-name="Omega" unicode="&#x3a9;" horiz-adv-x="793" 
d="M463 27h12t21 1t23 1h18h161l-6 -29h-265l9 47q133 63 213 165q81 103 81 230q0 114 -69 183q-69 70 -192 70q-143 0 -247 -92t-129 -233q-2 -15 -3.5 -28.5t-1.5 -24.5q0 -85 47 -154.5t125 -115.5l-9 -47h-249l6 29h151h17.5t22.5 -1t20.5 -1h11.5v5q-85 51 -129 126
t-44 159q0 11 1.5 24.5t3.5 28.5q29 156 142 254q115 100 265 100q130 0 210 -78t80 -204q0 -115 -78 -230q-77 -114 -219 -180v-5z" />
    <glyph glyph-name="Iotadieresis" unicode="&#x3aa;" horiz-adv-x="223" 
d="M225 712l-151 -712h-29l151 712h29zM129 869q0 14 9.5 24.5t23.5 10.5q12 0 20 -8t8 -20q0 -13 -10.5 -22.5t-23.5 -9.5q-11 0 -19 7t-8 18zM299 869q0 14 9.5 24.5t23.5 10.5q12 0 20 -8t8 -20q0 -13 -10.5 -22.5t-23.5 -9.5q-11 0 -19 7t-8 18z" />
    <glyph glyph-name="Upsilondieresis" unicode="&#x3ab;" horiz-adv-x="560" 
d="M598 712h36l-327 -415l-63 -297h-29l63 297l-150 415h31l102 -283l35 -99h4l28 38.5t46 59.5zM296 869q0 14 9.5 24.5t23.5 10.5q12 0 20 -8t8 -20q0 -13 -10.5 -22.5t-23.5 -9.5q-11 0 -19 7t-8 18zM466 869q0 14 9.5 24.5t23.5 10.5q12 0 20 -8t8 -20
q0 -13 -10.5 -22.5t-23.5 -9.5q-11 0 -19 7t-8 18z" />
    <glyph glyph-name="alphatonos" unicode="&#x3ac;" horiz-adv-x="667" 
d="M616 522h23l-112 -522h-23l22 129q-48 -69 -114.5 -104.5t-138.5 -35.5q-100 0 -159 62q-59 64 -59 156q-2 59 22 118t66.5 106t100.5 76t124 28q36 0 69 -10t61 -29.5t49.5 -47t33.5 -62.5zM275 18q107 0 196 87t89 209q0 86 -55 138q-54 54 -137 54q-116 0 -200 -88
q-83 -88 -83 -209q0 -43 13 -78.5t38 -60.5t60 -38.5t79 -13.5zM436 777l30 -16l-96 -155l-21 11z" />
    <glyph glyph-name="epsilontonos" unicode="&#x3ad;" horiz-adv-x="451" 
d="M347 294l-6 -28h-94q-74 0 -129 -43q-54 -44 -54 -99q0 -48 40 -77t103 -29q87 0 155 28l-7 -32q-65 -25 -152 -25q-73 0 -122 37q-48 37 -48 94q0 24 9.5 48.5t27 46.5t43 39.5t57.5 28.5q-66 31 -66 93q0 66 59 113q59 46 140 46q86 0 152 -29l-7 -33q-62 32 -149 32
q-65 0 -115 -37q-50 -38 -50 -88q0 -36 33.5 -61t85.5 -25h94zM369 777l30 -16l-96 -155l-21 11z" />
    <glyph glyph-name="etatonos" unicode="&#x3ae;" horiz-adv-x="608" 
d="M145 522h24l-19 -100q20 23 45.5 43.5t54 36t60 24.5t63.5 9q78 0 123 -44.5t45 -119.5q0 -25 -7 -56l-113 -531h-29l112 528q6 30 6 55q0 69 -38.5 104t-104.5 35q-76 0 -141 -50q-64 -49 -87 -98l-76 -358h-29zM425 777l30 -16l-96 -155l-21 11z" />
    <glyph glyph-name="iotatonos" unicode="&#x3af;" horiz-adv-x="283" 
d="M193 -4q-55 1 -93 38q-37 37 -37 89q0 12 3 24l79 375h29l-77 -365q-3 -15 -3 -27q0 -45 29.5 -74.5t75.5 -30.5zM222 777l30 -16l-96 -155l-21 11z" />
    <glyph glyph-name="upsilondieresistonos" unicode="&#x3b0;" horiz-adv-x="599" 
d="M491 522q49 -74 49 -172q0 -143 -91 -252q-90 -109 -198 -109q-41 0 -74 11.5t-56 33.5t-36 52.5t-13 68.5q0 27 6 57l67 310h29l-65 -307q-7 -31 -7 -55q0 -69 41 -105.5t110 -36.5q92 0 175 99q82 100 82 232q0 102 -56 173h37zM400 766l31 -15l-85 -135l-22 11z
M246 681q0 14 9 24t24 10q12 0 19.5 -8t7.5 -20q0 -13 -10.5 -22.5t-23.5 -9.5q-12 0 -19 7.5t-7 18.5zM442 681q0 14 9 24t24 10q12 0 19.5 -8t7.5 -20q0 -13 -10.5 -22.5t-23.5 -9.5q-12 0 -19 7.5t-7 18.5z" />
    <glyph glyph-name="alpha" unicode="&#x3b1;" horiz-adv-x="668" 
d="M616 522h23l-112 -522h-23l22 129q-48 -69 -114.5 -104.5t-138.5 -35.5q-100 0 -159 62q-59 64 -59 156q-2 59 22 118t66.5 106t100.5 76t124 28q36 0 69 -10t61 -29.5t49.5 -47t33.5 -62.5zM275 18q107 0 196 87t89 209q0 86 -55 138q-54 54 -137 54q-116 0 -200 -88
q-83 -88 -83 -209q0 -43 13 -78.5t38 -60.5t60 -38.5t79 -13.5z" />
    <glyph glyph-name="beta" unicode="&#x3b2;" horiz-adv-x="561" 
d="M238 18q193 0 234 192q5 28 5 42q0 72 -55 115q-53 43 -134 43h-16l6 29h16q99 0 150 58q52 58 52 130q0 51 -31.5 85t-95.5 34q-63 0 -118 -55q-56 -56 -71 -126l-101 -471q23 -31 65.5 -53.5t93.5 -22.5zM383 423q61 -22 92.5 -67t31.5 -103q0 -26 -5 -49
q-47 -215 -265 -215q-47 0 -95 20q-47 21 -71 47l-57 -272h-29l166 782q18 85 81 147q65 62 141 62q69 0 111 -42t42 -104q0 -65 -38 -121t-105 -85z" />
    <glyph glyph-name="gamma" unicode="&#x3b3;" horiz-adv-x="541" 
d="M156 -216l51 238l-120 500h30l83 -348l14.5 -61.5t10.5 -52.5h5q14 24 32 52l40 60l232 350h34l-332 -498l-51 -240h-29z" />
    <glyph glyph-name="delta" unicode="&#x3b4;" horiz-adv-x="645" 
d="M345 733q100 -63 175 -181q76 -118 76 -233q0 -131 -97 -231q-96 -99 -220 -99q-99 0 -161 62q-61 62 -61 158q0 131 95 229q96 97 219 97q82 0 133 -17q-37 61 -86.5 113.5t-112.5 97.5l8 35h348l-6 -29h-216q-33 0 -93 3zM280 18q111 0 198 88q88 88 88 211
q0 73 -38 155q-55 34 -157 34q-110 0 -197 -87t-87 -209q0 -83 53 -138q54 -54 140 -54z" />
    <glyph glyph-name="epsilon" unicode="&#x3b5;" horiz-adv-x="451" 
d="M347 294l-6 -28h-94q-74 0 -129 -43q-54 -44 -54 -99q0 -48 40 -77t103 -29q87 0 155 28l-7 -32q-65 -25 -152 -25q-73 0 -122 37q-48 37 -48 94q0 24 9.5 48.5t27 46.5t43 39.5t57.5 28.5q-66 31 -66 93q0 66 59 113q59 46 140 46q86 0 152 -29l-7 -33q-62 32 -149 32
q-65 0 -115 -37q-50 -38 -50 -88q0 -36 33.5 -61t85.5 -25h94z" />
    <glyph glyph-name="zeta" unicode="&#x3b6;" horiz-adv-x="438" 
d="M78 245q-6 -29 -6 -54q0 -49 23.5 -83.5t65.5 -53.5q42 -18 89.5 -26t104.5 -8h8q-89 -189 -150 -276l-16 7q40 69 68.5 128.5t47.5 112.5q-55 2 -101 13t-86 33t-62.5 60.5t-22.5 92.5q0 67 42 150q43 81 109 155q67 73 146.5 135.5t157.5 101.5l1 5q-60 -3 -93 -3h-216
l6 29h348l-8 -35q-150 -82 -291 -221q-138 -136 -165 -263z" />
    <glyph glyph-name="eta" unicode="&#x3b7;" horiz-adv-x="609" 
d="M145 522h24l-19 -100q20 23 45.5 43.5t54 36t60 24.5t63.5 9q78 0 123 -44.5t45 -119.5q0 -25 -7 -56l-113 -531h-29l112 528q6 30 6 55q0 69 -38.5 104t-104.5 35q-76 0 -141 -50q-64 -49 -87 -98l-76 -358h-29z" />
    <glyph glyph-name="theta" unicode="&#x3b8;" horiz-adv-x="675" 
d="M435 746q-102 0 -189 -95q-88 -95 -119 -255h487q4 27 6 51t2 45q0 60 -13.5 107t-38 79.5t-59 50t-76.5 17.5zM299 18q102 0 189 94q88 94 121 255h-487q-9 -54 -9 -100q0 -118 50.5 -183.5t135.5 -65.5zM436 775q97 0 156 -74q60 -74 60 -206q0 -25 -3 -53.5t-8 -60.5
q-33 -183 -130 -287q-96 -105 -214 -105q-48 0 -87.5 19t-67.5 54.5t-43.5 86.5t-15.5 116q0 29 3 58t8 58q31 181 128 288q97 106 214 106z" />
    <glyph glyph-name="iota" unicode="&#x3b9;" horiz-adv-x="283" 
d="M193 -4q-55 1 -93 38q-37 37 -37 89q0 12 3 24l79 375h29l-77 -365q-3 -15 -3 -27q0 -45 29.5 -74.5t75.5 -30.5z" />
    <glyph glyph-name="kappa" unicode="&#x3ba;" horiz-adv-x="496" 
d="M467 522h38l-271 -245l173 -277h-33l-163 259l-113 -95l-20 -92l-15 -72h-29l111 522h29l-47 -221l-3 -12t-2 -12q-3 -14 -7 -31l-9 -37h8q16 16 34.5 31.5l39.5 32.5z" />
    <glyph glyph-name="lambda" unicode="&#x3bb;" horiz-adv-x="541" 
d="M458 0h-31l-87 345q-17 64 -24 102h-5l-26 -41q-11 -19 -21 -34.5t-18 -26.5l-235 -345h-35l327 482l-72 282h31z" />
    <glyph glyph-name="uni03BC" unicode="&#x3bc;" horiz-adv-x="611" 
d="M-25 -216l157 738h29l-66 -312q-7 -21 -7 -55q0 -69 38.5 -104t104.5 -35q77 0 143 51q67 50 85 98l78 357h29l-112 -522h-24l18 100q-40 -48 -97.5 -80.5t-123.5 -32.5q-58 0 -101 28t-57 74l-65 -305h-29z" />
    <glyph glyph-name="nu" unicode="&#x3bd;" horiz-adv-x="540" 
d="M534 522h34l-348 -522h-8l-125 522h30l83 -348l14.5 -61.5t10.5 -52.5h5q14 24 32 52l40 60z" />
    <glyph glyph-name="xi" unicode="&#x3be;" horiz-adv-x="450" 
d="M209 -248q42 71 70.5 130.5t45.5 110.5q-57 3 -102.5 14.5t-87.5 34.5q-40 24 -63 65t-23 98q0 77 45 145q46 66 139 95q-85 36 -85 123q0 88 72 147q73 60 166 60q80 0 136 -35l-8 -35q-62 41 -132 41q-77 0 -141 -52q-63 -51 -63 -123q0 -24 10 -44.5t28 -36t43.5 -24
t55.5 -8.5h81l-6 -29h-81q-77 0 -143 -48t-80 -113q-7 -29 -7 -60q0 -187 288 -187h9q-82 -180 -151 -276z" />
    <glyph glyph-name="omicron" unicode="&#x3bf;" horiz-adv-x="633" 
d="M368 506q-114 0 -199 -90q-85 -89 -85 -206q0 -86 52 -139q53 -53 139 -53q108 0 197 86t89 206q0 87 -55 141q-54 55 -138 55zM370 535q98 0 159 -64q62 -65 62 -160q0 -129 -97 -226q-96 -96 -221 -96q-96 0 -158 62q-61 61 -61 155q0 134 96 232q96 97 220 97z" />
    <glyph glyph-name="pi" unicode="&#x3c0;" horiz-adv-x="642" 
d="M564 -4q-55 1 -93 38q-36 37 -36 89q0 11 4 31l70 339h-316l-104 -493h-29l103 493h-77l8 29h531l-7 -29h-79l-71 -336q-3 -15 -3 -27q0 -45 29.5 -74.5t75.5 -30.5z" />
    <glyph glyph-name="rho" unicode="&#x3c1;" horiz-adv-x="669" 
d="M393 535q100 0 161 -64q62 -65 62 -162q0 -128 -96 -224t-220 -96q-79 0 -136 35.5t-81 87.5l-71 -328h-29l102 475q25 118 110 197t198 79zM299 18q109 0 198 86t89 206q0 86 -55 141q-54 55 -138 55q-98 0 -177 -70q-80 -71 -102 -176l-20 -94q12 -56 67 -102t138 -46z
" />
    <glyph glyph-name="uni03C2" unicode="&#x3c2;" horiz-adv-x="480" 
d="M234 -248q84 145 115 243q-57 1 -110.5 13.5t-94.5 38.5t-66 66.5t-25 99.5q0 94 47 170q48 75 119 113.5t152 38.5q75 0 128 -38q-1 -6 -4 -17.5t-4 -17.5q-53 44 -123 44q-109 0 -197 -81q-87 -81 -87 -211q0 -191 308 -191h9q-42 -92 -79.5 -161t-71.5 -117z" />
    <glyph glyph-name="sigma" unicode="&#x3c3;" horiz-adv-x="678" 
d="M700 522l-7 -29h-88q-74 0 -107 3v-8q46 -28 72 -76.5t26 -106.5q0 -129 -97 -223q-96 -93 -222 -93q-97 0 -159 59q-60 58 -60 152q0 133 95 228q95 94 221 94h326zM372 493q-114 0 -199 -87q-85 -86 -85 -203q0 -83 52 -134t139 -51q109 0 198 83t89 202q0 86 -55 138
q-53 52 -139 52z" />
    <glyph glyph-name="tau" unicode="&#x3c4;" horiz-adv-x="411" 
d="M289 -4q-54 1 -92 38q-37 37 -37 89q0 12 5 34l69 336h-162l8 29h357l-8 -29h-164l-71 -336q-3 -15 -3 -27q0 -45 29.5 -74.5t75.5 -30.5z" />
    <glyph glyph-name="upsilon" unicode="&#x3c5;" horiz-adv-x="599" 
d="M491 522q49 -74 49 -172q0 -143 -91 -252q-90 -109 -198 -109q-41 0 -74 11.5t-56 33.5t-36 52.5t-13 68.5q0 27 6 57l67 310h29l-65 -307q-7 -31 -7 -55q0 -69 41 -105.5t110 -36.5q92 0 175 99q82 100 82 232q0 102 -56 173h37z" />
    <glyph glyph-name="phi" unicode="&#x3c6;" horiz-adv-x="688" 
d="M302 21q123 0 208 94q87 94 87 224q0 80 -37 123q-36 44 -83 44q-28 0 -57 -26q-26 -25 -34 -63zM481 535q52 0 99 -51q47 -50 47 -144q0 -142 -97 -246q-96 -104 -234 -104l-44 -206h-30l44 206q-96 0 -154 61q-59 62 -59 153q0 117 81 209q82 92 190 116l-7 -30
q-93 -24 -164 -108q-70 -82 -70 -184q0 -83 52 -135t137 -52l85 401q11 51 48 82q38 32 76 32z" />
    <glyph glyph-name="chi" unicode="&#x3c7;" horiz-adv-x="498" 
d="M506 522l-232 -248l144 -274h-33l-98 186l-33 66h-5l-61 -68l-174 -184h-40l263 277l-125 245h34l77 -150l22.5 -47l12.5 -26h5q14 19 29 36l29 33l146 154h39z" />
    <glyph glyph-name="psi" unicode="&#x3c8;" horiz-adv-x="686" 
d="M598 350q0 101 -56 172h38q48 -72 48 -172q0 -94 -49 -179q-48 -83 -123 -133q-74 -48 -149 -48l-45 -206h-29l43 206q-85 0 -144 49q-59 50 -59 128q0 9 1.5 20l3.5 25l67 310h29l-65 -307q-6 -30 -6 -43q0 -72 53 -113q52 -39 127 -39l148 692h29l-147 -692
q48 0 97.5 26t91.5 69q42 45 69 107t27 128z" />
    <glyph glyph-name="omega" unicode="&#x3c9;" horiz-adv-x="903" 
d="M816 349q0 102 -57 173h36q51 -78 51 -172q0 -143 -93 -252q-91 -109 -200 -109q-119 0 -132 108q-59 -108 -180 -108q-80 0 -126 58t-46 152q0 43 11 87t31 86t48.5 80t64.5 70h39q-69 -56 -117 -144q-47 -89 -47 -174q0 -84 39.5 -135t106.5 -51q75 0 119 47.5
t65 149.5l40 186h29l-40 -186q-5 -23 -7.5 -44.5t-2.5 -41.5q0 -57 26 -84t83 -27q93 0 176 99q83 101 83 232z" />
    <glyph glyph-name="iotadieresis" unicode="&#x3ca;" horiz-adv-x="283" 
d="M193 -4q-55 1 -93 38q-37 37 -37 89q0 12 3 24l79 375h29l-77 -365q-3 -15 -3 -27q0 -45 29.5 -74.5t75.5 -30.5zM78 680q0 14 9.5 24.5t23.5 10.5q12 0 20 -8t8 -20q0 -13 -10.5 -22.5t-23.5 -9.5q-11 0 -19 7t-8 18zM248 680q0 14 9.5 24.5t23.5 10.5q12 0 20 -8t8 -20
q0 -13 -10.5 -22.5t-23.5 -9.5q-11 0 -19 7t-8 18z" />
    <glyph glyph-name="upsilondieresis" unicode="&#x3cb;" horiz-adv-x="599" 
d="M491 522q49 -74 49 -172q0 -143 -91 -252q-90 -109 -198 -109q-41 0 -74 11.5t-56 33.5t-36 52.5t-13 68.5q0 27 6 57l67 310h29l-65 -307q-7 -31 -7 -55q0 -69 41 -105.5t110 -36.5q92 0 175 99q82 100 82 232q0 102 -56 173h37zM254 680q0 14 9.5 24.5t23.5 10.5
q12 0 20 -8t8 -20q0 -13 -10.5 -22.5t-23.5 -9.5q-11 0 -19 7t-8 18zM424 680q0 14 9.5 24.5t23.5 10.5q12 0 20 -8t8 -20q0 -13 -10.5 -22.5t-23.5 -9.5q-11 0 -19 7t-8 18z" />
    <glyph glyph-name="omicrontonos" unicode="&#x3cc;" horiz-adv-x="642" 
d="M368 506q-114 0 -199 -90q-85 -89 -85 -206q0 -86 52 -139q53 -53 139 -53q108 0 197 86t89 206q0 87 -55 141q-54 55 -138 55zM370 535q98 0 159 -64q62 -65 62 -160q0 -129 -97 -226q-96 -96 -221 -96q-96 0 -158 62q-61 61 -61 155q0 134 96 232q96 97 220 97z
M432 777l30 -16l-96 -155l-21 11z" />
    <glyph glyph-name="upsilontonos" unicode="&#x3cd;" horiz-adv-x="599" 
d="M491 522q49 -74 49 -172q0 -143 -91 -252q-90 -109 -198 -109q-41 0 -74 11.5t-56 33.5t-36 52.5t-13 68.5q0 27 6 57l67 310h29l-65 -307q-7 -31 -7 -55q0 -69 41 -105.5t110 -36.5q92 0 175 99q82 100 82 232q0 102 -56 173h37zM410 777l30 -16l-96 -155l-21 11z" />
    <glyph glyph-name="omegatonos" unicode="&#x3ce;" horiz-adv-x="903" 
d="M816 349q0 102 -57 173h36q51 -78 51 -172q0 -143 -93 -252q-91 -109 -200 -109q-119 0 -132 108q-59 -108 -180 -108q-80 0 -126 58t-46 152q0 43 11 87t31 86t48.5 80t64.5 70h39q-69 -56 -117 -144q-47 -89 -47 -174q0 -84 39.5 -135t106.5 -51q75 0 119 47.5
t65 149.5l40 186h29l-40 -186q-5 -23 -7.5 -44.5t-2.5 -41.5q0 -57 26 -84t83 -27q93 0 176 99q83 101 83 232zM573 777l30 -16l-96 -155l-21 11z" />
    <glyph glyph-name="uni0400" unicode="&#x400;" horiz-adv-x="534" 
d="M45 0l151 712h364l-6 -29h-335l-62 -291h325l-6 -29h-325l-71 -334h335l-6 -29h-364zM501 825l-15 -20l-152 104l25 29z" />
    <glyph glyph-name="afii10023" unicode="&#x401;" horiz-adv-x="534" 
d="M45 0l151 712h364l-6 -29h-335l-62 -291h325l-6 -29h-325l-71 -334h335l-6 -29h-364zM302 869q0 14 9.5 24.5t23.5 10.5q12 0 20 -8t8 -20q0 -13 -10.5 -22.5t-23.5 -9.5q-11 0 -19 7t-8 18zM472 869q0 14 9.5 24.5t23.5 10.5q12 0 20 -8t8 -20q0 -13 -10.5 -22.5
t-23.5 -9.5q-11 0 -19 7t-8 18z" />
    <glyph glyph-name="afii10051" unicode="&#x402;" horiz-adv-x="727" 
d="M530 457q72 0 112.5 -41.5t40.5 -110.5q0 -118 -92 -215q-92 -95 -215 -95l7 29q103 0 186 84q84 85 84 197q0 63 -35 93t-95 30q-118 0 -239 -37l-83 -391h-29l145 683h-195l6 29h417l-6 -29h-193l-56 -260q132 34 240 34z" />
    <glyph glyph-name="afii10052" unicode="&#x403;" horiz-adv-x="422" 
d="M221 683l-145 -683h-29l151 712h298l-6 -29h-269zM298 805l-11 20l168 113l19 -30z" />
    <glyph glyph-name="afii10053" unicode="&#x404;" horiz-adv-x="629" 
d="M499 695q-139 0 -249 -94q-111 -96 -142 -230h400l-6 -29h-399q-2 -17 -3.5 -31t-1.5 -27q0 -117 73 -191q73 -75 196 -75q78 0 167 24l-6 -32q-92 -21 -163 -21q-133 0 -215 81q-82 82 -82 212q0 119 62 223q62 102 163 161q100 58 209 58q94 0 173 -22l-7 -30
q-71 23 -169 23z" />
    <glyph glyph-name="afii10054" unicode="&#x405;" horiz-adv-x="502" 
d="M349 695q-68 0 -130 -47q-61 -46 -61 -117q0 -37 28 -67t68 -53l60.5 -34t57.5 -40t42.5 -49.5t16.5 -62.5q0 -98 -76 -167q-77 -69 -173 -69q-93 0 -148 54l6 35q60 -60 144 -60q80 0 148 58q69 58 69 142q0 42 -27.5 74t-69.5 55q-29 18 -60.5 35.5t-57 38t-42 45.5
t-16.5 58q0 90 67 145t154 55q85 0 146 -50l-6 -33q-59 54 -140 54z" />
    <glyph glyph-name="afii10055" unicode="&#x406;" horiz-adv-x="223" 
d="M225 712l-151 -712h-29l151 712h29z" />
    <glyph glyph-name="afii10056" unicode="&#x407;" horiz-adv-x="223" 
d="M225 712l-151 -712h-29l151 712h29zM129 869q0 14 9.5 24.5t23.5 10.5q12 0 20 -8t8 -20q0 -13 -10.5 -22.5t-23.5 -9.5q-11 0 -19 7t-8 18zM299 869q0 14 9.5 24.5t23.5 10.5q12 0 20 -8t8 -20q0 -13 -10.5 -22.5t-23.5 -9.5q-11 0 -19 7t-8 18z" />
    <glyph glyph-name="afii10057" unicode="&#x408;" horiz-adv-x="412" 
d="M387 712h29l-113 -532q-20 -87 -76 -139q-55 -52 -129 -52q-59 0 -97 32l8 32q41 -35 93 -35q56 0 106 46q51 47 66 115z" />
    <glyph glyph-name="afii10058" unicode="&#x409;" horiz-adv-x="999" 
d="M763 392q79 0 129 -40t50 -112q0 -110 -80 -175t-182 -65h-207l145 683h-342l-106 -497q-20 -88 -77 -139q-56 -52 -130 -52l7 29q30 0 57.5 11t50 32t39 50.5t24.5 67.5l112 527h400l-68 -320h178zM682 29q91 0 161 56q69 57 69 155q0 61 -43.5 92t-115.5 31h-174
l-71 -334h174z" />
    <glyph glyph-name="afii10059" unicode="&#x40a;" horiz-adv-x="1033" 
d="M797 392q79 0 129 -40t50 -112q0 -110 -80 -175t-182 -65h-207l77 363h-431l-77 -363h-29l151 712h29l-68 -320h431l68 320h29l-68 -320h178zM716 29q91 0 161 56q69 55 69 154q0 61 -43.5 92.5t-115.5 31.5h-174l-71 -334h174z" />
    <glyph glyph-name="afii10060" unicode="&#x40b;" horiz-adv-x="755" 
d="M530 457q72 0 112.5 -41t40.5 -110q0 -25 -6 -53l-53 -253h-29l53 250q6 27 6 52q0 63 -35.5 94.5t-95.5 31.5q-118 0 -239 -37l-83 -391h-29l145 683h-195l6 29h417l-6 -29h-193l-56 -260q130 34 240 34z" />
    <glyph glyph-name="afii10061" unicode="&#x40c;" horiz-adv-x="592" 
d="M263 364q37 -5 67 -15t52 -21q23 -11 40.5 -31.5t28.5 -35.5q6 -8 11 -19.5t9.5 -25t7.5 -26l5 -21.5q5 -19 8 -54q2 -19 3 -32.5t2 -22.5l3 -60h-30q-1 25 -1.5 45t-2.5 36q-2 33 -8.5 72.5t-18.5 64.5q-11 25 -30.5 50.5t-47.5 39.5q-28 15 -68 24t-92 9h-53l-72 -341
h-29l151 712h29l-73 -342h74l382 342h41zM329 805l-11 20l168 113l19 -30z" />
    <glyph glyph-name="uni040D" unicode="&#x40d;" horiz-adv-x="726" 
d="M47 0l151 712h29l-110 -515l-19.5 -89.5t-10.5 -44.5h4q6 8 27 31l56 61l528 557h28l-151 -712h-29l114 541l18 79t11 45l-3 1l-29 -31.5l-28.5 -31l-24 -26t-15.5 -17.5l-529 -560h-17zM575 825l-15 -20l-152 104l25 29z" />
    <glyph glyph-name="afii10062" unicode="&#x40e;" horiz-adv-x="560" 
d="M615 712l-532 -712h-35l221 298l-160 414h31l113 -283q13 -32 22 -57l15 -42h4l31.5 45.5t39.5 52.5l214 284h36zM543 911q-50 -89 -147 -89q-100 0 -130 88l24 9q22 -70 107 -70q86 0 123 70z" />
    <glyph glyph-name="afii10145" unicode="&#x40f;" horiz-adv-x="683" 
d="M47 0l151 712h29l-145 -683h431l145 683h29l-151 -712h-230l-38 -176h-29l38 176h-230z" />
    <glyph glyph-name="afii10017" unicode="&#x410;" horiz-adv-x="696" 
d="M455 712l164 -712h-32l-39 179h-420l-115 -179h-36l466 712h12zM542 208l-75 327q-8 34 -14 64.5t-11 59.5h-4l-26.5 -42l-52.5 -82l-213 -327h396z" />
    <glyph glyph-name="afii10018" unicode="&#x411;" horiz-adv-x="557" 
d="M555 683h-350l-62 -291h178q79 0 129 -40t50 -112q0 -110 -80 -175t-182 -65h-207l151 712h379zM240 29q91 0 161 56q69 55 69 154q0 61 -43.5 92.5t-115.5 31.5h-174l-71 -334h174z" />
    <glyph glyph-name="afii10019" unicode="&#x412;" horiz-adv-x="582" 
d="M219 683l-66 -307h168q80 0 141 49t61 136q0 61 -40 91.5t-112 30.5h-152zM147 347l-67 -318h177q90 0 158 52q69 52 69 146q0 57 -43 88.5t-118 31.5h-176zM409 362q105 -32 105 -131q0 -109 -78 -170q-76 -61 -179 -61h-212l151 712h177q88 0 134 -41t46 -104
q0 -36 -10.5 -68.5t-30 -59t-46 -46t-57.5 -31.5z" />
    <glyph glyph-name="afii10020" unicode="&#x413;" horiz-adv-x="422" 
d="M221 683l-145 -683h-29l151 712h298l-6 -29h-269z" />
    <glyph glyph-name="afii10021" unicode="&#x414;" horiz-adv-x="732" 
d="M15 29h56q18 20 43 62.5t54 109.5t60.5 159.5t63.5 211.5l37 140h366l-145 -683h59l-38 -176h-29l31 147h-536l-31 -147h-28zM349 683l-28 -111q-30 -119 -62 -213.5t-62 -163t-54.5 -110.5t-37.5 -56h416l139 654h-311z" />
    <glyph glyph-name="afii10022" unicode="&#x415;" horiz-adv-x="534" 
d="M45 0l151 712h364l-6 -29h-335l-62 -291h325l-6 -29h-325l-71 -334h335l-6 -29h-364z" />
    <glyph glyph-name="afii10024" unicode="&#x416;" horiz-adv-x="876" 
d="M409 290q5 18 9 36.5t8 32.5h-23q-8 -8 -23.5 -21.5l-39.5 -33.5l-355 -304h-43l440 376l-281 336h36l228 -271q15 -18 25.5 -32.5t15.5 -22.5h26q2 14 5.5 33t7.5 38l54 255h29l-54 -255q-4 -19 -8.5 -38t-8.5 -33h22q8 8 24.5 22.5t40.5 32.5l338 271h43l-425 -341
l283 -371h-37l-231 304l-24.5 33.5t-14.5 21.5h-25q-2 -14 -5 -32.5t-8 -36.5l-61 -290h-29z" />
    <glyph glyph-name="afii10025" unicode="&#x417;" horiz-adv-x="531" 
d="M183 369l5 26h78q84 0 140 52q57 52 57 122q0 27 -10.5 50.5t-29 40t-44 26t-55.5 9.5q-80 0 -162 -64l8 40q74 53 156 53q73 0 120 -42t47 -108q0 -30 -10 -59t-29 -54.5t-47 -46.5t-64 -34q51 -18 77.5 -57.5t26.5 -87.5q0 -100 -85 -173t-188 -73q-88 0 -144 49l7 33
q53 -53 140 -53q89 0 165 65q75 66 75 151q0 56 -45 95q-43 40 -111 40h-78z" />
    <glyph glyph-name="afii10026" unicode="&#x418;" horiz-adv-x="726" 
d="M47 0l151 712h29l-110 -515l-19.5 -89.5t-10.5 -44.5h4q6 8 27 31l56 61l528 557h28l-151 -712h-29l114 541l18 79t11 45l-3 1l-29 -31.5l-28.5 -31l-24 -26t-15.5 -17.5l-529 -560h-17z" />
    <glyph glyph-name="afii10027" unicode="&#x419;" horiz-adv-x="726" 
d="M47 0l151 712h29l-110 -515l-19.5 -89.5t-10.5 -44.5h4q6 8 27 31l56 61l528 557h28l-151 -712h-29l114 541l18 79t11 45l-3 1l-29 -31.5l-28.5 -31l-24 -26t-15.5 -17.5l-529 -560h-17zM632 911q-50 -89 -147 -89q-100 0 -130 88l24 9q22 -70 107 -70q86 0 123 70z" />
    <glyph glyph-name="afii10028" unicode="&#x41a;" horiz-adv-x="542" 
d="M168 306l-25 31.5t-14 19.5h-5q-2 -14 -5 -31.5t-8 -35.5l-61 -290h-29l151 712h29l-54 -255l-8 -36.5t-8 -31.5h5q16 16 64 52l347 271h44l-438 -342l296 -370h-38z" />
    <glyph glyph-name="afii10029" unicode="&#x41b;" horiz-adv-x="649" 
d="M253 712h400l-151 -712h-29l145 683h-342l-106 -497q-20 -88 -77 -139q-56 -52 -130 -52l7 29q30 0 57.5 11t50 32t39 50.5t24.5 67.5z" />
    <glyph glyph-name="afii10030" unicode="&#x41c;" horiz-adv-x="817" 
d="M640 0l118 557l12.5 55t9.5 37h-5l-64 -54l-276 -227l-179 227l-42 54h-4l-18 -92l-118 -557h-29l151 712h5l239 -303l367 303h13l-151 -712h-29z" />
    <glyph glyph-name="afii10031" unicode="&#x41d;" horiz-adv-x="683" 
d="M588 391l68 321h29l-151 -712h-29l76 362h-431l-76 -362h-29l151 712h29l-68 -321h431z" />
    <glyph glyph-name="afii10032" unicode="&#x41e;" horiz-adv-x="822" 
d="M503 724q130 0 213 -86q84 -86 84 -214q0 -116 -63 -218q-62 -101 -162 -159t-208 -58q-131 0 -213 84q-83 85 -83 212q0 43 9.5 86t27 83t42 75.5t54.5 64.5q60 60 138.5 95t160.5 35zM370 18q99 0 191 54q93 56 151 149q58 94 58 202q0 119 -75 196q-75 76 -195 76
q-75 0 -148 -33.5t-128 -88.5t-89 -130.5t-34 -156.5q0 -118 75 -193t194 -75z" />
    <glyph glyph-name="afii10033" unicode="&#x41f;" horiz-adv-x="683" 
d="M198 712h489l-151 -712h-29l145 683h-431l-145 -683h-29z" />
    <glyph glyph-name="afii10034" unicode="&#x420;" horiz-adv-x="563" 
d="M372 712q50 0 88.5 -12.5t65 -35.5t40.5 -54.5t14 -68.5q0 -109 -82 -185q-83 -77 -212 -77h-153l-59 -279h-29l151 712h176zM288 308q112 0 186 64q76 64 76 166q0 67 -47.5 106t-134.5 39h-149l-80 -375h149z" />
    <glyph glyph-name="afii10035" unicode="&#x421;" horiz-adv-x="646" 
d="M500 695q-107 0 -199 -58t-148 -153q-54 -95 -54 -200q0 -115 74 -191q75 -75 197 -75q90 0 179 48l-8 -35q-90 -42 -174 -42q-129 0 -214 81q-84 82 -84 204q0 94 36 177t96 143t138.5 95t163.5 35q90 0 162 -42l-7 -34q-67 47 -158 47z" />
    <glyph glyph-name="afii10036" unicode="&#x422;" horiz-adv-x="471" 
d="M346 683l-145 -683h-29l145 683h-195l6 29h417l-6 -29h-193z" />
    <glyph glyph-name="afii10037" unicode="&#x423;" horiz-adv-x="549" 
d="M560 712h37l-502 -712h-37l193 275l-149 437h33l129 -376q3 -8 4.5 -16.5t1.5 -11.5h7l18 28z" />
    <glyph glyph-name="afii10038" unicode="&#x424;" horiz-adv-x="823" 
d="M517 668q124 0 204 -68q81 -68 81 -180q0 -81 -36 -152.5t-96 -120.5q-60 -48 -133.5 -75.5t-151.5 -27.5l-16 -73h-29l16 73q-125 0 -205 68q-80 69 -80 180q0 107 62 196q31 44 71.5 77.5t86 56.5t96 34.5t101.5 11.5l16 72h29zM482 639q-70 0 -138 -24.5t-122 -70
t-87.5 -109.5t-33.5 -142q0 -101 73 -161q74 -59 188 -59zM391 73q94 0 180 42q87 42 144 123t57 181q0 103 -73 161q-74 59 -188 59z" />
    <glyph glyph-name="afii10039" unicode="&#x425;" horiz-adv-x="564" 
d="M328 373l159 -373h-30l-124 284q-16 33 -23 62h-5l-51 -62l-241 -284h-38l318 375l-142 337h31l100 -235l13.5 -35t15.5 -45h5l64 80l198 235h39z" />
    <glyph glyph-name="afii10040" unicode="&#x426;" horiz-adv-x="714" 
d="M36 0l152 712h29l-145 -683h431l145 683h29l-145 -683h59l-38 -176h-29l31 147h-519z" />
    <glyph glyph-name="afii10041" unicode="&#x427;" horiz-adv-x="630" 
d="M473 0l61 289q-140 -34 -241 -34q-43 0 -75 15t-50.5 42t-24 64.5t3.5 82.5l54 253h29l-53 -250q-9 -43 -4 -76.5t22 -56t44.5 -34t63.5 -11.5q109 0 238 37l83 391h29l-151 -712h-29z" />
    <glyph glyph-name="afii10042" unicode="&#x428;" horiz-adv-x="926" 
d="M21 0l151 712h29l-145 -683h323l145 683h29l-145 -683h322l145 683h29l-151 -712h-732z" />
    <glyph glyph-name="afii10043" unicode="&#x429;" horiz-adv-x="957" 
d="M36 0l152 712h29l-145 -683h323l145 683h29l-145 -683h322l145 683h29l-145 -683h59l-38 -176h-29l31 147h-762z" />
    <glyph glyph-name="afii10044" unicode="&#x42a;" horiz-adv-x="683" 
d="M447 392q79 0 129 -40t50 -112q0 -110 -80 -175t-182 -65h-207l145 683h-180l6 29h209l-68 -320h178zM366 29q91 0 161 56q69 55 69 154q0 61 -43.5 92.5t-115.5 31.5h-174l-71 -334h174z" />
    <glyph glyph-name="afii10045" unicode="&#x42b;" horiz-adv-x="760" 
d="M337 392q79 0 129 -40t50 -112q0 -110 -80 -175t-182 -65h-207l151 712h29l-68 -320h178zM256 29q91 0 161 56q69 55 69 154q0 61 -43.5 92.5t-115.5 31.5h-174l-71 -334h174zM762 712l-151 -712h-29l151 712h29z" />
    <glyph glyph-name="afii10046" unicode="&#x42c;" horiz-adv-x="557" 
d="M321 392q79 0 129 -40t50 -112q0 -110 -80 -175t-182 -65h-207l151 712h29l-68 -320h178zM240 29q91 0 161 56q69 55 69 154q0 61 -43.5 92.5t-115.5 31.5h-174l-71 -334h174z" />
    <glyph glyph-name="afii10047" unicode="&#x42d;" horiz-adv-x="630" 
d="M181 18q139 0 248 94q112 95 143 230h-400l6 29h399q2 17 3.5 31t1.5 27q0 117 -73 191q-74 75 -196 75q-79 0 -167 -24l6 32q91 21 163 21q132 0 214 -82q83 -81 83 -211q0 -120 -63 -223q-61 -102 -162 -161q-100 -58 -209 -58q-94 0 -173 22l7 30q71 -23 169 -23z" />
    <glyph glyph-name="afii10048" unicode="&#x42e;" horiz-adv-x="1045" 
d="M727 724q130 0 213 -86q84 -86 84 -214q0 -116 -63 -218q-62 -101 -162 -159t-208 -58q-131 0 -213 84q-83 85 -83 212q0 33 4 56h-151l-72 -341h-29l151 712h29l-73 -342h150q32 150 154 251q122 103 269 103zM594 18q99 0 191 54q93 56 151 149q58 94 58 202
q0 119 -75 196q-75 76 -195 76q-75 0 -148 -33.5t-128 -88.5t-89 -130.5t-34 -156.5q0 -118 75 -193t194 -75z" />
    <glyph glyph-name="afii10049" unicode="&#x42f;" horiz-adv-x="556" 
d="M560 712l-151 -712h-29l66 315h-129l-292 -315h-39l292 315q-85 5 -128.5 47.5t-43.5 108.5q0 99 76 169q76 72 199 72h179zM453 344l72 339h-148q-101 0 -172 -59q-69 -59 -69 -153q0 -60 44 -93.5t125 -33.5h148z" />
    <glyph glyph-name="afii10065" unicode="&#x430;" horiz-adv-x="667" 
d="M269 18q90 0 175 65q84 64 102 145l28 131q-15 56 -66 101q-49 46 -132 46q-117 0 -205 -90q-88 -89 -88 -214q0 -41 13 -75t37 -58t58.5 -37.5t77.5 -13.5zM608 522h30l-111 -522h-23l20 129q-44 -65 -116 -102q-74 -38 -146 -38q-99 0 -154 60q-55 61 -55 151
q0 130 96 232q97 103 228 103q39 0 71.5 -10t58.5 -27t45.5 -39.5t31.5 -48.5z" />
    <glyph glyph-name="afii10066" unicode="&#x431;" horiz-adv-x="647" 
d="M248 18q58 0 111 25t93.5 66.5t65 96t24.5 113.5q0 85 -49.5 136.5t-140.5 51.5q-56 0 -109 -25.5t-93.5 -67.5t-65 -96.5t-24.5 -113.5q0 -85 49.5 -135.5t138.5 -50.5zM88 371q22 42 52.5 73t66 51.5t74.5 30t77 9.5q46 0 85.5 -14.5t68 -41.5t44.5 -66t16 -87
q0 -64 -25.5 -124.5t-69.5 -108t-104.5 -76t-130.5 -28.5q-48 0 -86.5 14t-66 41t-42.5 65.5t-15 87.5q0 46 8 98t24.5 104t42 102t59.5 93t77 75.5t96 50.5q48 16 86.5 18.5t70 4t58.5 7t52 26.5l12 -26q-25 -21 -55.5 -27.5t-65.5 -8t-73 -4.5t-77 -16
q-43 -15 -78.5 -39.5t-64 -56t-50.5 -69.5t-39 -78l-17 -42.5t-14 -37.5h4z" />
    <glyph glyph-name="afii10067" unicode="&#x432;" horiz-adv-x="506" 
d="M167 493l-44 -213h162q28 0 53.5 8.5t45 24.5t30.5 40t11 56q0 40 -29 62t-77 22h-152zM116 251l-46 -222h165q63 0 112 35q48 36 48 104q0 42 -29.5 62.5t-81.5 20.5h-168zM145 522h173q66 0 101.5 -30.5t35.5 -78.5q0 -51 -26 -89t-68 -56q64 -27 64 -96
q0 -81 -57 -127q-56 -45 -132 -45h-202z" />
    <glyph glyph-name="afii10068" unicode="&#x433;" horiz-adv-x="360" 
d="M167 493l-103 -493h-30l110 522h257l-7 -29h-227z" />
    <glyph glyph-name="afii10069" unicode="&#x434;" horiz-adv-x="581" 
d="M18 29h54q13 13 31.5 50.5t37.5 87t37 106.5t32 110l37 139h294l-105 -493h51l-30 -142h-29l24 113h-411l-24 -113h-28zM233 361l-29.5 -98.5t-31.5 -94t-32.5 -81t-33.5 -58.5h301l99 464h-239z" />
    <glyph glyph-name="afii10070" unicode="&#x435;" horiz-adv-x="568" 
d="M435 41q-82 -52 -174 -52q-90 0 -148 63q-58 62 -58 157q0 124 84 225q86 101 209 101q39 0 72 -11.5t57 -34t37 -54.5t13 -72q0 -51 -10 -91h-427q-2 -17 -3.5 -31.5t-1.5 -28.5q0 -85 49 -140q49 -54 131 -54q90 0 177 60zM491 301q6 33 6 59q0 70 -42.5 108t-108.5 38
q-85 0 -150 -55.5t-98 -149.5h393z" />
    <glyph glyph-name="afii10072" unicode="&#x436;" horiz-adv-x="707" 
d="M328 213q3 14 6 26t6 22h-18q-7 -5 -15 -13.5t-26 -24.5l-259 -223h-42l328 284l1 -17l-213 255h38l165 -199q11 -14 17 -23t11 -15h18q3 23 9 50l40 187h29l-40 -187l-5.5 -26.5t-5.5 -23.5h18l15.5 15t26.5 23l247 199h42l-319 -258v19l214 -283h-38l-165 221
q-11 14 -17.5 24.5t-10.5 15.5h-18l-4.5 -22l-5.5 -26l-45 -213h-29z" />
    <glyph glyph-name="afii10073" unicode="&#x437;" horiz-adv-x="452" 
d="M127 294h94q65 0 112 36q47 38 47 84q0 40 -34.5 65.5t-88.5 25.5q-76 0 -154 -32l7 33q78 29 151 29q33 0 60.5 -9t47.5 -24.5t31 -37.5t11 -47q0 -42 -29 -80.5t-83 -58.5q42 -16 63 -46.5t21 -66.5q0 -74 -69 -125q-68 -51 -159 -51q-94 0 -154 26l6 31q11 -5 28 -10
t40 -10q23 -4 44.5 -6t40.5 -2q75 0 133 43q59 44 59 103q0 42 -39 72t-98 30h-94z" />
    <glyph glyph-name="afii10074" unicode="&#x438;" horiz-adv-x="567" 
d="M34 0l111 522h29l-83 -392l-17 -69h4l18.5 21.5l28.5 32.5l381 407h31l-111 -522h-29l84 397q2 13 9 40l9 35h-4l-25.5 -28l-33.5 -36l-378 -408h-24z" />
    <glyph glyph-name="afii10075" unicode="&#x439;" horiz-adv-x="567" 
d="M34 0l111 522h29l-83 -392l-17 -69h4l18.5 21.5l28.5 32.5l381 407h31l-111 -522h-29l84 397q2 13 9 40l9 35h-4l-25.5 -28l-33.5 -36l-378 -408h-24zM507 722q-50 -89 -147 -89q-100 0 -130 88l24 9q22 -70 107 -70q86 0 123 70z" />
    <glyph glyph-name="afii10076" unicode="&#x43a;" horiz-adv-x="456" 
d="M148 223q-12 15 -18.5 24t-10.5 14h-3l-4.5 -22l-5.5 -26l-45 -213h-29l111 522h29l-40 -187l-5.5 -26.5t-5.5 -23.5h3q6 6 18 15t29 23l254 199h45l-329 -258l-2 17l226 -281h-39z" />
    <glyph glyph-name="afii10077" unicode="&#x43b;" horiz-adv-x="509" 
d="M172 522h308l-112 -522h-29l103 493h-248l-74 -355q-13 -61 -55.5 -100t-103.5 -41l7 28q43 2 76.5 31.5t44.5 80.5z" />
    <glyph glyph-name="afii10078" unicode="&#x43c;" horiz-adv-x="633" 
d="M318 263l-154 200l-100 -463h-31l112 522h10l169 -217l264 217h16l-112 -522h-29l98 462z" />
    <glyph glyph-name="afii10079" unicode="&#x43d;" horiz-adv-x="536" 
d="M427 291l50 231h30l-112 -522h-29l55 261h-302l-55 -261h-30l111 522h29l-49 -231h302z" />
    <glyph glyph-name="afii10080" unicode="&#x43e;" horiz-adv-x="642" 
d="M368 506q-114 0 -199 -90q-85 -89 -85 -206q0 -86 52 -139q53 -53 139 -53q108 0 197 86t89 206q0 87 -55 141q-54 55 -138 55zM370 535q98 0 159 -64q62 -65 62 -160q0 -129 -97 -226q-96 -96 -221 -96q-96 0 -158 62q-61 61 -61 155q0 134 96 232q96 97 220 97z" />
    <glyph glyph-name="afii10081" unicode="&#x43f;" horiz-adv-x="534" 
d="M145 522h360l-112 -522h-29l103 493h-298l-104 -493h-31z" />
    <glyph glyph-name="afii10082" unicode="&#x440;" horiz-adv-x="667" 
d="M401 506q-93 0 -176 -65q-82 -64 -99 -146l-28 -131q13 -53 64 -101q51 -45 132 -45q116 0 205 89q89 91 89 213q0 84 -49.5 135t-137.5 51zM-12 -216l157 738h23l-24 -129q46 66 117 103q73 39 146 39q99 0 154 -61q57 -62 57 -152q0 -131 -97 -232q-96 -101 -227 -101
q-76 0 -129 36t-78 87l-69 -328h-30z" />
    <glyph glyph-name="afii10083" unicode="&#x441;" horiz-adv-x="495" 
d="M362 506q-108 0 -193 -87q-86 -86 -86 -214q0 -42 13.5 -76.5t38.5 -59t59 -38t75 -13.5q70 0 141 46l-5 -38q-67 -37 -140 -37q-92 0 -153 59q-59 61 -59 154q0 140 95 237q94 96 218 96q75 0 128 -38l-6 -32q-53 41 -126 41z" />
    <glyph glyph-name="afii10084" unicode="&#x442;" horiz-adv-x="343" 
d="M238 493l-104 -493h-30l104 493h-141l7 29h310l-7 -29h-139z" />
    <glyph glyph-name="afii10085" unicode="&#x443;" horiz-adv-x="541" 
d="M535 522h34l-503 -738h-32l175 257l-122 481h30l89 -345q7 -27 12.5 -52.5l10.5 -49.5h5q13 24 65 100z" />
    <glyph glyph-name="afii10086" unicode="&#x444;" horiz-adv-x="726" 
d="M486 764l-48 -231q106 0 173 -61t67 -157q1 -67 -30 -126.5t-81.5 -104.5t-115 -70.5t-128.5 -23.5l-46 -206h-29l45 206q-106 0 -173 61q-68 62 -68 157q0 135 109 229q109 96 248 96l48 231h29zM402 503q-124 0 -221 -87q-97 -85 -97 -206q0 -85 59 -138
q58 -52 156 -52zM329 20q125 0 221 87q96 88 96 208q0 85 -59 136q-58 52 -156 52z" />
    <glyph glyph-name="afii10087" unicode="&#x445;" horiz-adv-x="486" 
d="M498 522l-232 -248l144 -274h-33l-98 186l-33 66h-5l-61 -68l-174 -184h-40l263 277l-125 245h34l77 -150l22.5 -47l12.5 -26h5q14 19 29 36l29 33l146 154h39z" />
    <glyph glyph-name="afii10088" unicode="&#x446;" horiz-adv-x="552" 
d="M42 0l111 522h29l-105 -493h301l105 493h29l-105 -493h51l-30 -142h-29l24 113h-381z" />
    <glyph glyph-name="afii10089" unicode="&#x447;" horiz-adv-x="485" 
d="M315 0l43 205q-92 -21 -165 -21q-54 0 -85 29.5t-31 80.5q0 8 1.5 17.5l3.5 22.5l41 188h29l-40 -186q-4 -15 -4 -35q0 -45 23 -66.5t65 -21.5q85 0 170 25l60 284h29l-111 -522h-29z" />
    <glyph glyph-name="afii10090" unicode="&#x448;" horiz-adv-x="706" 
d="M30 0l111 522h29l-105 -493h224l105 493h29l-105 -493h223l105 493h29l-111 -522h-534z" />
    <glyph glyph-name="afii10091" unicode="&#x449;" horiz-adv-x="727" 
d="M42 0l111 522h29l-105 -493h224l105 493h29l-105 -493h223l105 493h29l-105 -493h51l-30 -142h-29l24 113h-556z" />
    <glyph glyph-name="afii10092" unicode="&#x44a;" horiz-adv-x="504" 
d="M309 290q60 0 97 -31t37 -86q0 -80 -57 -126q-58 -47 -131 -47h-156l103 493h-140l7 29h170l-50 -232h120zM256 29q63 0 110 38t47 105q0 43 -29 66t-80 23h-121l-48 -232h121z" />
    <glyph glyph-name="afii10093" unicode="&#x44b;" horiz-adv-x="626" 
d="M244 290q60 0 97.5 -31t37.5 -86q0 -80 -57 -126q-58 -47 -133 -47h-155l111 522h29l-49 -232h119zM190 29q64 0 111 38q48 37 48 105q0 43 -30 66t-79 23h-122l-48 -232h120zM484 0h-29l111 522h29z" />
    <glyph glyph-name="afii10094" unicode="&#x44c;" horiz-adv-x="445" 
d="M244 290q60 0 97.5 -31t37.5 -86q0 -80 -57 -126q-58 -47 -133 -47h-155l111 522h29l-49 -232h119zM190 29q64 0 111 38q48 37 48 105q0 43 -30 66t-79 23h-122l-48 -232h120z" />
    <glyph glyph-name="afii10095" unicode="&#x44d;" horiz-adv-x="520" 
d="M123 248l6 29h318q3 21 3 41q0 83 -49 135q-50 53 -134 53q-83 0 -170 -40l7 34q84 35 165 35q94 0 152 -61q59 -61 59 -156q0 -135 -94 -232q-93 -97 -214 -97q-98 0 -169 38l7 30q67 -39 161 -39t171 66q76 65 100 164h-319z" />
    <glyph glyph-name="afii10096" unicode="&#x44e;" horiz-adv-x="848" 
d="M577 535q98 0 159 -64t61 -160q0 -129 -96 -226q-96 -96 -222 -96q-96 0 -158 62q-61 61 -61 156q0 13 0.5 22t1.5 15h-147l-52 -244h-30l112 522h29l-52 -249h145q24 113 113 187q88 75 197 75zM574 506q-114 0 -199 -90q-85 -88 -85 -206q0 -83 53 -138q52 -54 138 -54
q109 0 198 86q88 85 88 206q0 87 -55 141q-54 55 -138 55z" />
    <glyph glyph-name="afii10097" unicode="&#x44f;" horiz-adv-x="468" 
d="M438 522l-110 -522h-31l48 228h-118l-216 -228h-37l214 228q-60 6 -91.5 38t-31.5 80q0 72 55 124t146 52h172zM353 257l48 236h-137q-72 0 -121 -39q-48 -39 -48 -104q0 -43 31 -68t88 -25h139z" />
    <glyph glyph-name="uni0450" unicode="&#x450;" horiz-adv-x="568" 
d="M435 41q-82 -52 -174 -52q-90 0 -148 63q-58 62 -58 157q0 124 84 225q86 101 209 101q39 0 72 -11.5t57 -34t37 -54.5t13 -72q0 -51 -10 -91h-427q-2 -17 -3.5 -31.5t-1.5 -28.5q0 -85 49 -140q49 -54 131 -54q90 0 177 60zM491 301q6 33 6 59q0 70 -42.5 108t-108.5 38
q-85 0 -150 -55.5t-98 -149.5h393zM470 636l-15 -20l-152 104l25 29z" />
    <glyph glyph-name="afii10071" unicode="&#x451;" horiz-adv-x="568" 
d="M435 41q-82 -52 -174 -52q-90 0 -148 63q-58 62 -58 157q0 124 84 225q86 101 209 101q39 0 72 -11.5t57 -34t37 -54.5t13 -72q0 -51 -10 -91h-427q-2 -17 -3.5 -31.5t-1.5 -28.5q0 -85 49 -140q49 -54 131 -54q90 0 177 60zM491 301q6 33 6 59q0 70 -42.5 108t-108.5 38
q-85 0 -150 -55.5t-98 -149.5h393zM270 680q0 14 9.5 24.5t23.5 10.5q12 0 20 -8t8 -20q0 -13 -10.5 -22.5t-23.5 -9.5q-11 0 -19 7t-8 18zM440 680q0 14 9.5 24.5t23.5 10.5q12 0 20 -8t8 -20q0 -13 -10.5 -22.5t-23.5 -9.5q-11 0 -19 7t-8 18z" />
    <glyph glyph-name="afii10099" unicode="&#x452;" horiz-adv-x="609" 
d="M271 -196q59 0 101 42t54 99l78 367q6 30 6 55q0 69 -38.5 104t-104.5 35q-76 0 -141 -50q-64 -49 -87 -98l-76 -358h-29l136 644h-76l6 30h77l19 90h29l-19 -90h201l-6 -30h-202l-46 -219q40 45 97.5 77.5t121.5 32.5q78 0 123.5 -44.5t45.5 -119.5q0 -25 -7 -56
l-78 -365q-8 -38 -24.5 -70t-41 -55.5t-56 -36.5t-69.5 -13z" />
    <glyph glyph-name="afii10100" unicode="&#x453;" horiz-adv-x="360" 
d="M167 493l-103 -493h-30l110 522h257l-7 -29h-227zM228 616l-11 20l168 113l19 -30z" />
    <glyph glyph-name="afii10101" unicode="&#x454;" horiz-adv-x="519" 
d="M407 276l-6 -29h-318q-3 -21 -3 -41q0 -84 49 -136t134 -52q83 0 170 40l-7 -34q-84 -35 -165 -35q-95 0 -153 60q-58 61 -58 157q0 134 93 232q94 97 215 97q98 0 169 -38l-7 -30q-68 39 -161 39q-95 0 -171 -66q-76 -65 -100 -164h319z" />
    <glyph glyph-name="afii10102" unicode="&#x455;" horiz-adv-x="430" 
d="M267 506q-49 0 -96 -31q-47 -32 -47 -81q0 -24 16 -44t40 -38t52 -36t52 -38t40 -44t16 -54q0 -64 -56 -108q-55 -43 -129 -43q-79 0 -129 35l7 32q49 -38 123 -38q60 0 106 31q48 31 48 88q0 26 -16 47t-40 39.5t-52 36.5t-52 37.5t-40 42t-16 50.5q0 63 52 103
q52 42 123 42q75 0 124 -41l-7 -31q-50 43 -119 43z" />
    <glyph glyph-name="afii10103" unicode="&#x456;" horiz-adv-x="206" 
d="M156 647q0 14 10 25t24 11q12 0 20.5 -8t8.5 -21t-10.5 -23.5t-24.5 -10.5q-12 0 -20 8t-8 19zM63 0h-29l111 522h29z" />
    <glyph glyph-name="afii10104" unicode="&#x457;" horiz-adv-x="206" 
d="M79 680q0 14 9.5 24.5t23.5 10.5q12 0 20 -8t8 -20q0 -13 -10.5 -22.5t-23.5 -9.5q-11 0 -19 7t-8 18zM249 680q0 14 9.5 24.5t23.5 10.5q12 0 20 -8t8 -20q0 -13 -10.5 -22.5t-23.5 -9.5q-11 0 -19 7t-8 18zM63 0h-29l111 522h29z" />
    <glyph glyph-name="afii10105" unicode="&#x458;" horiz-adv-x="206" 
d="M-160 -195q5 -1 11.5 -1h15.5q59 0 101 42t54 99l123 577h29l-122 -572q-8 -38 -24.5 -70t-40.5 -55.5t-55 -36.5t-68 -13q-20 0 -30 2zM156 647q0 14 10 25t24 11q12 0 20.5 -8t8.5 -21t-10.5 -23.5t-24.5 -10.5q-12 0 -20 8t-8 19z" />
    <glyph glyph-name="afii10106" unicode="&#x459;" horiz-adv-x="742" 
d="M549 290q60 0 97 -31t37 -86q0 -80 -57 -126q-58 -47 -132 -47h-155l103 493h-247l-75 -355q-13 -61 -55.5 -100t-103.5 -41l7 28q42 2 76 31.5t45 80.5l83 385h307l-50 -232h120zM495 29q63 0 110 38q48 37 48 105q0 43 -29 66t-80 23h-121l-49 -232h121z" />
    <glyph glyph-name="afii10107" unicode="&#x45a;" horiz-adv-x="769" 
d="M576 290q60 0 97 -31t37 -86q0 -80 -57 -126q-58 -47 -132 -47h-155l55 261h-303l-55 -261h-30l112 522h29l-49 -232h302l50 232h29l-50 -232h120zM522 29q63 0 110 38q48 37 48 105q0 43 -29 66t-80 23h-121l-49 -232h121z" />
    <glyph glyph-name="afii10108" unicode="&#x45b;" horiz-adv-x="609" 
d="M196 764h29l-19 -90h201l-6 -30h-202l-46 -219q40 45 97.5 77.5t121.5 32.5q78 0 123.5 -44.5t45.5 -119.5q0 -25 -7 -56l-67 -315h-29l66 312q6 30 6 55q0 69 -38.5 104t-104.5 35q-76 0 -141 -50q-64 -49 -87 -98l-76 -358h-29l136 644h-76l6 30h77z" />
    <glyph glyph-name="afii10109" unicode="&#x45c;" horiz-adv-x="472" 
d="M175 276l276 246h42l-281 -251q60 -8 92 -32t50 -57q13 -21 17 -54q3 -17 5 -31t3 -28.5t2 -31t2 -37.5h-28q-6 112 -18 150q-27 78 -121 94q-14 2 -29 3t-32 1h-40l-51 -248h-30l111 522h29l-52 -246h53zM240 616l-11 20l168 113l19 -30z" />
    <glyph glyph-name="uni045D" unicode="&#x45d;" horiz-adv-x="567" 
d="M34 0l111 522h29l-83 -392l-17 -69h4l18.5 21.5l28.5 32.5l381 407h31l-111 -522h-29l84 397q2 13 9 40l9 35h-4l-25.5 -28l-33.5 -36l-378 -408h-24zM451 636l-15 -20l-152 104l25 29z" />
    <glyph glyph-name="afii10110" unicode="&#x45e;" horiz-adv-x="526" 
d="M527 522h34l-503 -738h-32l175 257l-122 481h30l89 -345q7 -27 12.5 -52.5l10.5 -49.5h5q13 24 65 100zM488 722q-50 -89 -147 -89q-100 0 -130 88l24 9q22 -70 107 -70q86 0 123 70z" />
    <glyph glyph-name="afii10193" unicode="&#x45f;" horiz-adv-x="534" 
d="M162 -169l37 169h-165l111 522h29l-104 -493h300l104 493h31l-111 -522h-166l-36 -169h-30z" />
    <glyph glyph-name="afii10050" unicode="&#x490;" horiz-adv-x="422" 
d="M221 683l-145 -683h-29l151 712h269l37 176h29l-43 -205h-269z" />
    <glyph glyph-name="afii10098" unicode="&#x491;" horiz-adv-x="359" 
d="M426 644l-33 -151h-225l-104 -493h-30l111 522h226l26 122h29z" />
    <glyph glyph-name="afii10846" unicode="&#x4d9;" horiz-adv-x="568" 
d="M134 482q82 52 174 52q89 0 148 -63q58 -62 58 -157q0 -126 -85 -226q-84 -100 -208 -100q-39 0 -72 11.5t-57 34t-37 54t-13 72.5q0 51 10 91h427q2 17 3.5 31.5t1.5 28.5q0 84 -50 139q-49 55 -130 55q-90 0 -177 -60zM78 222q-6 -33 -6 -59q0 -70 42.5 -108t108.5 -38
q85 0 150 55.5t98 149.5h-393z" />
    <glyph glyph-name="Wgrave" unicode="&#x1e80;" horiz-adv-x="904" 
d="M922 712h30l-276 -712h-32l-97 509q-14 64 -15 90h-4l-53 -90l-313 -509h-34l26 712h28l-19 -528q-1 -18 -2 -40l-2 -42t-2 -35.5t-1 -20.5h4l79 134l296 481h12l92 -481l6.5 -37l7.5 -44l9 -53h4q5 10 21 58l30 80zM670 825l-15 -20l-152 104l25 29z" />
    <glyph glyph-name="wgrave" unicode="&#x1e81;" horiz-adv-x="794" 
d="M789 522h32l-251 -522h-24l-97 370q-5 18 -8.5 33.5t-4.5 28.5h-4q-4 -7 -13 -21.5l-23 -36.5l-256 -374h-24l-29 522h28l20 -349q6 -101 6 -119h5q6 11 25.5 40l51.5 77l216 315h11l82 -314l29 -118h5q7 20 20 49.5t33 69.5zM571 636l-15 -20l-152 104l25 29z" />
    <glyph glyph-name="Wacute" unicode="&#x1e82;" horiz-adv-x="904" 
d="M922 712h30l-276 -712h-32l-97 509q-14 64 -15 90h-4l-53 -90l-313 -509h-34l26 712h28l-19 -528q-1 -18 -2 -40l-2 -42t-2 -35.5t-1 -20.5h4l79 134l296 481h12l92 -481l6.5 -37l7.5 -44l9 -53h4q5 10 21 58l30 80zM505 805l-11 20l168 113l19 -30z" />
    <glyph glyph-name="wacute" unicode="&#x1e83;" horiz-adv-x="794" 
d="M789 522h32l-251 -522h-24l-97 370q-5 18 -8.5 33.5t-4.5 28.5h-4q-4 -7 -13 -21.5l-23 -36.5l-256 -374h-24l-29 522h28l20 -349q6 -101 6 -119h5q6 11 25.5 40l51.5 77l216 315h11l82 -314l29 -118h5q7 20 20 49.5t33 69.5zM403 616l-11 20l168 113l19 -30z" />
    <glyph glyph-name="Wdieresis" unicode="&#x1e84;" horiz-adv-x="904" 
d="M922 712h30l-276 -712h-32l-97 509q-14 64 -15 90h-4l-53 -90l-313 -509h-34l26 712h28l-19 -528q-1 -18 -2 -40l-2 -42t-2 -35.5t-1 -20.5h4l79 134l296 481h12l92 -481l6.5 -37l7.5 -44l9 -53h4q5 10 21 58l30 80zM478 869q0 14 9.5 24.5t23.5 10.5q12 0 20 -8t8 -20
q0 -13 -10.5 -22.5t-23.5 -9.5q-11 0 -19 7t-8 18zM648 869q0 14 9.5 24.5t23.5 10.5q12 0 20 -8t8 -20q0 -13 -10.5 -22.5t-23.5 -9.5q-11 0 -19 7t-8 18z" />
    <glyph glyph-name="wdieresis" unicode="&#x1e85;" horiz-adv-x="794" 
d="M789 522h32l-251 -522h-24l-97 370q-5 18 -8.5 33.5t-4.5 28.5h-4q-4 -7 -13 -21.5l-23 -36.5l-256 -374h-24l-29 522h28l20 -349q6 -101 6 -119h5q6 11 25.5 40l51.5 77l216 315h11l82 -314l29 -118h5q7 20 20 49.5t33 69.5zM370 680q0 14 9.5 24.5t23.5 10.5
q12 0 20 -8t8 -20q0 -13 -10.5 -22.5t-23.5 -9.5q-11 0 -19 7t-8 18zM540 680q0 14 9.5 24.5t23.5 10.5q12 0 20 -8t8 -20q0 -13 -10.5 -22.5t-23.5 -9.5q-11 0 -19 7t-8 18z" />
    <glyph glyph-name="Ygrave" unicode="&#x1ef2;" horiz-adv-x="560" 
d="M598 712h36l-327 -415l-63 -297h-29l63 297l-150 415h31l102 -283l35 -99h4l28 38.5t46 59.5zM490 825l-15 -20l-152 104l25 29z" />
    <glyph glyph-name="ygrave" unicode="&#x1ef3;" horiz-adv-x="542" 
d="M535 522h34l-503 -738h-32l175 257l-122 481h30l89 -345q7 -27 12.5 -52.5l10.5 -49.5h5q13 24 65 100zM442 636l-15 -20l-152 104l25 29z" />
    <glyph glyph-name="endash" unicode="&#x2013;" horiz-adv-x="519" 
d="M53 322h440l-6 -29h-440z" />
    <glyph glyph-name="emdash" unicode="&#x2014;" horiz-adv-x="1018" 
d="M53 322h939l-6 -29h-939z" />
    <glyph glyph-name="quoteleft" unicode="&#x2018;" horiz-adv-x="204" 
d="M258 770q-59 -124 -93 -259l-50 -12q55 157 126 276z" />
    <glyph glyph-name="quoteright" unicode="&#x2019;" horiz-adv-x="204" 
d="M115 504q59 124 93 259l50 12q-56 -158 -126 -276z" />
    <glyph glyph-name="quotesinglbase" unicode="&#x201a;" horiz-adv-x="204" 
d="M-33 -196q59 124 93 259l50 12q-56 -158 -126 -276z" />
    <glyph glyph-name="quotedblleft" unicode="&#x201c;" horiz-adv-x="373" 
d="M258 770q-59 -124 -93 -259l-50 -12q55 157 126 276zM427 770q-59 -124 -93 -259l-50 -12q55 157 126 276z" />
    <glyph glyph-name="quotedblright" unicode="&#x201d;" horiz-adv-x="373" 
d="M115 504q59 124 93 259l50 12q-56 -158 -126 -276zM284 504q59 124 93 259l50 12q-56 -158 -126 -276z" />
    <glyph glyph-name="quotedblbase" unicode="&#x201e;" horiz-adv-x="373" 
d="M-33 -196q59 124 93 259l50 12q-56 -158 -126 -276zM135 -196q59 124 93 259l50 12q-56 -158 -126 -276z" />
    <glyph glyph-name="dagger" unicode="&#x2020;" horiz-adv-x="534" 
d="M356 752h29l-48 -226h182l-6 -29h-182l-125 -590h-29l125 590h-181l6 29h181z" />
    <glyph glyph-name="daggerdbl" unicode="&#x2021;" horiz-adv-x="534" 
d="M356 752h29l-48 -226h182l-6 -29h-182l-54 -255h182l-6 -29h-182l-65 -306h-29l65 306h-181l6 29h181l54 255h-181l6 29h181z" />
    <glyph glyph-name="bullet" unicode="&#x2022;" horiz-adv-x="475" 
d="M232 491q52 0 89 -37t37 -90q0 -54 -37 -91t-89 -37q-53 0 -90 37t-37 91q0 52 37 89q38 38 90 38z" />
    <glyph glyph-name="ellipsis" unicode="&#x2026;" horiz-adv-x="898" 
d="M76 63q13 0 22 -9t9 -23q0 -15 -12 -26t-27 -11q-13 0 -22 8.5t-9 21.5q0 16 12 27.5t27 11.5zM403 63q13 0 22 -9t9 -23q0 -15 -12 -26t-27 -11q-13 0 -22 8.5t-9 21.5q0 16 12 27.5t27 11.5zM728 63q13 0 22 -9t9 -23q0 -15 -12 -26t-27 -11q-13 0 -22 8.5t-9 21.5
q0 16 12 27.5t27 11.5z" />
    <glyph glyph-name="perthousand" unicode="&#x2030;" horiz-adv-x="1159" 
d="M274 724q120 0 120 -117q0 -14 -2 -30.5t-6 -36.5q-39 -184 -182 -184q-121 0 -121 118q0 23 8 66q39 184 183 184zM206 385q118 0 150 155q4 16 5.5 31.5t1.5 29.5q0 94 -91 94q-119 0 -151 -155q-7 -29 -7 -60q0 -95 92 -95zM689 715l-527 -727l-23 15l528 727z
M641 361q120 0 120 -117q0 -14 -2 -30.5t-6 -36.5q-39 -184 -182 -184q-121 0 -121 118q0 23 8 66q39 184 183 184zM573 22q118 0 150 155q4 16 5.5 31.5t1.5 29.5q0 94 -91 94q-119 0 -151 -155q-7 -29 -7 -60q0 -95 92 -95zM1026 361q120 0 120 -117q0 -14 -2 -30.5
t-6 -36.5q-39 -184 -182 -184q-121 0 -121 118q0 23 8 66q39 184 183 184zM958 22q118 0 150 155q4 16 5.5 31.5t1.5 29.5q0 94 -91 94q-119 0 -151 -155q-7 -29 -7 -60q0 -95 92 -95z" />
    <glyph glyph-name="guilsinglleft" unicode="&#x2039;" horiz-adv-x="263" 
d="M257 453l-176 -195l88 -188h-31l-92 192l174 191h37z" />
    <glyph glyph-name="guilsinglright" unicode="&#x203a;" horiz-adv-x="262" 
d="M26 70l176 195l-88 188h31l92 -192l-174 -191h-37z" />
    <glyph glyph-name="fraction" unicode="&#x2044;" horiz-adv-x="178" 
d="M390 715l-526 -727l-23 16l527 727z" />
    <glyph glyph-name="zerosuperior" unicode="&#x2070;" horiz-adv-x="301" 
d="M286 899q96 0 96 -100q0 -23 -8 -66l-7 -35q-33 -167 -151 -167q-94 0 -94 100q0 13 2 29.5t6 37.5l7 35q33 166 149 166zM218 560q45 0 73 31t46 109l7 31q4 20 6 36t2 28q0 75 -68 75q-44 0 -72 -31t-45 -108l-7 -31q-8 -38 -8 -67q0 -73 66 -73z" />
    <glyph glyph-name="foursuperior" unicode="&#x2074;" horiz-adv-x="291" 
d="M292 537h-29l15 74h-181l5 28l243 254h22l-54 -253h42l-6 -29h-42zM284 640l27 125l6 27t11 44l-4 1q-8 -10 -22 -25l-34 -37l-130 -135h146z" />
    <glyph glyph-name="fivesuperior" unicode="&#x2075;" horiz-adv-x="291" 
d="M338 675q0 -55 -45 -100q-44 -44 -102 -44q-49 0 -77 27l6 30q28 -28 73 -28q44 0 79 33t35 79q0 31 -18.5 50t-50.5 19q-36 0 -78 -21l-9 7l57 166h162l-6 -29h-138l-38 -104q29 10 53 10q42 0 69.5 -27.5t27.5 -67.5z" />
    <glyph glyph-name="sixsuperior" unicode="&#x2076;" horiz-adv-x="297" 
d="M309 893h34l-127 -138q21 8 44 8q42 0 69 -26.5t27 -65.5q0 -55 -42 -98q-42 -42 -101 -42q-42 0 -70 28t-28 68q0 49 58 119zM217 560q43 0 76 30t33 73q0 32 -20 51.5t-53 19.5q-42 0 -75 -30t-33 -75q2 -30 20 -49.5t52 -19.5z" />
    <glyph glyph-name="sevensuperior" unicode="&#x2077;" horiz-adv-x="272" 
d="M338 864h-184l4 29h229l-1 -11l-236 -345h-33z" />
    <glyph glyph-name="eightsuperior" unicode="&#x2078;" horiz-adv-x="299" 
d="M293 729q54 -18 54 -76q0 -50 -41 -86t-92 -36q-39 0 -65 25.5t-26 62.5q0 30 22.5 62.5t64.5 47.5q-40 19 -40 65q0 44 35 74q34 31 78 31q36 0 60.5 -22.5t24.5 -56.5q0 -20 -17 -47t-58 -44zM281 871q-15 0 -29.5 -6t-26 -16t-18.5 -24t-7 -30q0 -22 15.5 -37.5
t38.5 -15.5q30 0 57 24t27 52q0 23 -16 38t-41 15zM218 560q35 0 67 26q32 27 32 66q0 28 -20 44.5t-48 16.5q-33 0 -65 -26q-30 -26 -30 -65q0 -28 17 -45t47 -17z" />
    <glyph glyph-name="ninesuperior" unicode="&#x2079;" horiz-adv-x="297" 
d="M191 537h-34l127 138q-21 -8 -44 -8q-42 0 -69 26.5t-27 65.5q0 55 42 97q42 43 101 43q42 0 70 -28t28 -68q0 -49 -58 -119zM283 870q-43 0 -76 -30t-33 -73q0 -32 20 -51.5t53 -19.5q42 0 75 30t33 75q-2 30 -20 49.5t-52 19.5z" />
    <glyph glyph-name="parenleftsuperior" unicode="&#x207d;" horiz-adv-x="211" 
d="M311 938l-27 -37l-22 -32q-10 -14 -19 -35.5t-19 -49.5q-18 -56 -18 -115q0 -91 40 -175h-27q-42 94 -42 175q0 59 18 115q20 57 36 83q8 14 20.5 31.5l28.5 39.5h31z" />
    <glyph glyph-name="parenrightsuperior" unicode="&#x207e;" horiz-adv-x="211" 
d="M121 493l27 37l22 31q19 29 37 85q19 54 19 116q0 91 -40 175h27q42 -95 42 -175q0 -61 -19 -115q-18 -55 -35 -83q-8 -14 -20.5 -31.5l-28.5 -39.5h-31z" />
    <glyph glyph-name="zeroinferior" unicode="&#x2080;" horiz-adv-x="301" 
d="M132 174q96 0 96 -100q0 -23 -8 -66l-7 -35q-33 -167 -151 -167q-94 0 -94 100q0 13 2 29.5t6 37.5l7 35q33 166 149 166zM64 -165q45 0 73 31t46 109l7 31q4 20 6 36t2 28q0 75 -68 75q-44 0 -72 -31t-45 -108l-7 -31q-8 -38 -8 -67q0 -73 66 -73z" />
    <glyph glyph-name="oneinferior" unicode="&#x2081;" horiz-adv-x="255" 
d="M131 168h22l-75 -356h-29l65 311l-119 -83l8 36z" />
    <glyph glyph-name="twoinferior" unicode="&#x2082;" horiz-adv-x="296" 
d="M171 -159l-6 -29h-215l3 19l198 178q39 34 39 72q0 28 -19 46t-48 18q-53 0 -99 -51l8 42q46 38 92 38q40 0 68 -25.5t28 -62.5q0 -52 -51 -97l-167 -148h169z" />
    <glyph glyph-name="threeinferior" unicode="&#x2083;" horiz-adv-x="276" 
d="M34 -10l4 24h33q40 0 65.5 23t25.5 55q0 23 -16 38t-43 15q-44 0 -85 -40l8 39q37 30 80 30q38 0 62 -22.5t24 -55.5q0 -67 -65 -96q43 -19 43 -68q0 -51 -42 -88q-41 -38 -95 -38q-49 0 -75 26l7 32q26 -29 71 -29q41 0 72 28q32 27 32 67q0 26 -19.5 43t-53.5 17h-33z
" />
    <glyph glyph-name="fourinferior" unicode="&#x2084;" horiz-adv-x="292" 
d="M139 -188h-29l15 74h-181l5 28l243 254h22l-54 -253h42l-6 -29h-42zM131 -85l27 125l6 27t11 44l-4 1q-8 -10 -22 -25l-34 -37l-130 -135h146z" />
    <glyph glyph-name="fiveinferior" unicode="&#x2085;" horiz-adv-x="291" 
d="M184 -50q0 -56 -45 -99q-44 -45 -102 -45q-49 0 -77 27l6 30q28 -28 73 -28q44 0 79 33t35 79q0 31 -18.5 50t-50.5 19q-36 0 -78 -21l-9 7l57 166h162l-6 -29h-138l-38 -104q29 10 53 10q42 0 69.5 -27.5t27.5 -67.5z" />
    <glyph glyph-name="sixinferior" unicode="&#x2086;" horiz-adv-x="297" 
d="M155 168h34l-127 -138q21 8 44 8q42 0 69 -26.5t27 -65.5q0 -55 -42 -97q-42 -43 -101 -43q-42 0 -70 28t-28 68q0 49 58 119zM63 -165q43 0 76 30t33 73q0 32 -20 51.5t-53 19.5q-42 0 -75 -30t-33 -75q2 -30 20 -49.5t52 -19.5z" />
    <glyph glyph-name="seveninferior" unicode="&#x2087;" horiz-adv-x="272" 
d="M184 139h-184l4 29h229l-1 -11l-236 -345h-33z" />
    <glyph glyph-name="eightinferior" unicode="&#x2088;" horiz-adv-x="300" 
d="M139 4q54 -18 54 -76q0 -50 -41 -86t-92 -36q-39 0 -65 25.5t-26 62.5q0 30 22.5 62.5t64.5 47.5q-40 19 -40 65q0 44 35 74q34 31 78 31q36 0 60.5 -22.5t24.5 -56.5q0 -20 -17 -47t-58 -44zM127 146q-15 0 -29.5 -6t-26 -16t-18.5 -24t-7 -30q0 -22 15.5 -37.5
t38.5 -15.5q30 0 57 24t27 52q0 23 -16 38t-41 15zM64 -165q35 0 67 27q32 26 32 65q0 28 -20 44.5t-48 16.5q-34 0 -65 -25q-30 -26 -30 -66q0 -27 17 -44.5t47 -17.5z" />
    <glyph glyph-name="nineinferior" unicode="&#x2089;" horiz-adv-x="296" 
d="M36 -188h-34l127 138q-21 -8 -44 -8q-42 0 -69 26.5t-27 65.5q0 55 42 97q42 43 101 43q42 0 70 -28t28 -68q0 -49 -58 -119zM128 145q-43 0 -76 -30t-33 -73q0 -32 20 -51.5t53 -19.5q42 0 75 30t33 75q-2 30 -20 49.5t-52 19.5z" />
    <glyph glyph-name="parenleftinferior" unicode="&#x208d;" horiz-adv-x="211" 
d="M148 213l-27 -37l-22 -32q-10 -14 -19 -35.5t-19 -49.5q-18 -56 -18 -115q0 -91 40 -175h-27q-42 94 -42 175q0 59 18 115q20 57 36 83q8 14 20.5 31.5l28.5 39.5h31z" />
    <glyph glyph-name="parenrightinferior" unicode="&#x208e;" horiz-adv-x="212" 
d="M-37 -232l27 37l22 32q10 14 19 35.5t18 49.5q19 54 19 115q0 91 -40 175h27q42 -95 42 -175q0 -61 -19 -115q-18 -55 -35 -83q-8 -14 -20.5 -31.5l-28.5 -39.5h-31z" />
    <glyph glyph-name="Euro" unicode="&#x20ac;" horiz-adv-x="656" 
d="M500 695q-118 0 -216 -70q-98 -68 -148 -177h410l-6 -29h-416q-21 -60 -24 -124h413l-6 -29h-407q6 -109 79 -179q73 -69 191 -69q90 0 179 48l-8 -35q-90 -42 -174 -42q-128 0 -211 79q-84 79 -87 198h-65l6 29h59q3 62 23 124h-55l6 29h60q52 122 162 199t238 77
q90 0 162 -42l-7 -34q-67 47 -158 47z" />
    <glyph glyph-name="trademark" unicode="&#x2122;" horiz-adv-x="865" 
d="M816 712v-397h-29v363l-162 -363h-24l-160 363v-363h-29v397h47l155 -350l155 350h47zM313 712v-29h-123v-368h-28v368h-125v29h276z" />
    <glyph glyph-name="uni2126" unicode="&#x2126;" horiz-adv-x="793" 
d="M470 27h12t21 1t23 1h18h161l-6 -29h-265l9 47q133 63 213 165q81 103 81 230q0 114 -69 183q-69 70 -192 70q-143 0 -247 -92t-129 -233q-2 -15 -3.5 -28.5t-1.5 -24.5q0 -85 47 -154.5t125 -115.5l-9 -47h-249l6 29h151h17.5t22.5 -1t20.5 -1h11.5v5q-85 51 -129 126
t-44 159q0 11 1.5 24.5t3.5 28.5q29 156 142 254q115 100 265 100q130 0 210 -78t80 -204q0 -115 -78 -230q-77 -114 -219 -180v-5z" />
    <glyph glyph-name="estimated" unicode="&#x212e;" horiz-adv-x="760" 
d="M649 130q-51 -67 -123 -104t-151 -37q-133 0 -234 98q-100 99 -100 237q0 142 100 238q100 97 234 97q136 0 235 -99q99 -98 99 -236v-18h-542v-195q89 -86 208 -86q130 0 216 105h58zM167 343h417v194q-89 86 -209 86q-124 0 -208 -86v-194z" />
    <glyph glyph-name="arrowleft" unicode="&#x2190;" horiz-adv-x="826" 
d="M63 370h656v-29h-656l341 -341h-41l-356 356l356 356h41z" />
    <glyph glyph-name="arrowup" unicode="&#x2191;" horiz-adv-x="826" 
d="M377 656v-656h-29v656l-341 -341v41l356 356l356 -356v-41z" />
    <glyph glyph-name="arrowright" unicode="&#x2192;" horiz-adv-x="826" 
d="M663 342h-656v29h656l-341 341h41l356 -356l-356 -356h-41z" />
    <glyph glyph-name="arrowdown" unicode="&#x2193;" horiz-adv-x="826" 
d="M349 56v656h29v-656l341 341v-41l-356 -356l-356 356v41z" />
    <glyph glyph-name="partialdiff" unicode="&#x2202;" horiz-adv-x="603" 
d="M572 426q2 -85 -28.5 -164.5t-83.5 -141t-122.5 -97.5t-145.5 -34q-75 0 -120 42q-45 43 -45 110q0 68 34 132t88 110q53 46 116.5 74t120.5 28t97 -24.5t56 -69.5q1 6 1 16.5v26.5q0 117 -64 185t-185 68q-39 0 -76 -6l6 29q40 6 72 6q130 0 204.5 -74.5t74.5 -215.5z
M195 18q69 0 143 43q75 44 127 116q53 74 53 151q0 58 -36.5 93.5t-99.5 35.5q-51 0 -107.5 -25.5t-105.5 -67.5q-24 -21 -44.5 -47t-35.5 -54.5t-23.5 -58.5t-8.5 -60q0 -58 36 -92t102 -34z" />
    <glyph glyph-name="uni2206" unicode="&#x2206;" horiz-adv-x="692" 
d="M12 0l4 25l403 687h17l160 -688l-4 -24h-580zM419 661q-20 -39 -72 -129l-294 -503h511l-116 503q-10 40 -16 72t-9 57h-4z" />
    <glyph glyph-name="product" unicode="&#x220f;" horiz-adv-x="657" 
d="M725 712l-6 -29h-87l-191 -899h-29l191 899h-369l-191 -899h-29l191 899h-86l6 29h600z" />
    <glyph glyph-name="summation" unicode="&#x2211;" horiz-adv-x="610" 
d="M669 712l-6 -29h-526l190 -439l-367 -430h518l-6 -29h-555l6 31l369 433l-186 432l7 31h556z" />
    <glyph glyph-name="minus" unicode="&#x2212;" 
d="M41 227v30h483v-30h-483z" />
    <glyph glyph-name="radical" unicode="&#x221a;" horiz-adv-x="496" 
d="M537 764h32l-378 -764h-38l-26 291h-91l7 29h111l24 -281z" />
    <glyph glyph-name="infinity" unicode="&#x221e;" horiz-adv-x="746" 
d="M672 430q43 -46 43 -117q0 -72 -46 -119q-45 -47 -111 -47q-77 0 -180 141q-104 -141 -180 -141q-67 0 -113 48q-45 48 -45 118q0 71 46 118q46 49 112 49q75 0 180 -142q103 142 180 142q67 0 114 -50zM198 176q40 0 83 43q44 44 79 94q-95 138 -162 138q-54 0 -92 -41
q-36 -41 -36 -97q0 -57 36 -97q37 -40 92 -40zM558 176q55 0 91 40t36 97q0 29 -9.5 54t-26.5 44t-40.5 29.5t-50.5 10.5q-66 0 -163 -138q98 -137 163 -137z" />
    <glyph glyph-name="integral" unicode="&#x222b;" horiz-adv-x="375" 
d="M-61 -195q5 -1 25 -1q55 0 92.5 35.5t49.5 92.5l135 633q14 70 59.5 114.5t115.5 44.5q18 0 28 -2l-6 -28q-5 1 -26 1q-55 0 -92.5 -35.5t-49.5 -92.5l-135 -633q-14 -70 -59 -114.5t-114 -44.5q-19 0 -29 2z" />
    <glyph glyph-name="therefore" unicode="&#x2234;" 
d="M64 52q12 12 26 10.5t23 -11t10.5 -23t-10.5 -24.5q-11 -12 -24.5 -10.5t-23 11t-11.5 23t10 24.5zM451 52q12 12 26 10.5t23 -11t10.5 -23t-10.5 -24.5q-11 -12 -24.5 -10.5t-23 11t-11.5 23t10 24.5zM252 420q12 12 26 10.5t23 -11t10.5 -23t-10.5 -24.5
q-11 -12 -24.5 -10.5t-23 11t-11.5 23t10 24.5z" />
    <glyph glyph-name="approxequal" unicode="&#x2248;" 
d="M59 341q40 69 104 69q29 0 59.5 -14t51.5 -31q22 -16 50 -30t53 -14q51 0 104 72l24 -17q-62 -84 -128 -84q-43 0 -111 44q-68 45 -103 45q-46 0 -80 -55zM59 123q40 69 104 69q29 0 59.5 -14t51.5 -31q22 -16 50 -30t53 -14q51 0 104 72l24 -17q-62 -84 -128 -84
q-43 0 -111 44q-68 45 -103 45q-46 0 -80 -55z" />
    <glyph glyph-name="notequal" unicode="&#x2260;" 
d="M41 331v30h281l72 140l27 -14l-66 -126h169v-30h-184l-93 -179h277v-30h-292l-72 -139l-26 14l64 125h-157v30h173l92 179h-265z" />
    <glyph glyph-name="lessequal" unicode="&#x2264;" 
d="M524 589v-34l-458 -198l458 -202v-32l-485 209v49zM43 0v30h483v-30h-483z" />
    <glyph glyph-name="greaterequal" unicode="&#x2265;" 
d="M41 555v34l485 -208v-49l-485 -209v32l458 202zM522 30v-30h-483v30h483z" />
    <glyph glyph-name="triagup" unicode="&#x25b2;" horiz-adv-x="826" 
d="M769 55h-712l356 617z" />
    <glyph glyph-name="triagrt" unicode="&#x25ba;" horiz-adv-x="826" 
d="M104 0v712l617 -356z" />
    <glyph glyph-name="triagdn" unicode="&#x25bc;" horiz-adv-x="826" 
d="M57 651h712l-356 -617z" />
    <glyph glyph-name="triaglf" unicode="&#x25c4;" horiz-adv-x="826" 
d="M721 709v-712l-617 356z" />
    <glyph glyph-name="lozenge" unicode="&#x25ca;" horiz-adv-x="536" 
d="M202 -128h-32l-129 425l310 427h32l130 -427zM362 691l-288 -398l117 -388l289 396z" />
    <glyph glyph-name="slash.small" unicode="&#xe00c;" horiz-adv-x="309" 
d="M361 588l-386 -671q-3 2 -11.5 6.5l-12.5 6.5l386 671z" />
    <glyph glyph-name="backslash.small" unicode="&#xe00d;" horiz-adv-x="309" 
d="M192 -83l-102 671l28 6l101 -670z" />
    <glyph glyph-name="bar.small" unicode="&#xe00e;" horiz-adv-x="209" 
d="M113 581v-620h-30v620h30z" />
    <glyph glyph-name="zero.small" unicode="&#xe019;" horiz-adv-x="464" 
d="M183 21q71 0 119 51.5t75 174.5l9 41q13 56 13 102q1 124 -111 124q-70 0 -118 -51.5t-75 -174.5l-9 -41q-13 -56 -13 -102q0 -124 110 -124zM290 543q139 0 139 -149q0 -47 -13 -103l-10 -47q-29 -136 -85.5 -194t-139.5 -58q-138 0 -138 149q0 43 12 103l10 47
q15 68 36.5 116t50 78t63 44t75.5 14z" />
    <glyph glyph-name="one.small" unicode="&#xe01a;" horiz-adv-x="318" 
d="M263 534h24l-113 -533h-29l104 489l-189 -134l8 39z" />
    <glyph glyph-name="two.small" unicode="&#xe01b;" horiz-adv-x="416" 
d="M314 28l-5 -28h-319l4 21l305 268q62 54 62 117q0 23 -8 43t-22.5 34.5t-34.5 23t-44 8.5q-71 0 -144 -69l8 42q64 55 138 55q57 0 98 -39q40 -37 40 -93q0 -77 -76 -144l-273 -239h271z" />
    <glyph glyph-name="three.small" unicode="&#xe01c;" horiz-adv-x="380" 
d="M114 274l4 24h57q61 0 102 38q42 37 42 89q0 39 -27.5 64.5t-70.5 25.5q-61 0 -125 -52l8 39q59 41 119 41q57 0 91.5 -32t34.5 -81q0 -46 -27.5 -85.5t-78.5 -59.5q72 -29 72 -106q0 -74 -62 -131q-62 -56 -141 -56q-75 0 -112 37l7 30q40 -40 107 -40q64 0 117 47
q54 48 54 110q0 42 -30.5 70t-84.5 28h-56z" />
    <glyph glyph-name="four.small" unicode="&#xe01d;" horiz-adv-x="430" 
d="M284 1h-29l24 116h-280l4 28l374 389h20l-83 -389h66l-6 -28h-66zM285 145l45 211l14.5 63.5l11.5 51.5h-4q-24 -30 -90 -96l-222 -230h245z" />
    <glyph glyph-name="five.small" unicode="&#xe01e;" horiz-adv-x="422" 
d="M356 207q0 -86 -66 -150q-65 -65 -153 -65q-70 0 -114 38l7 30q41 -40 108 -40q73 0 129 55q57 55 57 129q0 51 -31 82.5t-83 31.5q-53 0 -119 -32q-3 3 -12 7l85 241h240l-6 -29h-215l-63 -177q55 18 92 18q63 0 103 -40q41 -41 41 -99z" />
    <glyph glyph-name="six.small" unicode="&#xe01f;" horiz-adv-x="432" 
d="M312 534h38l-200 -217q40 21 84 21q62 0 103 -41t41 -98q0 -82 -61 -144q-60 -63 -148 -63q-65 0 -107 42q-41 43 -41 103q0 81 90 179zM171 19q68 0 123 53q54 52 54 122q0 51 -33 83.5t-85 32.5q-66 0 -123 -51q-56 -50 -56 -121q0 -24 8.5 -46t24 -38t38 -25.5
t49.5 -9.5z" />
    <glyph glyph-name="seven.small" unicode="&#xe020;" horiz-adv-x="383" 
d="M366 505h-295l5 29h340l-2 -11l-363 -523h-38z" />
    <glyph glyph-name="eight.small" unicode="&#xe021;" horiz-adv-x="432" 
d="M279 289q43 -13 63 -45t20 -71q0 -76 -60 -128q-59 -53 -134 -53q-30 0 -55.5 9.5t-43.5 27t-28.5 41t-10.5 50.5q0 26 11 59q6 16 17.5 33t28 32t37.5 27t46 18q-35 14 -50.5 42t-15.5 58q0 66 52 109q52 45 116 45q26 0 48 -8.5t38.5 -23.5t26 -36t9.5 -45
q0 -20 -7 -41q-3 -11 -11.5 -25t-22.5 -28t-32.5 -26.5t-41.5 -20.5zM270 514q-50 0 -93 -36t-43 -86q0 -18 7 -34t20 -28.5t29.5 -19.5t36.5 -7q53 0 94 40q42 40 42 86q0 37 -25.5 61t-67.5 24zM171 21q58 0 110 44q51 45 51 108q0 46 -32.5 73.5t-78.5 27.5
q-56 0 -108 -43q-52 -42 -52 -107q0 -45 31 -74t79 -29z" />
    <glyph glyph-name="nine.small" unicode="&#xe022;" horiz-adv-x="432" 
d="M130 1h-38l200 217q-41 -21 -84 -21q-63 0 -103 40q-41 41 -41 99q0 81 60 144q61 63 149 63q65 0 106 -42q42 -42 42 -103q0 -82 -90 -179zM271 516q-68 0 -123 -53q-54 -53 -54 -122q0 -51 33 -83.5t85 -32.5q66 0 122 50q57 51 57 122q0 24 -8.5 46t-24 38t-38 25.5
t-49.5 9.5z" />
    <glyph glyph-name="dollar.small" unicode="&#xe023;" horiz-adv-x="402" 
d="M271 586l-10 -43q62 -3 107 -39l-8 -33q-38 42 -105 43l-46 -218q17 -10 29.5 -18.5t21.5 -15.5q18 -13 35 -38t17 -54q0 -68 -50 -118q-51 -51 -118 -58l-9 -46h-27l9 44q-70 2 -110 42l8 34q41 -47 108 -47l55 257q-45 26 -69 51.5t-24 62.5q0 61 45 102q45 40 104 48
l10 44h27zM282 165q0 31 -20.5 53t-59.5 46l-51 -241q52 10 91 49q40 40 40 93zM228 511q-43 -7 -79 -40q-34 -31 -34 -74q0 -44 70 -87z" />
    <glyph glyph-name="percent.small" unicode="&#xe024;" horiz-adv-x="609" 
d="M470 268q89 0 89 -88q0 -22 -5 -47q-28 -136 -135 -136q-87 0 -87 85q0 22 6 51q28 135 132 135zM422 26q21 0 40.5 8.5t34 26.5t23.5 46t9 67q0 65 -62 65q-20 0 -39 -9t-33.5 -28t-23.5 -47t-9 -66q0 -63 60 -63zM487 546l23 -13l-394 -542q-4 3 -9 6l-12 7zM194 540
q89 0 89 -88q0 -22 -5 -47q-28 -136 -135 -136q-87 0 -87 85q0 22 6 51q28 135 132 135zM146 298q21 0 40.5 8.5t34 26.5t23.5 46t9 67q0 65 -62 65q-20 0 -39 -9t-33.5 -28t-23.5 -47t-9 -66q0 -63 60 -63z" />
    <glyph glyph-name="at.small" unicode="&#xe025;" horiz-adv-x="791" 
d="M389 -170q-159 0 -249 94q-89 95 -89 234q0 164 111 274q111 111 268 111q128 0 214 -77t86 -201q0 -116 -54 -192q-52 -76 -121 -76q-58 0 -58 61q0 19 4 32q-68 -93 -160 -93q-32 0 -56 11.5t-40 31.5t-24.5 47t-8.5 59q0 84 53 152q54 67 138 67q47 0 84 -28
q37 -29 51 -54q15 60 15 75h30l-53 -248q-7 -27 -7 -43q0 -42 39 -42q52 0 94 69q43 68 43 162q0 120 -77 189t-195 69q-144 0 -244 -103q-101 -104 -101 -249q0 -82 34 -149q34 -69 106.5 -112t172.5 -43zM530 248q-2 4 -5.5 9.5t-16.5 20.5q-16 20 -43 38.5t-64 18.5
q-67 0 -113 -54q-46 -53 -46 -131q0 -54 28.5 -89t80.5 -35q58 0 105 50q45 50 59 108z" />
    <glyph glyph-name="cent.small" unicode="&#xe026;" horiz-adv-x="360" 
d="M274 19q-45 -24 -91 -27l-11 -51h-28l11 51q-58 6 -93 47t-35 101q0 92 63 158q65 67 146 74l10 48h28l-10 -47q46 -4 79 -28l-8 -31q-30 27 -77 31l-69 -325q41 3 92 35zM230 343q-72 -11 -122 -68q-50 -59 -50 -132q0 -51 27.5 -84.5t75.5 -38.5z" />
    <glyph glyph-name="sterling.small" unicode="&#xe027;" horiz-adv-x="438" 
d="M120 200l-36 -171h273l-6 -29h-366l6 29h63l36 171h-63l6 29h63l31 143q15 68 68 120q54 51 123 51q52 0 83 -26l-8 -33q-30 30 -77 30q-55 0 -101 -42q-46 -40 -58 -99l-31 -144h214l-6 -29h-214z" />
    <glyph glyph-name="copyright.small" unicode="&#xe028;" horiz-adv-x="649" 
d="M321 543q113 0 193 -81q81 -81 81 -195t-81 -195q-80 -80 -193 -80q-114 0 -196 80q-80 82 -80 195t80 195q81 81 196 81zM321 21q100 0 173 71q72 72 72 175q0 102 -72 174q-72 73 -173 73q-103 0 -175 -73q-72 -72 -72 -174q0 -103 72 -175q73 -71 175 -71zM328 424
q33 0 69 -17v-31q-34 20 -69 20q-27 0 -50 -10t-39.5 -27.5t-26 -41t-9.5 -50.5t9.5 -50.5t26 -41t39.5 -27.5t50 -10q37 0 69 20v-31q-36 -18 -69 -18q-64 0 -110 46q-45 46 -45 112t45 111q46 46 110 46z" />
    <glyph glyph-name="yen.small" unicode="&#xe029;" horiz-adv-x="417" 
d="M429 534h35l-151 -190h101l-7 -29h-117q-7 -8 -15.5 -20t-18 -24l-18.5 -23.5t-16 -18.5h167l-6 -29h-170l-42 -200h-29l42 200h-169l6 29h166l-17 45l-15 41h-116l7 29h99l-70 190h32l76 -206l24 -69h4q16 24 54 69z" />
    <glyph glyph-name="Euro.small" unicode="&#xe02a;" horiz-adv-x="491" 
d="M384 514q-85 0 -156 -49q-71 -50 -107 -126h298l-6 -29h-304q-14 -42 -16 -85h306l-6 -29h-300q3 -39 18 -71t40.5 -55.5t60.5 -36t77 -12.5q64 0 137 40l-7 -36q-69 -33 -133 -33q-95 0 -156 57t-67 147h-46l6 29h40q1 38 15 85h-41l6 29h46q37 89 121 147q82 57 177 57
q69 0 125 -33l-7 -31q-44 35 -121 35z" />
    <glyph glyph-name="germandbls.small" unicode="&#xe02b;" horiz-adv-x="762" 
d="M626 514q-52 0 -95 -34q-44 -33 -44 -83q0 -24 14.5 -41.5t36.5 -32.5t47.5 -30t47.5 -32.5t36.5 -39t14.5 -51.5q0 -74 -58 -126t-131 -52q-74 0 -116 42l8 34q41 -47 109 -47q58 0 108 41q50 42 50 103q0 18 -8.5 34t-22.5 30t-32 25.5t-36 20.5t-35.5 21t-31.5 27
t-22.5 32.5t-8.5 36.5q0 67 53 109q52 42 117 42t113 -39l-8 -33q-37 43 -106 43zM261 514q-52 0 -95 -34q-44 -33 -44 -83q0 -24 14.5 -41.5t36.5 -32.5t47.5 -30t47.5 -32.5t36.5 -39t14.5 -51.5q0 -74 -58 -126t-131 -52q-74 0 -116 42l8 34q41 -47 109 -47q58 0 108 41
q50 42 50 103q0 18 -8.5 34t-22.5 30t-32 25.5t-36 20.5t-35.5 21t-31.5 27t-22.5 32.5t-8.5 36.5q0 67 53 109q52 42 117 42t113 -39l-8 -33q-37 43 -106 43z" />
    <glyph glyph-name="dotlessi.small" unicode="&#xe02c;" horiz-adv-x="234" 
d="M125 534l-113 -534h-29l113 534h29z" />
    <glyph glyph-name="ampersand.01" unicode="&#xe37a;" horiz-adv-x="826" 
d="M342 0l72 341h-341l6 29h341l73 342h29l-73 -342h342l-6 -29h-342l-72 -341h-29z" />
    <glyph glyph-name="f_j" unicode="&#xe380;" horiz-adv-x="502" 
d="M493 718q-72 28 -122 28q-51 0 -94 -36q-44 -36 -54 -85l-22 -103h269l-121 -572q-8 -38 -24.5 -70t-40.5 -55.5t-55 -36.5t-68 -13q-20 0 -30 2l6 28q5 -1 11.5 -1h15.5q59 0 101 42t54 99l116 548h-240l-104 -493h-29l104 493h-79l7 29h78l22 103q14 62 65 106
q53 44 113 44q56 0 128 -26z" />
    <glyph glyph-name="f_b" unicode="&#xe381;" horiz-adv-x="964" 
d="M354 0h-23l154 726q-69 20 -114 20q-50 0 -95 -36q-44 -36 -54 -85l-22 -103h154l-6 -29h-154l-104 -493h-29l104 493h-78l6 29h78l22 103q14 62 65 106q52 44 114 44t146 -28l-74 -350q22 32 51 57t64 44q71 37 145 37q97 0 153 -62q57 -62 57 -152q0 -130 -97 -231
q-98 -101 -228 -101q-76 0 -129.5 36.5t-78.5 87.5zM697 506q-92 0 -175 -65q-82 -64 -100 -146l-28 -134q14 -56 64 -100q49 -43 132 -43q116 0 205 89q89 91 89 213q0 84 -49.5 135t-137.5 51z" />
    <glyph glyph-name="f_f_b" unicode="&#xe382;" horiz-adv-x="1235" 
d="M625 0h-23l154 726q-69 20 -114 20q-50 0 -95 -36q-44 -36 -54 -85l-22 -103h153l-6 -29h-153l-104 -493h-29l104 493h-241l-104 -493h-29l104 493h-79l6 29h79l20 92q14 64 65 106q53 44 113 44q7 0 17 -1t23 -3l-6 -29q-13 2 -21.5 3t-13.5 1q-51 0 -94 -36
q-44 -36 -54 -85l-20 -92h241l22 103q14 62 65 106q52 44 114 44t146 -28l-74 -350q22 32 51 57t64 44q71 37 145 37q97 0 153 -62q57 -62 57 -152q0 -130 -97 -231q-98 -101 -228 -101q-76 0 -129.5 36.5t-78.5 87.5zM968 506q-92 0 -175 -65q-82 -64 -100 -146l-28 -134
q14 -56 64 -100q49 -43 132 -43q116 0 205 89q89 91 89 213q0 84 -49.5 135t-137.5 51z" />
    <glyph glyph-name="f_f_h" unicode="&#xe383;" horiz-adv-x="1177" 
d="M756 726q-69 20 -114 20q-50 0 -95 -36q-44 -36 -54 -85l-22 -103h153l-6 -29h-153l-104 -493h-29l104 493h-241l-104 -493h-29l104 493h-79l6 29h79l20 92q14 64 65 106q53 44 113 44q7 0 17 -1t23 -3l-6 -29q-13 2 -21.5 3t-13.5 1q-51 0 -94 -36q-44 -36 -54 -85
l-20 -92h241l22 103q14 62 65 106q52 44 114 44t146 -28l-68 -322q40 45 97.5 77.5t121.5 32.5q78 0 123.5 -44.5t45.5 -119.5q0 -25 -7 -56l-66 -315h-29l66 312q6 30 6 55q0 69 -39 104t-105 35q-76 0 -141 -50q-64 -49 -87 -98l-76 -358h-29z" />
    <glyph glyph-name="f_f_j" unicode="&#xe384;" horiz-adv-x="772" 
d="M407 -195q5 -1 11.5 -1h15.5q59 0 101 42t54 99l116 548h-240l-104 -493h-29l104 493h-241l-104 -493h-29l104 493h-79l6 29h79l20 92q14 64 65 106q53 44 113 44q7 0 17 -1t23 -3l-6 -29q-13 2 -21.5 3t-13.5 1q-51 0 -94 -36q-44 -36 -54 -85l-20 -92h241l22 103
q14 62 65 106q53 44 113 44q56 0 128 -26l-7 -31q-72 28 -122 28q-51 0 -94 -36q-44 -36 -54 -85l-22 -103h269l-121 -572q-8 -38 -24.5 -70t-40.5 -55.5t-55 -36.5t-68 -13q-20 0 -30 2z" />
    <glyph glyph-name="f_f_k" unicode="&#xe385;" horiz-adv-x="1063" 
d="M1035 522h38l-271 -245l174 -277h-33l-164 259l-114 -95l-34 -164h-29l154 726q-69 20 -114 20q-50 0 -95 -36q-44 -36 -54 -85l-22 -103h153l-6 -29h-153l-104 -493h-29l104 493h-241l-104 -493h-29l104 493h-79l6 29h79l20 92q14 64 65 106q53 44 113 44q7 0 17 -1
t23 -3l-6 -29q-13 2 -21.5 3t-13.5 1q-51 0 -94 -36q-44 -36 -54 -85l-20 -92h241l22 103q14 62 65 106q52 44 114 44t146 -28l-95 -446q-2 -13 -8 -36t-14 -57h5q10 10 29.5 26l48.5 39z" />
    <glyph glyph-name="f_h" unicode="&#xe386;" horiz-adv-x="907" 
d="M486 726q-69 20 -114 20q-50 0 -95 -36q-44 -36 -54 -85l-22 -103h153l-6 -29h-153l-104 -493h-29l104 493h-79l6 29h79l22 103q14 62 65 106q52 44 114 44t146 -28l-68 -322q40 45 97.5 77.5t121.5 32.5q78 0 123.5 -44.5t45.5 -119.5q0 -25 -7 -56l-66 -315h-29l66 312
q6 30 6 55q0 69 -39 104t-105 35q-76 0 -141 -50q-64 -49 -87 -98l-76 -358h-29z" />
    <glyph glyph-name="f_k" unicode="&#xe388;" horiz-adv-x="793" 
d="M765 522h38l-271 -245l174 -277h-33l-164 259l-114 -95l-34 -164h-29l154 726q-69 20 -114 20q-50 0 -95 -36q-44 -36 -54 -85l-22 -103h153l-6 -29h-153l-104 -493h-29l104 493h-79l6 29h79l22 103q14 62 65 106q52 44 114 44t146 -28l-95 -446q-2 -13 -8 -36t-14 -57h5
q10 10 29.5 26l48.5 39z" />
    <glyph glyph-name="f_t" unicode="&#xe389;" horiz-adv-x="605" 
d="M514 -5q-8 -3 -22 -3q-132 0 -132 119q0 25 6 52l70 330h-240l-104 -493h-29l104 493h-80l7 29h80l21 103q14 64 65 106q53 44 113 44q8 0 18 -1t22 -3l-6 -29q-12 2 -21 3t-14 1q-51 0 -94 -36q-44 -36 -54 -85l-21 -103h240l27 129l32 11l-30 -140h154l-8 -29h-153
l-70 -332q-2 -14 -3.5 -23.5t-1.5 -14.5q0 -45 24 -73.5t72 -28.5q12 0 20.5 0.5t13.5 1.5z" />
    <glyph glyph-name="t_f" unicode="&#xe38a;" horiz-adv-x="652" 
d="M243 -5q-8 -3 -22 -3q-132 0 -132 119q0 25 6 52l70 330h-79l7 29h79l27 129l32 11l-30 -140h297l21 103q14 64 65 106q53 44 113 44q8 0 18 -1t22 -3l-6 -29q-12 2 -21 3t-14 1q-51 0 -94 -36q-44 -36 -54 -85l-21 -103h153l-7 -29h-153l-104 -493h-29l104 493h-297
l-70 -332q-2 -14 -3.5 -23.5t-1.5 -14.5q0 -45 24 -73.5t72 -28.5q12 0 20.5 0.5t13.5 1.5z" />
    <glyph glyph-name="t_t" unicode="&#xe38b;" horiz-adv-x="658" 
d="M567 -5q-8 -3 -22 -3q-132 0 -132 119q0 25 6 52l70 330h-295l-70 -332q-2 -14 -3.5 -23.5t-1.5 -14.5q0 -45 24 -73.5t72 -28.5q12 0 20.5 0.5t13.5 1.5l-6 -28q-8 -3 -22 -3q-132 0 -132 119q0 25 6 52l70 330h-79l7 29h79l24 117l32 11l-27 -128h295l27 129l32 11
l-30 -140h154l-8 -29h-153l-70 -332q-2 -14 -3.5 -23.5t-1.5 -14.5q0 -45 24 -73.5t72 -28.5q12 0 20.5 0.5t13.5 1.5z" />
    <glyph glyph-name="parenleft.uc" unicode="&#xe440;" horiz-adv-x="287" 
d="M278 800h31l-32.5 -42.5l-25.5 -35.5t-24 -37.5t-29 -50.5q-31 -54 -51 -107q-18 -51 -31.5 -120.5t-13.5 -144.5q0 -111 21 -190q22 -77 60 -158h-27l-23 51l-18 42q-7 20 -14 47t-15 62q-14 73 -14 146q0 75 14 144t31 120q18 48 50 107q32 56 54 88z" />
    <glyph glyph-name="parenright.uc" unicode="&#xe441;" horiz-adv-x="286" 
d="M58 -86h-31q36 46 57 78q22 31 54 87q32 59 50 107q19 51 32.5 121t13.5 145q0 111 -22 189q-11 40 -25.5 79.5t-33.5 79.5h27l23 -51t17 -43q16 -39 29 -109q15 -71 15 -145q0 -75 -14 -144t-32 -120q-16 -47 -50 -108q-16 -29 -29 -50.5t-24 -36.5z" />
    <glyph glyph-name="hyphen.uc" unicode="&#xe442;" horiz-adv-x="300" 
d="M64 373h222l-6 -29h-222z" />
    <glyph glyph-name="bracketleft.uc" unicode="&#xe443;" horiz-adv-x="282" 
d="M370 801h-114l-188 -882h114l-6 -29h-143l200 940h143z" />
    <glyph glyph-name="bracketright.uc" unicode="&#xe444;" horiz-adv-x="282" 
d="M266 801h-114l6 29h143l-200 -940h-142l6 29h113z" />
    <glyph glyph-name="braceleft.uc" unicode="&#xe460;" horiz-adv-x="281" 
d="M375 830l-6 -29h-36q-23 0 -43 -10t-35 -27.5t-23.5 -42t-8.5 -54.5q0 -11 1.5 -28t5.5 -40q8 -46 8 -68q0 -68 -33 -110.5t-79 -62.5q55 -28 55 -94q1 -31 -15.5 -68t-36.5 -74.5t-37 -72.5t-15 -62q0 -32 18.5 -51t49.5 -19h36l-6 -29h-36q-42 0 -67 27.5t-25 70.5
q0 41 52 138q53 98 53 133q0 42 -26 65t-71 23l6 29q61 0 105 42t44 108q0 11 -2 29t-6 43q-4 26 -5.5 44.5t-1.5 29.5q0 67 42 114q43 46 102 46h36z" />
    <glyph glyph-name="bar.uc" unicode="&#xe461;" horiz-adv-x="235" 
d="M142 840v-980h-29v980h29z" />
    <glyph glyph-name="braceright.uc" unicode="&#xe462;" horiz-adv-x="281" 
d="M-43 -112l6 29h36q23 0 43 10t35 27.5t23.5 42t8.5 54.5q0 21 -8 67q-4 23 -5.5 40t-1.5 29q0 68 33 110.5t79 62.5q-55 28 -55 94q-2 31 15 68t37 74.5t36.5 72.5t15.5 62q0 32 -18.5 51t-49.5 19h-36l6 29h36q42 0 67 -27.5t25 -70.5q0 -40 -53 -138q-52 -97 -52 -133
q0 -42 26 -65t71 -23l-6 -29q-63 0 -106 -42t-43 -108q0 -11 1.5 -29t5.5 -44q4 -25 6 -43.5t2 -29.5q0 -68 -43 -114q-42 -46 -101 -46h-36z" />
    <glyph glyph-name="slash.uc" unicode="&#xe463;" horiz-adv-x="415" 
d="M-12 -98l-26 12l517 895l25 -13z" />
    <glyph glyph-name="questiondown.uc" unicode="&#xe464;" horiz-adv-x="486" 
d="M298 655q-13 0 -22 9t-9 23q0 15 12 26t27 11q13 0 22 -8.5t9 -21.5q0 -16 -12 -27.5t-27 -11.5zM119 -6q-68 0 -111 43q-44 44 -44 106q0 49 26.5 91.5t65.5 72.5q28 22 59 43.5t58 43.5t47 45t25 48l11 49h29l-12 -55q-8 -37 -40 -70.5t-71 -61.5l-59 -41.5t-54 -46
t-39.5 -52.5t-15.5 -62q0 -26 9.5 -48.5t27 -39t41 -26.5t52.5 -10q56 0 108 40l-8 -41q-49 -28 -105 -28z" />
    <glyph glyph-name="exclamdown.uc" unicode="&#xe465;" horiz-adv-x="240" 
d="M143 643q-13 0 -22 9t-9 23q0 15 12 26t27 11q13 0 22 -8.5t9 -21.5q0 -16 -12 -27.5t-27 -11.5zM129 524l-113 -530h-29l113 530h29z" />
    <glyph glyph-name="backslash.uc" unicode="&#xe466;" horiz-adv-x="415" 
d="M143 800l29 6l136 -895l-29 -5z" />
    <glyph glyph-name="endash.uc" unicode="&#xe470;" horiz-adv-x="519" 
d="M64 373h440l-6 -29h-440z" />
    <glyph glyph-name="emdash.uc" unicode="&#xe471;" horiz-adv-x="1018" 
d="M64 373h939l-6 -29h-939z" />
    <glyph glyph-name="guilsinglleft.uc" unicode="&#xe472;" horiz-adv-x="263" 
d="M276 547l-176 -195l88 -188h-31l-91 192l173 191h37z" />
    <glyph glyph-name="guilsinglright.uc" unicode="&#xe473;" horiz-adv-x="262" 
d="M45 164l176 195l-88 188h31l92 -192l-174 -191h-37z" />
    <glyph glyph-name="guillemotleft.uc" unicode="&#xe474;" horiz-adv-x="449" 
d="M301 547l-176 -195l88 -188h-31l-92 192l174 191h37zM458 547l-176 -195l88 -188h-31l-92 192l174 191h37z" />
    <glyph glyph-name="guillemotright.uc" unicode="&#xe475;" horiz-adv-x="448" 
d="M203 164l176 195l-88 188h31l92 -192l-174 -191h-37zM46 164l176 195l-88 188h31l92 -192l-174 -191h-37z" />
    <glyph glyph-name="uni0200.small" unicode="&#xe540;" horiz-adv-x="525" 
d="M332 534l124 -534h-31l-29 132h-309l-84 -132h-36l350 534h15zM105 161h285l-55 237l-17 88h-4l-30 -50t-24 -38zM346 730l26 24l85 -102l-16 -16zM216 730l26 24l85 -102l-16 -16z" />
    <glyph glyph-name="uni0202.small" unicode="&#xe541;" horiz-adv-x="525" 
d="M332 534l124 -534h-31l-29 132h-309l-84 -132h-36l350 534h15zM105 161h285l-55 237l-17 88h-4l-30 -50t-24 -38zM494 653l-15 -19l-114 80l-132 -80l-11 20l147 104z" />
    <glyph glyph-name="uni0204.small" unicode="&#xe542;" horiz-adv-x="435" 
d="M33 0l113 534h278l-6 -29h-249l-44 -208h242l-7 -29h-242l-50 -239h249l-6 -29h-278zM296 730l26 24l85 -102l-16 -16zM166 730l26 24l85 -102l-16 -16z" />
    <glyph glyph-name="uni0206.small" unicode="&#xe543;" horiz-adv-x="435" 
d="M33 0l113 534h278l-6 -29h-249l-44 -208h242l-7 -29h-242l-50 -239h249l-6 -29h-278zM450 653l-15 -19l-114 80l-132 -80l-11 20l147 104z" />
    <glyph glyph-name="uni0208.small" unicode="&#xe544;" horiz-adv-x="200" 
d="M175 534l-113 -534h-29l113 534h29zM180 730l26 24l85 -102l-16 -16zM50 730l26 24l85 -102l-16 -16z" />
    <glyph glyph-name="uni020A.small" unicode="&#xe545;" horiz-adv-x="200" 
d="M175 534l-113 -534h-29l113 534h29zM330 653l-15 -19l-114 80l-132 -80l-11 20l147 104z" />
    <glyph glyph-name="uni020C.small" unicode="&#xe546;" horiz-adv-x="643" 
d="M372 543q97 0 160 -65t63 -160q0 -132 -100 -229q-98 -97 -224 -97q-96 0 -160 62q-63 63 -63 159q0 133 98 231q99 99 226 99zM274 21q114 0 202 88q89 89 89 206q0 87 -54 143t-142 56q-115 0 -203 -90q-88 -88 -88 -208q0 -85 54 -140t142 -55zM373 730l26 24l85 -102
l-16 -16zM243 730l26 24l85 -102l-16 -16z" />
    <glyph glyph-name="uni020E.small" unicode="&#xe550;" horiz-adv-x="643" 
d="M372 543q97 0 160 -65t63 -160q0 -132 -100 -229q-98 -97 -224 -97q-96 0 -160 62q-63 63 -63 159q0 133 98 231q99 99 226 99zM274 21q114 0 202 88q89 89 89 206q0 87 -54 143t-142 56q-115 0 -203 -90q-88 -88 -88 -208q0 -85 54 -140t142 -55zM544 653l-15 -19
l-114 80l-132 -80l-11 20l147 104z" />
    <glyph glyph-name="uni0210.small" unicode="&#xe551;" horiz-adv-x="438" 
d="M358 0h-36l-117 233h-94l-49 -233h-29l113 534h135q72 0 108.5 -33.5t36.5 -85.5q0 -71 -51 -123q-48 -51 -134 -59zM117 262h106q73 0 123 41q50 42 50 108q0 45 -32 69.5t-89 24.5h-106zM277 730l26 24l85 -102l-16 -16zM147 730l26 24l85 -102l-16 -16z" />
    <glyph glyph-name="uni0212.small" unicode="&#xe552;" horiz-adv-x="438" 
d="M358 0h-36l-117 233h-94l-49 -233h-29l113 534h135q72 0 108.5 -33.5t36.5 -85.5q0 -71 -51 -123q-48 -51 -134 -59zM117 262h106q73 0 123 41q50 42 50 108q0 45 -32 69.5t-89 24.5h-106zM424 653l-15 -19l-114 80l-132 -80l-11 20l147 104z" />
    <glyph glyph-name="uni0214.small" unicode="&#xe553;" horiz-adv-x="532" 
d="M433 184q-19 -87 -81 -140q-61 -52 -135 -52q-33 0 -60.5 10t-47.5 29t-31 46t-11 60q0 24 5 47l74 350h29l-73 -344q-6 -26 -6 -47q0 -60 34 -91t88 -31q63 0 116 45q55 46 71 124l73 344h29zM331 730l26 24l85 -102l-16 -16zM201 730l26 24l85 -102l-16 -16z" />
    <glyph glyph-name="uni0216.small" unicode="&#xe554;" horiz-adv-x="532" 
d="M433 184q-19 -87 -81 -140q-61 -52 -135 -52q-33 0 -60.5 10t-47.5 29t-31 46t-11 60q0 24 5 47l74 350h29l-73 -344q-6 -26 -6 -47q0 -60 34 -91t88 -31q63 0 116 45q55 46 71 124l73 344h29zM488 653l-15 -19l-114 80l-132 -80l-11 20l147 104z" />
    <glyph glyph-name="uni021A.small" unicode="&#xe555;" horiz-adv-x="353" 
d="M247 505l-107 -505h-29l107 505h-144l6 29h317l-6 -29h-144zM47 -246q44 97 66 184l40 10q-20 -57 -43 -107t-48 -93z" />
    <glyph glyph-name="quotedbl.small" unicode="&#xe640;" horiz-adv-x="368" 
d="M172 613h39l-68 -270h-19zM326 613h39l-68 -270h-19z" />
    <glyph glyph-name="quotesingle.small" unicode="&#xe641;" horiz-adv-x="200" 
d="M169 613h39l-68 -270h-19z" />
    <glyph glyph-name="quoteleft.small" unicode="&#xe642;" horiz-adv-x="204" 
d="M240 681q-59 -124 -93 -259l-50 -12q55 157 126 276z" />
    <glyph glyph-name="quoteright.small" unicode="&#xe643;" horiz-adv-x="204" 
d="M97 415q59 124 93 259l50 12q-56 -158 -126 -276z" />
    <glyph glyph-name="quotedblleft.small" unicode="&#xe644;" horiz-adv-x="373" 
d="M240 681q-59 -124 -93 -259l-50 -12q55 157 126 276zM408 681q-59 -124 -93 -259l-50 -12q55 157 126 276z" />
    <glyph glyph-name="quotedblright.small" unicode="&#xe645;" horiz-adv-x="373" 
d="M97 415q59 124 93 259l50 12q-56 -158 -126 -276zM265 415q59 124 93 259l50 12q-56 -158 -126 -276z" />
    <glyph glyph-name="M.alt1" unicode="&#xe646;" horiz-adv-x="815" 
d="M640 0l118 557l12.5 55t9.5 37h-5l-64 -54l-276 -227l-179 227l-42 54h-4l-18 -92l-118 -557h-29l151 712h5l239 -303l367 303h13l-151 -712h-29z" />
    <glyph glyph-name="m.smallalt1" unicode="&#xe647;" horiz-adv-x="646" 
d="M332 312l269 222h20l-113 -534h-29l85 403q3 14 8 33.5t12 44.5h-5q-25 -25 -53 -47l-199 -163l-129 163q-18 23 -33 47h-5q-2 -17 -5.5 -36t-8.5 -42l-85 -403h-29l113 534h12z" />
    <glyph glyph-name="ampersand.alt1" unicode="&#xe648;" horiz-adv-x="643" 
d="M495 368l-47 -218q-4 -20 -4 -34q0 -42 22 -68t67 -26q11 0 19 0.5t13 1.5l-6 -28q-11 -3 -30 -3q-57 0 -84.5 28.5t-29.5 79.5q-36 -52 -87.5 -82t-109.5 -30q-72 0 -118 45t-46 116t48 139q48 69 132 96q-43 18 -65 51t-22 72q0 91 72 153q72 63 166 63q98 0 146 -53
l-8 -37q-54 61 -139 61q-76 0 -140 -54t-64 -128q0 -24 10 -45.5t28 -37t43.5 -24.5t55.5 -9h155l21 99l31 11l-23 -110h143l-6 -29h-143zM220 18q71 0 132 53q61 52 78 131l36 166h-155q-93 0 -160 -67q-68 -68 -68 -147q0 -30 10 -55t28 -43t43.5 -28t55.5 -10z" />
    <glyph glyph-name="ampersand.smallalt1" unicode="&#xe649;" horiz-adv-x="548" 
d="M379 266l-25 -119q-4 -15 -4 -35q0 -42 21.5 -67.5t66.5 -25.5q11 0 18.5 0.5t12.5 1.5l-6 -28q-11 -3 -30 -3q-98 0 -111 87q-28 -42 -68.5 -65t-86.5 -23q-57 0 -93 32.5t-36 86.5q0 53 34 103q34 52 96 73q-60 28 -60 92q0 68 54 116q55 48 126 48t112 -41l-8 -37
q-41 50 -107 50q-56 0 -100 -40q-44 -39 -44 -93q0 -36 26 -60t74 -24h115l17 79l31 11l-19 -90h142l-6 -29h-142zM171 16q53 0 97 39q45 39 57 95l25 116h-115q-69 0 -118 -48q-49 -46 -49 -104q0 -45 27.5 -71.5t75.5 -26.5z" />
    <glyph glyph-name="alpha.small" unicode="&#xe800;" horiz-adv-x="526" 
d="M332 534l124 -534h-31l-29 132h-309l-84 -132h-36l350 534h15zM105 161h285l-55 237l-17 88h-4l-30 -50t-24 -38z" />
    <glyph glyph-name="beta.small" unicode="&#xe801;" horiz-adv-x="469" 
d="M169 505l-47 -220h119q30 0 57 9t47 26t31.5 41.5t11.5 56.5q0 42 -30 64.5t-78 22.5h-111zM116 256l-48 -227h128q66 0 113 35q48 36 48 104q0 88 -115 88h-126zM316 271q71 -23 71 -99q0 -81 -58 -127q-59 -45 -135 -45h-161l113 534h135q66 0 101.5 -31t35.5 -79
q0 -26 -7.5 -50t-21 -44t-32.5 -35.5t-41 -23.5z" />
    <glyph glyph-name="chi.small" unicode="&#xe802;" horiz-adv-x="429" 
d="M238 279l119 -279h-32l-88 203q-3 6 -6 13.5l-6 15t-5 13t-2 7.5h-5q-21 -29 -38 -50l-172 -202h-38l239 279l-108 255h34l72 -172q3 -7 6 -16l7 -20l8 -23h4q11 16 22.5 30l22.5 28l146 173h40z" />
    <glyph glyph-name="delta.small" unicode="&#xe803;" horiz-adv-x="517" 
d="M305 494h-5l-32 -58l-22.5 -42l-15.5 -27l-196 -338h370l-75 339zM-7 0l4 24l301 516h19l119 -516l-4 -24h-439z" />
    <glyph glyph-name="epsilon.small" unicode="&#xe804;" horiz-adv-x="436" 
d="M33 0l113 534h278l-6 -29h-249l-44 -208h242l-7 -29h-242l-50 -239h249l-6 -29h-278z" />
    <glyph glyph-name="eta.small" unicode="&#xe805;" horiz-adv-x="543" 
d="M438 297l50 237h29l-113 -534h-29l56 268h-313l-56 -268h-29l113 534h29l-50 -237h313z" />
    <glyph glyph-name="gamma.small" unicode="&#xe806;" horiz-adv-x="332" 
d="M172 505l-107 -505h-29l113 534h229l-6 -29h-200z" />
    <glyph glyph-name="iota.small" unicode="&#xe807;" horiz-adv-x="201" 
d="M175 534l-113 -534h-29l113 534h29z" />
    <glyph glyph-name="kappa.small" unicode="&#xe808;" horiz-adv-x="448" 
d="M488 534l-277 -248l167 -286h-32l-156 266l-88 -79l-40 -187h-29l113 534h29l-53 -248q-1 -5 -3 -13l-4 -16l-3.5 -14.5t-1.5 -9.5h4l43 41l290 260h41z" />
    <glyph glyph-name="lambda.small" unicode="&#xe809;" horiz-adv-x="491" 
d="M424 0h-30l-74 384q-8 40 -12 65t-4 36h-4l-23 -40l-19 -33.5l-17 -28.5l-236 -383h-35l331 534h19z" />
    <glyph glyph-name="mu.small" unicode="&#xe80a;" horiz-adv-x="647" 
d="M332 312l269 222h20l-113 -534h-29l85 403q3 14 8 33.5t12 44.5h-5q-25 -25 -53 -47l-199 -163l-129 163q-18 23 -33 47h-5q-2 -17 -5.5 -36t-8.5 -42l-85 -403h-29l113 534h12z" />
    </font>
</defs>
</svg>
