<?xml version="1.0" standalone="no"?>
<!DOCTYPE svg PUBLIC "-//W3C//DTD SVG 1.1//EN" "http://www.w3.org/Graphics/SVG/1.1/DTD/svg11.dtd" >
<svg>
<metadata>
Created by FontForge 20090622 at Tue Sep 17 15:06:18 2019
 By deploy user
Copyright (c) 2013 by Aviation Partners. All rights reserved.
</metadata>
<defs>
<font id="CorsicaRamblerLX-Light" horiz-adv-x="565" >
  <font-face 
    font-family="Corsica Rambler LX Light"
    font-weight="300"
    font-stretch="normal"
    units-per-em="1000"
    panose-1="2 0 0 0 0 0 0 0 0 0"
    ascent="775"
    descent="-225"
    x-height="522"
    cap-height="712"
    bbox="-110 -256 1176 959"
    underline-thickness="50"
    underline-position="-50"
    unicode-range="U+000D-U+FB04"
  />
<missing-glyph horiz-adv-x="599" 
d="M49 724h500v-724h-500v724zM512 37v650h-426v-650h426zM188 233l-28 29l107 109l-107 110l28 28l109 -109l109 109l28 -28l-109 -110l109 -109l-28 -29l-109 109z" />
    <glyph glyph-name=".notdef" horiz-adv-x="599" 
d="M49 724h500v-724h-500v724zM512 37v650h-426v-650h426zM188 233l-28 29l107 109l-107 110l28 28l109 -109l109 109l28 -28l-109 -110l109 -109l-28 -29l-109 109z" />
    <glyph glyph-name="NULL" horiz-adv-x="0" 
 />
    <glyph glyph-name="NULL" horiz-adv-x="0" 
 />
    <glyph glyph-name="nonmarkingreturn" unicode="&#xd;" horiz-adv-x="333" 
 />
    <glyph glyph-name="space" unicode=" " horiz-adv-x="280" 
 />
    <glyph glyph-name="exclam" unicode="!" horiz-adv-x="236" 
d="M103 182v530h29v-530h-29zM93 52q12 12 26 10.5t23 -11t10.5 -23t-10.5 -24.5q-11 -12 -24.5 -10.5t-23 11t-11.5 23t10 24.5z" />
    <glyph glyph-name="quotedbl" unicode="&#x22;" horiz-adv-x="368" 
d="M79 712h39l-10 -270h-19zM233 712h39l-10 -270h-19z" />
    <glyph glyph-name="numbersign" unicode="#" horiz-adv-x="573" 
d="M429 703h29l-34 -212h103v-29h-107l-35 -218h112v-29h-116l-35 -215h-29l34 215h-166l-34 -215h-29l34 215h-111v29h116l34 218h-120v29h125l33 212h30l-34 -212h166zM356 244l34 218h-165l-35 -218h166z" />
    <glyph glyph-name="dollar" unicode="$" horiz-adv-x="534" 
d="M261 783v-59q80 -2 149 -50v-36q-67 55 -149 57v-303l37.5 -20t27.5 -17q24 -15 53 -39q30 -24 43.5 -54.5t13.5 -67.5q0 -81 -49 -136q-51 -57 -126 -67v-61h-25v59q-98 0 -167 54v38q73 -63 167 -63v352q-16 9 -28 15t-22.5 12l-21 12.5t-23.5 15.5q-35 25 -52 53.5
t-20 72.5q0 72 48 119q49 47 119 53v60h25zM406 192q0 28 -9.5 50t-27.5 41.5t-45 37t-63 36.5v-336q31 6 58 20.5t46 37t30 51.5t11 62zM99 552q0 -48 35 -80.5t102 -66.5v288q-29 -3 -54 -14t-43.5 -29t-29 -43t-10.5 -55z" />
    <glyph glyph-name="percent" unicode="%" horiz-adv-x="800" 
d="M178 724q147 0 147 -184t-147 -184q-148 0 -148 184t148 184zM178 385q117 0 117 155t-117 155q-118 0 -118 -155t118 -155zM591 715l-373 -727l-26 13l374 727zM622 361q147 0 147 -184t-147 -184q-148 0 -148 184t148 184zM622 22q117 0 117 155t-117 155
q-118 0 -118 -155t118 -155z" />
    <glyph glyph-name="ampersand" unicode="&#x26;" horiz-adv-x="682" 
d="M285 390q-98 -53 -145 -98q-44 -44 -44 -112q0 -63 56 -113q56 -49 123 -49q119 0 217 152zM291 425q1 1 6.5 4l11.5 6l11.5 5.5t8.5 4.5l20 12q14 8 21 13l19 14q24 18 39.5 42.5t15.5 54.5q0 25 -9.5 46t-27 36t-41 23.5t-50.5 8.5t-50 -9t-39.5 -24t-26 -35t-9.5 -43
q0 -25 17 -57q8 -15 16 -27t15 -20zM528 173l165 -173h-40l-141 148q-102 -159 -232 -159q-92 0 -154 56q-60 57 -60 141q0 74 50 124q25 25 62 50.5t86 51.5q-67 72 -84 104q-19 34 -19 66q0 60 46 100q46 42 110 42q63 0 110 -42q47 -41 47 -105q0 -60 -59 -107l-26.5 -20
t-23.5 -16l-54 -30l197 -210l97 150h33z" />
    <glyph glyph-name="quotesingle" unicode="'" horiz-adv-x="200" 
d="M76 712h39l-10 -270h-19z" />
    <glyph glyph-name="parenleft" unicode="(" horiz-adv-x="286" 
d="M234 724q-20 -32 -36.5 -61t-29.5 -54t-25 -60t-24 -80q-23 -92 -23 -188q0 -152 46 -265q12 -29 22.5 -52t20.5 -41l22 -39l27 -46h-29q-16 26 -28 48l-21 39t-19.5 40t-22.5 52q-47 113 -47 264t47 264q24 58 42 93l21 38.5t28 47.5h29z" />
    <glyph glyph-name="parenright" unicode=")" horiz-adv-x="286" 
d="M81 724q16 -26 28 -47.5l21 -38.5q18 -35 42 -93q47 -113 47 -264t-47 -264q-12 -29 -22.5 -52t-19.5 -40l-21 -39t-28 -48h-29l27 46l22 39q19 36 42 93q24 57 35.5 123.5t11.5 141.5q0 98 -24 188q-23 91 -48 140q-13 25 -29.5 54t-36.5 61h29z" />
    <glyph glyph-name="asterisk" unicode="*" horiz-adv-x="428" 
d="M197 712h35l-5 -148l140 50l11 -34l-142 -42l90 -117l-28 -21l-84 122l-84 -122l-28 21l90 117l-142 42l11 34l140 -50z" />
    <glyph glyph-name="plus" unicode="+" 
d="M268 472h29v-216h215v-29h-215v-215h-29v215h-215v29h215v216z" />
    <glyph glyph-name="comma" unicode="," horiz-adv-x="268" 
d="M49 -194q55 142 67 258l45 11q-42 -173 -94 -276z" />
    <glyph glyph-name="hyphen" unicode="-" horiz-adv-x="300" 
d="M39 322h222v-29h-222v29z" />
    <glyph glyph-name="period" unicode="." horiz-adv-x="268" 
d="M109 52q12 12 26 10.5t23 -11t10.5 -23t-10.5 -24.5q-11 -12 -24.5 -10.5t-23 11t-11.5 23t10 24.5z" />
    <glyph glyph-name="slash" unicode="/" horiz-adv-x="415" 
d="M56 -172l-27 9l326 895l27 -10z" />
    <glyph glyph-name="zero" unicode="0" 
d="M522 327q0 -181 -62 -260q-62 -78 -171 -78q-111 0 -172 78q-61 77 -61 260v59q0 183 61 260q61 78 172 78q109 0 171 -78q62 -79 62 -260v-59zM492 382q0 84 -13.5 143.5t-39 97t-63.5 55t-87 17.5t-87 -17.5t-63.5 -55t-39 -97t-13.5 -143.5v-51q0 -84 13.5 -143.5
t39 -97t63.5 -55t87 -17.5t87 17.5t63.5 55t39 97t13.5 143.5v51z" />
    <glyph glyph-name="one" unicode="1" 
d="M350 712h26v-712h-29v668l-217 -181v39z" />
    <glyph glyph-name="two" unicode="2" 
d="M491 29v-29h-422v20l336 360q55 58 55 124q0 78 -56 134q-56 57 -132 57q-93 0 -172 -81v39q74 71 172 71q89 0 153 -64q65 -63 65 -152q0 -81 -65 -151l-308 -328h374z" />
    <glyph glyph-name="three" unicode="3" 
d="M186 368v28h81q69 0 116 42t47 100q0 66 -50 111q-49 46 -119 46q-78 0 -149 -41v35q65 35 149 35q86 0 142 -53q57 -53 57 -133q0 -49 -29.5 -91t-84.5 -64q66 -22 102.5 -71.5t36.5 -109.5q0 -90 -65 -152q-64 -61 -162 -61q-83 0 -152 33v34q73 -38 152 -38
q81 0 139 53q58 54 58 131q0 66 -56 116t-132 50h-81z" />
    <glyph glyph-name="four" unicode="4" 
d="M449 1h-29v156h-380v31l397 524h12v-526h90v-29h-90v-156zM420 186v299q0 46 0.5 85.5t1.5 72.5h-4q-8 -12 -31.5 -44l-64.5 -86l-248 -327h346z" />
    <glyph glyph-name="five" unicode="5" 
d="M242 -11q-80 0 -152 32v34q73 -37 152 -37q86 0 148 60q63 60 63 145q0 88 -57 147q-56 60 -142 60q-74 0 -151 -43q-2 1 -5.5 3t-7.5 4l44 318h316v-29h-291l-35 -252q78 28 131 28q97 0 162 -68q66 -68 66 -165q0 -100 -71 -169q-71 -68 -170 -68z" />
    <glyph glyph-name="six" unicode="6" 
d="M348 712h36l-217 -298q58 36 128 36q96 0 162 -66t66 -160q0 -95 -66 -165t-168 -70q-99 0 -167 68q-68 70 -68 165q0 84 83 200zM289 18q85 0 144 59q60 60 60 143q0 86 -58 143q-57 58 -141 58q-83 0 -147 -57q-63 -57 -63 -142q0 -79 58 -141q58 -63 147 -63z" />
    <glyph glyph-name="seven" unicode="7" 
d="M465 683h-406v29h450v-11l-380 -701h-36z" />
    <glyph glyph-name="eight" unicode="8" 
d="M354 386q76 -17 113 -73q39 -57 39 -118q0 -89 -63 -147q-62 -59 -154 -59q-91 0 -155 59q-62 59 -62 147q0 60 38 118q39 56 114 73q-66 21 -95 67q-29 47 -29 90q0 78 55 129q55 52 134 52t134 -52q55 -51 55 -129q0 -44 -30 -90q-28 -45 -94 -67zM130 546
q0 -56 48 -102q49 -45 111 -45t110 45q49 46 49 102q0 62 -46 105q-46 44 -113 44t-114 -44q-45 -44 -45 -105zM289 18q77 2 132 52q55 52 55 125q0 76 -57 126q-56 49 -130 49t-130 -49q-57 -50 -57 -126q0 -73 55 -125q55 -50 132 -52z" />
    <glyph glyph-name="nine" unicode="9" 
d="M228 0h-36l217 299q-59 -36 -128 -36q-96 0 -162 66t-66 160t66 165q66 70 168 70q99 0 167 -69q68 -68 68 -164q0 -82 -83 -200zM287 695q-85 0 -145 -60q-59 -59 -59 -142q0 -86 57 -144q58 -57 142 -57q83 0 146 57q64 57 64 142q0 79 -58 141q-59 63 -147 63z" />
    <glyph glyph-name="colon" unicode=":" horiz-adv-x="268" 
d="M109 52q12 12 26 10.5t23 -11t10.5 -23t-10.5 -24.5q-11 -12 -24.5 -10.5t-23 11t-11.5 23t10 24.5zM109 518q12 12 26 10.5t23 -11t10.5 -23t-10.5 -24.5q-11 -12 -24.5 -10.5t-23 11t-11.5 23t10 24.5z" />
    <glyph glyph-name="semicolon" unicode=";" horiz-adv-x="268" 
d="M109 519q12 12 26 10.5t23 -11t10.5 -23t-10.5 -24.5q-11 -12 -24.5 -10.5t-23 11t-11.5 23t10 24.5zM49 -194q55 142 67 258l45 11q-42 -173 -94 -276z" />
    <glyph glyph-name="less" unicode="&#x3c;" 
d="M515 460v-33l-437 -186l437 -183v-34l-465 200v35z" />
    <glyph glyph-name="equal" unicode="=" 
d="M53 349h459v-29h-459v29zM53 163h459v-29h-459v29z" />
    <glyph glyph-name="greater" unicode="&#x3e;" 
d="M50 427v33l465 -201v-35l-465 -200v34l437 183z" />
    <glyph glyph-name="question" unicode="?" horiz-adv-x="495" 
d="M243 724q78 0 131 -53q54 -53 54 -129q0 -37 -15.5 -66.5t-39.5 -55t-51 -48.5t-51 -45.5t-39.5 -45.5t-15.5 -50v-49h-29v49q0 32 15.5 58t39 50t51 46t51 46t39 51t15.5 61q0 59 -47 106q-46 46 -112 46q-59 0 -100 -38v39q43 28 104 28zM178 52q12 12 26 10.5t23 -11
t10.5 -23t-10.5 -24.5q-11 -12 -24.5 -10.5t-23 11t-11.5 23t10 24.5z" />
    <glyph glyph-name="at" unicode="@" horiz-adv-x="1021" 
d="M753 476l-45 -320q-4 -21 -5.5 -36t-1.5 -24q0 -67 59 -67q68 0 119 83q52 82 52 199q0 179 -113 281q-112 103 -283 103q-188 0 -312 -129q-125 -128 -125 -317q0 -87 30 -165.5t85 -141.5q57 -63 143 -100.5t192 -37.5v-29q-112 0 -204 39t-152 105t-92 151t-32 179
q0 204 134 340q135 135 334 135q185 0 304 -112q121 -112 121 -292q0 -140 -59 -231q-59 -89 -143 -89q-45 0 -68 31.5t-12 100.5q-81 -132 -210 -132q-88 0 -136 63q-48 64 -48 156q0 106 63 186q65 80 169 80q62 0 115 -37q54 -36 77 -75l15 104zM704 334q-3 5 -8.5 13
t-24.5 29q-12 15 -28.5 29t-36 25t-42 18t-48.5 8q-88 0 -145 -69q-56 -68 -56 -167q0 -84 43 -137q43 -54 119 -54q55 0 103 36q49 37 77 86t34 95z" />
    <glyph glyph-name="A" unicode="A" horiz-adv-x="696" 
d="M342 712h12l315 -712h-34l-77 179h-420l-77 -179h-34zM546 208l-144 327l-32 75.5t-20 48.5h-4q-7 -18 -20 -48.5l-32 -75.5l-144 -327h396z" />
    <glyph glyph-name="B" unicode="B" horiz-adv-x="582" 
d="M126 683v-307h169q78 0 122.5 38.5t44.5 114.5q0 73 -52 113q-52 41 -128 41h-156zM126 347v-318h174q84 0 137 41t53 121q0 76 -50.5 116t-137.5 40h-176zM97 712h181q102 0 158 -54q56 -53 56 -129q0 -122 -107 -164q64 -19 99.5 -65.5t35.5 -110.5q0 -90 -62 -140
q-61 -49 -154 -49h-207v712z" />
    <glyph glyph-name="C" unicode="C" horiz-adv-x="646" 
d="M579 31q-81 -42 -168 -42q-151 0 -255 104q-103 104 -103 263t103 263q103 105 255 105q87 0 168 -42v-34q-77 47 -168 47q-142 0 -235 -99t-93 -240t93 -240q93 -98 235 -98q90 0 168 48v-35z" />
    <glyph glyph-name="D" unicode="D" horiz-adv-x="698" 
d="M253 712q192 0 292 -100t100 -256t-100 -256t-292 -100h-156v712h156zM250 29q169 0 267 84t98 243t-98 243t-267 84h-124v-654h124z" />
    <glyph glyph-name="E" unicode="E" horiz-adv-x="534" 
d="M97 0v712h364v-29h-335v-291h325v-29h-325v-334h335v-29h-364z" />
    <glyph glyph-name="F" unicode="F" horiz-adv-x="484" 
d="M425 683h-299v-293h289v-29h-289v-361h-29v712h328v-29z" />
    <glyph glyph-name="G" unicode="G" horiz-adv-x="707" 
d="M393 340h238v-314q-104 -32 -220 -32q-152 0 -255 103t-103 261q0 159 103 262q104 104 255 104q104 0 193 -46v-32q-95 49 -193 49q-143 0 -236 -98q-92 -98 -92 -239q0 -140 92 -238q93 -97 236 -97q107 0 191 26v262h-209v29z" />
    <glyph glyph-name="H" unicode="H" horiz-adv-x="683" 
d="M557 391v321h29v-712h-29v362h-431v-362h-29v712h29v-321h431z" />
    <glyph glyph-name="I" unicode="I" horiz-adv-x="223" 
d="M126 712v-712h-29v712h29z" />
    <glyph glyph-name="J" unicode="J" horiz-adv-x="412" 
d="M286 712h29v-532q0 -86 -47 -139q-46 -52 -120 -52q-57 0 -101 32v37q49 -40 103 -40q55 0 95 46q41 47 41 115v533z" />
    <glyph glyph-name="K" unicode="K" horiz-adv-x="542" 
d="M180 304l-32 32.5t-19 20.5h-5q1 -14 1.5 -31.5t0.5 -35.5v-290h-29v712h29v-255q0 -19 -0.5 -36.5t-1.5 -31.5h5q7 8 20 21t33 31l295 271h39l-364 -338l373 -374h-40z" />
    <glyph glyph-name="L" unicode="L" horiz-adv-x="422" 
d="M126 712v-683h269v-29h-298v712h29z" />
    <glyph glyph-name="M" unicode="M" horiz-adv-x="807" 
d="M691 0v557v24.5t1 30.5t1 26v11h-4l-53 -54l-227 -227l-227 227l-53 54h-4v-37q1 -17 1 -30.5v-24.5v-557h-29v712h9l303 -303l302 303h9v-712h-29z" />
    <glyph glyph-name="N" unicode="N" horiz-adv-x="726" 
d="M629 712v-712h-17l-410 560l-45 62.5t-30 43.5l-3 -1q1 -16 1.5 -47t0.5 -77v-541h-29v712h28l409 -557q28 -37 43.5 -60t20.5 -32h4q-1 18 -1.5 51.5t-0.5 82.5v515h29z" />
    <glyph glyph-name="O" unicode="O" horiz-adv-x="822" 
d="M157 617q105 107 254 107t253 -107q105 -107 105 -261q0 -155 -105 -261q-103 -106 -253 -106q-149 0 -254 106q-104 107 -104 261t104 261zM739 356q0 142 -96 240q-95 99 -232 99t-233 -99q-95 -98 -95 -240q0 -140 95 -240q96 -98 233 -98t232 98q96 99 96 240z" />
    <glyph glyph-name="P" unicode="P" horiz-adv-x="563" 
d="M97 712h179q116 0 181 -62t65 -155t-65 -155q-64 -61 -181 -61h-150v-279h-29v712zM126 683v-375h149q50 0 90 13t68.5 37.5t43.5 59t15 77.5t-15.5 78t-43.5 59.5t-68.5 37.5t-89.5 13h-149z" />
    <glyph glyph-name="Q" unicode="Q" horiz-adv-x="822" 
d="M804 29v-29h-393q-150 0 -254 104t-104 257q0 154 104 258q105 105 254 105t253 -105q105 -104 105 -258q0 -112 -61 -200q-59 -87 -160 -131v-4q66 3 115 3h141zM178 598q-95 -97 -95 -237t95 -237q97 -95 233 -95q137 0 232 95q96 96 96 237t-96 237q-94 97 -232 97
q-137 0 -233 -97z" />
    <glyph glyph-name="R" unicode="R" horiz-adv-x="556" 
d="M97 712h179q109 0 168 -57q60 -57 60 -142q0 -41 -14 -75.5t-40.5 -61t-65.5 -42.5t-90 -19l226 -315h-36l-226 315h-132v-315h-29v712zM126 683v-339h148q93 0 146.5 45.5t53.5 123.5q0 79 -53.5 124.5t-146.5 45.5h-148z" />
    <glyph glyph-name="S" unicode="S" horiz-adv-x="502" 
d="M99 552q0 -31 14.5 -54t38.5 -42t54 -35l61 -32q32 -16 62.5 -34t54 -41t38 -52.5t14.5 -67.5q0 -88 -59 -147q-58 -58 -148 -58q-91 0 -160 54v38q73 -63 156 -63q75 0 128 48q53 50 53 126q0 46 -25 77t-62.5 55t-81 45t-81 45.5t-62.5 56.5t-25 80q0 78 54 125
q55 48 133 48q83 0 154 -50v-36q-71 57 -150 57q-65 0 -114 -38q-47 -38 -47 -105z" />
    <glyph glyph-name="T" unicode="T" horiz-adv-x="471" 
d="M251 683v-683h-29v683h-195v29h417v-29h-193z" />
    <glyph glyph-name="U" unicode="U" horiz-adv-x="663" 
d="M570 245q0 -116 -70 -186q-69 -70 -168 -70q-100 0 -170 69q-69 70 -69 187v467h29v-459q0 -111 60 -172q62 -62 150 -62q86 0 148 62q61 61 61 172v459h29v-467z" />
    <glyph glyph-name="V" unicode="V" horiz-adv-x="650" 
d="M27 712h31l216 -532l32 -82t17 -47h4q27 76 48 129l217 532h31l-290 -712h-17z" />
    <glyph glyph-name="W" unicode="W" horiz-adv-x="886" 
d="M44 712h29l93 -528q3 -16 6.5 -36.5l7.5 -45.5l9 -58h4q1 4 6.5 19.5l13 35.5l15.5 41.5l15 39.5l194 481h12l194 -481l13.5 -34.5t15.5 -44.5q16 -48 21 -57h4l9 58l7.5 45.5t6.5 36.5l93 528h29l-125 -712h-33l-205 509l-20.5 52.5t-13.5 37.5h-4q-5 -15 -13.5 -37.5
l-20.5 -52.5l-205 -509h-33z" />
    <glyph glyph-name="X" unicode="X" horiz-adv-x="564" 
d="M48 712h35l150 -235l12.5 -21.5l14.5 -25.5l19 -33h6q28 51 46 80l150 235h35l-217 -339l238 -373h-34l-182 284q-27 40 -36 65h-5q-2 -2 -6 -9l-9.5 -16.5l-11.5 -20l-11 -19.5l-181 -284h-34l238 373z" />
    <glyph glyph-name="Y" unicode="Y" horiz-adv-x="560" 
d="M27 712h33l163 -283l33.5 -58.5t21.5 -40.5h4q9 19 22.5 43l31.5 55l163 284h34l-239 -415v-297h-29v297z" />
    <glyph glyph-name="Z" unicode="Z" horiz-adv-x="563" 
d="M66 712h468v-20l-412 -590l-15 -20.5l-18 -23.5l-20 -27v-4h11t21 1q14 1 25 1h21h387v-29h-505v20l418 598l27 37l20 26v4q-12 -1 -33.5 -1.5t-53.5 -0.5h-341v29z" />
    <glyph glyph-name="bracketleft" unicode="[" horiz-adv-x="282" 
d="M250 725h-114v-882h114v-29h-143v940h143v-29z" />
    <glyph glyph-name="backslash" unicode="\" horiz-adv-x="415" 
d="M355 -172l-326 894l27 10l326 -895z" />
    <glyph glyph-name="bracketright" unicode="]" horiz-adv-x="282" 
d="M146 725h-114v29h143v-940h-143v29h114v882z" />
    <glyph glyph-name="asciicircum" unicode="^" horiz-adv-x="544" 
d="M283 724l199 -415h-33l-178 376l-176 -376h-34l198 415h24z" />
    <glyph glyph-name="underscore" unicode="_" horiz-adv-x="489" 
d="M482 -123v-29h-475v29h475z" />
    <glyph glyph-name="grave" unicode="`" horiz-adv-x="374" 
d="M268 592l-13 -20l-164 104l22 29z" />
    <glyph glyph-name="a" unicode="a" horiz-adv-x="563" 
d="M446 238q-93 40 -207 40q-63 0 -109 -39q-46 -37 -46 -95q0 -57 40.5 -91.5t104.5 -34.5q81 0 149 54t68 122v44zM255 535q95 0 157 -50q63 -50 63 -130v-355h-22l-4 116q-28 -57 -91 -92q-62 -35 -131 -35q-79 0 -126 44q-47 45 -47 111q0 65 52 114t133 49
q111 0 207 -38v80q0 45 -18.5 75t-47 48.5t-62 26t-63.5 7.5q-29 0 -54 -6q-13 -2 -22.5 -5t-16.5 -5l-40 -17v33q75 29 133 29z" />
    <glyph glyph-name="b" unicode="b" horiz-adv-x="668" 
d="M348 506q-92 0 -162 -66q-69 -65 -69 -145v-129q26 -56 85 -102q61 -46 143 -46q101 0 169 69q67 68 67 174q0 104 -66 175q-64 70 -167 70zM111 0h-23v764h29v-373q28 66 95 105q66 39 140 39q115 0 187 -82q72 -81 72 -192q0 -113 -75 -192q-74 -80 -188 -80
q-38 0 -72.5 10t-64 27t-54 39.5t-42.5 48.5z" />
    <glyph glyph-name="c" unicode="c" horiz-adv-x="496" 
d="M316 506q-95 0 -162 -69q-66 -68 -66 -176q0 -109 66 -176q67 -67 162 -67q69 0 133 44v-35q-62 -38 -133 -38q-109 0 -184 76q-74 77 -74 196t74 196q75 78 184 78q71 0 133 -38v-36q-65 45 -133 45z" />
    <glyph glyph-name="d" unicode="d" horiz-adv-x="668" 
d="M320 18q91 0 162 62q70 63 70 140v136q-24 56 -86 103t-143 47q-102 0 -169 -70q-66 -71 -66 -175t65 -174q64 -69 167 -69zM552 764h29v-764h-22l-5 132q-32 -66 -97 -105q-67 -38 -140 -38q-116 0 -188 80q-71 82 -71 192q0 111 74 193q73 81 188 81q139 0 232 -126
v355z" />
    <glyph glyph-name="e" unicode="e" horiz-adv-x="569" 
d="M482 301q0 97 -54 151t-133 54q-74 0 -135 -58q-61 -56 -70 -147h392zM88 272q0 -107 63 -180q65 -74 163 -74q88 0 165 39v-33q-75 -35 -167 -35q-108 0 -181 81q-73 80 -73 198q0 107 67 186q67 81 171 81q96 0 156 -64q60 -63 60 -176q0 -7 -0.5 -12.5t-1.5 -10.5
h-422z" />
    <glyph glyph-name="f" unicode="f" horiz-adv-x="328" 
d="M33 522h80v103q0 62 44 106t105 44q6 0 15.5 -1t22.5 -3v-29q-13 2 -22.5 3t-15.5 1q-49 0 -85 -36q-35 -35 -35 -85v-103h153v-29h-153v-493h-29v493h-80v29z" />
    <glyph glyph-name="g" unicode="g" horiz-adv-x="649" 
d="M532 363q-15 30 -38 56t-51.5 45.5t-63 30.5t-71.5 11q-94 0 -157 -68t-63 -166q0 -100 62 -168q63 -66 158 -66q91 0 157 68q67 67 67 166v91zM538 522h23v-497q0 -105 -73 -177q-72 -73 -178 -73q-108 0 -201 44v34q94 -49 203 -49q81 0 151 59q69 58 69 151v143
q-32 -72 -93 -110t-133 -38q-110 0 -179 77q-69 76 -69 186q0 108 69 185q70 78 179 78q141 0 228 -123z" />
    <glyph glyph-name="h" unicode="h" horiz-adv-x="609" 
d="M88 764h29v-343q30 49 82 81.5t119 32.5q91 0 147 -62t56 -158v-315h-29v312q0 47 -13 83t-37 61t-56.5 37.5t-71.5 12.5q-79 0 -132 -49q-55 -49 -65 -97v-360h-29v764z" />
    <glyph glyph-name="i" unicode="i" horiz-adv-x="205" 
d="M117 0h-29v522h29v-522zM81 629q-11 10 -9 23t10 21.5t20 10t23 -10.5q12 -11 10.5 -23t-10 -20t-21.5 -10t-23 9z" />
    <glyph glyph-name="j" unicode="j" horiz-adv-x="205" 
d="M-65 -195q5 -1 11.5 -1h16.5q59 0 92 42q33 40 33 99v577h29v-572q0 -38 -10.5 -70t-30 -55t-49 -36.5t-66.5 -13.5q-16 0 -26 2v28zM81 629q-11 10 -9 23t10 21.5t20 10t23 -10.5q12 -11 10.5 -23t-10 -20t-21.5 -10t-23 9z" />
    <glyph glyph-name="k" unicode="k" horiz-adv-x="456" 
d="M157 223q-15 14 -24 23.5l-14 14.5h-3q1 -10 1 -22v-26v-213h-29v764h29v-429v-26.5t-1 -23.5h3q5 6 15 15t24 23l216 199h41l-267 -248l273 -274h-41z" />
    <glyph glyph-name="l" unicode="l" horiz-adv-x="205" 
d="M88 0v764h29v-764h-29z" />
    <glyph glyph-name="m" unicode="m" horiz-adv-x="936" 
d="M658 535q43 0 78 -14.5t60 -41.5t38.5 -66t13.5 -87v-326h-29v321q0 41 -10.5 75t-31 58.5t-51 38t-70.5 13.5q-71 0 -123 -54q-51 -53 -51 -113v-339h-29v323q0 39 -11 72.5t-31.5 58t-51 38.5t-69.5 14q-68 0 -115 -47q-48 -48 -58 -92v-367h-29v522h24l3 -97
q24 48 71 79t107 31q61 0 109 -31.5t68 -92.5q29 58 78.5 91t109.5 33z" />
    <glyph glyph-name="n" unicode="n" horiz-adv-x="609" 
d="M88 522h24l3 -104q29 51 81 84t121 33q92 0 148 -62t56 -158v-315h-29v312q0 47 -13 83t-37 61t-56.5 37.5t-71.5 12.5q-76 0 -126 -44q-51 -44 -71 -94v-368h-29v522z" />
    <glyph glyph-name="o" unicode="o" horiz-adv-x="644" 
d="M88 260q0 -102 67 -172t166 -70t167 69q68 71 68 174q0 104 -69 175q-69 70 -166 70t-165 -71t-68 -175zM321 535q112 0 189 -80q76 -79 76 -195q0 -113 -76 -192t-189 -79q-112 0 -188 78q-75 79 -75 192q0 117 76 196q77 80 187 80z" />
    <glyph glyph-name="p" unicode="p" horiz-adv-x="668" 
d="M348 506q-92 0 -162 -66q-69 -65 -69 -145v-129q26 -56 85 -102q61 -46 143 -46q101 0 169 69q67 68 67 174q0 104 -66 175q-64 70 -167 70zM88 -216v738h23l5 -128q36 66 99.5 103.5t136.5 37.5q115 0 187 -82q72 -81 72 -192q0 -113 -75 -192q-74 -80 -188 -80
q-76 0 -135.5 36t-95.5 88v-329h-29z" />
    <glyph glyph-name="q" unicode="q" horiz-adv-x="668" 
d="M320 18q91 0 162 65q70 64 70 145v131q-27 57 -87 102t-142 45q-102 0 -169 -70q-66 -71 -66 -175t65 -174q64 -69 167 -69zM559 522h22v-738h-29v344q-30 -65 -96 -102q-64 -37 -139 -37q-116 0 -188 80q-71 82 -71 192q0 111 74 193q73 81 188 81q38 0 72.5 -10
t64.5 -27t54.5 -40t42.5 -49z" />
    <glyph glyph-name="r" unicode="r" horiz-adv-x="350" 
d="M116 412q16 45 60 81q44 37 103 37q23 0 41 -3v-31q-20 3 -41 3q-69 0 -116 -62q-46 -61 -46 -112v-325h-29v522h24z" />
    <glyph glyph-name="s" unicode="s" horiz-adv-x="431" 
d="M98 408q0 -32 27.5 -60.5t66.5 -50.5l58.5 -32.5t56 -38t41.5 -45t16 -55.5q0 -60 -46 -99q-46 -38 -113 -38q-70 0 -133 26v34q55 -31 130 -31q28 0 52 7t42 20.5t28 33t10 44.5q0 33 -27.5 62t-66.5 51l-58.5 33t-55.5 37t-41.5 44t-16.5 54q0 28 11.5 52.5t31.5 41.5
t48.5 27t61.5 10q71 0 127 -31v-34q-62 36 -127 36q-44 0 -84 -27q-39 -27 -39 -71z" />
    <glyph glyph-name="t" unicode="t" horiz-adv-x="334" 
d="M298 -5q-8 -3 -21 -3q-81 0 -121.5 46.5t-40.5 124.5v330h-79v29h79v129l29 11v-140h154v-29h-154v-332q0 -29 8 -54t23.5 -44.5t38 -30.5t51.5 -11q11 0 19.5 0.5t13.5 1.5v-28z" />
    <glyph glyph-name="u" unicode="u" horiz-adv-x="608" 
d="M491 522h29v-309q0 -101 -61 -162q-60 -62 -155 -62q-96 0 -156 62q-60 61 -60 162v309h29v-306q0 -48 14 -84.5t39 -62t59 -38.5t75 -13q80 0 133 51q54 52 54 147v306z" />
    <glyph glyph-name="v" unicode="v" horiz-adv-x="541" 
d="M479 522h32l-237 -522h-8l-236 522h32l158 -348l12 -27t15 -37l21 -51h5q22 58 48 114z" />
    <glyph glyph-name="w" unicode="w" horiz-adv-x="794" 
d="M734 522h30l-140 -522h-24l-176 372q-6 11 -12 26l-13 34h-4q-7 -23 -24 -59l-177 -373h-24l-140 522h30l95 -349q8 -30 15 -60l14 -60h4q8 25 54 119l149 314h11l149 -314l54 -119h5l14 60t15 60z" />
    <glyph glyph-name="x" unicode="x" horiz-adv-x="502" 
d="M269 275l203 -275h-36l-137 187q-29 36 -45 66h-5q-21 -33 -48 -69l-135 -184h-35l203 275l-182 247h36l111 -151l26.5 -37.5l23.5 -35.5h4l28.5 41.5l20.5 28.5l112 154h35z" />
    <glyph glyph-name="y" unicode="y" horiz-adv-x="542" 
d="M480 522h33l-348 -738h-32l121 258l-224 480h32l162 -345l29 -64.5t15 -37.5h5q10 29 45 101z" />
    <glyph glyph-name="z" unicode="z" horiz-adv-x="483" 
d="M79 27q12 1 35 1.5t58 0.5h275v-29h-411v17l305 411l49 61v6q-10 -1 -35 -1.5t-65 -0.5h-242v29h385v-18l-298 -401l-32.5 -42.5t-23.5 -28.5v-5z" />
    <glyph glyph-name="braceleft" unicode="{" horiz-adv-x="281" 
d="M249 754v-29h-36q-37 0 -61 -26t-24 -69q0 -35 26 -107q26 -70 26 -108q0 -94 -80 -132q80 -38 80 -131q0 -36 -26 -108q-26 -70 -26 -107q0 -42 24 -69t61 -27h36v-29h-36q-24 0 -45 9.5t-36.5 26t-24 39.5t-8.5 50q0 30 26 108t26 107q0 54 -32.5 85.5t-86.5 31.5v29
q54 0 86.5 31t32.5 85q0 29 -26 107t-26 108q0 55 31.5 90t82.5 35h36z" />
    <glyph glyph-name="bar" unicode="|" horiz-adv-x="235" 
d="M132 764v-980h-29v980h29z" />
    <glyph glyph-name="braceright" unicode="}" horiz-adv-x="281" 
d="M32 754h36q51 0 82.5 -35t31.5 -90q0 -30 -26 -108t-26 -107q0 -54 32.5 -85t86.5 -31v-29q-54 0 -86.5 -31.5t-32.5 -85.5q0 -29 26 -107t26 -108q0 -27 -8.5 -50t-24 -39.5t-36.5 -26t-45 -9.5h-36v29h36q37 0 61 27t24 69q0 37 -26 107q-26 72 -26 108q0 93 80 131
q-80 38 -80 132q0 38 26 108q26 72 26 107q0 43 -24 69t-61 26h-36v29z" />
    <glyph glyph-name="asciitilde" unicode="~" horiz-adv-x="573" 
d="M44 194q0 30 8.5 52t22.5 36.5t32 21.5t37 7q46 0 148 -45q103 -44 137 -44q35 0 53 24t18 63h29q0 -30 -8.5 -52t-22.5 -36.5t-32 -21.5t-37 -7q-40 0 -146 45q-103 44 -139 44q-34 0 -52.5 -23.5t-18.5 -63.5h-29z" />
    <glyph glyph-name="uni00A0" unicode="&#xa0;" horiz-adv-x="280" 
 />
    <glyph glyph-name="exclamdown" unicode="&#xa1;" horiz-adv-x="236" 
d="M133 303v-519h-29v519h29zM142 432q-11 -12 -24.5 -10t-23 11.5t-11.5 23t10 24.5t26 9.5t23 -10.5t10.5 -22.5t-10.5 -25.5z" />
    <glyph glyph-name="cent" unicode="&#xa2;" horiz-adv-x="496" 
d="M325 603v-68q68 -2 126 -38v-36q-60 42 -126 45v-488q70 3 126 44v-35q-58 -36 -126 -38v-73h-30v74q-101 9 -169 84q-66 75 -66 187t67 188t168 85v69h30zM295 505q-89 -9 -147 -76t-58 -168q0 -100 59 -167q59 -66 146 -74v485z" />
    <glyph glyph-name="sterling" unicode="&#xa3;" horiz-adv-x="564" 
d="M160 273v-244h371v-29h-487v29h87v244h-87v29h87v196q0 90 59 158t150 68q61 0 110 -32v-37q-52 40 -110 40q-76 0 -128 -58t-52 -139v-196h290v-29h-290z" />
    <glyph glyph-name="currency" unicode="&#xa4;" 
d="M498 528l20 -20l-75 -75q53 -62 53 -141q0 -78 -53 -140l75 -75l-20 -20l-75 74q-62 -53 -141 -53q-78 0 -140 53l-75 -74l-21 20l75 75q-53 62 -53 140q0 79 53 141l-75 75l21 20l75 -74q58 52 140 52q83 0 141 -52zM467 292q0 75 -55 130q-56 56 -130 56
q-75 0 -130 -55t-55 -131q0 -75 55 -130q55 -54 130 -54q77 0 131 54t54 130z" />
    <glyph glyph-name="yen" unicode="&#xa5;" horiz-adv-x="568" 
d="M503 712h34l-148 -257h138v-29h-155l-71 -124h226v-29h-229v-273h-29v273h-228v29h225l-71 124h-154v29h137l-147 257h33l163 -283l33.5 -58.5t21.5 -40.5h4q9 19 22.5 43l31.5 55z" />
    <glyph glyph-name="brokenbar" unicode="&#xa6;" horiz-adv-x="235" 
d="M132 775v-317h-29v317h29zM132 265v-317h-29v317h29z" />
    <glyph glyph-name="section" unicode="&#xa7;" horiz-adv-x="492" 
d="M310 158q96 -53 96 -118q0 -62 -49 -104q-49 -43 -114 -43q-42 0 -86 13.5t-72 31.5v33q82 -49 158 -49q54 0 94 35q40 34 40 83q0 33 -33.5 61t-81.5 49q-35 15 -72.5 33t-69 40.5t-51.5 49.5t-19 62q0 89 125 175q-97 54 -97 118q0 62 49 104q49 43 114 43
q41 0 85.5 -13.5t73.5 -31.5v-32q-81 48 -159 48q-54 0 -95 -35q-39 -35 -39 -83q0 -33 33.5 -61t81.5 -50l72 -32.5t69.5 -39.5t51.5 -50t19 -62q0 -90 -124 -175zM79 335q3 -32 19 -53t49 -42q26 -16 41 -23l48 -23l47 -22q122 83 122 161q-4 32 -18.5 53t-49.5 42
q-13 8 -23 13.5t-18 9.5l-48 23l-28 13t-18 9q-57 -37 -90 -75t-33 -86z" />
    <glyph glyph-name="dieresis" unicode="&#xa8;" horiz-adv-x="385" 
d="M85 619q-8 9 -8 22t8 21q9 9 22 9t21 -9q9 -8 9 -21t-9 -22q-8 -8 -21 -8t-22 8zM255 619q-8 9 -8 22t8 21q9 9 22 9t21 -9q9 -8 9 -21t-9 -22q-8 -8 -21 -8t-22 8z" />
    <glyph glyph-name="copyright" unicode="&#xa9;" horiz-adv-x="834" 
d="M417 724q151 0 258 -108q108 -108 108 -260t-108 -260q-107 -107 -258 -107q-153 0 -260 107q-107 109 -107 260q0 153 107 260q106 108 260 108zM417 18q139 0 238 99t99 239t-99 239q-99 100 -238 100q-140 0 -239 -100q-99 -99 -99 -239t99 -239t239 -99zM427 564
q46 0 89 -22v-30q-41 23 -89 23q-76 0 -125 -52t-49 -127t49 -127q50 -53 125 -53q48 0 89 24v-29q-48 -24 -89 -24q-84 0 -144 61t-60 148t60 147q60 61 144 61z" />
    <glyph glyph-name="ordfeminine" unicode="&#xaa;" horiz-adv-x="360" 
d="M310 403h-26l-6 55q-37 -61 -117 -61q-111 0 -111 94q0 42 35 69.5t93 27.5q23 0 47.5 -5t38.5 -9l13 -5v41q0 40 -32 63q-31 22 -70 22q-50 0 -85 -19v30q39 18 85 18q58 0 96.5 -29.5t38.5 -80.5v-211zM277 543q-36 18 -99 18q-94 0 -94 -70q0 -35 20 -50.5t63 -15.5
q24 0 44 8t34.5 21.5t23 32t8.5 39.5v17zM62 322h248v-29h-248v29z" />
    <glyph glyph-name="guillemotleft" unicode="&#xab;" horiz-adv-x="437" 
d="M223 453l-130 -192l130 -191h-34l-132 191l132 192h34zM380 453l-130 -192l130 -191h-34l-132 191l132 192h34z" />
    <glyph glyph-name="logicalnot" unicode="&#xac;" 
d="M483 124v196h-430v29h459v-225h-29z" />
    <glyph glyph-name="registered" unicode="&#xae;" horiz-adv-x="444" 
d="M91 648q54 55 131 55t131 -55q54 -54 54 -131t-55 -131q-54 -54 -130 -54t-131 54q-54 54 -54 131t54 131zM111 406q46 -45 111 -45t110 45q46 46 46 111t-46 111q-45 46 -110 46t-111 -46q-45 -47 -45 -111q0 -65 45 -111zM305 413h-37l-61 84h-18v-84h-28v210h57
q34 0 52.5 -18t18.5 -43q0 -48 -49 -64zM189 594v-68h29q42 0 42 36q0 32 -42 32h-29z" />
    <glyph glyph-name="macron" unicode="&#xaf;" horiz-adv-x="384" 
d="M76 655h220v-28h-220v28z" />
    <glyph glyph-name="degree" unicode="&#xb0;" horiz-adv-x="378" 
d="M189 443q-59 0 -100 41q-41 43 -41 100q0 58 41 99q43 41 100 41q58 0 99 -41t41 -99q0 -57 -41 -100q-41 -41 -99 -41zM189 472q23 0 43 9t35 24t24 35.5t9 43.5t-9 43t-24 35t-35 24t-43 9t-43.5 -9t-35.5 -24t-24 -35t-9 -43q0 -45 32 -79q33 -33 80 -33z" />
    <glyph glyph-name="plusminus" unicode="&#xb1;" 
d="M53 0v29h459v-29h-459zM268 503h29v-176h215v-29h-215v-174h-29v174h-215v29h215v176z" />
    <glyph glyph-name="twosuperior" unicode="&#xb2;" horiz-adv-x="297" 
d="M255 566v-29h-216v16l161 178q25 28 25 57q0 35 -24 58.5t-58 23.5q-55 0 -89 -49v40q36 38 88 38q44 0 79 -32q34 -31 34 -77q0 -40 -33 -76l-136 -148h169z" />
    <glyph glyph-name="threesuperior" unicode="&#xb3;" horiz-adv-x="280" 
d="M88 715v24h33q35 0 55.5 18.5t20.5 45.5q0 29 -20.5 48t-51.5 19q-43 0 -78 -26v35q38 20 78 20q45 0 73.5 -27t28.5 -69q0 -51 -48 -75q28 -12 44 -36t16 -52q0 -23 -9 -42.5t-24.5 -34.5t-36.5 -23.5t-45 -8.5q-43 0 -80 17v34q34 -22 80 -22q36 0 60.5 22.5t24.5 57.5
q0 31 -24.5 53t-63.5 22h-33z" />
    <glyph glyph-name="acute" unicode="&#xb4;" horiz-adv-x="374" 
d="M105 572l-13 20l155 113l22 -30z" />
    <glyph glyph-name="mu" unicode="&#xb5;" horiz-adv-x="596" 
d="M75 -216v738h29v-312q0 -47 13 -82.5t37 -60t56.5 -37t71.5 -12.5q77 0 133 50q57 51 64 96v358h29v-522h-24l-3 100q-15 -23 -36 -43t-47.5 -35t-56.5 -24t-63 -9q-118 0 -174 95v-300h-29z" />
    <glyph glyph-name="paragraph" unicode="&#xb6;" horiz-adv-x="550" 
d="M502 712v-29h-69v-807h-29v807h-100v-807h-29v426q-84 0 -144 54t-60 147q0 91 59 150q61 59 159 59h213z" />
    <glyph glyph-name="periodcentered" unicode="&#xb7;" horiz-adv-x="378" 
d="M155 266q12 12 26 10.5t23 -11t10.5 -23t-10.5 -24.5q-11 -12 -24.5 -10.5t-23 11t-11.5 23t10 24.5z" />
    <glyph glyph-name="cedilla" unicode="&#xb8;" horiz-adv-x="399" 
d="M161 -72l16 72h18v-54q31 -2 52.5 -22.5t21.5 -48.5q0 -35 -23 -57t-65 -22q-23 0 -47 12v28q27 -11 36 -11q69 0 69 50q0 24 -20 38.5t-50 14.5h-8z" />
    <glyph glyph-name="onesuperior" unicode="&#xb9;" horiz-adv-x="255" 
d="M146 893h22v-356h-29v315l-102 -86v35z" />
    <glyph glyph-name="ordmasculine" unicode="&#xba;" horiz-adv-x="417" 
d="M208 724q69 0 114 -48q45 -47 45 -116q0 -68 -45 -116q-45 -47 -114 -47q-68 0 -113 47q-45 46 -45 115q0 72 46 118q47 47 112 47zM208 425q27 0 50 10t40 28t26.5 43t9.5 55q0 59 -37 96q-38 38 -89 38q-26 0 -48.5 -10t-39 -28t-26.5 -43t-10 -55q0 -56 35 -96
q36 -38 89 -38zM62 322h293v-29h-293v29z" />
    <glyph glyph-name="guillemotright" unicode="&#xbb;" horiz-adv-x="437" 
d="M344 261l-130 192h34l132 -192l-132 -191h-34zM187 261l-130 192h34l132 -192l-132 -191h-34z" />
    <glyph glyph-name="onequarter" unicode="&#xbc;" horiz-adv-x="737" 
d="M631 0h-29v92h-220v26l233 309h16v-306h53v-29h-53v-92zM602 121v158q0 25 0.5 46.5t1.5 39.5l-4 2q-6 -10 -19.5 -28.5l-33.5 -46.5l-129 -171h184zM211 707h23v-427h-29v383l-125 -105v39zM551 715l-373 -727l-26 13l374 727z" />
    <glyph glyph-name="onehalf" unicode="&#xbd;" horiz-adv-x="785" 
d="M729 29v-29h-257v18l195 214q31 34 31 70q0 21 -8 40t-22.5 33t-33 22t-39.5 8q-63 0 -105 -56v41q42 44 105 44q53 0 93 -38q40 -37 40 -92q0 -50 -38 -91l-170 -184h209zM211 707h23v-427h-29v383l-125 -105v39zM551 715l-373 -727l-26 13l374 727z" />
    <glyph glyph-name="threequarters" unicode="&#xbe;" horiz-adv-x="789" 
d="M608 715l-373 -727l-26 13l374 727zM673 0h-29v92h-220v26l233 309h16v-306h53v-29h-53v-92zM644 121v158q0 25 0.5 46.5t1.5 39.5l-4 2q-6 -10 -19.5 -28.5l-33.5 -46.5l-129 -171h184zM115 496v25h44q42 0 68 23t26 56q0 36 -26.5 60.5t-64.5 24.5q-53 0 -93 -28v34
q41 23 93 23q26 0 48 -8.5t38.5 -24t25.5 -36.5t9 -45q0 -62 -59 -91q35 -13 54.5 -42t19.5 -64q0 -55 -40 -92q-41 -38 -98 -38q-52 0 -95 21v33q43 -25 95 -25q22 0 42 8t34.5 21.5t23 32t8.5 39.5q0 19 -8 36t-22.5 29.5t-34.5 20t-44 7.5h-44z" />
    <glyph glyph-name="questiondown" unicode="&#xbf;" horiz-adv-x="480" 
d="M225 -225q-77 0 -132 53q-53 53 -53 129q0 36 15.5 66t39.5 55t51 47.5t51 45t39.5 45.5t15.5 50v49h29v-49q0 -31 -15.5 -57.5t-39 -49.5t-51 -45.5t-51 -46.5t-39 -51t-15.5 -60q0 -59 47 -106q46 -46 112 -46q59 0 100 38v-39q-43 -28 -104 -28zM289 432
q-11 -12 -24.5 -10t-23 11.5t-11.5 23t10 24.5t26 9.5t23 -10.5t10.5 -22.5t-10.5 -25.5z" />
    <glyph glyph-name="Agrave" unicode="&#xc0;" horiz-adv-x="696" 
d="M342 712h12l315 -712h-34l-77 179h-420l-77 -179h-34zM546 208l-144 327l-32 75.5t-20 48.5h-4q-7 -18 -20 -48.5l-32 -75.5l-144 -327h396zM433 825l-13 -20l-164 104l22 29z" />
    <glyph glyph-name="Aacute" unicode="&#xc1;" horiz-adv-x="696" 
d="M342 712h12l315 -712h-34l-77 179h-420l-77 -179h-34zM546 208l-144 327l-32 75.5t-20 48.5h-4q-7 -18 -20 -48.5l-32 -75.5l-144 -327h396zM269 805l-13 20l155 113l22 -30z" />
    <glyph glyph-name="Acircumflex" unicode="&#xc2;" horiz-adv-x="696" 
d="M342 712h12l315 -712h-34l-77 179h-420l-77 -179h-34zM546 208l-144 327l-32 75.5t-20 48.5h-4q-7 -18 -20 -48.5l-32 -75.5l-144 -327h396zM481 831l-13 -19l-123 80l-123 -80l-13 20l136 104z" />
    <glyph glyph-name="Atilde" unicode="&#xc3;" horiz-adv-x="696" 
d="M342 712h12l315 -712h-34l-77 179h-420l-77 -179h-34zM546 208l-144 327l-32 75.5t-20 48.5h-4q-7 -18 -20 -48.5l-32 -75.5l-144 -327h396zM401 837q-23 0 -61 20q-38 21 -59 21q-36 0 -59 -32l-19 18q31 45 83 45q20 0 61 -21q42 -20 59 -20q32 0 58 33q6 -4 10 -9
t9 -8q-38 -47 -82 -47z" />
    <glyph glyph-name="Adieresis" unicode="&#xc4;" horiz-adv-x="696" 
d="M342 712h12l315 -712h-34l-77 179h-420l-77 -179h-34zM546 208l-144 327l-32 75.5t-20 48.5h-4q-7 -18 -20 -48.5l-32 -75.5l-144 -327h396zM241 852q-8 9 -8 22t8 21q9 9 22 9t21 -9q9 -8 9 -21t-9 -22q-8 -8 -21 -8t-22 8zM411 852q-8 9 -8 22t8 21q9 9 22 9t21 -9
q9 -8 9 -21t-9 -22q-8 -8 -21 -8t-22 8z" />
    <glyph glyph-name="Aring" unicode="&#xc5;" horiz-adv-x="696" 
d="M342 712h12l315 -712h-34l-77 179h-420l-77 -179h-34zM546 208l-144 327l-32 75.5t-20 48.5h-4q-7 -18 -20 -48.5l-32 -75.5l-144 -327h396zM344 959q36 0 61 -25t25 -60t-25 -60t-61 -25q-35 0 -60 25t-25 60t25 60t60 25zM344 815q25 0 42.5 17.5t17.5 41.5t-17.5 41.5
t-42.5 17.5q-23 0 -41 -17.5t-18 -41.5t18 -41.5t41 -17.5z" />
    <glyph glyph-name="AE" unicode="&#xc6;" horiz-adv-x="966" 
d="M893 683h-392l51 -291h331v-29h-326l60 -334h276v-29h-302l-31 179h-391l-107 -179h-35l426 712h440v-29zM187 208h368l-85 477h-5q-8 -19 -24.5 -48l-39.5 -68z" />
    <glyph glyph-name="Ccedilla" unicode="&#xc7;" horiz-adv-x="646" 
d="M377 -72l13 62q-145 7 -241 111q-96 103 -96 255q0 159 103 263q103 105 255 105q87 0 168 -42v-34q-77 47 -168 47q-142 0 -235 -99t-93 -240t93 -240q93 -98 235 -98q90 0 168 48v-35q-81 -42 -168 -42v-43q31 -2 52.5 -22.5t21.5 -48.5q0 -35 -23 -57t-65 -22
q-23 0 -47 12v28q27 -11 36 -11q69 0 69 50q0 24 -20 38.5t-50 14.5h-8z" />
    <glyph glyph-name="Egrave" unicode="&#xc8;" horiz-adv-x="534" 
d="M97 0v712h364v-29h-335v-291h325v-29h-325v-334h335v-29h-364zM366 825l-13 -20l-164 104l22 29z" />
    <glyph glyph-name="Eacute" unicode="&#xc9;" horiz-adv-x="534" 
d="M97 0v712h364v-29h-335v-291h325v-29h-325v-334h335v-29h-364zM198 805l-13 20l155 113l22 -30z" />
    <glyph glyph-name="Ecircumflex" unicode="&#xca;" horiz-adv-x="534" 
d="M97 0v712h364v-29h-335v-291h325v-29h-325v-334h335v-29h-364zM410 831l-13 -19l-123 80l-123 -80l-13 20l136 104z" />
    <glyph glyph-name="Edieresis" unicode="&#xcb;" horiz-adv-x="534" 
d="M97 0v712h364v-29h-335v-291h325v-29h-325v-334h335v-29h-364zM173 852q-8 9 -8 22t8 21q9 9 22 9t21 -9q9 -8 9 -21t-9 -22q-8 -8 -21 -8t-22 8zM343 852q-8 9 -8 22t8 21q9 9 22 9t21 -9q9 -8 9 -21t-9 -22q-8 -8 -21 -8t-22 8z" />
    <glyph glyph-name="Igrave" unicode="&#xcc;" horiz-adv-x="223" 
d="M126 712v-712h-29v712h29zM199 825l-13 -20l-164 104l22 29z" />
    <glyph glyph-name="Iacute" unicode="&#xcd;" horiz-adv-x="223" 
d="M126 712v-712h-29v712h29zM34 805l-13 20l155 113l22 -30z" />
    <glyph glyph-name="Icircumflex" unicode="&#xce;" horiz-adv-x="223" 
d="M126 712v-712h-29v712h29zM246 831l-13 -19l-123 80l-123 -80l-13 20l136 104z" />
    <glyph glyph-name="Idieresis" unicode="&#xcf;" horiz-adv-x="223" 
d="M126 712v-712h-29v712h29zM6 852q-8 9 -8 22t8 21q9 9 22 9t21 -9q9 -8 9 -21t-9 -22q-8 -8 -21 -8t-22 8zM176 852q-8 9 -8 22t8 21q9 9 22 9t21 -9q9 -8 9 -21t-9 -22q-8 -8 -21 -8t-22 8z" />
    <glyph glyph-name="Eth" unicode="&#xd0;" horiz-adv-x="698" 
d="M10 342v29h87v341h156q192 0 292 -100t100 -256t-100 -256t-292 -100h-156v342h-87zM250 29q169 0 267 84t98 243t-98 243t-267 84h-124v-312h223v-29h-223v-313h124z" />
    <glyph glyph-name="Ntilde" unicode="&#xd1;" horiz-adv-x="726" 
d="M629 712v-712h-17l-410 560l-45 62.5t-30 43.5l-3 -1q1 -16 1.5 -47t0.5 -77v-541h-29v712h28l409 -557q28 -37 43.5 -60t20.5 -32h4q-1 18 -1.5 51.5t-0.5 82.5v515h29zM413 837q-23 0 -61 20q-38 21 -59 21q-36 0 -59 -32l-19 18q31 45 83 45q20 0 61 -21
q42 -20 59 -20q32 0 58 33q6 -4 10 -9t9 -8q-38 -47 -82 -47z" />
    <glyph glyph-name="Ograve" unicode="&#xd2;" horiz-adv-x="822" 
d="M157 617q105 107 254 107t253 -107q105 -107 105 -261q0 -155 -105 -261q-103 -106 -253 -106q-149 0 -254 106q-104 107 -104 261t104 261zM739 356q0 142 -96 240q-95 99 -232 99t-233 -99q-95 -98 -95 -240q0 -140 95 -240q96 -98 233 -98t232 98q96 99 96 240z
M493 825l-13 -20l-164 104l22 29z" />
    <glyph glyph-name="Oacute" unicode="&#xd3;" horiz-adv-x="822" 
d="M157 617q105 107 254 107t253 -107q105 -107 105 -261q0 -155 -105 -261q-103 -106 -253 -106q-149 0 -254 106q-104 107 -104 261t104 261zM739 356q0 142 -96 240q-95 99 -232 99t-233 -99q-95 -98 -95 -240q0 -140 95 -240q96 -98 233 -98t232 98q96 99 96 240z
M327 805l-13 20l155 113l22 -30z" />
    <glyph glyph-name="Ocircumflex" unicode="&#xd4;" horiz-adv-x="822" 
d="M157 617q105 107 254 107t253 -107q105 -107 105 -261q0 -155 -105 -261q-103 -106 -253 -106q-149 0 -254 106q-104 107 -104 261t104 261zM739 356q0 142 -96 240q-95 99 -232 99t-233 -99q-95 -98 -95 -240q0 -140 95 -240q96 -98 233 -98t232 98q96 99 96 240z
M543 831l-13 -19l-123 80l-123 -80l-13 20l136 104z" />
    <glyph glyph-name="Otilde" unicode="&#xd5;" horiz-adv-x="822" 
d="M157 617q105 107 254 107t253 -107q105 -107 105 -261q0 -155 -105 -261q-103 -106 -253 -106q-149 0 -254 106q-104 107 -104 261t104 261zM739 356q0 142 -96 240q-95 99 -232 99t-233 -99q-95 -98 -95 -240q0 -140 95 -240q96 -98 233 -98t232 98q96 99 96 240z
M466 837q-23 0 -61 20q-38 21 -59 21q-36 0 -59 -32l-19 18q31 45 83 45q21 0 62 -21q42 -20 58 -20q32 0 58 33q6 -4 10 -9t9 -8q-38 -47 -82 -47z" />
    <glyph glyph-name="Odieresis" unicode="&#xd6;" horiz-adv-x="822" 
d="M157 617q105 107 254 107t253 -107q105 -107 105 -261q0 -155 -105 -261q-103 -106 -253 -106q-149 0 -254 106q-104 107 -104 261t104 261zM739 356q0 142 -96 240q-95 99 -232 99t-233 -99q-95 -98 -95 -240q0 -140 95 -240q96 -98 233 -98t232 98q96 99 96 240z
M304 852q-8 9 -8 22t8 21q9 9 22 9t21 -9q9 -8 9 -21t-9 -22q-8 -8 -21 -8t-22 8zM474 852q-8 9 -8 22t8 21q9 9 22 9t21 -9q9 -8 9 -21t-9 -22q-8 -8 -21 -8t-22 8z" />
    <glyph glyph-name="multiply" unicode="&#xd7;" 
d="M68 435l21 20l193 -193l193 192l20 -20l-192 -193l193 -193l-21 -20l-193 193l-192 -193l-21 20l193 193z" />
    <glyph glyph-name="Oslash" unicode="&#xd8;" horiz-adv-x="822" 
d="M656 625q113 -108 113 -269q0 -155 -105 -261q-103 -106 -253 -106q-126 0 -223 78l-82 -98l-23 19l83 99q-113 108 -113 269q0 154 104 261q105 107 254 107q125 0 223 -80l83 99l22 -19zM83 356q0 -147 103 -247l429 513q-88 73 -204 73q-137 0 -233 -99
q-95 -98 -95 -240zM411 18q137 0 232 98q96 99 96 240q0 147 -102 246l-430 -512q88 -72 204 -72z" />
    <glyph glyph-name="Ugrave" unicode="&#xd9;" horiz-adv-x="663" 
d="M570 245q0 -116 -70 -186q-69 -70 -168 -70q-100 0 -170 69q-69 70 -69 187v467h29v-459q0 -111 60 -172q62 -62 150 -62q86 0 148 62q61 61 61 172v459h29v-467zM412 825l-13 -20l-164 104l22 29z" />
    <glyph glyph-name="Uacute" unicode="&#xda;" horiz-adv-x="663" 
d="M570 245q0 -116 -70 -186q-69 -70 -168 -70q-100 0 -170 69q-69 70 -69 187v467h29v-459q0 -111 60 -172q62 -62 150 -62q86 0 148 62q61 61 61 172v459h29v-467zM247 805l-13 20l155 113l22 -30z" />
    <glyph glyph-name="Ucircumflex" unicode="&#xdb;" horiz-adv-x="663" 
d="M570 245q0 -116 -70 -186q-69 -70 -168 -70q-100 0 -170 69q-69 70 -69 187v467h29v-459q0 -111 60 -172q62 -62 150 -62q86 0 148 62q61 61 61 172v459h29v-467zM462 831l-13 -19l-123 80l-123 -80l-13 20l136 104z" />
    <glyph glyph-name="Udieresis" unicode="&#xdc;" horiz-adv-x="663" 
d="M570 245q0 -116 -70 -186q-69 -70 -168 -70q-100 0 -170 69q-69 70 -69 187v467h29v-459q0 -111 60 -172q62 -62 150 -62q86 0 148 62q61 61 61 172v459h29v-467zM223 852q-8 9 -8 22t8 21q9 9 22 9t21 -9q9 -8 9 -21t-9 -22q-8 -8 -21 -8t-22 8zM393 852q-8 9 -8 22
t8 21q9 9 22 9t21 -9q9 -8 9 -21t-9 -22q-8 -8 -21 -8t-22 8z" />
    <glyph glyph-name="Yacute" unicode="&#xdd;" horiz-adv-x="560" 
d="M27 712h33l163 -283l33.5 -58.5t21.5 -40.5h4q9 19 22.5 43l31.5 55l163 284h34l-239 -415v-297h-29v297zM200 805l-13 20l155 113l22 -30z" />
    <glyph glyph-name="Thorn" unicode="&#xde;" horiz-adv-x="563" 
d="M276 580q116 0 181 -62t65 -155t-65 -155q-64 -61 -181 -61h-150v-147h-29v712h29v-132h150zM275 176q50 0 90 13t68.5 37.5t43.5 59t15 77.5t-15.5 78t-43.5 59.5t-68.5 37.5t-89.5 13h-149v-375h149z" />
    <glyph glyph-name="germandbls" unicode="&#xdf;" horiz-adv-x="531" 
d="M329 425q37 -12 65 -34t46.5 -49.5t28 -60t9.5 -65.5q0 -109 -64 -167q-64 -59 -161 -59q-16 0 -32 3v28q6 -1 15 -1.5t20 -0.5q88 0 140 50.5t52 146.5q0 91 -60 142q-59 52 -151 52h-16v29h16q87 0 126 44q39 45 39 110q0 59 -39 106q-38 47 -108 47q-59 0 -102 -46
t-43 -114v-586h-29v587q0 81 51 134q52 54 126 54t124 -53t50 -128q0 -120 -103 -169z" />
    <glyph glyph-name="agrave" unicode="&#xe0;" horiz-adv-x="563" 
d="M446 238q-93 40 -207 40q-63 0 -109 -39q-46 -37 -46 -95q0 -57 40.5 -91.5t104.5 -34.5q81 0 149 54t68 122v44zM255 535q95 0 157 -50q63 -50 63 -130v-355h-22l-4 116q-28 -57 -91 -92q-62 -35 -131 -35q-79 0 -126 44q-47 45 -47 111q0 65 52 114t133 49
q111 0 207 -38v80q0 45 -18.5 75t-47 48.5t-62 26t-63.5 7.5q-29 0 -54 -6q-13 -2 -22.5 -5t-16.5 -5l-40 -17v33q75 29 133 29zM367 636l-13 -20l-164 104l22 29z" />
    <glyph glyph-name="aacute" unicode="&#xe1;" horiz-adv-x="563" 
d="M446 238q-93 40 -207 40q-63 0 -109 -39q-46 -37 -46 -95q0 -57 40.5 -91.5t104.5 -34.5q81 0 149 54t68 122v44zM255 535q95 0 157 -50q63 -50 63 -130v-355h-22l-4 116q-28 -57 -91 -92q-62 -35 -131 -35q-79 0 -126 44q-47 45 -47 111q0 65 52 114t133 49
q111 0 207 -38v80q0 45 -18.5 75t-47 48.5t-62 26t-63.5 7.5q-29 0 -54 -6q-13 -2 -22.5 -5t-16.5 -5l-40 -17v33q75 29 133 29zM198 616l-13 20l155 113l22 -30z" />
    <glyph glyph-name="acircumflex" unicode="&#xe2;" horiz-adv-x="563" 
d="M446 238q-93 40 -207 40q-63 0 -109 -39q-46 -37 -46 -95q0 -57 40.5 -91.5t104.5 -34.5q81 0 149 54t68 122v44zM255 535q95 0 157 -50q63 -50 63 -130v-355h-22l-4 116q-28 -57 -91 -92q-62 -35 -131 -35q-79 0 -126 44q-47 45 -47 111q0 65 52 114t133 49
q111 0 207 -38v80q0 45 -18.5 75t-47 48.5t-62 26t-63.5 7.5q-29 0 -54 -6q-13 -2 -22.5 -5t-16.5 -5l-40 -17v33q75 29 133 29zM411 642l-13 -19l-123 80l-123 -80l-13 20l136 104z" />
    <glyph glyph-name="atilde" unicode="&#xe3;" horiz-adv-x="563" 
d="M446 238q-93 40 -207 40q-63 0 -109 -39q-46 -37 -46 -95q0 -57 40.5 -91.5t104.5 -34.5q81 0 149 54t68 122v44zM255 535q95 0 157 -50q63 -50 63 -130v-355h-22l-4 116q-28 -57 -91 -92q-62 -35 -131 -35q-79 0 -126 44q-47 45 -47 111q0 65 52 114t133 49
q111 0 207 -38v80q0 45 -18.5 75t-47 48.5t-62 26t-63.5 7.5q-29 0 -54 -6q-13 -2 -22.5 -5t-16.5 -5l-40 -17v33q75 29 133 29zM331 648q-23 0 -61 20q-38 21 -59 21q-36 0 -59 -32l-19 18q31 45 83 45q20 0 61 -21q42 -20 59 -20q32 0 58 33q6 -4 10 -9t9 -8
q-38 -47 -82 -47z" />
    <glyph glyph-name="adieresis" unicode="&#xe4;" horiz-adv-x="563" 
d="M446 238q-93 40 -207 40q-63 0 -109 -39q-46 -37 -46 -95q0 -57 40.5 -91.5t104.5 -34.5q81 0 149 54t68 122v44zM255 535q95 0 157 -50q63 -50 63 -130v-355h-22l-4 116q-28 -57 -91 -92q-62 -35 -131 -35q-79 0 -126 44q-47 45 -47 111q0 65 52 114t133 49
q111 0 207 -38v80q0 45 -18.5 75t-47 48.5t-62 26t-63.5 7.5q-29 0 -54 -6q-13 -2 -22.5 -5t-16.5 -5l-40 -17v33q75 29 133 29zM171 663q-8 9 -8 22t8 21q9 9 22 9t21 -9q9 -8 9 -21t-9 -22q-8 -8 -21 -8t-22 8zM341 663q-8 9 -8 22t8 21q9 9 22 9t21 -9q9 -8 9 -21t-9 -22
q-8 -8 -21 -8t-22 8z" />
    <glyph glyph-name="aring" unicode="&#xe5;" horiz-adv-x="563" 
d="M446 238q-93 40 -207 40q-63 0 -109 -39q-46 -37 -46 -95q0 -57 40.5 -91.5t104.5 -34.5q81 0 149 54t68 122v44zM255 535q95 0 157 -50q63 -50 63 -130v-355h-22l-4 116q-28 -57 -91 -92q-62 -35 -131 -35q-79 0 -126 44q-47 45 -47 111q0 65 52 114t133 49
q111 0 207 -38v80q0 45 -18.5 75t-47 48.5t-62 26t-63.5 7.5q-29 0 -54 -6q-13 -2 -22.5 -5t-16.5 -5l-40 -17v33q75 29 133 29zM275 770q36 0 61 -25t25 -60t-25 -60t-61 -25q-35 0 -60 25t-25 60t25 60t60 25zM275 626q25 0 42.5 17.5t17.5 41.5t-17.5 41.5t-42.5 17.5
q-23 0 -41 -17.5t-18 -41.5t18 -41.5t41 -17.5z" />
    <glyph glyph-name="ae" unicode="&#xe6;" horiz-adv-x="946" 
d="M889 295v-12.5t-1 -10.5h-423q2 -108 66 -181t160 -73q87 0 164 39v-33q-75 -35 -167 -35q-78 0 -139.5 44.5t-91.5 119.5q-27 -71 -95 -118q-67 -46 -143 -46q-41 0 -73.5 12t-55 32.5t-35 49t-12.5 61.5q0 65 52 111t133 46h207v48q0 45 -19 75t-47.5 48.5t-61.5 26
t-62 7.5q-27 0 -55 -5q-24 -4 -39 -11q-7 -2 -16.5 -6.5l-22.5 -10.5v33q75 29 133 29q42 0 78 -10.5t64.5 -29.5t47.5 -46t27 -60q30 66 85.5 106t125.5 40q96 0 156 -64q60 -63 60 -176zM435 272h-207q-64 0 -110 -36q-45 -36 -45 -92q0 -57 40 -91.5t106 -34.5
q81 0 149 56q67 57 67 128v70zM859 301q0 97 -54 151q-53 54 -133 54t-135 -58q-54 -57 -71 -147h393z" />
    <glyph glyph-name="ccedilla" unicode="&#xe7;" horiz-adv-x="496" 
d="M284 -72l13 62q-102 8 -171 82q-68 76 -68 189q0 119 74 196q75 78 184 78q71 0 133 -38v-36q-65 45 -133 45q-95 0 -162 -69q-66 -68 -66 -176q0 -109 66 -176q67 -67 162 -67q69 0 133 44v-35q-59 -37 -131 -38v-43q31 -2 52.5 -22.5t21.5 -48.5q0 -35 -23 -57t-65 -22
q-23 0 -47 12v28q27 -11 36 -11q69 0 69 50q0 24 -20 38.5t-50 14.5h-8z" />
    <glyph glyph-name="egrave" unicode="&#xe8;" horiz-adv-x="569" 
d="M482 301q0 97 -54 151t-133 54q-74 0 -135 -58q-61 -56 -70 -147h392zM88 272q0 -107 63 -180q65 -74 163 -74q88 0 165 39v-33q-75 -35 -167 -35q-108 0 -181 81q-73 80 -73 198q0 107 67 186q67 81 171 81q96 0 156 -64q60 -63 60 -176q0 -7 -0.5 -12.5t-1.5 -10.5
h-422zM393 636l-13 -20l-164 104l22 29z" />
    <glyph glyph-name="eacute" unicode="&#xe9;" horiz-adv-x="569" 
d="M482 301q0 97 -54 151t-133 54q-74 0 -135 -58q-61 -56 -70 -147h392zM88 272q0 -107 63 -180q65 -74 163 -74q88 0 165 39v-33q-75 -35 -167 -35q-108 0 -181 81q-73 80 -73 198q0 107 67 186q67 81 171 81q96 0 156 -64q60 -63 60 -176q0 -7 -0.5 -12.5t-1.5 -10.5
h-422zM227 616l-13 20l155 113l22 -30z" />
    <glyph glyph-name="ecircumflex" unicode="&#xea;" horiz-adv-x="569" 
d="M482 301q0 97 -54 151t-133 54q-74 0 -135 -58q-61 -56 -70 -147h392zM88 272q0 -107 63 -180q65 -74 163 -74q88 0 165 39v-33q-75 -35 -167 -35q-108 0 -181 81q-73 80 -73 198q0 107 67 186q67 81 171 81q96 0 156 -64q60 -63 60 -176q0 -7 -0.5 -12.5t-1.5 -10.5
h-422zM440 642l-13 -19l-123 80l-123 -80l-13 20l136 104z" />
    <glyph glyph-name="edieresis" unicode="&#xeb;" horiz-adv-x="569" 
d="M482 301q0 97 -54 151t-133 54q-74 0 -135 -58q-61 -56 -70 -147h392zM88 272q0 -107 63 -180q65 -74 163 -74q88 0 165 39v-33q-75 -35 -167 -35q-108 0 -181 81q-73 80 -73 198q0 107 67 186q67 81 171 81q96 0 156 -64q60 -63 60 -176q0 -7 -0.5 -12.5t-1.5 -10.5
h-422zM197 663q-8 9 -8 22t8 21q9 9 22 9t21 -9q9 -8 9 -21t-9 -22q-8 -8 -21 -8t-22 8zM367 663q-8 9 -8 22t8 21q9 9 22 9t21 -9q9 -8 9 -21t-9 -22q-8 -8 -21 -8t-22 8z" />
    <glyph glyph-name="igrave" unicode="&#xec;" horiz-adv-x="205" 
d="M117 0h-29v522h29v-522zM191 636l-13 -20l-164 104l22 29z" />
    <glyph glyph-name="iacute" unicode="&#xed;" horiz-adv-x="205" 
d="M117 0h-29v522h29v-522zM26 616l-13 20l155 113l22 -30z" />
    <glyph glyph-name="icircumflex" unicode="&#xee;" horiz-adv-x="205" 
d="M238 642l-13 -19l-123 80l-123 -80l-13 20l136 104zM117 0h-29v522h29v-522z" />
    <glyph glyph-name="idieresis" unicode="&#xef;" horiz-adv-x="205" 
d="M-3 663q-9 9 -9 22t9 21q8 9 21 9t21 -9q9 -8 9 -21t-9 -22q-8 -8 -21 -8t-21 8zM166 663q-8 9 -8 22t8 21q9 9 22 9t21 -9q9 -8 9 -21t-9 -22q-8 -8 -21 -8t-22 8zM117 0h-29v522h29v-522z" />
    <glyph glyph-name="eth" unicode="&#xf0;" horiz-adv-x="615" 
d="M496 741l-118 -99q179 -137 179 -333q0 -140 -74 -231q-74 -89 -185 -89q-100 0 -171 71q-69 72 -69 174t69 173q71 71 171 71q133 0 227 -121q-21 157 -168 267l-124 -103l-16 21l117 98q-120 82 -259 106v29q161 -36 280 -117l124 104zM298 18q98 0 164 81
q66 82 66 209q-96 141 -230 141q-89 0 -150 -63q-61 -62 -61 -152q0 -88 60 -152q61 -64 151 -64z" />
    <glyph glyph-name="ntilde" unicode="&#xf1;" horiz-adv-x="609" 
d="M88 522h24l3 -104q29 51 81 84t121 33q92 0 148 -62t56 -158v-315h-29v312q0 47 -13 83t-37 61t-56.5 37.5t-71.5 12.5q-76 0 -126 -44q-51 -44 -71 -94v-368h-29v522zM360 648q-23 0 -61 20q-38 21 -59 21q-36 0 -59 -32l-19 18q31 45 83 45q21 0 62 -21q42 -20 58 -20
q32 0 58 33q6 -4 10 -9t9 -8q-38 -47 -82 -47z" />
    <glyph glyph-name="ograve" unicode="&#xf2;" horiz-adv-x="644" 
d="M88 260q0 -102 67 -172t166 -70t167 69q68 71 68 174q0 104 -69 175q-69 70 -166 70t-165 -71t-68 -175zM321 535q112 0 189 -80q76 -79 76 -195q0 -113 -76 -192t-189 -79q-112 0 -188 78q-75 79 -75 192q0 117 76 196q77 80 187 80zM412 636l-13 -20l-164 104l22 29z
" />
    <glyph glyph-name="oacute" unicode="&#xf3;" horiz-adv-x="644" 
d="M88 260q0 -102 67 -172t166 -70t167 69q68 71 68 174q0 104 -69 175q-69 70 -166 70t-165 -71t-68 -175zM321 535q112 0 189 -80q76 -79 76 -195q0 -113 -76 -192t-189 -79q-112 0 -188 78q-75 79 -75 192q0 117 76 196q77 80 187 80zM250 616l-13 20l155 113l22 -30z
" />
    <glyph glyph-name="ocircumflex" unicode="&#xf4;" horiz-adv-x="644" 
d="M88 260q0 -102 67 -172t166 -70t167 69q68 71 68 174q0 104 -69 175q-69 70 -166 70t-165 -71t-68 -175zM321 535q112 0 189 -80q76 -79 76 -195q0 -113 -76 -192t-189 -79q-112 0 -188 78q-75 79 -75 192q0 117 76 196q77 80 187 80zM462 642l-13 -19l-123 80l-123 -80
l-13 20l136 104z" />
    <glyph glyph-name="otilde" unicode="&#xf5;" horiz-adv-x="644" 
d="M88 260q0 -102 67 -172t166 -70t167 69q68 71 68 174q0 104 -69 175q-69 70 -166 70t-165 -71t-68 -175zM321 535q112 0 189 -80q76 -79 76 -195q0 -113 -76 -192t-189 -79q-112 0 -188 78q-75 79 -75 192q0 117 76 196q77 80 187 80zM383 648q-23 0 -61 20
q-38 21 -59 21q-36 0 -59 -32l-19 18q31 45 83 45q20 0 61 -21q42 -20 59 -20q32 0 58 33q6 -4 10 -9t9 -8q-38 -47 -82 -47z" />
    <glyph glyph-name="odieresis" unicode="&#xf6;" horiz-adv-x="644" 
d="M88 260q0 -102 67 -172t166 -70t167 69q68 71 68 174q0 104 -69 175q-69 70 -166 70t-165 -71t-68 -175zM321 535q112 0 189 -80q76 -79 76 -195q0 -113 -76 -192t-189 -79q-112 0 -188 78q-75 79 -75 192q0 117 76 196q77 80 187 80zM218 663q-8 9 -8 22t8 21q9 9 22 9
t21 -9q9 -8 9 -21t-9 -22q-8 -8 -21 -8t-22 8zM388 663q-8 9 -8 22t8 21q9 9 22 9t21 -9q9 -8 9 -21t-9 -22q-8 -8 -21 -8t-22 8z" />
    <glyph glyph-name="divide" unicode="&#xf7;" 
d="M257 52q12 12 26 10.5t23 -11t10.5 -23t-10.5 -24.5q-11 -12 -24.5 -10.5t-23 11t-11.5 23t10 24.5zM257 474q12 12 26 10.5t23 -11t10.5 -23t-10.5 -24.5q-11 -12 -24.5 -10.5t-23 11t-11.5 23t10 24.5zM41 227v30h483v-30h-483z" />
    <glyph glyph-name="oslash" unicode="&#xf8;" horiz-adv-x="644" 
d="M321 535q88 0 161 -55l61 72l21 -18l-61 -74q83 -80 83 -200q0 -113 -76 -192t-189 -79q-94 0 -164 57l-66 -78l-23 18l67 80q-77 80 -77 193q0 117 76 196q77 80 187 80zM556 261q0 108 -72 177l-308 -369q61 -51 145 -51q99 0 167 69q68 71 68 174zM88 260
q0 -101 66 -171l309 368q-62 49 -142 49q-97 0 -165 -71t-68 -175z" />
    <glyph glyph-name="ugrave" unicode="&#xf9;" horiz-adv-x="608" 
d="M491 522h29v-309q0 -101 -61 -162q-60 -62 -155 -62q-96 0 -156 62q-60 61 -60 162v309h29v-306q0 -48 14 -84.5t39 -62t59 -38.5t75 -13q80 0 133 51q54 52 54 147v306zM395 636l-13 -20l-164 104l22 29z" />
    <glyph glyph-name="uacute" unicode="&#xfa;" horiz-adv-x="608" 
d="M491 522h29v-309q0 -101 -61 -162q-60 -62 -155 -62q-96 0 -156 62q-60 61 -60 162v309h29v-306q0 -48 14 -84.5t39 -62t59 -38.5t75 -13q80 0 133 51q54 52 54 147v306zM228 616l-13 20l155 113l22 -30z" />
    <glyph glyph-name="ucircumflex" unicode="&#xfb;" horiz-adv-x="608" 
d="M491 522h29v-309q0 -101 -61 -162q-60 -62 -155 -62q-96 0 -156 62q-60 61 -60 162v309h29v-306q0 -48 14 -84.5t39 -62t59 -38.5t75 -13q80 0 133 51q54 52 54 147v306zM440 642l-13 -19l-123 80l-123 -80l-13 20l136 104z" />
    <glyph glyph-name="udieresis" unicode="&#xfc;" horiz-adv-x="608" 
d="M491 522h29v-309q0 -101 -61 -162q-60 -62 -155 -62q-96 0 -156 62q-60 61 -60 162v309h29v-306q0 -48 14 -84.5t39 -62t59 -38.5t75 -13q80 0 133 51q54 52 54 147v306zM198 663q-8 9 -8 22t8 21q9 9 22 9t21 -9q9 -8 9 -21t-9 -22q-8 -8 -21 -8t-22 8zM368 663
q-8 9 -8 22t8 21q9 9 22 9t21 -9q9 -8 9 -21t-9 -22q-8 -8 -21 -8t-22 8z" />
    <glyph glyph-name="yacute" unicode="&#xfd;" horiz-adv-x="542" 
d="M480 522h33l-348 -738h-32l121 258l-224 480h32l162 -345l29 -64.5t15 -37.5h5q10 29 45 101zM196 616l-13 20l155 113l22 -30z" />
    <glyph glyph-name="thorn" unicode="&#xfe;" horiz-adv-x="668" 
d="M348 506q-92 0 -162 -66q-69 -65 -69 -145v-129q26 -56 85 -102q61 -46 143 -46q101 0 169 69q67 68 67 174q0 104 -66 175q-64 70 -167 70zM88 -216v980h29v-370q30 64 96 102q66 39 139 39q115 0 187 -82q72 -81 72 -192q0 -113 -75 -192q-74 -80 -188 -80
q-76 0 -135.5 36t-95.5 88v-329h-29z" />
    <glyph glyph-name="ydieresis" unicode="&#xff;" horiz-adv-x="542" 
d="M480 522h33l-348 -738h-32l121 258l-224 480h32l162 -345l29 -64.5t15 -37.5h5q10 29 45 101zM165 663q-8 9 -8 22t8 21q9 9 22 9t21 -9q9 -8 9 -21t-9 -22q-8 -8 -21 -8t-22 8zM335 663q-8 9 -8 22t8 21q9 9 22 9t21 -9q9 -8 9 -21t-9 -22q-8 -8 -21 -8t-22 8z" />
    <glyph glyph-name="Amacron" unicode="&#x100;" horiz-adv-x="696" 
d="M342 712h12l315 -712h-34l-77 179h-420l-77 -179h-34zM546 208l-144 327l-32 75.5t-20 48.5h-4q-7 -18 -20 -48.5l-32 -75.5l-144 -327h396zM233 888h220v-28h-220v28z" />
    <glyph glyph-name="amacron" unicode="&#x101;" horiz-adv-x="563" 
d="M446 238q-93 40 -207 40q-63 0 -109 -39q-46 -37 -46 -95q0 -57 40.5 -91.5t104.5 -34.5q81 0 149 54t68 122v44zM255 535q95 0 157 -50q63 -50 63 -130v-355h-22l-4 116q-28 -57 -91 -92q-62 -35 -131 -35q-79 0 -126 44q-47 45 -47 111q0 65 52 114t133 49
q111 0 207 -38v80q0 45 -18.5 75t-47 48.5t-62 26t-63.5 7.5q-29 0 -54 -6q-13 -2 -22.5 -5t-16.5 -5l-40 -17v33q75 29 133 29zM160 699h220v-28h-220v28z" />
    <glyph glyph-name="Abreve" unicode="&#x102;" horiz-adv-x="696" 
d="M342 712h12l315 -712h-34l-77 179h-420l-77 -179h-34zM546 208l-144 327l-32 75.5t-20 48.5h-4q-7 -18 -20 -48.5l-32 -75.5l-144 -327h396zM484 911q-21 -46 -58.5 -67.5t-79.5 -21.5q-100 0 -139 88l24 9q28 -70 114 -70q84 0 114 70z" />
    <glyph glyph-name="abreve" unicode="&#x103;" horiz-adv-x="563" 
d="M446 238q-93 40 -207 40q-63 0 -109 -39q-46 -37 -46 -95q0 -57 40.5 -91.5t104.5 -34.5q81 0 149 54t68 122v44zM255 535q95 0 157 -50q63 -50 63 -130v-355h-22l-4 116q-28 -57 -91 -92q-62 -35 -131 -35q-79 0 -126 44q-47 45 -47 111q0 65 52 114t133 49
q111 0 207 -38v80q0 45 -18.5 75t-47 48.5t-62 26t-63.5 7.5q-29 0 -54 -6q-13 -2 -22.5 -5t-16.5 -5l-40 -17v33q75 29 133 29zM408 722q-21 -46 -58.5 -67.5t-79.5 -21.5q-100 0 -139 88l24 9q28 -70 114 -70q84 0 114 70z" />
    <glyph glyph-name="Aogonek" unicode="&#x104;" horiz-adv-x="696" 
d="M342 712h12l315 -712q-33 -20 -56.5 -47t-23.5 -51q0 -23 16.5 -35.5t39.5 -12.5q16 0 30 6v-28q-15 -7 -37 -7q-35 0 -57 20.5t-22 51.5q0 58 75 103l-76 179h-420l-77 -179h-34zM546 208l-144 327l-35 81t-17 41h-4q-4 -11 -17 -41l-35 -81l-144 -327h396z" />
    <glyph glyph-name="aogonek" unicode="&#x105;" horiz-adv-x="563" 
d="M494 -168q-15 -7 -37 -7q-35 0 -57 20.5t-22 51.5q0 29 21 57t54 47l-4 115q-28 -57 -91 -92q-62 -35 -131 -35q-79 0 -126 44q-47 45 -47 111q0 65 52 114t133 49q111 0 207 -38v80q0 45 -18.5 75t-47 48.5t-62 26t-63.5 7.5q-29 0 -54 -6q-13 -2 -22.5 -5t-16.5 -5
l-40 -17v33q75 29 133 29q95 0 157 -50q63 -50 63 -130v-356q-67 -55 -67 -97q0 -23 16.5 -35.5t39.5 -12.5q16 0 30 6v-28zM446 238q-93 40 -207 40q-63 0 -109 -39q-46 -37 -46 -95q0 -57 40.5 -91.5t104.5 -34.5q81 0 149 54t68 122v44z" />
    <glyph glyph-name="Cacute" unicode="&#x106;" horiz-adv-x="646" 
d="M579 31q-81 -42 -168 -42q-151 0 -255 104q-103 104 -103 263t103 263q103 105 255 105q87 0 168 -42v-34q-77 47 -168 47q-142 0 -235 -99t-93 -240t93 -240q93 -98 235 -98q90 0 168 48v-35zM316 805l-13 20l155 113l22 -30z" />
    <glyph glyph-name="cacute" unicode="&#x107;" horiz-adv-x="496" 
d="M316 506q-95 0 -162 -69q-66 -68 -66 -176q0 -109 66 -176q67 -67 162 -67q69 0 133 44v-35q-62 -38 -133 -38q-109 0 -184 76q-74 77 -74 196t74 196q75 78 184 78q71 0 133 -38v-36q-65 45 -133 45zM239 616l-13 20l155 113l22 -30z" />
    <glyph glyph-name="Ccircumflex" unicode="&#x108;" horiz-adv-x="646" 
d="M579 31q-81 -42 -168 -42q-151 0 -255 104q-103 104 -103 263t103 263q103 105 255 105q87 0 168 -42v-34q-77 47 -168 47q-142 0 -235 -99t-93 -240t93 -240q93 -98 235 -98q90 0 168 48v-35zM515 831l-13 -19l-123 80l-123 -80l-13 20l136 104z" />
    <glyph glyph-name="ccircumflex" unicode="&#x109;" horiz-adv-x="496" 
d="M316 506q-95 0 -162 -69q-66 -68 -66 -176q0 -109 66 -176q67 -67 162 -67q69 0 133 44v-35q-62 -38 -133 -38q-109 0 -184 76q-74 77 -74 196t74 196q75 78 184 78q71 0 133 -38v-36q-65 45 -133 45zM451 642l-13 -19l-123 80l-123 -80l-13 20l136 104z" />
    <glyph glyph-name="Cdotaccent" unicode="&#x10a;" horiz-adv-x="646" 
d="M579 31q-81 -42 -168 -42q-151 0 -255 104q-103 104 -103 263t103 263q103 105 255 105q87 0 168 -42v-34q-77 47 -168 47q-142 0 -235 -99t-93 -240t93 -240q93 -98 235 -98q90 0 168 48v-35zM380 852q-8 9 -8 22t8 21q9 9 22 9t21 -9q9 -8 9 -21t-9 -22q-8 -8 -21 -8
t-22 8z" />
    <glyph glyph-name="cdotaccent" unicode="&#x10b;" horiz-adv-x="496" 
d="M316 506q-95 0 -162 -69q-66 -68 -66 -176q0 -109 66 -176q67 -67 162 -67q69 0 133 44v-35q-62 -38 -133 -38q-109 0 -184 76q-74 77 -74 196t74 196q75 78 184 78q71 0 133 -38v-36q-65 45 -133 45zM295 663q-8 9 -8 22t8 21q9 9 22 9t21 -9q9 -8 9 -21t-9 -22
q-8 -8 -21 -8t-22 8z" />
    <glyph glyph-name="Ccaron" unicode="&#x10c;" horiz-adv-x="646" 
d="M579 31q-81 -42 -168 -42q-151 0 -255 104q-103 104 -103 263t103 263q103 105 255 105q87 0 168 -42v-34q-77 47 -168 47q-142 0 -235 -99t-93 -240t93 -240q93 -98 235 -98q90 0 168 48v-35zM522 935l14 -20l-137 -103l-137 103l13 20l124 -79z" />
    <glyph glyph-name="ccaron" unicode="&#x10d;" horiz-adv-x="496" 
d="M316 506q-95 0 -162 -69q-66 -68 -66 -176q0 -109 66 -176q67 -67 162 -67q69 0 133 44v-35q-62 -38 -133 -38q-109 0 -184 76q-74 77 -74 196t74 196q75 78 184 78q71 0 133 -38v-36q-65 45 -133 45zM439 746l14 -20l-137 -103l-137 103l13 20l124 -79z" />
    <glyph glyph-name="Dcaron" unicode="&#x10e;" horiz-adv-x="698" 
d="M253 712q192 0 292 -100t100 -256t-100 -256t-292 -100h-156v712h156zM250 29q169 0 267 84t98 243t-98 243t-267 84h-124v-654h124zM406 935l14 -20l-137 -103l-137 103l13 20l124 -79z" />
    <glyph glyph-name="dcaron" unicode="&#x10f;" horiz-adv-x="668" 
d="M320 18q91 0 162 62q70 63 70 140v136q-24 56 -86 103t-143 47q-102 0 -169 -70q-66 -71 -66 -175t65 -174q64 -69 167 -69zM552 764h29v-764h-22l-5 132q-32 -66 -97 -105q-67 -38 -140 -38q-116 0 -188 80q-71 82 -71 192q0 111 74 193q73 81 188 81q139 0 232 -126
v355zM671 588q16 46 27.5 91.5t19.5 92.5l39 10q-14 -59 -32 -108.5t-38 -91.5z" />
    <glyph glyph-name="Dcroat" unicode="&#x110;" horiz-adv-x="698" 
d="M10 342v29h87v341h156q192 0 292 -100t100 -256t-100 -256t-292 -100h-156v342h-87zM250 29q169 0 267 84t98 243t-98 243t-267 84h-124v-312h223v-29h-223v-313h124z" />
    <glyph glyph-name="dcroat" unicode="&#x111;" horiz-adv-x="668" 
d="M552 764h29v-90h72v-29h-72v-645h-22l-6 129q-30 -65 -97 -102q-67 -38 -139 -38q-116 0 -188 80q-71 82 -71 192q0 111 74 193q73 81 188 81q37 0 71.5 -10t64 -27t54 -40t42.5 -49v236h-230v29h230v90zM320 18q91 0 162 65q70 64 70 145v128q-24 56 -86 103t-143 47
q-102 0 -169 -70q-66 -71 -66 -175t65 -174q64 -69 167 -69z" />
    <glyph glyph-name="Emacron" unicode="&#x112;" horiz-adv-x="534" 
d="M97 0v712h364v-29h-335v-291h325v-29h-325v-334h335v-29h-364zM164 888h220v-28h-220v28z" />
    <glyph glyph-name="emacron" unicode="&#x113;" horiz-adv-x="569" 
d="M482 301q0 97 -54 151t-133 54q-74 0 -135 -58q-61 -56 -70 -147h392zM88 272q0 -107 63 -180q65 -74 163 -74q88 0 165 39v-33q-75 -35 -167 -35q-108 0 -181 81q-73 80 -73 198q0 107 67 186q67 81 171 81q96 0 156 -64q60 -63 60 -176q0 -7 -0.5 -12.5t-1.5 -10.5
h-422zM191 699h220v-28h-220v28z" />
    <glyph glyph-name="Ebreve" unicode="&#x114;" horiz-adv-x="534" 
d="M97 0v712h364v-29h-335v-291h325v-29h-325v-334h335v-29h-364zM413 911q-21 -46 -58.5 -67.5t-79.5 -21.5q-100 0 -139 88l24 9q28 -70 114 -70q84 0 114 70z" />
    <glyph glyph-name="ebreve" unicode="&#x115;" horiz-adv-x="569" 
d="M482 301q0 97 -54 151t-133 54q-74 0 -135 -58q-61 -56 -70 -147h392zM88 272q0 -107 63 -180q65 -74 163 -74q88 0 165 39v-33q-75 -35 -167 -35q-108 0 -181 81q-73 80 -73 198q0 107 67 186q67 81 171 81q96 0 156 -64q60 -63 60 -176q0 -7 -0.5 -12.5t-1.5 -10.5
h-422zM442 722q-21 -46 -58.5 -67.5t-79.5 -21.5q-100 0 -139 88l24 9q28 -70 114 -70q84 0 114 70z" />
    <glyph glyph-name="Edotaccent" unicode="&#x116;" horiz-adv-x="534" 
d="M97 0v712h364v-29h-335v-291h325v-29h-325v-334h335v-29h-364zM259 852q-8 9 -8 22t8 21q9 9 22 9t21 -9q9 -8 9 -21t-9 -22q-8 -8 -21 -8t-22 8z" />
    <glyph glyph-name="edotaccent" unicode="&#x117;" horiz-adv-x="569" 
d="M482 301q0 97 -54 151t-133 54q-74 0 -135 -58q-61 -56 -70 -147h392zM88 272q0 -107 63 -180q65 -74 163 -74q88 0 165 39v-33q-75 -35 -167 -35q-108 0 -181 81q-73 80 -73 198q0 107 67 186q67 81 171 81q96 0 156 -64q60 -63 60 -176q0 -7 -0.5 -12.5t-1.5 -10.5
h-422zM279 663q-8 9 -8 22t8 21q9 9 22 9t21 -9q9 -8 9 -21t-9 -22q-8 -8 -21 -8t-22 8z" />
    <glyph glyph-name="Eogonek" unicode="&#x118;" horiz-adv-x="534" 
d="M97 0v712h364v-29h-335v-291h325v-29h-325v-334h335v-29q-30 -21 -52 -48t-22 -50t16.5 -35.5t39.5 -12.5q16 0 30 6v-28q-15 -7 -37 -7q-35 0 -57 20.5t-22 51.5q0 58 74 103h-334z" />
    <glyph glyph-name="eogonek" unicode="&#x119;" horiz-adv-x="569" 
d="M362 -168q-17 -7 -37 -7q-35 0 -57 20.5t-22 51.5q0 51 57 92q-105 5 -175 84t-70 195q0 107 67 186q67 81 171 81q96 0 156 -64q60 -63 60 -176q0 -7 -0.5 -12.5t-1.5 -10.5h-422q0 -107 63 -180q65 -74 163 -74q88 0 165 39v-33q-63 -31 -145 -34q-58 -46 -58 -88
q0 -23 16.5 -35.5t39.5 -12.5q16 0 30 6v-28zM482 301q0 97 -54 151t-133 54q-74 0 -135 -58q-61 -56 -70 -147h392z" />
    <glyph glyph-name="Ecaron" unicode="&#x11a;" horiz-adv-x="534" 
d="M97 0v712h364v-29h-335v-291h325v-29h-325v-334h335v-29h-364zM389 935l14 -20l-137 -103l-137 103l13 20l124 -79z" />
    <glyph glyph-name="ecaron" unicode="&#x11b;" horiz-adv-x="569" 
d="M482 301q0 97 -54 151t-133 54q-74 0 -135 -58q-61 -56 -70 -147h392zM88 272q0 -107 63 -180q65 -74 163 -74q88 0 165 39v-33q-75 -35 -167 -35q-108 0 -181 81q-73 80 -73 198q0 107 67 186q67 81 171 81q96 0 156 -64q60 -63 60 -176q0 -7 -0.5 -12.5t-1.5 -10.5
h-422zM422 746l14 -20l-137 -103l-137 103l13 20l124 -79z" />
    <glyph glyph-name="Gcircumflex" unicode="&#x11c;" horiz-adv-x="707" 
d="M393 340h238v-314q-104 -32 -220 -32q-152 0 -255 103t-103 261q0 159 103 262q104 104 255 104q104 0 193 -46v-32q-95 49 -193 49q-143 0 -236 -98q-92 -98 -92 -239q0 -140 92 -238q93 -97 236 -97q107 0 191 26v262h-209v29zM535 831l-13 -19l-123 80l-123 -80
l-13 20l136 104z" />
    <glyph glyph-name="gcircumflex" unicode="&#x11d;" horiz-adv-x="649" 
d="M532 363q-15 30 -38 56t-51.5 45.5t-63 30.5t-71.5 11q-94 0 -157 -68t-63 -166q0 -100 62 -168q63 -66 158 -66q91 0 157 68q67 67 67 166v91zM538 522h23v-497q0 -105 -73 -177q-72 -73 -178 -73q-108 0 -201 44v34q94 -49 203 -49q81 0 151 59q69 58 69 151v143
q-32 -72 -93 -110t-133 -38q-110 0 -179 77q-69 76 -69 186q0 108 69 185q70 78 179 78q141 0 228 -123zM451 642l-13 -19l-123 80l-123 -80l-13 20l136 104z" />
    <glyph glyph-name="Gbreve" unicode="&#x11e;" horiz-adv-x="707" 
d="M393 340h238v-314q-104 -32 -220 -32q-152 0 -255 103t-103 261q0 159 103 262q104 104 255 104q104 0 193 -46v-32q-95 49 -193 49q-143 0 -236 -98q-92 -98 -92 -239q0 -140 92 -238q93 -97 236 -97q107 0 191 26v262h-209v29zM542 911q-21 -46 -58.5 -67.5
t-79.5 -21.5q-100 0 -139 88l24 9q28 -70 114 -70q84 0 114 70z" />
    <glyph glyph-name="gbreve" unicode="&#x11f;" horiz-adv-x="649" 
d="M532 363q-15 30 -38 56t-51.5 45.5t-63 30.5t-71.5 11q-94 0 -157 -68t-63 -166q0 -100 62 -168q63 -66 158 -66q91 0 157 68q67 67 67 166v91zM538 522h23v-497q0 -105 -73 -177q-72 -73 -178 -73q-108 0 -201 44v34q94 -49 203 -49q81 0 151 59q69 58 69 151v143
q-32 -72 -93 -110t-133 -38q-110 0 -179 77q-69 76 -69 186q0 108 69 185q70 78 179 78q141 0 228 -123zM453 722q-21 -46 -58.5 -67.5t-79.5 -21.5q-100 0 -139 88l24 9q28 -70 114 -70q84 0 114 70z" />
    <glyph glyph-name="Gdotaccent" unicode="&#x120;" horiz-adv-x="707" 
d="M393 340h238v-314q-104 -32 -220 -32q-152 0 -255 103t-103 261q0 159 103 262q104 104 255 104q104 0 193 -46v-32q-95 49 -193 49q-143 0 -236 -98q-92 -98 -92 -239q0 -140 92 -238q93 -97 236 -97q107 0 191 26v262h-209v29zM384 852q-8 9 -8 22t8 21q9 9 22 9t21 -9
q9 -8 9 -21t-9 -22q-8 -8 -21 -8t-22 8z" />
    <glyph glyph-name="gdotaccent" unicode="&#x121;" horiz-adv-x="649" 
d="M532 363q-15 30 -38 56t-51.5 45.5t-63 30.5t-71.5 11q-94 0 -157 -68t-63 -166q0 -100 62 -168q63 -66 158 -66q91 0 157 68q67 67 67 166v91zM538 522h23v-497q0 -105 -73 -177q-72 -73 -178 -73q-108 0 -201 44v34q94 -49 203 -49q81 0 151 59q69 58 69 151v143
q-32 -72 -93 -110t-133 -38q-110 0 -179 77q-69 76 -69 186q0 108 69 185q70 78 179 78q141 0 228 -123zM292 663q-8 9 -8 22t8 21q9 9 22 9t21 -9q9 -8 9 -21t-9 -22q-8 -8 -21 -8t-22 8z" />
    <glyph glyph-name="Gcommaaccent" unicode="&#x122;" horiz-adv-x="707" 
d="M393 340h238v-314q-104 -32 -220 -32q-152 0 -255 103t-103 261q0 159 103 262q104 104 255 104q104 0 193 -46v-32q-95 49 -193 49q-143 0 -236 -98q-92 -98 -92 -239q0 -140 92 -238q93 -97 236 -97q107 0 191 26v262h-209v29zM347 -246q16 46 27.5 91.5t19.5 92.5
l39 10q-14 -59 -32 -108.5t-38 -91.5z" />
    <glyph glyph-name="gcommaaccent" unicode="&#x123;" horiz-adv-x="649" 
d="M532 363q-15 30 -38 56t-51.5 45.5t-63 30.5t-71.5 11q-94 0 -157 -68t-63 -166q0 -100 62 -168q63 -66 158 -66q91 0 157 68q67 67 67 166v91zM538 522h23v-497q0 -105 -73 -177q-72 -73 -178 -73q-108 0 -201 44v34q94 -49 203 -49q81 0 151 59q69 58 69 151v143
q-32 -72 -93 -110t-133 -38q-110 0 -179 77q-69 76 -69 186q0 108 69 185q70 78 179 78q141 0 228 -123zM359 780q-16 -46 -27.5 -91.5t-19.5 -92.5l-39 -10q14 59 32 108.5t38 91.5z" />
    <glyph glyph-name="Hcircumflex" unicode="&#x124;" horiz-adv-x="683" 
d="M557 391v321h29v-712h-29v362h-431v-362h-29v712h29v-321h431zM470 831l-13 -19l-123 80l-123 -80l-13 20l136 104z" />
    <glyph glyph-name="hcircumflex" unicode="&#x125;" horiz-adv-x="609" 
d="M88 764h29v-343q30 49 82 81.5t119 32.5q91 0 147 -62t56 -158v-315h-29v312q0 47 -13 83t-37 61t-56.5 37.5t-71.5 12.5q-79 0 -132 -49q-55 -49 -65 -97v-360h-29v764zM241 831l-13 -19l-123 80l-123 -80l-13 20l136 104z" />
    <glyph glyph-name="Hbar" unicode="&#x126;" horiz-adv-x="683" 
d="M668 572v-29h-82v-543h-29v362h-431v-362h-29v543h-83v29h83v140h29v-140h431v140h29v-140h82zM557 391v152h-431v-152h431z" />
    <glyph glyph-name="hbar" unicode="&#x127;" horiz-adv-x="609" 
d="M88 764h29v-90h201v-29h-201v-223q15 22 36.5 42.5t47.5 36.5t55.5 25t61.5 9q91 0 147 -62t56 -158v-315h-29v312q0 47 -13 83t-37 61t-56.5 37.5t-71.5 12.5q-78 0 -133 -51q-57 -52 -64 -97v-358h-29v645h-77v29h77v90z" />
    <glyph glyph-name="Itilde" unicode="&#x128;" horiz-adv-x="223" 
d="M166 837q-23 0 -61 20q-38 21 -59 21q-36 0 -59 -32l-19 18q31 45 83 45q21 0 62 -21q42 -20 58 -20q32 0 58 33q6 -4 10 -9t9 -8q-38 -47 -82 -47zM126 712v-712h-29v712h29z" />
    <glyph glyph-name="itilde" unicode="&#x129;" horiz-adv-x="205" 
d="M160 648q-23 0 -61 20q-38 21 -59 21q-36 0 -59 -32l-19 18q31 45 83 45q21 0 62 -21q42 -20 58 -20q32 0 58 33q6 -4 10 -9t9 -8q-38 -47 -82 -47zM117 0h-29v522h29v-522z" />
    <glyph glyph-name="Imacron" unicode="&#x12a;" horiz-adv-x="223" 
d="M126 712v-712h-29v712h29zM-1 888h220v-28h-220v28z" />
    <glyph glyph-name="imacron" unicode="&#x12b;" horiz-adv-x="205" 
d="M117 0h-29v522h29v-522zM-7 699h220v-28h-220v28z" />
    <glyph glyph-name="Ibreve" unicode="&#x12c;" horiz-adv-x="223" 
d="M249 911q-21 -46 -58.5 -67.5t-79.5 -21.5q-100 0 -139 88l24 9q28 -70 114 -70q84 0 114 70zM126 712v-712h-29v712h29z" />
    <glyph glyph-name="ibreve" unicode="&#x12d;" horiz-adv-x="205" 
d="M241 722q-21 -46 -58.5 -67.5t-79.5 -21.5q-100 0 -139 88l24 9q28 -70 114 -70q84 0 114 70zM117 0h-29v522h29v-522z" />
    <glyph glyph-name="Iogonek" unicode="&#x12e;" horiz-adv-x="223" 
d="M138 -168q-17 -7 -37 -7q-35 0 -57 20.5t-22 51.5q0 29 21 56.5t54 46.5v712h29v-712q-31 -20 -52.5 -47.5t-21.5 -50.5t16.5 -35.5t39.5 -12.5q16 0 30 6v-28z" />
    <glyph glyph-name="iogonek" unicode="&#x12f;" horiz-adv-x="205" 
d="M129 -168q-17 -7 -37 -7q-35 0 -57 20.5t-22 51.5q0 29 21 56.5t54 46.5v522h29v-522q-30 -21 -52 -48t-22 -50t16.5 -35.5t39.5 -12.5q16 0 30 6v-28zM81 629q-11 10 -9 23t10 21.5t20 10t23 -10.5q12 -11 10.5 -23t-10 -20t-21.5 -10t-23 9z" />
    <glyph glyph-name="Idotaccent" unicode="&#x130;" horiz-adv-x="223" 
d="M90 852q-8 9 -8 22t8 21q9 9 22 9t21 -9q9 -8 9 -21t-9 -22q-8 -8 -21 -8t-22 8zM126 712v-712h-29v712h29z" />
    <glyph glyph-name="dotlessi" unicode="&#x131;" horiz-adv-x="205" 
d="M117 0h-29v522h29v-522z" />
    <glyph glyph-name="IJ" unicode="&#x132;" horiz-adv-x="641" 
d="M515 712h29v-532q0 -86 -47 -139q-46 -52 -120 -52q-57 0 -101 32v37q49 -40 103 -40q55 0 95 46q41 47 41 115v533zM126 712v-712h-29v712h29z" />
    <glyph glyph-name="ij" unicode="&#x133;" horiz-adv-x="416" 
d="M146 -195q5 -1 11.5 -1h16.5q59 0 92 42q33 40 33 99v577h29v-572q0 -38 -10.5 -70t-30 -55t-49 -36.5t-66.5 -13.5q-16 0 -26 2v28zM292 629q-11 10 -9 23t10 21.5t20 10t23 -10.5q12 -11 10.5 -23t-10 -20t-21.5 -10t-23 9zM117 0h-29v522h29v-522zM81 629
q-11 10 -9 23t10 21.5t20 10t23 -10.5q12 -11 10.5 -23t-10 -20t-21.5 -10t-23 9z" />
    <glyph glyph-name="Jcircumflex" unicode="&#x134;" horiz-adv-x="412" 
d="M286 712h29v-532q0 -86 -47 -139q-46 -52 -120 -52q-57 0 -101 32v37q49 -40 103 -40q55 0 95 46q41 47 41 115v533zM431 831l-13 -19l-123 80l-123 -80l-13 20l136 104z" />
    <glyph glyph-name="jcircumflex" unicode="&#x135;" horiz-adv-x="205" 
d="M-65 -195q5 -1 11.5 -1h16.5q59 0 92 42q33 40 33 99v577h29v-572q0 -38 -10.5 -70t-30 -55t-49 -36.5t-66.5 -13.5q-16 0 -26 2v28zM237 642l-13 -19l-123 80l-123 -80l-13 20l136 104z" />
    <glyph glyph-name="Kcommaaccent" unicode="&#x136;" horiz-adv-x="574" 
d="M543 712l-298 -331l302 -381h-38l-286 357l-97 -108v-249h-29v712h29v-340v-52t-1 -27h4q7 8 19.5 23.5l31.5 37.5l324 358h39zM244 -246q16 46 27.5 91.5t19.5 92.5l39 10q-14 -59 -32 -108.5t-38 -91.5z" />
    <glyph glyph-name="kcommaaccent" unicode="&#x137;" horiz-adv-x="495" 
d="M412 522h36l-218 -245l230 -277h-37l-217 256l-89 -92v-164h-29v764h29v-463v-64t-1 -34h5q11 15 27.5 32.5t37.5 37.5zM182 -246q16 46 27.5 91.5t19.5 92.5l39 10q-14 -59 -32 -108.5t-38 -91.5z" />
    <glyph glyph-name="kgreenlandic" unicode="&#x138;" horiz-adv-x="495" 
d="M412 522h36l-218 -245l230 -277h-37l-217 256l-89 -92v-164h-29v522h29v-221v-62t-1 -34h8q13 17 28 34t34 34z" />
    <glyph glyph-name="Lacute" unicode="&#x139;" horiz-adv-x="422" 
d="M126 712v-683h269v-29h-298v712h29zM37 805l-13 20l155 113l22 -30z" />
    <glyph glyph-name="lacute" unicode="&#x13a;" horiz-adv-x="205" 
d="M88 0v764h29v-764h-29zM27 805l-13 20l155 113l22 -30z" />
    <glyph glyph-name="Lcommaaccent" unicode="&#x13b;" horiz-adv-x="422" 
d="M126 712v-683h269v-29h-298v712h29zM179 -246q16 46 27.5 91.5t19.5 92.5l39 10q-14 -59 -32 -108.5t-38 -91.5z" />
    <glyph glyph-name="lcommaaccent" unicode="&#x13c;" horiz-adv-x="205" 
d="M88 0v764h29v-764h-29zM54 -246q16 46 27.5 91.5t19.5 92.5l39 10q-14 -59 -32 -108.5t-38 -91.5z" />
    <glyph glyph-name="Lcaron" unicode="&#x13d;" horiz-adv-x="422" 
d="M126 712v-683h269v-29h-298v712h29zM256 580q16 46 27.5 91.5t19.5 92.5l39 10q-14 -59 -32 -108.5t-38 -91.5z" />
    <glyph glyph-name="lcaron" unicode="&#x13e;" horiz-adv-x="205" 
d="M88 0v764h29v-764h-29zM208 588q16 46 27.5 91.5t19.5 92.5l39 10q-14 -59 -32 -108.5t-38 -91.5z" />
    <glyph glyph-name="Ldot" unicode="&#x13f;" horiz-adv-x="422" 
d="M126 712v-683h269v-29h-298v712h29zM251 278q12 12 26 10.5t23 -11t10.5 -23t-10.5 -24.5q-11 -12 -24.5 -10.5t-23 11t-11.5 23t10 24.5z" />
    <glyph glyph-name="ldot" unicode="&#x140;" horiz-adv-x="261" 
d="M194 278q12 12 26 10.5t23 -11t10.5 -23t-10.5 -24.5q-11 -12 -24.5 -10.5t-23 11t-11.5 23t10 24.5zM88 0v764h29v-764h-29z" />
    <glyph glyph-name="Lslash" unicode="&#x141;" horiz-adv-x="422" 
d="M126 712v-325l99 83l18 -23l-117 -97v-321h269v-29h-298v326l-100 -83l-18 22l118 98v349h29z" />
    <glyph glyph-name="lslash" unicode="&#x142;" horiz-adv-x="205" 
d="M88 0v349l-81 -67l-18 22l99 82v378h29v-353l85 71l18 -23l-103 -86v-373h-29z" />
    <glyph glyph-name="Nacute" unicode="&#x143;" horiz-adv-x="726" 
d="M629 712v-712h-17l-410 560l-45 62.5t-30 43.5l-3 -1q1 -16 1.5 -47t0.5 -77v-541h-29v712h28l409 -557q28 -37 43.5 -60t20.5 -32h4q-1 18 -1.5 51.5t-0.5 82.5v515h29zM281 805l-13 20l155 113l22 -30z" />
    <glyph glyph-name="nacute" unicode="&#x144;" horiz-adv-x="609" 
d="M88 522h24l3 -104q29 51 81 84t121 33q92 0 148 -62t56 -158v-315h-29v312q0 47 -13 83t-37 61t-56.5 37.5t-71.5 12.5q-76 0 -126 -44q-51 -44 -71 -94v-368h-29v522zM229 616l-13 20l155 113l22 -30z" />
    <glyph glyph-name="Ncommaaccent" unicode="&#x145;" horiz-adv-x="726" 
d="M629 712v-712h-17l-410 560l-45 62.5t-30 43.5l-3 -1q1 -16 1.5 -47t0.5 -77v-541h-29v712h28l409 -557q28 -37 43.5 -60t20.5 -32h4q-1 18 -1.5 51.5t-0.5 82.5v515h29zM318 -246q16 46 27.5 91.5t19.5 92.5l39 10q-14 -59 -32 -108.5t-38 -91.5z" />
    <glyph glyph-name="ncommaaccent" unicode="&#x146;" horiz-adv-x="609" 
d="M88 522h24l3 -104q29 51 81 84t121 33q92 0 148 -62t56 -158v-315h-29v312q0 47 -13 83t-37 61t-56.5 37.5t-71.5 12.5q-76 0 -126 -44q-51 -44 -71 -94v-368h-29v522zM230 -246q16 46 27.5 91.5t19.5 92.5l39 10q-14 -59 -32 -108.5t-38 -91.5z" />
    <glyph glyph-name="Ncaron" unicode="&#x147;" horiz-adv-x="726" 
d="M629 712v-712h-17l-410 560l-45 62.5t-30 43.5l-3 -1q1 -16 1.5 -47t0.5 -77v-541h-29v712h28l409 -557q28 -37 43.5 -60t20.5 -32h4q-1 18 -1.5 51.5t-0.5 82.5v515h29zM475 935l14 -20l-137 -103l-137 103l13 20l124 -79z" />
    <glyph glyph-name="ncaron" unicode="&#x148;" horiz-adv-x="609" 
d="M88 522h24l3 -104q29 51 81 84t121 33q92 0 148 -62t56 -158v-315h-29v312q0 47 -13 83t-37 61t-56.5 37.5t-71.5 12.5q-76 0 -126 -44q-51 -44 -71 -94v-368h-29v522zM429 746l14 -20l-137 -103l-137 103l13 20l124 -79z" />
    <glyph glyph-name="napostrophe" unicode="&#x149;" horiz-adv-x="767" 
d="M246 522h24l3 -104q29 51 81 84t121 33q92 0 148 -62t56 -158v-315h-29v312q0 47 -13 83t-37 61t-56.5 37.5t-71.5 12.5q-76 0 -126 -44q-51 -44 -71 -94v-368h-29v522zM45 506q55 142 67 258l45 11q-42 -173 -94 -276z" />
    <glyph glyph-name="Eng" unicode="&#x14a;" horiz-adv-x="726" 
d="M458 -195q5 -1 12 -1h15q27 0 48.5 10t36 27.5t22.5 41t8 50.5v83l-399 544l-46 64l-28 40l-3 -1q1 -16 1.5 -46.5t0.5 -75.5v-541h-29v712h28l410 -557q50 -68 63 -92h4q-1 18 -1.5 51.5t-0.5 82.5v515h29v-774q0 -35 -9.5 -65t-28.5 -51.5t-46 -34t-62 -12.5
q-15 0 -25 2v28z" />
    <glyph glyph-name="eng" unicode="&#x14b;" horiz-adv-x="609" 
d="M338 -195q5 -1 12 -1h17q59 0 92 42q33 40 33 99v367q0 47 -13 83t-37 61t-56.5 37.5t-71.5 12.5q-78 0 -133 -51q-57 -52 -64 -97v-358h-29v522h23l4 -100q29 44 84 79q55 34 119 34q91 0 147 -62t56 -158v-365q0 -38 -10.5 -70t-30.5 -55t-49.5 -36.5t-66.5 -13.5
q-8 0 -14.5 0.5t-11.5 1.5v28z" />
    <glyph glyph-name="Omacron" unicode="&#x14c;" horiz-adv-x="822" 
d="M157 617q105 107 254 107t253 -107q105 -107 105 -261q0 -155 -105 -261q-103 -106 -253 -106q-149 0 -254 106q-104 107 -104 261t104 261zM739 356q0 142 -96 240q-95 99 -232 99t-233 -99q-95 -98 -95 -240q0 -140 95 -240q96 -98 233 -98t232 98q96 99 96 240z
M293 888h220v-28h-220v28z" />
    <glyph glyph-name="omacron" unicode="&#x14d;" horiz-adv-x="644" 
d="M88 260q0 -102 67 -172t166 -70t167 69q68 71 68 174q0 104 -69 175q-69 70 -166 70t-165 -71t-68 -175zM321 535q112 0 189 -80q76 -79 76 -195q0 -113 -76 -192t-189 -79q-112 0 -188 78q-75 79 -75 192q0 117 76 196q77 80 187 80zM214 699h220v-28h-220v28z" />
    <glyph glyph-name="Obreve" unicode="&#x14e;" horiz-adv-x="822" 
d="M157 617q105 107 254 107t253 -107q105 -107 105 -261q0 -155 -105 -261q-103 -106 -253 -106q-149 0 -254 106q-104 107 -104 261t104 261zM739 356q0 142 -96 240q-95 99 -232 99t-233 -99q-95 -98 -95 -240q0 -140 95 -240q96 -98 233 -98t232 98q96 99 96 240z
M550 911q-21 -46 -58.5 -67.5t-79.5 -21.5q-100 0 -139 88l24 9q28 -70 114 -70q84 0 114 70z" />
    <glyph glyph-name="obreve" unicode="&#x14f;" horiz-adv-x="644" 
d="M88 260q0 -102 67 -172t166 -70t167 69q68 71 68 174q0 104 -69 175q-69 70 -166 70t-165 -71t-68 -175zM321 535q112 0 189 -80q76 -79 76 -195q0 -113 -76 -192t-189 -79q-112 0 -188 78q-75 79 -75 192q0 117 76 196q77 80 187 80zM461 722q-21 -46 -58.5 -67.5
t-79.5 -21.5q-100 0 -139 88l24 9q28 -70 114 -70q84 0 114 70z" />
    <glyph glyph-name="Ohungarumlaut" unicode="&#x150;" horiz-adv-x="822" 
d="M157 617q105 107 254 107t253 -107q105 -107 105 -261q0 -155 -105 -261q-103 -106 -253 -106q-149 0 -254 106q-104 107 -104 261t104 261zM739 356q0 142 -96 240q-95 99 -232 99t-233 -99q-95 -98 -95 -240q0 -140 95 -240q96 -98 233 -98t232 98q96 99 96 240z
M389 933l24 -25l-104 -94l-16 16zM519 933l24 -25l-103 -94l-17 16z" />
    <glyph glyph-name="ohungarumlaut" unicode="&#x151;" horiz-adv-x="644" 
d="M88 260q0 -102 67 -172t166 -70t167 69q68 71 68 174q0 104 -69 175q-69 70 -166 70t-165 -71t-68 -175zM321 535q112 0 189 -80q76 -79 76 -195q0 -113 -76 -192t-189 -79q-112 0 -188 78q-75 79 -75 192q0 117 76 196q77 80 187 80zM330 744l24 -25l-104 -94l-16 16z
M460 744l24 -25l-103 -94l-17 16z" />
    <glyph glyph-name="OE" unicode="&#x152;" horiz-adv-x="936" 
d="M863 683h-335v-291h325v-29h-325v-334h335v-29h-363q-46 -11 -88 -11q-149 0 -254 106q-104 107 -104 261t104 261q105 107 254 107q47 0 92 -12h359v-29zM84 356q0 -140 95 -240q96 -98 233 -98q45 0 87 12v653q-42 12 -87 12q-137 0 -233 -99q-95 -98 -95 -240z" />
    <glyph glyph-name="oe" unicode="&#x153;" horiz-adv-x="1068" 
d="M1011 295v-12.5t-1 -10.5h-423q2 -108 66 -181t160 -73q87 0 165 39v-33q-75 -35 -167 -35q-84 0 -148 49t-91 131q-29 -81 -96 -130q-68 -50 -155 -50q-112 0 -188 78q-75 79 -75 192q0 117 76 196q77 80 187 80q85 0 153 -50q67 -50 96 -129q12 39 33.5 72t50.5 56.5
t64.5 37t76.5 13.5q96 0 156 -64q60 -63 60 -176zM321 18q99 0 167 69q68 71 68 174q0 104 -69 175q-69 70 -166 70t-165 -71t-68 -175q0 -102 67 -172t166 -70zM981 301q0 97 -54 151q-53 54 -133 54t-135 -58q-54 -57 -71 -147h393z" />
    <glyph glyph-name="Racute" unicode="&#x154;" horiz-adv-x="556" 
d="M97 712h179q109 0 168 -57q60 -57 60 -142q0 -41 -14 -75.5t-40.5 -61t-65.5 -42.5t-90 -19l226 -315h-36l-226 315h-132v-315h-29v712zM126 683v-339h148q93 0 146.5 45.5t53.5 123.5q0 79 -53.5 124.5t-146.5 45.5h-148zM193 805l-13 20l155 113l22 -30z" />
    <glyph glyph-name="racute" unicode="&#x155;" horiz-adv-x="350" 
d="M116 412q16 45 60 81q44 37 103 37q23 0 41 -3v-31q-20 3 -41 3q-69 0 -116 -62q-46 -61 -46 -112v-325h-29v522h24zM120 616l-13 20l155 113l22 -30z" />
    <glyph glyph-name="Rcommaaccent" unicode="&#x156;" horiz-adv-x="556" 
d="M97 712h179q109 0 168 -57q60 -57 60 -142q0 -41 -14 -75.5t-40.5 -61t-65.5 -42.5t-90 -19l226 -315h-36l-226 315h-132v-315h-29v712zM126 683v-339h148q93 0 146.5 45.5t53.5 123.5q0 79 -53.5 124.5t-146.5 45.5h-148zM242 -246q16 46 27.5 91.5t19.5 92.5l39 10
q-14 -59 -32 -108.5t-38 -91.5z" />
    <glyph glyph-name="rcommaaccent" unicode="&#x157;" horiz-adv-x="350" 
d="M116 412q16 45 60 81q44 37 103 37q23 0 41 -3v-31q-20 3 -41 3q-69 0 -116 -62q-46 -61 -46 -112v-325h-29v522h24zM125 -250q16 46 27.5 91.5t19.5 92.5l39 10q-14 -59 -32 -108.5t-38 -91.5z" />
    <glyph glyph-name="Rcaron" unicode="&#x158;" horiz-adv-x="556" 
d="M97 712h179q109 0 168 -57q60 -57 60 -142q0 -41 -14 -75.5t-40.5 -61t-65.5 -42.5t-90 -19l226 -315h-36l-226 315h-132v-315h-29v712zM126 683v-339h148q93 0 146.5 45.5t53.5 123.5q0 79 -53.5 124.5t-146.5 45.5h-148zM378 935l14 -20l-137 -103l-137 103l13 20
l124 -79z" />
    <glyph glyph-name="rcaron" unicode="&#x159;" horiz-adv-x="350" 
d="M116 412q16 45 60 81q44 37 103 37q23 0 41 -3v-31q-20 3 -41 3q-69 0 -116 -62q-46 -61 -46 -112v-325h-29v522h24zM326 746l14 -20l-137 -103l-137 103l13 20l124 -79z" />
    <glyph glyph-name="Sacute" unicode="&#x15a;" horiz-adv-x="502" 
d="M99 552q0 -31 14.5 -54t38.5 -42t54 -35l61 -32q32 -16 62.5 -34t54 -41t38 -52.5t14.5 -67.5q0 -88 -59 -147q-58 -58 -148 -58q-91 0 -160 54v38q73 -63 156 -63q75 0 128 48q53 50 53 126q0 46 -25 77t-62.5 55t-81 45t-81 45.5t-62.5 56.5t-25 80q0 78 54 125
q55 48 133 48q83 0 154 -50v-36q-71 57 -150 57q-65 0 -114 -38q-47 -38 -47 -105zM193 805l-13 20l155 113l22 -30z" />
    <glyph glyph-name="sacute" unicode="&#x15b;" horiz-adv-x="431" 
d="M98 408q0 -32 27.5 -60.5t66.5 -50.5l58.5 -32.5t56 -38t41.5 -45t16 -55.5q0 -60 -46 -99q-46 -38 -113 -38q-70 0 -133 26v34q55 -31 130 -31q28 0 52 7t42 20.5t28 33t10 44.5q0 33 -27.5 62t-66.5 51l-58.5 33t-55.5 37t-41.5 44t-16.5 54q0 28 11.5 52.5t31.5 41.5
t48.5 27t61.5 10q71 0 127 -31v-34q-62 36 -127 36q-44 0 -84 -27q-39 -27 -39 -71zM151 616l-13 20l155 113l22 -30z" />
    <glyph glyph-name="Scircumflex" unicode="&#x15c;" horiz-adv-x="502" 
d="M99 552q0 -31 14.5 -54t38.5 -42t54 -35l61 -32q32 -16 62.5 -34t54 -41t38 -52.5t14.5 -67.5q0 -88 -59 -147q-58 -58 -148 -58q-91 0 -160 54v38q73 -63 156 -63q75 0 128 48q53 50 53 126q0 46 -25 77t-62.5 55t-81 45t-81 45.5t-62.5 56.5t-25 80q0 78 54 125
q55 48 133 48q83 0 154 -50v-36q-71 57 -150 57q-65 0 -114 -38q-47 -38 -47 -105zM400 831l-13 -19l-123 80l-123 -80l-13 20l136 104z" />
    <glyph glyph-name="scircumflex" unicode="&#x15d;" horiz-adv-x="431" 
d="M98 408q0 -32 27.5 -60.5t66.5 -50.5l58.5 -32.5t56 -38t41.5 -45t16 -55.5q0 -60 -46 -99q-46 -38 -113 -38q-70 0 -133 26v34q55 -31 130 -31q28 0 52 7t42 20.5t28 33t10 44.5q0 33 -27.5 62t-66.5 51l-58.5 33t-55.5 37t-41.5 44t-16.5 54q0 28 11.5 52.5t31.5 41.5
t48.5 27t61.5 10q71 0 127 -31v-34q-62 36 -127 36q-44 0 -84 -27q-39 -27 -39 -71zM358 642l-13 -19l-123 80l-123 -80l-13 20l136 104z" />
    <glyph glyph-name="Scedilla" unicode="&#x15e;" horiz-adv-x="502" 
d="M197 -72l13 62q-82 6 -141 53v38q73 -63 156 -63q75 0 128 48q53 50 53 126q0 46 -25 77t-62.5 55t-81 45t-81 45.5t-62.5 56.5t-25 80q0 78 54 125q55 48 133 48q83 0 154 -50v-36q-71 57 -150 57q-65 0 -114 -38q-47 -38 -47 -105q0 -31 14.5 -54t38.5 -42t54 -35
l61 -32q32 -16 62.5 -34t54 -41t38 -52.5t14.5 -67.5q0 -88 -58 -146q-57 -57 -147 -59v-43q31 -2 52.5 -22.5t21.5 -48.5q0 -35 -23 -57t-65 -22q-23 0 -47 12v28q27 -11 36 -11q69 0 69 50q0 24 -20 38.5t-50 14.5h-8z" />
    <glyph glyph-name="scedilla" unicode="&#x15f;" horiz-adv-x="431" 
d="M173 -72l13 62q-66 3 -114 25v34q55 -31 130 -31q28 0 52 7t42 20.5t28 33t10 44.5q0 33 -27.5 62t-66.5 51l-58.5 33t-55.5 37t-41.5 44t-16.5 54q0 28 11.5 52.5t31.5 41.5t48.5 27t61.5 10q71 0 127 -31v-34q-62 36 -127 36q-44 0 -84 -27q-39 -27 -39 -71
q0 -32 27.5 -60.5t66.5 -50.5l58.5 -32.5t56 -38t41.5 -45t16 -55.5q0 -59 -45 -98q-45 -38 -112 -39v-43q31 -2 52.5 -22.5t21.5 -48.5q0 -35 -23 -57t-65 -22q-23 0 -47 12v28q27 -11 36 -11q69 0 69 50q0 24 -20 38.5t-50 14.5h-8z" />
    <glyph glyph-name="Scaron" unicode="&#x160;" horiz-adv-x="502" 
d="M99 552q0 -31 14.5 -54t38.5 -42t54 -35l61 -32q32 -16 62.5 -34t54 -41t38 -52.5t14.5 -67.5q0 -88 -59 -147q-58 -58 -148 -58q-91 0 -160 54v38q73 -63 156 -63q75 0 128 48q53 50 53 126q0 46 -25 77t-62.5 55t-81 45t-81 45.5t-62.5 56.5t-25 80q0 78 54 125
q55 48 133 48q83 0 154 -50v-36q-71 57 -150 57q-65 0 -114 -38q-47 -38 -47 -105zM387 915l14 -20l-137 -103l-137 103l13 20l124 -79z" />
    <glyph glyph-name="scaron" unicode="&#x161;" horiz-adv-x="431" 
d="M98 408q0 -32 27.5 -60.5t66.5 -50.5l58.5 -32.5t56 -38t41.5 -45t16 -55.5q0 -60 -46 -99q-46 -38 -113 -38q-70 0 -133 26v34q55 -31 130 -31q28 0 52 7t42 20.5t28 33t10 44.5q0 33 -27.5 62t-66.5 51l-58.5 33t-55.5 37t-41.5 44t-16.5 54q0 28 11.5 52.5t31.5 41.5
t48.5 27t61.5 10q71 0 127 -31v-34q-62 36 -127 36q-44 0 -84 -27q-39 -27 -39 -71zM344 746l14 -20l-137 -103l-137 103l13 20l124 -79z" />
    <glyph glyph-name="Tcommaaccent" unicode="&#x162;" horiz-adv-x="471" 
d="M251 683v-683h-29v683h-195v29h417v-29h-193zM190 -246q16 46 27.5 91.5t19.5 92.5l39 10q-14 -59 -32 -108.5t-38 -91.5z" />
    <glyph glyph-name="tcommaaccent" unicode="&#x163;" horiz-adv-x="334" 
d="M298 -5q-8 -3 -21 -3q-81 0 -121.5 46.5t-40.5 124.5v330h-79v29h79v129l29 11v-140h154v-29h-154v-332q0 -29 8 -54t23.5 -44.5t38 -30.5t51.5 -11q11 0 19.5 0.5t13.5 1.5v-28zM134 -246q16 46 27.5 91.5t19.5 92.5l39 10q-14 -59 -32 -108.5t-38 -91.5z" />
    <glyph glyph-name="Tcaron" unicode="&#x164;" horiz-adv-x="471" 
d="M251 683v-683h-29v683h-195v29h417v-29h-193zM353 935l14 -20l-137 -103l-137 103l13 20l124 -79z" />
    <glyph glyph-name="tcaron" unicode="&#x165;" horiz-adv-x="334" 
d="M298 -5q-8 -3 -21 -3q-81 0 -121.5 46.5t-40.5 124.5v330h-79v29h79v129l29 11v-140h154v-29h-154v-332q0 -29 8 -54t23.5 -44.5t38 -30.5t51.5 -11q11 0 19.5 0.5t13.5 1.5v-28zM235 588q16 46 27.5 91.5t19.5 92.5l39 10q-14 -59 -32 -108.5t-38 -91.5z" />
    <glyph glyph-name="Tbar" unicode="&#x166;" horiz-adv-x="471" 
d="M251 683v-312h201v-29h-201v-342h-29v342h-202v29h202v312h-195v29h417v-29h-193z" />
    <glyph glyph-name="tbar" unicode="&#x167;" horiz-adv-x="334" 
d="M298 -5q-8 -3 -31 -3q-75 0 -113.5 48t-38.5 123v79h-79v29h79v222h-79v29h79v129q4 2 14.5 5.5t14.5 5.5v-140h154v-29h-154v-222h154v-29h-154v-81q0 -29 8 -54t23.5 -44.5t38 -30.5t51.5 -11q11 0 19.5 0.5t13.5 1.5v-28z" />
    <glyph glyph-name="Utilde" unicode="&#x168;" horiz-adv-x="663" 
d="M570 245q0 -116 -70 -186q-69 -70 -168 -70q-100 0 -170 69q-69 70 -69 187v467h29v-459q0 -111 60 -172q62 -62 150 -62q86 0 148 62q61 61 61 172v459h29v-467zM379 837q-23 0 -61 20q-38 21 -59 21q-36 0 -59 -32l-19 18q31 45 83 45q20 0 61 -21q42 -20 59 -20
q32 0 58 33q6 -4 10 -9t9 -8q-38 -47 -82 -47z" />
    <glyph glyph-name="utilde" unicode="&#x169;" horiz-adv-x="608" 
d="M362 648q-23 0 -61 20q-38 21 -59 21q-36 0 -59 -32l-19 18q31 45 83 45q21 0 62 -21q42 -20 58 -20q32 0 58 33q6 -4 10 -9t9 -8q-38 -47 -82 -47zM491 522h29v-309q0 -101 -61 -162q-60 -62 -155 -62q-96 0 -156 62q-60 61 -60 162v309h29v-306q0 -48 14 -84.5t39 -62
t59 -38.5t75 -13q80 0 133 51q54 52 54 147v306z" />
    <glyph glyph-name="Umacron" unicode="&#x16a;" horiz-adv-x="663" 
d="M570 245q0 -116 -70 -186q-69 -70 -168 -70q-100 0 -170 69q-69 70 -69 187v467h29v-459q0 -111 60 -172q62 -62 150 -62q86 0 148 62q61 61 61 172v459h29v-467zM216 888h220v-28h-220v28z" />
    <glyph glyph-name="umacron" unicode="&#x16b;" horiz-adv-x="608" 
d="M491 522h29v-309q0 -101 -61 -162q-60 -62 -155 -62q-96 0 -156 62q-60 61 -60 162v309h29v-306q0 -48 14 -84.5t39 -62t59 -38.5t75 -13q80 0 133 51q54 52 54 147v306zM195 699h220v-28h-220v28z" />
    <glyph glyph-name="Ubreve" unicode="&#x16c;" horiz-adv-x="663" 
d="M570 245q0 -116 -70 -186q-69 -70 -168 -70q-100 0 -170 69q-69 70 -69 187v467h29v-459q0 -111 60 -172q62 -62 150 -62q86 0 148 62q61 61 61 172v459h29v-467zM464 911q-21 -46 -58.5 -67.5t-79.5 -21.5q-100 0 -139 88l24 9q28 -70 114 -70q84 0 114 70z" />
    <glyph glyph-name="ubreve" unicode="&#x16d;" horiz-adv-x="608" 
d="M491 522h29v-309q0 -101 -61 -162q-60 -62 -155 -62q-96 0 -156 62q-60 61 -60 162v309h29v-306q0 -48 14 -84.5t39 -62t59 -38.5t75 -13q80 0 133 51q54 52 54 147v306zM442 722q-21 -46 -58.5 -67.5t-79.5 -21.5q-100 0 -139 88l24 9q28 -70 114 -70q84 0 114 70z" />
    <glyph glyph-name="Uring" unicode="&#x16e;" horiz-adv-x="663" 
d="M323 959q36 0 61 -25t25 -60t-25 -60t-61 -25q-35 0 -60 25t-25 60t25 60t60 25zM323 815q25 0 42.5 17.5t17.5 41.5t-17.5 41.5t-42.5 17.5q-23 0 -41 -17.5t-18 -41.5t18 -41.5t41 -17.5zM570 245q0 -116 -70 -186q-69 -70 -168 -70q-100 0 -170 69q-69 70 -69 187v467
h29v-459q0 -111 60 -172q62 -62 150 -62q86 0 148 62q61 61 61 172v459h29v-467z" />
    <glyph glyph-name="uring" unicode="&#x16f;" horiz-adv-x="608" 
d="M305 770q36 0 61 -25t25 -60t-25 -60t-61 -25q-35 0 -60 25t-25 60t25 60t60 25zM305 626q25 0 42.5 17.5t17.5 41.5t-17.5 41.5t-42.5 17.5q-23 0 -41 -17.5t-18 -41.5t18 -41.5t41 -17.5zM491 522h29v-309q0 -101 -61 -162q-60 -62 -155 -62q-96 0 -156 62
q-60 61 -60 162v309h29v-306q0 -48 14 -84.5t39 -62t59 -38.5t75 -13q80 0 133 51q54 52 54 147v306z" />
    <glyph glyph-name="Uhungarumlaut" unicode="&#x170;" horiz-adv-x="663" 
d="M570 245q0 -116 -70 -186q-69 -70 -168 -70q-100 0 -170 69q-69 70 -69 187v467h29v-459q0 -111 60 -172q62 -62 150 -62q86 0 148 62q61 61 61 172v459h29v-467zM312 933l24 -25l-104 -94l-16 16zM442 933l24 -25l-103 -94l-17 16z" />
    <glyph glyph-name="uhungarumlaut" unicode="&#x171;" horiz-adv-x="608" 
d="M491 522h29v-309q0 -101 -61 -162q-60 -62 -155 -62q-96 0 -156 62q-60 61 -60 162v309h29v-306q0 -48 14 -84.5t39 -62t59 -38.5t75 -13q80 0 133 51q54 52 54 147v306zM289 744l24 -25l-104 -94l-16 16zM419 744l24 -25l-103 -94l-17 16z" />
    <glyph glyph-name="Uogonek" unicode="&#x172;" horiz-adv-x="663" 
d="M389 -168q-15 -7 -37 -7q-35 0 -57 20.5t-22 51.5q0 51 57 92q-100 2 -168 70q-69 69 -69 186v467h29v-459q0 -111 60 -172q62 -62 150 -62q86 0 148 62q61 61 61 172v459h29v-467q0 -107 -59 -175t-148 -79q-60 -47 -60 -89q0 -23 16.5 -35.5t39.5 -12.5q16 0 30 6v-28z
" />
    <glyph glyph-name="uogonek" unicode="&#x173;" horiz-adv-x="608" 
d="M363 -168q-15 -7 -37 -7q-35 0 -57 20.5t-22 51.5q0 51 57 92q-96 0 -156 62q-60 61 -60 162v309h29v-306q0 -48 14 -84.5t39 -62t59 -38.5t75 -13q80 0 133 51q54 52 54 147v306h29v-309q0 -45 -13.5 -83.5t-37.5 -67.5t-57.5 -47t-74.5 -24q-60 -47 -60 -89
q0 -23 16.5 -35.5t39.5 -12.5q16 0 30 6v-28z" />
    <glyph glyph-name="Wcircumflex" unicode="&#x174;" horiz-adv-x="886" 
d="M44 712h29l93 -528q3 -16 6.5 -36.5l7.5 -45.5l9 -58h4q1 4 6.5 19.5l13 35.5l15.5 41.5l15 39.5l194 481h12l194 -481l13.5 -34.5t15.5 -44.5q16 -48 21 -57h4l9 58l7.5 45.5t6.5 36.5l93 528h29l-125 -712h-33l-205 509l-20.5 52.5t-13.5 37.5h-4q-5 -15 -13.5 -37.5
l-20.5 -52.5l-205 -509h-33zM581 831l-13 -19l-123 80l-123 -80l-13 20l136 104z" />
    <glyph glyph-name="wcircumflex" unicode="&#x175;" horiz-adv-x="794" 
d="M734 522h30l-140 -522h-24l-176 372q-6 11 -12 26l-13 34h-4q-7 -23 -24 -59l-177 -373h-24l-140 522h30l95 -349q8 -30 15 -60l14 -60h4q8 25 54 119l149 314h11l149 -314l54 -119h5l14 60t15 60zM533 642l-13 -19l-123 80l-123 -80l-13 20l136 104z" />
    <glyph glyph-name="Ycircumflex" unicode="&#x176;" horiz-adv-x="560" 
d="M27 712h33l163 -283l33.5 -58.5t21.5 -40.5h4q9 19 22.5 43l31.5 55l163 284h34l-239 -415v-297h-29v297zM411 831l-13 -19l-123 80l-123 -80l-13 20l136 104z" />
    <glyph glyph-name="ycircumflex" unicode="&#x177;" horiz-adv-x="542" 
d="M480 522h33l-348 -738h-32l121 258l-224 480h32l162 -345l29 -64.5t15 -37.5h5q10 29 45 101zM407 642l-13 -19l-123 80l-123 -80l-13 20l136 104z" />
    <glyph glyph-name="Ydieresis" unicode="&#x178;" horiz-adv-x="560" 
d="M27 712h33l163 -283l33.5 -58.5t21.5 -40.5h4q9 19 22.5 43l31.5 55l163 284h34l-239 -415v-297h-29v297zM172 852q-8 9 -8 22t8 21q9 9 22 9t21 -9q9 -8 9 -21t-9 -22q-8 -8 -21 -8t-22 8zM342 852q-8 9 -8 22t8 21q9 9 22 9t21 -9q9 -8 9 -21t-9 -22q-8 -8 -21 -8
t-22 8z" />
    <glyph glyph-name="Zacute" unicode="&#x179;" horiz-adv-x="563" 
d="M66 712h468v-20l-412 -590l-15 -20.5l-18 -23.5l-20 -27v-4h11t21 1q14 1 25 1h21h387v-29h-505v20l418 598l27 37l20 26v4q-12 -1 -33.5 -1.5t-53.5 -0.5h-341v29zM195 805l-13 20l155 113l22 -30z" />
    <glyph glyph-name="zacute" unicode="&#x17a;" horiz-adv-x="483" 
d="M79 27q12 1 35 1.5t58 0.5h275v-29h-411v17l305 411l49 61v6q-10 -1 -35 -1.5t-65 -0.5h-242v29h385v-18l-298 -401l-32.5 -42.5t-23.5 -28.5v-5zM162 616l-13 20l155 113l22 -30z" />
    <glyph glyph-name="Zdotaccent" unicode="&#x17b;" horiz-adv-x="563" 
d="M66 712h468v-20l-412 -590l-15 -20.5l-18 -23.5l-20 -27v-4h11t21 1q14 1 25 1h21h387v-29h-505v20l418 598l27 37l20 26v4q-12 -1 -33.5 -1.5t-53.5 -0.5h-341v29zM258 852q-8 9 -8 22t8 21q9 9 22 9t21 -9q9 -8 9 -21t-9 -22q-8 -8 -21 -8t-22 8z" />
    <glyph glyph-name="zdotaccent" unicode="&#x17c;" horiz-adv-x="483" 
d="M79 27q12 1 35 1.5t58 0.5h275v-29h-411v17l305 411l49 61v6q-10 -1 -35 -1.5t-65 -0.5h-242v29h385v-18l-298 -401l-32.5 -42.5t-23.5 -28.5v-5zM216 663q-8 9 -8 22t8 21q9 9 22 9t21 -9q9 -8 9 -21t-9 -22q-8 -8 -21 -8t-22 8z" />
    <glyph glyph-name="Zcaron" unicode="&#x17d;" horiz-adv-x="563" 
d="M66 712h468v-20l-412 -590l-15 -20.5l-18 -23.5l-20 -27v-4h11t21 1q14 1 25 1h21h387v-29h-505v20l418 598l27 37l20 26v4q-12 -1 -33.5 -1.5t-53.5 -0.5h-341v29zM402 935l14 -20l-137 -103l-137 103l13 20l124 -79z" />
    <glyph glyph-name="zcaron" unicode="&#x17e;" horiz-adv-x="483" 
d="M79 27q12 1 35 1.5t58 0.5h275v-29h-411v17l305 411l49 61v6q-10 -1 -35 -1.5t-65 -0.5h-242v29h385v-18l-298 -401l-32.5 -42.5t-23.5 -28.5v-5zM362 746l14 -20l-137 -103l-137 103l13 20l124 -79z" />
    <glyph glyph-name="longs" unicode="&#x17f;" horiz-adv-x="312" 
d="M287 745q-5 1 -27 1q-60 0 -93 -39.5t-33 -100.5v-606h-29v493h-80v29h80v82q0 37 10.5 68.5t30.5 54t49 35.5t67 13q8 0 14 -0.5t11 -1.5v-28z" />
    <glyph glyph-name="florin" unicode="&#x192;" horiz-adv-x="513" 
d="M25 -123q5 -1 26 -1q55 0 91.5 35.5t45.5 92.5l80 452h-74l5 29h74l23 131q13 69 58.5 114t115.5 45q14 0 24 -2l-5 -28q-5 1 -26 1q-55 0 -91.5 -35.5t-45.5 -92.5l-24 -133h141l-5 -29h-141l-79 -450q-13 -69 -58.5 -114t-115.5 -45q-14 0 -24 2z" />
    <glyph glyph-name="AEacute" unicode="&#x1fc;" horiz-adv-x="966" 
d="M893 683h-392l51 -291h331v-29h-326l60 -334h276v-29h-302l-31 179h-391l-107 -179h-35l426 712h440v-29zM187 208h368l-85 477h-5q-8 -19 -24.5 -48l-39.5 -68zM603 799l-13 20l155 113l22 -30z" />
    <glyph glyph-name="aeacute" unicode="&#x1fd;" horiz-adv-x="946" 
d="M889 295v-12.5t-1 -10.5h-423q2 -108 66 -181t160 -73q87 0 164 39v-33q-75 -35 -167 -35q-78 0 -139.5 44.5t-91.5 119.5q-27 -71 -95 -118q-67 -46 -143 -46q-41 0 -73.5 12t-55 32.5t-35 49t-12.5 61.5q0 65 52 111t133 46h207v48q0 45 -19 75t-47.5 48.5t-61.5 26
t-62 7.5q-27 0 -55 -5q-24 -4 -39 -11q-7 -2 -16.5 -6.5l-22.5 -10.5v33q75 29 133 29q42 0 78 -10.5t64.5 -29.5t47.5 -46t27 -60q30 66 85.5 106t125.5 40q96 0 156 -64q60 -63 60 -176zM435 272h-207q-64 0 -110 -36q-45 -36 -45 -92q0 -57 40 -91.5t106 -34.5
q81 0 149 56q67 57 67 128v70zM859 301q0 97 -54 151q-53 54 -133 54t-135 -58q-54 -57 -71 -147h393zM601 616l-13 20l155 113l22 -30z" />
    <glyph glyph-name="Oslashacute" unicode="&#x1fe;" horiz-adv-x="822" 
d="M656 625q113 -108 113 -269q0 -155 -105 -261q-103 -106 -253 -106q-126 0 -223 78l-82 -98l-23 19l83 99q-113 108 -113 269q0 154 104 261q105 107 254 107q125 0 223 -80l83 99l22 -19zM83 356q0 -147 103 -247l429 513q-88 73 -204 73q-137 0 -233 -99
q-95 -98 -95 -240zM411 18q137 0 232 98q96 99 96 240q0 147 -102 246l-430 -512q88 -72 204 -72zM331 799l-13 20l155 113l22 -30z" />
    <glyph glyph-name="oslashacute" unicode="&#x1ff;" horiz-adv-x="644" 
d="M321 535q88 0 161 -55l61 72l21 -18l-61 -74q83 -80 83 -200q0 -113 -76 -192t-189 -79q-94 0 -164 57l-66 -78l-23 18l67 80q-77 80 -77 193q0 117 76 196q77 80 187 80zM556 261q0 108 -72 177l-308 -369q61 -51 145 -51q99 0 167 69q68 71 68 174zM88 260
q0 -101 66 -171l309 368q-62 49 -142 49q-97 0 -165 -71t-68 -175zM246 616l-13 20l155 113l22 -30z" />
    <glyph glyph-name="uni0200" unicode="&#x200;" horiz-adv-x="696" 
d="M342 712h12l315 -712h-34l-77 179h-420l-77 -179h-34zM546 208l-144 327l-32 75.5t-20 48.5h-4q-7 -18 -20 -48.5l-32 -75.5l-144 -327h396zM320 908l24 24l96 -102l-15 -16zM190 908l24 24l96 -102l-15 -16z" />
    <glyph glyph-name="uni0201" unicode="&#x201;" horiz-adv-x="563" 
d="M446 238q-93 40 -207 40q-63 0 -109 -39q-46 -37 -46 -95q0 -57 40.5 -91.5t104.5 -34.5q81 0 149 54t68 122v44zM255 535q95 0 157 -50q63 -50 63 -130v-355h-22l-4 116q-28 -57 -91 -92q-62 -35 -131 -35q-79 0 -126 44q-47 45 -47 111q0 65 52 114t133 49
q111 0 207 -38v80q0 45 -18.5 75t-47 48.5t-62 26t-63.5 7.5q-29 0 -54 -6q-13 -2 -22.5 -5t-16.5 -5l-40 -17v33q75 29 133 29zM246 719l24 24l96 -102l-15 -16zM116 719l24 24l96 -102l-15 -16z" />
    <glyph glyph-name="uni0202" unicode="&#x202;" horiz-adv-x="696" 
d="M342 712h12l315 -712h-34l-77 179h-420l-77 -179h-34zM546 208l-144 327l-32 75.5t-20 48.5h-4q-7 -18 -20 -48.5l-32 -75.5l-144 -327h396zM480 831l-13 -19l-123 80l-123 -80l-13 20l136 104z" />
    <glyph glyph-name="uni0203" unicode="&#x203;" horiz-adv-x="563" 
d="M446 238q-93 40 -207 40q-63 0 -109 -39q-46 -37 -46 -95q0 -57 40.5 -91.5t104.5 -34.5q81 0 149 54t68 122v44zM255 535q95 0 157 -50q63 -50 63 -130v-355h-22l-4 116q-28 -57 -91 -92q-62 -35 -131 -35q-79 0 -126 44q-47 45 -47 111q0 65 52 114t133 49
q111 0 207 -38v80q0 45 -18.5 75t-47 48.5t-62 26t-63.5 7.5q-29 0 -54 -6q-13 -2 -22.5 -5t-16.5 -5l-40 -17v33q75 29 133 29zM407 642l-13 -19l-123 80l-123 -80l-13 20l136 104z" />
    <glyph glyph-name="uni0204" unicode="&#x204;" horiz-adv-x="534" 
d="M97 0v712h364v-29h-335v-291h325v-29h-325v-334h335v-29h-364zM246 908l24 24l96 -102l-15 -16zM116 908l24 24l96 -102l-15 -16z" />
    <glyph glyph-name="uni0205" unicode="&#x205;" horiz-adv-x="569" 
d="M482 301q0 97 -54 151t-133 54q-74 0 -135 -58q-61 -56 -70 -147h392zM88 272q0 -107 63 -180q65 -74 163 -74q88 0 165 39v-33q-75 -35 -167 -35q-108 0 -181 81q-73 80 -73 198q0 107 67 186q67 81 171 81q96 0 156 -64q60 -63 60 -176q0 -7 -0.5 -12.5t-1.5 -10.5
h-422zM280 719l24 24l96 -102l-15 -16zM150 719l24 24l96 -102l-15 -16z" />
    <glyph glyph-name="uni0206" unicode="&#x206;" horiz-adv-x="534" 
d="M97 0v712h364v-29h-335v-291h325v-29h-325v-334h335v-29h-364zM404 831l-13 -19l-123 80l-123 -80l-13 20l136 104z" />
    <glyph glyph-name="uni0207" unicode="&#x207;" horiz-adv-x="569" 
d="M482 301q0 97 -54 151t-133 54q-74 0 -135 -58q-61 -56 -70 -147h392zM88 272q0 -107 63 -180q65 -74 163 -74q88 0 165 39v-33q-75 -35 -167 -35q-108 0 -181 81q-73 80 -73 198q0 107 67 186q67 81 171 81q96 0 156 -64q60 -63 60 -176q0 -7 -0.5 -12.5t-1.5 -10.5
h-422zM439 642l-13 -19l-123 80l-123 -80l-13 20l136 104z" />
    <glyph glyph-name="uni0208" unicode="&#x208;" horiz-adv-x="223" 
d="M75 908l24 24l96 -102l-15 -16zM-55 908l24 24l96 -102l-15 -16zM126 712v-712h-29v712h29z" />
    <glyph glyph-name="uni0209" unicode="&#x209;" horiz-adv-x="205" 
d="M87 719l24 24l96 -102l-15 -16zM-43 719l24 24l96 -102l-15 -16zM117 0h-29v522h29v-522z" />
    <glyph glyph-name="uni020A" unicode="&#x20a;" horiz-adv-x="223" 
d="M126 712v-712h-29v712h29zM246 831l-13 -19l-123 80l-123 -80l-13 20l136 104z" />
    <glyph glyph-name="uni020B" unicode="&#x20b;" horiz-adv-x="205" 
d="M239 642l-13 -19l-123 80l-123 -80l-13 20l136 104zM117 0h-29v522h29v-522z" />
    <glyph glyph-name="uni020C" unicode="&#x20c;" horiz-adv-x="822" 
d="M157 617q105 107 254 107t253 -107q105 -107 105 -261q0 -155 -105 -261q-103 -106 -253 -106q-149 0 -254 106q-104 107 -104 261t104 261zM739 356q0 142 -96 240q-95 99 -232 99t-233 -99q-95 -98 -95 -240q0 -140 95 -240q96 -98 233 -98t232 98q96 99 96 240z
M387 908l24 24l96 -102l-15 -16zM257 908l24 24l96 -102l-15 -16z" />
    <glyph glyph-name="uni020D" unicode="&#x20d;" horiz-adv-x="644" 
d="M88 260q0 -102 67 -172t166 -70t167 69q68 71 68 174q0 104 -69 175q-69 70 -166 70t-165 -71t-68 -175zM321 535q112 0 189 -80q76 -79 76 -195q0 -113 -76 -192t-189 -79q-112 0 -188 78q-75 79 -75 192q0 117 76 196q77 80 187 80zM297 719l24 24l96 -102l-15 -16z
M167 719l24 24l96 -102l-15 -16z" />
    <glyph glyph-name="uni020E" unicode="&#x20e;" horiz-adv-x="822" 
d="M157 617q105 107 254 107t253 -107q105 -107 105 -261q0 -155 -105 -261q-103 -106 -253 -106q-149 0 -254 106q-104 107 -104 261t104 261zM739 356q0 142 -96 240q-95 99 -232 99t-233 -99q-95 -98 -95 -240q0 -140 95 -240q96 -98 233 -98t232 98q96 99 96 240z
M541 831l-13 -19l-123 80l-123 -80l-13 20l136 104z" />
    <glyph glyph-name="uni020F" unicode="&#x20f;" horiz-adv-x="644" 
d="M88 260q0 -102 67 -172t166 -70t167 69q68 71 68 174q0 104 -69 175q-69 70 -166 70t-165 -71t-68 -175zM321 535q112 0 189 -80q76 -79 76 -195q0 -113 -76 -192t-189 -79q-112 0 -188 78q-75 79 -75 192q0 117 76 196q77 80 187 80zM458 642l-13 -19l-123 80l-123 -80
l-13 20l136 104z" />
    <glyph glyph-name="uni0210" unicode="&#x210;" horiz-adv-x="556" 
d="M97 712h179q109 0 168 -57q60 -57 60 -142q0 -41 -14 -75.5t-40.5 -61t-65.5 -42.5t-90 -19l226 -315h-36l-226 315h-132v-315h-29v712zM126 683v-339h148q93 0 146.5 45.5t53.5 123.5q0 79 -53.5 124.5t-146.5 45.5h-148zM223 908l24 24l96 -102l-15 -16zM93 908l24 24
l96 -102l-15 -16z" />
    <glyph glyph-name="uni0211" unicode="&#x211;" horiz-adv-x="350" 
d="M116 412q16 45 60 81q44 37 103 37q23 0 41 -3v-31q-20 3 -41 3q-69 0 -116 -62q-46 -61 -46 -112v-325h-29v522h24zM175 719l24 24l96 -102l-15 -16zM45 719l24 24l96 -102l-15 -16z" />
    <glyph glyph-name="uni0212" unicode="&#x212;" horiz-adv-x="556" 
d="M97 712h179q109 0 168 -57q60 -57 60 -142q0 -41 -14 -75.5t-40.5 -61t-65.5 -42.5t-90 -19l226 -315h-36l-226 315h-132v-315h-29v712zM126 683v-339h148q93 0 146.5 45.5t53.5 123.5q0 79 -53.5 124.5t-146.5 45.5h-148zM390 831l-13 -19l-123 80l-123 -80l-13 20
l136 104z" />
    <glyph glyph-name="uni0213" unicode="&#x213;" horiz-adv-x="350" 
d="M116 412q16 45 60 81q44 37 103 37q23 0 41 -3v-31q-20 3 -41 3q-69 0 -116 -62q-46 -61 -46 -112v-325h-29v522h24zM331 642l-13 -19l-123 80l-123 -80l-13 20l136 104z" />
    <glyph glyph-name="uni0214" unicode="&#x214;" horiz-adv-x="663" 
d="M570 245q0 -116 -70 -186q-69 -70 -168 -70q-100 0 -170 69q-69 70 -69 187v467h29v-459q0 -111 60 -172q62 -62 150 -62q86 0 148 62q61 61 61 172v459h29v-467zM292 908l24 24l96 -102l-15 -16zM162 908l24 24l96 -102l-15 -16z" />
    <glyph glyph-name="uni0215" unicode="&#x215;" horiz-adv-x="608" 
d="M491 522h29v-309q0 -101 -61 -162q-60 -62 -155 -62q-96 0 -156 62q-60 61 -60 162v309h29v-306q0 -48 14 -84.5t39 -62t59 -38.5t75 -13q80 0 133 51q54 52 54 147v306zM281 719l24 24l96 -102l-15 -16zM151 719l24 24l96 -102l-15 -16z" />
    <glyph glyph-name="uni0216" unicode="&#x216;" horiz-adv-x="663" 
d="M570 245q0 -116 -70 -186q-69 -70 -168 -70q-100 0 -170 69q-69 70 -69 187v467h29v-459q0 -111 60 -172q62 -62 150 -62q86 0 148 62q61 61 61 172v459h29v-467zM460 831l-13 -19l-123 80l-123 -80l-13 20l136 104z" />
    <glyph glyph-name="uni0217" unicode="&#x217;" horiz-adv-x="608" 
d="M491 522h29v-309q0 -101 -61 -162q-60 -62 -155 -62q-96 0 -156 62q-60 61 -60 162v309h29v-306q0 -48 14 -84.5t39 -62t59 -38.5t75 -13q80 0 133 51q54 52 54 147v306zM441 642l-13 -19l-123 80l-123 -80l-13 20l136 104z" />
    <glyph glyph-name="Scommaaccent" unicode="&#x218;" horiz-adv-x="502" 
d="M99 552q0 -31 14.5 -54t38.5 -42t54 -35l61 -32q32 -16 62.5 -34t54 -41t38 -52.5t14.5 -67.5q0 -88 -59 -147q-58 -58 -148 -58q-91 0 -160 54v38q73 -63 156 -63q75 0 128 48q53 50 53 126q0 46 -25 77t-62.5 55t-81 45t-81 45.5t-62.5 56.5t-25 80q0 78 54 125
q55 48 133 48q83 0 154 -50v-36q-71 57 -150 57q-65 0 -114 -38q-47 -38 -47 -105zM202 -246q16 46 27.5 91.5t19.5 92.5l39 10q-14 -59 -32 -108.5t-38 -91.5z" />
    <glyph glyph-name="scommaaccent" unicode="&#x219;" horiz-adv-x="431" 
d="M98 408q0 -32 27.5 -60.5t66.5 -50.5l58.5 -32.5t56 -38t41.5 -45t16 -55.5q0 -60 -46 -99q-46 -38 -113 -38q-70 0 -133 26v34q55 -31 130 -31q28 0 52 7t42 20.5t28 33t10 44.5q0 33 -27.5 62t-66.5 51l-58.5 33t-55.5 37t-41.5 44t-16.5 54q0 28 11.5 52.5t31.5 41.5
t48.5 27t61.5 10q71 0 127 -31v-34q-62 36 -127 36q-44 0 -84 -27q-39 -27 -39 -71zM136 -246q16 46 27.5 91.5t19.5 92.5l39 10q-14 -59 -32 -108.5t-38 -91.5z" />
    <glyph glyph-name="uni021A" unicode="&#x21a;" horiz-adv-x="471" 
d="M251 683v-683h-29v683h-195v29h417v-29h-193zM192 -246q16 46 27.5 91.5t19.5 92.5l39 10q-14 -59 -32 -108.5t-38 -91.5z" />
    <glyph glyph-name="uni021B" unicode="&#x21b;" horiz-adv-x="334" 
d="M298 -5q-8 -3 -21 -3q-81 0 -121.5 46.5t-40.5 124.5v330h-79v29h79v129l29 11v-140h154v-29h-154v-332q0 -29 8 -54t23.5 -44.5t38 -30.5t51.5 -11q11 0 19.5 0.5t13.5 1.5v-28zM131 -246q16 46 27.5 91.5t19.5 92.5l39 10q-14 -59 -32 -108.5t-38 -91.5z" />
    <glyph glyph-name="circumflex" unicode="&#x2c6;" horiz-adv-x="365" 
d="M315 598l-13 -19l-123 80l-123 -80l-13 20l136 104z" />
    <glyph glyph-name="caron" unicode="&#x2c7;" horiz-adv-x="364" 
d="M302 702l14 -20l-137 -103l-137 103l13 20l124 -79z" />
    <glyph glyph-name="breve" unicode="&#x2d8;" horiz-adv-x="372" 
d="M321 678q-21 -46 -58.5 -67.5t-79.5 -21.5q-100 0 -139 88l24 9q28 -70 114 -70q84 0 114 70z" />
    <glyph glyph-name="dotaccent" unicode="&#x2d9;" horiz-adv-x="393" 
d="M167 619q-8 9 -8 22t8 21q9 9 22 9t21 -9q9 -8 9 -21t-9 -22q-8 -8 -21 -8t-22 8z" />
    <glyph glyph-name="ring" unicode="&#x2da;" horiz-adv-x="394" 
d="M190 726q36 0 61 -25t25 -60t-25 -60t-61 -25q-35 0 -60 25t-25 60t25 60t60 25zM190 582q25 0 42.5 17.5t17.5 41.5t-17.5 41.5t-42.5 17.5q-23 0 -41 -17.5t-18 -41.5t18 -41.5t41 -17.5z" />
    <glyph glyph-name="ogonek" unicode="&#x2db;" horiz-adv-x="391" 
d="M235 -168q-15 -7 -37 -7q-35 0 -57 20.5t-22 51.5q0 29 21.5 56.5t54.5 47.5h28q-30 -20 -52 -48t-22 -51t16.5 -35.5t39.5 -12.5q16 0 30 6v-28z" />
    <glyph glyph-name="tilde" unicode="&#x2dc;" horiz-adv-x="373" 
d="M240 604q-23 0 -61 20q-38 21 -59 21q-36 0 -59 -32l-19 18q31 45 83 45q21 0 62 -21q42 -20 58 -20q32 0 58 33q6 -4 10 -9t9 -8q-38 -47 -82 -47z" />
    <glyph glyph-name="hungarumlaut" unicode="&#x2dd;" horiz-adv-x="371" 
d="M154 700l24 -25l-104 -94l-16 16zM284 700l24 -25l-103 -94l-17 16z" />
    <glyph glyph-name="doublegrave" unicode="&#x30f;" horiz-adv-x="371" 
d="M189 675l24 24l96 -102l-15 -16zM59 675l24 24l96 -102l-15 -16z" />
    <glyph glyph-name="uni037E" unicode="&#x37e;" horiz-adv-x="269" 
d="M109 461q12 12 26 10.5t23 -11t10.5 -23t-10.5 -24.5q-11 -12 -24.5 -10.5t-23 11t-11.5 23t10 24.5zM34 -184q55 142 67 258l45 11q-42 -173 -94 -276z" />
    <glyph glyph-name="tonos" unicode="&#x384;" horiz-adv-x="301" 
d="M180 733l32 -16l-79 -155l-22 11z" />
    <glyph glyph-name="dieresistonos" unicode="&#x385;" horiz-adv-x="346" 
d="M190 722l33 -15l-70 -135l-23 11zM53 619q-8 9 -8 22t8 21q9 9 22 9t21 -9q9 -8 9 -21t-9 -22q-8 -8 -21 -8t-22 8zM249 619q-8 9 -8 22t8 21q9 9 22 9t21 -9q9 -8 9 -21t-9 -22q-8 -8 -21 -8t-22 8z" />
    <glyph glyph-name="Alphatonos" unicode="&#x386;" horiz-adv-x="696" 
d="M342 712h12l315 -712h-34l-77 179h-420l-77 -179h-34zM546 208l-144 327l-32 75.5t-20 48.5h-4q-7 -18 -20 -48.5l-32 -75.5l-144 -327h396zM141 733l32 -16l-79 -155l-22 11z" />
    <glyph glyph-name="anoteleia" unicode="&#x387;" horiz-adv-x="378" 
d="M155 266q12 12 26 10.5t23 -11t10.5 -23t-10.5 -24.5q-11 -12 -24.5 -10.5t-23 11t-11.5 23t10 24.5z" />
    <glyph glyph-name="Epsilontonos" unicode="&#x388;" horiz-adv-x="534" 
d="M97 0v712h364v-29h-335v-291h325v-29h-325v-334h335v-29h-364zM19 733l32 -16l-79 -155l-22 11z" />
    <glyph glyph-name="Etatonos" unicode="&#x389;" horiz-adv-x="683" 
d="M557 391v321h29v-712h-29v362h-431v-362h-29v712h29v-321h431zM19 733l32 -16l-79 -155l-22 11z" />
    <glyph glyph-name="Iotatonos" unicode="&#x38a;" horiz-adv-x="223" 
d="M126 712v-712h-29v712h29zM19 733l32 -16l-79 -155l-22 11z" />
    <glyph glyph-name="Omicrontonos" unicode="&#x38c;" horiz-adv-x="822" 
d="M157 617q105 107 254 107t253 -107q105 -107 105 -261q0 -155 -105 -261q-103 -106 -253 -106q-149 0 -254 106q-104 107 -104 261t104 261zM739 356q0 142 -96 240q-95 99 -232 99t-233 -99q-95 -98 -95 -240q0 -140 95 -240q96 -98 233 -98t232 98q96 99 96 240z
M46 733l32 -16l-79 -155l-22 11z" />
    <glyph glyph-name="Upsilontonos" unicode="&#x38e;" horiz-adv-x="583" 
d="M50 712h33l163 -283l33.5 -58.5t21.5 -40.5h4q9 19 22.5 43l31.5 55l163 284h34l-239 -415v-297h-29v297zM0 733l32 -16l-79 -155l-22 11z" />
    <glyph glyph-name="Omegatonos" unicode="&#x38f;" horiz-adv-x="756" 
d="M494 27h11.5t20.5 1t23 1h18h156v-29h-257v47q101 53 164 137q63 85 63 186q0 141 -86 233t-229 92q-144 0 -230 -92q-85 -91 -85 -233q0 -101 63 -186q63 -84 164 -137v-47h-257v29h156h17.5t22.5 -1t21 -1h12v5q-17 9 -32 18t-28 19q-81 63 -125 140t-44 161
q0 156 97 254q97 100 248 100q150 0 247 -100q98 -100 98 -254q0 -84 -44 -161t-126 -140l-28.5 -19.5t-30.5 -17.5v-5zM47 733l32 -16l-79 -155l-22 11z" />
    <glyph glyph-name="iotadieresistonos" unicode="&#x390;" horiz-adv-x="280" 
d="M121 766l33 -15l-70 -135l-23 11zM-16 663q-8 9 -8 22t9 21q8 9 21 9t21 -9q9 -8 9 -21t-9 -22q-8 -8 -21 -8t-22 8zM180 663q-8 9 -8 22t8 21q9 9 22 9t21 -9q9 -8 9 -21t-9 -22q-8 -8 -21 -8t-22 8zM245 -4q-65 1 -112 49q-47 47 -47 112v365h29v-365q0 -52 38 -92
q40 -39 92 -40v-29z" />
    <glyph glyph-name="Alpha" unicode="&#x391;" horiz-adv-x="693" 
d="M342 712h12l315 -712h-34l-77 179h-420l-77 -179h-34zM546 208l-144 327l-32 75.5t-20 48.5h-4q-7 -18 -20 -48.5l-32 -75.5l-144 -327h396z" />
    <glyph glyph-name="Beta" unicode="&#x392;" horiz-adv-x="586" 
d="M126 683v-307h169q78 0 122.5 38.5t44.5 114.5q0 73 -52 113q-52 41 -128 41h-156zM126 347v-318h174q84 0 137 41t53 121q0 76 -50.5 116t-137.5 40h-176zM97 712h181q102 0 158 -54q56 -53 56 -129q0 -122 -107 -164q64 -19 99.5 -65.5t35.5 -110.5q0 -90 -62 -140
q-61 -49 -154 -49h-207v712z" />
    <glyph glyph-name="Gamma" unicode="&#x393;" horiz-adv-x="425" 
d="M126 683v-683h-29v712h298v-29h-269z" />
    <glyph glyph-name="Delta" unicode="&#x394;" horiz-adv-x="692" 
d="M56 0v25l281 687h17l282 -688v-24h-580zM344 661q-5 -15 -17 -47l-32 -82l-205 -503h511l-205 503q-21 52 -48 129h-4z" />
    <glyph glyph-name="Epsilon" unicode="&#x395;" horiz-adv-x="538" 
d="M97 0v712h364v-29h-335v-291h325v-29h-325v-334h335v-29h-364z" />
    <glyph glyph-name="Zeta" unicode="&#x396;" horiz-adv-x="563" 
d="M66 712h468v-20l-412 -590l-15 -20.5l-18 -23.5l-20 -27v-4h11t21 1q14 1 25 1h21h387v-29h-505v20l418 598l27 37l20 26v4q-12 -1 -33.5 -1.5t-53.5 -0.5h-341v29z" />
    <glyph glyph-name="Eta" unicode="&#x397;" horiz-adv-x="680" 
d="M557 391v321h29v-712h-29v362h-431v-362h-29v712h29v-321h431z" />
    <glyph glyph-name="Theta" unicode="&#x398;" horiz-adv-x="810" 
d="M247 371h328v-29h-328v29zM157 617q105 107 254 107t253 -107q105 -107 105 -261q0 -155 -105 -261q-103 -106 -253 -106q-149 0 -254 106q-104 107 -104 261t104 261zM739 356q0 142 -96 240q-95 99 -232 99t-233 -99q-95 -98 -95 -240q0 -140 95 -240q96 -98 233 -98
t232 98q96 99 96 240z" />
    <glyph glyph-name="Iota" unicode="&#x399;" horiz-adv-x="233" 
d="M126 712v-712h-29v712h29z" />
    <glyph glyph-name="Kappa" unicode="&#x39a;" horiz-adv-x="583" 
d="M543 712l-298 -331l302 -381h-38l-286 357l-97 -108v-249h-29v712h29v-340v-52t-1 -27h4q7 8 19.5 23.5l31.5 37.5l324 358h39z" />
    <glyph glyph-name="Lambda" unicode="&#x39b;" horiz-adv-x="648" 
d="M621 0h-31l-216 532l-32 82t-17 47h-4q-27 -77 -48 -129l-217 -532h-31l290 712h17z" />
    <glyph glyph-name="Mu" unicode="&#x39c;" horiz-adv-x="807" 
d="M691 0v557v24.5t1 30.5t1 26v11h-4l-53 -54l-227 -227l-227 227l-53 54h-4v-37q1 -17 1 -30.5v-24.5v-557h-29v712h9l303 -303l302 303h9v-712h-29z" />
    <glyph glyph-name="Nu" unicode="&#x39d;" horiz-adv-x="721" 
d="M629 712v-712h-17l-410 560l-45 62.5t-30 43.5l-3 -1q1 -16 1.5 -47t0.5 -77v-541h-29v712h28l409 -557q28 -37 43.5 -60t20.5 -32h4q-1 18 -1.5 51.5t-0.5 82.5v515h29z" />
    <glyph glyph-name="Xi" unicode="&#x39e;" horiz-adv-x="510" 
d="M73 683v29h364v-29h-364zM83 363v29h344v-29h-344zM73 0v29h364v-29h-364z" />
    <glyph glyph-name="Omicron" unicode="&#x39f;" horiz-adv-x="820" 
d="M157 617q105 107 254 107t253 -107q105 -107 105 -261q0 -155 -105 -261q-103 -106 -253 -106q-149 0 -254 106q-104 107 -104 261t104 261zM739 356q0 142 -96 240q-95 99 -232 99t-233 -99q-95 -98 -95 -240q0 -140 95 -240q96 -98 233 -98t232 98q96 99 96 240z" />
    <glyph glyph-name="Pi" unicode="&#x3a0;" horiz-adv-x="678" 
d="M97 712h489v-712h-29v683h-431v-683h-29v712z" />
    <glyph glyph-name="Rho" unicode="&#x3a1;" horiz-adv-x="564" 
d="M97 712h179q116 0 181 -62t65 -155t-65 -155q-64 -61 -181 -61h-150v-279h-29v712zM126 683v-375h149q50 0 90 13t68.5 37.5t43.5 59t15 77.5t-15.5 78t-43.5 59.5t-68.5 37.5t-89.5 13h-149z" />
    <glyph glyph-name="Sigma" unicode="&#x3a3;" horiz-adv-x="545" 
d="M472 712v-29h-335l213 -327l-213 -327h335v-29h-375v20l218 336l-218 336v20h375z" />
    <glyph glyph-name="Tau" unicode="&#x3a4;" horiz-adv-x="470" 
d="M251 683v-683h-29v683h-195v29h417v-29h-193z" />
    <glyph glyph-name="Upsilon" unicode="&#x3a5;" horiz-adv-x="560" 
d="M27 712h33l163 -283l33.5 -58.5t21.5 -40.5h4q9 19 22.5 43l31.5 55l163 284h34l-239 -415v-297h-29v297z" />
    <glyph glyph-name="Phi" unicode="&#x3a6;" horiz-adv-x="819" 
d="M426 668q143 0 244 -87q100 -87 100 -225t-101 -225t-243 -87v-73h-29v73q-144 0 -244 87t-100 225t100 225t244 87v72h29v-72zM397 639q-132 0 -223 -78q-91 -76 -91 -205q0 -127 91 -205t223 -78v566zM426 73q131 0 223 78q91 78 91 205q0 129 -91 205q-92 78 -223 78
v-566z" />
    <glyph glyph-name="Chi" unicode="&#x3a7;" horiz-adv-x="573" 
d="M48 712h35l150 -235l12.5 -21.5l14.5 -25.5l19 -33h6q28 51 46 80l150 235h35l-217 -339l238 -373h-34l-182 284q-27 40 -36 65h-5q-2 -2 -6 -9l-9.5 -16.5l-11.5 -20l-11 -19.5l-181 -284h-34l238 373z" />
    <glyph glyph-name="Psi" unicode="&#x3a8;" horiz-adv-x="757" 
d="M653 712h29v-223q0 -115 -86 -186q-86 -69 -203 -69v-234h-29v234q-118 0 -203 69q-86 71 -86 186v223h29v-215q0 -109 77 -172q79 -62 183 -62v449h29v-449q103 0 182 62q78 63 78 172v215z" />
    <glyph glyph-name="Omega" unicode="&#x3a9;" horiz-adv-x="793" 
d="M512 27h11.5t20.5 1t23 1h18h156v-29h-257v47q101 53 164 137q63 85 63 186q0 141 -86 233t-229 92q-144 0 -230 -92q-85 -91 -85 -233q0 -101 63 -186q63 -84 164 -137v-47h-257v29h156h17.5t22.5 -1t21 -1h12v5q-17 9 -32 18t-28 19q-81 63 -125 140t-44 161
q0 156 97 254q97 100 248 100q150 0 247 -100q98 -100 98 -254q0 -84 -44 -161t-126 -140l-28.5 -19.5t-30.5 -17.5v-5z" />
    <glyph glyph-name="Iotadieresis" unicode="&#x3aa;" horiz-adv-x="223" 
d="M126 712v-712h-29v712h29zM10 852q-8 9 -8 22t8 21q9 9 22 9t21 -9q9 -8 9 -21t-9 -22q-8 -8 -21 -8t-22 8zM180 852q-8 9 -8 22t8 21q9 9 22 9t21 -9q9 -8 9 -21t-9 -22q-8 -8 -21 -8t-22 8z" />
    <glyph glyph-name="Upsilondieresis" unicode="&#x3ab;" horiz-adv-x="560" 
d="M27 712h33l163 -283l33.5 -58.5t21.5 -40.5h4q9 19 22.5 43l31.5 55l163 284h34l-239 -415v-297h-29v297zM173 852q-8 9 -8 22t8 21q9 9 22 9t21 -9q9 -8 9 -21t-9 -22q-8 -8 -21 -8t-22 8zM343 852q-8 9 -8 22t8 21q9 9 22 9t21 -9q9 -8 9 -21t-9 -22q-8 -8 -21 -8
t-22 8z" />
    <glyph glyph-name="alphatonos" unicode="&#x3ac;" horiz-adv-x="665" 
d="M556 522h23v-522h-23l-6 135q-31 -68 -97 -108q-65 -38 -136 -38q-118 0 -190 79q-71 80 -71 193t71 193q72 81 190 81q78 0 138 -38.5t96 -111.5zM319 18q95 0 163 69q69 70 69 174t-69 175q-67 70 -163 70q-104 0 -168 -70q-65 -70 -65 -175q0 -104 65 -174
q64 -69 168 -69zM345 777l32 -16l-79 -155l-22 11z" />
    <glyph glyph-name="epsilontonos" unicode="&#x3ad;" horiz-adv-x="454" 
d="M339 295v-28h-94q-66 0 -112 -36t-46 -84q0 -55 48 -92q47 -37 118 -37q19 0 39 2t43 6q45 9 71 21v-31q-66 -27 -153 -27q-83 0 -140 45q-57 46 -57 113q0 42 28.5 79.5t79.5 54.5q-42 18 -64 49.5t-22 66.5q0 60 49 99t123 39q79 0 151 -29v-32q-69 31 -151 31
q-61 0 -101 -31q-41 -32 -41 -77q0 -42 39 -72q40 -30 98 -30h94zM284 777l32 -16l-79 -155l-22 11z" />
    <glyph glyph-name="etatonos" unicode="&#x3ae;" horiz-adv-x="605" 
d="M86 522h24l3 -104q29 51 81 84t121 33q92 0 148 -62t56 -158v-531h-29v528q0 47 -13 83t-37 61t-56.5 37.5t-71.5 12.5q-76 0 -126 -44q-51 -44 -71 -94v-368h-29v522zM325 777l32 -16l-79 -155l-22 11z" />
    <glyph glyph-name="iotatonos" unicode="&#x3af;" horiz-adv-x="280" 
d="M245 -4q-65 1 -112 49q-47 47 -47 112v365h29v-365q0 -52 38 -92q40 -39 92 -40v-29zM121 777l32 -16l-79 -155l-22 11z" />
    <glyph glyph-name="upsilondieresistonos" unicode="&#x3b0;" horiz-adv-x="596" 
d="M432 522q21 -24 38 -52t29 -59t19 -63.5t7 -63.5q0 -125 -64 -210q-63 -85 -159 -85t-156 61t-60 162v310h29v-307q0 -48 14 -84.5t39 -61.5t59 -38t75 -13q83 0 138 76t55 191q0 67 -27.5 129.5t-72.5 107.5h37zM302 766l33 -15l-70 -135l-23 11zM165 663q-8 9 -8 22
t8 21q9 9 22 9t21 -9q9 -8 9 -21t-9 -22q-8 -8 -21 -8t-22 8zM361 663q-8 9 -8 22t8 21q9 9 22 9t21 -9q9 -8 9 -21t-9 -22q-8 -8 -21 -8t-22 8z" />
    <glyph glyph-name="alpha" unicode="&#x3b1;" horiz-adv-x="665" 
d="M556 522h23v-522h-23l-6 135q-31 -68 -97 -108q-65 -38 -136 -38q-118 0 -190 79q-71 80 -71 193t71 193q72 81 190 81q78 0 138 -38.5t96 -111.5zM319 18q95 0 163 69q69 70 69 174t-69 175q-67 70 -163 70q-104 0 -168 -70q-65 -70 -65 -175q0 -104 65 -174
q64 -69 168 -69z" />
    <glyph glyph-name="beta" unicode="&#x3b2;" horiz-adv-x="569" 
d="M290 18q94 0 143.5 47.5t49.5 144.5q0 91 -68 145q-67 55 -159 55h-16v29h16q87 0 126 44q39 45 39 110q0 60 -40 106q-39 47 -115 47q-62 0 -107 -55q-44 -56 -44 -126v-471q30 -31 77 -53.5t98 -22.5zM348 425q81 -27 123 -82t42 -133q0 -109 -58.5 -165t-164.5 -56
q-46 0 -97 20q-48 21 -78 47v-272h-29v782q0 85 52 146q52 63 131 63q82 0 131 -52q51 -53 51 -129q0 -120 -103 -169z" />
    <glyph glyph-name="gamma" unicode="&#x3b3;" horiz-adv-x="537" 
d="M253 -216v241l-225 497h32l158 -348l12 -27t15 -37l21 -51h5q22 58 48 114l158 349h32l-227 -500v-238h-29z" />
    <glyph glyph-name="delta" unicode="&#x3b4;" horiz-adv-x="640" 
d="M239 733q42 -23 81.5 -53.5t77.5 -68.5q78 -75 132 -171t54 -180q0 -113 -76 -192t-188 -79t-188 78q-76 79 -76 192q0 117 76 196q77 80 188 80q69 0 123 -17q-97 121 -243 211v35h348v-29h-216q-33 0 -93 3v-5zM320 18q98 0 166 69q68 70 68 173q0 99 -77 212
q-62 34 -157 34q-98 0 -166 -71t-68 -175q0 -102 67 -172t167 -70z" />
    <glyph glyph-name="epsilon" unicode="&#x3b5;" horiz-adv-x="454" 
d="M339 295v-28h-94q-66 0 -112 -36t-46 -84q0 -55 48 -92q47 -37 118 -37q19 0 39 2t43 6q45 9 71 21v-31q-66 -27 -153 -27q-83 0 -140 45q-57 46 -57 113q0 42 28.5 79.5t79.5 54.5q-42 18 -64 49.5t-22 66.5q0 60 49 99t123 39q79 0 151 -29v-32q-69 31 -151 31
q-61 0 -101 -31q-41 -32 -41 -77q0 -42 39 -72q40 -30 98 -30h94z" />
    <glyph glyph-name="zeta" unicode="&#x3b6;" horiz-adv-x="468" 
d="M74 249q0 -66 27.5 -113t76.5 -71t102 -34.5t119 -10.5h8q-45 -186 -91 -276l-18 7q52 137 65 241q-63 3 -115.5 16.5t-100.5 40.5q-48 28 -75.5 79t-27.5 121q0 126 108 269q110 143 237 215v5q-60 -3 -93 -3h-216v29h348v-35q-63 -38 -122.5 -91.5t-113.5 -116.5
t-86 -134.5t-32 -137.5z" />
    <glyph glyph-name="eta" unicode="&#x3b7;" horiz-adv-x="605" 
d="M86 522h24l3 -104q29 51 81 84t121 33q92 0 148 -62t56 -158v-531h-29v528q0 47 -13 83t-37 61t-56.5 37.5t-71.5 12.5q-76 0 -126 -44q-51 -44 -71 -94v-368h-29v522z" />
    <glyph glyph-name="theta" unicode="&#x3b8;" horiz-adv-x="683" 
d="M585 396q-5 162 -74 255q-69 95 -170 95q-100 0 -171 -95q-69 -95 -72 -255h487zM98 367q3 -161 72 -255t171 -94t171 94q70 94 73 255h-487zM341 775q118 0 196 -106q78 -107 78 -288q0 -182 -78 -287t-196 -105q-117 0 -195 105t-78 287q0 181 78 288q78 106 195 106z
" />
    <glyph glyph-name="iota" unicode="&#x3b9;" horiz-adv-x="280" 
d="M245 -4q-65 1 -112 49q-47 47 -47 112v365h29v-365q0 -52 38 -92q40 -39 92 -40v-29z" />
    <glyph glyph-name="kappa" unicode="&#x3ba;" horiz-adv-x="492" 
d="M410 522h36l-218 -245l230 -277h-37l-217 256l-89 -92v-164h-29v522h29v-221v-62t-1 -34h8q13 17 28 34t34 34z" />
    <glyph glyph-name="lambda" unicode="&#x3bb;" horiz-adv-x="539" 
d="M511 0h-33l-162 346q-35 72 -45 101h-5q-4 -12 -15 -37.5l-29 -64.5l-162 -345h-32l224 480l-133 284h32z" />
    <glyph glyph-name="uni03BC" unicode="&#x3bc;" horiz-adv-x="608" 
d="M73 -216v738h29v-312q0 -47 13 -82.5t37 -60t56.5 -37t71.5 -12.5q77 0 133 50q57 51 64 96v358h29v-522h-24l-3 100q-15 -23 -36 -43t-47.5 -35t-56.5 -24t-63 -9q-118 0 -174 95v-300h-29z" />
    <glyph glyph-name="nu" unicode="&#x3bd;" horiz-adv-x="537" 
d="M477 522h32l-237 -522h-8l-236 522h32l158 -348l12 -27t15 -37l21 -51h5q22 58 48 114z" />
    <glyph glyph-name="xi" unicode="&#x3be;" horiz-adv-x="454" 
d="M315 -248q52 137 65 241q-51 3 -93.5 11.5t-87.5 28.5q-63 28 -104.5 85t-41.5 150q0 28 9.5 55.5t27.5 50.5t43.5 41t58.5 29q-57 22 -85.5 63t-28.5 89q0 78 56 128q57 51 143 51q76 0 141 -35v-35q-71 41 -141 41q-71 0 -120 -43t-49 -107q0 -57 47 -98
q46 -40 116 -40h81v-29h-81q-78 0 -133 -48t-55 -113q0 -58 19.5 -102.5t50.5 -71.5q52 -42 120.5 -58t142.5 -15h9q-43 -176 -92 -276z" />
    <glyph glyph-name="omicron" unicode="&#x3bf;" horiz-adv-x="631" 
d="M86 260q0 -102 67 -172t166 -70t167 69q68 71 68 174q0 104 -69 175q-69 70 -166 70t-165 -71t-68 -175zM319 535q112 0 189 -80q76 -79 76 -195q0 -113 -76 -192t-189 -79q-112 0 -188 78q-75 79 -75 192q0 117 76 196q77 80 187 80z" />
    <glyph glyph-name="pi" unicode="&#x3c0;" horiz-adv-x="612" 
d="M599 -4q-65 1 -112 49q-47 47 -47 112v336h-306v-493h-29v493h-81v29h525v-29h-80v-336q0 -52 38 -92q40 -39 92 -40v-29z" />
    <glyph glyph-name="rho" unicode="&#x3c1;" horiz-adv-x="640" 
d="M319 535q111 0 188 -80q76 -79 76 -195q0 -112 -77 -192q-76 -79 -189 -79q-78 0 -137 35t-95 89v-329h-29v475q0 117 76 196q77 80 187 80zM316 18q99 0 168 70t69 173q0 104 -69 175q-69 70 -165 70q-98 0 -166 -71t-68 -175v-93q24 -56 86 -103q62 -46 145 -46z" />
    <glyph glyph-name="uni03C2" unicode="&#x3c2;" horiz-adv-x="478" 
d="M339 -248q49 133 66 242q-70 3 -127 17t-111 43q-52 30 -81.5 84.5t-29.5 129.5q0 119 74 193t183 74q71 0 133 -38v-36q-65 45 -133 45q-95 0 -162 -65q-65 -65 -65 -173q0 -244 355 -244h8q-23 -94 -46 -163t-46 -116z" />
    <glyph glyph-name="sigma" unicode="&#x3c3;" horiz-adv-x="641" 
d="M641 522v-29h-89q-70 0 -103 3v-8q63 -33 98.5 -95.5t35.5 -138.5q0 -113 -76 -189q-75 -76 -187 -76q-113 0 -189 75q-75 76 -75 189q0 116 76 192q77 77 188 77h321zM86 254q0 -102 67 -169t167 -67q98 0 166 66q67 67 67 171q0 103 -68 171q-67 67 -165 67
q-100 0 -167 -67t-67 -172z" />
    <glyph glyph-name="tau" unicode="&#x3c4;" horiz-adv-x="421" 
d="M354 -4q-65 1 -112 49q-47 47 -47 112v336h-163v29h358v-29h-166v-336q0 -53 39 -92q40 -39 91 -40v-29z" />
    <glyph glyph-name="upsilon" unicode="&#x3c5;" horiz-adv-x="596" 
d="M432 522q21 -24 38 -52t29 -59t19 -63.5t7 -63.5q0 -125 -64 -210q-63 -85 -159 -85t-156 61t-60 162v310h29v-307q0 -48 14 -84.5t39 -61.5t59 -38t75 -13q83 0 138 76t55 191q0 67 -27.5 129.5t-72.5 107.5h37z" />
    <glyph glyph-name="phi" unicode="&#x3c6;" horiz-adv-x="685" 
d="M350 20q98 -1 166 68q68 71 68 172q0 117 -52 181q-51 65 -110 65q-30 0 -51 -25.5t-21 -63.5v-397zM423 535q28 0 59.5 -15.5t61.5 -46.5t50 -86.5t20 -127.5q0 -112 -76 -191q-77 -78 -188 -78v-206h-29v206q-113 0 -189 78q-76 77 -76 191q0 96 59 173q60 76 148 97
v-30q-78 -21 -127 -87q-50 -65 -50 -152q0 -103 67 -171q67 -69 168 -69v401q0 51 31 82q32 32 71 32z" />
    <glyph glyph-name="chi" unicode="&#x3c7;" horiz-adv-x="494" 
d="M266 275l203 -275h-36l-137 187q-29 36 -45 66h-5q-21 -33 -48 -69l-135 -184h-35l203 275l-182 247h36l111 -151l26.5 -37.5l23.5 -35.5h4l28.5 41.5l20.5 28.5l112 154h35z" />
    <glyph glyph-name="psi" unicode="&#x3c8;" horiz-adv-x="684" 
d="M583 285q0 67 -28 129.5t-73 107.5h38q43 -48 68 -110t25 -128q0 -122 -77 -208t-176 -86v-206h-29v206q-99 0 -173 62q-72 61 -72 160v310h29v-307q0 -93 65 -144q66 -51 151 -51v692h29v-692q86 0 154 77q69 76 69 188z" />
    <glyph glyph-name="omega" unicode="&#x3c9;" horiz-adv-x="900" 
d="M799 285q0 67 -27.5 129.5t-72.5 107.5h37q42 -48 67.5 -110t25.5 -128q0 -125 -64 -210q-63 -85 -159 -85q-119 0 -156 108q-38 -108 -156 -108q-96 0 -160 85q-63 85 -63 210q0 63 26 126.5t68 111.5h37q-45 -45 -73 -107.5t-28 -129.5q0 -115 55 -191t138 -76
q76 0 109 47.5t33 149.5v186h29v-186q0 -102 33 -149.5t108 -47.5q84 0 138 76q55 76 55 191z" />
    <glyph glyph-name="iotadieresis" unicode="&#x3ca;" horiz-adv-x="280" 
d="M245 -4q-65 1 -112 49q-47 47 -47 112v365h29v-365q0 -52 38 -92q40 -39 92 -40v-29zM-5 663q-9 9 -9 22t9 21q8 9 21 9t21 -9q9 -8 9 -21t-9 -22q-8 -8 -21 -8t-21 8zM164 663q-8 9 -8 22t8 21q9 9 22 9t21 -9q9 -8 9 -21t-9 -22q-8 -8 -21 -8t-22 8z" />
    <glyph glyph-name="upsilondieresis" unicode="&#x3cb;" horiz-adv-x="596" 
d="M432 522q21 -24 38 -52t29 -59t19 -63.5t7 -63.5q0 -125 -64 -210q-63 -85 -159 -85t-156 61t-60 162v310h29v-307q0 -48 14 -84.5t39 -61.5t59 -38t75 -13q83 0 138 76t55 191q0 67 -27.5 129.5t-72.5 107.5h37zM179 663q-8 9 -8 22t8 21q9 9 22 9t21 -9q9 -8 9 -21
t-9 -22q-8 -8 -21 -8t-22 8zM349 663q-8 9 -8 22t8 21q9 9 22 9t21 -9q9 -8 9 -21t-9 -22q-8 -8 -21 -8t-22 8z" />
    <glyph glyph-name="omicrontonos" unicode="&#x3cc;" horiz-adv-x="631" 
d="M86 260q0 -102 67 -172t166 -70t167 69q68 71 68 174q0 104 -69 175q-69 70 -166 70t-165 -71t-68 -175zM319 535q112 0 189 -80q76 -79 76 -195q0 -113 -76 -192t-189 -79q-112 0 -188 78q-75 79 -75 192q0 117 76 196q77 80 187 80zM340 777l32 -16l-79 -155l-22 11z
" />
    <glyph glyph-name="upsilontonos" unicode="&#x3cd;" horiz-adv-x="596" 
d="M432 522q21 -24 38 -52t29 -59t19 -63.5t7 -63.5q0 -125 -64 -210q-63 -85 -159 -85t-156 61t-60 162v310h29v-307q0 -48 14 -84.5t39 -61.5t59 -38t75 -13q83 0 138 76t55 191q0 67 -27.5 129.5t-72.5 107.5h37zM316 777l32 -16l-79 -155l-22 11z" />
    <glyph glyph-name="omegatonos" unicode="&#x3ce;" horiz-adv-x="900" 
d="M799 285q0 67 -27.5 129.5t-72.5 107.5h37q42 -48 67.5 -110t25.5 -128q0 -125 -64 -210q-63 -85 -159 -85q-119 0 -156 108q-38 -108 -156 -108q-96 0 -160 85q-63 85 -63 210q0 63 26 126.5t68 111.5h37q-45 -45 -73 -107.5t-28 -129.5q0 -115 55 -191t138 -76
q76 0 109 47.5t33 149.5v186h29v-186q0 -102 33 -149.5t108 -47.5q84 0 138 76q55 76 55 191zM469 777l32 -16l-79 -155l-22 11z" />
    <glyph glyph-name="uni0400" unicode="&#x400;" horiz-adv-x="534" 
d="M97 0v712h364v-29h-335v-291h325v-29h-325v-334h335v-29h-364zM371 825l-13 -20l-164 104l22 29z" />
    <glyph glyph-name="afii10023" unicode="&#x401;" horiz-adv-x="534" 
d="M97 0v712h364v-29h-335v-291h325v-29h-325v-334h335v-29h-364zM173 852q-8 9 -8 22t8 21q9 9 22 9t21 -9q9 -8 9 -21t-9 -22q-8 -8 -21 -8t-22 8zM343 852q-8 9 -8 22t8 21q9 9 22 9t21 -9q9 -8 9 -21t-9 -22q-8 -8 -21 -8t-22 8z" />
    <glyph glyph-name="afii10051" unicode="&#x402;" horiz-adv-x="727" 
d="M485 457q86 0 137 -57q52 -56 52 -147q0 -106 -70 -182t-176 -76v29q92 0 154 65t62 161q0 87 -45.5 132.5t-117.5 45.5q-116 0 -230 -37v-391h-29v683h-195v29h417v-29h-193v-260q126 34 234 34z" />
    <glyph glyph-name="afii10052" unicode="&#x403;" horiz-adv-x="422" 
d="M126 683v-683h-29v712h298v-29h-269zM169 805l-13 20l155 113l22 -30z" />
    <glyph glyph-name="afii10053" unicode="&#x404;" horiz-adv-x="632" 
d="M411 695q-139 0 -230 -94q-93 -96 -97 -230h399v-29h-399q4 -137 96 -231q91 -93 231 -93q90 0 168 24v-32q-80 -21 -168 -21q-151 0 -255 104q-103 104 -103 263t103 263q103 105 255 105q84 0 168 -21v-32q-75 24 -168 24z" />
    <glyph glyph-name="afii10054" unicode="&#x405;" horiz-adv-x="502" 
d="M99 552q0 -31 14.5 -54t38.5 -42t54 -35l61 -32q32 -16 62.5 -34t54 -41t38 -52.5t14.5 -67.5q0 -88 -59 -147q-58 -58 -148 -58q-91 0 -160 54v38q73 -63 156 -63q75 0 128 48q53 50 53 126q0 46 -25 77t-62.5 55t-81 45t-81 45.5t-62.5 56.5t-25 80q0 78 54 125
q55 48 133 48q83 0 154 -50v-36q-71 57 -150 57q-65 0 -114 -38q-47 -38 -47 -105z" />
    <glyph glyph-name="afii10055" unicode="&#x406;" horiz-adv-x="223" 
d="M126 712v-712h-29v712h29z" />
    <glyph glyph-name="afii10056" unicode="&#x407;" horiz-adv-x="223" 
d="M126 712v-712h-29v712h29zM6 852q-8 9 -8 22t8 21q9 9 22 9t21 -9q9 -8 9 -21t-9 -22q-8 -8 -21 -8t-22 8zM176 852q-8 9 -8 22t8 21q9 9 22 9t21 -9q9 -8 9 -21t-9 -22q-8 -8 -21 -8t-22 8z" />
    <glyph glyph-name="afii10057" unicode="&#x408;" horiz-adv-x="412" 
d="M286 712h29v-532q0 -86 -47 -139q-46 -52 -120 -52q-57 0 -101 32v37q49 -40 103 -40q55 0 95 46q41 47 41 115v533z" />
    <glyph glyph-name="afii10058" unicode="&#x409;" horiz-adv-x="999" 
d="M730 392q92 0 154 -53t62 -143q0 -91 -62 -144q-61 -52 -154 -52h-207v683h-342v-497q0 -86 -47 -139q-46 -52 -119 -52v29q60 0 98.5 43t38.5 118v527h400v-320h178zM726 29q42 0 76.5 11t60 32.5t39.5 52.5t14 71t-14 71t-39.5 52.5t-60 32.5t-76.5 11h-174v-334h174z
" />
    <glyph glyph-name="afii10059" unicode="&#x40a;" horiz-adv-x="1033" 
d="M764 392q92 0 154 -53t62 -143q0 -91 -62 -144q-61 -52 -154 -52h-207v363h-431v-363h-29v712h29v-320h431v320h29v-320h178zM760 29q42 0 76.5 11t60 32.5t39.5 52.5t14 71t-14 71t-39.5 52.5t-60 32.5t-76.5 11h-174v-334h174z" />
    <glyph glyph-name="afii10060" unicode="&#x40b;" horiz-adv-x="755" 
d="M485 457q86 0 137 -57q52 -56 52 -147v-253h-29v250q0 87 -46 132.5t-118 45.5q-116 0 -230 -37v-391h-29v683h-195v29h417v-29h-193v-260q123 34 234 34z" />
    <glyph glyph-name="afii10061" unicode="&#x40c;" horiz-adv-x="592" 
d="M236 364q162 -22 233 -136q37 -62 75 -204l4 -17q1 -2 1 -4t1 -3h-30q-8 34 -15.5 62t-15.5 50q-15 46 -42 92q-26 48 -60 75t-87.5 44.5t-123.5 17.5h-50v-341h-29v712h29v-342h76l309 342h39zM210 805l-13 20l155 113l22 -30z" />
    <glyph glyph-name="uni040D" unicode="&#x40d;" horiz-adv-x="726" 
d="M97 0v712h29v-515q0 -49 -0.5 -82.5t-1.5 -51.5h4q5 9 20.5 32t43.5 60l409 557h28v-712h-29v541q0 46 0.5 77t1.5 47l-3 1q-11 -17 -30 -43.5l-45 -62.5l-410 -560h-17zM452 825l-13 -20l-164 104l22 29z" />
    <glyph glyph-name="afii10062" unicode="&#x40e;" horiz-adv-x="560" 
d="M127 0h-35l169 298l-234 414h33l163 -283l33.5 -58.5t21.5 -40.5h4q9 19 22.5 43l31.5 55l163 284h34zM419 911q-21 -46 -58.5 -67.5t-79.5 -21.5q-100 0 -139 88l24 9q28 -70 114 -70q84 0 114 70z" />
    <glyph glyph-name="afii10145" unicode="&#x40f;" horiz-adv-x="683" 
d="M97 0v712h29v-683h431v683h29v-712h-230v-176h-29v176h-230z" />
    <glyph glyph-name="afii10017" unicode="&#x410;" horiz-adv-x="696" 
d="M342 712h12l315 -712h-34l-77 179h-420l-77 -179h-34zM546 208l-144 327l-32 75.5t-20 48.5h-4q-7 -18 -20 -48.5l-32 -75.5l-144 -327h396z" />
    <glyph glyph-name="afii10018" unicode="&#x411;" horiz-adv-x="557" 
d="M460 683h-350v-291h178q92 0 154 -53t62 -143q0 -91 -62 -144q-61 -52 -154 -52h-207v712h379v-29zM284 29q42 0 76.5 11t60 32.5t39.5 52.5t14 71t-14 71t-39.5 52.5t-60 32.5t-76.5 11h-174v-334h174z" />
    <glyph glyph-name="afii10019" unicode="&#x412;" horiz-adv-x="582" 
d="M126 683v-307h169q78 0 122.5 38.5t44.5 114.5q0 73 -52 113q-52 41 -128 41h-156zM126 347v-318h174q84 0 137 41t53 121q0 76 -50.5 116t-137.5 40h-176zM97 712h181q102 0 158 -54q56 -53 56 -129q0 -122 -107 -164q64 -19 99.5 -65.5t35.5 -110.5q0 -90 -62 -140
q-61 -49 -154 -49h-207v712z" />
    <glyph glyph-name="afii10020" unicode="&#x413;" horiz-adv-x="422" 
d="M126 683v-683h-29v712h298v-29h-269z" />
    <glyph glyph-name="afii10021" unicode="&#x414;" horiz-adv-x="732" 
d="M69 29h61q11 14 25.5 56t29.5 110.5t27.5 163t18.5 213.5l7 140h366v-683h59v-176h-29v147h-536v-147h-29v176zM264 683l-4 -111q-4 -119 -16.5 -213.5t-27.5 -163t-30.5 -110.5t-26.5 -56h416v654h-311z" />
    <glyph glyph-name="afii10022" unicode="&#x415;" horiz-adv-x="534" 
d="M97 0v712h364v-29h-335v-291h325v-29h-325v-334h335v-29h-364z" />
    <glyph glyph-name="afii10024" unicode="&#x416;" horiz-adv-x="876" 
d="M424 290q0 18 0.5 36.5t1.5 32.5h-23l-19 -21.5t-32 -33.5l-295 -304h-40l363 374l-354 338h39l285 -271q20 -18 33 -32.5l20 -22.5h23q-1 14 -1.5 33t-0.5 38v255h29v-255q0 -19 -0.5 -38t-1.5 -33h22l20 22.5t33 32.5l285 271h39l-354 -338l363 -374h-40l-295 304
q-20 20 -32 33.5l-19 21.5h-22q1 -14 1.5 -32.5t0.5 -36.5v-290h-29v290z" />
    <glyph glyph-name="afii10025" unicode="&#x417;" horiz-adv-x="531" 
d="M152 368v28h81q69 0 116 42t47 100q0 66 -50 111q-49 46 -119 46q-78 0 -149 -41v35q65 35 149 35q86 0 142 -53q57 -53 57 -133q0 -49 -29.5 -91t-84.5 -64q66 -22 102.5 -71.5t36.5 -109.5q0 -90 -65 -152q-64 -61 -162 -61q-83 0 -152 33v34q73 -38 152 -38
q81 0 139 53q58 54 58 131q0 66 -56 116t-132 50h-81z" />
    <glyph glyph-name="afii10026" unicode="&#x418;" horiz-adv-x="726" 
d="M97 0v712h29v-515q0 -49 -0.5 -82.5t-1.5 -51.5h4q5 9 20.5 32t43.5 60l409 557h28v-712h-29v541q0 46 0.5 77t1.5 47l-3 1q-11 -17 -30 -43.5l-45 -62.5l-410 -560h-17z" />
    <glyph glyph-name="afii10027" unicode="&#x419;" horiz-adv-x="726" 
d="M97 0v712h29v-515q0 -49 -0.5 -82.5t-1.5 -51.5h4q5 9 20.5 32t43.5 60l409 557h28v-712h-29v541q0 46 0.5 77t1.5 47l-3 1q-11 -17 -30 -43.5l-45 -62.5l-410 -560h-17zM495 911q-21 -46 -58.5 -67.5t-79.5 -21.5q-100 0 -139 88l24 9q28 -70 114 -70q84 0 114 70z" />
    <glyph glyph-name="afii10028" unicode="&#x41a;" horiz-adv-x="542" 
d="M180 304l-32 32.5t-19 20.5h-5q1 -14 1.5 -31.5t0.5 -35.5v-290h-29v712h29v-255q0 -19 -0.5 -36.5t-1.5 -31.5h5q7 8 20 21t33 31l295 271h39l-364 -338l373 -374h-40z" />
    <glyph glyph-name="afii10029" unicode="&#x41b;" horiz-adv-x="649" 
d="M152 712h400v-712h-29v683h-342v-497q0 -86 -47 -139q-46 -52 -119 -52v29q60 0 98.5 43t38.5 118v527z" />
    <glyph glyph-name="afii10030" unicode="&#x41c;" horiz-adv-x="817" 
d="M691 0v557v24.5t1 30.5t1 26v11h-4l-53 -54l-227 -227l-227 227l-53 54h-4v-37q1 -17 1 -30.5v-24.5v-557h-29v712h9l303 -303l302 303h9v-712h-29z" />
    <glyph glyph-name="afii10031" unicode="&#x41d;" horiz-adv-x="683" 
d="M557 391v321h29v-712h-29v362h-431v-362h-29v712h29v-321h431z" />
    <glyph glyph-name="afii10032" unicode="&#x41e;" horiz-adv-x="822" 
d="M157 617q105 107 254 107t253 -107q105 -107 105 -261q0 -155 -105 -261q-103 -106 -253 -106q-149 0 -254 106q-104 107 -104 261t104 261zM739 356q0 142 -96 240q-95 99 -232 99t-233 -99q-95 -98 -95 -240q0 -140 95 -240q96 -98 233 -98t232 98q96 99 96 240z" />
    <glyph glyph-name="afii10033" unicode="&#x41f;" horiz-adv-x="683" 
d="M97 712h489v-712h-29v683h-431v-683h-29v712z" />
    <glyph glyph-name="afii10034" unicode="&#x420;" horiz-adv-x="563" 
d="M97 712h179q116 0 181 -62t65 -155t-65 -155q-64 -61 -181 -61h-150v-279h-29v712zM126 683v-375h149q50 0 90 13t68.5 37.5t43.5 59t15 77.5t-15.5 78t-43.5 59.5t-68.5 37.5t-89.5 13h-149z" />
    <glyph glyph-name="afii10035" unicode="&#x421;" horiz-adv-x="646" 
d="M579 31q-81 -42 -168 -42q-151 0 -255 104q-103 104 -103 263t103 263q103 105 255 105q87 0 168 -42v-34q-77 47 -168 47q-142 0 -235 -99t-93 -240t93 -240q93 -98 235 -98q90 0 168 48v-35z" />
    <glyph glyph-name="afii10036" unicode="&#x422;" horiz-adv-x="471" 
d="M251 683v-683h-29v683h-195v29h417v-29h-193z" />
    <glyph glyph-name="afii10037" unicode="&#x423;" horiz-adv-x="549" 
d="M488 712h34l-351 -712h-34l134 272l-244 440h36l209 -376q5 -8 8 -16.5l4 -11.5h7q1 3 4.5 11.5t7.5 16.5z" />
    <glyph glyph-name="afii10038" unicode="&#x424;" horiz-adv-x="823" 
d="M426 668q143 0 244 -87q100 -87 100 -225t-101 -225t-243 -87v-73h-29v73q-144 0 -244 87t-100 225t100 225t244 87v72h29v-72zM397 639q-132 0 -223 -78q-91 -76 -91 -205q0 -127 91 -205t223 -78v566zM426 73q131 0 223 78q91 78 91 205q0 129 -91 205q-92 78 -223 78
v-566z" />
    <glyph glyph-name="afii10039" unicode="&#x425;" horiz-adv-x="564" 
d="M48 712h35l150 -235l12.5 -21.5l14.5 -25.5l19 -33h6q28 51 46 80l150 235h35l-217 -339l238 -373h-34l-182 284q-27 40 -36 65h-5q-2 -2 -6 -9l-9.5 -16.5l-11.5 -20l-11 -19.5l-181 -284h-34l238 373z" />
    <glyph glyph-name="afii10040" unicode="&#x426;" horiz-adv-x="714" 
d="M97 0v712h29v-683h431v683h29v-683h59v-176h-29v147h-519z" />
    <glyph glyph-name="afii10041" unicode="&#x427;" horiz-adv-x="630" 
d="M504 0v289q-132 -34 -234 -34q-86 0 -138 57q-51 57 -51 147v253h29v-250q0 -87 46 -132.5t118 -45.5q110 0 230 37v391h29v-712h-29z" />
    <glyph glyph-name="afii10042" unicode="&#x428;" horiz-adv-x="926" 
d="M97 0v712h29v-683h323v683h29v-683h322v683h29v-712h-732z" />
    <glyph glyph-name="afii10043" unicode="&#x429;" horiz-adv-x="957" 
d="M97 0v712h29v-683h323v683h29v-683h322v683h29v-683h59v-176h-29v147h-762z" />
    <glyph glyph-name="afii10044" unicode="&#x42a;" horiz-adv-x="683" 
d="M414 392q92 0 154 -53t62 -143q0 -91 -62 -144q-61 -52 -154 -52h-207v683h-180v29h209v-320h178zM410 29q42 0 76.5 11t60 32.5t39.5 52.5t14 71t-14 71t-39.5 52.5t-60 32.5t-76.5 11h-174v-334h174z" />
    <glyph glyph-name="afii10045" unicode="&#x42b;" horiz-adv-x="760" 
d="M304 392q92 0 154 -53t62 -143q0 -91 -62 -144q-61 -52 -154 -52h-207v712h29v-320h178zM300 29q42 0 76.5 11t60 32.5t39.5 52.5t14 71t-14 71t-39.5 52.5t-60 32.5t-76.5 11h-174v-334h174zM663 712v-712h-29v712h29z" />
    <glyph glyph-name="afii10046" unicode="&#x42c;" horiz-adv-x="557" 
d="M288 392q92 0 154 -53t62 -143q0 -91 -62 -144q-61 -52 -154 -52h-207v712h29v-320h178zM284 29q42 0 76.5 11t60 32.5t39.5 52.5t14 71t-14 71t-39.5 52.5t-60 32.5t-76.5 11h-174v-334h174z" />
    <glyph glyph-name="afii10047" unicode="&#x42d;" horiz-adv-x="632" 
d="M221 695q-93 0 -168 -24v32q84 21 168 21q151 0 255 -105q103 -104 103 -263t-103 -263q-104 -104 -255 -104q-89 0 -168 21v32q78 -24 168 -24q138 0 230 93q93 96 97 231h-399v29h399q-4 134 -97 230q-91 94 -230 94z" />
    <glyph glyph-name="afii10048" unicode="&#x42e;" horiz-adv-x="1045" 
d="M634 724q149 0 253 -107q105 -107 105 -261q0 -155 -105 -261q-103 -106 -253 -106q-145 0 -249 101q-103 101 -109 251h-150v-341h-29v712h29v-342h150q5 149 108 251q103 103 250 103zM962 356q0 142 -96 240q-95 99 -232 99t-233 -99q-95 -98 -95 -240q0 -140 95 -240
q96 -98 233 -98t232 98q96 99 96 240z" />
    <glyph glyph-name="afii10049" unicode="&#x42f;" horiz-adv-x="556" 
d="M459 712v-712h-29v315h-132l-226 -315h-36l226 315q-51 3 -90 19t-65.5 42.5t-40.5 61t-14 75.5q0 85 59 142q60 57 169 57h179zM430 344v339h-148q-93 0 -146.5 -45.5t-53.5 -124.5q0 -78 53.5 -123.5t146.5 -45.5h148z" />
    <glyph glyph-name="afii10065" unicode="&#x430;" horiz-adv-x="559" 
d="M444 238q-93 40 -207 40q-63 0 -109 -39q-46 -37 -46 -95q0 -57 40.5 -91.5t104.5 -34.5q81 0 149 54t68 122v44zM253 535q95 0 157 -50q63 -50 63 -130v-355h-22l-4 116q-28 -57 -91 -92q-62 -35 -131 -35q-79 0 -126 44q-47 45 -47 111q0 65 52 114t133 49
q111 0 207 -38v80q0 45 -18.5 75t-47 48.5t-62 26t-63.5 7.5q-29 0 -54 -6q-13 -2 -22.5 -5t-16.5 -5l-40 -17v33q75 29 133 29z" />
    <glyph glyph-name="afii10066" unicode="&#x431;" horiz-adv-x="647" 
d="M326 18q99 0 167 69q68 71 68 174q0 104 -69 175q-69 70 -166 70t-165 -71t-68 -175q0 -102 67 -172t166 -70zM91 371q13 40 38.5 71t58 51.5t68 31t70.5 10.5q112 0 189 -80q76 -79 76 -195q0 -113 -76 -192t-189 -79q-114 0 -189 78q-38 40 -56 94.5t-18 117.5
q0 61 6 128.5t27 128.5t61.5 110t110.5 74q45 16 82.5 18.5t69 4t57 7t46.5 26.5l17 -26q-20 -21 -49.5 -27.5t-63.5 -8t-71.5 -4.5t-74.5 -16q-40 -15 -70 -39.5t-51.5 -56t-36 -69.5t-22.5 -78q-5 -23 -7 -43t-7 -37h4z" />
    <glyph glyph-name="afii10067" unicode="&#x432;" horiz-adv-x="502" 
d="M115 493v-213h163q54 0 85 26t31 80q0 51 -36 79t-90 28h-153zM115 251v-222h166q60 0 96 28t36 85q0 54 -34.5 81.5t-95.5 27.5h-168zM86 522h179q76 0 117 -40q42 -41 42 -96q0 -86 -68 -118q42 -16 64.5 -50t22.5 -77q0 -33 -12 -59.5t-33.5 -44.5t-50.5 -27.5
t-63 -9.5h-198v522z" />
    <glyph glyph-name="afii10068" unicode="&#x433;" horiz-adv-x="358" 
d="M115 493v-493h-29v522h256v-29h-227z" />
    <glyph glyph-name="afii10069" unicode="&#x434;" horiz-adv-x="581" 
d="M56 29h54q10 13 20.5 50.5t19 87t14.5 106.5t9 110l7 139h294v-493h51v-142h-29v113h-411v-113h-29v142zM200 361q-4 -49 -8.5 -98.5t-11 -94t-15.5 -81t-21 -58.5h301v464h-239z" />
    <glyph glyph-name="afii10070" unicode="&#x435;" 
d="M480 301q0 97 -54 151t-133 54q-74 0 -135 -58q-61 -56 -70 -147h392zM86 272q0 -107 63 -180q65 -74 163 -74q88 0 165 39v-33q-75 -35 -167 -35q-108 0 -181 81q-73 80 -73 198q0 107 67 186q67 81 171 81q96 0 156 -64q60 -63 60 -176q0 -7 -0.5 -12.5t-1.5 -10.5
h-422z" />
    <glyph glyph-name="afii10072" unicode="&#x436;" horiz-adv-x="707" 
d="M339 213v26t1 22h-18l-38 -38l-213 -223h-36l263 274l-257 248h36l206 -199q14 -14 24 -23t15 -15h18q-1 11 -1 23.5v26.5v187h29v-187v-26.5t-1 -23.5h18q5 6 15 15t24 23l206 199h36l-257 -248l263 -274h-36l-213 223l-23.5 23.5l-14.5 14.5h-18q1 -10 1 -22v-26v-213
h-29v213z" />
    <glyph glyph-name="afii10073" unicode="&#x437;" horiz-adv-x="454" 
d="M115 295h94q58 0 97 30q40 30 40 72q0 45 -41 77q-40 31 -101 31q-82 0 -151 -31v32q72 29 151 29q73 0 123 -39q49 -39 49 -99q0 -35 -22 -66.5t-64 -49.5q51 -17 79.5 -54.5t28.5 -79.5q0 -67 -57 -113q-57 -45 -140 -45q-87 0 -153 27v31q26 -12 70 -21q23 -4 43.5 -6
t39.5 -2q71 0 118 37q48 37 48 92q0 48 -47 84t-111 36h-94v28z" />
    <glyph glyph-name="afii10074" unicode="&#x438;" horiz-adv-x="564" 
d="M86 0v522h29v-392l-2 -69h4q10 19 36 54l299 407h26v-522h-29v397v17t1 24t1 23v11h-4l-46 -64l-296 -408h-19z" />
    <glyph glyph-name="afii10075" unicode="&#x439;" horiz-adv-x="564" 
d="M86 0v522h29v-392l-2 -69h4q10 19 36 54l299 407h26v-522h-29v397v17t1 24t1 23v11h-4l-46 -64l-296 -408h-19zM426 722q-21 -46 -58.5 -67.5t-79.5 -21.5q-100 0 -139 88l24 9q28 -70 114 -70q84 0 114 70z" />
    <glyph glyph-name="afii10076" unicode="&#x43a;" horiz-adv-x="456" 
d="M157 223q-15 14 -24 23.5l-14 14.5h-3q1 -10 1 -22v-26v-213h-29v522h29v-187v-26.5t-1 -23.5h3q5 6 15 15t24 23l216 199h41l-267 -248l273 -274h-41z" />
    <glyph glyph-name="afii10077" unicode="&#x43b;" horiz-adv-x="507" 
d="M114 522h307v-522h-29v493h-249v-355q0 -63 -35 -101t-92 -40v28q42 2 70 31.5t28 80.5v385z" />
    <glyph glyph-name="afii10078" unicode="&#x43c;" horiz-adv-x="629" 
d="M315 263l-200 200v-463h-29v522h13l216 -217l217 217h11v-522h-29v462z" />
    <glyph glyph-name="afii10079" unicode="&#x43d;" horiz-adv-x="533" 
d="M418 291v231h29v-522h-29v261h-303v-261h-29v522h29v-231h303z" />
    <glyph glyph-name="afii10080" unicode="&#x43e;" horiz-adv-x="640" 
d="M86 260q0 -102 67 -172t166 -70t167 69q68 71 68 174q0 104 -69 175q-69 70 -166 70t-165 -71t-68 -175zM319 535q112 0 189 -80q76 -79 76 -195q0 -113 -76 -192t-189 -79q-112 0 -188 78q-75 79 -75 192q0 117 76 196q77 80 187 80z" />
    <glyph glyph-name="afii10081" unicode="&#x43f;" horiz-adv-x="531" 
d="M86 522h359v-522h-29v493h-301v-493h-29v522z" />
    <glyph glyph-name="afii10082" unicode="&#x440;" horiz-adv-x="665" 
d="M346 506q-92 0 -162 -66q-69 -65 -69 -145v-129q26 -56 85 -102q61 -46 143 -46q101 0 169 69q67 68 67 174q0 104 -66 175q-64 70 -167 70zM86 -216v738h23l5 -128q36 66 99.5 103.5t136.5 37.5q115 0 187 -82q72 -81 72 -192q0 -113 -75 -192q-74 -80 -188 -80
q-76 0 -135.5 36t-95.5 88v-329h-29z" />
    <glyph glyph-name="afii10083" unicode="&#x441;" horiz-adv-x="493" 
d="M314 506q-95 0 -162 -69q-66 -68 -66 -176q0 -109 66 -176q67 -67 162 -67q69 0 133 44v-35q-62 -38 -133 -38q-109 0 -184 76q-74 77 -74 196t74 196q75 78 184 78q71 0 133 -38v-36q-65 45 -133 45z" />
    <glyph glyph-name="afii10084" unicode="&#x442;" horiz-adv-x="342" 
d="M186 493v-493h-29v493h-141v29h310v-29h-140z" />
    <glyph glyph-name="afii10085" unicode="&#x443;" horiz-adv-x="515" 
d="M250 96q2 -5 3.5 -12t2.5 -10h6q1 3 3 10.5t4 10.5l184 427h34l-319 -738h-34l109 252l-215 486h33z" />
    <glyph glyph-name="afii10086" unicode="&#x444;" horiz-adv-x="724" 
d="M377 764v-231q123 -2 206 -79q85 -76 85 -193q0 -116 -85 -194q-85 -77 -206 -77v-206h-29v206q-122 0 -208 77q-84 78 -84 194t84 194q85 78 208 78v231h29zM348 504q-113 0 -187 -70q-75 -69 -75 -173q0 -103 75 -173q75 -69 187 -69v485zM377 19q111 0 186 69
q75 70 75 173q0 104 -75 173q-74 70 -186 70v-485z" />
    <glyph glyph-name="afii10087" unicode="&#x445;" horiz-adv-x="483" 
d="M259 275l203 -275h-36l-137 187q-29 36 -45 66h-5q-21 -33 -48 -69l-135 -184h-35l203 275l-182 247h36l111 -151l26.5 -37.5l23.5 -35.5h4l28.5 41.5l20.5 28.5l112 154h35z" />
    <glyph glyph-name="afii10088" unicode="&#x446;" horiz-adv-x="552" 
d="M86 0v522h29v-493h301v493h29v-493h51v-142h-29v113h-381z" />
    <glyph glyph-name="afii10089" unicode="&#x447;" horiz-adv-x="482" 
d="M367 0v205q-89 -21 -165 -21q-63 0 -100.5 41.5t-37.5 108.5v188h29v-186q0 -60 31 -91.5t82 -31.5q80 0 161 25v284h29v-522h-29z" />
    <glyph glyph-name="afii10090" unicode="&#x448;" horiz-adv-x="706" 
d="M86 0v522h29v-493h224v493h29v-493h223v493h29v-522h-534z" />
    <glyph glyph-name="afii10091" unicode="&#x449;" horiz-adv-x="727" 
d="M86 0v522h29v-493h224v493h29v-493h223v493h29v-493h51v-142h-29v113h-556z" />
    <glyph glyph-name="afii10092" unicode="&#x44a;" horiz-adv-x="501" 
d="M304 290q66 0 113 -39q46 -39 46 -106t-46 -106q-47 -39 -113 -39h-153v493h-141v29h170v-232h124zM301 29q57 0 94.5 29.5t37.5 86.5t-37 86t-95 29h-121v-231h121z" />
    <glyph glyph-name="afii10093" unicode="&#x44b;" horiz-adv-x="594" 
d="M238 290q67 0 114 -39q46 -39 46 -106t-46 -106q-47 -39 -114 -39h-152v522h29v-232h123zM236 29q58 0 95 29.5t37 86.5t-37 86t-95 29h-121v-231h121zM508 0h-29v522h29v-522z" />
    <glyph glyph-name="afii10094" unicode="&#x44c;" horiz-adv-x="442" 
d="M238 290q67 0 114 -39q46 -39 46 -106t-46 -106q-47 -39 -114 -39h-152v522h29v-232h123zM236 29q58 0 95 29.5t37 86.5t-37 86t-95 29h-121v-231h121z" />
    <glyph glyph-name="afii10095" unicode="&#x44d;" horiz-adv-x="522" 
d="M120 247v29h319q-4 99 -68 164q-63 66 -158 66q-89 0 -165 -39v33q75 35 167 35q107 0 181 -78q73 -77 73 -195t-73 -195q-74 -78 -181 -78q-92 0 -167 35v33q76 -39 165 -39q95 0 158 65q64 67 68 164h-319z" />
    <glyph glyph-name="afii10096" unicode="&#x44e;" horiz-adv-x="847" 
d="M115 0h-29v522h29v-249h148q4 111 80 187q76 75 183 75q112 0 189 -80q76 -79 76 -195q0 -113 -76 -192t-189 -79q-107 0 -183 73q-75 74 -80 182h-148v-244zM293 260q0 -102 67 -172t166 -70t167 69q68 71 68 174q0 104 -69 175q-69 70 -166 70t-165 -71t-68 -175z" />
    <glyph glyph-name="afii10097" unicode="&#x44f;" horiz-adv-x="471" 
d="M385 522v-522h-29v228h-126l-161 -228h-37l162 228q-72 6 -109.5 47t-37.5 99q0 31 11.5 58.5t33 47t53 31t71.5 11.5h169zM356 257v236h-139q-64 0 -102 -31t-38 -88q0 -54 38 -85.5t102 -31.5h139z" />
    <glyph glyph-name="uni0450" unicode="&#x450;" 
d="M480 301q0 97 -54 151t-133 54q-74 0 -135 -58q-61 -56 -70 -147h392zM86 272q0 -107 63 -180q65 -74 163 -74q88 0 165 39v-33q-75 -35 -167 -35q-108 0 -181 81q-73 80 -73 198q0 107 67 186q67 81 171 81q96 0 156 -64q60 -63 60 -176q0 -7 -0.5 -12.5t-1.5 -10.5
h-422zM382 636l-13 -20l-164 104l22 29z" />
    <glyph glyph-name="afii10071" unicode="&#x451;" 
d="M480 301q0 97 -54 151t-133 54q-74 0 -135 -58q-61 -56 -70 -147h392zM86 272q0 -107 63 -180q65 -74 163 -74q88 0 165 39v-33q-75 -35 -167 -35q-108 0 -181 81q-73 80 -73 198q0 107 67 186q67 81 171 81q96 0 156 -64q60 -63 60 -176q0 -7 -0.5 -12.5t-1.5 -10.5
h-422zM189 663q-8 9 -8 22t8 21q9 9 22 9t21 -9q9 -8 9 -21t-9 -22q-8 -8 -21 -8t-22 8zM359 663q-8 9 -8 22t8 21q9 9 22 9t21 -9q9 -8 9 -21t-9 -22q-8 -8 -21 -8t-22 8z" />
    <glyph glyph-name="afii10099" unicode="&#x452;" horiz-adv-x="609" 
d="M367 -196q59 0 92 42q33 40 33 99v367q0 47 -13 83t-37 61t-56.5 37.5t-71.5 12.5q-78 0 -133 -51q-57 -52 -64 -97v-358h-29v645h-77v29h77v90h29v-90h201v-29h-201v-223q15 22 36.5 42.5t47.5 36.5t55.5 25t61.5 9q91 0 147 -62t56 -158v-365q0 -38 -10 -70t-29.5 -55
t-48.5 -36.5t-66 -13.5v29z" />
    <glyph glyph-name="afii10100" unicode="&#x453;" horiz-adv-x="358" 
d="M115 493v-493h-29v522h256v-29h-227zM144 616l-13 20l155 113l22 -30z" />
    <glyph glyph-name="afii10101" unicode="&#x454;" horiz-adv-x="522" 
d="M402 276v-29h-319q4 -97 68 -164q63 -65 158 -65q88 0 165 39v-33q-75 -35 -167 -35q-108 0 -181 78q-73 77 -73 195t73 195q73 78 181 78q92 0 167 -35v-33q-77 39 -165 39q-95 0 -158 -66q-64 -65 -68 -164h319z" />
    <glyph glyph-name="afii10102" unicode="&#x455;" horiz-adv-x="427" 
d="M96 408q0 -32 27.5 -60.5t66.5 -50.5l58.5 -32.5t56 -38t41.5 -45t16 -55.5q0 -60 -46 -99q-46 -38 -113 -38q-70 0 -133 26v34q55 -31 130 -31q28 0 52 7t42 20.5t28 33t10 44.5q0 33 -27.5 62t-66.5 51l-58.5 33t-55.5 37t-41.5 44t-16.5 54q0 28 11.5 52.5t31.5 41.5
t48.5 27t61.5 10q71 0 127 -31v-34q-62 36 -127 36q-44 0 -84 -27q-39 -27 -39 -71z" />
    <glyph glyph-name="afii10103" unicode="&#x456;" horiz-adv-x="202" 
d="M115 0h-29v522h29v-522zM79 629q-11 10 -9 23t10 21.5t20 10t23 -10.5q12 -11 10.5 -23t-10 -20t-21.5 -10t-23 9z" />
    <glyph glyph-name="afii10104" unicode="&#x457;" horiz-adv-x="202" 
d="M-5 663q-9 9 -9 22t9 21q8 9 21 9t21 -9q9 -8 9 -21t-9 -22q-8 -8 -21 -8t-21 8zM164 663q-8 9 -8 22t8 21q9 9 22 9t21 -9q9 -8 9 -21t-9 -22q-8 -8 -21 -8t-22 8zM115 0h-29v522h29v-522z" />
    <glyph glyph-name="afii10105" unicode="&#x458;" horiz-adv-x="213" 
d="M-57 -195q5 -1 11.5 -1h16.5q59 0 92 42q33 40 33 99v577h29v-572q0 -38 -10.5 -70t-30 -55t-49 -36.5t-66.5 -13.5q-16 0 -26 2v28zM89 629q-11 10 -9 23t10 21.5t20 10t23 -10.5q12 -11 10.5 -23t-10 -20t-21.5 -10t-23 9z" />
    <glyph glyph-name="afii10106" unicode="&#x459;" horiz-adv-x="742" 
d="M544 290q67 0 114 -39q46 -39 46 -106q0 -33 -12 -60t-33.5 -46t-51 -29t-63.5 -10h-151v493h-249v-355q0 -63 -35.5 -101t-92.5 -40v28q43 2 71 31.5t28 80.5v385h307v-232h122zM542 29q58 0 95 29.5t37 86.5t-37 86.5t-95 29.5h-120v-232h120z" />
    <glyph glyph-name="afii10107" unicode="&#x45a;" horiz-adv-x="767" 
d="M569 290q67 0 114 -39q46 -39 46 -106t-46 -106q-47 -39 -114 -39h-151v261h-303v-261h-29v522h29v-232h303v232h29v-232h122zM567 29q58 0 95 29.5t37 86.5t-37 86.5t-95 29.5h-120v-232h120z" />
    <glyph glyph-name="afii10108" unicode="&#x45b;" horiz-adv-x="609" 
d="M88 764h29v-90h201v-29h-201v-223q15 22 36.5 42.5t47.5 36.5t55.5 25t61.5 9q91 0 147 -62t56 -158v-315h-29v312q0 47 -13 83t-37 61t-56.5 37.5t-71.5 12.5q-78 0 -133 -51q-57 -52 -64 -97v-358h-29v645h-77v29h77v90z" />
    <glyph glyph-name="afii10109" unicode="&#x45c;" horiz-adv-x="470" 
d="M174 276l223 246h37l-226 -253q56 -13 91.5 -29.5t59.5 -49.5l15.5 -20.5t12 -18t10 -21l10.5 -27.5l15 -49l14 -54h-30q-15 59 -30 97q-14 37 -42 75q-53 76 -179 76h-40v-248h-29v522h29v-246h59zM165 616l-13 20l155 113l22 -30z" />
    <glyph glyph-name="uni045D" unicode="&#x45d;" horiz-adv-x="564" 
d="M86 0v522h29v-392l-2 -69h4q10 19 36 54l299 407h26v-522h-29v397v17t1 24t1 23v11h-4l-46 -64l-296 -408h-19zM372 636l-13 -20l-164 104l22 29z" />
    <glyph glyph-name="afii10110" unicode="&#x45e;" horiz-adv-x="539" 
d="M478 522h33l-348 -738h-32l121 258l-224 480h32l162 -345l29 -64.5t15 -37.5h5q10 29 45 101zM407 722q-21 -46 -58.5 -67.5t-79.5 -21.5q-100 0 -139 88l24 9q28 -70 114 -70q84 0 114 70z" />
    <glyph glyph-name="afii10193" unicode="&#x45f;" horiz-adv-x="531" 
d="M251 -169v169h-165v522h29v-493h301v493h29v-522h-164v-169h-30z" />
    <glyph glyph-name="afii10050" unicode="&#x490;" horiz-adv-x="422" 
d="M126 683v-683h-29v712h269v176h29v-205h-269z" />
    <glyph glyph-name="afii10098" unicode="&#x491;" horiz-adv-x="357" 
d="M341 643v-150h-226v-493h-29v522h226v121h29z" />
    <glyph glyph-name="afii10846" unicode="&#x4d9;" 
d="M86 223q0 -97 54 -151t133 -54q73 0 135 57q61 58 70 148h-392zM480 252q0 107 -64 180q-63 74 -162 74q-89 0 -165 -39v33q75 35 167 35q107 0 181 -81q73 -80 73 -198q0 -105 -68 -187q-68 -80 -170 -80q-96 0 -156 63q-60 64 -60 177q0 7 0.5 12.5t1.5 10.5h422z" />
    <glyph glyph-name="Wgrave" unicode="&#x1e80;" horiz-adv-x="886" 
d="M44 712h29l93 -528q3 -16 6.5 -36.5l7.5 -45.5l9 -58h4q1 4 6.5 19.5l13 35.5l15.5 41.5l15 39.5l194 481h12l194 -481l13.5 -34.5t15.5 -44.5q16 -48 21 -57h4l9 58l7.5 45.5t6.5 36.5l93 528h29l-125 -712h-33l-205 509l-20.5 52.5t-13.5 37.5h-4q-5 -15 -13.5 -37.5
l-20.5 -52.5l-205 -509h-33zM533 825l-13 -20l-164 104l22 29z" />
    <glyph glyph-name="wgrave" unicode="&#x1e81;" horiz-adv-x="794" 
d="M734 522h30l-140 -522h-24l-176 372q-6 11 -12 26l-13 34h-4q-7 -23 -24 -59l-177 -373h-24l-140 522h30l95 -349q8 -30 15 -60l14 -60h4q8 25 54 119l149 314h11l149 -314l54 -119h5l14 60t15 60zM487 636l-13 -20l-164 104l22 29z" />
    <glyph glyph-name="Wacute" unicode="&#x1e82;" horiz-adv-x="886" 
d="M44 712h29l93 -528q3 -16 6.5 -36.5l7.5 -45.5l9 -58h4q1 4 6.5 19.5l13 35.5l15.5 41.5l15 39.5l194 481h12l194 -481l13.5 -34.5t15.5 -44.5q16 -48 21 -57h4l9 58l7.5 45.5t6.5 36.5l93 528h29l-125 -712h-33l-205 509l-20.5 52.5t-13.5 37.5h-4q-5 -15 -13.5 -37.5
l-20.5 -52.5l-205 -509h-33zM370 805l-13 20l155 113l22 -30z" />
    <glyph glyph-name="wacute" unicode="&#x1e83;" horiz-adv-x="794" 
d="M734 522h30l-140 -522h-24l-176 372q-6 11 -12 26l-13 34h-4q-7 -23 -24 -59l-177 -373h-24l-140 522h30l95 -349q8 -30 15 -60l14 -60h4q8 25 54 119l149 314h11l149 -314l54 -119h5l14 60t15 60zM322 616l-13 20l155 113l22 -30z" />
    <glyph glyph-name="Wdieresis" unicode="&#x1e84;" horiz-adv-x="886" 
d="M44 712h29l93 -528q3 -16 6.5 -36.5l7.5 -45.5l9 -58h4q1 4 6.5 19.5l13 35.5l15.5 41.5l15 39.5l194 481h12l194 -481l13.5 -34.5t15.5 -44.5q16 -48 21 -57h4l9 58l7.5 45.5t6.5 36.5l93 528h29l-125 -712h-33l-205 509l-20.5 52.5t-13.5 37.5h-4q-5 -15 -13.5 -37.5
l-20.5 -52.5l-205 -509h-33zM343 852q-8 9 -8 22t8 21q9 9 22 9t21 -9q9 -8 9 -21t-9 -22q-8 -8 -21 -8t-22 8zM513 852q-8 9 -8 22t8 21q9 9 22 9t21 -9q9 -8 9 -21t-9 -22q-8 -8 -21 -8t-22 8z" />
    <glyph glyph-name="wdieresis" unicode="&#x1e85;" horiz-adv-x="794" 
d="M734 522h30l-140 -522h-24l-176 372q-6 11 -12 26l-13 34h-4q-7 -23 -24 -59l-177 -373h-24l-140 522h30l95 -349q8 -30 15 -60l14 -60h4q8 25 54 119l149 314h11l149 -314l54 -119h5l14 60t15 60zM290 663q-8 9 -8 22t8 21q9 9 22 9t21 -9q9 -8 9 -21t-9 -22
q-8 -8 -21 -8t-22 8zM460 663q-8 9 -8 22t8 21q9 9 22 9t21 -9q9 -8 9 -21t-9 -22q-8 -8 -21 -8t-22 8z" />
    <glyph glyph-name="Ygrave" unicode="&#x1ef2;" horiz-adv-x="560" 
d="M27 712h33l163 -283l33.5 -58.5t21.5 -40.5h4q9 19 22.5 43l31.5 55l163 284h34l-239 -415v-297h-29v297zM362 825l-13 -20l-164 104l22 29z" />
    <glyph glyph-name="ygrave" unicode="&#x1ef3;" horiz-adv-x="542" 
d="M480 522h33l-348 -738h-32l121 258l-224 480h32l162 -345l29 -64.5t15 -37.5h5q10 29 45 101zM359 636l-13 -20l-164 104l22 29z" />
    <glyph glyph-name="endash" unicode="&#x2013;" horiz-adv-x="519" 
d="M39 322h440v-29h-440v29z" />
    <glyph glyph-name="emdash" unicode="&#x2014;" horiz-adv-x="1018" 
d="M39 322h939v-29h-939v29z" />
    <glyph glyph-name="quoteleft" unicode="&#x2018;" horiz-adv-x="204" 
d="M159 768q-55 -142 -67 -258l-45 -11q42 173 94 276z" />
    <glyph glyph-name="quoteright" unicode="&#x2019;" horiz-adv-x="204" 
d="M45 506q55 142 67 258l45 11q-42 -173 -94 -276z" />
    <glyph glyph-name="quotesinglbase" unicode="&#x201a;" horiz-adv-x="204" 
d="M45 -194q55 142 67 258l45 11q-42 -173 -94 -276z" />
    <glyph glyph-name="quotedblleft" unicode="&#x201c;" horiz-adv-x="373" 
d="M159 768q-55 -142 -67 -258l-45 -11q42 173 94 276zM328 768q-55 -142 -67 -258l-45 -11q42 173 94 276z" />
    <glyph glyph-name="quotedblright" unicode="&#x201d;" horiz-adv-x="373" 
d="M45 506q55 142 67 258l45 11q-42 -173 -94 -276zM214 506q55 142 67 258l45 11q-42 -173 -94 -276z" />
    <glyph glyph-name="quotedblbase" unicode="&#x201e;" horiz-adv-x="373" 
d="M45 -194q55 142 67 258l45 11q-42 -173 -94 -276zM214 -194q55 142 67 258l45 11q-42 -173 -94 -276z" />
    <glyph glyph-name="dagger" unicode="&#x2020;" horiz-adv-x="534" 
d="M252 752h29v-226h182v-29h-182v-590h-29v590h-181v29h181v226z" />
    <glyph glyph-name="daggerdbl" unicode="&#x2021;" horiz-adv-x="534" 
d="M252 752h29v-226h182v-29h-182v-255h182v-29h-182v-306h-29v306h-181v29h181v255h-181v29h181v226z" />
    <glyph glyph-name="bullet" unicode="&#x2022;" horiz-adv-x="475" 
d="M238 491q52 0 89 -37t37 -90q0 -54 -37 -91t-89 -37q-53 0 -90 37t-37 91q0 52 37 89q38 38 90 38z" />
    <glyph glyph-name="ellipsis" unicode="&#x2026;" horiz-adv-x="898" 
d="M92 52q12 12 26 10.5t23 -11t10.5 -23t-10.5 -24.5q-11 -12 -24.5 -10.5t-23 11t-11.5 23t10 24.5zM419 52q12 12 26 10.5t23 -11t10.5 -23t-10.5 -24.5q-11 -12 -24.5 -10.5t-23 11t-11.5 23t10 24.5zM744 52q12 12 26 10.5t23 -11t10.5 -23t-10.5 -24.5
q-11 -12 -24.5 -10.5t-23 11t-11.5 23t10 24.5z" />
    <glyph glyph-name="perthousand" unicode="&#x2030;" horiz-adv-x="1159" 
d="M179 724q147 0 147 -184t-147 -184q-148 0 -148 184t148 184zM179 385q117 0 117 155t-117 155q-118 0 -118 -155t118 -155zM592 715l-373 -727l-26 13l374 727zM623 361q147 0 147 -184t-147 -184q-148 0 -148 184t148 184zM623 22q117 0 117 155t-117 155
q-118 0 -118 -155t118 -155zM981 361q147 0 147 -184t-147 -184q-148 0 -148 184t148 184zM981 22q117 0 117 155t-117 155q-118 0 -118 -155t118 -155z" />
    <glyph glyph-name="guilsinglleft" unicode="&#x2039;" horiz-adv-x="280" 
d="M223 453l-130 -192l130 -191h-34l-132 191l132 192h34z" />
    <glyph glyph-name="guilsinglright" unicode="&#x203a;" horiz-adv-x="280" 
d="M187 261l-130 192h34l132 -192l-132 -191h-34z" />
    <glyph glyph-name="fraction" unicode="&#x2044;" horiz-adv-x="178" 
d="M289 715l-373 -727l-26 13l374 727z" />
    <glyph glyph-name="zerosuperior" unicode="&#x2070;" horiz-adv-x="303" 
d="M151 899q119 0 119 -166v-35q0 -167 -119 -167q-118 0 -118 167v35q0 166 118 166zM151 560q44 0 66.5 31.5t22.5 108.5v31q0 77 -22.5 108t-66.5 31q-43 0 -65.5 -31t-22.5 -108v-31q0 -78 22.5 -109t65.5 -31z" />
    <glyph glyph-name="foursuperior" unicode="&#x2074;" horiz-adv-x="292" 
d="M229 537h-29v74h-182v26l193 256h18v-253h42v-29h-42v-74zM200 640v125q0 20 0.5 37.5t1.5 33.5l-4 1q-6 -10 -16.5 -25.5t-26.5 -36.5l-101 -135h146z" />
    <glyph glyph-name="fivesuperior" unicode="&#x2075;" horiz-adv-x="292" 
d="M248 652q0 -49 -36 -85t-86 -36q-43 0 -80 27v35q34 -33 80 -33q38 0 65 26t27 64q0 39 -24 65t-62 26q-37 0 -74 -21l-12 7l24 166h162v-29h-138l-16 -104q27 10 54 10q47 0 82 -35q34 -34 34 -83z" />
    <glyph glyph-name="sixsuperior" unicode="&#x2076;" horiz-adv-x="301" 
d="M179 893h32l-100 -138q21 8 44 8q47 0 81 -34q34 -33 34 -80q0 -49 -34 -83q-35 -35 -86 -35t-85 34t-34 83q0 40 41 98zM150 560q38 0 64 24.5t26 61.5q0 39 -25 63.5t-62 24.5q-18 0 -35 -6.5t-29.5 -18t-20 -27.5t-7.5 -35q0 -35 24.5 -61t64.5 -26z" />
    <glyph glyph-name="sevensuperior" unicode="&#x2077;" horiz-adv-x="281" 
d="M223 864h-188v29h229v-11l-187 -345h-31z" />
    <glyph glyph-name="eightsuperior" unicode="&#x2078;" horiz-adv-x="305" 
d="M194 729q35 -12 52.5 -38.5t17.5 -54.5q0 -45 -32 -75t-80 -30t-79.5 30t-31.5 75q0 28 17.5 54.5t52.5 38.5q-28 13 -42 35.5t-14 41.5q0 40 28.5 66.5t68.5 26.5q42 0 70 -26.5t28 -66.5q0 -19 -14 -41.5t-42 -35.5zM85 807q0 -25 20 -45t47 -20t47.5 20t20.5 45
q0 28 -19.5 46t-48.5 18t-48 -18.5t-19 -45.5zM153 560q31 0 56 21t25 55q0 35 -25 56t-57 21t-56.5 -21t-24.5 -56q0 -32 24.5 -54t57.5 -22z" />
    <glyph glyph-name="ninesuperior" unicode="&#x2079;" horiz-adv-x="301" 
d="M122 537h-32l99 138q-18 -8 -43 -8q-48 0 -82 33q-33 34 -33 81q0 24 9 45.5t24.5 37.5t37.5 25.5t48 9.5q25 0 47 -9.5t38.5 -25t25.5 -37t9 -45.5q0 -38 -42 -98zM150 870q-38 0 -63.5 -24.5t-25.5 -61.5q0 -39 24.5 -63.5t62.5 -24.5q18 0 35 6.5t29.5 18t20 27.5
t7.5 35q0 18 -6.5 33.5t-18.5 27.5t-28.5 19t-36.5 7z" />
    <glyph glyph-name="parenleftsuperior" unicode="&#x207d;" horiz-adv-x="214" 
d="M183 938l-18 -31l-15 -27q-6 -12 -12.5 -30t-11.5 -39.5t-8.5 -46t-3.5 -48.5q0 -49 12 -95q12 -45 24 -69q6 -12 14 -26.5t19 -31.5h-29q-23 39 -33 60q-5 11 -10.5 27.5t-12.5 39.5q-13 45 -13 95q0 48 12 95q13 45 24 67q10 22 33 60h29z" />
    <glyph glyph-name="parenrightsuperior" unicode="&#x207e;" horiz-adv-x="214" 
d="M78 938q22 -38 33 -60q5 -11 11 -27.5t12 -39.5q13 -45 13 -95t-13 -95t-24 -67q-5 -11 -13 -25.5l-19 -34.5h-29q11 17 19 31.5t14 26.5t12.5 30t11.5 39.5t8.5 46t3.5 48.5q0 49 -12 94q-12 47 -25 70q-6 13 -14 27l-18 31h29z" />
    <glyph glyph-name="zeroinferior" unicode="&#x2080;" horiz-adv-x="303" 
d="M151 174q119 0 119 -166v-35q0 -167 -119 -167q-118 0 -118 167v35q0 166 118 166zM151 -165q44 0 66.5 31.5t22.5 108.5v31q0 77 -22.5 108t-66.5 31q-43 0 -65.5 -31t-22.5 -108v-31q0 -78 22.5 -109t65.5 -31z" />
    <glyph glyph-name="oneinferior" unicode="&#x2081;" horiz-adv-x="255" 
d="M146 168h22v-356h-29v315l-102 -86v35z" />
    <glyph glyph-name="twoinferior" unicode="&#x2082;" horiz-adv-x="297" 
d="M255 -159v-29h-216v16l161 178q25 28 25 57q0 35 -24 58.5t-58 23.5q-55 0 -89 -49v40q36 38 88 38q44 0 79 -32q34 -31 34 -77q0 -40 -33 -76l-136 -148h169z" />
    <glyph glyph-name="threeinferior" unicode="&#x2083;" horiz-adv-x="280" 
d="M88 -10v24h33q35 0 55.5 18.5t20.5 45.5q0 29 -20.5 48t-51.5 19q-43 0 -78 -26v35q38 20 78 20q45 0 73.5 -27t28.5 -69q0 -51 -48 -75q28 -12 44 -36t16 -52q0 -23 -9 -42.5t-24.5 -34.5t-36.5 -23.5t-45 -8.5q-43 0 -80 17v34q34 -22 80 -22q36 0 60.5 22.5t24.5 57.5
q0 31 -24.5 53t-63.5 22h-33z" />
    <glyph glyph-name="fourinferior" unicode="&#x2084;" horiz-adv-x="292" 
d="M229 -188h-29v74h-182v26l193 256h18v-253h42v-29h-42v-74zM200 -85v125q0 20 0.5 37.5t1.5 33.5l-4 1q-6 -10 -16.5 -25.5t-26.5 -36.5l-101 -135h146z" />
    <glyph glyph-name="fiveinferior" unicode="&#x2085;" horiz-adv-x="292" 
d="M248 -73q0 -49 -36 -85t-86 -36q-43 0 -80 27v35q34 -33 80 -33q38 0 65 26t27 64q0 39 -24 65t-62 26q-37 0 -74 -21l-12 7l24 166h162v-29h-138l-16 -104q27 10 54 10q47 0 82 -35q34 -34 34 -83z" />
    <glyph glyph-name="sixinferior" unicode="&#x2086;" horiz-adv-x="301" 
d="M179 168h32l-100 -138q21 8 44 8q47 0 81 -34q34 -33 34 -80q0 -49 -34 -83q-35 -35 -86 -35q-50 0 -85 35q-34 34 -34 82q0 40 41 98zM150 -165q38 0 64 24.5t26 61.5q0 39 -25 63.5t-62 24.5q-18 0 -35 -6.5t-29.5 -18t-20 -27.5t-7.5 -35q0 -35 24.5 -61t64.5 -26z
" />
    <glyph glyph-name="seveninferior" unicode="&#x2087;" horiz-adv-x="281" 
d="M223 139h-188v29h229v-11l-187 -345h-31z" />
    <glyph glyph-name="eightinferior" unicode="&#x2088;" horiz-adv-x="305" 
d="M194 4q35 -12 52.5 -38.5t17.5 -54.5q0 -45 -32 -75t-80 -30t-79.5 30t-31.5 75q0 28 17.5 54.5t52.5 38.5q-28 13 -42 35.5t-14 41.5q0 40 28.5 66.5t68.5 26.5q42 0 70 -26.5t28 -66.5q0 -19 -14 -41.5t-42 -35.5zM85 82q0 -25 20 -45t47 -20t47.5 20t20.5 45
q0 28 -19.5 46t-48.5 18t-48 -18.5t-19 -45.5zM153 -165q31 0 56 21t25 55q0 35 -25 56t-57 21t-56.5 -21t-24.5 -56q0 -32 24.5 -54t57.5 -22z" />
    <glyph glyph-name="nineinferior" unicode="&#x2089;" horiz-adv-x="301" 
d="M122 -188h-32l99 138q-18 -8 -43 -8q-48 0 -82 34q-33 33 -33 80q0 24 9 45.5t24.5 37.5t37.5 25.5t48 9.5q25 0 47 -9.5t38.5 -25t25.5 -37t9 -45.5q0 -38 -42 -98zM150 145q-38 0 -63.5 -24.5t-25.5 -61.5q0 -39 24.5 -63.5t62.5 -24.5q18 0 35 6.5t29.5 18t20 27.5
t7.5 35q0 18 -6.5 33.5t-18.5 27.5t-28.5 19t-36.5 7z" />
    <glyph glyph-name="parenleftinferior" unicode="&#x208d;" horiz-adv-x="214" 
d="M174 213l-18 -31l-15 -27q-6 -12 -12.5 -30t-11.5 -39.5t-8.5 -46t-3.5 -48.5q0 -49 12 -94t24 -70q6 -12 14 -26.5t19 -31.5h-29q-23 39 -33 60q-5 11 -10.5 28l-12.5 40q-13 45 -13 94q0 48 12 95q13 45 24 67q10 22 33 60h29z" />
    <glyph glyph-name="parenrightinferior" unicode="&#x208e;" horiz-adv-x="214" 
d="M73 213q22 -38 33 -60q5 -11 11 -27.5t12 -39.5q13 -45 13 -95q0 -49 -13 -94q-14 -48 -24 -68q-5 -11 -13 -25.5l-19 -34.5h-29q11 17 19 31.5t14 26.5t12.5 30t11.5 39.5t8.5 46t3.5 48.5q0 49 -12 94q-12 47 -25 70q-6 13 -14 27l-18 31h29z" />
    <glyph glyph-name="Euro" unicode="&#x20ac;" horiz-adv-x="656" 
d="M414 695q-118 0 -203 -69q-86 -69 -114 -178h404v-29h-410q-2 -17 -3.5 -33t-1.5 -30q0 -18 1.5 -33t3.5 -28h410v-29h-404q28 -109 113 -179q85 -69 204 -69q90 0 168 48v-35q-81 -42 -168 -42q-129 0 -224 76t-124 201h-68v29h62q-4 23 -4 61q0 17 1 33t3 30h-62v29h68
q28 121 124 199q97 77 224 77q87 0 168 -42v-34q-77 47 -168 47z" />
    <glyph glyph-name="trademark" unicode="&#x2122;" horiz-adv-x="865" 
d="M816 712v-397h-29v363l-162 -363h-24l-160 363v-363h-29v397h47l155 -350l155 350h47zM313 712v-29h-123v-368h-28v368h-125v29h276z" />
    <glyph glyph-name="uni2126" unicode="&#x2126;" horiz-adv-x="793" 
d="M512 27h11.5t20.5 1t23 1h18h156v-29h-257v47q101 53 164 137q63 85 63 186q0 141 -86 233t-229 92q-144 0 -230 -92q-85 -91 -85 -233q0 -101 63 -186q63 -84 164 -137v-47h-257v29h156h17.5t22.5 -1t21 -1h12v5q-17 9 -32 18t-28 19q-81 63 -125 140t-44 161
q0 156 97 254q97 100 248 100q150 0 247 -100q98 -100 98 -254q0 -84 -44 -161t-126 -140l-28.5 -19.5t-30.5 -17.5v-5z" />
    <glyph glyph-name="estimated" unicode="&#x212e;" horiz-adv-x="760" 
d="M649 130q-51 -67 -123 -104t-151 -37q-133 0 -234 98q-100 99 -100 237q0 142 100 238q100 97 234 97q136 0 235 -99q99 -98 99 -236v-18h-542v-195q89 -86 208 -86q130 0 216 105h58zM167 343h417v194q-89 86 -209 86q-124 0 -208 -86v-194z" />
    <glyph glyph-name="arrowleft" unicode="&#x2190;" horiz-adv-x="826" 
d="M113 370h656v-29h-656l341 -341h-41l-356 356l356 356h41z" />
    <glyph glyph-name="arrowup" unicode="&#x2191;" horiz-adv-x="826" 
d="M427 656v-656h-29v656l-341 -341v41l356 356l356 -356v-41z" />
    <glyph glyph-name="arrowright" unicode="&#x2192;" horiz-adv-x="826" 
d="M713 342h-656v29h656l-341 341h41l356 -356l-356 -356h-41z" />
    <glyph glyph-name="arrowdown" unicode="&#x2193;" horiz-adv-x="826" 
d="M399 56v656h29v-656l341 341v-41l-356 -356l-356 356v41z" />
    <glyph glyph-name="partialdiff" unicode="&#x2202;" horiz-adv-x="603" 
d="M528 443q5 -23 7.5 -48.5t2.5 -52.5q1 -23 -2 -49t-9 -57q-23 -105 -104 -176q-82 -71 -182 -71q-88 0 -143 55t-55 138q0 123 90 213t203 90q55 0 100 -23t69 -63q-18 132 -99 210t-211 78q-38 0 -74 -6v29q39 6 74 6q64 0 118.5 -18.5t97.5 -53.5t72.5 -86t44.5 -115z
M242 18q101 0 180 79q81 79 81 190q0 75 -47 122q-47 48 -121 48q-98 0 -180 -81t-82 -191q0 -75 46 -121t123 -46z" />
    <glyph glyph-name="uni2206" unicode="&#x2206;" horiz-adv-x="692" 
d="M56 0v25l281 687h17l282 -688v-24h-580zM344 661q-5 -15 -17 -47l-32 -82l-205 -503h511l-205 503q-21 52 -48 129h-4z" />
    <glyph glyph-name="product" unicode="&#x220f;" horiz-adv-x="657" 
d="M628 712v-29h-87v-899h-29v899h-369v-899h-29v899h-86v29h600z" />
    <glyph glyph-name="summation" unicode="&#x2211;" horiz-adv-x="610" 
d="M583 712v-29h-523l279 -434l-279 -436h523v-29h-556v31l278 434l-278 432v31h556z" />
    <glyph glyph-name="minus" unicode="&#x2212;" 
d="M41 227v30h483v-30h-483z" />
    <glyph glyph-name="radical" unicode="&#x221a;" horiz-adv-x="496" 
d="M434 764h30l-216 -764h-38l-87 291h-91v29h113l84 -281z" />
    <glyph glyph-name="infinity" unicode="&#x221e;" horiz-adv-x="746" 
d="M667 430q43 -46 43 -117q0 -72 -46 -119q-45 -47 -111 -47q-77 0 -180 141q-104 -141 -180 -141q-67 0 -113 48q-45 48 -45 118q0 71 46 118q46 49 112 49q75 0 180 -142q103 142 180 142q67 0 114 -50zM193 176q40 0 83 43q44 44 79 94q-95 138 -162 138q-54 0 -92 -41
q-36 -41 -36 -97q0 -57 36 -97q37 -40 92 -40zM553 176q55 0 91 40t36 97q0 29 -9.5 54t-26.5 44t-40.5 29.5t-50.5 10.5q-66 0 -163 -138q98 -137 163 -137z" />
    <glyph glyph-name="integral" unicode="&#x222b;" horiz-adv-x="375" 
d="M32 -195q5 -1 26 -1q55 0 85 35.5t30 92.5v633q0 69 38 114t108 45q14 0 24 -2v-28q-5 1 -26 1q-55 0 -85 -35.5t-30 -92.5v-633q0 -69 -38 -114t-108 -45q-14 0 -24 2v28z" />
    <glyph glyph-name="therefore" unicode="&#x2234;" 
d="M64 52q12 12 26 10.5t23 -11t10.5 -23t-10.5 -24.5q-11 -12 -24.5 -10.5t-23 11t-11.5 23t10 24.5zM451 52q12 12 26 10.5t23 -11t10.5 -23t-10.5 -24.5q-11 -12 -24.5 -10.5t-23 11t-11.5 23t10 24.5zM252 420q12 12 26 10.5t23 -11t10.5 -23t-10.5 -24.5
q-11 -12 -24.5 -10.5t-23 11t-11.5 23t10 24.5z" />
    <glyph glyph-name="approxequal" unicode="&#x2248;" 
d="M59 341q40 69 104 69q29 0 59.5 -14t51.5 -31q22 -16 50 -30t53 -14q51 0 104 72l24 -17q-62 -84 -128 -84q-43 0 -111 44q-68 45 -103 45q-46 0 -80 -55zM59 123q40 69 104 69q29 0 59.5 -14t51.5 -31q22 -16 50 -30t53 -14q51 0 104 72l24 -17q-62 -84 -128 -84
q-43 0 -111 44q-68 45 -103 45q-46 0 -80 -55z" />
    <glyph glyph-name="notequal" unicode="&#x2260;" 
d="M41 331v30h281l72 140l27 -14l-66 -126h169v-30h-184l-93 -179h277v-30h-292l-72 -139l-26 14l64 125h-157v30h173l92 179h-265z" />
    <glyph glyph-name="lessequal" unicode="&#x2264;" 
d="M524 589v-34l-458 -198l458 -202v-32l-485 209v49zM43 0v30h483v-30h-483z" />
    <glyph glyph-name="greaterequal" unicode="&#x2265;" 
d="M41 555v34l485 -208v-49l-485 -209v32l458 202zM522 30v-30h-483v30h483z" />
    <glyph glyph-name="triagup" unicode="&#x25b2;" horiz-adv-x="826" 
d="M769 55h-712l356 617z" />
    <glyph glyph-name="triagrt" unicode="&#x25ba;" horiz-adv-x="826" 
d="M104 0v712l617 -356z" />
    <glyph glyph-name="triagdn" unicode="&#x25bc;" horiz-adv-x="826" 
d="M57 651h712l-356 -617z" />
    <glyph glyph-name="triaglf" unicode="&#x25c4;" horiz-adv-x="826" 
d="M721 709v-712l-617 356z" />
    <glyph glyph-name="lozenge" unicode="&#x25ca;" horiz-adv-x="536" 
d="M284 -128h-32l-220 425l220 427h32l220 -427zM268 691l-203 -394l203 -392l203 392z" />
    <glyph glyph-name="slash.small" unicode="&#xe00c;" horiz-adv-x="310" 
d="M290 588l-244 -671l-11.5 4.5t-15.5 5.5l244 671z" />
    <glyph glyph-name="backslash.small" unicode="&#xe00d;" horiz-adv-x="310" 
d="M263 -83l-244 671l14 5.5t13 4.5l244 -671z" />
    <glyph glyph-name="bar.small" unicode="&#xe00e;" horiz-adv-x="210" 
d="M116 581v-620h-30v620h30z" />
    <glyph glyph-name="zero.small" unicode="&#xe019;" horiz-adv-x="466" 
d="M230 543q176 0 176 -252v-47q0 -68 -12 -116t-34.5 -78t-55 -44t-74.5 -14t-74.5 14t-55 44t-34 78t-11.5 116v47q0 252 175 252zM230 19q70 0 108 53t38 175v41q0 123 -37.5 175t-108.5 52q-70 0 -107.5 -52t-37.5 -175v-41q0 -228 145 -228z" />
    <glyph glyph-name="one.small" unicode="&#xe01a;" horiz-adv-x="318" 
d="M200 534h24v-533h-29v489l-160 -134v39z" />
    <glyph glyph-name="two.small" unicode="&#xe01b;" horiz-adv-x="416" 
d="M359 28v-28h-319v19l248 268q40 43 40 91q0 56 -40 96q-41 41 -95 41q-75 0 -130 -67v40q52 55 130 55q66 0 116 -48q49 -46 49 -115q0 -61 -48 -113l-222 -239h271z" />
    <glyph glyph-name="three.small" unicode="&#xe01c;" horiz-adv-x="383" 
d="M106 274v24h56q27 0 49 8t38 22.5t24.5 33.5t8.5 40q0 48 -35 80q-35 33 -85 33q-62 0 -114 -33v34q52 27 114 27q65 0 108 -40t43 -101q0 -36 -21 -67t-60 -48q48 -17 73.5 -54t25.5 -80q0 -68 -50 -115q-49 -46 -121 -46q-66 0 -117 25v32q58 -30 117 -30q58 0 99 39
q42 39 42 95q0 49 -39 85t-100 36h-56z" />
    <glyph glyph-name="four.small" unicode="&#xe01d;" horiz-adv-x="430" 
d="M334 1h-29v116h-280v27l294 390h15v-389h66v-28h-66v-116zM305 145v211v72.5t1 39.5l-4 1q-5 -8 -69 -94l-173 -230h245z" />
    <glyph glyph-name="five.small" unicode="&#xe01e;" horiz-adv-x="422" 
d="M366 171q0 -75 -54 -127q-52 -52 -128 -52q-64 0 -117 38v35q54 -45 117 -45q62 0 106 43q45 43 45 105q0 64 -40 107t-102 43q-54 0 -112 -32l-14 7l34 241h240v-29h-215l-25 -177q52 18 92 18q73 0 123 -51q50 -52 50 -124z" />
    <glyph glyph-name="six.small" unicode="&#xe01f;" horiz-adv-x="437" 
d="M261 534h36l-158 -217q36 21 83 21q72 0 122 -50t50 -120q0 -71 -50 -124q-49 -52 -127 -52q-74 0 -126 51q-51 51 -51 123q0 64 62 150zM217 19q61 0 103 42q43 43 43 103q0 61 -41 104q-41 42 -101 42t-105 -42q-45 -41 -45 -102q0 -55 41 -102q40 -45 105 -45z" />
    <glyph glyph-name="seven.small" unicode="&#xe020;" horiz-adv-x="393" 
d="M334 505h-297v29h340v-11l-283 -523h-35z" />
    <glyph glyph-name="eight.small" unicode="&#xe021;" horiz-adv-x="439" 
d="M272 289q53 -13 82 -56q28 -41 28 -85q0 -66 -48 -111t-117 -45t-117 45q-47 45 -47 111q0 44 28 85q29 43 82 56q-46 17 -67.5 51t-21.5 66q0 59 42 98t101 39q60 0 102 -39t42 -98q0 -32 -21.5 -66t-67.5 -51zM105 408q0 -40 34 -73q35 -32 78 -32q44 0 79 32
q34 33 34 73q0 22 -8.5 41.5t-24 34t-36 23t-44.5 8.5t-44.5 -8.5t-35.5 -23t-23.5 -34t-8.5 -41.5zM218 20q53 0 93 37t40 91q0 55 -41 90t-93 35q-51 0 -92 -35t-41 -90q0 -53 39 -90q39 -36 95 -38z" />
    <glyph glyph-name="nine.small" unicode="&#xe022;" horiz-adv-x="438" 
d="M174 0h-36l157 217q-36 -21 -83 -21q-72 0 -122 50t-50 121q0 70 50 123q51 53 127 53q75 0 126 -52q52 -51 52 -123q0 -63 -62 -149zM217 515q-61 0 -104 -43q-42 -42 -42 -102q0 -61 41 -104q41 -41 102 -41q58 0 104 41q46 42 46 103q0 56 -42 101q-41 45 -105 45z
" />
    <glyph glyph-name="dollar.small" unicode="&#xe023;" horiz-adv-x="403" 
d="M200 298q31 -14 51 -25.5t42 -29.5q45 -35 45 -96q0 -30 -10 -57t-28.5 -47t-44 -33.5t-55.5 -16.5v-45h-27v44q-71 5 -125 45v40q51 -52 125 -56v254q-20 10 -36.5 17.5t-27.5 14.5q-22 14 -42.5 41.5t-20.5 62.5q0 27 9.5 50t27 40t40.5 27.5t50 13.5v44h27v-43
q62 -3 111 -37v-37q-47 42 -111 45v-216zM173 513q-42 -5 -69.5 -32t-27.5 -69q0 -35 24.5 -57.5t72.5 -44.5v203zM200 22q48 7 78 41t30 82q0 43 -27 68t-81 50v-241z" />
    <glyph glyph-name="percent.small" unicode="&#xe024;" horiz-adv-x="610" 
d="M138 541q108 0 108 -136t-108 -136q-109 0 -109 136t109 136zM138 298q78 0 78 107t-78 107q-79 0 -79 -107t79 -107zM470 268q109 0 109 -135q0 -136 -109 -136q-107 0 -107 136q0 135 107 135zM470 26q79 0 79 107q0 106 -79 106q-77 0 -77 -106q0 -107 77 -107z
M424 546l26 -13l-279 -542q-4 2 -9.5 5.5t-13.5 7.5z" />
    <glyph glyph-name="at.small" unicode="&#xe025;" horiz-adv-x="792" 
d="M418 -170q-112 0 -196 51t-124.5 129.5t-40.5 175.5q0 155 101 256q103 101 252 101q137 0 228 -85q92 -84 92 -217q0 -108 -46 -176q-47 -68 -111 -68q-63 0 -63 70q0 4 0.5 9.5t1.5 13.5q-62 -93 -153 -93q-67 0 -104 48q-36 48 -36 118q0 79 48 141q49 61 128 61
q46 0 86 -28t55 -54l10 75h30l-36 -248q-2 -13 -3 -22.5t-1 -15.5q0 -47 42 -47q49 0 85 61t36 146q0 131 -83 206q-82 76 -207 76q-137 0 -229 -95t-92 -233q0 -133 89 -231q88 -97 241 -97v-28zM530 248q-2 4 -6 9.5t-18 20.5q-17 20 -45.5 38.5t-65.5 18.5
q-64 0 -105 -50t-41 -121q0 -30 8 -55t23.5 -43.5t37.5 -29t49 -10.5q59 0 101 51q43 50 52 107z" />
    <glyph glyph-name="cent.small" unicode="&#xe026;" horiz-adv-x="361" 
d="M323 19q-39 -24 -85 -27v-51h-28v51q-71 7 -117 60q-46 52 -46 130t46 130t117 60v48h28v-47q49 -4 85 -28v-35q-37 31 -85 35v-325q44 3 85 33v-34zM77 182q0 -64 38 -110q37 -44 95 -52v324q-29 -3 -53 -16.5t-42 -34.5t-28 -49.5t-10 -61.5z" />
    <glyph glyph-name="sterling.small" unicode="&#xe027;" horiz-adv-x="439" 
d="M131 200v-171h273v-29h-366v29h63v171h-63v29h63v143q0 69 45 120t114 51q48 0 85 -26v-38q-41 35 -85 35q-55 0 -92 -42q-37 -40 -37 -99v-144h214v-29h-214z" />
    <glyph glyph-name="copyright.small" unicode="&#xe028;" horiz-adv-x="650" 
d="M324 543q113 0 193 -81q81 -81 81 -195t-81 -195q-80 -80 -193 -80q-114 0 -196 80q-80 82 -80 195t80 195q81 81 196 81zM324 21q102 0 173 71q72 72 72 175q0 102 -72 174q-72 73 -173 73q-103 0 -175 -73q-72 -72 -72 -174q0 -103 72 -175q73 -71 175 -71zM331 424
q33 0 69 -17v-31q-34 20 -69 20q-27 0 -50 -10t-39.5 -27.5t-26 -41t-9.5 -50.5t9.5 -50.5t26 -41t39.5 -27.5t50 -10q37 0 69 20v-31q-36 -18 -69 -18q-64 0 -110 46q-45 46 -45 112t45 111q46 46 110 46z" />
    <glyph glyph-name="yen.small" unicode="&#xe029;" horiz-adv-x="418" 
d="M371 534h33l-111 -190h101v-29h-117l-21 -37l-29 -49h167v-29h-170v-200h-29v200h-169v29h166l-50 86h-116v29h99l-110 190h34l120 -206l40 -70l42 70z" />
    <glyph glyph-name="Euro.small" unicode="&#xe02a;" horiz-adv-x="492" 
d="M347 514q-42 0 -79 -12.5t-66.5 -36t-51 -55.5t-32.5 -71h287v-29h-293q-2 -14 -3 -24.5t-1 -18.5q0 -26 4 -43h293v-28h-287q11 -39 32.5 -71.5t51 -55.5t66.5 -36t79 -13q70 0 129 38v-33q-62 -33 -129 -33q-93 0 -166 56q-73 58 -95 148h-57v28h51q-1 14 -1.5 24
t-0.5 19t0.5 19t1.5 24h-51v29h57q22 90 95 147q72 57 166 57q67 0 129 -33v-33q-58 37 -129 37z" />
    <glyph glyph-name="germandbls.small" unicode="&#xe02b;" horiz-adv-x="775" 
d="M470 413q0 -29 18.5 -49.5t46 -37t60 -32.5t60 -36t46 -46.5t18.5 -64.5q0 -68 -45 -111q-44 -44 -111 -44q-72 0 -123 42v39q52 -52 120 -52q27 0 50.5 9t41 25.5t27.5 39.5t10 50q0 36 -25.5 64t-62.5 46l-55.5 28.5t-52 33t-38.5 41.5t-15 54q0 59 41 95q42 36 101 36
q63 0 119 -39v-37q-50 47 -116 47q-23 0 -44 -7t-36.5 -20t-25 -31.5t-9.5 -42.5zM93 413q0 -29 18.5 -49.5t46 -37t60 -32.5t60 -36t46 -46.5t18.5 -64.5q0 -68 -45 -111q-44 -44 -111 -44q-72 0 -123 42v39q52 -52 120 -52q27 0 50.5 9t41 25.5t27.5 39.5t10 50
q0 36 -25.5 64t-62.5 46l-55.5 28.5t-52 32.5t-38.5 41.5t-15 54.5q0 59 41 95q42 36 101 36q63 0 119 -39v-37q-50 47 -116 47q-23 0 -44 -7t-36.5 -20t-25 -31.5t-9.5 -42.5z" />
    <glyph glyph-name="dotlessi.small" unicode="&#xe02c;" horiz-adv-x="235" 
d="M118 534v-534h-29v534h29z" />
    <glyph glyph-name="ampersand.01" unicode="&#xe37a;" horiz-adv-x="826" 
d="M398 0v341h-341v29h341v342h29v-342h342v-29h-342v-341h-29z" />
    <glyph glyph-name="f_j" unicode="&#xe380;" horiz-adv-x="499" 
d="M392 718q-80 28 -130 28q-49 0 -85 -36q-35 -35 -35 -85v-103h269v-572q0 -38 -10.5 -70t-30 -55t-49 -36.5t-66.5 -13.5q-16 0 -26 2v28q5 -1 11.5 -1h16.5q59 0 92 42q33 40 33 99v548h-240v-493h-29v493h-80v29h80v103q0 62 44 106t105 44q52 0 130 -26v-31z" />
    <glyph glyph-name="f_b" unicode="&#xe381;" horiz-adv-x="963" 
d="M406 0h-23v726q-72 20 -120 20q-50 0 -86 -36q-35 -35 -35 -85v-103h153v-29h-153v-493h-29v493h-80v29h80v103q0 62 44 106t106 44q59 0 149 -28v-356q28 66 95 105q66 39 140 39q115 0 187 -82q72 -81 72 -192q0 -113 -75 -192q-74 -80 -188 -80q-38 0 -72.5 10t-64 27
t-54 39.5t-42.5 48.5zM643 506q-92 0 -162 -66q-69 -65 -69 -145v-129q26 -56 85 -102q61 -46 143 -46q101 0 169 69q67 68 67 174q0 104 -66 175q-64 70 -167 70z" />
    <glyph glyph-name="f_f_b" unicode="&#xe382;" horiz-adv-x="1233" 
d="M676 0h-23v726q-72 20 -120 20q-50 0 -86 -36q-35 -35 -35 -85v-103h153v-29h-153v-493h-29v493h-241v-493h-29v493h-80v29h80v92q0 62 44 106t105 44q6 0 15.5 -1t22.5 -3v-29q-13 2 -22.5 3t-15.5 1q-49 0 -85 -36q-35 -35 -35 -85v-92h241v103q0 62 44 106t106 44
q59 0 149 -28v-356q28 66 95 105q66 39 140 39q115 0 187 -82q72 -81 72 -192q0 -113 -75 -192q-74 -80 -188 -80q-38 0 -72.5 10t-64 27t-54 39.5t-42.5 48.5zM913 506q-92 0 -162 -66q-69 -65 -69 -145v-129q26 -56 85 -102q61 -46 143 -46q101 0 169 69q67 68 67 174
q0 104 -66 175q-64 70 -167 70z" />
    <glyph glyph-name="f_f_h" unicode="&#xe383;" horiz-adv-x="1174" 
d="M653 726q-72 20 -120 20q-50 0 -86 -36q-35 -35 -35 -85v-103h153v-29h-153v-493h-29v493h-241v-493h-29v493h-80v29h80v92q0 62 44 106t105 44q6 0 15.5 -1t22.5 -3v-29q-13 2 -22.5 3t-15.5 1q-49 0 -85 -36q-35 -35 -35 -85v-92h241v103q0 62 44 106t106 44
q59 0 149 -28v-325q15 22 36.5 42.5t47.5 36.5t55.5 25t61.5 9q91 0 147 -62t56 -158v-315h-29v312q0 47 -13 83t-37 61t-56.5 37.5t-71.5 12.5q-76 0 -132 -50q-54 -48 -65 -96v-360h-29v726z" />
    <glyph glyph-name="f_f_j" unicode="&#xe384;" horiz-adv-x="769" 
d="M499 -195q5 -1 11.5 -1h16.5q59 0 92 42q33 40 33 99v548h-240v-493h-29v493h-241v-493h-29v493h-80v29h80v92q0 62 44 106t105 44q6 0 15.5 -1t22.5 -3v-29q-13 2 -22.5 3t-15.5 1q-49 0 -85 -36q-35 -35 -35 -85v-92h241v103q0 62 44 106t105 44q52 0 130 -26v-31
q-78 28 -130 28q-49 0 -85 -36q-35 -35 -35 -85v-103h269v-572q0 -38 -10.5 -70t-30 -55t-49 -36.5t-66.5 -13.5q-16 0 -26 2v28z" />
    <glyph glyph-name="f_f_k" unicode="&#xe385;" horiz-adv-x="1060" 
d="M977 522h36l-218 -245l230 -277h-37l-217 256l-89 -92v-164h-29v726q-72 20 -120 20q-50 0 -86 -36q-35 -35 -35 -85v-103h153v-29h-153v-493h-29v493h-241v-493h-29v493h-80v29h80v92q0 62 44 106t105 44q6 0 15.5 -1t22.5 -3v-29q-13 2 -22.5 3t-15.5 1q-49 0 -85 -36
q-35 -35 -35 -85v-92h241v103q0 62 44 106t106 44q59 0 149 -28v-446v-64t-1 -34h5q11 15 27.5 32.5t37.5 37.5z" />
    <glyph glyph-name="f_h" unicode="&#xe386;" horiz-adv-x="904" 
d="M383 726q-72 20 -120 20q-50 0 -86 -36q-35 -35 -35 -85v-103h153v-29h-153v-493h-29v493h-80v29h80v103q0 62 44 106t106 44q59 0 149 -28v-325q15 22 36.5 42.5t47.5 36.5t55.5 25t61.5 9q91 0 147 -62t56 -158v-315h-29v312q0 47 -13 83t-37 61t-56.5 37.5t-71.5 12.5
q-76 0 -132 -50q-54 -48 -65 -96v-360h-29v726z" />
    <glyph glyph-name="f_k" unicode="&#xe388;" horiz-adv-x="790" 
d="M707 522h36l-218 -245l230 -277h-37l-217 256l-89 -92v-164h-29v726q-72 20 -120 20q-50 0 -86 -36q-35 -35 -35 -85v-103h153v-29h-153v-493h-29v493h-80v29h80v103q0 62 44 106t106 44q59 0 149 -28v-446v-64t-1 -34h5q11 15 27.5 32.5t37.5 37.5z" />
    <glyph glyph-name="f_t" unicode="&#xe389;" horiz-adv-x="602" 
d="M566 -5q-8 -3 -21 -3q-81 0 -121.5 46.5t-40.5 124.5v330h-241v-493h-29v493h-80v29h80v103q0 62 44 106t105 44q6 0 15.5 -1t22.5 -3v-29q-13 2 -22.5 3t-15.5 1q-49 0 -85 -36q-35 -35 -35 -85v-103h241v129l29 11v-140h154v-29h-154v-332q0 -29 8 -54t23.5 -44.5
t38 -30.5t51.5 -11q11 0 19.5 0.5t13.5 1.5v-28z" />
    <glyph glyph-name="t_f" unicode="&#xe38a;" horiz-adv-x="652" 
d="M298 -5q-8 -3 -21 -3q-81 0 -121.5 46.5t-40.5 124.5v330h-79v29h79v129l29 11v-140h293v103q0 62 44 106t105 44q6 0 15.5 -1t22.5 -3v-29q-13 2 -22.5 3t-15.5 1q-49 0 -85 -36q-35 -35 -35 -85v-103h153v-29h-153v-493h-29v493h-293v-332q0 -29 8 -54t23.5 -44.5
t38 -30.5t51.5 -11q11 0 19.5 0.5t13.5 1.5v-28z" />
    <glyph glyph-name="t_t" unicode="&#xe38b;" horiz-adv-x="658" 
d="M622 -5q-8 -3 -21 -3q-81 0 -121.5 46.5t-40.5 124.5v330h-295v-332q0 -29 8 -54t23.5 -44.5t38 -30.5t51.5 -11q11 0 19.5 0.5t13.5 1.5v-28q-8 -3 -21 -3q-81 0 -121.5 46.5t-40.5 124.5v330h-79v29h79v117l29 11v-128h295v129l29 11v-140h154v-29h-154v-332
q0 -29 8 -54t23 -44.5t37.5 -30.5t52.5 -11q11 0 19.5 0.5t13.5 1.5v-28z" />
    <glyph glyph-name="parenleft.uc" unicode="&#xe440;" horiz-adv-x="286" 
d="M234 800q-20 -32 -36.5 -61t-29.5 -54t-25 -60t-24 -80q-23 -92 -23 -188q0 -152 46 -265q12 -29 22.5 -52t20.5 -41l22 -39l27 -46h-29q-32 53 -49 86q-18 34 -42 93q-47 113 -47 264t47 264q24 58 42 93l21 38.5t28 47.5h29z" />
    <glyph glyph-name="parenright.uc" unicode="&#xe441;" horiz-adv-x="286" 
d="M81 800q16 -26 28 -47.5l21 -38.5q18 -35 42 -93q47 -113 47 -264t-47 -264q-24 -59 -42 -93q-17 -33 -49 -86h-29l27 46l22 39q19 36 42 93q24 57 35.5 123.5t11.5 141.5q0 98 -24 188q-23 91 -48 140q-13 25 -29.5 54t-36.5 61h29z" />
    <glyph glyph-name="hyphen.uc" unicode="&#xe442;" horiz-adv-x="300" 
d="M39 371h222v-29h-222v29z" />
    <glyph glyph-name="bracketleft.uc" unicode="&#xe443;" horiz-adv-x="282" 
d="M250 801h-114v-882h114v-29h-143v940h143v-29z" />
    <glyph glyph-name="bracketright.uc" unicode="&#xe444;" horiz-adv-x="282" 
d="M146 801h-114v29h143v-940h-143v29h114v882z" />
    <glyph glyph-name="braceleft.uc" unicode="&#xe460;" horiz-adv-x="281" 
d="M249 830v-29h-36q-37 0 -61 -26t-24 -69q0 -35 26 -107q26 -70 26 -108q0 -94 -80 -132q80 -38 80 -131q0 -36 -26 -108q-26 -70 -26 -107q0 -42 24 -69t61 -27h36v-29h-36q-24 0 -45 9.5t-36.5 26t-24 39.5t-8.5 50q0 30 26 108t26 107q0 54 -32.5 85.5t-86.5 31.5v29
q54 0 86.5 31t32.5 85q0 29 -26 107t-26 108q0 55 31.5 90t82.5 35h36z" />
    <glyph glyph-name="bar.uc" unicode="&#xe461;" horiz-adv-x="235" 
d="M132 840v-980h-29v980h29z" />
    <glyph glyph-name="braceright.uc" unicode="&#xe462;" horiz-adv-x="281" 
d="M32 830h36q51 0 82.5 -35t31.5 -90q0 -30 -26 -108t-26 -107q0 -54 32.5 -85t86.5 -31v-29q-54 0 -86.5 -31.5t-32.5 -85.5q0 -29 26 -107t26 -108q0 -27 -8.5 -50t-24 -39.5t-36.5 -26t-45 -9.5h-36v29h36q37 0 61 27t24 69q0 37 -26 107q-26 72 -26 108q0 93 80 131
q-80 38 -80 132q0 38 26 108q26 72 26 107q0 43 -24 69t-61 26h-36v29z" />
    <glyph glyph-name="slash.uc" unicode="&#xe463;" horiz-adv-x="415" 
d="M56 -96l-27 9l326 895l27 -10z" />
    <glyph glyph-name="questiondown.uc" unicode="&#xe464;" horiz-adv-x="480" 
d="M211 -6q-77 0 -132 53q-53 53 -53 129q0 36 15.5 66t39.5 55.5t51 48.5t51 45.5t39.5 45.5t15.5 50v49h29v-49q0 -32 -15.5 -58t-39 -50t-51 -46t-51 -46t-39 -51.5t-15.5 -60.5q0 -59 47 -106q46 -46 112 -46q59 0 100 38v-39q-43 -28 -104 -28zM275 665
q-11 -12 -24.5 -10t-23 11.5t-11.5 23t10 24.5t26 9.5t23 -10.5t10.5 -22.5t-10.5 -25.5z" />
    <glyph glyph-name="exclamdown.uc" unicode="&#xe465;" horiz-adv-x="236" 
d="M103 -6v530h29v-530h-29zM142 653q-11 -12 -24.5 -10t-23 11.5t-11.5 23t10 24.5t26 9.5t23 -10.5t10.5 -22.5t-10.5 -25.5z" />
    <glyph glyph-name="backslash.uc" unicode="&#xe466;" horiz-adv-x="415" 
d="M355 -96l-326 894l27 10l326 -895z" />
    <glyph glyph-name="endash.uc" unicode="&#xe470;" horiz-adv-x="519" 
d="M39 371h440v-29h-440v29z" />
    <glyph glyph-name="emdash.uc" unicode="&#xe471;" horiz-adv-x="1018" 
d="M39 371h939v-29h-939v29z" />
    <glyph glyph-name="guilsinglleft.uc" unicode="&#xe472;" horiz-adv-x="280" 
d="M223 547l-130 -192l130 -191h-34l-132 191l132 192h34z" />
    <glyph glyph-name="guilsinglright.uc" unicode="&#xe473;" horiz-adv-x="280" 
d="M187 355l-130 192h34l132 -192l-132 -191h-34z" />
    <glyph glyph-name="guillemotleft.uc" unicode="&#xe474;" horiz-adv-x="437" 
d="M223 547l-130 -192l130 -191h-34l-132 191l132 192h34zM380 547l-130 -192l130 -191h-34l-132 191l132 192h34z" />
    <glyph glyph-name="guillemotright.uc" unicode="&#xe475;" horiz-adv-x="437" 
d="M344 355l-130 192h34l132 -192l-132 -191h-34zM187 355l-130 192h34l132 -192l-132 -191h-34z" />
    <glyph glyph-name="uni0200.small" unicode="&#xe540;" horiz-adv-x="526" 
d="M272 534l237 -534h-33l-57 132h-309l-56 -132h-34l237 534h15zM122 161h285l-105 237l-35 87h-5q-1 0 -7 -14q-3 -7 -6.5 -17l-7 -20.5t-7.5 -20t-7 -15.5zM245 730l24 24l96 -102l-15 -16zM115 730l24 24l96 -102l-15 -16z" />
    <glyph glyph-name="uni0202.small" unicode="&#xe541;" horiz-adv-x="526" 
d="M272 534l237 -534h-33l-57 132h-309l-56 -132h-34l237 534h15zM122 161h285l-105 237l-35 87h-5q-1 0 -7 -14q-3 -7 -6.5 -17l-7 -20.5t-7.5 -20t-7 -15.5zM400 653l-13 -19l-123 80l-123 -80l-13 20l136 104z" />
    <glyph glyph-name="uni0204.small" unicode="&#xe542;" horiz-adv-x="436" 
d="M86 0v534h278v-29h-249v-208h242v-29h-242v-239h249v-29h-278zM228 730l24 24l96 -102l-15 -16zM98 730l24 24l96 -102l-15 -16z" />
    <glyph glyph-name="uni0206.small" unicode="&#xe543;" horiz-adv-x="436" 
d="M86 0v534h278v-29h-249v-208h242v-29h-242v-239h249v-29h-278zM358 653l-13 -19l-123 80l-123 -80l-13 20l136 104z" />
    <glyph glyph-name="uni0208.small" unicode="&#xe544;" horiz-adv-x="201" 
d="M86 730l24 24l96 -102l-15 -16zM-44 730l24 24l96 -102l-15 -16zM115 534v-534h-29v534h29z" />
    <glyph glyph-name="uni020A.small" unicode="&#xe545;" horiz-adv-x="201" 
d="M115 534v-534h-29v534h29zM238 653l-13 -19l-123 80l-123 -80l-13 20l136 104z" />
    <glyph glyph-name="uni020C.small" unicode="&#xe546;" horiz-adv-x="644" 
d="M588 267q0 -117 -79 -196q-78 -79 -190 -79t-191 79q-78 79 -78 196q0 115 78 195q79 81 191 81t190 -81q79 -79 79 -195zM149 92q69 -71 170 -71t170 71q69 72 69 175t-69 175t-170 72t-170 -72t-69 -175t69 -175zM286 730l24 24l96 -102l-15 -16zM156 730l24 24
l96 -102l-15 -16z" />
    <glyph glyph-name="uni020E.small" unicode="&#xe550;" horiz-adv-x="644" 
d="M588 267q0 -117 -79 -196q-78 -79 -190 -79t-191 79q-78 79 -78 196q0 115 78 195q79 81 191 81t190 -81q79 -79 79 -195zM149 92q69 -71 170 -71t170 71q69 72 69 175t-69 175t-170 72t-170 -72t-69 -175t69 -175zM457 653l-13 -19l-123 80l-123 -80l-13 20l136 104z
" />
    <glyph glyph-name="uni0210.small" unicode="&#xe551;" horiz-adv-x="439" 
d="M411 0h-36l-169 233h-91v-233h-29v534h137q42 0 74 -11.5t53.5 -31.5t33 -47.5t11.5 -60.5q0 -60 -40.5 -102t-112.5 -48zM115 262h106q66 0 105 33t39 88q0 57 -39 89.5t-105 32.5h-106v-243zM212 730l24 24l96 -102l-15 -16zM82 730l24 24l96 -102l-15 -16z" />
    <glyph glyph-name="uni0212.small" unicode="&#xe552;" horiz-adv-x="439" 
d="M411 0h-36l-169 233h-91v-233h-29v534h137q42 0 74 -11.5t53.5 -31.5t33 -47.5t11.5 -60.5q0 -60 -40.5 -102t-112.5 -48zM115 262h106q66 0 105 33t39 88q0 57 -39 89.5t-105 32.5h-106v-243zM354 653l-13 -19l-123 80l-123 -80l-13 20l136 104z" />
    <glyph glyph-name="uni0214.small" unicode="&#xe553;" horiz-adv-x="533" 
d="M447 184q0 -87 -53 -140q-52 -52 -127 -52q-77 0 -129 52t-52 140v350h29v-344q0 -79 44 -125q44 -44 108 -44q63 0 107 45q44 46 44 124v344h29v-350zM242 730l24 24l96 -102l-15 -16zM112 730l24 24l96 -102l-15 -16z" />
    <glyph glyph-name="uni0216.small" unicode="&#xe554;" horiz-adv-x="533" 
d="M447 184q0 -87 -53 -140q-52 -52 -127 -52q-77 0 -129 52t-52 140v350h29v-344q0 -79 44 -125q44 -44 108 -44q63 0 107 45q44 46 44 124v344h29v-350zM405 653l-13 -19l-123 80l-123 -80l-13 20l136 104z" />
    <glyph glyph-name="uni021A.small" unicode="&#xe555;" horiz-adv-x="354" 
d="M193 505v-505h-29v505h-144v29h317v-29h-144zM138 -246q16 46 27.5 91.5t19.5 92.5l39 10q-14 -59 -32 -108.5t-38 -91.5z" />
    <glyph glyph-name="quotedbl.small" unicode="&#xe640;" horiz-adv-x="368" 
d="M79 623h39l-10 -270h-19zM233 623h39l-10 -270h-19z" />
    <glyph glyph-name="quotesingle.small" unicode="&#xe641;" horiz-adv-x="200" 
d="M76 623h39l-10 -270h-19z" />
    <glyph glyph-name="quoteleft.small" unicode="&#xe642;" horiz-adv-x="204" 
d="M159 679q-55 -142 -67 -258l-45 -11q42 173 94 276z" />
    <glyph glyph-name="quoteright.small" unicode="&#xe643;" horiz-adv-x="204" 
d="M45 417q55 142 67 258l45 11q-42 -173 -94 -276z" />
    <glyph glyph-name="quotedblleft.small" unicode="&#xe644;" horiz-adv-x="373" 
d="M159 679q-55 -142 -67 -258l-45 -11q42 173 94 276zM328 679q-55 -142 -67 -258l-45 -11q42 173 94 276z" />
    <glyph glyph-name="quotedblright.small" unicode="&#xe645;" horiz-adv-x="373" 
d="M45 417q55 142 67 258l45 11q-42 -173 -94 -276zM214 417q55 142 67 258l45 11q-42 -173 -94 -276z" />
    <glyph glyph-name="M.alt1" unicode="&#xe646;" horiz-adv-x="817" 
d="M691 0v557v24.5t1 30.5t1 26v11h-4l-53 -54l-227 -227l-227 227l-53 54h-4v-37q1 -17 1 -30.5v-24.5v-557h-29v712h9l303 -303l302 303h9v-712h-29z" />
    <glyph glyph-name="m.smallalt1" unicode="&#xe647;" horiz-adv-x="647" 
d="M324 312l221 222h16v-534h-29v403q0 36 3 78h-4q-7 -8 -18 -19.5l-26 -27.5l-163 -163l-163 163q-16 14 -26.5 26t-17.5 21h-4v-11t1 -23t1 -25v-19v-403h-29v534h16z" />
    <glyph glyph-name="ampersand.alt1" unicode="&#xe648;" horiz-adv-x="643" 
d="M467 368v-218q0 -26 7.5 -49t21.5 -40.5t35 -28t48 -10.5q11 0 18.5 0.5t12.5 1.5v-28q-9 -3 -29 -3q-57 0 -91 28.5t-46 79.5q-25 -52 -72 -82t-107 -30q-85 0 -142 58t-57 149q0 60 37 112t102 75q-55 22 -84.5 64t-29.5 91q0 80 56 133q58 53 143 53q87 0 149 -53v-37
q-65 61 -149 61q-71 0 -120 -46q-49 -45 -49 -111q0 -58 47 -100q47 -41 116 -41h154v99l29 11v-110h143v-29h-143zM438 368h-154q-77 0 -132 -52q-56 -53 -56 -120q0 -77 48 -128q50 -50 121 -50q72 0 122 53q51 54 51 131v166z" />
    <glyph glyph-name="ampersand.smallalt1" unicode="&#xe649;" horiz-adv-x="548" 
d="M373 266v-119q0 -26 7 -49t21.5 -40.5t35 -28t47.5 -10.5q11 0 18.5 0.5t12.5 1.5v-28q-9 -3 -29 -3q-99 0 -130 87q-19 -40 -56.5 -64t-83.5 -24q-66 0 -111 42q-44 44 -44 110q0 44 26 85q27 42 73 58q-39 17 -60 47.5t-21 67.5q0 61 43 101t108 40q64 0 114 -41v-37
q-50 50 -114 50q-51 0 -85 -33q-35 -32 -35 -80q0 -21 8.5 -40t24.5 -33.5t38 -22.5t49 -8h114v79l29 11v-90h142v-29h-142zM344 266h-114q-59 0 -100 -38q-39 -38 -39 -87q0 -27 9.5 -50t26.5 -39.5t39.5 -26t49.5 -9.5q52 0 90 39q38 40 38 95v116z" />
    <glyph glyph-name="alpha.small" unicode="&#xe800;" horiz-adv-x="526" 
d="M272 534l237 -534h-33l-57 132h-309l-56 -132h-34l237 534h15zM122 161h285l-105 237l-35 87h-5q-1 0 -7 -14q-3 -7 -6.5 -17l-7 -20.5t-7.5 -20t-7 -15.5z" />
    <glyph glyph-name="beta.small" unicode="&#xe801;" horiz-adv-x="469" 
d="M115 505v-220h120q57 0 89.5 28t32.5 82q0 51 -36.5 80.5t-91.5 29.5h-114zM115 256v-227h126q61 0 98.5 29t37.5 87q0 55 -36.5 83t-99.5 28h-126zM312 274q45 -13 70 -49.5t25 -81.5q0 -34 -12 -60.5t-34 -45t-51.5 -28t-65.5 -9.5h-158v534h139q39 0 69 -11t51 -29.5
t31.5 -44t10.5 -54.5q0 -42 -20.5 -74.5t-54.5 -46.5z" />
    <glyph glyph-name="chi.small" unicode="&#xe802;" horiz-adv-x="429" 
d="M233 279l179 -279h-35l-130 203q-28 45 -29 51h-4l-29 -52l-130 -202h-35l179 279l-164 255h37l109 -172l18 -30t15 -28h4q3 10 33 57l109 173h37z" />
    <glyph glyph-name="delta.small" unicode="&#xe803;" horiz-adv-x="517" 
d="M256 494l-27 -74.5l-20 -52.5l-136 -338h370l-135 339l-13 34l-15 40.5l-12.5 34.5t-6.5 17h-5zM38 0v24l211 516h19l210 -516v-24h-440z" />
    <glyph glyph-name="epsilon.small" unicode="&#xe804;" horiz-adv-x="436" 
d="M86 0v534h278v-29h-249v-208h242v-29h-242v-239h249v-29h-278z" />
    <glyph glyph-name="eta.small" unicode="&#xe805;" horiz-adv-x="543" 
d="M428 297v237h29v-534h-29v268h-313v-268h-29v534h29v-237h313z" />
    <glyph glyph-name="gamma.small" unicode="&#xe806;" horiz-adv-x="332" 
d="M115 505v-505h-29v534h229v-29h-200z" />
    <glyph glyph-name="iota.small" unicode="&#xe807;" horiz-adv-x="201" 
d="M115 534v-534h-29v534h29z" />
    <glyph glyph-name="kappa.small" unicode="&#xe808;" horiz-adv-x="448" 
d="M428 534l-224 -248l227 -286h-38l-210 262l-68 -75v-187h-29v534h29v-248v-13t-1 -18v-24h4l21 25.5l15 17.5l235 260h39z" />
    <glyph glyph-name="lambda.small" unicode="&#xe809;" horiz-adv-x="491" 
d="M474 0h-32l-155 384l-26.5 69.5t-11.5 31.5h-4q-1 -2 -4.5 -13t-9 -26l-11.5 -32t-12 -31l-155 -383h-33l218 534h19z" />
    <glyph glyph-name="mu.small" unicode="&#xe80a;" horiz-adv-x="647" 
d="M324 312l221 222h16v-534h-29v403q0 36 3 78h-4q-7 -8 -18 -19.5l-26 -27.5l-163 -163l-163 163q-16 14 -26.5 26t-17.5 21h-4v-11t1 -23t1 -25v-19v-403h-29v534h16z" />
    <glyph glyph-name="nu.small" unicode="&#xe80b;" horiz-adv-x="573" 
d="M487 534v-534h-17l-301 409q-29 38 -52 77h-4q1 -19 1.5 -41t0.5 -47v-398h-29v534h27l299 -407l28 -40.5t16 -25.5h4v12t-1 28t-1 32v24v377h29z" />
    <glyph glyph-name="omega.small" unicode="&#xe80c;" horiz-adv-x="626" 
d="M417 27q16 1 32.5 1.5t33.5 0.5h73v-29h-177v47q68 25 115 89q46 62 46 141q0 105 -62 170q-62 66 -168 66q-107 0 -168 -66q-62 -65 -62 -170q0 -79 46 -141q47 -63 116 -89v-47h-178v29h73q10 0 22.5 -0.5t28.5 -1.5q2 0 8 -0.5t7 -0.5v8l-21.5 12.5t-28.5 18.5
q-48 40 -75.5 96t-27.5 116q0 118 73 191q73 75 187 75q112 0 186 -75q74 -74 74 -191q0 -61 -27.5 -116.5t-76.5 -94.5q-10 -9 -22.5 -16.5t-26.5 -14.5v-8z" />
    <glyph glyph-name="omicron.small" unicode="&#xe80d;" horiz-adv-x="644" 
d="M588 267q0 -117 -79 -196q-78 -79 -190 -79t-191 79q-78 79 -78 196q0 115 78 195q79 81 191 81t190 -81q79 -79 79 -195zM149 92q69 -71 170 -71t170 71q69 72 69 175t-69 175t-170 72t-170 -72t-69 -175t69 -175z" />
    <glyph glyph-name="phi.small" unicode="&#xe80e;" horiz-adv-x="645" 
d="M334 501q107 0 181 -66q74 -65 74 -168t-74 -169q-74 -65 -181 -65v-54h-29v54q-108 0 -182 65q-73 66 -73 169q0 104 73 168q73 66 182 66v54h29v-54zM305 473q-97 0 -161 -57t-64 -149t64 -149t161 -57v412zM334 61q96 0 161 57q64 57 64 149t-64 149q-65 57 -161 57
v-412z" />
    <glyph glyph-name="pi.small" unicode="&#xe80f;" horiz-adv-x="542" 
d="M86 534h370v-534h-29v505h-312v-505h-29v534z" />
    <glyph glyph-name="psi.small" unicode="&#xe810;" horiz-adv-x="582" 
d="M493 534h29v-169q0 -88 -63 -140q-63 -51 -154 -51v-174h-29v174q-91 0 -154 51q-62 53 -62 140v169h29v-164q0 -79 55 -124q56 -44 132 -44v332h29v-332q77 0 133 44q55 45 55 124v164z" />
    <glyph glyph-name="rho.small" unicode="&#xe811;" horiz-adv-x="448" 
d="M223 534q43 0 77.5 -12.5t58.5 -34t37 -51.5t13 -66q0 -38 -13.5 -68t-38 -51.5t-59.5 -33t-78 -11.5h-105v-206h-29v534h137zM222 235q72 0 114.5 37t42.5 98t-42.5 98t-114.5 37h-107v-270h107z" />
    <glyph glyph-name="sigma.small" unicode="&#xe812;" horiz-adv-x="411" 
d="M351 534v-29h-252l161 -238l-161 -238h252v-29h-291v25l162 242l-162 241v26h291z" />
    <glyph glyph-name="tau.small" unicode="&#xe813;" horiz-adv-x="354" 
d="M193 505v-505h-29v505h-144v29h317v-29h-144z" />
    <glyph glyph-name="theta.small" unicode="&#xe814;" horiz-adv-x="644" 
d="M200 282h239v-29h-239v29zM588 267q0 -117 -79 -196q-78 -79 -190 -79t-191 79q-78 79 -78 196q0 115 78 195q79 81 191 81t190 -81q79 -79 79 -195zM149 92q69 -71 170 -71t170 71q69 72 69 175t-69 175t-170 72t-170 -72t-69 -175t69 -175z" />
    <glyph glyph-name="upsilon.small" unicode="&#xe815;" horiz-adv-x="428" 
d="M373 534h35l-180 -312v-222h-29v222l-179 312h34l121 -210l25 -45t12 -24h4q2 5 11 22t26 46z" />
    <glyph glyph-name="xi.small" unicode="&#xe816;" horiz-adv-x="421" 
d="M72 505v29h277v-29h-277zM72 0v29h277v-29h-277zM79 269v29h263v-29h-263z" />
    <glyph glyph-name="zeta.small" unicode="&#xe817;" horiz-adv-x="444" 
d="M72 31v-4q9 1 28 1.5t48 0.5h264v-29h-382v19l309 439l34 46v4q-30 -3 -75 -3h-241v29h355v-20z" />
    <glyph glyph-name="alphatonos.small" unicode="&#xe818;" horiz-adv-x="526" 
d="M272 534l237 -534h-33l-57 132h-309l-56 -132h-34l237 534h15zM122 161h285l-105 237l-35 87h-5q-1 0 -7 -14q-3 -7 -6.5 -17l-7 -20.5t-7.5 -20t-7 -15.5zM283 788l32 -16l-79 -155l-22 11z" />
    <glyph glyph-name="epsilontonos.small" unicode="&#xe819;" horiz-adv-x="436" 
d="M86 0v534h278v-29h-249v-208h242v-29h-242v-239h249v-29h-278zM254 788l32 -16l-79 -155l-22 11z" />
    <glyph glyph-name="etatonos.small" unicode="&#xe81a;" horiz-adv-x="543" 
d="M428 297v237h29v-534h-29v268h-313v-268h-29v534h29v-237h313zM285 788l32 -16l-79 -155l-22 11z" />
    <glyph glyph-name="iotatonos.small" unicode="&#xe81b;" horiz-adv-x="201" 
d="M115 534v-534h-29v534h29zM120 788l32 -16l-79 -155l-22 11z" />
    <glyph glyph-name="omicrontonos.small" unicode="&#xe81c;" horiz-adv-x="644" 
d="M588 267q0 -117 -79 -196q-78 -79 -190 -79t-191 79q-78 79 -78 196q0 115 78 195q79 81 191 81t190 -81q79 -79 79 -195zM149 92q69 -71 170 -71t170 71q69 72 69 175t-69 175t-170 72t-170 -72t-69 -175t69 -175zM339 788l32 -16l-79 -155l-22 11z" />
    <glyph glyph-name="upsilontonos.small" unicode="&#xe81d;" horiz-adv-x="428" 
d="M373 534h35l-180 -312v-222h-29v222l-179 312h34l121 -210l25 -45t12 -24h4q2 5 11 22t26 46zM234 788l32 -16l-79 -155l-22 11z" />
    <glyph glyph-name="omegatonos.small" unicode="&#xe81e;" horiz-adv-x="626" 
d="M417 27q16 1 32.5 1.5t33.5 0.5h73v-29h-177v47q68 25 115 89q46 62 46 141q0 105 -62 170q-62 66 -168 66q-107 0 -168 -66q-62 -65 -62 -170q0 -79 46 -141q47 -63 116 -89v-47h-178v29h73q10 0 22.5 -0.5t28.5 -1.5q2 0 8 -0.5t7 -0.5v8l-21.5 12.5t-28.5 18.5
q-48 40 -75.5 96t-27.5 116q0 118 73 191q73 75 187 75q112 0 186 -75q74 -74 74 -191q0 -61 -27.5 -116.5t-76.5 -94.5q-10 -9 -22.5 -16.5t-26.5 -14.5v-8zM329 788l32 -16l-79 -155l-22 11z" />
    <glyph glyph-name="iotadieresis.small" unicode="&#xe81f;" horiz-adv-x="201" 
d="M115 534v-534h-29v534h29zM-5 674q-9 9 -9 22t9 21q8 9 21 9t21 -9q9 -8 9 -21t-9 -22q-8 -8 -21 -8t-21 8zM164 674q-8 9 -8 22t8 21q9 9 22 9t21 -9q9 -8 9 -21t-9 -22q-8 -8 -21 -8t-22 8z" />
    <glyph glyph-name="upsilondieresis.small" unicode="&#xe820;" horiz-adv-x="428" 
d="M373 534h35l-180 -312v-222h-29v222l-179 312h34l121 -210l25 -45t12 -24h4q2 5 11 22t26 46zM106 674q-8 9 -8 22t8 21q9 9 22 9t21 -9q9 -8 9 -21t-9 -22q-8 -8 -21 -8t-22 8zM276 674q-8 9 -8 22t8 21q9 9 22 9t21 -9q9 -8 9 -21t-9 -22q-8 -8 -21 -8t-22 8z" />
    <glyph glyph-name="afii10065.small" unicode="&#xe900;" horiz-adv-x="526" 
d="M272 534l237 -534h-33l-57 132h-309l-56 -132h-34l237 534h15zM122 161h285l-105 237l-35 87h-5q-1 0 -7 -14q-3 -7 -6.5 -17l-7 -20.5t-7.5 -20t-7 -15.5z" />
    <glyph glyph-name="afii10066.small" unicode="&#xe901;" horiz-adv-x="449" 
d="M367 505h-265v-208h127q35 0 65 -10t52 -29.5t34.5 -47t12.5 -62.5t-12.5 -62t-34.5 -46.5t-52 -29.5t-65 -10h-156v534h294v-29zM225 29q61 0 99.5 30.5t38.5 88.5t-38.5 89t-99.5 31h-123v-239h123z" />
    <glyph glyph-name="afii10067.small" unicode="&#xe902;" horiz-adv-x="469" 
d="M115 505v-220h120q57 0 89.5 28t32.5 82q0 51 -36.5 80.5t-91.5 29.5h-114zM115 256v-227h126q61 0 98.5 29t37.5 87q0 55 -36.5 83t-99.5 28h-126zM312 274q45 -13 70 -49.5t25 -81.5q0 -34 -12 -60.5t-34 -45t-51.5 -28t-65.5 -9.5h-158v534h139q39 0 69 -11t51 -29.5
t31.5 -44t10.5 -54.5q0 -42 -20.5 -74.5t-54.5 -46.5z" />
    <glyph glyph-name="afii10068.small" unicode="&#xe903;" horiz-adv-x="332" 
d="M115 505v-505h-29v534h229v-29h-200z" />
    <glyph glyph-name="afii10069.small" unicode="&#xe904;" horiz-adv-x="517" 
d="M36 -134v163h13q41 0 70 84q29 85 29 217v204h303v-505h36v-163h-29v134h-393v-134h-29zM422 29v476h-245v-174q0 -211 -72 -302h317z" />
    <glyph glyph-name="afii10070.small" unicode="&#xe905;" horiz-adv-x="436" 
d="M86 0v534h278v-29h-249v-208h242v-29h-242v-239h249v-29h-278z" />
    <glyph glyph-name="afii10072.small" unicode="&#xe906;" horiz-adv-x="724" 
d="M653 534h40l-232 -258q128 -20 179 -105q13 -22 27 -61t28 -96l3 -14h-30l-4 16q-4 14 -6.5 24.5t-4.5 16.5l-4.5 16t-6.5 22t-7.5 22t-7 16t-8 14.5l-10.5 17.5q-11 20 -24 30t-32 23q-25 18 -63.5 26t-89.5 8h-24v-252h-29v252h-24q-69 0 -112.5 -15.5t-72.5 -41.5
q-12 -10 -23.5 -30l-18.5 -32q-7 -14 -14 -38l-12 -38l-10 -41l-4 -16h-30q15 58 27 96.5t22 57.5q43 85 147 112q20 6 41 9l-232 259h39l229 -254h48v254h29v-254h49z" />
    <glyph glyph-name="afii10073.small" unicode="&#xe907;" horiz-adv-x="400" 
d="M106 274v24h56q27 0 49 8t38 22.5t24.5 33.5t8.5 40q0 48 -35 80q-35 33 -85 33q-62 0 -114 -33v34q52 27 114 27q65 0 108 -40t43 -101q0 -36 -21 -67t-60 -48q48 -17 73.5 -54t25.5 -80q0 -68 -50 -115q-49 -46 -121 -46q-66 0 -117 25v32q58 -30 117 -30q58 0 99 39
q42 39 42 95q0 49 -39 85t-100 36h-56z" />
    <glyph glyph-name="afii10074.small" unicode="&#xe908;" horiz-adv-x="573" 
d="M86 0v534h29v-377v-24t-1 -32t-1 -28v-12h4q5 9 16 25.5l28 40.5l299 407h27v-534h-29v398q0 25 0.5 47t1.5 41h-4q-23 -39 -52 -77l-301 -409h-17z" />
    <glyph glyph-name="afii10075.small" unicode="&#xe909;" horiz-adv-x="573" 
d="M86 0v534h29v-377v-24t-1 -32t-1 -28v-12h4q5 9 16 25.5l28 40.5l299 407h27v-534h-29v398q0 25 0.5 47t1.5 41h-4q-23 -39 -52 -77l-301 -409h-17zM408 733q-21 -46 -58.5 -67.5t-79.5 -21.5q-100 0 -139 88l24 9q28 -70 114 -70q84 0 114 70z" />
    <glyph glyph-name="afii10076.small" unicode="&#xe90a;" horiz-adv-x="462" 
d="M392 534h39l-233 -258q67 -11 105.5 -33.5t63.5 -52.5q14 -16 27 -49q7 -16 11.5 -29.5t7.5 -24.5q4 -11 8 -27l9 -36l6 -24h-30l-4 16l-14 53q-2 9 -6.5 21t-9.5 27t-11 26t-11 19q-11 15 -31 35.5t-44 30.5t-59 17t-78 7h-23v-252h-29v534h29v-254h48z" />
    <glyph glyph-name="afii10077.small" unicode="&#xe90b;" horiz-adv-x="527" 
d="M138 534h303v-534h-29v505h-245v-364q0 -61 -37 -101t-94 -44v27q45 3 73.5 34t28.5 83v394z" />
    <glyph glyph-name="afii10078.small" unicode="&#xe90c;" horiz-adv-x="647" 
d="M324 312l221 222h16v-534h-29v403q0 36 3 78h-4q-7 -8 -18 -19.5l-26 -27.5l-163 -163l-163 163q-16 14 -26.5 26t-17.5 21h-4v-11t1 -23t1 -25v-19v-403h-29v534h16z" />
    <glyph glyph-name="afii10079.small" unicode="&#xe90d;" horiz-adv-x="543" 
d="M428 297v237h29v-534h-29v268h-313v-268h-29v534h29v-237h313z" />
    <glyph glyph-name="afii10080.small" unicode="&#xe90e;" horiz-adv-x="644" 
d="M588 267q0 -117 -79 -196q-78 -79 -190 -79t-191 79q-78 79 -78 196q0 115 78 195q79 81 191 81t190 -81q79 -79 79 -195zM149 92q69 -71 170 -71t170 71q69 72 69 175t-69 175t-170 72t-170 -72t-69 -175t69 -175z" />
    <glyph glyph-name="afii10081.small" unicode="&#xe90f;" horiz-adv-x="542" 
d="M86 534h370v-534h-29v505h-312v-505h-29v534z" />
    <glyph glyph-name="afii10082.small" unicode="&#xe910;" horiz-adv-x="448" 
d="M223 534q43 0 77.5 -12.5t58.5 -34t37 -51.5t13 -66q0 -38 -13.5 -68t-38 -51.5t-59.5 -33t-78 -11.5h-105v-206h-29v534h137zM222 235q72 0 114.5 37t42.5 98t-42.5 98t-114.5 37h-107v-270h107z" />
    <glyph glyph-name="afii10083.small" unicode="&#xe911;" horiz-adv-x="502" 
d="M318 514q-104 0 -171 -72q-67 -71 -67 -175q0 -105 67 -175q68 -71 171 -71q68 0 129 38v-34q-62 -33 -129 -33q-113 0 -191 78q-77 80 -77 197q0 116 77 196q78 80 191 80q67 0 129 -33v-34q-56 38 -129 38z" />
    <glyph glyph-name="afii10084.small" unicode="&#xe912;" horiz-adv-x="354" 
d="M193 505v-505h-29v505h-144v29h317v-29h-144z" />
    <glyph glyph-name="afii10085.small" unicode="&#xe913;" horiz-adv-x="423" 
d="M102 0h-33l128 224l-177 310h32l122 -212q8 -13 16.5 -29.5l19.5 -37.5h6l17 33t19 34l122 212h32z" />
    <glyph glyph-name="afii10086.small" unicode="&#xe914;" horiz-adv-x="645" 
d="M334 501q107 0 181 -66q74 -65 74 -168t-74 -169q-74 -65 -181 -65v-54h-29v54q-108 0 -182 65q-73 66 -73 169q0 104 73 168q73 66 182 66v54h29v-54zM305 473q-97 0 -161 -57t-64 -149t64 -149t161 -57v412zM334 61q96 0 161 57q64 57 64 149t-64 149q-65 57 -161 57
v-412z" />
    <glyph glyph-name="afii10087.small" unicode="&#xe915;" horiz-adv-x="429" 
d="M233 279l179 -279h-35l-130 203q-28 45 -29 51h-4l-29 -52l-130 -202h-35l179 279l-164 255h37l109 -172l18 -30t15 -28h4q3 10 33 57l109 173h37z" />
    <glyph glyph-name="afii10088.small" unicode="&#xe916;" horiz-adv-x="542" 
d="M463 -135v135h-377v534h29v-505h312v505h29v-506h36v-163h-29z" />
    <glyph glyph-name="afii10089.small" unicode="&#xe917;" horiz-adv-x="471" 
d="M375 0v213q-86 -23 -170 -23q-33 0 -59.5 11.5t-45 31.5t-29 48.5t-10.5 61.5v191h29v-188q0 -63 33 -94.5t85 -31.5q77 0 167 26v288h29v-534h-29z" />
    <glyph glyph-name="afii10090.small" unicode="&#xe918;" horiz-adv-x="721" 
d="M86 0v534h29v-505h232v505h29v-505h230v505h29v-534h-549z" />
    <glyph glyph-name="afii10091.small" unicode="&#xe919;" horiz-adv-x="721" 
d="M86 0v534h29v-505h231v505h29v-505h231v505h29v-505h36v-164h-29v135h-556z" />
    </font>
</defs>
</svg>
