<?xml version="1.0" standalone="no"?>
<!DOCTYPE svg PUBLIC "-//W3C//DTD SVG 1.1//EN" "http://www.w3.org/Graphics/SVG/1.1/DTD/svg11.dtd" >
<svg>
<metadata>
Created by FontForge 20090622 at Tue Sep 17 15:08:59 2019
 By deploy user
Copyright (c) 2013 by Aviation Partners. All rights reserved.
</metadata>
<defs>
<font id="CorsicaRamblerLX-RegularIt" horiz-adv-x="568" >
  <font-face 
    font-family="Corsica Rambler LX"
    font-weight="400"
    font-style="italic"
    font-stretch="normal"
    units-per-em="1000"
    panose-1="2 0 0 0 0 0 0 0 0 0"
    ascent="775"
    descent="-225"
    x-height="527"
    cap-height="712"
    bbox="-172 -273 1211 969"
    underline-thickness="50"
    underline-position="-50"
    slope="-12"
    unicode-range="U+000D-U+FB04"
  />
<missing-glyph horiz-adv-x="596" 
d="M147 724h500l-153 -724h-500zM464 37l139 650h-426l-139 -650h426zM182 233l-22 29l131 109l-84 110l34 28l86 -109l132 109l22 -28l-132 -110l85 -109l-34 -29l-86 109z" />
    <glyph glyph-name=".notdef" horiz-adv-x="596" 
d="M147 724h500l-153 -724h-500zM464 37l139 650h-426l-139 -650h426zM182 233l-22 29l131 109l-84 110l34 28l86 -109l132 109l22 -28l-132 -110l85 -109l-34 -29l-86 109z" />
    <glyph glyph-name="NULL" horiz-adv-x="0" 
 />
    <glyph glyph-name="NULL" horiz-adv-x="0" 
 />
    <glyph glyph-name="nonmarkingreturn" unicode="&#xd;" horiz-adv-x="333" 
 />
    <glyph glyph-name="space" unicode=" " horiz-adv-x="245" 
 />
    <glyph glyph-name="exclam" unicode="!" horiz-adv-x="250" 
d="M70 182l113 530h81l-113 -530h-81zM95 105q19 0 31.5 -12.5t12.5 -31.5q0 -13 -6 -25t-15.5 -21.5t-22 -15t-24.5 -5.5q-20 0 -32.5 12t-12.5 31q0 13 6 25.5t16 22t22.5 15t24.5 5.5z" />
    <glyph glyph-name="quotedbl" unicode="&#x22;" horiz-adv-x="378" 
d="M155 712h94l-82 -290h-54zM325 712h94l-82 -290h-54z" />
    <glyph glyph-name="numbersign" unicode="#" horiz-adv-x="526" 
d="M280 690h74l-70 -188h116l71 188h76l-71 -188h83l-16 -75h-94l-59 -158h90l-16 -74h-102l-72 -195h-74l70 195h-115l-74 -195h-73l71 195h-91l16 74h105l28 78l29 80h-99l15 75h111zM257 431l-62 -165h121l60 165h-119z" />
    <glyph glyph-name="dollar" unicode="$" horiz-adv-x="527" 
d="M310 408l29 -17t24.5 -16t22 -17t22.5 -21q48 -44 48 -110q0 -97 -69 -164q-68 -67 -166 -73l-12 -57h-52l13 58q-86 10 -138 64l23 98q57 -73 131 -84l59 276l-29.5 17.5t-23 15l-20.5 15t-22 18.5q-46 42 -46 103q0 90 65 149q67 60 156 61l13 57h52l-13 -60
q77 -14 122 -56l-21 -91q-47 54 -118 68zM188 530q0 -27 19.5 -48.5t56.5 -45.5l45 207q-24 -4 -46 -13.5t-38.5 -24t-26.5 -33.5t-10 -42zM238 71q53 10 94 48q40 37 40 90q0 55 -81 108z" />
    <glyph glyph-name="percent" unicode="%" horiz-adv-x="788" 
d="M128 16l517 714l46 -33l-518 -713zM627 363q123 0 123 -122q0 -11 -1.5 -26.5t-5.5 -36.5q-36 -185 -187 -185q-123 0 -123 120q0 33 7 65q35 185 187 185zM565 50q47 0 84 46t37 135q0 74 -67 74q-46 0 -84 -44t-38 -136q0 -75 68 -75zM275 722q123 0 123 -122
q0 -11 -1.5 -26.5t-5.5 -36.5q-36 -185 -187 -185q-123 0 -123 120q0 33 7 65q35 185 187 185zM213 409q47 0 84 46t37 135q0 74 -67 74q-46 0 -84 -44t-38 -136q0 -75 68 -75z" />
    <glyph glyph-name="ampersand" unicode="&#x26;" horiz-adv-x="695" 
d="M565 0l-90 123q-122 -134 -244 -134q-84 0 -136 48t-52 122q0 95 69 158q17 16 33.5 29t32.5 24q31 21 81 48q-51 69 -51 123q0 78 61 130q62 53 137 53q60 0 103 -38q43 -37 43 -94q0 -36 -16.5 -68t-46.5 -58q-30 -25 -53.5 -40.5t-55.5 -32.5l106 -145l99 113h94
l-150 -174l140 -187h-104zM304 356q-36 -16 -67.5 -35.5t-57.5 -44.5q-52 -48 -52 -106q0 -43 34 -73q35 -29 78 -29q89 0 192 115zM334 453q136 60 136 132q0 29 -20.5 47t-53.5 18q-46 0 -76 -30t-30 -73q0 -45 44 -94z" />
    <glyph glyph-name="quotesingle" unicode="'" horiz-adv-x="207" 
d="M154 712h95l-82 -290h-54z" />
    <glyph glyph-name="parenleft" unicode="(" horiz-adv-x="297" 
d="M336 724q-44 -57 -72 -99q-28 -41 -64 -112q-73 -141 -73 -327q0 -180 80 -348h-74l-24 55l-17 41t-14 43t-15 62q-16 71 -16 147q0 181 71 322l34 63.5t28 47.5l31.5 46.5l41.5 58.5h83z" />
    <glyph glyph-name="parenright" unicode=")" horiz-adv-x="297" 
d="M-21 -162q43 57 72 99q28 41 64 112q73 141 73 327q0 180 -80 348h74l24 -55l17 -41t14 -43t15 -63q16 -70 16 -146q0 -91 -17.5 -171t-54.5 -152q-35 -69 -62 -110q-26 -41 -72 -105h-83z" />
    <glyph glyph-name="asterisk" unicode="*" horiz-adv-x="450" 
d="M253 712h75l-9 -132l123 49l23 -72l-127 -34l82 -100l-59 -45l-71 110l-71 -110l-61 45l84 100l-127 34l23 72l122 -49z" />
    <glyph glyph-name="plus" unicode="+" 
d="M244 484h78v-203h203v-78h-203v-203h-78v203h-202v78h202v203z" />
    <glyph glyph-name="comma" unicode="," horiz-adv-x="278" 
d="M-54 -190q32 73 56.5 141t41.5 133l99 12q-70 -180 -147 -295z" />
    <glyph glyph-name="hyphen" unicode="-" horiz-adv-x="310" 
d="M57 341h236l-15 -73h-237z" />
    <glyph glyph-name="period" unicode="." horiz-adv-x="278" 
d="M158 49q-3 -23 -21.5 -39t-41.5 -16t-37.5 16t-11.5 39q2 23 20.5 39.5t41.5 16.5t37.5 -16.5t12.5 -39.5z" />
    <glyph glyph-name="slash" unicode="/" horiz-adv-x="436" 
d="M451 741l61 -37l-510 -885l-60 37z" />
    <glyph glyph-name="zero" unicode="0" 
d="M364 724q93 0 141 -50t48 -162q0 -60 -12 -120l-14 -70q-18 -89 -46.5 -152t-66.5 -103.5t-86 -59t-105 -18.5q-92 0 -141 49.5t-49 160.5q0 59 13 123l14 70q18 88 46 151t66 103.5t86.5 59t105.5 18.5zM232 66q38 0 70 14.5t58.5 46t47 81t35.5 120.5l12 58
q15 76 15 118q0 76 -28.5 109t-85.5 33q-38 0 -70.5 -14t-59 -45.5t-47 -81t-35.5 -119.5l-12 -58q-15 -74 -15 -112q0 -81 27.5 -115.5t87.5 -34.5z" />
    <glyph glyph-name="one" unicode="1" 
d="M396 712h69l-151 -712h-82l126 594l-232 -163l22 104z" />
    <glyph glyph-name="two" unicode="2" 
d="M466 78l-16 -78h-433l13 63l353 316q92 83 92 152q0 24 -8.5 45t-24 36.5t-37 24.5t-46.5 9q-27 0 -55 -7t-54 -19.5t-49 -30t-41 -38.5l22 111q88 62 186 62q81 0 135 -51q55 -51 55 -127q0 -115 -120 -221l-278 -247h306z" />
    <glyph glyph-name="three" unicode="3" 
d="M194 344l14 71h62q75 0 122 38t47 92q0 43 -31 72.5t-77 29.5q-48 0 -94.5 -20t-78.5 -55l19 105q76 47 164 47q78 0 130 -47q51 -47 51 -118q0 -57 -30 -106t-87 -77q38 -20 58.5 -56t20.5 -78q0 -106 -80 -180q-79 -73 -195 -73q-99 0 -163 52l17 84q56 -59 153 -59
q72 0 128 47q57 48 57 117q0 47 -42 80q-40 34 -104 34h-61z" />
    <glyph glyph-name="four" unicode="4" 
d="M443 225h81l-16 -78h-82l-31 -147h-83l32 147h-348l16 74l466 491h68zM360 225l42 200q2 13 7 33l12 47l11 43t5 19h-8l-57 -67.5l-46 -51.5l-211 -223h245z" />
    <glyph glyph-name="five" unicode="5" 
d="M487 275q0 -115 -85 -200q-86 -86 -201 -86q-49 0 -96 16t-77 43l18 84q63 -66 160 -66q76 0 136 60q61 61 61 141q0 55 -34.5 91t-91.5 36q-70 0 -144 -43l-38 21l121 340h339l-16 -77h-270l-62 -176q40 13 78 13q88 0 145 -57q57 -56 57 -140z" />
    <glyph glyph-name="six" unicode="6" 
d="M410 712h98l-232 -260q27 6 51 6q85 0 144 -54q59 -53 59 -135q0 -110 -82 -195t-199 -85q-90 0 -151 56q-59 57 -59 141q0 65 29.5 120.5t84.5 117.5zM255 66q74 0 133 56t59 130q0 29 -10.5 53.5t-28.5 42.5t-43 28t-54 10q-68 0 -129 -56q-59 -56 -59 -132
q0 -27 9 -51t26.5 -42t42 -28.5t54.5 -10.5z" />
    <glyph glyph-name="seven" unicode="7" 
d="M462 634h-349l12 78h467l-6 -39l-465 -673h-99z" />
    <glyph glyph-name="eight" unicode="8" 
d="M42 168q0 60 41 124q40 64 117 94q-67 34 -67 121q0 91 73 154t162 63q75 0 123 -45q48 -44 48 -115q0 -39 -30 -93q-29 -54 -98 -85q48 -20 69.5 -59t21.5 -87q0 -103 -80 -177t-185 -74q-84 0 -140 50q-55 51 -55 129zM299 343q-61 0 -117 -47q-55 -46 -55 -114
q0 -51 34 -83.5t85 -32.5q61 0 116 49q56 50 56 118q0 25 -9.5 45.5t-26 34.5t-38 22t-45.5 8zM358 649q-53 0 -97 -40q-45 -41 -45 -93q0 -19 7.5 -36t21 -30t31.5 -20.5t39 -7.5q52 0 96 42q43 42 43 91q0 40 -27 67t-69 27z" />
    <glyph glyph-name="nine" unicode="9" 
d="M174 0h-98l232 260q-27 -6 -52 -6q-85 0 -144 53q-58 54 -58 136q0 110 82 195q83 86 199 86q91 0 150 -57t59 -141q0 -66 -29 -121.5t-84 -116.5zM329 646q-74 0 -133 -56t-59 -129q0 -60 38 -97.5t98 -37.5q70 0 128 55q60 55 60 132q0 27 -9 51.5t-26 42.5t-41.5 28.5
t-55.5 10.5z" />
    <glyph glyph-name="colon" unicode=":" horiz-adv-x="278" 
d="M158 49q-3 -23 -21.5 -39t-41.5 -16t-37.5 16t-11.5 39q2 23 20.5 39.5t41.5 16.5t37.5 -16.5t12.5 -39.5zM248 478q-3 -23 -21.5 -39t-41.5 -16t-37.5 16t-11.5 39q2 23 20.5 39.5t41.5 16.5t37.5 -16.5t12.5 -39.5z" />
    <glyph glyph-name="semicolon" unicode=";" horiz-adv-x="278" 
d="M245 478q-3 -23 -21.5 -39t-41.5 -16t-37.5 16t-11.5 39q2 23 20.5 39.5t41.5 16.5t37.5 -16.5t12.5 -39.5zM-54 -190q32 73 56.5 141t41.5 133l99 12q-70 -180 -147 -295z" />
    <glyph glyph-name="less" unicode="&#x3c;" 
d="M526 483v-83l-375 -159l375 -158v-82l-485 208v65z" />
    <glyph glyph-name="equal" unicode="=" 
d="M42 373h483v-78h-483v78zM42 188h483v-78h-483v78z" />
    <glyph glyph-name="greater" unicode="&#x3e;" 
d="M40 400v83l486 -209v-65l-486 -208v82l376 158z" />
    <glyph glyph-name="question" unicode="?" horiz-adv-x="489" 
d="M221 54q0 -24 -19.5 -42t-43.5 -18q-21 0 -35 13.5t-14 33.5q0 25 19.5 44.5t44.5 19.5q22 0 35 -14.5t13 -36.5zM341 724q72 0 116 -41t44 -107q0 -51 -24.5 -93.5t-60.5 -72.5q-25 -22 -53.5 -42.5t-53 -40t-42 -39t-21.5 -38.5l-13 -62h-80l14 69q8 38 36.5 72.5
t63.5 59.5l53 37t48.5 40t35 44t13.5 50q0 38 -25.5 62.5t-67.5 24.5q-64 0 -122 -54l22 101q57 30 117 30z" />
    <glyph glyph-name="at" unicode="@" horiz-adv-x="1015" 
d="M516 -225q-111 0 -196.5 35.5t-143 96t-87 141t-29.5 169.5q0 219 147 363t357 144q173 0 291 -103q119 -102 119 -266q0 -155 -80 -261q-80 -105 -173 -105q-78 0 -85 97q-81 -97 -185 -97q-89 0 -137 60q-47 61 -47 150q0 116 73 205q73 90 186 90q54 0 98 -31
q46 -32 65 -63q0 11 18 83h73l-73 -344q-5 -22 -5 -41q0 -18 9.5 -28t25.5 -10q61 0 110 85q51 85 51 196q0 150 -94 231q-95 81 -245 81q-176 0 -301 -125q-123 -125 -123 -305q0 -103 43 -186q21 -42 55 -77.5t78.5 -61t98.5 -39.5t116 -14zM469 61q66 0 119 59
q52 59 67 128l17 79q-66 92 -150 92q-81 0 -130 -66q-48 -66 -48 -146q0 -64 32.5 -105t92.5 -41z" />
    <glyph glyph-name="A" unicode="A" horiz-adv-x="708" 
d="M466 712l179 -712h-86l-39 166h-361l-103 -166h-93l454 712h49zM500 244l-58 243q-8 32 -12.5 56.5t-6.5 41.5h-5q-8 -17 -57 -99l-153 -242h292z" />
    <glyph glyph-name="B" unicode="B" horiz-adv-x="581" 
d="M245 634l-49 -234h121q33 0 61.5 9t49.5 27t33 44t12 61q0 45 -31 69t-83 24h-114zM179 322l-52 -244h145q70 0 122 38q52 39 52 111q0 46 -36 70.5t-99 24.5h-132zM556 549q0 -55 -32 -108t-79 -75q39 -17 61.5 -55.5t22.5 -83.5q0 -105 -79 -166q-77 -61 -179 -61h-242
l151 712h178q49 0 86 -12.5t62 -34t37.5 -51.5t12.5 -65z" />
    <glyph glyph-name="C" unicode="C" horiz-adv-x="635" 
d="M538 30q-88 -41 -168 -41q-134 0 -220 86q-86 88 -86 219q0 173 129 301q129 129 295 129q88 0 165 -45l-18 -85q-63 51 -151 51q-137 0 -237 -106q-100 -104 -100 -243q0 -100 62 -165q61 -64 168 -64q84 0 182 57z" />
    <glyph glyph-name="D" unicode="D" horiz-adv-x="693" 
d="M336 712q168 0 253 -85q86 -86 86 -211q0 -75 -29.5 -147t-84.5 -133q-54 -61 -141.5 -98.5t-196.5 -37.5h-194l151 712h156zM208 78q169 0 276 90q108 90 108 252q0 106 -72 160t-207 54h-67l-119 -556h81z" />
    <glyph glyph-name="E" unicode="E" horiz-adv-x="539" 
d="M29 0l151 712h394l-17 -78h-311l-47 -218h302l-16 -80h-303l-55 -258h312l-16 -78h-394z" />
    <glyph glyph-name="F" unicode="F" horiz-adv-x="491" 
d="M525 634h-279l-47 -221h269l-16 -78h-270l-71 -335h-82l151 712h361z" />
    <glyph glyph-name="G" unicode="G" horiz-adv-x="704" 
d="M373 287l17 80h270l-71 -336q-2 -1 -8.5 -2.5t-17.5 -5.5l-27 -8l-9 -3t-16 -4q-18 -4 -29.5 -5.5t-30.5 -3.5q-19 -3 -38 -4t-42 -1q-134 0 -221 84q-86 86 -86 216q0 173 129 301q129 129 295 129q100 0 189 -50l-18 -83q-89 54 -175 54q-137 0 -237 -105
q-100 -104 -100 -243q0 -99 62 -161q64 -62 169 -62q62 0 141 17l41 196h-187z" />
    <glyph glyph-name="H" unicode="H" horiz-adv-x="674" 
d="M545 416l63 296h83l-151 -712h-83l71 335h-346l-71 -335h-82l151 712h82l-63 -296h346z" />
    <glyph glyph-name="I" unicode="I" horiz-adv-x="245" 
d="M262 712l-151 -712h-82l151 712h82z" />
    <glyph glyph-name="J" unicode="J" horiz-adv-x="417" 
d="M352 712h82l-108 -509q-11 -51 -32.5 -90.5t-51.5 -67t-67 -42t-79 -14.5q-64 0 -98 28l19 95q37 -40 85 -40q47 0 88 35q40 36 54 96z" />
    <glyph glyph-name="K" unicode="K" horiz-adv-x="602" 
d="M262 712l-59 -278q-9 -44 -18 -71h6q18 24 51 55l325 294h113l-372 -334l223 -378h-97l-188 323l-83 -76l-52 -247h-82l151 712h82z" />
    <glyph glyph-name="L" unicode="L" horiz-adv-x="443" 
d="M262 712l-135 -634h251l-15 -78h-334l151 712h82z" />
    <glyph glyph-name="M" unicode="M" horiz-adv-x="816" 
d="M439 436l335 276h57l-151 -712h-83l97 452q7 37 27 114h-6q-26 -25 -46 -42.5l-33 -28.5l-213 -176l-139 176l-17.5 24.5t-31.5 46.5h-6q-8 -48 -21 -114l-96 -452h-82l151 712h41z" />
    <glyph glyph-name="N" unicode="N" horiz-adv-x="713" 
d="M243 712l246 -463l11 -22.5l14 -28.5l16 -35h5q0 18 20 109l92 440h83l-151 -712h-49l-256 480q-14 26 -24 47.5t-17 40.5h-5l-19 -102l-99 -466h-81l151 712h63z" />
    <glyph glyph-name="O" unicode="O" horiz-adv-x="814" 
d="M489 724q136 0 221 -88q87 -87 87 -220q0 -114 -61 -214q-62 -99 -160 -156t-205 -57q-134 0 -221 87q-86 89 -86 220q0 115 61 213q61 100 159 157q97 58 205 58zM377 68q137 0 237 103t100 242q0 101 -62 166q-62 66 -167 66q-137 0 -238 -104q-100 -103 -100 -242
q0 -101 62 -166q63 -65 168 -65z" />
    <glyph glyph-name="P" unicode="P" horiz-adv-x="565" 
d="M245 634l-63 -297h115q86 0 145 50q59 51 59 130q0 54 -40.5 85.5t-109.5 31.5h-106zM180 712h182q108 0 165 -51.5t57 -133.5q0 -71 -26.5 -121.5t-69 -83t-97.5 -48t-112 -15.5h-113l-55 -259h-82z" />
    <glyph glyph-name="Q" unicode="Q" horiz-adv-x="814" 
d="M764 77l-17 -77h-374q-133 0 -221 86q-87 85 -87 217q0 111 60 209q62 98 159 155t205 57q133 0 221 -86q87 -86 87 -216q0 -103 -58 -197q-57 -95 -153 -147v-3l1 -2q38 2 60.5 3t30.5 1h86zM484 645q-135 0 -235 -102q-101 -103 -101 -238q0 -99 62 -164
q61 -64 168 -64q136 0 236 103t100 239q0 97 -63 162q-61 64 -167 64z" />
    <glyph glyph-name="R" unicode="R" horiz-adv-x="574" 
d="M509 0h-92l-146 292h-99l-61 -292h-82l151 712h183q103 0 155.5 -47t52.5 -123q0 -90 -60 -157q-60 -68 -157 -87zM245 634l-56 -264h115q78 0 131 45t53 115q0 48 -36.5 76t-99.5 28h-107z" />
    <glyph glyph-name="S" unicode="S" horiz-adv-x="514" 
d="M460 227q0 -101 -75 -170q-76 -68 -176 -68q-108 0 -172 66l19 86q66 -73 156 -73q62 0 112 40q52 40 52 101q0 35 -27.5 64.5t-67.5 51.5l-59 34t-56.5 40.5t-42 50.5t-15.5 64q0 93 68 152q68 58 159 58q102 0 167 -59l-19 -86q-12 13 -30 25t-38 21t-41.5 14.5
t-40.5 5.5q-49 0 -96 -32q-45 -32 -45 -83q0 -30 27.5 -57t66.5 -49q29 -15 60 -34t56.5 -42.5t41.5 -53.5t16 -67z" />
    <glyph glyph-name="T" unicode="T" horiz-adv-x="483" 
d="M363 633l-134 -633h-83l134 633h-180l17 79h443l-17 -79h-180z" />
    <glyph glyph-name="U" unicode="U" horiz-adv-x="657" 
d="M579 252q-25 -119 -109 -192q-83 -71 -185 -71q-91 0 -152 54t-61 148q0 32 7 61l98 460h82l-97 -452q-6 -30 -6 -55q0 -66 36 -101t96 -35q70 0 131 50q60 50 80 141l96 452h82z" />
    <glyph glyph-name="V" unicode="V" horiz-adv-x="668" 
d="M643 712h95l-428 -712h-56l-152 712h86l91 -444q9 -44 21 -134h6l35 65.5l38 67.5z" />
    <glyph glyph-name="W" unicode="W" horiz-adv-x="907" 
d="M707 276l162 436h86l-262 -712h-85l-83 396q-8 35 -12.5 62.5t-6.5 48.5h-6q-35 -68 -60 -111l-239 -396h-88l14 712h80l-10 -436q-1 -41 -3 -76t-5 -66h6q40 78 78 141l239 401h38l82 -400q8 -37 13 -72t9 -70h6z" />
    <glyph glyph-name="X" unicode="X" horiz-adv-x="605" 
d="M69 0h-109l316 377l-150 335h91l80 -182q16 -38 33 -87h7l65 85l151 184h109l-292 -347l167 -365h-95l-94 215q-11 25 -19 45.5t-13 37.5h-7l-29.5 -41t-33.5 -42z" />
    <glyph glyph-name="Y" unicode="Y" horiz-adv-x="591" 
d="M572 712h100l-327 -417l-63 -295h-82l63 295l-151 417h90l86 -244q6 -17 12 -37.5l13 -45.5h6q9 16 24 36l35 45z" />
    <glyph glyph-name="Z" unicode="Z" horiz-adv-x="571" 
d="M511 78l-15 -78h-522l10 53l453 514q10 11 25.5 26.5t38.5 36.5l1 7q-45 -3 -96 -3h-278l14 78h490l-10 -53l-453 -513l-36 -36q-24 -24 -27 -28l-1 -7q45 3 87 3h319z" />
    <glyph glyph-name="bracketleft" unicode="[" horiz-adv-x="296" 
d="M363 677h-106l-167 -787h105l-16 -76h-187l200 940h187z" />
    <glyph glyph-name="backslash" unicode="\" horiz-adv-x="435" 
d="M323 -156l-80 -15l-132 886l78 13z" />
    <glyph glyph-name="bracketright" unicode="]" horiz-adv-x="297" 
d="M227 677h-106l16 77h188l-200 -940h-187l16 76h106z" />
    <glyph glyph-name="asciicircum" unicode="^" horiz-adv-x="556" 
d="M420 724l111 -419h-77l-88 335l-228 -335h-89l288 419h83z" />
    <glyph glyph-name="underscore" unicode="_" horiz-adv-x="498" 
d="M410 -100l-12 -59h-474l12 59h474z" />
    <glyph glyph-name="grave" unicode="`" horiz-adv-x="385" 
d="M383 594l-36 -45l-180 124l46 58z" />
    <glyph glyph-name="a" unicode="a" horiz-adv-x="656" 
d="M342 539q116 0 196 -102l18 90h80l-112 -527h-70l13 97q-96 -108 -212 -108q-103 0 -158 63q-55 64 -55 161q0 125 86 226q85 100 214 100zM273 62q84 0 146 60q62 61 82 147l19 87q-64 109 -170 109q-94 0 -160 -72t-66 -179q0 -70 38.5 -111t110.5 -41z" />
    <glyph glyph-name="b" unicode="b" horiz-adv-x="655" 
d="M614 314q0 -81 -37 -154q-36 -73 -107 -123q-71 -48 -158 -48q-57 0 -107 27t-84 73l-26 -89h-72l162 764h80l-69 -325q97 100 206 100q102 0 157 -64t55 -161zM307 62q96 0 160 73q65 74 65 178q0 70 -37.5 111t-109.5 41q-81 0 -146 -62q-64 -61 -82 -145l-19 -88
q67 -108 169 -108z" />
    <glyph glyph-name="c" unicode="c" horiz-adv-x="487" 
d="M397 20q-63 -31 -130 -31q-101 0 -162 63q-61 64 -61 161q0 136 95 231q97 95 218 95q71 0 126 -37l-18 -82q-45 45 -115 45q-85 0 -154 -70q-69 -71 -69 -174q0 -35 10.5 -64t30 -50t47 -33t61.5 -12q71 0 142 51z" />
    <glyph glyph-name="d" unicode="d" horiz-adv-x="656" 
d="M43 213q0 124 86 225t215 101q116 0 197 -93l67 318h79l-162 -764h-71l13 97q-29 -32 -55.5 -53t-52.5 -33t-52 -17t-53 -5q-102 0 -157 63q-54 64 -54 161zM351 465q-95 0 -161 -73q-65 -74 -65 -178q0 -70 38.5 -111t110.5 -41q83 0 146 60q64 61 82 146l20 94
q-27 46 -71.5 74.5t-99.5 28.5z" />
    <glyph glyph-name="e" unicode="e" horiz-adv-x="567" 
d="M432 33q-83 -44 -168 -44q-100 0 -161 64t-61 167q0 125 86 222q87 97 210 97q87 0 137.5 -56.5t50.5 -159.5q0 -12 -1.5 -29t-5.5 -39h-391q-1 -6 -1.5 -15t-0.5 -20q0 -72 39.5 -116.5t108.5 -44.5q95 0 178 66zM332 472q-31 0 -60 -11.5t-53.5 -32.5t-44.5 -50
t-33 -63h310v23q0 64 -32.5 99t-86.5 35z" />
    <glyph glyph-name="f" unicode="f" horiz-adv-x="330" 
d="M72 527h75l16 75q17 73 73 122q58 51 130 51q34 0 61 -6l-17 -76q-29 8 -46 8q-39 0 -76 -30q-37 -28 -46 -69l-16 -75h141l-14 -66h-141l-98 -461h-79l98 461h-75z" />
    <glyph glyph-name="g" unicode="g" horiz-adv-x="640" 
d="M546 527h73l-108 -512q-23 -104 -107 -171q-84 -69 -190 -69q-108 0 -190 54l18 81q74 -61 176 -61q63 0 131 50t83 122l18 86q-90 -98 -201 -98q-98 0 -151 62t-53 154q0 123 82 218q82 96 208 96q58 0 110 -31q51 -30 77 -69zM503 357q-9 16 -21 31.5t-33 34.5
q-20 19 -49 31t-62 12q-91 0 -151 -69q-60 -68 -60 -172q0 -67 36.5 -105.5t105.5 -38.5q79 0 141 60q61 60 78 143z" />
    <glyph glyph-name="h" unicode="h" horiz-adv-x="606" 
d="M264 764l-67 -316q85 91 180 91q84 0 126.5 -41t42.5 -116q0 -20 -2 -39t-6 -38l-64 -305h-79l62 296q4 19 5.5 33.5t1.5 25.5q0 57 -30.5 84t-79.5 27q-41 0 -85 -26q-22 -13 -38.5 -26t-28.5 -26l-23 -25l-78 -363h-79l163 764h79z" />
    <glyph glyph-name="i" unicode="i" horiz-adv-x="234" 
d="M253 645q0 -23 -18.5 -39.5t-41.5 -16.5q-22 0 -36 14.5t-14 36.5q0 24 19 42t43 18q20 0 34 -15t14 -40zM102 0h-79l111 527h80z" />
    <glyph glyph-name="j" unicode="j" horiz-adv-x="233" 
d="M-156 -149q18 -5 48 -5q24 0 44.5 9t36 25t26 36.5t15.5 44.5l121 566h78l-117 -551q-9 -44 -28 -81t-46.5 -63.5t-64.5 -41.5t-82 -15q-10 0 -21.5 1.5l-25.5 3.5zM253 645q0 -23 -18.5 -39.5t-41.5 -16.5q-22 0 -36 14.5t-14 36.5q0 24 19 42t43 18q20 0 34 -15t14 -40
z" />
    <glyph glyph-name="k" unicode="k" horiz-adv-x="518" 
d="M444 527h101l-274 -251l173 -276h-89l-140 230l-78 -67l-36 -163h-79l164 764h79l-84 -392l-23 -101h6q5 7 23.5 24.5l50.5 46.5z" />
    <glyph glyph-name="l" unicode="l" horiz-adv-x="233" 
d="M23 0l162 764h79l-162 -764h-79z" />
    <glyph glyph-name="m" unicode="m" horiz-adv-x="905" 
d="M689 539q73 0 115.5 -38.5t42.5 -113.5q0 -20 -1.5 -38.5t-5.5 -34.5l-66 -314h-79l62 298q4 21 6 37.5t2 28.5q0 101 -91 101q-59 0 -108 -46q-47 -44 -58 -89l-70 -330h-79l62 295q9 43 9 70q0 100 -91 100q-38 0 -78 -27t-60.5 -51.5t-23.5 -32.5l-75 -354h-79
l111 527h73l-11 -83l18.5 19l12.5 13t13.5 12l19.5 16q23 19 48.5 27t54.5 8q111 0 139 -103q82 103 187 103z" />
    <glyph glyph-name="n" unicode="n" horiz-adv-x="606" 
d="M134 527h72l-10 -81q90 93 181 93q84 0 126.5 -41t42.5 -116q0 -45 -7 -77l-65 -305h-79l63 295q6 25 6 60q0 110 -109 110q-41 0 -84 -25q-22 -13 -39 -25t-28 -25l-24 -25l-78 -365h-79z" />
    <glyph glyph-name="o" unicode="o" horiz-adv-x="625" 
d="M353 539q104 0 167 -67q63 -66 63 -167q0 -127 -92 -222q-91 -94 -218 -94q-104 0 -167 66t-63 166q0 129 91 223q92 95 219 95zM278 62q85 0 154 70t69 173q0 72 -45 116q-44 44 -108 44q-86 0 -155 -70q-68 -71 -68 -173q0 -72 44 -116q46 -44 109 -44z" />
    <glyph glyph-name="p" unicode="p" horiz-adv-x="656" 
d="M615 316q0 -127 -87 -227q-85 -100 -216 -100q-114 0 -194 89l-62 -294h-79l157 743h72l-15 -98q101 110 214 110q101 0 155 -64q55 -62 55 -159zM307 62q94 0 160 73t66 178q0 70 -39 111t-109 41q-86 0 -148 -61q-63 -60 -81 -146l-20 -97q28 -45 72 -72t99 -27z" />
    <glyph glyph-name="q" unicode="q" horiz-adv-x="656" 
d="M42 213q0 124 86 225q87 101 216 101q115 0 195 -102l26 90h71l-158 -743h-79l65 304q-95 -99 -209 -99q-103 0 -158 63q-55 64 -55 161zM350 465q-94 0 -160 -73q-66 -74 -66 -177q0 -72 39 -112.5t111 -40.5q84 0 146 61q63 61 81 147l18 85q-63 110 -169 110z" />
    <glyph glyph-name="r" unicode="r" horiz-adv-x="361" 
d="M196 443q16 20 37.5 36.5t46 28.5t50 19t49.5 7q3 0 10.5 -0.5t11.5 -0.5l-17 -80q-5 1 -10 1h-12q-164 0 -203 -189l-56 -265h-81l112 527h73z" />
    <glyph glyph-name="s" unicode="s" horiz-adv-x="424" 
d="M359 154q0 -71 -59 -118t-135 -47q-81 0 -141 42l10.5 46.5t6.5 35.5q49 -55 126 -55q41 0 75 22q35 23 35 60q0 28 -32 57q-16 14 -32.5 26.5t-35.5 23.5q-38 22 -69 57q-31 34 -31 74q0 68 55 114q56 47 132 47q68 0 131 -45l-18 -78q-53 52 -115 52q-35 0 -69 -21
q-34 -19 -34 -55q0 -27 31 -55q16 -14 33 -26.5t36 -23.5q36 -20 68 -57q32 -35 32 -76z" />
    <glyph glyph-name="t" unicode="t" horiz-adv-x="335" 
d="M267 -3q-23 -5 -48 -5q-75 0 -110 37t-35 100q0 34 7 61l58 271h-76l16 66h74l24 114l86 30l-31 -144h141l-15 -66h-140l-58 -280q-5 -28 -5 -33q0 -38 19.5 -61.5t64.5 -23.5q8 0 18.5 1.5l24.5 3.5z" />
    <glyph glyph-name="u" unicode="u" horiz-adv-x="607" 
d="M251 -11q-88 0 -138 45t-50 124q0 34 6 63l66 306h79l-63 -296q-7 -29 -7 -60q0 -110 114 -110q64 0 115 40.5t70 127.5l64 298h79l-65 -304q-22 -107 -95 -171q-72 -63 -175 -63z" />
    <glyph glyph-name="v" unicode="v" horiz-adv-x="553" 
d="M67 527h82l69 -295q16 -67 21 -113h5l31.5 58.5l31.5 53.5l185 296h92l-338 -527h-46z" />
    <glyph glyph-name="w" unicode="w" horiz-adv-x="803" 
d="M75 527h79l20 -298q1 -17 1.5 -45.5t0.5 -68.5h6q28 55 66 113l179 269h30l75 -268q16 -65 24 -114h5l27.5 70t19.5 44l135 298h83l-244 -527h-56l-81 276q-8 28 -13.5 51t-8.5 42h-5l-57 -94l-189 -275h-56z" />
    <glyph glyph-name="x" unicode="x" horiz-adv-x="535" 
d="M89 527h88l63 -124q13 -25 21 -43.5l13 -29.5h5q13 25 56 71l114 126h100l-239 -257l149 -270h-88l-76 148q-13 25 -21 42t-11 28h-5l-57 -68l-135 -150h-102l261 279z" />
    <glyph glyph-name="y" unicode="y" horiz-adv-x="558" 
d="M65 527h81l74 -285q9 -35 15 -61.5t8 -45.5h7l34 60t27 45l186 287h93l-493 -743h-87l180 269z" />
    <glyph glyph-name="z" unicode="z" horiz-adv-x="504" 
d="M104 527h419l-1 -4.5t-1.5 -9.5t-1.5 -9.5l-1 -4.5l-333 -365q-45 -49 -64 -64v-6q14 1 36 1.5t51 0.5h227l-14 -66h-442l5 25l342 374l32.5 34.5t23.5 22.5v6q-15 -1 -37 -1.5t-51 -0.5h-203z" />
    <glyph glyph-name="braceleft" unicode="{" horiz-adv-x="309" 
d="M387 754l-16 -73h-61q-31 0 -53.5 -28t-22.5 -73q0 -11 1.5 -29.5t5.5 -44.5q4 -25 6 -42.5t2 -28.5q0 -90 -90 -150q39 -35 39 -90q-2 -15 -2.5 -24t-1.5 -11q-6 -28 -52 -109q-46 -80 -46 -113q0 -23 12.5 -36t33.5 -13h61l-16 -73h-62q-51 0 -81.5 30.5t-30.5 78.5
q0 19 4 34q8 34 52 112q46 79 46 109q0 33 -21.5 50.5t-59.5 17.5l16 73q51 0 84 31t33 83q0 11 -2 28t-6 42t-5.5 43.5t-1.5 29.5q0 70 53 123t120 53h62z" />
    <glyph glyph-name="bar" unicode="|" horiz-adv-x="246" 
d="M183 764v-980h-75v980h75z" />
    <glyph glyph-name="braceright" unicode="}" horiz-adv-x="309" 
d="M142 754h62q51 0 81 -31t30 -80q0 -17 -3 -33q-4 -17 -17 -45.5t-36 -68.5q-45 -78 -45 -107q0 -32 21.5 -50t59.5 -18l-16 -73q-51 0 -84.5 -30t-33.5 -84q0 -11 2 -28.5t6 -42.5t6 -43t2 -30q0 -71 -54 -122q-52 -52 -119 -52h-61l15 73h61q31 0 53.5 27.5t22.5 72.5
q0 11 -2 29t-6 43t-5.5 42.5t-1.5 28.5q0 94 90 153q-39 34 -39 86q0 14 5 39q6 26 51 107t45 113q0 23 -12.5 37t-32.5 14h-61z" />
    <glyph glyph-name="asciitilde" unicode="~" horiz-adv-x="578" 
d="M23 173q17 79 56 120.5t96 41.5q51 0 143 -52q64 -37 93 -37q26 0 45.5 21t28.5 64h76q-16 -78 -55.5 -120t-96.5 -42q-51 0 -143 52q-64 37 -93 37q-58 0 -74 -85h-76z" />
    <glyph glyph-name="uni00A0" unicode="&#xa0;" horiz-adv-x="245" 
 />
    <glyph glyph-name="exclamdown" unicode="&#xa1;" horiz-adv-x="251" 
d="M175 295l-108 -511h-81l108 511h81zM160 384q-21 0 -35.5 14.5t-14.5 35.5q0 25 19 43t43 18q20 0 34 -14t14 -35q0 -25 -17.5 -43.5t-42.5 -18.5z" />
    <glyph glyph-name="cent" unicode="&#xa2;" horiz-adv-x="533" 
d="M405 19q-53 -28 -124 -31l-16 -73h-48l18 75q-86 15 -135 76t-49 147q0 131 90 224q92 95 211 102l14 67h47l-15 -68q52 -9 93 -36l-18 -82q-37 35 -91 44l-85 -403q73 11 128 51zM134 221q0 -60 31 -102t85 -55l85 401q-81 -12 -141 -81q-60 -68 -60 -163z" />
    <glyph glyph-name="sterling" unicode="&#xa3;" horiz-adv-x="561" 
d="M195 254l-37 -176h334l-17 -78h-491l17 78h77l37 176h-77l12 59h77l39 182q20 93 92 161q73 68 171 68q69 0 116 -35l-19 -88q-37 43 -101 43q-60 0 -112 -43q-53 -42 -66 -105l-39 -183h257l-13 -59h-257z" />
    <glyph glyph-name="currency" unicode="&#xa4;" 
d="M521 290q0 -68 -40 -126l66 -69l-52 -51l-69 66q-61 -42 -129 -42t-129 42l-68 -66l-53 51l67 69q-40 55 -40 126q0 67 41 125l-67 67l28 28q20 20 24 26l68 -68q58 42 129 42q73 0 129 -42l69 68l51 -53l-65 -68q40 -55 40 -125zM449 290q0 62 -44 106q-43 43 -108 43
t-108 -43t-43 -106q0 -61 44 -107q43 -45 107 -45q63 0 107 45q45 46 45 107z" />
    <glyph glyph-name="yen" unicode="&#xa5;" horiz-adv-x="596" 
d="M434 409l-74 -95h199l-13 -60h-209l-53 -254h-82l53 254h-206l13 60h197l-35 95h-142l13 60h108l-91 243h84l122 -318l256 318h102l-195 -243h111l-13 -60h-145z" />
    <glyph glyph-name="brokenbar" unicode="&#xa6;" horiz-adv-x="246" 
d="M181 775v-336h-74v336h74zM181 270v-335h-74v335h74z" />
    <glyph glyph-name="section" unicode="&#xa7;" horiz-adv-x="508" 
d="M290 210q108 57 108 123q0 33 -46 62q-12 8 -22.5 14l-21.5 12t-24.5 12.5l-31.5 15.5q-107 -59 -107 -124q0 -21 23 -44q26 -22 48 -35l31 -16t43 -20zM485 656q-56 40 -149 40q-44 0 -84 -27q-40 -25 -40 -59t42 -64q22 -14 45 -26.5t48 -23.5q49 -19 93 -58
q43 -37 43 -86q0 -103 -129 -185q59 -47 59 -108q0 -71 -63 -122q-61 -52 -154 -52q-91 0 -155 40l16 77q60 -39 150 -39q38 0 80 27q43 25 43 58q0 35 -43 63q-44 31 -93 50q-48 21 -93 59q-42 37 -42 86q0 102 129 185q-31 26 -45 49.5t-14 58.5q0 70 62 123t154 53
q89 0 156 -41z" />
    <glyph glyph-name="dieresis" unicode="&#xa8;" horiz-adv-x="392" 
d="M248 641q-3 -21 -20 -36t-38 -15q-20 0 -33 12t-13 31q0 24 17 42t41 18q20 0 33 -13t13 -33v-6zM373 693q20 0 33 -13t13 -33q0 -23 -18 -40t-40 -17q-20 0 -33 12t-13 31q0 24 17 42t41 18z" />
    <glyph glyph-name="copyright" unicode="&#xa9;" horiz-adv-x="825" 
d="M422 573q52 0 98 -25v-76q-47 35 -98 35q-64 0 -105 -44t-41 -107t41 -107t105 -44q51 0 98 35v-76q-49 -25 -98 -25q-88 0 -151 63q-62 65 -62 154t62 153q63 64 151 64zM409 724q152 0 259 -108q108 -107 108 -260q0 -152 -108 -260q-107 -107 -259 -107t-261 107
q-107 109 -107 260q0 153 107 260q108 108 261 108zM409 50q125 0 216 89q90 90 90 217t-90 216q-90 90 -216 90q-127 0 -217 -90q-89 -89 -89 -216q0 -126 89 -217q91 -89 217 -89z" />
    <glyph glyph-name="ordfeminine" unicode="&#xaa;" horiz-adv-x="424" 
d="M411 717h65l-69 -318h-56l7 49q-56 -56 -112 -56q-61 0 -95.5 38.5t-34.5 95.5q0 77 51 137q52 61 129 61q62 0 106 -54zM388 607q-32 57 -88 57q-49 0 -83 -39q-34 -37 -34 -94q0 -36 19.5 -58t56.5 -22q21 0 40.5 8.5t35.5 23t26.5 34t15.5 42.5zM84 328h308l-11 -58
h-309z" />
    <glyph glyph-name="guillemotleft" unicode="&#xab;" horiz-adv-x="477" 
d="M293 457l-174 -196l88 -189h-86l-91 195l168 190h95zM489 457l-175 -196l88 -189h-85l-91 195l168 190h95z" />
    <glyph glyph-name="logicalnot" unicode="&#xac;" 
d="M455 105v185h-405v78h483v-263h-78z" />
    <glyph glyph-name="registered" unicode="&#xae;" horiz-adv-x="450" 
d="M169 700q76 0 130 -55q54 -54 54 -131t-54 -131t-130 -54q-77 0 -132 54q-54 54 -54 131t54 131q55 55 132 55zM169 367q61 0 104 43q44 44 44 104q0 61 -44 105q-43 43 -104 43q-63 0 -106 -43t-43 -105q0 -61 43 -104t106 -43zM257 408h-50l-54 81h-11v-81h-39v214h62
q36 0 55 -18.5t19 -46.5q0 -47 -44 -64zM142 584v-56h23q34 0 34 29q0 27 -34 27h-23z" />
    <glyph glyph-name="macron" unicode="&#xaf;" horiz-adv-x="390" 
d="M155 672h257l-13 -60h-257z" />
    <glyph glyph-name="degree" unicode="&#xb0;" horiz-adv-x="399" 
d="M202 724q63 0 108 -46q46 -46 46 -109q0 -64 -46 -110q-45 -45 -108 -45q-64 0 -110 45q-45 46 -45 110t45 109q45 46 110 46zM202 475q19 0 36 7.5t29.5 20.5t19.5 30t7 36t-7 36t-19.5 29.5t-29.5 19.5t-37 7q-41 0 -67 -27t-26 -65q0 -19 7 -36t19.5 -30t29.5 -20.5
t38 -7.5z" />
    <glyph glyph-name="plusminus" unicode="&#xb1;" 
d="M44 -11v78h483v-78h-483zM246 530h78v-165h203v-78h-203v-163h-78v163h-202v78h202v165z" />
    <glyph glyph-name="twosuperior" unicode="&#xb2;" horiz-adv-x="305" 
d="M200 581h141l-11 -52h-230l9 41l178 160q42 42 42 69q0 23 -14.5 37.5t-37.5 14.5q-54 0 -111 -65l17 80q49 39 101 39q43 0 72.5 -27t29.5 -69q0 -57 -63 -115z" />
    <glyph glyph-name="threesuperior" unicode="&#xb3;" horiz-adv-x="280" 
d="M177 700l9 50h35q34 0 54.5 17t20.5 39q0 19 -13 32.5t-33 13.5q-49 0 -92 -37l13 60q43 30 86 30q42 0 69.5 -25t27.5 -62q0 -54 -55 -91q34 -27 34 -69q0 -57 -43 -96q-44 -39 -104 -39q-53 0 -86 27l12 57q29 -32 79 -32q15 0 30 6t27 16t19.5 23.5t7.5 28.5
q0 21 -20.5 36t-52.5 15h-25z" />
    <glyph glyph-name="acute" unicode="&#xb4;" horiz-adv-x="386" 
d="M185 549l-27 45l201 137l33 -58z" />
    <glyph glyph-name="mu" unicode="&#xb5;" horiz-adv-x="594" 
d="M-26 -216l157 743h79l-63 -298q-7 -27 -7 -58q0 -110 114 -110q27 0 52.5 10.5t47.5 25.5t38.5 31t25.5 27l9 11l76 361h78l-111 -527h-72l9 76q-92 -87 -183 -87q-78 0 -116 59l-55 -264h-79z" />
    <glyph glyph-name="paragraph" unicode="&#xb6;" horiz-adv-x="574" 
d="M642 712l-16 -72h-59l-162 -764h-71l162 764h-82l-163 -764h-71l91 426q-71 0 -119 45q-47 47 -47 120q0 104 77 175q76 70 190 70h270z" />
    <glyph glyph-name="periodcentered" unicode="&#xb7;" horiz-adv-x="394" 
d="M197 298q21 0 35.5 -15t14.5 -37q0 -24 -19 -41.5t-43 -17.5q-22 0 -36.5 13.5t-14.5 33.5q0 26 19 45t44 19z" />
    <glyph glyph-name="cedilla" unicode="&#xb8;" horiz-adv-x="406" 
d="M84 -88l35 88h34l-11 -53q28 0 44 -18.5t16 -45.5q0 -21 -8.5 -40t-23.5 -33.5t-36 -22.5t-46 -8q-32 0 -57 17l10 47q23 -14 45 -14q24 0 42.5 12t18.5 39q0 32 -43 32h-20z" />
    <glyph glyph-name="onesuperior" unicode="&#xb9;" horiz-adv-x="234" 
d="M266 899h44l-79 -370h-55l61 288l-116 -81l15 70z" />
    <glyph glyph-name="ordmasculine" unicode="&#xba;" horiz-adv-x="425" 
d="M444 582q0 -75 -56 -133q-56 -57 -132 -57q-32 0 -57.5 10.5t-43.5 29.5t-28 45t-10 56q0 77 55 133q55 58 132 58q31 0 57 -11t44.5 -30t28.5 -45t10 -56zM378 579q0 38 -23 61.5t-56 23.5q-45 0 -80 -38t-35 -91q0 -38 22 -61t56 -23q45 0 79 37q35 37 37 91zM82 328
h302l-12 -58h-301z" />
    <glyph glyph-name="guillemotright" unicode="&#xbb;" horiz-adv-x="477" 
d="M190 72l175 196l-88 189h86l91 -195l-169 -190h-95zM-5 72l174 196l-88 189h86l91 -195l-168 -190h-95z" />
    <glyph glyph-name="onequarter" unicode="&#xbc;" horiz-adv-x="756" 
d="M589 147h49l-13 -59h-49l-18 -88h-62l18 88h-208l12 54l282 297h51zM529 146l19 93l12 47q5 17 7.5 28.5t3.5 16.5h-7q-27 -36 -67 -76l-103 -109h135zM162 719h51l-93 -439h-61l73 348l-139 -97l17 79zM79 -17l-45 34l516 713l46 -33z" />
    <glyph glyph-name="onehalf" unicode="&#xbd;" horiz-adv-x="823" 
d="M507 59h173l-13 -59h-271l9 46l216 193q50 45 50 84q0 27 -18.5 45.5t-46.5 18.5q-69 0 -129 -76l19 90q55 45 115 45q25 0 47.5 -8.5t39.5 -24t26.5 -36t9.5 -44.5q0 -66 -72 -132zM162 719h51l-93 -439h-61l73 348l-139 -97l17 79zM79 -17l-45 34l516 713l46 -33z" />
    <glyph glyph-name="threequarters" unicode="&#xbe;" horiz-adv-x="804" 
d="M651 147h49l-13 -59h-49l-18 -88h-62l18 88h-208l12 54l282 297h51zM591 146l19 93l12 47q5 17 7.5 28.5t3.5 16.5h-7q-27 -36 -67 -76l-103 -109h135zM48 486l11 55h40q42 0 67 21.5t25 50.5q0 23 -16 39t-41 16q-63 0 -113 -50l16 74q52 34 103 34q24 0 45 -8
t36.5 -21.5t24.5 -32.5t9 -41q0 -65 -68 -109q42 -29 42 -82q0 -67 -51 -113q-49 -46 -123 -46q-65 0 -103 32l13 64q31 -37 95 -37q40 0 72 25q33 25 33 64q0 27 -24 46t-63 19h-30zM153 -17l-45 34l516 713l46 -33z" />
    <glyph glyph-name="questiondown" unicode="&#xbf;" horiz-adv-x="479" 
d="M299 384q-21 0 -35 14.5t-14 34.5q0 26 18.5 44t42.5 18q21 0 35 -13t14 -33q0 -26 -17.5 -45.5t-43.5 -19.5zM133 -225q-36 0 -65.5 11t-51 30.5t-33 46.5t-11.5 60q0 51 24.5 93.5t59.5 72.5q26 21 54.5 41.5t53 40.5t42 39t21.5 39l13 62h81l-15 -69q-8 -38 -37 -72.5
t-64 -60.5l-52 -37t-47.5 -39.5t-35 -43.5t-14.5 -50q0 -38 25.5 -62.5t67.5 -24.5q66 0 122 54l-22 -101q-57 -30 -116 -30z" />
    <glyph glyph-name="Agrave" unicode="&#xc0;" horiz-adv-x="708" 
d="M466 712l179 -712h-86l-39 166h-361l-103 -166h-93l454 712h49zM500 244l-58 243q-8 32 -12.5 56.5t-6.5 41.5h-5q-8 -17 -57 -99l-153 -242h292zM589 827l-36 -45l-180 124l46 58z" />
    <glyph glyph-name="Aacute" unicode="&#xc1;" horiz-adv-x="708" 
d="M466 712l179 -712h-86l-39 166h-361l-103 -166h-93l454 712h49zM500 244l-58 243q-8 32 -12.5 56.5t-6.5 41.5h-5q-8 -17 -57 -99l-153 -242h292zM389 782l-27 45l201 137l33 -58z" />
    <glyph glyph-name="Acircumflex" unicode="&#xc2;" horiz-adv-x="708" 
d="M466 712l179 -712h-86l-39 166h-361l-103 -166h-93l454 712h49zM500 244l-58 243q-8 32 -12.5 56.5t-6.5 41.5h-5q-8 -17 -57 -99l-153 -242h292zM643 833l-34 -42l-123 84l-142 -84l-29 43l177 125z" />
    <glyph glyph-name="Atilde" unicode="&#xc3;" horiz-adv-x="708" 
d="M466 712l179 -712h-86l-39 166h-361l-103 -166h-93l454 712h49zM500 244l-58 243q-8 32 -12.5 56.5t-6.5 41.5h-5q-8 -17 -57 -99l-153 -242h292zM535 824q-26 0 -63 19q-35 19 -54 19q-28 0 -53 -33l-44 31q45 63 107 63q25 0 63 -20q37 -19 53 -19q26 0 53 36l44 -33
q-50 -63 -106 -63z" />
    <glyph glyph-name="Adieresis" unicode="&#xc4;" horiz-adv-x="708" 
d="M466 712l179 -712h-86l-39 166h-361l-103 -166h-93l454 712h49zM500 244l-58 243q-8 32 -12.5 56.5t-6.5 41.5h-5q-8 -17 -57 -99l-153 -242h292zM446 874q-3 -21 -20 -36t-38 -15q-20 0 -33 12t-13 31q0 24 17 42t41 18q20 0 33 -13t13 -33v-6zM571 926q20 0 33 -13
t13 -33q0 -23 -18 -40t-40 -17q-20 0 -33 12t-13 31q0 24 17 42t41 18z" />
    <glyph glyph-name="Aring" unicode="&#xc5;" horiz-adv-x="708" 
d="M466 712l179 -712h-86l-39 166h-361l-103 -166h-93l454 712h49zM500 244l-58 243q-8 32 -12.5 56.5t-6.5 41.5h-5q-8 -17 -57 -99l-153 -242h292zM388 874q0 19 7 36.5t20 30.5t30 20.5t37 7.5q19 0 36.5 -7.5t30.5 -20.5t21 -30.5t9 -36.5q0 -20 -8 -37t-21.5 -30
t-31 -20.5t-37.5 -7.5t-37 7.5t-29.5 20.5t-19.5 30t-7 37zM434 874q0 -20 14 -34.5t33 -14.5q21 0 36 14.5t16 34.5q-2 20 -16.5 34.5t-34.5 14.5t-34.5 -14.5t-13.5 -34.5z" />
    <glyph glyph-name="AE" unicode="&#xc6;" horiz-adv-x="949" 
d="M968 634h-365v-218h309l-17 -80h-292v-258h247l-16 -78h-316v166h-322l-125 -166h-106l551 712h469zM256 244h262v356h-6q-20 -34 -45 -71t-56 -78z" />
    <glyph glyph-name="Ccedilla" unicode="&#xc7;" horiz-adv-x="635" 
d="M305 -88l31 79q-120 10 -197 95q-75 85 -75 208q0 173 129 301q129 129 295 129q88 0 165 -45l-18 -85q-63 51 -151 51q-137 0 -237 -106q-100 -104 -100 -243q0 -100 62 -165q61 -64 168 -64q84 0 182 57l-21 -94q-85 -40 -167 -41l-8 -42q28 0 44 -18.5t16 -45.5
q0 -21 -8.5 -40t-23.5 -33.5t-36 -22.5t-46 -8q-32 0 -57 17l10 47q23 -14 45 -14q24 0 42.5 12t18.5 39q0 32 -43 32h-20z" />
    <glyph glyph-name="Egrave" unicode="&#xc8;" horiz-adv-x="539" 
d="M29 0l151 712h394l-17 -78h-311l-47 -218h302l-16 -80h-303l-55 -258h312l-16 -78h-394zM521 827l-36 -45l-180 124l46 58z" />
    <glyph glyph-name="Eacute" unicode="&#xc9;" horiz-adv-x="539" 
d="M29 0l151 712h394l-17 -78h-311l-47 -218h302l-16 -80h-303l-55 -258h312l-16 -78h-394zM318 782l-27 45l201 137l33 -58z" />
    <glyph glyph-name="Ecircumflex" unicode="&#xca;" horiz-adv-x="539" 
d="M29 0l151 712h394l-17 -78h-311l-47 -218h302l-16 -80h-303l-55 -258h312l-16 -78h-394zM569 833l-34 -42l-123 84l-142 -84l-29 43l177 125z" />
    <glyph glyph-name="Edieresis" unicode="&#xcb;" horiz-adv-x="539" 
d="M29 0l151 712h394l-17 -78h-311l-47 -218h302l-16 -80h-303l-55 -258h312l-16 -78h-394zM380 874q-3 -21 -20 -36t-38 -15q-20 0 -33 12t-13 31q0 24 17 42t41 18q20 0 33 -13t13 -33v-6zM505 926q20 0 33 -13t13 -33q0 -23 -18 -40t-40 -17q-20 0 -33 12t-13 31
q0 24 17 42t41 18z" />
    <glyph glyph-name="Igrave" unicode="&#xcc;" horiz-adv-x="252" 
d="M262 712l-151 -712h-82l151 712h82zM365 827l-36 -45l-180 124l46 58z" />
    <glyph glyph-name="Iacute" unicode="&#xcd;" horiz-adv-x="253" 
d="M262 712l-151 -712h-82l151 712h82zM165 782l-27 45l201 137l33 -58z" />
    <glyph glyph-name="Icircumflex" unicode="&#xce;" horiz-adv-x="256" 
d="M262 712l-151 -712h-82l151 712h82zM416 833l-34 -42l-123 84l-142 -84l-29 43l177 125z" />
    <glyph glyph-name="Idieresis" unicode="&#xcf;" horiz-adv-x="255" 
d="M224 874q-3 -21 -20 -36t-38 -15q-20 0 -33 12t-13 31q0 24 17 42t41 18q20 0 33 -13t13 -33v-6zM349 926q20 0 33 -13t13 -33q0 -23 -18 -40t-40 -17q-20 0 -33 12t-13 31q0 24 17 42t41 18zM262 712l-151 -712h-82l151 712h82z" />
    <glyph glyph-name="Eth" unicode="&#xd0;" horiz-adv-x="693" 
d="M27 329l11 52h72l70 331h156q168 0 253 -85q86 -86 86 -211q0 -75 -29.5 -147t-84.5 -133q-54 -61 -141.5 -98.5t-196.5 -37.5h-194l70 329h-72zM208 78q169 0 276 90q108 90 108 252q0 106 -72 160t-207 54h-67l-55 -253h191l-11 -52h-191l-53 -251h81z" />
    <glyph glyph-name="Ntilde" unicode="&#xd1;" horiz-adv-x="713" 
d="M243 712l246 -463l11 -22.5l14 -28.5l16 -35h5q0 18 20 109l92 440h83l-151 -712h-49l-256 480q-14 26 -24 47.5t-17 40.5h-5l-19 -102l-99 -466h-81l151 712h63zM539 824q-26 0 -63 19q-35 19 -54 19q-28 0 -53 -33l-44 31q45 63 107 63q25 0 63 -20q37 -19 53 -19
q26 0 53 36l44 -33q-50 -63 -106 -63z" />
    <glyph glyph-name="Ograve" unicode="&#xd2;" horiz-adv-x="814" 
d="M489 724q136 0 221 -88q87 -87 87 -220q0 -114 -61 -214q-62 -99 -160 -156t-205 -57q-134 0 -221 87q-86 89 -86 220q0 115 61 213q61 100 159 157q97 58 205 58zM377 68q137 0 237 103t100 242q0 101 -62 166q-62 66 -167 66q-137 0 -238 -104q-100 -103 -100 -242
q0 -101 62 -166q63 -65 168 -65zM649 827l-36 -45l-180 124l46 58z" />
    <glyph glyph-name="Oacute" unicode="&#xd3;" horiz-adv-x="814" 
d="M489 724q136 0 221 -88q87 -87 87 -220q0 -114 -61 -214q-62 -99 -160 -156t-205 -57q-134 0 -221 87q-86 89 -86 220q0 115 61 213q61 100 159 157q97 58 205 58zM377 68q137 0 237 103t100 242q0 101 -62 166q-62 66 -167 66q-137 0 -238 -104q-100 -103 -100 -242
q0 -101 62 -166q63 -65 168 -65zM449 782l-27 45l201 137l33 -58z" />
    <glyph glyph-name="Ocircumflex" unicode="&#xd4;" horiz-adv-x="814" 
d="M489 724q136 0 221 -88q87 -87 87 -220q0 -114 -61 -214q-62 -99 -160 -156t-205 -57q-134 0 -221 87q-86 89 -86 220q0 115 61 213q61 100 159 157q97 58 205 58zM377 68q137 0 237 103t100 242q0 101 -62 166q-62 66 -167 66q-137 0 -238 -104q-100 -103 -100 -242
q0 -101 62 -166q63 -65 168 -65zM701 833l-34 -42l-123 84l-142 -84l-29 43l177 125z" />
    <glyph glyph-name="Otilde" unicode="&#xd5;" horiz-adv-x="814" 
d="M489 724q136 0 221 -88q87 -87 87 -220q0 -114 -61 -214q-62 -99 -160 -156t-205 -57q-134 0 -221 87q-86 89 -86 220q0 115 61 213q61 100 159 157q97 58 205 58zM377 68q137 0 237 103t100 242q0 101 -62 166q-62 66 -167 66q-137 0 -238 -104q-100 -103 -100 -242
q0 -101 62 -166q63 -65 168 -65zM595 824q-26 0 -63 19q-35 19 -54 19q-28 0 -53 -33l-44 31q45 63 107 63q25 0 63 -20q37 -19 53 -19q26 0 53 36l44 -33q-50 -63 -106 -63z" />
    <glyph glyph-name="Odieresis" unicode="&#xd6;" horiz-adv-x="814" 
d="M489 724q136 0 221 -88q87 -87 87 -220q0 -114 -61 -214q-62 -99 -160 -156t-205 -57q-134 0 -221 87q-86 89 -86 220q0 115 61 213q61 100 159 157q97 58 205 58zM377 68q137 0 237 103t100 242q0 101 -62 166q-62 66 -167 66q-137 0 -238 -104q-100 -103 -100 -242
q0 -101 62 -166q63 -65 168 -65zM510 874q-3 -21 -20 -36t-38 -15q-20 0 -33 12t-13 31q0 24 17 42t41 18q20 0 33 -13t13 -33v-6zM635 926q20 0 33 -13t13 -33q0 -23 -18 -40t-40 -17q-20 0 -33 12t-13 31q0 24 17 42t41 18z" />
    <glyph glyph-name="multiply" unicode="&#xd7;" 
d="M53 417l55 56l177 -176l177 176l55 -56l-177 -175l178 -177l-56 -55l-177 177l-178 -177l-55 55l177 177z" />
    <glyph glyph-name="Oslash" unicode="&#xd8;" horiz-adv-x="814" 
d="M489 724q98 0 174 -50l72 85l39 -34l-70 -83q93 -89 93 -226q0 -114 -61 -214q-62 -99 -160 -156t-205 -57q-98 0 -174 49l-70 -84l-39 34l69 82q-93 87 -93 226q0 115 61 213q61 100 159 157q97 58 205 58zM147 299q0 -103 63 -166l401 479q-53 33 -126 33
q-137 0 -238 -104q-100 -103 -100 -242zM377 68q137 0 237 103t100 242q0 101 -62 166l-402 -478q55 -33 127 -33z" />
    <glyph glyph-name="Ugrave" unicode="&#xd9;" horiz-adv-x="657" 
d="M579 252q-25 -119 -109 -192q-83 -71 -185 -71q-91 0 -152 54t-61 148q0 32 7 61l98 460h82l-97 -452q-6 -30 -6 -55q0 -66 36 -101t96 -35q70 0 131 50q60 50 80 141l96 452h82zM565 827l-36 -45l-180 124l46 58z" />
    <glyph glyph-name="Uacute" unicode="&#xda;" horiz-adv-x="657" 
d="M579 252q-25 -119 -109 -192q-83 -71 -185 -71q-91 0 -152 54t-61 148q0 32 7 61l98 460h82l-97 -452q-6 -30 -6 -55q0 -66 36 -101t96 -35q70 0 131 50q60 50 80 141l96 452h82zM368 782l-27 45l201 137l33 -58z" />
    <glyph glyph-name="Ucircumflex" unicode="&#xdb;" horiz-adv-x="657" 
d="M579 252q-25 -119 -109 -192q-83 -71 -185 -71q-91 0 -152 54t-61 148q0 32 7 61l98 460h82l-97 -452q-6 -30 -6 -55q0 -66 36 -101t96 -35q70 0 131 50q60 50 80 141l96 452h82zM619 833l-34 -42l-123 84l-142 -84l-29 43l177 125z" />
    <glyph glyph-name="Udieresis" unicode="&#xdc;" horiz-adv-x="657" 
d="M579 252q-25 -119 -109 -192q-83 -71 -185 -71q-91 0 -152 54t-61 148q0 32 7 61l98 460h82l-97 -452q-6 -30 -6 -55q0 -66 36 -101t96 -35q70 0 131 50q60 50 80 141l96 452h82zM428 874q-3 -21 -20 -36t-38 -15q-20 0 -33 12t-13 31q0 24 17 42t41 18q20 0 33 -13
t13 -33v-6zM553 926q20 0 33 -13t13 -33q0 -23 -18 -40t-40 -17q-20 0 -33 12t-13 31q0 24 17 42t41 18z" />
    <glyph glyph-name="Yacute" unicode="&#xdd;" horiz-adv-x="591" 
d="M572 712h100l-327 -417l-63 -295h-82l63 295l-151 417h90l86 -244q6 -17 12 -37.5l13 -45.5h6q9 16 24 36l35 45zM335 782l-27 45l201 137l33 -58z" />
    <glyph glyph-name="Thorn" unicode="&#xde;" horiz-adv-x="557" 
d="M174 712h82l-26 -122h103q115 0 171 -60q57 -59 46 -151q-9 -82 -55 -138q-46 -57 -109.5 -81t-141.5 -24h-110l-29 -136h-82zM213 512l-63 -297h114q80 0 135 43q57 43 67 113q10 64 -30 102.5t-115 38.5h-108z" />
    <glyph glyph-name="germandbls" unicode="&#xdf;" horiz-adv-x="558" 
d="M409 418q97 -52 97 -158q0 -125 -82 -198t-199 -73q-19 0 -34 1t-27 3l17 79q16 -6 51 -6q75 0 130 49q56 50 56 143q0 60 -41 91t-108 31h-23l16 74h21q80 0 119 44q39 45 39 105q0 42 -23.5 68.5t-68.5 26.5q-46 0 -83 -36q-39 -37 -49 -90l-122 -572h-81l122 573
q20 91 79 146q61 56 141 56q73 0 118 -46q46 -46 46 -117q0 -60 -31 -110.5t-80 -83.5z" />
    <glyph glyph-name="agrave" unicode="&#xe0;" horiz-adv-x="656" 
d="M342 539q116 0 196 -102l18 90h80l-112 -527h-70l13 97q-96 -108 -212 -108q-103 0 -158 63q-55 64 -55 161q0 125 86 226q85 100 214 100zM273 62q84 0 146 60q62 61 82 147l19 87q-64 109 -170 109q-94 0 -160 -72t-66 -179q0 -70 38.5 -111t110.5 -41zM492 641
l-36 -45l-180 124l46 58z" />
    <glyph glyph-name="aacute" unicode="&#xe1;" horiz-adv-x="656" 
d="M342 539q116 0 196 -102l18 90h80l-112 -527h-70l13 97q-96 -108 -212 -108q-103 0 -158 63q-55 64 -55 161q0 125 86 226q85 100 214 100zM273 62q84 0 146 60q62 61 82 147l19 87q-64 109 -170 109q-94 0 -160 -72t-66 -179q0 -70 38.5 -111t110.5 -41zM292 596l-27 45
l201 137l33 -58z" />
    <glyph glyph-name="acircumflex" unicode="&#xe2;" horiz-adv-x="656" 
d="M342 539q116 0 196 -102l18 90h80l-112 -527h-70l13 97q-96 -108 -212 -108q-103 0 -158 63q-55 64 -55 161q0 125 86 226q85 100 214 100zM273 62q84 0 146 60q62 61 82 147l19 87q-64 109 -170 109q-94 0 -160 -72t-66 -179q0 -70 38.5 -111t110.5 -41zM549 647
l-34 -42l-123 84l-142 -84l-29 43l177 125z" />
    <glyph glyph-name="atilde" unicode="&#xe3;" horiz-adv-x="656" 
d="M342 539q116 0 196 -102l18 90h80l-112 -527h-70l13 97q-96 -108 -212 -108q-103 0 -158 63q-55 64 -55 161q0 125 86 226q85 100 214 100zM273 62q84 0 146 60q62 61 82 147l19 87q-64 109 -170 109q-94 0 -160 -72t-66 -179q0 -70 38.5 -111t110.5 -41zM438 638
q-26 0 -63 19q-35 19 -54 19q-28 0 -53 -33l-44 31q45 63 107 63q25 0 63 -20q37 -19 53 -19q26 0 53 36l44 -33q-50 -63 -106 -63z" />
    <glyph glyph-name="adieresis" unicode="&#xe4;" horiz-adv-x="656" 
d="M342 539q116 0 196 -102l18 90h80l-112 -527h-70l13 97q-96 -108 -212 -108q-103 0 -158 63q-55 64 -55 161q0 125 86 226q85 100 214 100zM273 62q84 0 146 60q62 61 82 147l19 87q-64 109 -170 109q-94 0 -160 -72t-66 -179q0 -70 38.5 -111t110.5 -41zM360 688
q-3 -21 -20 -36t-38 -15q-20 0 -33 12t-13 31q0 24 17 42t41 18q20 0 33 -13t13 -33v-6zM485 740q20 0 33 -13t13 -33q0 -23 -18 -40t-40 -17q-20 0 -33 12t-13 31q0 24 17 42t41 18z" />
    <glyph glyph-name="aring" unicode="&#xe5;" horiz-adv-x="656" 
d="M342 539q116 0 196 -102l18 90h80l-112 -527h-70l13 97q-96 -108 -212 -108q-103 0 -158 63q-55 64 -55 161q0 125 86 226q85 100 214 100zM273 62q84 0 146 60q62 61 82 147l19 87q-64 109 -170 109q-94 0 -160 -72t-66 -179q0 -70 38.5 -111t110.5 -41zM291 688
q0 19 7 36.5t20 30.5t30 20.5t37 7.5q19 0 36.5 -7.5t30.5 -20.5t21 -30.5t9 -36.5q0 -20 -8 -37t-21.5 -30t-31 -20.5t-37.5 -7.5t-37 7.5t-29.5 20.5t-19.5 30t-7 37zM337 688q0 -20 14 -34.5t33 -14.5q21 0 36 14.5t16 34.5q-2 20 -16.5 34.5t-34.5 14.5q-21 0 -35 -14.5
t-13 -34.5z" />
    <glyph glyph-name="ae" unicode="&#xe6;" horiz-adv-x="925" 
d="M697 539q42 0 77 -13.5t59.5 -40t38.5 -64.5t14 -86q0 -39 -9 -79h-389q-1 -7 -1.5 -15t-0.5 -19q0 -36 10 -66t29 -51.5t46 -33.5t61 -12q100 0 180 70l-17 -91q-89 -49 -169 -49q-67 0 -117.5 30t-77.5 87q-42 -54 -105.5 -85.5t-139.5 -31.5q-160 0 -160 128
q0 44 16.5 80.5t48 63t78 41t106.5 14.5h139l6 31q2 10 2 21q0 47 -39 74q-38 27 -87 27q-80 0 -153 -37l14 76q78 31 143 31q69 0 117.5 -27t67.5 -75q94 102 212 102zM403 256h-136q-162 0 -162 -129q0 -70 101 -70q70 0 123 43q55 44 65 105zM812 316q1 5 1.5 13t0.5 19
q0 60 -34 91.5t-88 31.5q-31 0 -60 -11.5t-53.5 -31.5t-44.5 -49t-33 -63h311z" />
    <glyph glyph-name="ccedilla" unicode="&#xe7;" horiz-adv-x="487" 
d="M205 -88l31 79q-88 10 -140 71t-52 151q0 136 95 231q97 95 218 95q71 0 126 -37l-18 -82q-45 45 -115 45q-85 0 -154 -70q-69 -71 -69 -174q0 -35 10.5 -64t30 -50t47 -33t61.5 -12q71 0 142 51l-21 -93q-60 -29 -126 -31l-8 -42q28 0 44 -18.5t16 -45.5q0 -21 -8.5 -40
t-23.5 -33.5t-36 -22.5t-46 -8q-32 0 -57 17l10 47q23 -14 45 -14q24 0 42.5 12t18.5 39q0 32 -43 32h-20z" />
    <glyph glyph-name="egrave" unicode="&#xe8;" horiz-adv-x="567" 
d="M432 33q-83 -44 -168 -44q-100 0 -161 64t-61 167q0 125 86 222q87 97 210 97q87 0 137.5 -56.5t50.5 -159.5q0 -12 -1.5 -29t-5.5 -39h-391q-1 -6 -1.5 -15t-0.5 -20q0 -72 39.5 -116.5t108.5 -44.5q95 0 178 66zM332 472q-31 0 -60 -11.5t-53.5 -32.5t-44.5 -50
t-33 -63h310v23q0 64 -32.5 99t-86.5 35zM485 641l-36 -45l-180 124l46 58z" />
    <glyph glyph-name="eacute" unicode="&#xe9;" horiz-adv-x="567" 
d="M432 33q-83 -44 -168 -44q-100 0 -161 64t-61 167q0 125 86 222q87 97 210 97q87 0 137.5 -56.5t50.5 -159.5q0 -12 -1.5 -29t-5.5 -39h-391q-1 -6 -1.5 -15t-0.5 -20q0 -72 39.5 -116.5t108.5 -44.5q95 0 178 66zM332 472q-31 0 -60 -11.5t-53.5 -32.5t-44.5 -50
t-33 -63h310v23q0 64 -32.5 99t-86.5 35zM284 596l-27 45l201 137l33 -58z" />
    <glyph glyph-name="ecircumflex" unicode="&#xea;" horiz-adv-x="567" 
d="M432 33q-83 -44 -168 -44q-100 0 -161 64t-61 167q0 125 86 222q87 97 210 97q87 0 137.5 -56.5t50.5 -159.5q0 -12 -1.5 -29t-5.5 -39h-391q-1 -6 -1.5 -15t-0.5 -20q0 -72 39.5 -116.5t108.5 -44.5q95 0 178 66zM332 472q-31 0 -60 -11.5t-53.5 -32.5t-44.5 -50
t-33 -63h310v23q0 64 -32.5 99t-86.5 35zM537 647l-34 -42l-123 84l-142 -84l-29 43l177 125z" />
    <glyph glyph-name="edieresis" unicode="&#xeb;" horiz-adv-x="567" 
d="M432 33q-83 -44 -168 -44q-100 0 -161 64t-61 167q0 125 86 222q87 97 210 97q87 0 137.5 -56.5t50.5 -159.5q0 -12 -1.5 -29t-5.5 -39h-391q-1 -6 -1.5 -15t-0.5 -20q0 -72 39.5 -116.5t108.5 -44.5q95 0 178 66zM332 472q-31 0 -60 -11.5t-53.5 -32.5t-44.5 -50
t-33 -63h310v23q0 64 -32.5 99t-86.5 35zM341 688q-3 -21 -20 -36t-38 -15q-20 0 -33 12t-13 31q0 24 17 42t41 18q20 0 33 -13t13 -33v-6zM466 740q20 0 33 -13t13 -33q0 -23 -18 -40t-40 -17q-20 0 -33 12t-13 31q0 24 17 42t41 18z" />
    <glyph glyph-name="igrave" unicode="&#xec;" horiz-adv-x="235" 
d="M222 527l-112 -527h-81l112 527h81zM317 641l-36 -45l-180 124l46 58z" />
    <glyph glyph-name="iacute" unicode="&#xed;" horiz-adv-x="235" 
d="M222 527l-112 -527h-81l112 527h81zM119 596l-27 45l201 137l33 -58z" />
    <glyph glyph-name="icircumflex" unicode="&#xee;" horiz-adv-x="235" 
d="M222 527l-112 -527h-81l112 527h81zM372 647l-34 -42l-123 84l-142 -84l-29 43l177 125z" />
    <glyph glyph-name="idieresis" unicode="&#xef;" horiz-adv-x="235" 
d="M175 688q-3 -21 -20 -36t-38 -15q-20 0 -33 12t-13 31q0 24 17 42t41 18q20 0 33 -13t13 -33v-6zM300 740q20 0 33 -13t13 -33q0 -23 -18 -40t-40 -17q-20 0 -33 12t-13 31q0 24 17 42t41 18zM222 527l-112 -527h-81l112 527h81z" />
    <glyph glyph-name="eth" unicode="&#xf0;" horiz-adv-x="608" 
d="M495 756l-94 -79q180 -119 180 -298q0 -165 -105 -277q-104 -113 -231 -113q-95 0 -153 57q-59 57 -59 144q0 121 91 211q91 91 210 91q87 0 143 -56q-24 110 -141 187l-110 -93l-33 40l95 80q-37 17 -72.5 29t-70.5 18l15 78q54 -13 102 -30.5t91 -40.5l109 92zM256 63
q79 0 147 72q69 73 88 179q-55 103 -166 103q-81 0 -145 -64q-63 -63 -63 -148q0 -30 10 -56t28 -45t43.5 -30t57.5 -11z" />
    <glyph glyph-name="ntilde" unicode="&#xf1;" horiz-adv-x="606" 
d="M134 527h72l-10 -81q90 93 181 93q84 0 126.5 -41t42.5 -116q0 -45 -7 -77l-65 -305h-79l63 295q6 25 6 60q0 110 -109 110q-41 0 -84 -25q-22 -13 -39 -25t-28 -25l-24 -25l-78 -365h-79zM454 638q-26 0 -63 19q-35 19 -54 19q-28 0 -53 -33l-44 31q45 63 107 63
q25 0 63 -20q37 -19 53 -19q26 0 53 36l44 -33q-50 -63 -106 -63z" />
    <glyph glyph-name="ograve" unicode="&#xf2;" horiz-adv-x="625" 
d="M353 539q104 0 167 -67q63 -66 63 -167q0 -127 -92 -222q-91 -94 -218 -94q-104 0 -167 66t-63 166q0 129 91 223q92 95 219 95zM278 62q85 0 154 70t69 173q0 72 -45 116q-44 44 -108 44q-86 0 -155 -70q-68 -71 -68 -173q0 -72 44 -116q46 -44 109 -44zM502 641
l-36 -45l-180 124l46 58z" />
    <glyph glyph-name="oacute" unicode="&#xf3;" horiz-adv-x="625" 
d="M353 539q104 0 167 -67q63 -66 63 -167q0 -127 -92 -222q-91 -94 -218 -94q-104 0 -167 66t-63 166q0 129 91 223q92 95 219 95zM278 62q85 0 154 70t69 173q0 72 -45 116q-44 44 -108 44q-86 0 -155 -70q-68 -71 -68 -173q0 -72 44 -116q46 -44 109 -44zM304 596l-27 45
l201 137l33 -58z" />
    <glyph glyph-name="ocircumflex" unicode="&#xf4;" horiz-adv-x="625" 
d="M353 539q104 0 167 -67q63 -66 63 -167q0 -127 -92 -222q-91 -94 -218 -94q-104 0 -167 66t-63 166q0 129 91 223q92 95 219 95zM278 62q85 0 154 70t69 173q0 72 -45 116q-44 44 -108 44q-86 0 -155 -70q-68 -71 -68 -173q0 -72 44 -116q46 -44 109 -44zM554 647
l-34 -42l-123 84l-142 -84l-29 43l177 125z" />
    <glyph glyph-name="otilde" unicode="&#xf5;" horiz-adv-x="625" 
d="M353 539q104 0 167 -67q63 -66 63 -167q0 -127 -92 -222q-91 -94 -218 -94q-104 0 -167 66t-63 166q0 129 91 223q92 95 219 95zM278 62q85 0 154 70t69 173q0 72 -45 116q-44 44 -108 44q-86 0 -155 -70q-68 -71 -68 -173q0 -72 44 -116q46 -44 109 -44zM448 638
q-26 0 -63 19q-35 19 -54 19q-28 0 -53 -33l-44 31q45 63 107 63q25 0 63 -20q37 -19 53 -19q26 0 53 36l44 -33q-50 -63 -106 -63z" />
    <glyph glyph-name="odieresis" unicode="&#xf6;" horiz-adv-x="625" 
d="M353 539q104 0 167 -67q63 -66 63 -167q0 -127 -92 -222q-91 -94 -218 -94q-104 0 -167 66t-63 166q0 129 91 223q92 95 219 95zM278 62q85 0 154 70t69 173q0 72 -45 116q-44 44 -108 44q-86 0 -155 -70q-68 -71 -68 -173q0 -72 44 -116q46 -44 109 -44zM361 688
q-3 -21 -20 -36t-38 -15q-20 0 -33 12t-13 31q0 24 17 42t41 18q20 0 33 -13t13 -33v-6zM486 740q20 0 33 -13t13 -33q0 -23 -18 -40t-40 -17q-20 0 -33 12t-13 31q0 24 17 42t41 18z" />
    <glyph glyph-name="divide" unicode="&#xf7;" 
d="M34 206v78h483v-78h-483zM236 88q16 17 39 17t39 -17q17 -16 17 -39t-17 -39q-16 -16 -39 -16t-39 16t-16 39t16 39zM331 435q0 -22 -16.5 -38t-39.5 -16t-39 16t-16 38q0 23 16 39.5t39 16.5t39.5 -16.5t16.5 -39.5z" />
    <glyph glyph-name="oslash" unicode="&#xf8;" horiz-adv-x="625" 
d="M353 539q71 0 130 -36l55 66l38 -30l-55 -67q62 -68 62 -167q0 -127 -92 -222q-91 -94 -218 -94q-74 0 -130 34l-56 -66q-10 8 -19 16t-17 16l55 64q-63 67 -63 168q0 129 91 223q92 95 219 95zM278 62q85 0 154 70t69 173q0 57 -34 103l-272 -324q37 -22 83 -22z
M125 222q0 -59 34 -105l273 324q-38 24 -84 24q-86 0 -155 -70q-68 -71 -68 -173z" />
    <glyph glyph-name="ugrave" unicode="&#xf9;" horiz-adv-x="607" 
d="M251 -11q-88 0 -138 45t-50 124q0 34 6 63l66 306h79l-63 -296q-7 -29 -7 -60q0 -110 114 -110q64 0 115 40.5t70 127.5l64 298h79l-65 -304q-22 -107 -95 -171q-72 -63 -175 -63zM496 641l-36 -45l-180 124l46 58z" />
    <glyph glyph-name="uacute" unicode="&#xfa;" horiz-adv-x="607" 
d="M251 -11q-88 0 -138 45t-50 124q0 34 6 63l66 306h79l-63 -296q-7 -29 -7 -60q0 -110 114 -110q64 0 115 40.5t70 127.5l64 298h79l-65 -304q-22 -107 -95 -171q-72 -63 -175 -63zM298 596l-27 45l201 137l33 -58z" />
    <glyph glyph-name="ucircumflex" unicode="&#xfb;" horiz-adv-x="607" 
d="M251 -11q-88 0 -138 45t-50 124q0 34 6 63l66 306h79l-63 -296q-7 -29 -7 -60q0 -110 114 -110q64 0 115 40.5t70 127.5l64 298h79l-65 -304q-22 -107 -95 -171q-72 -63 -175 -63zM551 647l-34 -42l-123 84l-142 -84l-29 43l177 125z" />
    <glyph glyph-name="udieresis" unicode="&#xfc;" horiz-adv-x="607" 
d="M251 -11q-88 0 -138 45t-50 124q0 34 6 63l66 306h79l-63 -296q-7 -29 -7 -60q0 -110 114 -110q64 0 115 40.5t70 127.5l64 298h79l-65 -304q-22 -107 -95 -171q-72 -63 -175 -63zM354 688q-3 -21 -20 -36t-38 -15q-20 0 -33 12t-13 31q0 24 17 42t41 18q20 0 33 -13
t13 -33v-6zM479 740q20 0 33 -13t13 -33q0 -23 -18 -40t-40 -17q-20 0 -33 12t-13 31q0 24 17 42t41 18z" />
    <glyph glyph-name="yacute" unicode="&#xfd;" horiz-adv-x="558" 
d="M65 527h81l74 -285q9 -35 15 -61.5t8 -45.5h7l34 60t27 45l186 287h93l-493 -743h-87l180 269zM271 596l-27 45l201 137l33 -58z" />
    <glyph glyph-name="thorn" unicode="&#xfe;" horiz-adv-x="655" 
d="M614 317q0 -80 -39 -155q-37 -74 -110 -124q-71 -49 -159 -49q-111 0 -188 92l-63 -297h-78l208 980h78l-70 -332q96 107 211 107q101 0 155 -64q55 -62 55 -158zM307 61q95 0 160 75q65 76 65 176q0 70 -39.5 112t-109.5 42q-81 0 -146 -62q-63 -62 -81 -147l-18 -84
q67 -112 169 -112z" />
    <glyph glyph-name="ydieresis" unicode="&#xff;" horiz-adv-x="558" 
d="M65 527h81l74 -285q9 -35 15 -61.5t8 -45.5h7l34 60t27 45l186 287h93l-493 -743h-87l180 269zM328 688q-3 -21 -20 -36t-38 -15q-20 0 -33 12t-13 31q0 24 17 42t41 18q20 0 33 -13t13 -33v-6zM453 740q20 0 33 -13t13 -33q0 -23 -18 -40t-40 -17q-20 0 -33 12t-13 31
q0 24 17 42t41 18z" />
    <glyph glyph-name="Amacron" unicode="&#x100;" horiz-adv-x="708" 
d="M466 712l179 -712h-86l-39 166h-361l-103 -166h-93l454 712h49zM500 244l-58 243q-8 32 -12.5 56.5t-6.5 41.5h-5q-8 -17 -57 -99l-153 -242h292zM359 905h257l-13 -60h-257z" />
    <glyph glyph-name="amacron" unicode="&#x101;" horiz-adv-x="656" 
d="M342 539q116 0 196 -102l18 90h80l-112 -527h-70l13 97q-96 -108 -212 -108q-103 0 -158 63q-55 64 -55 161q0 125 86 226q85 100 214 100zM273 62q84 0 146 60q62 61 82 147l19 87q-64 109 -170 109q-94 0 -160 -72t-66 -179q0 -70 38.5 -111t110.5 -41zM263 719h257
l-13 -60h-257z" />
    <glyph glyph-name="Abreve" unicode="&#x102;" horiz-adv-x="708" 
d="M466 712l179 -712h-86l-39 166h-361l-103 -166h-93l454 712h49zM500 244l-58 243q-8 32 -12.5 56.5t-6.5 41.5h-5q-8 -17 -57 -99l-153 -242h292zM644 916q-56 -111 -173 -111q-51 0 -91.5 27t-60.5 84l57 23q23 -74 101 -74q80 0 119 74z" />
    <glyph glyph-name="abreve" unicode="&#x103;" horiz-adv-x="656" 
d="M342 539q116 0 196 -102l18 90h80l-112 -527h-70l13 97q-96 -108 -212 -108q-103 0 -158 63q-55 64 -55 161q0 125 86 226q85 100 214 100zM273 62q84 0 146 60q62 61 82 147l19 87q-64 109 -170 109q-94 0 -160 -72t-66 -179q0 -70 38.5 -111t110.5 -41zM549 730
q-56 -111 -173 -111q-51 0 -91.5 27t-60.5 84l57 23q23 -74 101 -74q80 0 119 74z" />
    <glyph glyph-name="Aogonek" unicode="&#x104;" horiz-adv-x="708" 
d="M584 -190q-35 -12 -47 -12q-40 0 -63 19t-23 52q0 38 30 72t78 59l-39 166h-361l-103 -166h-93l454 712h49l179 -712h-6q-44 -16 -86 -52q-41 -36 -41 -66q0 -13 10 -21.5t25 -8.5q27 0 50 17zM500 244l-58 243q-8 32 -12.5 56.5t-6.5 41.5h-5q-8 -17 -57 -99l-153 -242
h292z" />
    <glyph glyph-name="aogonek" unicode="&#x105;" horiz-adv-x="656" 
d="M477 -190q-35 -12 -47 -12q-40 0 -63 19t-23 52q0 73 110 132l13 96q-96 -108 -212 -108q-103 0 -158 63q-55 64 -55 161q0 125 86 226q85 100 214 100q116 0 196 -102l18 90h80l-112 -526q-37 -16 -79 -53q-40 -37 -40 -66q0 -13 10 -21.5t25 -8.5q27 0 50 17zM273 62
q83 0 146 60q64 61 82 147l19 87q-64 109 -170 109q-94 0 -160 -72t-66 -179q0 -70 38.5 -111t110.5 -41z" />
    <glyph glyph-name="Cacute" unicode="&#x106;" horiz-adv-x="635" 
d="M538 30q-88 -41 -168 -41q-134 0 -220 86q-86 88 -86 219q0 173 129 301q129 129 295 129q88 0 165 -45l-18 -85q-63 51 -151 51q-137 0 -237 -106q-100 -104 -100 -243q0 -100 62 -165q61 -64 168 -64q84 0 182 57zM432 782l-27 45l201 137l33 -58z" />
    <glyph glyph-name="cacute" unicode="&#x107;" horiz-adv-x="487" 
d="M397 20q-63 -31 -130 -31q-101 0 -162 63q-61 64 -61 161q0 136 95 231q97 95 218 95q71 0 126 -37l-18 -82q-45 45 -115 45q-85 0 -154 -70q-69 -71 -69 -174q0 -35 10.5 -64t30 -50t47 -33t61.5 -12q71 0 142 51zM298 596l-27 45l201 137l33 -58z" />
    <glyph glyph-name="Ccircumflex" unicode="&#x108;" horiz-adv-x="636" 
d="M538 30q-88 -41 -168 -41q-134 0 -220 86q-86 88 -86 219q0 173 129 301q129 129 295 129q88 0 165 -45l-18 -85q-63 51 -151 51q-137 0 -237 -106q-100 -104 -100 -243q0 -100 62 -165q61 -64 168 -64q84 0 182 57zM681 833l-34 -42l-123 84l-142 -84l-29 43l177 125z
" />
    <glyph glyph-name="ccircumflex" unicode="&#x109;" horiz-adv-x="487" 
d="M397 20q-63 -31 -130 -31q-101 0 -162 63q-61 64 -61 161q0 136 95 231q97 95 218 95q71 0 126 -37l-18 -82q-45 45 -115 45q-85 0 -154 -70q-69 -71 -69 -174q0 -35 10.5 -64t30 -50t47 -33t61.5 -12q71 0 142 51zM544 647l-34 -42l-123 84l-142 -84l-29 43l177 125z
" />
    <glyph glyph-name="Cdotaccent" unicode="&#x10a;" horiz-adv-x="635" 
d="M538 30q-88 -41 -168 -41q-134 0 -220 86q-86 88 -86 219q0 173 129 301q129 129 295 129q88 0 165 -45l-18 -85q-63 51 -151 51q-137 0 -237 -106q-100 -104 -100 -243q0 -100 62 -165q61 -64 168 -64q84 0 182 57zM580 876q0 -21 -18 -37t-41 -16q-20 0 -33 12t-13 31
q0 24 17.5 42t41.5 18q20 0 33 -14t13 -36z" />
    <glyph glyph-name="cdotaccent" unicode="&#x10b;" horiz-adv-x="487" 
d="M397 20q-63 -31 -130 -31q-101 0 -162 63q-61 64 -61 161q0 136 95 231q97 95 218 95q71 0 126 -37l-18 -82q-45 45 -115 45q-85 0 -154 -70q-69 -71 -69 -174q0 -35 10.5 -64t30 -50t47 -33t61.5 -12q71 0 142 51zM446 690q0 -21 -18 -37t-41 -16q-20 0 -33 12t-13 31
q0 24 17.5 42t41.5 18q20 0 33 -14t13 -36z" />
    <glyph glyph-name="Ccaron" unicode="&#x10c;" horiz-adv-x="637" 
d="M538 30q-88 -41 -168 -41q-134 0 -220 86q-86 88 -86 219q0 173 129 301q129 129 295 129q88 0 165 -45l-18 -85q-63 51 -151 51q-137 0 -237 -106q-100 -104 -100 -243q0 -100 62 -165q61 -64 168 -64q84 0 182 57zM666 959l29 -44l-177 -124l-151 124l34 44l124 -84z
" />
    <glyph glyph-name="ccaron" unicode="&#x10d;" horiz-adv-x="487" 
d="M397 20q-63 -31 -130 -31q-101 0 -162 63q-61 64 -61 161q0 136 95 231q97 95 218 95q71 0 126 -37l-18 -82q-45 45 -115 45q-85 0 -154 -70q-69 -71 -69 -174q0 -35 10.5 -64t30 -50t47 -33t61.5 -12q71 0 142 51zM523 773l29 -44l-177 -124l-151 124l34 44l124 -84z
" />
    <glyph glyph-name="Dcaron" unicode="&#x10e;" horiz-adv-x="693" 
d="M336 712q168 0 253 -85q86 -86 86 -211q0 -75 -29.5 -147t-84.5 -133q-54 -61 -141.5 -98.5t-196.5 -37.5h-194l151 712h156zM208 78q169 0 276 90q108 90 108 252q0 106 -72 160t-207 54h-67l-119 -556h81zM553 959l29 -44l-177 -124l-151 124l34 44l124 -84z" />
    <glyph glyph-name="dcaron" unicode="&#x10f;" horiz-adv-x="656" 
d="M43 213q0 124 86 225t215 101q116 0 197 -93l67 318h79l-162 -764h-71l13 97q-29 -32 -55.5 -53t-52.5 -33t-52 -17t-53 -5q-102 0 -157 63q-54 64 -54 161zM351 465q-95 0 -161 -73q-65 -74 -65 -178q0 -70 38.5 -111t110.5 -41q83 0 146 60q64 61 82 146l20 94
q-27 46 -71.5 74.5t-99.5 28.5zM735 572q46 99 77 212l84 10q-58 -144 -115 -231z" />
    <glyph glyph-name="Dcroat" unicode="&#x110;" horiz-adv-x="693" 
d="M27 329l11 52h72l70 331h156q168 0 253 -85q86 -86 86 -211q0 -75 -29.5 -147t-84.5 -133q-54 -61 -141.5 -98.5t-196.5 -37.5h-194l70 329h-72zM208 78q169 0 276 90q108 90 108 252q0 106 -72 160t-207 54h-67l-55 -253h191l-11 -52h-191l-53 -251h81z" />
    <glyph glyph-name="dcroat" unicode="&#x111;" horiz-adv-x="656" 
d="M43 213q0 124 86 225t215 101q116 0 197 -93l34 160h-200l11 52h200l22 106h79q-1 -4 -3.5 -17.5t-7.5 -36.5l-11 -52h52l-11 -52h-52l-129 -606h-71l13 97q-29 -32 -55.5 -53t-52.5 -33t-52 -17t-53 -5q-102 0 -157 63q-54 64 -54 161zM351 465q-95 0 -161 -73
q-65 -74 -65 -178q0 -70 38.5 -111t110.5 -41q83 0 146 60q64 61 82 146l20 94q-27 46 -71.5 74.5t-99.5 28.5z" />
    <glyph glyph-name="Emacron" unicode="&#x112;" horiz-adv-x="539" 
d="M29 0l151 712h394l-17 -78h-311l-47 -218h302l-16 -80h-303l-55 -258h312l-16 -78h-394zM284 905h257l-13 -60h-257z" />
    <glyph glyph-name="emacron" unicode="&#x113;" horiz-adv-x="567" 
d="M432 33q-83 -44 -168 -44q-100 0 -161 64t-61 167q0 125 86 222q87 97 210 97q87 0 137.5 -56.5t50.5 -159.5q0 -12 -1.5 -29t-5.5 -39h-391q-1 -6 -1.5 -15t-0.5 -20q0 -72 39.5 -116.5t108.5 -44.5q95 0 178 66zM332 472q-31 0 -60 -11.5t-53.5 -32.5t-44.5 -50
t-33 -63h310v23q0 64 -32.5 99t-86.5 35zM255 719h257l-13 -60h-257z" />
    <glyph glyph-name="Ebreve" unicode="&#x114;" horiz-adv-x="539" 
d="M29 0l151 712h394l-17 -78h-311l-47 -218h302l-16 -80h-303l-55 -258h312l-16 -78h-394zM574 916q-56 -111 -173 -111q-51 0 -91.5 27t-60.5 84l57 23q23 -74 101 -74q80 0 119 74z" />
    <glyph glyph-name="ebreve" unicode="&#x115;" horiz-adv-x="567" 
d="M432 33q-83 -44 -168 -44q-100 0 -161 64t-61 167q0 125 86 222q87 97 210 97q87 0 137.5 -56.5t50.5 -159.5q0 -12 -1.5 -29t-5.5 -39h-391q-1 -6 -1.5 -15t-0.5 -20q0 -72 39.5 -116.5t108.5 -44.5q95 0 178 66zM332 472q-31 0 -60 -11.5t-53.5 -32.5t-44.5 -50
t-33 -63h310v23q0 64 -32.5 99t-86.5 35zM540 730q-56 -111 -173 -111q-51 0 -91.5 27t-60.5 84l57 23q23 -74 101 -74q80 0 119 74z" />
    <glyph glyph-name="Edotaccent" unicode="&#x116;" horiz-adv-x="539" 
d="M29 0l151 712h394l-17 -78h-311l-47 -218h302l-16 -80h-303l-55 -258h312l-16 -78h-394zM464 876q0 -21 -18 -37t-41 -16q-20 0 -33 12t-13 31q0 24 17.5 42t41.5 18q20 0 33 -14t13 -36z" />
    <glyph glyph-name="edotaccent" unicode="&#x117;" horiz-adv-x="567" 
d="M432 33q-83 -44 -168 -44q-100 0 -161 64t-61 167q0 125 86 222q87 97 210 97q87 0 137.5 -56.5t50.5 -159.5q0 -12 -1.5 -29t-5.5 -39h-391q-1 -6 -1.5 -15t-0.5 -20q0 -72 39.5 -116.5t108.5 -44.5q95 0 178 66zM332 472q-31 0 -60 -11.5t-53.5 -32.5t-44.5 -50
t-33 -63h310v23q0 64 -32.5 99t-86.5 35zM431 690q0 -21 -18 -37t-41 -16q-20 0 -33 12t-13 31q0 24 17.5 42t41.5 18q20 0 33 -14t13 -36z" />
    <glyph glyph-name="Eogonek" unicode="&#x118;" horiz-adv-x="539" 
d="M29 0l151 712h394l-17 -78h-311l-47 -218h302l-16 -80h-303l-55 -258h312l-16 -77q-46 -18 -89 -53q-41 -36 -41 -66q0 -13 10 -21.5t25 -8.5q27 0 50 17l-13 -59q-35 -12 -47 -12q-40 0 -63 19t-23 52q0 72 107 131h-310z" />
    <glyph glyph-name="eogonek" unicode="&#x119;" horiz-adv-x="567" 
d="M250 -190q-35 -12 -47 -12q-40 0 -63 19t-23 52q0 69 96 125q-39 8 -70.5 28t-54 49t-34.5 67t-12 82q0 125 86 222q87 97 210 97q87 0 137.5 -56.5t50.5 -159.5q0 -12 -1.5 -29t-5.5 -39h-391q-1 -6 -1.5 -15t-0.5 -20q0 -72 39.5 -116.5t108.5 -44.5q95 0 178 66
l-20 -92q-37 -19 -74.5 -30t-76.5 -13q-42 -22 -72 -52q-31 -31 -31 -56q0 -13 10 -21.5t25 -8.5q27 0 50 17zM332 472q-31 0 -60 -11.5t-53.5 -32.5t-44.5 -50t-33 -63h310v23q0 64 -32.5 99t-86.5 35z" />
    <glyph glyph-name="Ecaron" unicode="&#x11a;" horiz-adv-x="539" 
d="M29 0l151 712h394l-17 -78h-311l-47 -218h302l-16 -80h-303l-55 -258h312l-16 -78h-394zM541 959l29 -44l-177 -124l-151 124l34 44l124 -84z" />
    <glyph glyph-name="ecaron" unicode="&#x11b;" horiz-adv-x="567" 
d="M432 33q-83 -44 -168 -44q-100 0 -161 64t-61 167q0 125 86 222q87 97 210 97q87 0 137.5 -56.5t50.5 -159.5q0 -12 -1.5 -29t-5.5 -39h-391q-1 -6 -1.5 -15t-0.5 -20q0 -72 39.5 -116.5t108.5 -44.5q95 0 178 66zM332 472q-31 0 -60 -11.5t-53.5 -32.5t-44.5 -50
t-33 -63h310v23q0 64 -32.5 99t-86.5 35zM513 773l29 -44l-177 -124l-151 124l34 44l124 -84z" />
    <glyph glyph-name="Gcircumflex" unicode="&#x11c;" horiz-adv-x="704" 
d="M373 287l17 80h270l-71 -336q-2 -1 -8.5 -2.5t-17.5 -5.5l-27 -8l-9 -3t-16 -4q-18 -4 -29.5 -5.5t-30.5 -3.5q-19 -3 -38 -4t-42 -1q-134 0 -221 84q-86 86 -86 216q0 173 129 301q129 129 295 129q100 0 189 -50l-18 -83q-89 54 -175 54q-137 0 -237 -105
q-100 -104 -100 -243q0 -99 62 -161q64 -62 169 -62q62 0 141 17l41 196h-187zM691 833l-34 -42l-123 84l-142 -84l-29 43l177 125z" />
    <glyph glyph-name="gcircumflex" unicode="&#x11d;" horiz-adv-x="640" 
d="M546 527h73l-108 -512q-23 -104 -107 -171q-84 -69 -190 -69q-108 0 -190 54l18 81q74 -61 176 -61q63 0 131 50t83 122l18 86q-90 -98 -201 -98q-98 0 -151 62t-53 154q0 123 82 218q82 96 208 96q58 0 110 -31q51 -30 77 -69zM503 357q-9 16 -21 31.5t-33 34.5
q-20 19 -49 31t-62 12q-91 0 -151 -69q-60 -68 -60 -172q0 -67 36.5 -105.5t105.5 -38.5q79 0 141 60q61 60 78 143zM548 647l-34 -42l-123 84l-142 -84l-29 43l177 125z" />
    <glyph glyph-name="Gbreve" unicode="&#x11e;" horiz-adv-x="704" 
d="M373 287l17 80h270l-71 -336q-2 -1 -8.5 -2.5t-17.5 -5.5l-27 -8l-9 -3t-16 -4q-18 -4 -29.5 -5.5t-30.5 -3.5q-19 -3 -38 -4t-42 -1q-134 0 -221 84q-86 86 -86 216q0 173 129 301q129 129 295 129q100 0 189 -50l-18 -83q-89 54 -175 54q-137 0 -237 -105
q-100 -104 -100 -243q0 -99 62 -161q64 -62 169 -62q62 0 141 17l41 196h-187zM689 916q-56 -111 -173 -111q-51 0 -91.5 27t-60.5 84l57 23q23 -74 101 -74q80 0 119 74z" />
    <glyph glyph-name="gbreve" unicode="&#x11f;" horiz-adv-x="640" 
d="M546 527h73l-108 -512q-23 -104 -107 -171q-84 -69 -190 -69q-108 0 -190 54l18 81q74 -61 176 -61q63 0 131 50t83 122l18 86q-90 -98 -201 -98q-98 0 -151 62t-53 154q0 123 82 218q82 96 208 96q58 0 110 -31q51 -30 77 -69zM503 357q-9 16 -21 31.5t-33 34.5
q-20 19 -49 31t-62 12q-91 0 -151 -69q-60 -68 -60 -172q0 -67 36.5 -105.5t105.5 -38.5q79 0 141 60q61 60 78 143zM554 730q-56 -111 -173 -111q-51 0 -91.5 27t-60.5 84l57 23q23 -74 101 -74q80 0 119 74z" />
    <glyph glyph-name="Gdotaccent" unicode="&#x120;" horiz-adv-x="704" 
d="M373 287l17 80h270l-71 -336q-2 -1 -8.5 -2.5t-17.5 -5.5l-27 -8l-9 -3t-16 -4q-18 -4 -29.5 -5.5t-30.5 -3.5q-19 -3 -38 -4t-42 -1q-134 0 -221 84q-86 86 -86 216q0 173 129 301q129 129 295 129q100 0 189 -50l-18 -83q-89 54 -175 54q-137 0 -237 -105
q-100 -104 -100 -243q0 -99 62 -161q64 -62 169 -62q62 0 141 17l41 196h-187zM581 876q0 -21 -18 -37t-41 -16q-20 0 -33 12t-13 31q0 24 17.5 42t41.5 18q20 0 33 -14t13 -36z" />
    <glyph glyph-name="gdotaccent" unicode="&#x121;" horiz-adv-x="640" 
d="M546 527h73l-108 -512q-23 -104 -107 -171q-84 -69 -190 -69q-108 0 -190 54l18 81q74 -61 176 -61q63 0 131 50t83 122l18 86q-90 -98 -201 -98q-98 0 -151 62t-53 154q0 123 82 218q82 96 208 96q58 0 110 -31q51 -30 77 -69zM503 357q-9 16 -21 31.5t-33 34.5
q-20 19 -49 31t-62 12q-91 0 -151 -69q-60 -68 -60 -172q0 -67 36.5 -105.5t105.5 -38.5q79 0 141 60q61 60 78 143zM442 690q0 -21 -18 -37t-41 -16q-20 0 -33 12t-13 31q0 24 17.5 42t41.5 18q20 0 33 -14t13 -36z" />
    <glyph glyph-name="Gcommaaccent" unicode="&#x122;" horiz-adv-x="704" 
d="M373 287l17 80h270l-71 -336q-2 -1 -8.5 -2.5t-17.5 -5.5l-27 -8l-9 -3t-16 -4q-18 -4 -29.5 -5.5t-30.5 -3.5q-19 -3 -38 -4t-42 -1q-134 0 -221 84q-86 86 -86 216q0 173 129 301q129 129 295 129q100 0 189 -50l-18 -83q-89 54 -175 54q-137 0 -237 -105
q-100 -104 -100 -243q0 -99 62 -161q64 -62 169 -62q62 0 141 17l41 196h-187zM227 -262q46 99 77 212l84 10q-58 -144 -115 -231z" />
    <glyph glyph-name="gcommaaccent" unicode="&#x123;" horiz-adv-x="640" 
d="M546 527h73l-108 -512q-23 -104 -107 -171q-84 -69 -190 -69q-108 0 -190 54l18 81q74 -61 176 -61q63 0 131 50t83 122l18 86q-90 -98 -201 -98q-98 0 -151 62t-53 154q0 123 82 218q82 96 208 96q58 0 110 -31q51 -30 77 -69zM503 357q-9 16 -21 31.5t-33 34.5
q-20 19 -49 31t-62 12q-91 0 -151 -69q-60 -68 -60 -172q0 -67 36.5 -105.5t105.5 -38.5q79 0 141 60q61 60 78 143zM440 806q-46 -99 -77 -212l-84 -10q58 144 115 231z" />
    <glyph glyph-name="Hcircumflex" unicode="&#x124;" horiz-adv-x="674" 
d="M545 416l63 296h83l-151 -712h-83l71 335h-346l-71 -335h-82l151 712h82l-63 -296h346zM627 833l-34 -42l-123 84l-142 -84l-29 43l177 125z" />
    <glyph glyph-name="hcircumflex" unicode="&#x125;" horiz-adv-x="606" 
d="M264 764l-67 -316q85 91 180 91q84 0 126.5 -41t42.5 -116q0 -20 -2 -39t-6 -38l-64 -305h-79l62 296q4 19 5.5 33.5t1.5 25.5q0 57 -30.5 84t-79.5 27q-41 0 -85 -26q-22 -13 -38.5 -26t-28.5 -26l-23 -25l-78 -363h-79l163 764h79zM405 833l-34 -42l-123 84l-142 -84
l-29 43l177 125z" />
    <glyph glyph-name="Hbar" unicode="&#x126;" horiz-adv-x="677" 
d="M737 589l-11 -51h-72l-113 -538h-83l71 335h-346l-71 -335h-82l114 538h-73l11 51h72l27 123h82l-27 -123h346l27 123h83l-27 -123h72zM545 416l26 122h-345l-26 -122h345z" />
    <glyph glyph-name="hbar" unicode="&#x127;" horiz-adv-x="606" 
d="M264 764l-23 -107h166l-11 -52h-166l-33 -157q85 91 180 91q84 0 126.5 -41t42.5 -116q0 -20 -2 -39t-6 -38l-64 -305h-79l62 296q7 29 7 59q0 111 -110 111q-41 0 -85 -26q-22 -13 -38.5 -26t-28.5 -26l-23 -25l-78 -363h-79l129 605h-55l11 52h55l23 107h79z" />
    <glyph glyph-name="Itilde" unicode="&#x128;" horiz-adv-x="256" 
d="M308 824q-26 0 -63 19q-35 19 -54 19q-28 0 -53 -33l-44 31q45 63 107 63q25 0 63 -20q37 -19 53 -19q26 0 53 36l44 -33q-50 -63 -106 -63zM262 712l-151 -712h-82l151 712h82z" />
    <glyph glyph-name="itilde" unicode="&#x129;" horiz-adv-x="235" 
d="M262 638q-26 0 -63 19q-35 19 -54 19q-28 0 -53 -33l-44 31q45 63 107 63q25 0 63 -20q37 -19 53 -19q26 0 53 36l44 -33q-50 -63 -106 -63zM222 527l-112 -527h-81l112 527h81z" />
    <glyph glyph-name="Imacron" unicode="&#x12a;" horiz-adv-x="254" 
d="M262 712l-151 -712h-82l151 712h82zM132 905h257l-13 -60h-257z" />
    <glyph glyph-name="imacron" unicode="&#x12b;" horiz-adv-x="235" 
d="M222 527l-112 -527h-81l112 527h81zM86 719h257l-13 -60h-257z" />
    <glyph glyph-name="Ibreve" unicode="&#x12c;" horiz-adv-x="256" 
d="M262 712l-151 -712h-82l151 712h82zM423 916q-56 -111 -173 -111q-51 0 -91.5 27t-60.5 84l57 23q23 -74 101 -74q80 0 119 74z" />
    <glyph glyph-name="ibreve" unicode="&#x12d;" horiz-adv-x="235" 
d="M222 527l-112 -527h-81l112 527h81zM372 730q-56 -111 -173 -111q-51 0 -91.5 27t-60.5 84l57 23q23 -74 101 -74q80 0 119 74z" />
    <glyph glyph-name="Iogonek" unicode="&#x12e;" horiz-adv-x="245" 
d="M55 -190q-35 -12 -47 -12q-40 0 -63 19t-23 52q0 72 107 131l151 712h82l-151 -712q-23 -8 -45 -21.5t-42 -30.5q-41 -36 -41 -66q0 -13 10 -21.5t25 -8.5q27 0 50 17z" />
    <glyph glyph-name="iogonek" unicode="&#x12f;" horiz-adv-x="234" 
d="M47 -190q-35 -12 -47 -12q-40 0 -63 19t-23 52q0 74 109 132l111 526h80l-112 -526q-45 -17 -86 -52q-41 -38 -41 -67q0 -13 10 -21.5t25 -8.5q27 0 50 17zM253 645q0 -23 -18.5 -39.5t-41.5 -16.5q-22 0 -36 14.5t-14 36.5q0 24 19 42t43 18q20 0 34 -15t14 -40z" />
    <glyph glyph-name="Idotaccent" unicode="&#x130;" horiz-adv-x="249" 
d="M262 712l-151 -712h-82l151 712h82zM311 876q0 -21 -18 -37t-41 -16q-20 0 -33 12t-13 31q0 24 17.5 42t41.5 18q20 0 33 -14t13 -36z" />
    <glyph glyph-name="dotlessi" unicode="&#x131;" horiz-adv-x="235" 
d="M216 527l-112 -527h-81l112 527h81z" />
    <glyph glyph-name="IJ" unicode="&#x132;" horiz-adv-x="668" 
d="M603 712h82l-108 -509q-11 -51 -32.5 -90.5t-51.5 -67t-67 -42t-79 -14.5q-64 0 -98 28l19 95q37 -40 85 -40q47 0 88 35q40 36 54 96zM262 712l-151 -712h-82l151 712h82z" />
    <glyph glyph-name="ij" unicode="&#x133;" horiz-adv-x="473" 
d="M84 -149q18 -5 48 -5q24 0 44.5 9t36 25t26 36.5t15.5 44.5l121 566h78l-117 -551q-9 -44 -28 -81t-46.5 -63.5t-64.5 -41.5t-82 -15q-10 0 -21.5 1.5l-25.5 3.5zM493 645q0 -23 -18.5 -39.5t-41.5 -16.5q-22 0 -36 14.5t-14 36.5q0 24 19 42t43 18q20 0 34 -15t14 -40z
M253 645q0 -23 -18.5 -39.5t-41.5 -16.5q-22 0 -36 14.5t-14 36.5q0 24 19 42t43 18q20 0 34 -15t14 -40zM102 0h-79l111 527h80z" />
    <glyph glyph-name="Jcircumflex" unicode="&#x134;" horiz-adv-x="427" 
d="M352 712h82l-108 -509q-11 -51 -32.5 -90.5t-51.5 -67t-67 -42t-79 -14.5q-64 0 -98 28l19 95q37 -40 85 -40q47 0 88 35q40 36 54 96zM591 833l-34 -42l-123 84l-142 -84l-29 43l177 125z" />
    <glyph glyph-name="jcircumflex" unicode="&#x135;" horiz-adv-x="233" 
d="M-156 -149q18 -5 48 -5q24 0 44.5 9.5t36.5 25t26 36.5t15 44l121 566h78l-117 -551q-9 -44 -27.5 -80.5t-46.5 -63.5t-65 -42t-82 -15q-10 0 -21.5 1.5l-25.5 3.5zM370 647l-34 -42l-123 84l-142 -84l-29 43l177 125z" />
    <glyph glyph-name="Kcommaaccent" unicode="&#x136;" horiz-adv-x="593" 
d="M222 712l-59 -278q-9 -44 -18 -71h6q18 24 51 55l325 294h113l-372 -334l223 -378h-97l-188 323l-83 -76l-52 -247h-82l151 712h82zM88 -262q46 99 77 212l84 10q-58 -144 -115 -231z" />
    <glyph glyph-name="kcommaaccent" unicode="&#x137;" horiz-adv-x="518" 
d="M444 527h101l-274 -251l173 -276h-89l-140 230l-78 -67l-36 -163h-79l164 764h79l-84 -392l-23 -101h6q5 7 23.5 24.5l50.5 46.5zM66 -262q46 99 77 212l84 10q-58 -144 -115 -231z" />
    <glyph glyph-name="kgreenlandic" unicode="&#x138;" horiz-adv-x="518" 
d="M444 527h101l-274 -251l173 -276h-89l-140 230l-78 -67l-36 -163h-79l113 527h79l-33 -155l-12 -51l-6.5 -32.5t-4.5 -17.5h6l34 35t40 36z" />
    <glyph glyph-name="Lacute" unicode="&#x139;" horiz-adv-x="443" 
d="M262 712l-135 -634h251l-15 -78h-334l151 712h82zM166 782l-27 45l201 137l33 -58z" />
    <glyph glyph-name="lacute" unicode="&#x13a;" horiz-adv-x="233" 
d="M23 0l162 764h79l-162 -764h-79zM157 782l-27 45l201 137l33 -58z" />
    <glyph glyph-name="Lcommaaccent" unicode="&#x13b;" horiz-adv-x="443" 
d="M262 712l-135 -634h251l-15 -78h-334l151 712h82zM62 -262q46 99 77 212l84 10q-58 -144 -115 -231z" />
    <glyph glyph-name="lcommaaccent" unicode="&#x13c;" horiz-adv-x="233" 
d="M23 0l162 764h79l-162 -764h-79zM-55 -262q46 99 77 212l84 10q-58 -144 -115 -231z" />
    <glyph glyph-name="Lcaron" unicode="&#x13d;" horiz-adv-x="441" 
d="M262 712l-135 -634h251l-15 -78h-334l151 712h82zM328 552q46 99 77 212l84 10q-58 -144 -115 -231z" />
    <glyph glyph-name="lcaron" unicode="&#x13e;" horiz-adv-x="233" 
d="M23 0l162 764h79l-162 -764h-79zM313 572q46 99 77 212l84 10q-58 -144 -115 -231z" />
    <glyph glyph-name="Ldot" unicode="&#x13f;" horiz-adv-x="443" 
d="M262 712l-135 -634h251l-15 -78h-334l151 712h82zM319 326q21 0 35.5 -15t14.5 -37q0 -24 -19 -41.5t-43 -17.5q-22 0 -36.5 13.5t-14.5 33.5q0 26 19 45t44 19z" />
    <glyph glyph-name="ldot" unicode="&#x140;" horiz-adv-x="340" 
d="M23 0l162 764h79l-162 -764h-79zM282 326q21 0 35.5 -15t14.5 -37q0 -24 -19 -41.5t-43 -17.5q-22 0 -36.5 13.5t-14.5 33.5q0 26 19 45t44 19z" />
    <glyph glyph-name="Lslash" unicode="&#x141;" horiz-adv-x="443" 
d="M187 357l-59 -279h251l-16 -78h-333l61 288l-87 -61l-25 39l126 89l76 357h82l-61 -288l88 63l25 -39z" />
    <glyph glyph-name="lslash" unicode="&#x142;" horiz-adv-x="235" 
d="M296 447l-115 -83l-77 -364h-81l63 297l-73 -52l-24 39l72.5 52l38.5 28l85 400h81l-71 -332l76 54z" />
    <glyph glyph-name="Nacute" unicode="&#x143;" horiz-adv-x="713" 
d="M243 712l246 -463l11 -22.5l14 -28.5l16 -35h5q0 18 20 109l92 440h83l-151 -712h-49l-256 480q-14 26 -24 47.5t-17 40.5h-5l-19 -102l-99 -466h-81l151 712h63zM395 782l-27 45l201 137l33 -58z" />
    <glyph glyph-name="nacute" unicode="&#x144;" horiz-adv-x="606" 
d="M134 527h72l-10 -81q90 93 181 93q84 0 126.5 -41t42.5 -116q0 -45 -7 -77l-65 -305h-79l63 295q6 25 6 60q0 110 -109 110q-41 0 -84 -25q-22 -13 -39 -25t-28 -25l-24 -25l-78 -365h-79zM307 596l-27 45l201 137l33 -58z" />
    <glyph glyph-name="Ncommaaccent" unicode="&#x145;" horiz-adv-x="713" 
d="M243 712l246 -463l11 -22.5l14 -28.5l16 -35h5q0 18 20 109l92 440h83l-151 -712h-49l-256 480q-14 26 -24 47.5t-17 40.5h-5l-19 -102l-99 -466h-81l151 712h63zM194 -262q46 99 77 212l84 10q-58 -144 -115 -231z" />
    <glyph glyph-name="ncommaaccent" unicode="&#x146;" horiz-adv-x="606" 
d="M134 527h72l-10 -81q90 93 181 93q84 0 126.5 -41t42.5 -116q0 -45 -7 -77l-65 -305h-79l63 295q6 25 6 60q0 110 -109 110q-41 0 -84 -25q-22 -13 -39 -25t-28 -25l-24 -25l-78 -365h-79zM105 -262q46 99 77 212l84 10q-58 -144 -115 -231z" />
    <glyph glyph-name="Ncaron" unicode="&#x147;" horiz-adv-x="713" 
d="M243 712l246 -463l11 -22.5l14 -28.5l16 -35h5q0 18 20 109l92 440h83l-151 -712h-49l-256 480q-14 26 -24 47.5t-17 40.5h-5l-19 -102l-99 -466h-81l151 712h63zM622 959l29 -44l-177 -124l-151 124l34 44l124 -84z" />
    <glyph glyph-name="ncaron" unicode="&#x148;" horiz-adv-x="606" 
d="M134 527h72l-10 -81q90 93 181 93q84 0 126.5 -41t42.5 -116q0 -45 -7 -77l-65 -305h-79l63 295q6 25 6 60q0 110 -109 110q-41 0 -84 -25q-22 -13 -39 -25t-28 -25l-24 -25l-78 -365h-79zM533 773l29 -44l-177 -124l-151 124l34 44l124 -84z" />
    <glyph glyph-name="napostrophe" unicode="&#x149;" horiz-adv-x="805" 
d="M103 490q32 73 56.5 141t41.5 133l99 12q-70 -180 -147 -295zM333 527h72l-10 -81q90 93 181 93q84 0 126.5 -41t42.5 -116q0 -45 -7 -77l-65 -305h-79l63 295q6 25 6 60q0 110 -109 110q-41 0 -84 -25q-22 -13 -39 -25t-29 -25l-23 -25l-78 -365h-79z" />
    <glyph glyph-name="Eng" unicode="&#x14a;" horiz-adv-x="713" 
d="M180 712h62l291 -545l114 545h83l-159 -745q-18 -84 -73 -137q-54 -55 -141 -55q-17 0 -45 6l14 71q24 -6 45 -6q24 0 43.5 9t34 24t24.5 35t15 42l19 86l-278 521l-119 -563h-81z" />
    <glyph glyph-name="eng" unicode="&#x14b;" horiz-adv-x="606" 
d="M134 527h73l-10 -81q90 93 183 93q84 0 125 -41t41 -116q0 -46 -7 -77l-70 -330q-18 -86 -75 -143q-56 -57 -147 -57q-10 0 -21 1.5l-25 3.5l8 34q3 12 5 21t3 16q18 -5 45 -5q25 0 46 9t37 25t26.5 36.5t15.5 44.5l71 335q6 31 6 59q0 110 -109 110q-41 0 -84 -25
q-22 -13 -39 -25t-29 -25l-24 -26l-77 -364h-79z" />
    <glyph glyph-name="Omacron" unicode="&#x14c;" horiz-adv-x="814" 
d="M489 724q136 0 221 -88q87 -87 87 -220q0 -114 -61 -214q-62 -99 -160 -156t-205 -57q-134 0 -221 87q-86 89 -86 220q0 115 61 213q61 100 159 157q97 58 205 58zM377 68q137 0 237 103t100 242q0 101 -62 166q-62 66 -167 66q-137 0 -238 -104q-100 -103 -100 -242
q0 -101 62 -166q63 -65 168 -65zM415 905h257l-13 -60h-257z" />
    <glyph glyph-name="omacron" unicode="&#x14d;" horiz-adv-x="625" 
d="M353 539q104 0 167 -67q63 -66 63 -167q0 -127 -92 -222q-91 -94 -218 -94q-104 0 -167 66t-63 166q0 129 91 223q92 95 219 95zM278 62q85 0 154 70t69 173q0 72 -45 116q-44 44 -108 44q-86 0 -155 -70q-68 -71 -68 -173q0 -72 44 -116q46 -44 109 -44zM271 719h257
l-13 -60h-257z" />
    <glyph glyph-name="Obreve" unicode="&#x14e;" horiz-adv-x="814" 
d="M489 724q136 0 221 -88q87 -87 87 -220q0 -114 -61 -214q-62 -99 -160 -156t-205 -57q-134 0 -221 87q-86 89 -86 220q0 115 61 213q61 100 159 157q97 58 205 58zM377 68q137 0 237 103t100 242q0 101 -62 166q-62 66 -167 66q-137 0 -238 -104q-100 -103 -100 -242
q0 -101 62 -166q63 -65 168 -65zM710 916q-56 -111 -173 -111q-51 0 -91.5 27t-60.5 84l57 23q23 -74 101 -74q80 0 119 74z" />
    <glyph glyph-name="obreve" unicode="&#x14f;" horiz-adv-x="625" 
d="M353 539q104 0 167 -67q63 -66 63 -167q0 -127 -92 -222q-91 -94 -218 -94q-104 0 -167 66t-63 166q0 129 91 223q92 95 219 95zM278 62q85 0 154 70t69 173q0 72 -45 116q-44 44 -108 44q-86 0 -155 -70q-68 -71 -68 -173q0 -72 44 -116q46 -44 109 -44zM559 730
q-56 -111 -173 -111q-51 0 -91.5 27t-60.5 84l57 23q23 -74 101 -74q80 0 119 74z" />
    <glyph glyph-name="Ohungarumlaut" unicode="&#x150;" horiz-adv-x="814" 
d="M489 724q136 0 221 -88q87 -87 87 -220q0 -114 -61 -214q-62 -99 -160 -156t-205 -57q-134 0 -221 87q-86 89 -86 220q0 115 61 213q61 100 159 157q97 58 205 58zM377 68q137 0 237 103t100 242q0 101 -62 166q-62 66 -167 66q-137 0 -238 -104q-100 -103 -100 -242
q0 -101 62 -166q63 -65 168 -65zM532 956l43 -48l-142 -117l-32 38zM675 956l43 -48l-142 -117l-32 38z" />
    <glyph glyph-name="ohungarumlaut" unicode="&#x151;" horiz-adv-x="625" 
d="M353 539q104 0 167 -67q63 -66 63 -167q0 -127 -92 -222q-91 -94 -218 -94q-104 0 -167 66t-63 166q0 129 91 223q92 95 219 95zM278 62q85 0 154 70t69 173q0 72 -45 116q-44 44 -108 44q-86 0 -155 -70q-68 -71 -68 -173q0 -72 44 -116q46 -44 109 -44zM397 770l43 -48
l-142 -117l-32 38zM540 770l43 -48l-142 -117l-32 38z" />
    <glyph glyph-name="OE" unicode="&#x152;" horiz-adv-x="940" 
d="M824 0h-364q-49 -11 -90 -11q-134 0 -221 87q-86 89 -86 220q0 115 61 213q61 100 159 157q97 58 205 58q54 0 93 -12h394l-17 -78h-311l-47 -218h302l-16 -80h-303l-55 -258h312zM376 68q17 0 34 2t36 6l118 557q-36 12 -80 12q-137 0 -238 -104q-100 -103 -100 -242
q0 -101 62 -166q63 -65 168 -65z" />
    <glyph glyph-name="oe" unicode="&#x153;" horiz-adv-x="1021" 
d="M353 539q72 0 125.5 -33.5t80.5 -91.5q42 58 102.5 91.5t130.5 33.5q87 0 137.5 -56.5t50.5 -159.5q0 -12 -1.5 -29t-5.5 -39h-391q-1 -6 -1.5 -15t-0.5 -20q0 -72 39.5 -116.5t108.5 -44.5q95 0 178 66l-20 -92q-83 -44 -168 -44q-70 0 -122.5 32.5t-78.5 92.5
q-45 -58 -108.5 -91.5t-135.5 -33.5q-104 0 -167 66t-63 166q0 129 91 223q92 95 219 95zM278 62q85 0 154 70t69 173q0 72 -45 116q-44 44 -108 44q-86 0 -155 -70q-68 -71 -68 -173q0 -72 44 -116q46 -44 109 -44zM786 472q-31 0 -60 -11.5t-53.5 -32.5t-44.5 -50t-33 -63
h310v23q0 64 -32.5 99t-86.5 35z" />
    <glyph glyph-name="Racute" unicode="&#x154;" horiz-adv-x="574" 
d="M509 0h-92l-146 292h-99l-61 -292h-82l151 712h183q103 0 155.5 -47t52.5 -123q0 -90 -60 -157q-60 -68 -157 -87zM245 634l-56 -264h115q78 0 131 45t53 115q0 48 -36.5 76t-99.5 28h-107zM313 782l-27 45l201 137l33 -58z" />
    <glyph glyph-name="racute" unicode="&#x155;" horiz-adv-x="361" 
d="M196 443q16 20 37.5 36.5t46 28.5t50 19t49.5 7q3 0 10.5 -0.5t11.5 -0.5l-17 -80q-5 1 -10 1h-12q-164 0 -203 -189l-56 -265h-81l112 527h73zM199 596l-27 45l201 137l33 -58z" />
    <glyph glyph-name="Rcommaaccent" unicode="&#x156;" horiz-adv-x="574" 
d="M509 0h-92l-146 292h-99l-61 -292h-82l151 712h183q103 0 155.5 -47t52.5 -123q0 -90 -60 -157q-60 -68 -157 -87zM245 634l-56 -264h115q78 0 131 45t53 115q0 48 -36.5 76t-99.5 28h-107zM127 -262q46 99 77 212l84 10q-58 -144 -115 -231z" />
    <glyph glyph-name="rcommaaccent" unicode="&#x157;" horiz-adv-x="361" 
d="M196 443q16 20 37.5 36.5t46 28.5t50 19t49.5 7q3 0 10.5 -0.5t11.5 -0.5l-17 -80q-5 1 -10 1h-12q-164 0 -203 -189l-56 -265h-81l112 527h73zM20 -264q46 99 77 212l84 10q-58 -144 -115 -231z" />
    <glyph glyph-name="Rcaron" unicode="&#x158;" horiz-adv-x="574" 
d="M509 0h-92l-146 292h-99l-61 -292h-82l151 712h183q103 0 155.5 -47t52.5 -123q0 -90 -60 -157q-60 -68 -157 -87zM245 634l-56 -264h115q78 0 131 45t53 115q0 48 -36.5 76t-99.5 28h-107zM521 959l29 -44l-177 -124l-151 124l34 44l124 -84z" />
    <glyph glyph-name="rcaron" unicode="&#x159;" horiz-adv-x="361" 
d="M196 443q16 20 37.5 36.5t46 28.5t50 19t49.5 7q3 0 10.5 -0.5t11.5 -0.5l-17 -80q-5 1 -10 1h-12q-164 0 -203 -189l-56 -265h-81l112 527h73zM431 773l29 -44l-177 -124l-151 124l34 44l124 -84z" />
    <glyph glyph-name="Sacute" unicode="&#x15a;" horiz-adv-x="514" 
d="M460 227q0 -101 -75 -170q-76 -68 -176 -68q-108 0 -172 66l19 86q66 -73 156 -73q62 0 112 40q52 40 52 101q0 35 -27.5 64.5t-67.5 51.5l-59 34t-56.5 40.5t-42 50.5t-15.5 64q0 93 68 152q68 58 159 58q102 0 167 -59l-19 -86q-12 13 -30 25t-38 21t-41.5 14.5
t-40.5 5.5q-49 0 -96 -32q-45 -32 -45 -83q0 -30 27.5 -57t66.5 -49q29 -15 60 -34t56.5 -42.5t41.5 -53.5t16 -67zM281 782l-27 45l201 137l33 -58z" />
    <glyph glyph-name="sacute" unicode="&#x15b;" horiz-adv-x="424" 
d="M359 154q0 -71 -59 -118t-135 -47q-81 0 -141 42l10.5 46.5t6.5 35.5q49 -55 126 -55q41 0 75 22q35 23 35 60q0 28 -32 57q-16 14 -32.5 26.5t-35.5 23.5q-38 22 -69 57q-31 34 -31 74q0 68 55 114q56 47 132 47q68 0 131 -45l-18 -78q-53 52 -115 52q-35 0 -69 -21
q-34 -19 -34 -55q0 -27 31 -55q16 -14 33 -26.5t36 -23.5q36 -20 68 -57q32 -35 32 -76zM205 596l-27 45l201 137l33 -58z" />
    <glyph glyph-name="Scircumflex" unicode="&#x15c;" horiz-adv-x="515" 
d="M460 227q0 -101 -75 -170q-76 -68 -176 -68q-108 0 -172 66l19 86q66 -73 156 -73q62 0 112 40q52 40 52 101q0 35 -27.5 64.5t-67.5 51.5l-59 34t-56.5 40.5t-42 50.5t-15.5 64q0 93 68 152q68 58 159 58q102 0 167 -59l-19 -86q-12 13 -30 25t-38 21t-41.5 14.5
t-40.5 5.5q-49 0 -96 -32q-45 -32 -45 -83q0 -30 27.5 -57t66.5 -49q29 -15 60 -34t56.5 -42.5t41.5 -53.5t16 -67zM536 833l-34 -42l-123 84l-142 -84l-29 43l177 125z" />
    <glyph glyph-name="scircumflex" unicode="&#x15d;" horiz-adv-x="424" 
d="M359 154q0 -71 -59 -118t-135 -47q-81 0 -141 42l10.5 46.5t6.5 35.5q49 -55 126 -55q41 0 75 22q35 23 35 60q0 28 -32 57q-16 14 -32.5 26.5t-35.5 23.5q-38 22 -69 57q-31 34 -31 74q0 68 55 114q56 47 132 47q68 0 131 -45l-18 -78q-53 52 -115 52q-35 0 -69 -21
q-34 -19 -34 -55q0 -27 31 -55q16 -14 33 -26.5t36 -23.5q36 -20 68 -57q32 -35 32 -76zM463 647l-34 -42l-123 84l-142 -84l-29 43l177 125z" />
    <glyph glyph-name="Scedilla" unicode="&#x15e;" horiz-adv-x="514" 
d="M148 -88l31 79q-87 7 -142 64l19 86q66 -73 156 -73q62 0 112 40q52 40 52 101q0 35 -27.5 64.5t-67.5 51.5l-59 34t-56.5 40.5t-42 50.5t-15.5 64q0 93 68 152q68 58 159 58q102 0 167 -59l-19 -86q-12 13 -30 25t-38 21t-41.5 14.5t-40.5 5.5q-49 0 -96 -32
q-45 -32 -45 -83q0 -30 27.5 -57t66.5 -49q29 -15 60 -34t56.5 -42.5t41.5 -53.5t16 -67q0 -99 -74 -168q-75 -69 -172 -70l-8 -42q28 0 44 -18.5t16 -45.5q0 -21 -8.5 -40t-23.5 -33.5t-36 -22.5t-46 -8q-32 0 -57 17l10 47q23 -14 45 -14q24 0 42.5 12t18.5 39
q0 32 -43 32h-20z" />
    <glyph glyph-name="scedilla" unicode="&#x15f;" horiz-adv-x="424" 
d="M102 -88l31 79q-64 8 -109 40l17 82q49 -55 126 -55q41 0 75 22q35 23 35 60q0 28 -32 57q-16 14 -32.5 26.5t-35.5 23.5q-38 22 -69 57q-31 34 -31 74q0 68 55 114q56 47 132 47q68 0 131 -45l-18 -78q-53 52 -115 52q-35 0 -69 -21q-34 -19 -34 -55q0 -27 31 -55
q16 -14 33 -26.5t36 -23.5q36 -20 68 -57q32 -35 32 -76q0 -71 -58 -117q-57 -47 -133 -48l-8 -42q28 0 44 -18.5t16 -45.5q0 -21 -8.5 -40t-23.5 -33.5t-36 -22.5t-46 -8q-32 0 -57 17l10 47q23 -14 45 -14q24 0 42.5 12t18.5 39q0 32 -43 32h-20z" />
    <glyph glyph-name="Scaron" unicode="&#x160;" horiz-adv-x="515" 
d="M460 227q0 -101 -75 -170q-76 -68 -176 -68q-108 0 -172 66l19 86q66 -73 156 -73q62 0 112 40q52 40 52 101q0 35 -27.5 64.5t-67.5 51.5l-59 34t-56.5 40.5t-42 50.5t-15.5 64q0 93 68 152q68 58 159 58q102 0 167 -59l-19 -86q-12 13 -30 25t-38 21t-41.5 14.5
t-40.5 5.5q-49 0 -96 -32q-45 -32 -45 -83q0 -30 27.5 -57t66.5 -49q29 -15 60 -34t56.5 -42.5t41.5 -53.5t16 -67zM509 945l29 -44l-177 -124l-151 124l34 44l124 -84z" />
    <glyph glyph-name="scaron" unicode="&#x161;" horiz-adv-x="424" 
d="M359 154q0 -71 -59 -118t-135 -47q-81 0 -141 42l10.5 46.5t6.5 35.5q49 -55 126 -55q41 0 75 22q35 23 35 60q0 28 -32 57q-16 14 -32.5 26.5t-35.5 23.5q-38 22 -69 57q-31 34 -31 74q0 68 55 114q56 47 132 47q68 0 131 -45l-18 -78q-53 52 -115 52q-35 0 -69 -21
q-34 -19 -34 -55q0 -27 31 -55q16 -14 33 -26.5t36 -23.5q36 -20 68 -57q32 -35 32 -76zM439 773l29 -44l-177 -124l-151 124l34 44l124 -84z" />
    <glyph glyph-name="Tcommaaccent" unicode="&#x162;" horiz-adv-x="483" 
d="M363 633l-134 -633h-83l134 633h-180l17 79h443l-17 -79h-180zM73 -262q46 99 77 212l84 10q-58 -144 -115 -231z" />
    <glyph glyph-name="tcommaaccent" unicode="&#x163;" horiz-adv-x="335" 
d="M267 -3q-23 -5 -48 -5q-75 0 -110 37t-35 100q0 34 7 61l58 271h-76l16 66h74l24 114l86 30l-31 -144h141l-15 -66h-140l-58 -280q-5 -28 -5 -33q0 -38 19.5 -61.5t64.5 -23.5q8 0 18.5 1.5l24.5 3.5zM12 -262q46 99 77 212l84 10q-58 -144 -115 -231z" />
    <glyph glyph-name="Tcaron" unicode="&#x164;" horiz-adv-x="483" 
d="M363 633l-134 -633h-83l134 633h-180l17 79h443l-17 -79h-180zM508 959l29 -44l-177 -124l-151 124l34 44l124 -84z" />
    <glyph glyph-name="tcaron" unicode="&#x165;" horiz-adv-x="335" 
d="M267 -3q-23 -5 -48 -5q-75 0 -110 37t-35 100q0 34 7 61l58 271h-76l16 66h74l24 114l86 30l-31 -144h141l-15 -66h-140l-58 -280q-5 -28 -5 -33q0 -38 19.5 -61.5t64.5 -23.5q8 0 18.5 1.5l24.5 3.5zM329 572q46 99 77 212l84 10q-58 -144 -115 -231z" />
    <glyph glyph-name="Tbar" unicode="&#x166;" horiz-adv-x="483" 
d="M490 382l-11 -52h-180l-70 -330h-83l70 330h-180l11 52h180l53 251h-180l17 79h443l-17 -79h-180l-53 -251h180z" />
    <glyph glyph-name="tbar" unicode="&#x167;" horiz-adv-x="335" 
d="M310 236h-139l-12 -55q-3 -17 -3 -32q0 -85 83 -85q10 0 21 1t22 3q-1 -3 -2.5 -12t-5.5 -24l-7 -34q-26 -6 -48 -6q-75 0 -109.5 37t-34.5 100q0 35 6 61l10 46h-75l11 49h75l37 176h-76l16 66h74l12 57l12 57l86 30l-31 -144h141l-15 -66h-140l-37 -176h140z" />
    <glyph glyph-name="Utilde" unicode="&#x168;" horiz-adv-x="657" 
d="M579 252q-25 -119 -109 -192q-83 -71 -185 -71q-91 0 -152 54t-61 148q0 32 7 61l98 460h82l-97 -452q-6 -30 -6 -55q0 -66 36 -101t96 -35q70 0 131 50q60 50 80 141l96 452h82zM509 824q-26 0 -63 19q-35 19 -54 19q-28 0 -53 -33l-44 31q45 63 107 63q25 0 63 -20
q37 -19 53 -19q26 0 53 36l44 -33q-50 -63 -106 -63z" />
    <glyph glyph-name="utilde" unicode="&#x169;" horiz-adv-x="607" 
d="M251 -11q-88 0 -138 45t-50 124q0 34 6 63l66 306h79l-63 -296q-7 -29 -7 -60q0 -110 114 -110q64 0 115 40.5t70 127.5l64 298h79l-65 -304q-22 -107 -95 -171q-72 -63 -175 -63zM444 638q-26 0 -63 19q-35 19 -54 19q-28 0 -53 -33l-44 31q45 63 107 63q25 0 63 -20
q37 -19 53 -19q26 0 53 36l44 -33q-50 -63 -106 -63z" />
    <glyph glyph-name="Umacron" unicode="&#x16a;" horiz-adv-x="657" 
d="M579 252q-25 -119 -109 -192q-83 -71 -185 -71q-91 0 -152 54t-61 148q0 32 7 61l98 460h82l-97 -452q-6 -30 -6 -55q0 -66 36 -101t96 -35q70 0 131 50q60 50 80 141l96 452h82zM338 905h257l-13 -60h-257z" />
    <glyph glyph-name="umacron" unicode="&#x16b;" horiz-adv-x="607" 
d="M251 -11q-88 0 -138 45t-50 124q0 34 6 63l66 306h79l-63 -296q-7 -29 -7 -60q0 -110 114 -110q64 0 115 40.5t70 127.5l64 298h79l-65 -304q-22 -107 -95 -171q-72 -63 -175 -63zM268 719h257l-13 -60h-257z" />
    <glyph glyph-name="Ubreve" unicode="&#x16c;" horiz-adv-x="657" 
d="M579 252q-25 -119 -109 -192q-83 -71 -185 -71q-91 0 -152 54t-61 148q0 32 7 61l98 460h82l-97 -452q-6 -30 -6 -55q0 -66 36 -101t96 -35q70 0 131 50q60 50 80 141l96 452h82zM626 916q-56 -111 -173 -111q-51 0 -91.5 27t-60.5 84l57 23q23 -74 101 -74q80 0 119 74z
" />
    <glyph glyph-name="ubreve" unicode="&#x16d;" horiz-adv-x="607" 
d="M251 -11q-88 0 -138 45t-50 124q0 34 6 63l66 306h79l-63 -296q-7 -29 -7 -60q0 -110 114 -110q64 0 115 40.5t70 127.5l64 298h79l-65 -304q-22 -107 -95 -171q-72 -63 -175 -63zM554 730q-56 -111 -173 -111q-51 0 -91.5 27t-60.5 84l57 23q23 -74 101 -74q80 0 119 74
z" />
    <glyph glyph-name="Uring" unicode="&#x16e;" horiz-adv-x="657" 
d="M579 252q-25 -119 -109 -192q-83 -71 -185 -71q-91 0 -152 54t-61 148q0 32 7 61l98 460h82l-97 -452q-6 -30 -6 -55q0 -66 36 -101t96 -35q70 0 131 50q60 50 80 141l96 452h82zM364 874q0 19 7 36.5t20 30.5t30 20.5t37 7.5q19 0 36.5 -7.5t30.5 -20.5t21 -30.5
t9 -36.5q0 -20 -8 -37t-21.5 -30t-31 -20.5t-37.5 -7.5t-37 7.5t-29.5 20.5t-19.5 30t-7 37zM410 874q0 -20 14 -34.5t33 -14.5q21 0 36 14.5t16 34.5q-2 20 -16.5 34.5t-34.5 14.5t-34.5 -14.5t-13.5 -34.5z" />
    <glyph glyph-name="uring" unicode="&#x16f;" horiz-adv-x="607" 
d="M251 -11q-88 0 -138 45t-50 124q0 34 6 63l66 306h79l-63 -296q-7 -29 -7 -60q0 -110 114 -110q64 0 115 40.5t70 127.5l64 298h79l-65 -304q-22 -107 -95 -171q-72 -63 -175 -63zM296 688q0 19 7 36.5t20 30.5t30 20.5t37 7.5q19 0 36.5 -7.5t30.5 -20.5t21 -30.5
t9 -36.5q0 -20 -8 -37t-21.5 -30t-31 -20.5t-37.5 -7.5t-37 7.5t-29.5 20.5t-19.5 30t-7 37zM342 688q0 -20 14 -34.5t33 -14.5q21 0 36 14.5t16 34.5q-2 20 -16.5 34.5t-34.5 14.5t-34.5 -14.5t-13.5 -34.5z" />
    <glyph glyph-name="Uhungarumlaut" unicode="&#x170;" horiz-adv-x="657" 
d="M579 252q-25 -119 -109 -192q-83 -71 -185 -71q-91 0 -152 54t-61 148q0 32 7 61l98 460h82l-97 -452q-6 -30 -6 -55q0 -66 36 -101t96 -35q70 0 131 50q60 50 80 141l96 452h82zM448 956l43 -48l-142 -117l-32 38zM591 956l43 -48l-142 -117l-32 38z" />
    <glyph glyph-name="uhungarumlaut" unicode="&#x171;" horiz-adv-x="607" 
d="M251 -11q-88 0 -138 45t-50 124q0 34 6 63l66 306h79l-63 -296q-7 -29 -7 -60q0 -110 114 -110q64 0 115 40.5t70 127.5l64 298h79l-65 -304q-22 -107 -95 -171q-72 -63 -175 -63zM376 770l43 -48l-142 -117l-32 38zM519 770l43 -48l-142 -117l-32 38z" />
    <glyph glyph-name="Uogonek" unicode="&#x172;" horiz-adv-x="657" 
d="M290 -190q-35 -12 -47 -12q-40 0 -63 19t-23 52q0 66 92 123q-39 5 -71.5 21t-56 41.5t-36.5 60t-13 76.5q0 32 7 61l98 460h82l-97 -452q-6 -30 -6 -55q0 -66 36 -101t96 -35q70 0 131 50q60 50 80 141l96 452h82l-98 -460q-23 -107 -93 -176q-70 -70 -159 -83
q-21 -10 -40 -23t-36 -29q-33 -33 -33 -59q0 -13 10 -21.5t25 -8.5q27 0 50 17z" />
    <glyph glyph-name="uogonek" unicode="&#x173;" horiz-adv-x="607" 
d="M258 -190q-35 -12 -47 -12q-40 0 -63 19t-23 52q0 68 91 122q-73 8 -113 51.5t-40 115.5q0 34 6 63l66 306h79l-63 -296q-7 -29 -7 -60q0 -110 114 -110q64 0 115 40.5t70 127.5l64 298h79l-65 -304q-21 -97 -80 -157.5t-147 -73.5q-40 -19 -75 -52q-33 -32 -33 -58
q0 -13 10 -21.5t25 -8.5q27 0 50 17z" />
    <glyph glyph-name="Wcircumflex" unicode="&#x174;" horiz-adv-x="907" 
d="M707 276l162 436h86l-262 -712h-85l-83 396q-8 35 -12.5 62.5t-6.5 48.5h-6q-35 -68 -60 -111l-239 -396h-88l14 712h80l-10 -436q-1 -41 -3 -76t-5 -66h6q40 78 78 141l239 401h38l82 -400q8 -37 13 -72t9 -70h6zM744 833l-34 -42l-123 84l-142 -84l-29 43l177 125z" />
    <glyph glyph-name="wcircumflex" unicode="&#x175;" horiz-adv-x="803" 
d="M75 527h79l20 -298q1 -17 1.5 -45.5t0.5 -68.5h6q28 55 66 113l179 269h30l75 -268q16 -65 24 -114h5l27.5 70t19.5 44l135 298h83l-244 -527h-56l-81 276q-8 28 -13.5 51t-8.5 42h-5l-57 -94l-189 -275h-56zM651 647l-34 -42l-123 84l-142 -84l-29 43l177 125z" />
    <glyph glyph-name="Ycircumflex" unicode="&#x176;" horiz-adv-x="591" 
d="M572 712h100l-327 -417l-63 -295h-82l63 295l-151 417h90l86 -244q6 -17 12 -37.5l13 -45.5h6q9 16 24 36l35 45zM585 833l-34 -42l-123 84l-142 -84l-29 43l177 125z" />
    <glyph glyph-name="ycircumflex" unicode="&#x177;" horiz-adv-x="558" 
d="M65 527h81l74 -285q9 -35 15 -61.5t8 -45.5h7l34 60t27 45l186 287h93l-493 -743h-87l180 269zM525 647l-34 -42l-123 84l-142 -84l-29 43l177 125z" />
    <glyph glyph-name="Ydieresis" unicode="&#x178;" horiz-adv-x="591" 
d="M572 712h100l-327 -417l-63 -295h-82l63 295l-151 417h90l86 -244q6 -17 12 -37.5l13 -45.5h6q9 16 24 36l35 45zM396 874q-3 -21 -20 -36t-38 -15q-20 0 -33 12t-13 31q0 24 17 42t41 18q20 0 33 -13t13 -33v-6zM521 926q20 0 33 -13t13 -33q0 -23 -18 -40t-40 -17
q-20 0 -33 12t-13 31q0 24 17 42t41 18z" />
    <glyph glyph-name="Zacute" unicode="&#x179;" horiz-adv-x="571" 
d="M511 78l-15 -78h-522l10 53l453 514q10 11 25.5 26.5t38.5 36.5l1 7q-45 -3 -96 -3h-278l14 78h490l-10 -53l-453 -513l-36 -36q-24 -24 -27 -28l-1 -7q45 3 87 3h319zM324 782l-27 45l201 137l33 -58z" />
    <glyph glyph-name="zacute" unicode="&#x17a;" horiz-adv-x="504" 
d="M104 527h419l-1 -4.5t-1.5 -9.5t-1.5 -9.5l-1 -4.5l-333 -365q-45 -49 -64 -64v-6q14 1 36 1.5t51 0.5h227l-14 -66h-442l5 25l342 374l32.5 34.5t23.5 22.5v6q-15 -1 -37 -1.5t-51 -0.5h-203zM244 596l-27 45l201 137l33 -58z" />
    <glyph glyph-name="Zdotaccent" unicode="&#x17b;" horiz-adv-x="571" 
d="M511 78l-15 -78h-522l10 53l453 514q10 11 25.5 26.5t38.5 36.5l1 7q-45 -3 -96 -3h-278l14 78h490l-10 -53l-453 -513l-36 -36q-24 -24 -27 -28l-1 -7q45 3 87 3h319zM470 876q0 -21 -18 -37t-41 -16q-20 0 -33 12t-13 31q0 24 17.5 42t41.5 18q20 0 33 -14t13 -36z" />
    <glyph glyph-name="zdotaccent" unicode="&#x17c;" horiz-adv-x="504" 
d="M104 527h419l-1 -4.5t-1.5 -9.5t-1.5 -9.5l-1 -4.5l-333 -365q-45 -49 -64 -64v-6q14 1 36 1.5t51 0.5h227l-14 -66h-442l5 25l342 374l32.5 34.5t23.5 22.5v6q-15 -1 -37 -1.5t-51 -0.5h-203zM390 690q0 -21 -18 -37t-41 -16q-20 0 -33 12t-13 31q0 24 17.5 42t41.5 18
q20 0 33 -14t13 -36z" />
    <glyph glyph-name="Zcaron" unicode="&#x17d;" horiz-adv-x="571" 
d="M511 78l-15 -78h-522l10 53l453 514q10 11 25.5 26.5t38.5 36.5l1 7q-45 -3 -96 -3h-278l14 78h490l-10 -53l-453 -513l-36 -36q-24 -24 -27 -28l-1 -7q45 3 87 3h319zM557 959l29 -44l-177 -124l-151 124l34 44l124 -84z" />
    <glyph glyph-name="zcaron" unicode="&#x17e;" horiz-adv-x="504" 
d="M104 527h419l-1 -4.5t-1.5 -9.5t-1.5 -9.5l-1 -4.5l-333 -365q-45 -49 -64 -64v-6q14 1 36 1.5t51 0.5h227l-14 -66h-442l5 25l342 374l32.5 34.5t23.5 22.5v6q-15 -1 -37 -1.5t-51 -0.5h-203zM476 773l29 -44l-177 -124l-151 124l34 44l124 -84z" />
    <glyph glyph-name="longs" unicode="&#x17f;" horiz-adv-x="235" 
d="M413 768q-1 -7 -3 -17l-5 -24l-7 -30q-20 6 -48 6q-24 0 -44.5 -9.5t-36.5 -25t-26.5 -36.5t-14.5 -44l-126 -588h-79l102 479h-67l11 48h67l13 56q9 42 27.5 77t46 60.5t64 40t82.5 14.5q16 0 44 -7z" />
    <glyph glyph-name="florin" unicode="&#x192;" horiz-adv-x="702" 
d="M526 506h113q-1 -12 -3.5 -29t-7.5 -39h-113l-61 -321l-12 -59q-2 -11 -5.5 -24t-8.5 -30t-10 -29.5t-10 -22.5q-10 -19 -27 -41.5t-38 -34.5t-51 -20.5t-67 -8.5q-28 0 -41 3l13 76q11 -1 19.5 -1.5t15.5 -0.5q42 0 63.5 14t37.5 35q8 11 16 36q4 13 6 22.5t4 17.5
t4.5 19.5t5.5 27.5l63 342h-84q1 14 3.5 31t7.5 37h86l11 71q11 63 32.5 105.5t49.5 60.5q29 19 52.5 25.5t52.5 6.5q10 0 20.5 -1t22.5 -3l-14 -77q-15 5 -29 5q-23 0 -40.5 -9t-27.5 -21q-9 -10 -19 -32q-8 -20 -11 -32.5t-7 -33.5z" />
    <glyph glyph-name="AEacute" unicode="&#x1fc;" horiz-adv-x="949" 
d="M968 634h-365v-218h309l-17 -80h-292v-258h247l-16 -78h-316v166h-322l-125 -166h-106l551 712h469zM256 244h262v356h-6q-20 -34 -45 -71t-56 -78zM692 776l-27 45l201 137l33 -58z" />
    <glyph glyph-name="aeacute" unicode="&#x1fd;" horiz-adv-x="925" 
d="M697 539q42 0 77 -13.5t59.5 -40t38.5 -64.5t14 -86q0 -39 -9 -79h-389q-1 -7 -1.5 -15t-0.5 -19q0 -36 10 -66t29 -51.5t46 -33.5t61 -12q100 0 180 70l-17 -91q-89 -49 -169 -49q-67 0 -117.5 30t-77.5 87q-42 -54 -105.5 -85.5t-139.5 -31.5q-160 0 -160 128
q0 44 16.5 80.5t48 63t78 41t106.5 14.5h139l6 31q2 10 2 21q0 47 -39 74q-38 27 -87 27q-80 0 -153 -37l14 76q78 31 143 31q69 0 117.5 -27t67.5 -75q94 102 212 102zM403 256h-136q-162 0 -162 -129q0 -70 101 -70q70 0 123 43q55 44 65 105zM812 316q1 5 1.5 13t0.5 19
q0 60 -34 91.5t-88 31.5q-31 0 -60 -11.5t-53.5 -31.5t-44.5 -49t-33 -63h311zM653 596l-27 45l201 137l33 -58z" />
    <glyph glyph-name="Oslashacute" unicode="&#x1fe;" horiz-adv-x="814" 
d="M489 724q98 0 174 -50l72 85l39 -34l-70 -83q93 -89 93 -226q0 -114 -61 -214q-62 -99 -160 -156t-205 -57q-98 0 -174 49l-70 -84l-39 34l69 82q-93 87 -93 226q0 115 61 213q61 100 159 157q97 58 205 58zM147 299q0 -103 63 -166l401 479q-53 33 -126 33
q-137 0 -238 -104q-100 -103 -100 -242zM377 68q137 0 237 103t100 242q0 101 -62 166l-402 -478q55 -33 127 -33zM437 776l-27 45l201 137l33 -58z" />
    <glyph glyph-name="oslashacute" unicode="&#x1ff;" horiz-adv-x="625" 
d="M353 539q71 0 130 -36l55 66l38 -30l-55 -67q62 -68 62 -167q0 -127 -92 -222q-91 -94 -218 -94q-74 0 -130 34l-56 -66q-10 8 -19 16t-17 16l55 64q-63 67 -63 168q0 129 91 223q92 95 219 95zM278 62q85 0 154 70t69 173q0 57 -34 103l-272 -324q37 -22 83 -22z
M125 222q0 -59 34 -105l273 324q-38 24 -84 24q-86 0 -155 -70q-68 -71 -68 -173zM299 596l-27 45l201 137l33 -58z" />
    <glyph glyph-name="uni0200" unicode="&#x200;" horiz-adv-x="708" 
d="M466 712l179 -712h-86l-39 166h-361l-103 -166h-93l454 712h49zM500 244l-58 243q-8 32 -12.5 56.5t-6.5 41.5h-5q-8 -17 -57 -99l-153 -242h292zM446 908l53 48l104 -127l-41 -38zM304 908l53 48l103 -127l-40 -38z" />
    <glyph glyph-name="uni0201" unicode="&#x201;" horiz-adv-x="656" 
d="M342 539q116 0 196 -102l18 90h80l-112 -527h-70l13 97q-96 -108 -212 -108q-103 0 -158 63q-55 64 -55 161q0 125 86 226q85 100 214 100zM273 62q84 0 146 60q62 61 82 147l19 87q-64 109 -170 109q-94 0 -160 -72t-66 -179q0 -70 38.5 -111t110.5 -41zM327 722l53 48
l104 -127l-41 -38zM185 722l53 48l103 -127l-40 -38z" />
    <glyph glyph-name="uni0202" unicode="&#x202;" horiz-adv-x="708" 
d="M466 712l179 -712h-86l-39 166h-361l-103 -166h-93l454 712h49zM500 244l-58 243q-8 32 -12.5 56.5t-6.5 41.5h-5q-8 -17 -57 -99l-153 -242h292zM645 833l-34 -42l-123 84l-142 -84l-29 43l177 125z" />
    <glyph glyph-name="uni0203" unicode="&#x203;" horiz-adv-x="656" 
d="M342 539q116 0 196 -102l18 90h80l-112 -527h-70l13 97q-96 -108 -212 -108q-103 0 -158 63q-55 64 -55 161q0 125 86 226q85 100 214 100zM273 62q84 0 146 60q62 61 82 147l19 87q-64 109 -170 109q-94 0 -160 -72t-66 -179q0 -70 38.5 -111t110.5 -41zM548 647
l-34 -42l-123 84l-142 -84l-29 43l177 125z" />
    <glyph glyph-name="uni0204" unicode="&#x204;" horiz-adv-x="539" 
d="M29 0l151 712h394l-17 -78h-311l-47 -218h302l-16 -80h-303l-55 -258h312l-16 -78h-394zM364 908l53 48l104 -127l-41 -38zM222 908l53 48l103 -127l-40 -38z" />
    <glyph glyph-name="uni0205" unicode="&#x205;" horiz-adv-x="567" 
d="M432 33q-83 -44 -168 -44q-100 0 -161 64t-61 167q0 125 86 222q87 97 210 97q87 0 137.5 -56.5t50.5 -159.5q0 -12 -1.5 -29t-5.5 -39h-391q-1 -6 -1.5 -15t-0.5 -20q0 -72 39.5 -116.5t108.5 -44.5q95 0 178 66zM332 472q-31 0 -60 -11.5t-53.5 -32.5t-44.5 -50
t-33 -63h310v23q0 64 -32.5 99t-86.5 35zM340 722l53 48l104 -127l-41 -38zM198 722l53 48l103 -127l-40 -38z" />
    <glyph glyph-name="uni0206" unicode="&#x206;" horiz-adv-x="539" 
d="M29 0l151 712h394l-17 -78h-311l-47 -218h302l-16 -80h-303l-55 -258h312l-16 -78h-394zM563 833l-34 -42l-123 84l-142 -84l-29 43l177 125z" />
    <glyph glyph-name="uni0207" unicode="&#x207;" horiz-adv-x="567" 
d="M432 33q-83 -44 -168 -44q-100 0 -161 64t-61 167q0 125 86 222q87 97 210 97q87 0 137.5 -56.5t50.5 -159.5q0 -12 -1.5 -29t-5.5 -39h-391q-1 -6 -1.5 -15t-0.5 -20q0 -72 39.5 -116.5t108.5 -44.5q95 0 178 66zM332 472q-31 0 -60 -11.5t-53.5 -32.5t-44.5 -50
t-33 -63h310v23q0 64 -32.5 99t-86.5 35zM540 647l-34 -42l-123 84l-142 -84l-29 43l177 125z" />
    <glyph glyph-name="uni0208" unicode="&#x208;" horiz-adv-x="252" 
d="M262 712l-151 -712h-82l151 712h82zM206 908l53 48l104 -127l-41 -38zM64 908l53 48l103 -127l-40 -38z" />
    <glyph glyph-name="uni0209" unicode="&#x209;" horiz-adv-x="235" 
d="M216 527l-112 -527h-81l112 527h81zM169 722l53 48l104 -127l-41 -38zM27 722l53 48l103 -127l-40 -38z" />
    <glyph glyph-name="uni020A" unicode="&#x20a;" horiz-adv-x="256" 
d="M262 712l-151 -712h-82l151 712h82zM416 833l-34 -42l-123 84l-142 -84l-29 43l177 125z" />
    <glyph glyph-name="uni020B" unicode="&#x20b;" horiz-adv-x="235" 
d="M216 527l-112 -527h-81l112 527h81zM365 647l-34 -42l-123 84l-142 -84l-29 43l177 125z" />
    <glyph glyph-name="uni020C" unicode="&#x20c;" horiz-adv-x="814" 
d="M489 724q136 0 221 -88q87 -87 87 -220q0 -114 -61 -214q-62 -99 -160 -156t-205 -57q-134 0 -221 87q-86 89 -86 220q0 115 61 213q61 100 159 157q97 58 205 58zM377 68q137 0 237 103t100 242q0 101 -62 166q-62 66 -167 66q-137 0 -238 -104q-100 -103 -100 -242
q0 -101 62 -166q63 -65 168 -65zM496 908l53 48l104 -127l-41 -38zM354 908l53 48l103 -127l-40 -38z" />
    <glyph glyph-name="uni020D" unicode="&#x20d;" horiz-adv-x="625" 
d="M353 539q104 0 167 -67q63 -66 63 -167q0 -127 -92 -222q-91 -94 -218 -94q-104 0 -167 66t-63 166q0 129 91 223q92 95 219 95zM278 62q85 0 154 70t69 173q0 72 -45 116q-44 44 -108 44q-86 0 -155 -70q-68 -71 -68 -173q0 -72 44 -116q46 -44 109 -44zM361 722l53 48
l104 -127l-41 -38zM219 722l53 48l103 -127l-40 -38z" />
    <glyph glyph-name="uni020E" unicode="&#x20e;" horiz-adv-x="814" 
d="M489 724q136 0 221 -88q87 -87 87 -220q0 -114 -61 -214q-62 -99 -160 -156t-205 -57q-134 0 -221 87q-86 89 -86 220q0 115 61 213q61 100 159 157q97 58 205 58zM377 68q137 0 237 103t100 242q0 101 -62 166q-62 66 -167 66q-137 0 -238 -104q-100 -103 -100 -242
q0 -101 62 -166q63 -65 168 -65zM697 833l-34 -42l-123 84l-142 -84l-29 43l177 125z" />
    <glyph glyph-name="uni020F" unicode="&#x20f;" horiz-adv-x="625" 
d="M353 539q104 0 167 -67q63 -66 63 -167q0 -127 -92 -222q-91 -94 -218 -94q-104 0 -167 66t-63 166q0 129 91 223q92 95 219 95zM278 62q85 0 154 70t69 173q0 72 -45 116q-44 44 -108 44q-86 0 -155 -70q-68 -71 -68 -173q0 -72 44 -116q46 -44 109 -44zM557 647
l-34 -42l-123 84l-142 -84l-29 43l177 125z" />
    <glyph glyph-name="uni0210" unicode="&#x210;" horiz-adv-x="574" 
d="M509 0h-92l-146 292h-99l-61 -292h-82l151 712h183q103 0 155.5 -47t52.5 -123q0 -90 -60 -157q-60 -68 -157 -87zM245 634l-56 -264h115q78 0 131 45t53 115q0 48 -36.5 76t-99.5 28h-107zM346 908l53 48l104 -127l-41 -38zM204 908l53 48l103 -127l-40 -38z" />
    <glyph glyph-name="uni0211" unicode="&#x211;" horiz-adv-x="361" 
d="M196 443q16 20 37.5 36.5t46 28.5t50 19t49.5 7q3 0 10.5 -0.5t11.5 -0.5l-17 -80q-5 1 -10 1h-12q-164 0 -203 -189l-56 -265h-81l112 527h73zM258 722l53 48l104 -127l-41 -38zM116 722l53 48l103 -127l-40 -38z" />
    <glyph glyph-name="uni0212" unicode="&#x212;" horiz-adv-x="574" 
d="M509 0h-92l-146 292h-99l-61 -292h-82l151 712h183q103 0 155.5 -47t52.5 -123q0 -90 -60 -157q-60 -68 -157 -87zM245 634l-56 -264h115q78 0 131 45t53 115q0 48 -36.5 76t-99.5 28h-107zM547 833l-34 -42l-123 84l-142 -84l-29 43l177 125z" />
    <glyph glyph-name="uni0213" unicode="&#x213;" horiz-adv-x="361" 
d="M196 443q16 20 37.5 36.5t46 28.5t50 19t49.5 7q3 0 10.5 -0.5t11.5 -0.5l-17 -80q-5 1 -10 1h-12q-164 0 -203 -189l-56 -265h-81l112 527h73zM447 647l-34 -42l-123 84l-142 -84l-29 43l177 125z" />
    <glyph glyph-name="uni0214" unicode="&#x214;" horiz-adv-x="657" 
d="M579 252q-25 -119 -109 -192q-83 -71 -185 -71q-91 0 -152 54t-61 148q0 32 7 61l98 460h82l-97 -452q-6 -30 -6 -55q0 -66 36 -101t96 -35q70 0 131 50q60 50 80 141l96 452h82zM410 908l53 48l104 -127l-41 -38zM268 908l53 48l103 -127l-40 -38z" />
    <glyph glyph-name="uni0215" unicode="&#x215;" horiz-adv-x="607" 
d="M251 -11q-88 0 -138 45t-50 124q0 34 6 63l66 306h79l-63 -296q-7 -29 -7 -60q0 -110 114 -110q64 0 115 40.5t70 127.5l64 298h79l-65 -304q-22 -107 -95 -171q-72 -63 -175 -63zM351 722l53 48l104 -127l-41 -38zM209 722l53 48l103 -127l-40 -38z" />
    <glyph glyph-name="uni0216" unicode="&#x216;" horiz-adv-x="657" 
d="M579 252q-25 -119 -109 -192q-83 -71 -185 -71q-91 0 -152 54t-61 148q0 32 7 61l98 460h82l-97 -452q-6 -30 -6 -55q0 -66 36 -101t96 -35q70 0 131 50q60 50 80 141l96 452h82zM617 833l-34 -42l-123 84l-142 -84l-29 43l177 125z" />
    <glyph glyph-name="uni0217" unicode="&#x217;" horiz-adv-x="607" 
d="M251 -11q-88 0 -138 45t-50 124q0 34 6 63l66 306h79l-63 -296q-7 -29 -7 -60q0 -110 114 -110q64 0 115 40.5t70 127.5l64 298h79l-65 -304q-22 -107 -95 -171q-72 -63 -175 -63zM551 647l-34 -42l-123 84l-142 -84l-29 43l177 125z" />
    <glyph glyph-name="Scommaaccent" unicode="&#x218;" horiz-adv-x="514" 
d="M460 227q0 -101 -75 -170q-76 -68 -176 -68q-108 0 -172 66l19 86q66 -73 156 -73q62 0 112 40q52 40 52 101q0 35 -27.5 64.5t-67.5 51.5l-59 34t-56.5 40.5t-42 50.5t-15.5 64q0 93 68 152q68 58 159 58q102 0 167 -59l-19 -86q-12 13 -30 25t-38 21t-41.5 14.5
t-40.5 5.5q-49 0 -96 -32q-45 -32 -45 -83q0 -30 27.5 -57t66.5 -49q29 -15 60 -34t56.5 -42.5t41.5 -53.5t16 -67zM94 -262q46 99 77 212l84 10q-58 -144 -115 -231z" />
    <glyph glyph-name="scommaaccent" unicode="&#x219;" horiz-adv-x="424" 
d="M359 154q0 -71 -59 -118t-135 -47q-81 0 -141 42l10.5 46.5t6.5 35.5q49 -55 126 -55q41 0 75 22q35 23 35 60q0 28 -32 57q-16 14 -32.5 26.5t-35.5 23.5q-38 22 -69 57q-31 34 -31 74q0 68 55 114q56 47 132 47q68 0 131 -45l-18 -78q-53 52 -115 52q-35 0 -69 -21
q-34 -19 -34 -55q0 -27 31 -55q16 -14 33 -26.5t36 -23.5q36 -20 68 -57q32 -35 32 -76zM39 -262q46 99 77 212l84 10q-58 -144 -115 -231z" />
    <glyph glyph-name="uni021A" unicode="&#x21a;" horiz-adv-x="483" 
d="M363 633l-134 -633h-83l134 633h-180l17 79h443l-17 -79h-180zM74 -262q46 99 77 212l84 10q-58 -144 -115 -231z" />
    <glyph glyph-name="uni021B" unicode="&#x21b;" horiz-adv-x="335" 
d="M267 -3q-23 -5 -48 -5q-75 0 -110 37t-35 100q0 34 7 61l58 271h-76l16 66h74l24 114l86 30l-31 -144h141l-15 -66h-140l-58 -280q-5 -28 -5 -33q0 -38 19.5 -61.5t64.5 -23.5q8 0 18.5 1.5l24.5 3.5zM13 -262q46 99 77 212l84 10q-58 -144 -115 -231z" />
    <glyph glyph-name="circumflex" unicode="&#x2c6;" horiz-adv-x="387" 
d="M435 600l-34 -42l-123 84l-142 -84l-29 43l177 125z" />
    <glyph glyph-name="caron" unicode="&#x2c7;" horiz-adv-x="387" 
d="M414 726l29 -44l-177 -124l-151 124l34 44l124 -84z" />
    <glyph glyph-name="breve" unicode="&#x2d8;" horiz-adv-x="390" 
d="M442 683q-56 -111 -173 -111q-51 0 -91.5 27t-60.5 84l57 23q23 -74 101 -74q80 0 119 74z" />
    <glyph glyph-name="dotaccent" unicode="&#x2d9;" horiz-adv-x="393" 
d="M332 643q0 -21 -18 -37t-41 -16q-20 0 -33 12t-13 31q0 24 17.5 42t41.5 18q20 0 33 -14t13 -36z" />
    <glyph glyph-name="ring" unicode="&#x2da;" horiz-adv-x="392" 
d="M186 641q0 19 7 36.5t20 30.5t30 20.5t37 7.5q19 0 36.5 -7.5t30.5 -20.5t21 -30.5t9 -36.5q0 -20 -8 -37t-21.5 -30t-31 -20.5t-37.5 -7.5t-37 7.5t-29.5 20.5t-19.5 30t-7 37zM232 641q0 -20 14 -34.5t33 -14.5q21 0 36 14.5t16 34.5q-2 20 -16.5 34.5t-34.5 14.5
q-21 0 -35 -14.5t-13 -34.5z" />
    <glyph glyph-name="ogonek" unicode="&#x2db;" horiz-adv-x="400" 
d="M175 -190q-35 -12 -47 -12q-40 0 -63 19t-23 52q0 74 109 132h82q-45 -17 -88 -52q-42 -38 -42 -67q0 -13 10 -21.5t25 -8.5q27 0 50 17z" />
    <glyph glyph-name="tilde" unicode="&#x2dc;" horiz-adv-x="390" 
d="M329 591q-26 0 -63 19q-35 19 -54 19q-28 0 -53 -33l-44 31q45 63 107 63q25 0 63 -20q37 -19 53 -19q26 0 53 36l44 -33q-50 -63 -106 -63z" />
    <glyph glyph-name="hungarumlaut" unicode="&#x2dd;" horiz-adv-x="389" 
d="M249 723l43 -48l-142 -117l-32 38zM392 723l43 -48l-142 -117l-32 38z" />
    <glyph glyph-name="doublegrave" unicode="&#x30f;" horiz-adv-x="388" 
d="M269 675l53 48l104 -127l-41 -38zM127 675l53 48l103 -127l-40 -38z" />
    <glyph glyph-name="uni037E" unicode="&#x37e;" horiz-adv-x="278" 
d="M237 439q-3 -23 -21.5 -39t-41.5 -16t-37.5 16t-11.5 39q2 23 20.5 39.5t41.5 16.5t37.5 -16.5t12.5 -39.5zM-54 -190q32 73 56.5 141t41.5 133l99 12q-70 -180 -147 -295z" />
    <glyph glyph-name="tonos" unicode="&#x384;" horiz-adv-x="301" 
d="M260 745l60 -30l-104 -166l-48 24z" />
    <glyph glyph-name="dieresistonos" unicode="&#x385;" horiz-adv-x="346" 
d="M184 647q0 -22 -17 -39.5t-41 -17.5q-20 0 -33 13t-13 33q0 23 17.5 40t40.5 17q20 0 33 -13t13 -33zM392 693q20 0 33 -13.5t13 -33.5q0 -22 -17.5 -39t-40.5 -17q-20 0 -33 13t-13 32q0 24 17.5 41t40.5 17zM277 739l57 -29l-98 -155l-44 24z" />
    <glyph glyph-name="Alphatonos" unicode="&#x386;" horiz-adv-x="708" 
d="M466 712l179 -712h-86l-39 166h-361l-103 -166h-93l454 712h49zM500 244l-58 243q-8 32 -12.5 56.5t-6.5 41.5h-5q-8 -17 -57 -99l-153 -242h292zM145 745l60 -30l-104 -166l-48 24z" />
    <glyph glyph-name="anoteleia" unicode="&#x387;" horiz-adv-x="378" 
d="M197 298q21 0 35.5 -15t14.5 -37q0 -24 -19 -41.5t-43 -17.5q-22 0 -36.5 13.5t-14.5 33.5q0 26 19 45t44 19z" />
    <glyph glyph-name="Epsilontonos" unicode="&#x388;" horiz-adv-x="581" 
d="M66 0l151 712h394l-17 -78h-311l-47 -218h302l-16 -80h-303l-55 -258h312l-16 -78h-394zM92 745l60 -30l-104 -166l-48 24z" />
    <glyph glyph-name="Etatonos" unicode="&#x389;" horiz-adv-x="714" 
d="M582 416l63 296h83l-151 -712h-83l71 335h-346l-71 -335h-82l151 712h82l-63 -296h346zM92 745l60 -30l-104 -166l-48 24z" />
    <glyph glyph-name="Iotatonos" unicode="&#x38a;" horiz-adv-x="286" 
d="M299 712l-151 -712h-82l151 712h82zM92 745l60 -30l-104 -166l-48 24z" />
    <glyph glyph-name="Omicrontonos" unicode="&#x38c;" horiz-adv-x="853" 
d="M526 724q136 0 221 -88q87 -87 87 -220q0 -114 -61 -214q-62 -99 -160 -156t-205 -57q-134 0 -221 87q-86 89 -86 220q0 115 61 213q61 100 159 157q97 58 205 58zM414 68q137 0 237 103t100 242q0 101 -62 166q-62 66 -167 66q-137 0 -238 -104q-100 -103 -100 -242
q0 -101 62 -166q63 -65 168 -65zM92 745l60 -30l-104 -166l-48 24z" />
    <glyph glyph-name="Upsilontonos" unicode="&#x38e;" horiz-adv-x="659" 
d="M646 712h100l-327 -417l-63 -295h-82l63 295l-151 417h90l86 -244q6 -17 12 -37.5l13 -45.5h6q9 16 24 36l35 45zM92 745l60 -30l-104 -166l-48 24z" />
    <glyph glyph-name="Omegatonos" unicode="&#x38f;" horiz-adv-x="827" 
d="M579 75q5 0 14.5 0.5t20 1.5t21 1.5t16.5 0.5h88l-17 -79h-271l20 98q107 38 177 130q72 93 72 206q0 48 -15 86.5t-43 66.5t-68.5 43t-91.5 15q-131 0 -226 -95t-95 -228q0 -78 41 -137.5t107 -86.5l-20 -98h-251l17 79h82q1 0 18.5 -1l51.5 -3l2 6q-63 37 -97 100.5
t-34 138.5q0 112 58 206q58 93 153 146q94 52 198 52q133 0 215 -80q81 -80 81 -208q0 -106 -59 -203q-58 -96 -163 -152zM92 745l60 -30l-104 -166l-48 24z" />
    <glyph glyph-name="iotadieresistonos" unicode="&#x390;" horiz-adv-x="355" 
d="M231 -4q-33 0 -59.5 11.5t-46 31t-30 46t-10.5 58.5l3 30l75 353h79l-73 -343q-4 -15 -4 -25q0 -35 23 -60.5t60 -27.5zM163 694q0 -22 -17 -39.5t-41 -17.5q-19 0 -32.5 13.5t-13.5 32.5q0 23 17.5 40t40.5 17q20 0 33 -13t13 -33zM371 740q20 0 33 -13.5t13 -33.5
q0 -22 -17.5 -39t-40.5 -17q-20 0 -33 13t-13 32q0 24 17.5 41t40.5 17zM256 786l57 -29l-98 -155l-44 24z" />
    <glyph glyph-name="Alpha" unicode="&#x391;" horiz-adv-x="708" 
d="M466 712l179 -712h-86l-39 166h-361l-103 -166h-93l454 712h49zM500 244l-58 243q-8 32 -12.5 56.5t-6.5 41.5h-5q-8 -17 -57 -99l-153 -242h292z" />
    <glyph glyph-name="Beta" unicode="&#x392;" horiz-adv-x="586" 
d="M245 634l-49 -234h121q33 0 61.5 9t49.5 27t33 44t12 61q0 45 -31 69t-83 24h-114zM179 322l-52 -244h145q70 0 122 38q52 39 52 111q0 46 -36 70.5t-99 24.5h-132zM556 549q0 -55 -32 -108t-79 -75q39 -17 61.5 -55.5t22.5 -83.5q0 -105 -79 -166q-77 -61 -179 -61h-242
l151 712h178q49 0 86 -12.5t62 -34t37.5 -51.5t12.5 -65z" />
    <glyph glyph-name="Gamma" unicode="&#x393;" horiz-adv-x="435" 
d="M249 634l-134 -634h-82l151 712h334l-17 -78h-252z" />
    <glyph glyph-name="Delta" unicode="&#x394;" horiz-adv-x="697" 
d="M408 579q-17 -37 -35 -70.5l-36 -64.5l-210 -366h390l-80 367q-6 25 -12 58.5t-11 75.5h-6zM10 0l9 56l384 656h55l150 -656l-9 -56h-589z" />
    <glyph glyph-name="Epsilon" unicode="&#x395;" horiz-adv-x="544" 
d="M29 0l151 712h394l-17 -78h-311l-47 -218h302l-16 -80h-303l-55 -258h312l-16 -78h-394z" />
    <glyph glyph-name="Zeta" unicode="&#x396;" 
d="M511 78l-15 -78h-522l10 53l453 514q10 11 25.5 26.5t38.5 36.5l1 7q-45 -3 -96 -3h-278l14 78h490l-10 -53l-453 -513l-36 -36q-24 -24 -27 -28l-1 -7q45 3 87 3h319z" />
    <glyph glyph-name="Eta" unicode="&#x397;" horiz-adv-x="677" 
d="M545 416l63 296h83l-151 -712h-83l71 335h-346l-71 -335h-82l151 712h82l-63 -296h346z" />
    <glyph glyph-name="Theta" unicode="&#x398;" horiz-adv-x="810" 
d="M294 393h277l-16 -73h-276zM483 724q136 0 221 -88q87 -87 87 -220q0 -114 -61 -214q-62 -99 -160 -156t-205 -57q-134 0 -221 87q-86 89 -86 220q0 115 61 213q61 100 159 157q97 58 205 58zM371 68q137 0 237 103t100 242q0 101 -62 166q-62 66 -167 66
q-137 0 -238 -104q-100 -103 -100 -242q0 -101 62 -166q63 -65 168 -65z" />
    <glyph glyph-name="Iota" unicode="&#x399;" horiz-adv-x="249" 
d="M262 712l-151 -712h-82l151 712h82z" />
    <glyph glyph-name="Kappa" unicode="&#x39a;" horiz-adv-x="602" 
d="M262 712l-59 -278q-9 -44 -18 -71h6q18 24 51 55l325 294h113l-372 -334l223 -378h-97l-188 323l-83 -76l-52 -247h-82l151 712h82z" />
    <glyph glyph-name="Lambda" unicode="&#x39b;" horiz-adv-x="676" 
d="M66 0h-95l428 712h56l152 -712h-86l-91 444q-9 44 -21 134h-6l-35 -65.5l-38 -67.5z" />
    <glyph glyph-name="Mu" unicode="&#x39c;" horiz-adv-x="815" 
d="M439 436l335 276h57l-151 -712h-83l97 452q7 37 27 114h-6q-26 -25 -46 -42.5l-33 -28.5l-213 -176l-139 176l-17.5 24.5t-31.5 46.5h-6q-8 -48 -21 -114l-96 -452h-82l151 712h41z" />
    <glyph glyph-name="Nu" unicode="&#x39d;" horiz-adv-x="717" 
d="M243 712l246 -463l11 -22.5l14 -28.5l16 -35h5q0 18 20 109l92 440h83l-151 -712h-49l-256 480q-14 26 -24 47.5t-17 40.5h-5l-19 -102l-99 -466h-81l151 712h63z" />
    <glyph glyph-name="Xi" unicode="&#x39e;" horiz-adv-x="528" 
d="M151 634l17 78h394l-17 -78h-394zM17 0l16 78h394l-16 -78h-394zM97 336l17 80h375l-17 -80h-375z" />
    <glyph glyph-name="Omicron" unicode="&#x39f;" horiz-adv-x="816" 
d="M489 724q136 0 221 -88q87 -87 87 -220q0 -114 -61 -214q-62 -99 -160 -156t-205 -57q-134 0 -221 87q-86 89 -86 220q0 115 61 213q61 100 159 157q97 58 205 58zM377 68q137 0 237 103t100 242q0 101 -62 166q-62 66 -167 66q-137 0 -238 -104q-100 -103 -100 -242
q0 -101 62 -166q63 -65 168 -65z" />
    <glyph glyph-name="Pi" unicode="&#x3a0;" horiz-adv-x="677" 
d="M184 712h510l-151 -712h-82l134 633h-346l-134 -633h-82z" />
    <glyph glyph-name="Rho" unicode="&#x3a1;" horiz-adv-x="567" 
d="M245 634l-63 -297h115q86 0 145 50q59 51 59 130q0 54 -40.5 85.5t-109.5 31.5h-106zM180 712h182q108 0 165 -51.5t57 -133.5q0 -71 -26.5 -121.5t-69 -83t-97.5 -48t-112 -15.5h-113l-55 -259h-82z" />
    <glyph glyph-name="Sigma" unicode="&#x3a3;" horiz-adv-x="560" 
d="M594 712l-17 -78h-312l135 -278l-253 -278h312l-16 -78h-423l15 73l266 293l-142 293l12 53h423z" />
    <glyph glyph-name="Tau" unicode="&#x3a4;" horiz-adv-x="479" 
d="M363 633l-134 -633h-83l134 633h-180l17 79h443l-17 -79h-180z" />
    <glyph glyph-name="Upsilon" unicode="&#x3a5;" horiz-adv-x="585" 
d="M572 712h100l-327 -417l-63 -295h-82l63 295l-151 417h90l86 -244q6 -17 12 -37.5l13 -45.5h6q9 16 24 36l35 45z" />
    <glyph glyph-name="Phi" unicode="&#x3a6;" horiz-adv-x="816" 
d="M414 126q46 2 95 21.5t94 53.5q45 35 73 90.5t28 121.5q0 82 -56 127t-136 47zM430 587q-44 -1 -94.5 -20t-94 -55t-72.5 -89t-29 -122q0 -81 56 -128q58 -46 136 -47zM300 -28l15 75q-45 2 -89 18.5t-84 45.5q-39 30 -63.5 78t-24.5 108q0 147 117 254q118 106 276 115
l16 74h82l-16 -74q43 -1 89 -16.5t84.5 -46t63 -76.5t24.5 -108q0 -75 -27 -138t-72 -105q-33 -32 -71.5 -56.5t-77.5 -41t-76.5 -24.5t-68.5 -7l-15 -75h-82z" />
    <glyph glyph-name="Chi" unicode="&#x3a7;" horiz-adv-x="602" 
d="M69 0h-109l316 377l-150 335h91l80 -182q16 -38 33 -87h7l65 85l151 184h109l-292 -347l167 -365h-95l-94 215q-11 25 -19 45.5t-13 37.5h-7l-29.5 -41t-33.5 -42z" />
    <glyph glyph-name="Psi" unicode="&#x3a8;" horiz-adv-x="762" 
d="M717 712h82l-50 -234q-25 -120 -120 -191q-93 -69 -213 -71l-45 -216h-82l45 216q-102 2 -164 53q-62 53 -62 147q0 33 7 62l50 234h82l-44 -207q-7 -29 -7 -61q0 -72 41.5 -111t113.5 -39l89 418h82l-89 -418q85 0 152 55t88 156z" />
    <glyph glyph-name="Omega" unicode="&#x3a9;" horiz-adv-x="789" 
d="M541 75q5 0 14.5 0.5t20 1.5t21 1.5t16.5 0.5h88l-17 -79h-271l20 98q107 38 177 130q72 93 72 206q0 48 -15 86.5t-43 66.5t-68.5 43t-91.5 15q-131 0 -226 -95t-95 -228q0 -78 41 -137.5t107 -86.5l-20 -98h-251l17 79h82q1 0 18.5 -1l51.5 -3l2 6q-63 37 -97 100.5
t-34 138.5q0 112 58 206q58 93 153 146q94 52 198 52q133 0 215 -80q81 -80 81 -208q0 -106 -59 -203q-58 -96 -163 -152z" />
    <glyph glyph-name="Iotadieresis" unicode="&#x3aa;" horiz-adv-x="249" 
d="M222 874q-3 -21 -20 -36t-38 -15q-20 0 -33 12t-13 31q0 24 17 42t41 18q20 0 33 -13t13 -33v-6zM347 926q20 0 33 -13t13 -33q0 -23 -18 -40t-40 -17q-20 0 -33 12t-13 31q0 24 17 42t41 18zM262 712l-151 -712h-82l151 712h82z" />
    <glyph glyph-name="Upsilondieresis" unicode="&#x3ab;" horiz-adv-x="585" 
d="M572 712h100l-327 -417l-63 -295h-82l63 295l-151 417h90l86 -244q6 -17 12 -37.5l13 -45.5h6q9 16 24 36l35 45zM386 874q-3 -21 -20 -36t-38 -15q-20 0 -33 12t-13 31q0 24 17 42t41 18q20 0 33 -13t13 -33v-6zM511 926q20 0 33 -13t13 -33q0 -23 -18 -40t-40 -17
q-20 0 -33 12t-13 31q0 24 17 42t41 18z" />
    <glyph glyph-name="alphatonos" unicode="&#x3ac;" horiz-adv-x="656" 
d="M566 527h72l-113 -527h-70l13 90q-92 -101 -209 -101q-102 0 -159 63q-56 64 -56 158q0 127 84 228q86 101 216 101q144 0 194 -110zM276 62q94 0 162 75q68 77 68 169q0 68 -42 113q-42 46 -115 46q-95 0 -159 -72q-64 -70 -64 -178q0 -72 39 -112.5t111 -40.5zM407 792
l60 -30l-104 -166l-48 24z" />
    <glyph glyph-name="epsilontonos" unicode="&#x3ad;" horiz-adv-x="472" 
d="M363 308l-13 -61h-86q-69 0 -115 -31q-46 -30 -46 -76q0 -37 30.5 -59t82.5 -22q104 0 175 27l-15 -72q-81 -25 -171 -25q-80 0 -132 39q-52 40 -52 101q0 45 30.5 88.5t87.5 67.5q-50 32 -50 84q0 71 68 121q68 49 155 49q93 0 164 -28l-16 -72q-64 29 -159 29
q-51 0 -91 -28q-39 -29 -39 -67q0 -28 26.5 -46.5t75.5 -18.5h90zM368 792l60 -30l-104 -166l-48 24z" />
    <glyph glyph-name="etatonos" unicode="&#x3ae;" horiz-adv-x="606" 
d="M134 527h72l-10 -81q90 93 181 93q84 0 126.5 -41t42.5 -116q0 -45 -7 -77l-111 -521h-79l109 511q4 16 6 60q0 110 -109 110q-41 0 -84 -25q-22 -13 -39 -25t-28 -25l-24 -25l-78 -365h-79zM405 792l60 -30l-104 -166l-48 24z" />
    <glyph glyph-name="iotatonos" unicode="&#x3af;" horiz-adv-x="288" 
d="M207 -4q-33 0 -59.5 11.5t-46 31t-30 46t-10.5 58.5l3 30l75 353h79l-73 -343q-4 -15 -4 -25q0 -35 23 -60.5t60 -27.5zM230 792l60 -30l-104 -166l-48 24z" />
    <glyph glyph-name="upsilondieresistonos" unicode="&#x3b0;" horiz-adv-x="597" 
d="M518 527q37 -67 37 -159q0 -158 -96 -269q-95 -110 -209 -110q-87 0 -138.5 45t-51.5 123q0 32 7 61l66 309h79l-64 -300q-5 -23 -5 -48q0 -57 32 -86t86 -29q77 0 144 88q68 89 68 207q0 100 -49 168h94zM304 694q0 -22 -17 -39.5t-41 -17.5q-20 0 -33 13.5t-13 32.5
q0 23 17.5 40t40.5 17q20 0 33 -13t13 -33zM512 740q20 0 33 -13.5t13 -33.5q0 -22 -17.5 -39t-40.5 -17q-20 0 -33 13t-13 32q0 24 17.5 41t40.5 17zM397 786l57 -29l-98 -155l-44 24z" />
    <glyph glyph-name="alpha" unicode="&#x3b1;" horiz-adv-x="658" 
d="M566 527h72l-113 -527h-70l13 90q-92 -101 -209 -101q-102 0 -159 63q-56 64 -56 158q0 127 84 228q86 101 216 101q144 0 194 -110zM276 62q94 0 162 75q68 77 68 169q0 68 -42 113q-42 46 -115 46q-95 0 -159 -72q-64 -70 -64 -178q0 -72 39 -112.5t111 -40.5z" />
    <glyph glyph-name="beta" unicode="&#x3b2;" horiz-adv-x="578" 
d="M263 63q77 0 132 50q54 51 54 137q0 30 -11.5 54t-32.5 41.5t-49.5 26.5t-62.5 9h-17l15 74h17q81 0 122 45q40 46 40 106q0 40 -24.5 67.5t-75.5 27.5q-46 0 -93 -44q-45 -43 -57 -101l-92 -432q20 -25 57.5 -43t77.5 -18zM430 421q49 -23 76 -69t27 -100
q0 -116 -77 -190q-76 -73 -199 -73q-41 0 -84 15q-44 16 -63 36l-55 -258h-80l164 774q20 93 86 155q67 64 153 64q78 0 127 -46q50 -47 50 -112q0 -61 -34 -113.5t-91 -82.5z" />
    <glyph glyph-name="gamma" unicode="&#x3b3;" horiz-adv-x="553" 
d="M67 527h82l69 -295q8 -32 13 -60.5l9 -52.5h5q29 59 62 112l185 296h92l-314 -489l-53 -254h-79l53 252z" />
    <glyph glyph-name="delta" unicode="&#x3b4;" horiz-adv-x="626" 
d="M382 692q82 -64 141 -164t59 -202q0 -134 -93 -236q-93 -101 -223 -101q-101 0 -162 64t-61 161q0 135 93 230q94 94 215 94q47 0 87 -8q-59 99 -151 170l14 64h344q-2 -11 -5.5 -28.5l-8.5 -40.5h-158q-32 0 -54.5 1t-34.5 3zM272 62q91 0 158 73q68 74 68 186
q0 61 -23 122q-48 22 -128 22q-84 0 -154 -72q-69 -71 -69 -176q0 -34 10.5 -62.5t30 -49t47 -32t60.5 -11.5z" />
    <glyph glyph-name="epsilon" unicode="&#x3b5;" horiz-adv-x="472" 
d="M363 308l-13 -61h-86q-69 0 -115 -31q-46 -30 -46 -76q0 -37 30.5 -59t82.5 -22q104 0 175 27l-15 -72q-81 -25 -171 -25q-80 0 -132 39q-52 40 -52 101q0 45 30.5 88.5t87.5 67.5q-50 32 -50 84q0 71 68 121q68 49 155 49q93 0 164 -28l-16 -72q-64 29 -159 29
q-51 0 -91 -28q-39 -29 -39 -67q0 -28 26.5 -46.5t75.5 -18.5h90z" />
    <glyph glyph-name="zeta" unicode="&#x3b6;" horiz-adv-x="451" 
d="M128 249l-3.5 -23t-1.5 -18q0 -141 244 -141h24q-44 -88 -88.5 -161.5t-90.5 -133.5l-25 5.5t-23 4.5q27 48 53 102t51 114q-101 10 -165 60q-65 50 -65 142q0 123 116 263q116 138 269 229l2 7q-14 -2 -36.5 -3t-54.5 -1h-158l14 69h345l-14 -64q-63 -38 -124.5 -89.5
t-122.5 -118.5q-122 -134 -146 -243z" />
    <glyph glyph-name="eta" unicode="&#x3b7;" horiz-adv-x="606" 
d="M134 527h72l-10 -81q90 93 181 93q84 0 126.5 -41t42.5 -116q0 -45 -7 -77l-111 -521h-79l109 511q4 16 6 60q0 110 -109 110q-41 0 -84 -25q-22 -13 -39 -25t-28 -25l-24 -25l-78 -365h-79z" />
    <glyph glyph-name="theta" unicode="&#x3b8;" horiz-adv-x="675" 
d="M426 701q-81 0 -151 -78q-70 -76 -100 -207h399q6 48 6 68q0 102 -42 159.5t-112 57.5zM308 63q81 0 152 77q71 79 101 208h-399q-6 -38 -6 -71q0 -100 41.5 -157t110.5 -57zM431 775q102 0 163 -76q63 -77 63 -211q0 -111 -31.5 -206.5t-82.5 -158.5t-114 -98.5
t-127 -35.5q-100 0 -163 75q-62 77 -62 209q0 55 8 107.5t23 99.5t36 87t47 72q51 64 114 100t126 36z" />
    <glyph glyph-name="iota" unicode="&#x3b9;" horiz-adv-x="288" 
d="M207 -4q-33 0 -59.5 11.5t-46 31t-30 46t-10.5 58.5l3 30l75 353h79l-73 -343q-4 -15 -4 -25q0 -35 23 -60.5t60 -27.5z" />
    <glyph glyph-name="kappa" unicode="&#x3ba;" horiz-adv-x="517" 
d="M444 527h101l-274 -251l173 -276h-89l-140 230l-78 -67l-36 -163h-79l113 527h79l-33 -155l-12 -51l-6.5 -32.5t-4.5 -17.5h6l34 35t40 36z" />
    <glyph glyph-name="lambda" unicode="&#x3bb;" horiz-adv-x="556" 
d="M408 0l-70 285q-7 28 -12 53.5t-8 50.5h-8q-26 -51 -62 -103l-190 -286h-93l324 483l-74 281h77l196 -764h-80z" />
    <glyph glyph-name="uni03BC" unicode="&#x3bc;" horiz-adv-x="609" 
d="M-26 -216l157 743h79l-63 -298q-7 -27 -7 -58q0 -110 114 -110q27 0 52.5 10.5t47.5 25.5t38.5 31t25.5 27l9 11l76 361h78l-111 -527h-72l9 76q-92 -87 -183 -87q-78 0 -116 59l-55 -264h-79z" />
    <glyph glyph-name="nu" unicode="&#x3bd;" horiz-adv-x="551" 
d="M67 527h82l69 -295q16 -67 21 -113h5l31.5 58.5l31.5 53.5l185 296h92l-338 -527h-46z" />
    <glyph glyph-name="xi" unicode="&#x3be;" horiz-adv-x="466" 
d="M179 -217q31 55 57 108.5t47 107.5q-107 12 -176 63q-68 51 -68 146q0 62 39 131q41 69 118 102q-61 36 -61 118q0 86 77 151t173 65q70 0 141 -31l-18 -83q-40 22 -68 30q-26 9 -66 9q-60 0 -107 -44t-47 -96q0 -89 142 -89h50q-1 -7 -3 -17l-5 -24l-7 -30h-72
q-85 0 -143 -55q-59 -56 -59 -125q0 -43 22.5 -74.5t61.5 -48.5q39 -16 81.5 -23t93.5 -7h24q-44 -87 -88 -160t-90 -134z" />
    <glyph glyph-name="omicron" unicode="&#x3bf;" horiz-adv-x="625" 
d="M353 539q104 0 167 -67q63 -66 63 -167q0 -127 -92 -222q-91 -94 -218 -94q-104 0 -167 66t-63 166q0 129 91 223q92 95 219 95zM278 62q85 0 154 70t69 173q0 72 -45 116q-44 44 -108 44q-86 0 -155 -70q-68 -71 -68 -173q0 -72 44 -116q46 -44 109 -44z" />
    <glyph glyph-name="pi" unicode="&#x3c0;" horiz-adv-x="635" 
d="M548 -4q-66 2 -106 42q-41 43 -41 104q0 13 5 38l59 281h-229l-97 -461h-78l97 461h-74l15 66h533l-14 -66h-74l-59 -276q-3 -14 -3 -27q0 -37 22.5 -61.5t60.5 -25.5z" />
    <glyph glyph-name="rho" unicode="&#x3c1;" horiz-adv-x="652" 
d="M303 62q86 0 154 71q69 70 69 170q0 36 -11.5 66t-31.5 51t-48 33t-61 12q-78 0 -142 -58q-65 -59 -81 -145l-17 -86q7 -13 15 -24.5t29 -36.5q22 -24 54.5 -38.5t70.5 -14.5zM379 539q103 0 166 -66q64 -64 64 -164q0 -128 -92 -225q-92 -95 -216 -95q-116 0 -189 93
l-62 -298h-79l100 476q25 125 110 202t198 77z" />
    <glyph glyph-name="uni03C2" unicode="&#x3c2;" horiz-adv-x="487" 
d="M193 -218q31 55 56.5 108t47.5 107q-108 10 -180 66q-72 55 -72 154q0 142 98 232q99 90 226 90q67 0 128 -37l-19 -83q-52 47 -118 47q-85 0 -158 -68q-72 -68 -72 -175q0 -158 268 -158h23q-45 -89 -89.5 -161.5t-89.5 -130.5z" />
    <glyph glyph-name="sigma" unicode="&#x3c3;" horiz-adv-x="648" 
d="M685 527l-16 -66h-52q-61 0 -82 3l-1 -12q57 -57 57 -153q0 -126 -92 -218t-218 -92q-105 0 -168 63t-63 163q0 125 92 219q91 93 219 93h324zM286 62q88 0 155 67q68 68 68 169q0 71 -44 113q-43 43 -109 43q-85 0 -155 -68q-68 -68 -68 -170q0 -36 11.5 -64.5t32 -48.5
t48.5 -30.5t61 -10.5z" />
    <glyph glyph-name="tau" unicode="&#x3c4;" horiz-adv-x="420" 
d="M69 461l15 66h372l-16 -66h-148l-59 -278q-3 -12 -3 -25q0 -37 22.5 -62t60.5 -26l-17 -74q-64 1 -106 42q-41 43 -41 104q0 21 4 38l61 281h-145z" />
    <glyph glyph-name="upsilon" unicode="&#x3c5;" horiz-adv-x="597" 
d="M518 527q37 -67 37 -159q0 -158 -96 -269q-95 -110 -209 -110q-87 0 -138.5 45t-51.5 123q0 32 7 61l66 309h79l-64 -300q-5 -23 -5 -48q0 -57 32 -86t86 -29q77 0 144 88q68 89 68 207q0 100 -49 168h94z" />
    <glyph glyph-name="phi" unicode="&#x3c6;" horiz-adv-x="731" 
d="M366 63q101 0 172 80q70 80 70 190q0 66 -28.5 99.5t-66.5 33.5q-27 0 -49 -21.5t-29 -54.5zM520 539q66 0 118 -52q53 -53 53 -147q0 -141 -99 -246q-98 -104 -242 -104l-44 -206h-78l44 206q-97 0 -160 64t-63 157q0 120 84 212q83 91 198 112l-17 -73
q-74 -20 -128 -89q-54 -68 -54 -154q0 -69 43 -112q44 -44 112 -44l68 326q13 66 61 108t104 42z" />
    <glyph glyph-name="chi" unicode="&#x3c7;" horiz-adv-x="532" 
d="M89 527h88l63 -124q13 -25 21 -43.5l13 -29.5h5q13 25 56 71l114 126h100l-239 -257l149 -270h-88l-76 148q-13 25 -21 42t-11 28h-5l-57 -68l-135 -150h-102l261 279z" />
    <glyph glyph-name="psi" unicode="&#x3c8;" horiz-adv-x="741" 
d="M618 361q0 101 -47 166h92q38 -68 38 -160q0 -79 -31 -151.5t-82 -121.5q-49 -48 -110.5 -77t-121.5 -29l-43 -204h-78l42 204q-88 0 -153 50q-63 49 -63 131q0 21 6 47l65 311h80l-65 -301q-3 -14 -3 -37q0 -62 44 -95q43 -33 105 -33l138 651h78l-138 -651q86 0 166 90
q81 91 81 210z" />
    <glyph glyph-name="omega" unicode="&#x3c9;" horiz-adv-x="895" 
d="M776 361q0 101 -48 166h91q39 -71 39 -159q0 -158 -96 -269q-95 -110 -209 -110q-101 0 -134 85q-63 -85 -169 -85q-81 0 -136 63q-55 62 -55 161q0 166 140 314h91q-60 -54 -103 -140q-44 -88 -44 -166q0 -73 31.5 -116.5t86.5 -43.5q57 0 92 39t53 123l40 182h76
l-38 -180q-9 -44 -9 -73q0 -48 21 -69.5t67 -21.5q77 0 145 90q68 91 68 210z" />
    <glyph glyph-name="iotadieresis" unicode="&#x3ca;" horiz-adv-x="288" 
d="M207 -4q-33 0 -59.5 11.5t-46 31t-30 46t-10.5 58.5l3 30l75 353h79l-73 -343q-4 -15 -4 -25q0 -35 23 -60.5t60 -27.5zM178 688q-3 -21 -20 -36t-38 -15q-20 0 -33 12t-13 31q0 24 17 42t41 18q20 0 33 -13t13 -33v-6zM303 740q20 0 33 -13t13 -33q0 -23 -18 -40
t-40 -17q-20 0 -33 12t-13 31q0 24 17 42t41 18z" />
    <glyph glyph-name="upsilondieresis" unicode="&#x3cb;" horiz-adv-x="597" 
d="M518 527q37 -67 37 -159q0 -158 -96 -269q-95 -110 -209 -110q-87 0 -138.5 45t-51.5 123q0 32 7 61l66 309h79l-64 -300q-5 -23 -5 -48q0 -57 32 -86t86 -29q77 0 144 88q68 89 68 207q0 100 -49 168h94zM346 688q-3 -21 -20 -36t-38 -15q-20 0 -33 12t-13 31
q0 24 17 42t41 18q20 0 33 -13t13 -33v-6zM471 740q20 0 33 -13t13 -33q0 -23 -18 -40t-40 -17q-20 0 -33 12t-13 31q0 24 17 42t41 18z" />
    <glyph glyph-name="omicrontonos" unicode="&#x3cc;" horiz-adv-x="625" 
d="M353 539q104 0 167 -67q63 -66 63 -167q0 -127 -92 -222q-91 -94 -218 -94q-104 0 -167 66t-63 166q0 129 91 223q92 95 219 95zM278 62q85 0 154 70t69 173q0 72 -45 116q-44 44 -108 44q-86 0 -155 -70q-68 -71 -68 -173q0 -72 44 -116q46 -44 109 -44zM407 792l60 -30
l-104 -166l-48 24z" />
    <glyph glyph-name="upsilontonos" unicode="&#x3cd;" horiz-adv-x="597" 
d="M518 527q37 -67 37 -159q0 -158 -96 -269q-95 -110 -209 -110q-87 0 -138.5 45t-51.5 123q0 32 7 61l66 309h79l-64 -300q-5 -23 -5 -48q0 -57 32 -86t86 -29q77 0 144 88q68 89 68 207q0 100 -49 168h94zM392 792l60 -30l-104 -166l-48 24z" />
    <glyph glyph-name="omegatonos" unicode="&#x3ce;" horiz-adv-x="894" 
d="M776 361q0 101 -48 166h91q39 -71 39 -159q0 -158 -96 -269q-95 -110 -209 -110q-101 0 -134 85q-63 -85 -169 -85q-81 0 -136 63q-55 62 -55 161q0 166 140 314h91q-60 -54 -103 -140q-44 -88 -44 -166q0 -73 31.5 -116.5t86.5 -43.5q57 0 92 39t53 123l40 182h76
l-38 -180q-9 -44 -9 -73q0 -48 21 -69.5t67 -21.5q77 0 145 90q68 91 68 210zM562 792l60 -30l-104 -166l-48 24z" />
    <glyph glyph-name="uni0400" unicode="&#x400;" horiz-adv-x="544" 
d="M29 0l151 712h394l-17 -78h-311l-47 -218h302l-16 -80h-303l-55 -258h312l-16 -78h-394zM517 827l-36 -45l-180 124l46 58z" />
    <glyph glyph-name="afii10023" unicode="&#x401;" horiz-adv-x="544" 
d="M29 0l151 712h394l-17 -78h-311l-47 -218h302l-16 -80h-303l-55 -258h312l-16 -78h-394zM374 874q-3 -21 -20 -36t-38 -15q-20 0 -33 12t-13 31q0 24 17 42t41 18q20 0 33 -13t13 -33v-6zM499 926q20 0 33 -13t13 -33q0 -23 -18 -40t-40 -17q-20 0 -33 12t-13 31
q0 24 17 42t41 18z" />
    <glyph glyph-name="afii10051" unicode="&#x402;" horiz-adv-x="717" 
d="M683 310q0 -126 -92 -220q-92 -92 -225 -95l17 77q83 1 148 69t65 159q0 89 -95 89q-89 0 -194 -27l-76 -362h-82l134 633h-181l17 79h443l-17 -79h-180l-41 -192q106 24 197 24q76 0 119 -42.5t43 -112.5z" />
    <glyph glyph-name="afii10052" unicode="&#x403;" horiz-adv-x="435" 
d="M249 634l-134 -634h-82l151 712h334l-17 -78h-252zM294 782l-27 45l201 137l33 -58z" />
    <glyph glyph-name="afii10053" unicode="&#x404;" horiz-adv-x="623" 
d="M483 645q-110 0 -199 -71q-88 -70 -120 -178h350l-17 -79h-348q-1 -5 -1 -20q0 -100 61 -164q62 -65 167 -65q76 0 170 28l-17 -84q-97 -23 -156 -23q-135 0 -223 88q-87 88 -87 221q0 113 60 212q62 101 158 157q97 57 205 57q105 0 189 -25l-18 -82q-71 28 -174 28z
" />
    <glyph glyph-name="afii10054" unicode="&#x405;" horiz-adv-x="517" 
d="M460 227q0 -101 -75 -170q-76 -68 -176 -68q-108 0 -172 66l19 86q66 -73 156 -73q62 0 112 40q52 40 52 101q0 35 -27.5 64.5t-67.5 51.5l-59 34t-56.5 40.5t-42 50.5t-15.5 64q0 93 68 152q68 58 159 58q102 0 167 -59l-19 -86q-12 13 -30 25t-38 21t-41.5 14.5
t-40.5 5.5q-49 0 -96 -32q-45 -32 -45 -83q0 -30 27.5 -57t66.5 -49q29 -15 60 -34t56.5 -42.5t41.5 -53.5t16 -67z" />
    <glyph glyph-name="afii10055" unicode="&#x406;" horiz-adv-x="249" 
d="M262 712l-151 -712h-82l151 712h82z" />
    <glyph glyph-name="afii10056" unicode="&#x407;" horiz-adv-x="249" 
d="M219 874q-3 -21 -20 -36t-38 -15q-20 0 -33 12t-13 31q0 24 17 42t41 18q20 0 33 -13t13 -33v-6zM344 926q20 0 33 -13t13 -33q0 -23 -18 -40t-40 -17q-20 0 -33 12t-13 31q0 24 17 42t41 18zM262 712l-151 -712h-82l151 712h82z" />
    <glyph glyph-name="afii10057" unicode="&#x408;" horiz-adv-x="417" 
d="M352 712h82l-108 -509q-11 -51 -32.5 -90.5t-51.5 -67t-67 -42t-79 -14.5q-64 0 -98 28l19 95q37 -40 85 -40q47 0 88 35q40 36 54 96z" />
    <glyph glyph-name="afii10058" unicode="&#x409;" horiz-adv-x="994" 
d="M757 415q82 0 137 -44q54 -44 54 -119q0 -115 -83 -184q-83 -68 -190 -68h-229l134 633h-277l-90 -424q-21 -98 -90 -155q-68 -57 -157 -59l18 81q52 1 92.5 36t54.5 98l107 502h441l-63 -297h141zM683 77q71 0 125 45t54 120q0 48 -33.5 72t-90.5 24h-139l-55 -261h139z
" />
    <glyph glyph-name="afii10059" unicode="&#x40a;" horiz-adv-x="1010" 
d="M773 415q82 0 137 -44q54 -44 54 -119q0 -115 -83 -184q-83 -68 -190 -68h-229l71 335h-347l-71 -335h-82l151 712h82l-63 -296h347l63 296h82l-63 -297h141zM699 77q71 0 125 45t54 120q0 48 -33.5 72t-90.5 24h-139l-55 -261h139z" />
    <glyph glyph-name="afii10060" unicode="&#x40b;" horiz-adv-x="744" 
d="M524 465q76 0 117 -41.5t41 -111.5q0 -30 -7 -59l-53 -253h-82l52 247q2 14 3.5 25.5t1.5 22.5q0 94 -95 94q-90 0 -195 -27l-76 -362h-82l134 633h-181l17 79h443l-17 -79h-180l-41 -192q106 24 200 24z" />
    <glyph glyph-name="afii10061" unicode="&#x40c;" horiz-adv-x="618" 
d="M333 381q132 -30 171 -140q22 -59 26 -196q1 -16 1 -27t1 -18h-84q-1 9 -1 22.5v31.5q-3 116 -19 158q-31 83 -152 100q-17 2 -35 3t-38 1h-20l-67 -316h-83l151 712h83l-67 -316h33l338 316h115zM328 782l-27 45l201 137l33 -58z" />
    <glyph glyph-name="uni040D" unicode="&#x40d;" horiz-adv-x="717" 
d="M33 0l151 712h82l-93 -439l-10.5 -45t-17.5 -67h5l26.5 32t49.5 56l438 463h70l-151 -712h-82l99 466q6 29 12 55t13 49h-4l-86 -97l-448 -473h-54zM594 827l-36 -45l-180 124l46 58z" />
    <glyph glyph-name="afii10062" unicode="&#x40e;" horiz-adv-x="586" 
d="M125 0h-101l225 306l-155 406h86l99 -248q19 -49 25 -79h6l29 42.5t27 35.5l187 249h102zM572 913q-56 -111 -173 -111q-51 0 -91.5 27t-60.5 84l57 23q23 -74 101 -74q80 0 119 74z" />
    <glyph glyph-name="afii10145" unicode="&#x40f;" horiz-adv-x="676" 
d="M216 -176l38 176h-221l151 712h82l-135 -633h346l135 633h82l-151 -712h-217l-38 -176h-72z" />
    <glyph glyph-name="afii10017" unicode="&#x410;" horiz-adv-x="708" 
d="M466 712l179 -712h-86l-39 166h-361l-103 -166h-93l454 712h49zM500 244l-58 243q-8 32 -12.5 56.5t-6.5 41.5h-5q-8 -17 -57 -99l-153 -242h292z" />
    <glyph glyph-name="afii10018" unicode="&#x411;" horiz-adv-x="581" 
d="M567 633h-318l-46 -218h141q82 0 137 -44q54 -44 54 -119q0 -115 -83 -184q-83 -68 -190 -68h-229l151 712h400zM270 77q71 0 125 45t54 120q0 48 -33.5 72t-90.5 24h-139l-55 -261h139z" />
    <glyph glyph-name="afii10019" unicode="&#x412;" horiz-adv-x="586" 
d="M245 634l-49 -234h121q33 0 61.5 9t49.5 27t33 44t12 61q0 45 -31 69t-83 24h-114zM179 322l-52 -244h145q70 0 122 38q52 39 52 111q0 46 -36 70.5t-99 24.5h-132zM556 549q0 -55 -32 -108t-79 -75q39 -17 61.5 -55.5t22.5 -83.5q0 -105 -79 -166q-77 -61 -179 -61h-242
l151 712h178q49 0 86 -12.5t62 -34t37.5 -51.5t12.5 -65z" />
    <glyph glyph-name="afii10020" unicode="&#x413;" horiz-adv-x="435" 
d="M249 634l-134 -634h-82l151 712h334l-17 -78h-252z" />
    <glyph glyph-name="afii10021" unicode="&#x414;" horiz-adv-x="730" 
d="M-8 79h72q14 13 37.5 49t52.5 95t60 143t60 194l40 152h399l-135 -633h73l-48 -226h-83l31 147h-494l-31 -147h-82zM495 79l118 554h-241l-32 -129q-20 -78 -45 -144.5t-50 -120.5t-48 -94.5t-39 -65.5h337z" />
    <glyph glyph-name="afii10022" unicode="&#x415;" horiz-adv-x="544" 
d="M29 0l151 712h394l-17 -78h-311l-47 -218h302l-16 -80h-303l-55 -258h312l-16 -78h-394z" />
    <glyph glyph-name="afii10024" unicode="&#x416;" horiz-adv-x="931" 
d="M409 271q4 19 8 35.5t8 30.5h-15l-29 -32.5t-31 -29.5l-276 -275h-114l392 390l-248 322h99l183 -243l21 -30t18 -32h15l4.5 30.5t6.5 34.5l46 240h82l-51 -239q-4 -19 -8 -35.5t-8 -30.5h15l29 32.5t31 29.5l274 243h114l-388 -343l250 -369h-105l-181 275l-21 30
t-18 32h-15l-4.5 -30.5t-6.5 -34.5l-58 -272h-82z" />
    <glyph glyph-name="afii10025" unicode="&#x417;" horiz-adv-x="508" 
d="M163 344l14 71h62q75 0 122 38t47 92q0 43 -31 72.5t-77 29.5q-48 0 -94.5 -20t-78.5 -55l19 105q76 47 164 47q78 0 130 -47q51 -47 51 -118q0 -57 -30 -106t-87 -77q38 -20 58.5 -56t20.5 -78q0 -106 -80 -180q-79 -73 -195 -73q-99 0 -163 52l17 84q56 -59 153 -59
q72 0 128 47q57 48 57 117q0 47 -42 80q-40 34 -104 34h-61z" />
    <glyph glyph-name="afii10026" unicode="&#x418;" horiz-adv-x="717" 
d="M33 0l151 712h82l-93 -439l-10.5 -45t-17.5 -67h5l26.5 32t49.5 56l438 463h70l-151 -712h-82l99 466q6 29 12 55t13 49h-4l-86 -97l-448 -473h-54z" />
    <glyph glyph-name="afii10027" unicode="&#x419;" horiz-adv-x="717" 
d="M33 0l151 712h82l-93 -439l-10.5 -45t-17.5 -67h5l26.5 32t49.5 56l438 463h70l-151 -712h-82l99 466q6 29 12 55t13 49h-4l-86 -97l-448 -473h-54zM658 916q-56 -111 -173 -111q-51 0 -91.5 27t-60.5 84l57 23q23 -74 101 -74q80 0 119 74z" />
    <glyph glyph-name="afii10028" unicode="&#x41a;" horiz-adv-x="592" 
d="M202 275l-21 30t-18 32h-5l-4.5 -30.5t-6.5 -34.5l-58 -272h-82l151 712h82l-51 -239q-4 -19 -8 -35.5t-8 -30.5h5l29 32.5t31 29.5l284 243h114l-398 -343l260 -369h-105z" />
    <glyph glyph-name="afii10029" unicode="&#x41b;" horiz-adv-x="661" 
d="M238 712h441l-151 -712h-82l134 633h-277l-90 -424q-21 -98 -90 -155q-68 -57 -157 -59l18 81q52 1 93 36t54 98z" />
    <glyph glyph-name="afii10030" unicode="&#x41c;" horiz-adv-x="816" 
d="M439 436l335 276h57l-151 -712h-83l97 452q7 37 27 114h-6q-26 -25 -46 -42.5l-33 -28.5l-213 -176l-139 176l-17.5 24.5t-31.5 46.5h-6q-8 -48 -21 -114l-96 -452h-82l151 712h41z" />
    <glyph glyph-name="afii10031" unicode="&#x41d;" horiz-adv-x="678" 
d="M545 416l63 296h83l-151 -712h-83l71 335h-346l-71 -335h-82l151 712h82l-63 -296h346z" />
    <glyph glyph-name="afii10032" unicode="&#x41e;" horiz-adv-x="816" 
d="M489 724q136 0 221 -88q87 -87 87 -220q0 -114 -61 -214q-62 -99 -160 -156t-205 -57q-134 0 -221 87q-86 89 -86 220q0 115 61 213q61 100 159 157q97 58 205 58zM377 68q137 0 237 103t100 242q0 101 -62 166q-62 66 -167 66q-137 0 -238 -104q-100 -103 -100 -242
q0 -101 62 -166q63 -65 168 -65z" />
    <glyph glyph-name="afii10033" unicode="&#x41f;" horiz-adv-x="676" 
d="M184 712h510l-151 -712h-82l134 633h-346l-134 -633h-82z" />
    <glyph glyph-name="afii10034" unicode="&#x420;" horiz-adv-x="567" 
d="M245 634l-63 -297h115q86 0 145 50q59 51 59 130q0 54 -40.5 85.5t-109.5 31.5h-106zM180 712h182q108 0 165 -51.5t57 -133.5q0 -71 -26.5 -121.5t-69 -83t-97.5 -48t-112 -15.5h-113l-55 -259h-82z" />
    <glyph glyph-name="afii10035" unicode="&#x421;" horiz-adv-x="635" 
d="M538 30q-88 -41 -168 -41q-134 0 -220 86q-86 88 -86 219q0 173 129 301q129 129 295 129q88 0 165 -45l-18 -85q-63 51 -151 51q-137 0 -237 -106q-100 -104 -100 -243q0 -100 62 -165q61 -64 168 -64q84 0 182 57z" />
    <glyph glyph-name="afii10036" unicode="&#x422;" horiz-adv-x="479" 
d="M363 633l-134 -633h-83l134 633h-180l17 79h443l-17 -79h-180z" />
    <glyph glyph-name="afii10037" unicode="&#x423;" horiz-adv-x="593" 
d="M287 388q5 -14 6.5 -25t1.5 -21h4q5 8 9 16t12 19l240 335h94l-503 -712h-93l185 261l-156 451h89z" />
    <glyph glyph-name="afii10038" unicode="&#x424;" horiz-adv-x="816" 
d="M425 126q46 2 95 21.5t94 53.5q45 35 73 90.5t28 121.5q0 82 -56 127t-136 47zM441 587q-44 -1 -94.5 -20t-94 -55t-72.5 -89t-29 -122q0 -81 56 -128q58 -46 136 -47zM311 -28l15 75q-45 2 -89 18.5t-84 45.5q-39 30 -63.5 78t-24.5 108q0 147 117 254q118 106 276 115
l16 74h82l-16 -74q43 -1 89 -16.5t84.5 -46t63 -76.5t24.5 -108q0 -75 -27 -138t-72 -105q-33 -32 -71.5 -56.5t-77.5 -41t-76.5 -24.5t-68.5 -7l-15 -75h-82z" />
    <glyph glyph-name="afii10039" unicode="&#x425;" horiz-adv-x="602" 
d="M69 0h-109l316 377l-150 335h91l80 -182q16 -38 33 -87h7l65 85l151 184h109l-292 -347l167 -365h-95l-94 215q-11 25 -19 45.5t-13 37.5h-7l-29.5 -41t-33.5 -42z" />
    <glyph glyph-name="afii10040" unicode="&#x426;" horiz-adv-x="701" 
d="M22 0l152 712h82l-135 -633h346l135 633h82l-135 -633h73l-48 -226h-83l31 147h-500z" />
    <glyph glyph-name="afii10041" unicode="&#x427;" horiz-adv-x="629" 
d="M435 0l57 271q-54 -13 -104.5 -19t-98.5 -6q-46 0 -79 15.5t-52 43t-24 67t6 87.5l54 253h83l-53 -247q-14 -70 12.5 -106.5t80.5 -36.5q88 0 192 27l77 363h82l-151 -712h-82z" />
    <glyph glyph-name="afii10042" unicode="&#x428;" horiz-adv-x="945" 
d="M7 0l151 712h83l-135 -634h265l135 634h83l-135 -634h264l135 634h83l-151 -712h-778z" />
    <glyph glyph-name="afii10043" unicode="&#x429;" horiz-adv-x="969" 
d="M22 0l152 712h83l-135 -633h265l135 633h83l-135 -633h264l135 633h83l-135 -633h73l-48 -226h-83l31 147h-768z" />
    <glyph glyph-name="afii10044" unicode="&#x42a;" horiz-adv-x="679" 
d="M443 415q83 0 136 -44q54 -44 54 -119q0 -115 -83 -184q-83 -68 -191 -68h-228l134 633h-163l17 79h245l-63 -297h142zM368 77q71 0 125 45t54 120q0 48 -33.5 72t-90.5 24h-139l-55 -261h139z" />
    <glyph glyph-name="afii10045" unicode="&#x42b;" horiz-adv-x="817" 
d="M344 415q82 0 137 -44q54 -44 54 -119q0 -115 -83 -184q-83 -68 -191 -68h-228l151 712h82l-63 -297h141zM270 77q71 0 125 45t54 120q0 48 -33.5 72t-90.5 24h-139l-55 -261h139zM830 712l-151 -712h-82l151 712h82z" />
    <glyph glyph-name="afii10046" unicode="&#x42c;" horiz-adv-x="567" 
d="M330 415q82 0 137 -44q54 -44 54 -119q0 -115 -83 -184q-83 -68 -191 -68h-228l151 712h82l-63 -297h141zM256 77q71 0 125 45t54 120q0 48 -33.5 72t-90.5 24h-139l-55 -261h139z" />
    <glyph glyph-name="afii10047" unicode="&#x42d;" horiz-adv-x="624" 
d="M191 68q110 0 199 71q88 70 120 178h-350l17 79h348q1 5 1 20q0 99 -62 164t-166 65q-76 0 -170 -28l17 84q97 23 156 23q135 0 222 -88q88 -88 88 -221q0 -113 -61 -213q-60 -99 -158 -156t-204 -57q-105 0 -189 25l18 82q71 -28 174 -28z" />
    <glyph glyph-name="afii10048" unicode="&#x42e;" horiz-adv-x="1065" 
d="M739 724q136 0 221 -88q87 -87 87 -220q0 -114 -61 -214q-62 -99 -160 -156t-205 -57q-134 0 -221 87q-86 89 -86 220v12.5t1 9.5h-133l-67 -318h-82l151 712h82l-68 -321h128q34 142 154 237q118 96 259 96zM627 68q137 0 237 103t100 242q0 101 -62 166q-62 66 -167 66
q-137 0 -238 -104q-100 -103 -100 -242q0 -101 62 -166q63 -65 168 -65z" />
    <glyph glyph-name="afii10049" unicode="&#x42f;" horiz-adv-x="573" 
d="M591 712l-151 -712h-82l62 292h-74l-271 -292h-107l280 298q-67 13 -103.5 58t-36.5 106q0 103 79 176q80 74 209 74h195zM436 370l56 264h-111q-78 0 -134 -47q-55 -46 -55 -118q0 -48 34.5 -73.5t97.5 -25.5h112z" />
    <glyph glyph-name="afii10065" unicode="&#x430;" horiz-adv-x="653" 
d="M342 539q116 0 196 -102l18 90h80l-112 -527h-70l13 97q-96 -108 -212 -108q-103 0 -158 63q-55 64 -55 161q0 125 86 226q85 100 214 100zM273 62q84 0 146 60q62 61 82 147l19 87q-64 109 -170 109q-94 0 -160 -72t-66 -179q0 -70 38.5 -111t110.5 -41z" />
    <glyph glyph-name="afii10066" unicode="&#x431;" horiz-adv-x="656" 
d="M268 63q48 0 90.5 21.5t74 57t49.5 81t18 93.5q0 68 -39 108.5t-106 40.5q-47 0 -89.5 -21.5t-74.5 -57.5t-50.5 -81.5t-18.5 -93.5q0 -69 39.5 -108.5t106.5 -39.5zM630 710q-16 -16 -31 -26.5t-32 -16.5t-37 -8.5t-44 -2.5q-50 0 -96 -9.5t-86.5 -31.5t-73.5 -59.5
t-57 -92.5h4q37 38 87 57t107 19q100 0 156.5 -58t56.5 -158q0 -63 -25.5 -123t-70 -107t-105 -75.5t-131.5 -28.5q-48 0 -87 15t-66.5 43.5t-42.5 68.5t-15 90q0 49 9.5 108t31 118t55.5 114t82.5 97.5t112.5 68t146 25.5q43 0 72.5 7t50.5 31z" />
    <glyph glyph-name="afii10067" unicode="&#x432;" horiz-adv-x="504" 
d="M202 456l-33 -157h96q23 0 43.5 6t36 18t24.5 29t9 40q0 30 -23.5 47t-61.5 17h-91zM155 234l-34 -163h105q51 0 87 25.5t36 74.5q0 63 -95 63h-99zM139 527h159q79 0 117.5 -33t38.5 -87q0 -91 -79 -134q56 -35 56 -100q0 -79 -62 -126t-144 -47h-198z" />
    <glyph glyph-name="afii10068" unicode="&#x433;" horiz-adv-x="368" 
d="M202 455l-96 -455h-79l112 527h274l-16 -72h-195z" />
    <glyph glyph-name="afii10069" unicode="&#x434;" horiz-adv-x="594" 
d="M9 72h54q16 16 35.5 49t39.5 76t38.5 93.5t33.5 103.5l37 133h315l-97 -455h62l-40 -185h-80l25 113h-358l-25 -113h-79zM273 349q-15 -50 -31.5 -93.5t-33 -79.5t-31 -62.5t-26.5 -41.5h234l81 383h-165z" />
    <glyph glyph-name="afii10070" unicode="&#x435;" horiz-adv-x="566" 
d="M432 33q-83 -44 -168 -44q-100 0 -161 64t-61 167q0 125 86 222q87 97 210 97q87 0 137.5 -56.5t50.5 -159.5q0 -12 -1.5 -29t-5.5 -39h-391q-1 -6 -1.5 -15t-0.5 -20q0 -72 39.5 -116.5t108.5 -44.5q95 0 178 66zM332 472q-31 0 -60 -11.5t-53.5 -32.5t-44.5 -50
t-33 -63h310v23q0 64 -32.5 99t-86.5 35z" />
    <glyph glyph-name="afii10072" unicode="&#x436;" horiz-adv-x="778" 
d="M335 202q3 13 6.5 25l6.5 23h-16q-12 -13 -23.5 -24l-23.5 -22l-221 -204h-101l305 283l-183 244h94l132 -180l16.5 -22t14.5 -24h16q3 19 9 49l38 177h80l-38 -177q-3 -14 -6.5 -26l-6.5 -23h16q12 13 23.5 24l23.5 22l208 180h100l-288 -255l185 -272h-96l-135 204
l-15.5 22t-15.5 24h-16l-4 -23t-5 -25l-43 -202h-80z" />
    <glyph glyph-name="afii10073" unicode="&#x437;" horiz-adv-x="469" 
d="M118 247l13 61h88q60 0 96.5 27t36.5 64q0 30 -26 49.5t-68 19.5q-91 0 -169 -29l16 72q83 28 162 28q73 0 120 -37q49 -37 49 -94q0 -37 -23.5 -72t-69.5 -58q68 -33 68 -105q0 -79 -74 -132q-73 -52 -171 -52q-101 0 -172 25l14 72q61 -27 167 -27q62 0 108 32
q46 31 46 82q0 33 -33 53.5t-88 20.5h-90z" />
    <glyph glyph-name="afii10074" unicode="&#x438;" horiz-adv-x="599" 
d="M27 0l113 527h80l-64 -297q-2 -13 -7 -33.5l-12 -49.5h6q13 15 24.5 31t34.5 39l305 310h77l-113 -527h-80l72 337q7 38 14 57h-7q-3 -3 -9 -11l-13 -17l-14.5 -18t-12.5 -14l-329 -334h-65z" />
    <glyph glyph-name="afii10075" unicode="&#x439;" horiz-adv-x="599" 
d="M27 0l113 527h80l-64 -297q-2 -13 -7 -33.5l-12 -49.5h6q13 15 24.5 31t34.5 39l305 310h77l-113 -527h-80l72 337q7 38 14 57h-7q-3 -3 -9 -11l-13 -17l-14.5 -18t-12.5 -14l-329 -334h-65zM554 730q-56 -111 -173 -111q-51 0 -91.5 27t-60.5 84l57 23q23 -74 101 -74
q80 0 119 74z" />
    <glyph glyph-name="afii10076" unicode="&#x43a;" horiz-adv-x="494" 
d="M182 204q-8 11 -14.5 22l-13.5 24h-4l-4 -23t-5 -25l-43 -202h-80l113 527h80l-38 -177q-3 -14 -6.5 -26l-6.5 -23h4q11 13 22.5 23.5l23.5 21.5l205 181h106l-292 -257l187 -270h-95z" />
    <glyph glyph-name="afii10077" unicode="&#x43b;" horiz-adv-x="541" 
d="M168 527h355l-111 -527h-79l96 455h-198l-63 -297q-16 -75 -66.5 -118t-138.5 -43l16 71q42 2 71.5 25t38.5 63z" />
    <glyph glyph-name="afii10078" unicode="&#x43c;" horiz-adv-x="675" 
d="M188 391l-83 -391h-79l112 527h37l172 -197l254 197h57l-112 -527h-79l84 393l-217 -167z" />
    <glyph glyph-name="afii10079" unicode="&#x43d;" 
d="M426 313l45 214h79l-111 -527h-80l51 240h-254l-51 -240h-78l112 527h78l-45 -214h254z" />
    <glyph glyph-name="afii10080" unicode="&#x43e;" horiz-adv-x="625" 
d="M353 539q104 0 167 -67q63 -66 63 -167q0 -127 -92 -222q-91 -94 -218 -94q-104 0 -167 66t-63 166q0 129 91 223q92 95 219 95zM278 62q85 0 154 70t69 173q0 72 -45 116q-44 44 -108 44q-86 0 -155 -70q-68 -71 -68 -173q0 -72 44 -116q46 -44 109 -44z" />
    <glyph glyph-name="afii10081" unicode="&#x43f;" horiz-adv-x="563" 
d="M139 527h406l-111 -527h-79l95 455h-248l-97 -455h-78z" />
    <glyph glyph-name="afii10082" unicode="&#x440;" horiz-adv-x="656" 
d="M615 316q0 -127 -87 -227q-85 -100 -216 -100q-114 0 -194 89l-62 -294h-79l157 743h72l-15 -98q101 110 214 110q101 0 155 -64q55 -62 55 -159zM307 62q94 0 160 73t66 178q0 70 -39 111t-109 41q-86 0 -148 -61q-63 -60 -81 -146l-20 -97q28 -45 72 -72t99 -27z" />
    <glyph glyph-name="afii10083" unicode="&#x441;" horiz-adv-x="488" 
d="M397 20q-63 -31 -130 -31q-101 0 -162 63q-61 64 -61 161q0 136 95 231q97 95 218 95q71 0 126 -37l-18 -82q-45 45 -115 45q-85 0 -154 -70q-69 -71 -69 -174q0 -35 10.5 -64t30 -50t47 -33t61.5 -12q71 0 142 51z" />
    <glyph glyph-name="afii10084" unicode="&#x442;" horiz-adv-x="387" 
d="M277 455l-96 -455h-79l96 455h-141l16 72h360l-15 -72h-141z" />
    <glyph glyph-name="afii10085" unicode="&#x443;" horiz-adv-x="556" 
d="M65 527h81l74 -285q9 -35 15 -61.5t8 -45.5h7l34 60t27 45l186 287h93l-493 -743h-87l180 269z" />
    <glyph glyph-name="afii10086" unicode="&#x444;" horiz-adv-x="734" 
d="M517 764l-48 -228q39 -2 78.5 -17t73.5 -41q35 -26 56.5 -68t21.5 -93q0 -43 -15 -89q-24 -76 -86 -132q-63 -55 -125.5 -78.5t-119.5 -26.5l-44 -207h-78l43 207q-52 1 -105 25q-52 24 -89 75q-38 52 -38 118q0 57 17.5 103t46.5 81.5t66 62t75.5 44t75.5 26.5t67 10
l48 228h79zM376 463q-93 -4 -172 -77q-77 -71 -77 -168q0 -33 12 -60.5t33.5 -47.5t51.5 -32t66 -15zM367 62q94 6 171 77q77 72 77 170q0 67 -45.5 108.5t-117.5 45.5z" />
    <glyph glyph-name="afii10087" unicode="&#x445;" horiz-adv-x="531" 
d="M89 527h88l63 -124q13 -25 21 -43.5l13 -29.5h5q13 25 56 71l114 126h100l-239 -257l149 -270h-88l-76 148q-13 25 -21 42t-11 28h-5l-57 -68l-135 -150h-102l261 279z" />
    <glyph glyph-name="afii10088" unicode="&#x446;" horiz-adv-x="589" 
d="M31 0l112 527h78l-97 -456h249l97 456h79l-97 -456h70l-40 -184h-80l25 113h-396z" />
    <glyph glyph-name="afii10089" unicode="&#x447;" horiz-adv-x="517" 
d="M307 0l40 190q-77 -15 -148 -15q-63 0 -96 31t-33 83q0 22 5 44l41 193h79l-39 -186q-3 -15 -3 -29q0 -33 19 -50t52 -17q60 0 139 17l56 265h79l-112 -526h-79z" />
    <glyph glyph-name="afii10090" unicode="&#x448;" horiz-adv-x="766" 
d="M18 0l113 527h80l-98 -457h187l98 457h80l-98 -457h187l98 457h80l-113 -527h-614z" />
    <glyph glyph-name="afii10091" unicode="&#x449;" horiz-adv-x="797" 
d="M31 0l112 527h80l-97 -456h187l97 456h80l-97 -456h187l97 456h80l-97 -455h70l-40 -185h-80l25 113h-604z" />
    <glyph glyph-name="afii10092" unicode="&#x44a;" horiz-adv-x="559" 
d="M349 311q69 0 111 -33t42 -93q0 -84 -63 -135q-64 -50 -147 -50h-190l96 455h-141l15 72h221l-47 -216h103zM295 69q25 0 48 7t40 20.5t27 32.5t10 43q0 33 -24.5 50.5t-66.5 17.5h-98l-36 -171h100z" />
    <glyph glyph-name="afii10093" unicode="&#x44b;" horiz-adv-x="708" 
d="M275 311q69 0 110.5 -33t41.5 -93q0 -84 -63 -135q-64 -50 -147 -50h-190l112 527h79l-47 -216h104zM221 69q25 0 48 7t40 20.5t27 32.5t10 43q0 33 -24.5 50.5t-66.5 17.5h-99l-35 -171h100zM683 527l-112 -527h-81l112 527h81z" />
    <glyph glyph-name="afii10094" unicode="&#x44c;" horiz-adv-x="486" 
d="M275 311q69 0 110.5 -33t41.5 -93q0 -84 -63 -135q-64 -50 -147 -50h-190l112 527h79l-47 -216h104zM221 69q25 0 48 7t40 20.5t27 32.5t10 43q0 33 -24.5 50.5t-66.5 17.5h-99l-35 -171h100z" />
    <glyph glyph-name="afii10095" unicode="&#x44d;" horiz-adv-x="512" 
d="M177 60q72 0 130 49q60 50 83 125h-277l13 60h275q0 2 0.5 8t0.5 8q0 35 -11 64t-30.5 50t-47.5 32.5t-61 11.5q-86 0 -170 -40l17 78q91 33 158 33q101 0 163 -62t62 -163q0 -139 -93 -232q-92 -93 -217 -93q-95 0 -176 35l16 73q64 -37 165 -37z" />
    <glyph glyph-name="afii10096" unicode="&#x44e;" horiz-adv-x="866" 
d="M603 538q105 0 166 -67q63 -66 63 -167q0 -126 -92 -221q-91 -94 -218 -94q-107 0 -167 66q-60 69 -61 170h-143l-48 -225h-78l112 526h79l-50 -231h136q27 104 111 173q83 70 190 70zM528 61q86 0 153 70q69 70 69 174q0 72 -44 116t-109 44q-85 0 -154 -70
q-68 -71 -68 -173q0 -71 44 -117q44 -44 109 -44z" />
    <glyph glyph-name="afii10097" unicode="&#x44f;" horiz-adv-x="486" 
d="M467 526l-111 -526h-80l44 207h-41l-207 -207h-105l212 213q-51 11 -78.5 45t-27.5 79q0 78 60 134q61 55 164 55h170zM335 277l37 178h-88q-27 0 -50 -8t-40.5 -22t-27.5 -33.5t-10 -43.5q0 -33 24 -52t67 -19h88z" />
    <glyph glyph-name="uni0450" unicode="&#x450;" horiz-adv-x="566" 
d="M432 33q-83 -44 -168 -44q-100 0 -161 64t-61 167q0 125 86 222q87 97 210 97q87 0 137.5 -56.5t50.5 -159.5q0 -12 -1.5 -29t-5.5 -39h-391q-1 -6 -1.5 -15t-0.5 -20q0 -72 39.5 -116.5t108.5 -44.5q95 0 178 66zM332 472q-31 0 -60 -11.5t-53.5 -32.5t-44.5 -50
t-33 -63h310v23q0 64 -32.5 99t-86.5 35zM482 641l-36 -45l-180 124l46 58z" />
    <glyph glyph-name="afii10071" unicode="&#x451;" horiz-adv-x="566" 
d="M432 33q-83 -44 -168 -44q-100 0 -161 64t-61 167q0 125 86 222q87 97 210 97q87 0 137.5 -56.5t50.5 -159.5q0 -12 -1.5 -29t-5.5 -39h-391q-1 -6 -1.5 -15t-0.5 -20q0 -72 39.5 -116.5t108.5 -44.5q95 0 178 66zM332 472q-31 0 -60 -11.5t-53.5 -32.5t-44.5 -50
t-33 -63h310v23q0 64 -32.5 99t-86.5 35zM339 688q-3 -21 -20 -36t-38 -15q-20 0 -33 12t-13 31q0 24 17 42t41 18q20 0 33 -13t13 -33v-6zM464 740q20 0 33 -13t13 -33q0 -23 -18 -40t-40 -17q-20 0 -33 12t-13 31q0 24 17 42t41 18z" />
    <glyph glyph-name="afii10099" unicode="&#x452;" horiz-adv-x="606" 
d="M264 -154q24 0 44.5 9t36 25t26 36.5t15.5 44.5l71 335q7 29 7 59q0 111 -110 111q-41 0 -85 -26q-22 -13 -38.5 -26t-28.5 -26l-23 -25l-78 -363h-79l129 605h-55l11 52h55l23 107h79l-23 -107h166l-11 -52h-166l-33 -157q85 91 180 91q84 0 126.5 -41t42.5 -116
q0 -20 -2 -39t-6 -38l-70 -329q-9 -44 -28 -81t-46.5 -63.5t-64.5 -41.5t-82 -15z" />
    <glyph glyph-name="afii10100" unicode="&#x453;" horiz-adv-x="368" 
d="M202 455l-96 -455h-79l112 527h274l-16 -72h-195zM222 596l-27 45l201 137l33 -58z" />
    <glyph glyph-name="afii10101" unicode="&#x454;" horiz-adv-x="513" 
d="M347 468q-70 0 -131 -50q-60 -51 -82 -124h277l-13 -60h-275q0 -2 -0.5 -8t-0.5 -8q0 -35 11 -64t30.5 -50t47.5 -32.5t61 -11.5q86 0 170 40l-17 -78q-92 -33 -158 -33q-102 0 -163 61q-62 62 -62 164q0 138 92 232q93 93 218 93q95 0 176 -35l-16 -73q-64 37 -165 37z
" />
    <glyph glyph-name="afii10102" unicode="&#x455;" horiz-adv-x="434" 
d="M359 154q0 -71 -59 -118t-135 -47q-81 0 -141 42l10.5 46.5t6.5 35.5q49 -55 126 -55q41 0 75 22q35 23 35 60q0 28 -32 57q-16 14 -32.5 26.5t-35.5 23.5q-38 22 -69 57q-31 34 -31 74q0 68 55 114q56 47 132 47q68 0 131 -45l-18 -78q-53 52 -115 52q-35 0 -69 -21
q-34 -19 -34 -55q0 -27 31 -55q16 -14 33 -26.5t36 -23.5q36 -20 68 -57q32 -35 32 -76z" />
    <glyph glyph-name="afii10103" unicode="&#x456;" horiz-adv-x="241" 
d="M253 645q0 -23 -18.5 -39.5t-41.5 -16.5q-22 0 -36 14.5t-14 36.5q0 24 19 42t43 18q20 0 34 -15t14 -40zM102 0h-79l111 527h80z" />
    <glyph glyph-name="afii10104" unicode="&#x457;" horiz-adv-x="241" 
d="M176 688q-3 -21 -20 -36t-38 -15q-20 0 -33 12t-13 31q0 24 17 42t41 18q20 0 33 -13t13 -33v-6zM301 740q20 0 33 -13t13 -33q0 -23 -18 -40t-40 -17q-20 0 -33 12t-13 31q0 24 17 42t41 18zM216 527l-112 -527h-81l112 527h81z" />
    <glyph glyph-name="afii10105" unicode="&#x458;" horiz-adv-x="241" 
d="M-156 -149q18 -5 48 -5q24 0 44.5 9t36 25t26 36.5t15.5 44.5l121 566h78l-117 -551q-9 -44 -28 -81t-46.5 -63.5t-64.5 -41.5t-82 -15q-10 0 -21.5 1.5l-25.5 3.5zM253 645q0 -23 -18.5 -39.5t-41.5 -16.5q-22 0 -36 14.5t-14 36.5q0 24 19 42t43 18q20 0 34 -15t14 -40
z" />
    <glyph glyph-name="afii10106" unicode="&#x459;" horiz-adv-x="787" 
d="M580 311q69 0 110.5 -33t41.5 -93q0 -84 -63 -135q-62 -50 -147 -50h-190l95 455h-197l-62 -297q-35 -161 -206 -161l17 71q40 2 70 25t39 63l79 371h355l-45 -216h103zM525 69q25 0 48 7t40.5 20.5t27.5 32.5t10 43q0 33 -24.5 50.5t-66.5 17.5h-99l-36 -171h100z" />
    <glyph glyph-name="afii10107" unicode="&#x45a;" horiz-adv-x="813" 
d="M608 312q69 0 110 -32.5t41 -92.5q0 -85 -63 -136t-147 -51h-191l51 240h-254l-50 -240h-79l111 527h79l-45 -215h254l46 215h78l-45 -215h104zM552 69q25 0 48 7t40 20.5t27 33t10 43.5q0 33 -24.5 50t-66.5 17h-98l-36 -171h100z" />
    <glyph glyph-name="afii10108" unicode="&#x45b;" horiz-adv-x="606" 
d="M264 764l-23 -107h166l-11 -52h-166l-33 -157q85 91 180 91q84 0 126.5 -41t42.5 -116q0 -20 -2 -39t-6 -38l-64 -305h-79l62 296q7 29 7 59q0 111 -110 111q-41 0 -85 -26q-22 -13 -38.5 -26t-28.5 -26l-23 -25l-78 -363h-79l129 605h-55l11 52h55l23 107h79z" />
    <glyph glyph-name="afii10109" unicode="&#x45c;" horiz-adv-x="504" 
d="M196 299l225 227h105l-241 -240q24 -5 43 -15.5t33 -24t23.5 -28.5t15.5 -28q8 -18 11 -48q2 -15 3 -27t1 -21q1 -8 1 -21.5v-32.5v-40h-81v84q0 37 -7.5 64t-26 44.5t-49.5 26t-77 8.5h-22l-48 -227h-79l112 526h79l-49 -227h28zM248 596l-27 45l201 137l33 -58z" />
    <glyph glyph-name="uni045D" unicode="&#x45d;" horiz-adv-x="599" 
d="M27 0l113 527h80l-64 -297q-2 -13 -7 -33.5l-12 -49.5h6q13 15 24.5 31t34.5 39l305 310h77l-113 -527h-80l72 337q7 38 14 57h-7q-3 -3 -9 -11l-13 -17l-14.5 -18t-12.5 -14l-329 -334h-65zM498 641l-36 -45l-180 124l46 58z" />
    <glyph glyph-name="afii10110" unicode="&#x45e;" horiz-adv-x="556" 
d="M65 527h81l74 -285q9 -35 15 -61.5t8 -45.5h7l34 60t27 45l186 287h93l-493 -743h-87l180 269zM522 730q-56 -111 -173 -111q-51 0 -91.5 27t-60.5 84l57 23q23 -74 101 -74q80 0 119 74z" />
    <glyph glyph-name="afii10193" unicode="&#x45f;" horiz-adv-x="563" 
d="M158 -171l37 171h-168l112 527h78l-97 -456h249l97 456h79l-111 -527h-170l-36 -171h-70z" />
    <glyph glyph-name="afii10050" unicode="&#x490;" horiz-adv-x="435" 
d="M249 634l-134 -634h-82l151 712h262l37 176h72l-54 -254h-252z" />
    <glyph glyph-name="afii10098" unicode="&#x491;" horiz-adv-x="368" 
d="M202 455l-96 -455h-79l112 527h204l36 172h70l-53 -244h-194z" />
    <glyph glyph-name="afii10846" unicode="&#x4d9;" horiz-adv-x="566" 
d="M134 493q83 44 168 44q98 0 160 -65t62 -166q0 -126 -87 -223q-86 -96 -209 -96q-87 0 -137.5 56.5t-50.5 159.5q0 12 1.5 29t5.5 39h391q1 6 1.5 15t0.5 20q0 72 -39.5 116.5t-108.5 44.5q-96 0 -178 -66zM234 54q31 0 60 11.5t53.5 32.5t44.5 49.5t33 63.5h-310v-23
q0 -64 32.5 -99t86.5 -35z" />
    <glyph glyph-name="Wgrave" unicode="&#x1e80;" horiz-adv-x="907" 
d="M707 276l162 436h86l-262 -712h-85l-83 396q-8 35 -12.5 62.5t-6.5 48.5h-6q-35 -68 -60 -111l-239 -396h-88l14 712h80l-10 -436q-1 -41 -3 -76t-5 -66h6q40 78 78 141l239 401h38l82 -400q8 -37 13 -72t9 -70h6zM691 827l-36 -45l-180 124l46 58z" />
    <glyph glyph-name="wgrave" unicode="&#x1e81;" horiz-adv-x="803" 
d="M75 527h79l20 -298q1 -17 1.5 -45.5t0.5 -68.5h6q28 55 66 113l179 269h30l75 -268q16 -65 24 -114h5l27.5 70t19.5 44l135 298h83l-244 -527h-56l-81 276q-8 28 -13.5 51t-8.5 42h-5l-57 -94l-189 -275h-56zM596 641l-36 -45l-180 124l46 58z" />
    <glyph glyph-name="Wacute" unicode="&#x1e82;" horiz-adv-x="907" 
d="M707 276l162 436h86l-262 -712h-85l-83 396q-8 35 -12.5 62.5t-6.5 48.5h-6q-35 -68 -60 -111l-239 -396h-88l14 712h80l-10 -436q-1 -41 -3 -76t-5 -66h6q40 78 78 141l239 401h38l82 -400q8 -37 13 -72t9 -70h6zM493 782l-27 45l201 137l33 -58z" />
    <glyph glyph-name="wacute" unicode="&#x1e83;" horiz-adv-x="803" 
d="M75 527h79l20 -298q1 -17 1.5 -45.5t0.5 -68.5h6q28 55 66 113l179 269h30l75 -268q16 -65 24 -114h5l27.5 70t19.5 44l135 298h83l-244 -527h-56l-81 276q-8 28 -13.5 51t-8.5 42h-5l-57 -94l-189 -275h-56zM397 596l-27 45l201 137l33 -58z" />
    <glyph glyph-name="Wdieresis" unicode="&#x1e84;" horiz-adv-x="907" 
d="M707 276l162 436h86l-262 -712h-85l-83 396q-8 35 -12.5 62.5t-6.5 48.5h-6q-35 -68 -60 -111l-239 -396h-88l14 712h80l-10 -436q-1 -41 -3 -76t-5 -66h6q40 78 78 141l239 401h38l82 -400q8 -37 13 -72t9 -70h6zM553 874q-3 -21 -20 -36t-38 -15q-20 0 -33 12t-13 31
q0 24 17 42t41 18q20 0 33 -13t13 -33v-6zM678 926q20 0 33 -13t13 -33q0 -23 -18 -40t-40 -17q-20 0 -33 12t-13 31q0 24 17 42t41 18z" />
    <glyph glyph-name="wdieresis" unicode="&#x1e85;" horiz-adv-x="803" 
d="M75 527h79l20 -298q1 -17 1.5 -45.5t0.5 -68.5h6q28 55 66 113l179 269h30l75 -268q16 -65 24 -114h5l27.5 70t19.5 44l135 298h83l-244 -527h-56l-81 276q-8 28 -13.5 51t-8.5 42h-5l-57 -94l-189 -275h-56zM454 688q-3 -21 -20 -36t-38 -15q-20 0 -33 12t-13 31
q0 24 17 42t41 18q20 0 33 -13t13 -33v-6zM579 740q20 0 33 -13t13 -33q0 -23 -18 -40t-40 -17q-20 0 -33 12t-13 31q0 24 17 42t41 18z" />
    <glyph glyph-name="Ygrave" unicode="&#x1ef2;" horiz-adv-x="591" 
d="M572 712h100l-327 -417l-63 -295h-82l63 295l-151 417h90l86 -244q6 -17 12 -37.5l13 -45.5h6q9 16 24 36l35 45zM532 827l-36 -45l-180 124l46 58z" />
    <glyph glyph-name="ygrave" unicode="&#x1ef3;" horiz-adv-x="558" 
d="M65 527h81l74 -285q9 -35 15 -61.5t8 -45.5h7l34 60t27 45l186 287h93l-493 -743h-87l180 269zM470 641l-36 -45l-180 124l46 58z" />
    <glyph glyph-name="endash" unicode="&#x2013;" horiz-adv-x="516" 
d="M57 341h442l-15 -73h-443z" />
    <glyph glyph-name="emdash" unicode="&#x2014;" horiz-adv-x="986" 
d="M57 341h911l-15 -73h-912z" />
    <glyph glyph-name="quoteleft" unicode="&#x2018;" horiz-adv-x="237" 
d="M300 767q-65 -142 -99 -274l-99 -12q70 180 147 295z" />
    <glyph glyph-name="quoteright" unicode="&#x2019;" horiz-adv-x="237" 
d="M103 490q32 73 56.5 141t41.5 133l99 12q-70 -180 -147 -295z" />
    <glyph glyph-name="quotesinglbase" unicode="&#x201a;" horiz-adv-x="237" 
d="M-41 -190q32 73 56.5 141t41.5 133l99 12q-70 -180 -147 -295z" />
    <glyph glyph-name="quotedblleft" unicode="&#x201c;" horiz-adv-x="417" 
d="M300 767q-65 -142 -99 -274l-99 -12q70 180 147 295zM480 767q-65 -142 -99 -274l-99 -12q70 180 147 295z" />
    <glyph glyph-name="quotedblright" unicode="&#x201d;" horiz-adv-x="417" 
d="M103 490q32 73 56.5 141t41.5 133l99 12q-70 -180 -147 -295zM283 490q32 73 56.5 141t41.5 133l99 12q-70 -180 -147 -295z" />
    <glyph glyph-name="quotedblbase" unicode="&#x201e;" horiz-adv-x="417" 
d="M-41 -190q32 73 56.5 141t41.5 133l99 12q-70 -180 -147 -295zM138 -190q32 73 56.5 141t41.5 133l99 12q-70 -180 -147 -295z" />
    <glyph glyph-name="dagger" unicode="&#x2020;" horiz-adv-x="531" 
d="M335 764h80l-46 -219h170l-17 -78h-170l-122 -572h-80l122 572h-169l16 78h169z" />
    <glyph glyph-name="daggerdbl" unicode="&#x2021;" horiz-adv-x="531" 
d="M335 764h80l-46 -219h170l-16 -77h-170l-45 -205h170l-16 -78h-170l-62 -290h-80l62 290h-170l17 78h169l44 205h-169l16 77h170z" />
    <glyph glyph-name="bullet" unicode="&#x2022;" horiz-adv-x="400" 
d="M255 521q67 0 114 -48q48 -48 48 -116q0 -69 -48 -117q-47 -48 -114 -48t-116 48q-48 49 -48 117q0 67 48 115q48 49 116 49z" />
    <glyph glyph-name="ellipsis" unicode="&#x2026;" horiz-adv-x="880" 
d="M147 49q-3 -23 -21.5 -39t-41.5 -16t-37.5 16t-11.5 39t21 39.5t41 16.5t37.5 -16.5t12.5 -39.5zM454 49q-3 -23 -21 -39t-41 -16t-37.5 16t-11.5 39q2 23 20 39.5t41 16.5t37.5 -16.5t12.5 -39.5zM669 88q18 17 41 17t37 -17q15 -16 12 -39t-21 -39q-17 -16 -40 -16
t-38 16t-12 39t21 39z" />
    <glyph glyph-name="perthousand" unicode="&#x2030;" horiz-adv-x="1142" 
d="M128 16l517 714l46 -33l-518 -713zM627 363q123 0 123 -122q0 -11 -1.5 -26.5t-5.5 -36.5q-36 -185 -187 -185q-123 0 -123 120q0 33 7 65q35 185 187 185zM565 50q47 0 84 46t37 135q0 74 -67 74q-46 0 -84 -44t-38 -136q0 -75 68 -75zM275 722q123 0 123 -122
q0 -11 -1.5 -26.5t-5.5 -36.5q-36 -185 -187 -185q-123 0 -123 120q0 33 7 65q35 185 187 185zM213 409q47 0 84 46t37 135q0 74 -67 74q-46 0 -84 -44t-38 -136q0 -75 68 -75zM980 363q123 0 123 -122q0 -11 -1.5 -26.5t-5.5 -36.5q-36 -185 -187 -185q-123 0 -123 120
q0 33 7 65q35 185 187 185zM918 50q47 0 84 46t37 135q0 74 -67 74q-46 0 -84 -44t-38 -136q0 -75 68 -75z" />
    <glyph glyph-name="guilsinglleft" unicode="&#x2039;" horiz-adv-x="284" 
d="M295 457l-175 -196l88 -189h-85l-91 195l168 190h95z" />
    <glyph glyph-name="guilsinglright" unicode="&#x203a;" horiz-adv-x="283" 
d="M-5 72l174 196l-88 189h86l91 -195l-168 -190h-95z" />
    <glyph glyph-name="fraction" unicode="&#x2044;" horiz-adv-x="181" 
d="M-120 -17l-45 34l516 713l46 -33z" />
    <glyph glyph-name="zerosuperior" unicode="&#x2070;" horiz-adv-x="340" 
d="M304 905q105 0 105 -109q0 -15 -1.5 -31.5t-5.5 -33.5l-7 -34q-35 -174 -164 -174q-105 0 -105 108q0 23 8 66l7 34q34 174 163 174zM238 576q73 0 100 124l7 28q6 34 6 58q0 66 -54 66q-72 0 -100 -124l-6 -28q-7 -25 -8 -59q0 -65 55 -65z" />
    <glyph glyph-name="foursuperior" unicode="&#x2074;" horiz-adv-x="331" 
d="M342 655h41l-11 -53h-41l-16 -73h-56l16 73h-172l9 47l237 250h45zM287 654l31 146l-139 -145z" />
    <glyph glyph-name="fivesuperior" unicode="&#x2075;" horiz-adv-x="307" 
d="M249 774q45 0 74.5 -27.5t29.5 -69.5q0 -62 -45 -108t-108 -46q-55 0 -87 29l12 56q28 -34 81 -34q38 0 63 28q27 28 27 67q0 26 -14.5 41.5t-40.5 15.5q-31 0 -74 -22l-20 13l62 182h180l-12 -54h-135l-27 -77q24 6 34 6z" />
    <glyph glyph-name="sixsuperior" unicode="&#x2076;" horiz-adv-x="304" 
d="M291 898h66l-111 -126q49 0 81 -26t32 -71q0 -60 -43 -106t-106 -46q-48 0 -77 31t-29 77q0 55 57 120zM215 574q35 0 62 27t27 63q0 26 -17.5 42.5t-43.5 16.5q-31 0 -60 -26q-27 -26 -27 -61q0 -26 15 -44t44 -18z" />
    <glyph glyph-name="sevensuperior" unicode="&#x2077;" horiz-adv-x="280" 
d="M310 845h-168l10 54h247l-5 -28l-242 -342h-63z" />
    <glyph glyph-name="eightsuperior" unicode="&#x2078;" horiz-adv-x="312" 
d="M115 615q0 31 18 63t54 51q-27 19 -27 56q0 49 39 84q39 36 87 36q39 0 65.5 -23t26.5 -59q0 -55 -55 -94q37 -22 37 -71q0 -55 -44 -96q-44 -39 -98 -39q-45 0 -74 26t-29 66zM249 701q-14 0 -28 -5.5t-25 -15.5t-18 -23.5t-7 -29.5q0 -22 15.5 -37t38.5 -15q14 0 28 6
t25.5 16t18.5 23.5t7 28.5q0 24 -16 38t-39 14zM279 854q-12 0 -23.5 -5t-20.5 -13t-14.5 -18.5t-5.5 -22.5q0 -17 13 -30t32 -13q24 0 43 19t19 41q0 18 -12 30t-31 12z" />
    <glyph glyph-name="ninesuperior" unicode="&#x2079;" horiz-adv-x="304" 
d="M191 529h-65l110 127q-49 0 -81 25.5t-32 70.5q0 60 43 106t106 46q48 0 77.5 -30t29.5 -78q0 -55 -58 -120zM267 853q-18 0 -34 -7t-28 -19.5t-19.5 -28.5t-7.5 -34q0 -26 17.5 -43t43.5 -17q31 0 59 26q28 25 28 62q0 26 -15.5 43.5t-43.5 17.5z" />
    <glyph glyph-name="parenleftsuperior" unicode="&#x207d;" horiz-adv-x="199" 
d="M308 938q-32 -41 -49 -68q-9 -14 -18.5 -35t-19.5 -50q-19 -54 -19 -116q0 -92 40 -175h-51q-43 96 -43 175q0 45 8.5 84.5t27.5 75.5t31 56q6 10 15 23l21 30h57z" />
    <glyph glyph-name="parenrightsuperior" unicode="&#x207e;" horiz-adv-x="198" 
d="M93 493q32 41 49 68t37 84q20 58 20 117q0 92 -40 175h51q43 -96 43 -175q0 -45 -8.5 -84.5t-27.5 -76.5l-17.5 -31.5l-13.5 -23.5t-15 -23l-21 -30h-57z" />
    <glyph glyph-name="zeroinferior" unicode="&#x2080;" horiz-adv-x="340" 
d="M151 182q105 0 105 -109q0 -15 -1.5 -31.5t-5.5 -33.5l-7 -34q-35 -174 -164 -174q-105 0 -105 108q0 23 8 66l7 34q34 174 163 174zM85 -147q73 0 100 124l7 28q6 34 6 58q0 66 -54 66q-72 0 -100 -124l-6 -28q-7 -25 -8 -59q0 -65 55 -65z" />
    <glyph glyph-name="oneinferior" unicode="&#x2081;" horiz-adv-x="234" 
d="M112 176h44l-79 -370h-55l61 288l-116 -81l15 70z" />
    <glyph glyph-name="twoinferior" unicode="&#x2082;" horiz-adv-x="306" 
d="M47 -142h141l-11 -52h-230l9 41l178 160q42 42 42 69q0 23 -14.5 37.5t-37.5 14.5q-54 0 -111 -65l17 80q49 39 101 39q43 0 72.5 -27t29.5 -69q0 -57 -63 -115z" />
    <glyph glyph-name="threeinferior" unicode="&#x2083;" horiz-adv-x="282" 
d="M26 -23l9 50h35q34 0 54.5 17t20.5 39q0 19 -13 32.5t-33 13.5q-49 0 -92 -37l13 60q43 30 86 30q42 0 69.5 -25t27.5 -62q0 -54 -55 -91q34 -27 34 -69q0 -57 -43 -96q-44 -39 -104 -39q-53 0 -86 27l12 57q29 -32 79 -32q15 0 30 6t27 16t19.5 23.5t7.5 28.5
q0 21 -20.5 36t-52.5 15h-25z" />
    <glyph glyph-name="fourinferior" unicode="&#x2084;" horiz-adv-x="331" 
d="M189 -68h41l-11 -53h-41l-16 -73h-56l16 73h-172l9 47l237 250h45zM134 -69l31 146l-139 -145z" />
    <glyph glyph-name="fiveinferior" unicode="&#x2085;" horiz-adv-x="307" 
d="M97 51q45 0 74.5 -27.5t29.5 -69.5q0 -61 -45 -107q-45 -47 -108 -47q-55 0 -87 29l12 56q28 -34 81 -34q37 0 63 29q27 28 27 66q0 26 -14.5 41.5t-40.5 15.5q-31 0 -74 -22l-20 13l62 182h180l-12 -54h-135l-27 -77q24 6 34 6z" />
    <glyph glyph-name="sixinferior" unicode="&#x2086;" horiz-adv-x="304" 
d="M144 175h66l-111 -126q49 0 81 -26t32 -71q0 -60 -43 -106t-106 -46q-48 0 -77 31t-29 77q0 55 57 120zM68 -149q18 0 34 7t28.5 19.5t19.5 29t7 34.5q0 26 -17.5 42.5t-43.5 16.5q-31 0 -60 -26q-27 -26 -27 -61q0 -26 15 -44t44 -18z" />
    <glyph glyph-name="seveninferior" unicode="&#x2087;" horiz-adv-x="281" 
d="M157 122h-168l10 54h247l-5 -28l-242 -342h-63z" />
    <glyph glyph-name="eightinferior" unicode="&#x2088;" horiz-adv-x="311" 
d="M-37 -108q0 31 18 63t54 51q-27 19 -27 56q0 49 39 84q39 36 87 36q39 0 65.5 -23t26.5 -59q0 -55 -55 -94q37 -22 37 -71q0 -56 -44 -95q-43 -40 -98 -40q-45 0 -74 26t-29 66zM97 -22q-14 0 -28 -5.5t-25 -15.5t-18 -23.5t-7 -29.5q0 -22 15.5 -37t38.5 -15q14 0 28 6
t25.5 16t18.5 23.5t7 28.5q0 24 -16 38t-39 14zM127 131q-12 0 -23.5 -5t-20.5 -13t-14.5 -18.5t-5.5 -22.5q0 -17 13 -30t32 -13q24 0 43 19t19 41q0 17 -12 29.5t-31 12.5z" />
    <glyph glyph-name="nineinferior" unicode="&#x2089;" horiz-adv-x="304" 
d="M48 -194h-65l110 127q-49 0 -81 25.5t-32 70.5q0 60 43 106t106 46q48 0 77.5 -30t29.5 -78q0 -55 -58 -120zM124 130q-18 0 -34 -7t-28 -19.5t-19.5 -28.5t-7.5 -34q0 -26 17.5 -43t43.5 -17q31 0 59 26q28 25 28 62q0 26 -15.5 43.5t-43.5 17.5z" />
    <glyph glyph-name="parenleftinferior" unicode="&#x208d;" horiz-adv-x="199" 
d="M155 213q-32 -41 -49 -68q-9 -14 -18.5 -35t-19.5 -50q-19 -54 -19 -116q0 -92 40 -175h-51q-43 96 -43 175q0 45 8.5 84.5t27.5 75.5t31 56q6 10 15 23l21 30h57z" />
    <glyph glyph-name="parenrightinferior" unicode="&#x208e;" horiz-adv-x="199" 
d="M-61 -232q32 41 49 68t37 85q20 57 20 116q0 92 -40 175h51q43 -96 43 -175q0 -45 -8.5 -84.5t-27.5 -75.5t-31 -56q-6 -10 -15 -23l-21 -30h-57z" />
    <glyph glyph-name="Euro" unicode="&#x20ac;" horiz-adv-x="663" 
d="M428 67q87 0 182 57l-20 -94q-90 -41 -168 -41q-123 0 -206 73q-84 74 -97 189h-92l13 60h77q1 48 15 95h-72l13 60h82q53 115 158 186q106 72 227 72q88 0 165 -45l-18 -85q-65 51 -151 51q-89 0 -168 -50q-77 -50 -122 -129h325l-13 -60h-340q-17 -53 -18 -95h338
l-13 -60h-322q14 -84 73 -134t152 -50z" />
    <glyph glyph-name="trademark" unicode="&#x2122;" horiz-adv-x="889" 
d="M842 712v-412h-63v324l-140 -324h-45l-137 325v-325h-62v412h90l133 -306l133 306h91zM333 712v-59h-114v-353h-63v353h-114v59h291z" />
    <glyph glyph-name="uni2126" unicode="&#x2126;" horiz-adv-x="790" 
d="M541 75q5 0 14.5 0.5t20 1.5t21 1.5t16.5 0.5h88l-17 -79h-271l20 98q107 38 177 130q72 93 72 206q0 48 -15 86.5t-43 66.5t-68.5 43t-91.5 15q-131 0 -226 -95t-95 -228q0 -78 41 -137.5t107 -86.5l-20 -98h-251l17 79h82q1 0 18.5 -1l51.5 -3l2 6q-63 37 -97 100.5
t-34 138.5q0 112 58 206q58 93 153 146q94 52 198 52q133 0 215 -80q81 -80 81 -208q0 -106 -59 -203q-58 -96 -163 -152z" />
    <glyph glyph-name="estimated" unicode="&#x212e;" horiz-adv-x="760" 
d="M649 130q-51 -67 -123 -104t-151 -37q-133 0 -234 98q-100 99 -100 237q0 142 100 238q100 97 234 97q136 0 235 -99q99 -98 99 -236v-18h-542v-195q89 -86 208 -86q130 0 216 105h58zM167 343h417v194q-89 86 -209 86q-124 0 -208 -86v-194z" />
    <glyph glyph-name="arrowleft" unicode="&#x2190;" horiz-adv-x="826" 
d="M529 712l-315 -315h555v-82h-555l315 -315h-116l-356 356l356 356h116z" />
    <glyph glyph-name="arrowup" unicode="&#x2191;" horiz-adv-x="826" 
d="M769 240l-315 315v-555h-82v555l-315 -315v116l356 356l356 -356v-116z" />
    <glyph glyph-name="arrowright" unicode="&#x2192;" horiz-adv-x="826" 
d="M297 0l315 315h-555v82h555l-315 315h116l356 -356l-356 -356h-116z" />
    <glyph glyph-name="arrowdown" unicode="&#x2193;" horiz-adv-x="826" 
d="M57 472l315 -315v555h82v-555l315 315v-116l-356 -356l-356 356v116z" />
    <glyph glyph-name="partialdiff" unicode="&#x2202;" horiz-adv-x="606" 
d="M299 724q129 0 203 -72t74 -209q0 -82 -22.5 -160.5t-67.5 -145.5q-43 -66 -114 -107t-161 -41q-78 0 -128 47q-48 48 -48 125q0 88 55 165q54 78 132 122q77 43 150 43q40 0 69.5 -10t52.5 -44q-12 209 -206 209q-16 0 -37 -1.5t-47 -5.5l-4 74q50 11 99 11zM221 65
q89 0 170 78q82 78 82 167q0 48 -29 77t-80 29q-86 0 -166 -80q-79 -79 -79 -169q0 -46 27 -74t75 -28z" />
    <glyph glyph-name="uni2206" unicode="&#x2206;" horiz-adv-x="697" 
d="M408 579q-17 -37 -35 -70.5l-36 -64.5l-210 -366h390l-80 367q-6 25 -12 58.5t-11 75.5h-6zM10 0l9 56l384 656h55l150 -656l-9 -56h-589z" />
    <glyph glyph-name="product" unicode="&#x220f;" horiz-adv-x="661" 
d="M109 634l17 78h603l-17 -78h-70l-181 -850h-83l181 850h-298l-181 -850h-83l181 850h-69z" />
    <glyph glyph-name="summation" unicode="&#x2211;" horiz-adv-x="615" 
d="M126 712h549l-17 -78h-463l168 -377l-319 -393h459l-17 -80h-557l18 83l322 399l-160 362z" />
    <glyph glyph-name="minus" unicode="&#x2212;" 
d="M43 203v78h483v-78h-483z" />
    <glyph glyph-name="radical" unicode="&#x221a;" horiz-adv-x="517" 
d="M521 764h82l-380 -764h-92l-20 254h-83l18 80h137l17 -224z" />
    <glyph glyph-name="infinity" unicode="&#x221e;" horiz-adv-x="762" 
d="M548 129q-48 0 -86 23q-37 25 -83 93q-52 -70 -88 -92q-37 -23 -84 -23q-69 0 -114 49q-44 50 -44 125q0 76 44 126q45 50 114 50q49 0 85 -24q19 -11 39.5 -34t43.5 -57q49 70 85 92q38 23 88 23q69 0 113 -50t44 -126q0 -39 -11.5 -71t-32 -55.5t-49.5 -36t-64 -12.5z
M539 406q-32 0 -54 -19q-11 -9 -27 -30t-38 -53q20 -32 36.5 -52.5t27.5 -30.5q22 -19 56 -19q38 0 63.5 29t25.5 73q0 45 -25.5 73.5t-64.5 28.5zM215 201q32 0 53 18t67 85q-42 65 -65 83q-22 19 -55 19q-39 0 -64 -28.5t-25 -73.5t25 -74t64 -29z" />
    <glyph glyph-name="integral" unicode="&#x222b;" horiz-adv-x="384" 
d="M445 644q-23 6 -48 6q-42 0 -68 -29.5t-35 -68.5l-127 -599q-9 -40 -25.5 -73.5t-41.5 -58t-59 -38t-76 -13.5q-11 0 -46 7l16 73q19 -6 47 -6q42 0 68 29.5t35 68.5l127 599q9 39 25.5 72.5t42 58t59.5 38.5t77 14q8 0 46 -7z" />
    <glyph glyph-name="therefore" unicode="&#x2234;" 
d="M56 88q17 17 40 17t39 -17q17 -16 17 -39t-17 -39q-16 -16 -39 -16t-40 16q-16 16 -16 39t16 39zM431 88q17 17 40 17t39 -17q17 -16 17 -39t-17 -39q-16 -16 -39 -16t-40 16q-16 16 -16 39t16 39zM243 450q17 17 40 17t39 -17q17 -16 17 -39t-17 -39q-16 -16 -39 -16
t-40 16q-16 16 -16 39t16 39z" />
    <glyph glyph-name="approxequal" unicode="&#x2248;" 
d="M529 363q-68 -101 -135 -101q-40 0 -107 40q-68 41 -97 41q-43 0 -83 -66l-56 41q65 101 137 101q44 2 113 -38q70 -38 90 -43q24 0 39.5 16t37.5 52zM51 115q66 101 137 101q42 2 111 -38q35 -20 57.5 -31t32.5 -13q42 0 82 67l58 -41q-68 -102 -135 -102q-39 0 -110 41
q-70 41 -96 41q-39 0 -78 -68z" />
    <glyph glyph-name="notequal" unicode="&#x2260;" 
d="M47 373h267l69 133l60 -31l-53 -102h140v-78h-180l-57 -107h237v-78h-276l-70 -132q-36 18 -57 30l51 102h-131v78h172l54 107h-226v78z" />
    <glyph glyph-name="lessequal" unicode="&#x2264;" 
d="M530 608v-82l-375 -158l375 -157v-84l-485 208v66zM48 67h484v-78h-484v78z" />
    <glyph glyph-name="greaterequal" unicode="&#x2265;" 
d="M46 526v82l486 -207v-66l-486 -208v84l375 157zM45 67h483v-78h-483v78z" />
    <glyph glyph-name="triagup" unicode="&#x25b2;" horiz-adv-x="826" 
d="M769 55h-712l356 617z" />
    <glyph glyph-name="triagrt" unicode="&#x25ba;" horiz-adv-x="826" 
d="M104 0v712l617 -356z" />
    <glyph glyph-name="triagdn" unicode="&#x25bc;" horiz-adv-x="826" 
d="M57 651h712l-356 -617z" />
    <glyph glyph-name="triaglf" unicode="&#x25c4;" horiz-adv-x="826" 
d="M721 709v-712l-617 356z" />
    <glyph glyph-name="lozenge" unicode="&#x25ca;" horiz-adv-x="555" 
d="M548 298l-303 -426h-89l-127 426l302 426h88zM362 634l-247 -345l102 -327l242 344z" />
    <glyph glyph-name="slash.small" unicode="&#xe00c;" horiz-adv-x="328" 
d="M-54 -51l378 658l61 -37l-379 -658z" />
    <glyph glyph-name="backslash.small" unicode="&#xe00d;" horiz-adv-x="336" 
d="M156 595l101 -660l-79 -13l-98 660z" />
    <glyph glyph-name="bar.small" unicode="&#xe00e;" horiz-adv-x="182" 
d="M144 580v-617h-74v617h74z" />
    <glyph glyph-name="zero.small" unicode="&#xe019;" horiz-adv-x="479" 
d="M296 543q151 0 151 -163q0 -49 -9 -89l-10 -50q-51 -249 -235 -249q-151 0 -151 162q0 49 9 90l10 50q26 129 88.5 189t146.5 60zM200 66q103 0 148 182l8 42q11 55 11 84q0 94 -77 94q-105 0 -148 -181l-9 -42q-10 -47 -10 -84q0 -95 77 -95z" />
    <glyph glyph-name="one.small" unicode="&#xe01a;" horiz-adv-x="347" 
d="M255 534h66l-113 -534h-81l89 417l-168 -115l22 99z" />
    <glyph glyph-name="two.small" unicode="&#xe01b;" horiz-adv-x="421" 
d="M127 75h209l-15 -75h-334l11 58l260 232q62 56 62 103q0 32 -21 53.5t-53 21.5q-38 0 -81 -23t-79 -63l23 111q73 50 144 50q64 0 105 -40q43 -39 43 -98q0 -85 -91 -166z" />
    <glyph glyph-name="three.small" unicode="&#xe01c;" horiz-adv-x="393" 
d="M111 249l14 70h42q51 0 84 24.5t33 58.5q0 28 -19.5 47.5t-48.5 19.5q-73 0 -137 -60l17 95q61 39 128 39q60 0 100 -37q41 -36 41 -91q0 -87 -79 -135q52 -34 52 -97q0 -80 -62 -136q-61 -55 -148 -55q-79 0 -129 40l15 80q45 -46 119 -46q49 0 86 31q38 32 38 78
q0 31 -30.5 52.5t-76.5 21.5h-39z" />
    <glyph glyph-name="four.small" unicode="&#xe01d;" horiz-adv-x="449" 
d="M347 181h59l-16 -75h-59l-23 -106h-80l23 106h-252l14 67l344 361h64zM268 179l24 112q1 5 8 33.5l20 80.5h-10l-45 -54.5t-36 -40.5l-125 -131h164z" />
    <glyph glyph-name="five.small" unicode="&#xe01e;" horiz-adv-x="432" 
d="M216 355q68 0 110 -42q43 -42 43 -106q-2 -87 -66 -151t-152 -64q-80 0 -133 41l15 76q43 -43 122 -43q52 0 92 40q41 41 41 95q0 37 -22 59t-60 22q-52 0 -104 -31l-37 20l92 263h261l-15 -73h-193l-40 -114q30 8 46 8z" />
    <glyph glyph-name="six.small" unicode="&#xe01f;" horiz-adv-x="436" 
d="M296 534h96l-165 -185q70 0 119 -40q50 -39 50 -105q0 -83 -62 -148q-61 -64 -151 -64q-70 0 -116 43t-46 109q0 84 85 178zM187 65q49 0 89 38q40 37 40 88q0 38 -25 63.5t-63 25.5q-46 0 -87 -38q-39 -38 -39 -90q0 -35 22.5 -61t62.5 -26z" />
    <glyph glyph-name="seven.small" unicode="&#xe020;" horiz-adv-x="404" 
d="M309 460h-245l12 74h361l-8 -41l-342 -493h-94z" />
    <glyph glyph-name="eight.small" unicode="&#xe021;" horiz-adv-x="446" 
d="M30 130q0 42 27 89q29 48 79 71q-40 28 -40 86q0 70 57 118q56 49 124 49q58 0 95.5 -35t37.5 -90q0 -14 -4.5 -31t-14.5 -34.5t-26 -34.5t-38 -30q57 -33 57 -105q0 -79 -62 -135t-142 -56q-33 0 -60.5 10.5t-47.5 28.5t-31 43.5t-11 55.5zM304 178q0 32 -23 52.5
t-54 20.5q-42 0 -80 -32q-37 -31 -37 -79q0 -15 6 -29t16.5 -24.5t25 -16.5t30.5 -6q40 0 78 33t38 81zM270 472q-35 0 -66 -27q-30 -27 -30 -63q0 -24 18.5 -42.5t44.5 -18.5q37 0 65 28q29 29 29 62q0 26 -17 43.5t-44 17.5z" />
    <glyph glyph-name="nine.small" unicode="&#xe022;" horiz-adv-x="438" 
d="M153 0h-96l164 185q-70 0 -119 39q-50 39 -50 106q0 82 62 147q61 66 151 66q69 0 116 -45q46 -43 46 -109q0 -49 -22 -89.5t-64 -87.5zM261 468q-50 0 -90 -39q-39 -38 -39 -88q0 -37 26 -62t62 -25q46 0 87 38q40 37 40 89q0 36 -23.5 61.5t-62.5 25.5z" />
    <glyph glyph-name="dollar.small" unicode="&#xe023;" horiz-adv-x="391" 
d="M223 312q26 -15 41 -25.5t34 -28.5q20 -17 29 -38.5t9 -46.5q0 -74 -54 -126q-53 -52 -126 -56l-9 -40h-40l8 42q-66 11 -107 53l21 93q49 -63 102 -72l38 183q-13 7 -22.5 13l-17.5 11.5l-16 11.5t-17 14q-35 34 -35 81q0 70 51 114q52 46 120 47l9 42h41l-10 -45
q55 -9 95 -46l-18 -88q-42 45 -93 59zM138 393q0 -29 49 -60l28 132q-30 -6 -53 -25t-24 -47zM172 70q35 7 61 31.5t26 58.5q-1 36 -54 68z" />
    <glyph glyph-name="percent.small" unicode="&#xe024;" horiz-adv-x="628" 
d="M204 543q99 0 99 -99q0 -97 -45 -143q-43 -46 -106 -46q-99 0 -99 97q0 73 39 132q41 59 112 59zM158 315q30 0 54 31t24 92q0 43 -41 43q-28 0 -51.5 -31.5t-23.5 -89.5q0 -45 38 -45zM97 18l385 533l51 -34l-386 -533zM483 281q100 0 100 -98q0 -97 -45 -143
q-45 -45 -107 -45q-99 0 -99 96q0 73 39 132q40 58 112 58zM516 177q0 43 -37 43q-15 0 -29 -7t-25.5 -22t-18.5 -37.5t-7 -53.5q0 -45 39 -45q38 0 58 38q20 40 20 84z" />
    <glyph glyph-name="at.small" unicode="&#xe025;" horiz-adv-x="761" 
d="M372 -164q-160 0 -250 95q-90 94 -90 234q0 164 109 270q109 108 265 108q128 0 217 -77t89 -200q0 -117 -61 -196q-60 -78 -131 -78q-57 0 -67 60q-59 -60 -129 -60q-69 0 -105.5 45.5t-36.5 114.5q0 88 55 155q56 68 142 68q64 0 114 -57l12 48h68l-55 -259
q-2 -10 -3 -17t-1 -11q0 -21 18 -21q40 0 75 59q35 61 35 139q0 105 -67 162q-65 58 -173 58q-125 0 -214 -89q-87 -89 -87 -217q0 -116 73 -192t207 -76zM337 59q43 0 81 42q36 40 47 89l12 55l-8.5 11t-9.5 12q-11 12 -34.5 25t-48.5 13q-56 0 -90 -46q-33 -47 -33 -102
q0 -43 22.5 -71t61.5 -28z" />
    <glyph glyph-name="cent.small" unicode="&#xe026;" horiz-adv-x="358" 
d="M324 267q-33 33 -68 39l-51 -240q43 6 98 44l-20 -93q-48 -23 -93 -25l-12 -55h-41l13 58q-58 10 -92 53.5t-34 104.5q0 91 62 156q63 66 146 71l10 50h41l-11 -51q39 -6 70 -30zM103 158q0 -33 16.5 -57.5t45.5 -32.5l51 238q-45 -10 -80 -51q-33 -41 -33 -97z" />
    <glyph glyph-name="sterling.small" unicode="&#xe027;" horiz-adv-x="449" 
d="M314 468q-38 0 -72 -30q-35 -30 -44 -71l-27 -130h185l-11 -52h-185l-24 -110h242l-16 -75h-377l16 75h56l23 110h-56l11 52h56l28 133q13 70 69 121q55 52 132 52q55 0 95 -31l-18 -82q-38 38 -83 38z" />
    <glyph glyph-name="copyright.small" unicode="&#xe028;" horiz-adv-x="634" 
d="M321 432q39 0 78 -21v-75q-41 34 -78 34q-43 0 -71.5 -30t-28.5 -73t28.5 -73t71.5 -30q32 0 78 32v-73q-42 -21 -78 -21q-67 0 -115 48t-48 117t48 117t115 48zM312 -8q-115 0 -195 80q-80 82 -80 195t80 195q81 81 195 81t194 -81q80 -82 80 -195t-80 -195
q-80 -80 -194 -80zM312 51q89 0 152 63q64 64 64 153t-64 152q-63 64 -152 64q-90 0 -153 -64q-63 -63 -63 -152t63 -153q63 -63 153 -63z" />
    <glyph glyph-name="yen.small" unicode="&#xe029;" horiz-adv-x="464" 
d="M509 534l-144 -185h80l-11 -52h-110l-47 -60h144l-11 -52h-154l-39 -185h-80l39 185h-153l11 52h144l-22 60h-109l11 52h80l-67 185h85l64 -174q2 -5 5.5 -18t8.5 -35h6l14 22q7 11 12.5 18.5t9.5 12.5l138 174h95z" />
    <glyph glyph-name="Euro.small" unicode="&#xe02a;" horiz-adv-x="500" 
d="M393 467q-61 0 -113.5 -31.5t-84.5 -85.5h225l-11 -52h-239q-5 -16 -7.5 -31t-3.5 -29h237l-11 -52h-222q11 -54 51 -86.5t101 -32.5q70 0 146 47l-19 -90q-73 -32 -131 -32q-92 0 -155 54t-75 140h-67l11 52h54q1 30 9 60h-50l11 52h58q40 87 118 139q79 54 171 54
q67 0 131 -38l-17 -80q-53 42 -117 42z" />
    <glyph glyph-name="germandbls.small" unicode="&#xe02b;" horiz-adv-x="822" 
d="M160 393q0 -12 8.5 -24t22 -23.5t31 -22t35.5 -19.5t35.5 -22.5t31 -30t22 -36.5t8.5 -41q0 -78 -58 -130q-56 -52 -134 -52q-83 0 -137 54l22 87q49 -66 116 -66q40 0 75 27t35 67q0 21 -14.5 36.5t-36 30t-46.5 28.5t-46.5 32t-36 40.5t-14.5 53.5q0 73 52 116
q52 45 122 45q81 0 133 -49l-18 -85q-11 12 -25 22.5t-29.5 19t-31 13t-28.5 4.5q-33 0 -64 -21q-30 -21 -30 -54zM561 393q0 -12 8.5 -24t22 -23.5t31 -22t35.5 -19.5t35.5 -22.5t31 -30t22 -36.5t8.5 -41q0 -78 -58 -130q-56 -52 -134 -52q-83 0 -137 54l22 87
q49 -66 116 -66q40 0 75 27t35 67q0 21 -14.5 36.5t-36 30t-46.5 28.5t-46.5 32t-36 40.5t-14.5 53.5q0 73 52 116q52 45 122 45q81 0 133 -49l-18 -85q-11 12 -25 22.5t-29.5 19t-31 13t-28.5 4.5q-33 0 -64 -21q-30 -21 -30 -54z" />
    <glyph glyph-name="dotlessi.small" unicode="&#xe02c;" horiz-adv-x="244" 
d="M223 534l-113 -534h-81l113 534h81z" />
    <glyph glyph-name="ampersand.01" unicode="&#xe37a;" horiz-adv-x="826" 
d="M320 0l66 315h-315l18 82h315l67 315h82l-67 -315h315l-18 -82h-315l-66 -315h-82z" />
    <glyph glyph-name="f_j" unicode="&#xe380;" horiz-adv-x="538" 
d="M506 664q-84 37 -143 37q-41 0 -78 -30q-38 -29 -45 -69l-15 -75h294l-118 -551q-9 -44 -27.5 -80.5t-46.5 -63.5t-65 -42t-82 -15q-10 0 -21.5 1.5l-25.5 3.5l16 71q18 -5 48 -5q24 0 44.5 9.5t36.5 25t26 36.5t15 44l106 498h-215l-97 -459h-79l97 459h-73l15 68h73
l15 75q13 72 73 122q60 51 131 51q88 0 157 -32z" />
    <glyph glyph-name="f_b" unicode="&#xe381;" horiz-adv-x="958" 
d="M73 527h73l15 75q13 72 73 122q60 51 131 51q93 0 197 -39l-63 -297q97 100 206 100q102 0 157 -64t55 -161q0 -81 -37 -154q-36 -73 -107 -123q-71 -48 -158 -48q-57 0 -107 27t-84 73l-25 -89h-72l145 683q-62 18 -109 18q-41 0 -78 -30q-38 -29 -45 -69l-15 -75h141
l-15 -68h-141l-97 -459h-79l97 459h-73zM610 62q96 0 160 73q65 74 65 178q0 70 -37.5 111t-109.5 41q-81 0 -146 -62q-64 -61 -82 -145l-18 -88q67 -108 168 -108z" />
    <glyph glyph-name="f_f_b" unicode="&#xe382;" horiz-adv-x="1252" 
d="M73 527h73l13 64q15 73 73 122q58 51 130 51q20 0 47 -6l-17 -76q-24 8 -33 8q-40 0 -76 -30q-36 -29 -45 -69l-13 -64h215l15 75q13 72 73 122q60 51 131 51q93 0 197 -39l-63 -297q97 100 206 100q102 0 157 -64t55 -161q0 -81 -37 -154q-36 -73 -107 -123
q-71 -48 -158 -48q-57 0 -107 27t-84 73l-25 -89h-72l145 683q-62 18 -109 18q-41 0 -78 -30q-38 -29 -45 -69l-15 -75h141l-15 -68h-141l-97 -459h-79l97 459h-215l-97 -459h-79l97 459h-73zM904 62q96 0 160 73q65 74 65 178q0 70 -37.5 111t-109.5 41q-81 0 -146 -62
q-64 -61 -82 -145l-18 -88q67 -108 168 -108z" />
    <glyph glyph-name="f_f_h" unicode="&#xe383;" horiz-adv-x="1204" 
d="M73 527h73l13 64q15 73 73 122q58 51 130 51q20 0 47 -6l-17 -76q-24 8 -33 8q-40 0 -76 -30q-36 -29 -45 -69l-13 -64h215l15 75q13 72 73 122q60 51 131 51q93 0 197 -39l-61 -288q85 91 180 91q84 0 126.5 -41t42.5 -116q0 -20 -2 -39t-6 -38l-64 -305h-79l62 296
q7 29 7 59q0 57 -30.5 84t-79.5 27q-41 0 -85 -26q-22 -13 -38.5 -26t-28.5 -26l-23 -25l-77 -363h-79l145 683q-62 18 -109 18q-41 0 -78 -30q-38 -29 -45 -69l-15 -75h141l-15 -68h-141l-97 -459h-79l97 459h-215l-97 -459h-79l97 459h-73z" />
    <glyph glyph-name="f_f_j" unicode="&#xe384;" horiz-adv-x="832" 
d="M73 527h73l13 64q15 73 73 122q58 51 130 51q33 0 60 -6l-17 -76q-29 8 -46 8q-40 0 -76 -30q-36 -29 -45 -69l-13 -64h215l15 75q13 72 73 122q60 51 131 51q88 0 157 -32l-16 -79q-84 37 -143 37q-41 0 -78 -30q-38 -29 -45 -69l-15 -75h294l-118 -551
q-9 -44 -27.5 -80.5t-46.5 -63.5t-65 -42t-82 -15q-10 0 -21.5 1.5l-25.5 3.5l16 71q18 -5 48 -5q24 0 44.5 9.5t36.5 25t26 36.5t15 44l106 498h-215l-97 -459h-79l97 459h-215l-97 -459h-79l97 459h-73z" />
    <glyph glyph-name="f_f_k" unicode="&#xe385;" horiz-adv-x="1116" 
d="M73 527h73l13 64q15 73 73 122q58 51 130 51q20 0 47 -6l-17 -76q-24 8 -33 8q-40 0 -76 -30q-36 -29 -45 -69l-13 -64h215l15 75q13 72 73 122q60 51 131 51q93 0 197 -39l-77 -364l-23 -101h6q5 7 23.5 24.5l50.5 46.5l206 185h101l-274 -251l174 -276h-89l-141 230
l-79 -67l-34 -163h-79l145 683q-62 18 -109 18q-41 0 -78 -30q-38 -29 -45 -69l-15 -75h141l-15 -68h-141l-97 -459h-79l97 459h-215l-97 -459h-79l97 459h-73z" />
    <glyph glyph-name="f_h" unicode="&#xe386;" horiz-adv-x="910" 
d="M73 527h73l15 75q13 72 73 122q60 51 131 51q93 0 197 -39l-61 -288q85 91 180 91q84 0 126.5 -41t42.5 -116q0 -20 -2 -39t-6 -38l-64 -305h-79l62 296q7 29 7 59q0 57 -30.5 84t-79.5 27q-41 0 -85 -26q-22 -13 -38.5 -26t-28.5 -26l-23 -25l-77 -363h-79l145 683
q-62 18 -109 18q-41 0 -78 -30q-38 -29 -45 -69l-15 -75h141l-15 -68h-141l-97 -459h-79l97 459h-73z" />
    <glyph glyph-name="f_k" unicode="&#xe388;" horiz-adv-x="822" 
d="M748 527h101l-274 -251l174 -276h-89l-141 230l-79 -67l-34 -163h-79l145 683q-62 18 -109 18q-41 0 -78 -30q-38 -29 -45 -69l-15 -75h141l-15 -68h-141l-97 -459h-79l97 459h-73l15 68h73l15 75q13 72 73 122q60 51 131 51q93 0 197 -39l-77 -364l-23 -101h6
q5 7 23.5 24.5l50.5 46.5z" />
    <glyph glyph-name="f_t" unicode="&#xe389;" horiz-adv-x="621" 
d="M553 -3q-23 -5 -48 -5q-75 0 -110 37t-35 100q0 34 7 61l58 271h-213l-98 -461h-79l98 461h-75l14 66h75l16 75q17 73 73 122q58 51 130 51q34 0 61 -6l-17 -76q-29 8 -46 8q-39 0 -76 -30q-37 -28 -46 -69l-16 -75h213l24 114l86 30l-31 -144h141l-15 -66h-140l-58 -280
q-5 -28 -5 -33q0 -38 19.5 -61.5t64.5 -23.5q8 0 18.5 1.5l24.5 3.5z" />
    <glyph glyph-name="t_f" unicode="&#xe38a;" horiz-adv-x="655" 
d="M267 -3q-23 -5 -48 -5q-75 0 -110 37t-35 100q0 34 7 61l58 271h-76l16 66h74l24 114l86 30l-31 -144h240l16 75q17 73 73 122q58 51 130 51q34 0 61 -6l-17 -76q-29 8 -46 8q-39 0 -76 -30q-37 -28 -46 -69l-16 -75h141l-14 -66h-141l-98 -461h-79l98 461h-240l-58 -280
q-5 -28 -5 -33q0 -38 19.5 -61.5t64.5 -23.5q8 0 18.5 1.5l24.5 3.5z" />
    <glyph glyph-name="t_t" unicode="&#xe38b;" horiz-adv-x="660" 
d="M592 -3q-23 -5 -48 -5q-75 0 -110 37t-35 100q0 34 7 61l58 271h-246l-58 -280q-5 -28 -5 -33q0 -38 19.5 -61.5t64.5 -23.5q8 0 18.5 1.5l24.5 3.5l-15 -71q-23 -5 -48 -5q-75 0 -110 37t-35 100q0 34 7 61l58 271h-76l16 66h74l21 102l86 30l-28 -132h246l24 114l86 30
l-31 -144h141l-15 -66h-140l-58 -280q-5 -28 -5 -33q0 -38 19.5 -61.5t64.5 -23.5q8 0 18.5 1.5l24.5 3.5z" />
    <glyph glyph-name="parenleft.uc" unicode="&#xe440;" horiz-adv-x="297" 
d="M352 800q-44 -57 -72 -99q-28 -41 -64 -112q-73 -141 -73 -327q0 -180 80 -348h-74l-24 54.5l-17 40.5t-14 43.5t-15 62.5q-16 71 -16 147q0 181 71 322l34 63.5t28 47.5l31.5 46.5l41.5 58.5h83z" />
    <glyph glyph-name="parenright.uc" unicode="&#xe441;" horiz-adv-x="297" 
d="M-5 -86q43 57 72 99q28 41 64 112q73 141 73 327q0 180 -80 348h74l24 -55l17 -41t14 -43t15 -63q16 -70 16 -146q0 -91 -17.5 -171t-54.5 -152l-33.5 -63t-28.5 -48l-31 -46l-41 -58h-83z" />
    <glyph glyph-name="hyphen.uc" unicode="&#xe442;" horiz-adv-x="310" 
d="M68 392h236l-15 -73h-237z" />
    <glyph glyph-name="bracketleft.uc" unicode="&#xe443;" horiz-adv-x="296" 
d="M379 753h-106l-167 -787h105l-16 -76h-187l200 940h187z" />
    <glyph glyph-name="bracketright.uc" unicode="&#xe444;" horiz-adv-x="297" 
d="M243 753h-106l16 77h188l-200 -940h-187l16 76h106z" />
    <glyph glyph-name="braceleft.uc" unicode="&#xe460;" horiz-adv-x="309" 
d="M403 830l-16 -73h-61q-31 0 -53.5 -28t-22.5 -73q0 -11 1.5 -29.5t5.5 -44.5q4 -25 6 -42.5t2 -28.5q0 -90 -90 -150q39 -35 39 -90q-2 -15 -2.5 -24t-1.5 -11q-6 -28 -52 -109q-46 -80 -46 -113q0 -23 12.5 -36t33.5 -13h61l-16 -73h-62q-51 0 -81.5 30.5t-30.5 78.5
q0 19 4 34q8 34 52 112q46 79 46 109q0 33 -21.5 50.5t-59.5 17.5l16 73q51 0 84 31t33 83q0 11 -2 28t-6 42t-5.5 43.5t-1.5 29.5q0 70 53 123t120 53h62z" />
    <glyph glyph-name="bar.uc" unicode="&#xe461;" horiz-adv-x="246" 
d="M199 840v-980h-75v980h75z" />
    <glyph glyph-name="braceright.uc" unicode="&#xe462;" horiz-adv-x="309" 
d="M158 830h62q51 0 81 -31t30 -80q0 -17 -3 -33q-4 -17 -17 -45.5t-36 -68.5q-45 -78 -45 -107q0 -32 21.5 -50t59.5 -18l-16 -73q-51 0 -84.5 -30t-33.5 -84q0 -11 2 -28.5t6 -42.5t6 -43t2 -30q0 -71 -54 -122q-52 -52 -119 -52h-61l15 73h61q31 0 53.5 27.5t22.5 72.5
q0 11 -2 29t-6 43t-5.5 42.5t-1.5 28.5q0 94 90 153q-39 34 -39 86q0 14 5 39q6 26 51 107t45 113q0 23 -12.5 37t-32.5 14h-61z" />
    <glyph glyph-name="slash.uc" unicode="&#xe463;" horiz-adv-x="436" 
d="M467 817l61 -37l-510 -885l-60 37z" />
    <glyph glyph-name="questiondown.uc" unicode="&#xe464;" horiz-adv-x="483" 
d="M238 664q0 24 19.5 42t43.5 18q21 0 35 -13.5t14 -33.5q0 -25 -19.5 -44.5t-44.5 -19.5q-22 0 -35 14.5t-13 36.5zM118 -6q-72 0 -116 41t-44 107q0 51 24.5 93.5t59.5 72.5q26 21 54.5 41.5t53 40.5t42 39t21.5 39l13 62h80l-14 -69q-8 -38 -36.5 -72.5t-64.5 -59.5
l-52 -37t-48 -40t-35.5 -44t-13.5 -50q0 -38 25.5 -62.5t67.5 -24.5q63 0 122 54l-22 -101q-57 -30 -117 -30z" />
    <glyph glyph-name="exclamdown.uc" unicode="&#xe465;" horiz-adv-x="255" 
d="M166 524l-113 -530h-81l113 530h81zM141 601q-19 0 -31.5 12.5t-12.5 31.5q0 13 6 25t15.5 21.5t22 15t24.5 5.5q20 0 32.5 -12t12.5 -31q0 -13 -6 -25.5t-16 -22t-22.5 -15t-24.5 -5.5z" />
    <glyph glyph-name="backslash.uc" unicode="&#xe466;" horiz-adv-x="435" 
d="M339 -80l-80 -15l-132 886l78 13z" />
    <glyph glyph-name="endash.uc" unicode="&#xe470;" horiz-adv-x="516" 
d="M68 392h442l-15 -73h-443z" />
    <glyph glyph-name="emdash.uc" unicode="&#xe471;" horiz-adv-x="986" 
d="M68 392h911l-15 -73h-912z" />
    <glyph glyph-name="guilsinglleft.uc" unicode="&#xe472;" horiz-adv-x="284" 
d="M314 551l-175 -196l88 -189h-85l-90 195l167 190h95z" />
    <glyph glyph-name="guilsinglright.uc" unicode="&#xe473;" horiz-adv-x="283" 
d="M15 166l173 196l-87 189h85l91 -195l-168 -190h-94z" />
    <glyph glyph-name="guillemotleft.uc" unicode="&#xe474;" horiz-adv-x="477" 
d="M312 551l-174 -196l88 -189h-86l-90 195l167 190h95zM508 551l-175 -196l88 -189h-85l-91 195l168 190h95z" />
    <glyph glyph-name="guillemotright.uc" unicode="&#xe475;" horiz-adv-x="477" 
d="M209 166l175 196l-88 189h86l91 -195l-169 -190h-95zM15 166l173 196l-87 189h85l91 -195l-168 -190h-94z" />
    <glyph glyph-name="uni0200.small" unicode="&#xe540;" horiz-adv-x="565" 
d="M377 534l133 -534h-82l-28 120h-249l-74 -120h-90l340 534h50zM197 194h186l-37 169q-8 38 -9 67h-4l-34 -67zM342 730l53 48l104 -127l-41 -38zM200 730l53 48l103 -127l-40 -38z" />
    <glyph glyph-name="uni0202.small" unicode="&#xe541;" horiz-adv-x="565" 
d="M377 534l133 -534h-82l-28 120h-249l-74 -120h-90l340 534h50zM197 194h186l-37 169q-8 38 -9 67h-4l-34 -67zM556 655l-34 -42l-123 84l-142 -84l-29 43l177 125z" />
    <glyph glyph-name="uni0204.small" unicode="&#xe542;" horiz-adv-x="450" 
d="M29 0l113 534h306l-15 -74h-226l-30 -141h218l-15 -76h-219q-1 -3 -5 -21l-12 -52t-13 -57.5t-7 -37.5h226l-15 -75h-306zM293 730l53 48l104 -127l-41 -38zM151 730l53 48l103 -127l-40 -38z" />
    <glyph glyph-name="uni0206.small" unicode="&#xe543;" horiz-adv-x="450" 
d="M29 0l113 534h306l-15 -74h-226l-30 -141h218l-15 -76h-219q-1 -3 -5 -21l-12 -52t-13 -57.5t-7 -37.5h226l-15 -75h-306zM488 655l-34 -42l-123 84l-142 -84l-29 43l177 125z" />
    <glyph glyph-name="uni0208.small" unicode="&#xe544;" horiz-adv-x="244" 
d="M223 534l-113 -534h-81l113 534h81zM174 730l53 48l104 -127l-41 -38zM32 730l53 48l103 -127l-40 -38z" />
    <glyph glyph-name="uni020A.small" unicode="&#xe545;" horiz-adv-x="244" 
d="M223 534l-113 -534h-81l113 534h81zM380 655l-34 -42l-123 84l-142 -84l-29 43l177 125z" />
    <glyph glyph-name="uni020C.small" unicode="&#xe546;" horiz-adv-x="636" 
d="M363 543q102 0 168 -66t66 -166q0 -129 -98 -224t-221 -95q-102 0 -168 66q-65 67 -65 166q0 130 97 224q98 95 221 95zM282 67q94 0 165 72q70 73 70 169q0 34 -11 63.5t-31.5 50.5t-49.5 33t-65 12q-95 0 -165 -73q-70 -71 -70 -168q0 -35 11 -64t31.5 -50t49.5 -33
t65 -12zM345 730l53 48l104 -127l-41 -38zM203 730l53 48l103 -127l-40 -38z" />
    <glyph glyph-name="uni020E.small" unicode="&#xe550;" horiz-adv-x="636" 
d="M363 543q102 0 168 -66t66 -166q0 -129 -98 -224t-221 -95q-102 0 -168 66q-65 67 -65 166q0 130 97 224q98 95 221 95zM282 67q94 0 165 72q70 73 70 169q0 34 -11 63.5t-31.5 50.5t-49.5 33t-65 12q-95 0 -165 -73q-70 -71 -70 -168q0 -35 11 -64t31.5 -50t49.5 -33
t65 -12zM568 655l-34 -42l-123 84l-142 -84l-29 43l177 125z" />
    <glyph glyph-name="uni0210.small" unicode="&#xe551;" horiz-adv-x="470" 
d="M405 0h-91l-105 212h-55l-45 -212h-80l113 534h141q79 0 120 -36.5t41 -96.5q0 -64 -43 -114q-42 -50 -110 -68zM207 460l-37 -174h70q26 0 48.5 8t39 22t26 33.5t9.5 43.5q0 31 -23 49t-65 18h-68zM269 730l53 48l104 -127l-41 -38zM127 730l53 48l103 -127l-40 -38z
" />
    <glyph glyph-name="uni0212.small" unicode="&#xe552;" horiz-adv-x="470" 
d="M405 0h-91l-105 212h-55l-45 -212h-80l113 534h141q79 0 120 -36.5t41 -96.5q0 -64 -43 -114q-42 -50 -110 -68zM207 460l-37 -174h70q26 0 48.5 8t39 22t26 33.5t9.5 43.5q0 31 -23 49t-65 18h-68zM464 655l-34 -42l-123 84l-142 -84l-29 43l177 125z" />
    <glyph glyph-name="uni0214.small" unicode="&#xe553;" horiz-adv-x="540" 
d="M448 190q-21 -91 -84 -145q-64 -53 -140 -53q-71 0 -117 42q-47 42 -47 114q0 7 1.5 18.5l3.5 27.5l73 340h80l-72 -339q-5 -18 -5 -37q0 -45 23.5 -67t62.5 -22q46 0 87 37q43 37 55 93l71 335h81zM315 730l53 48l104 -127l-41 -38zM173 730l53 48l103 -127l-40 -38z
" />
    <glyph glyph-name="uni0216.small" unicode="&#xe554;" horiz-adv-x="540" 
d="M448 190q-21 -91 -84 -145q-64 -53 -140 -53q-71 0 -117 42q-47 42 -47 114q0 7 1.5 18.5l3.5 27.5l73 340h80l-72 -339q-5 -18 -5 -37q0 -45 23.5 -67t62.5 -22q46 0 87 37q43 37 55 93l71 335h81zM517 655l-34 -42l-123 84l-142 -84l-29 43l177 125z" />
    <glyph glyph-name="uni021A.small" unicode="&#xe555;" horiz-adv-x="382" 
d="M274 459l-96 -459h-81l97 459h-130l15 75h342l-15 -75h-132zM27 -262q46 99 77 212l84 10q-58 -144 -115 -231z" />
    <glyph glyph-name="quotedbl.small" unicode="&#xe640;" horiz-adv-x="378" 
d="M149 623h94l-82 -290h-54zM319 623h94l-82 -290h-54z" />
    <glyph glyph-name="quotesingle.small" unicode="&#xe641;" horiz-adv-x="207" 
d="M148 623h95l-82 -290h-54z" />
    <glyph glyph-name="quoteleft.small" unicode="&#xe642;" horiz-adv-x="237" 
d="M282 678q-65 -142 -99 -274l-99 -12q70 180 147 295z" />
    <glyph glyph-name="quoteright.small" unicode="&#xe643;" horiz-adv-x="237" 
d="M85 401q32 73 56.5 141t41.5 133l99 12q-70 -180 -147 -295z" />
    <glyph glyph-name="quotedblleft.small" unicode="&#xe644;" horiz-adv-x="417" 
d="M282 678q-65 -142 -99 -274l-99 -12q70 180 147 295zM461 678q-65 -142 -99 -274l-99 -12q70 180 147 295z" />
    <glyph glyph-name="quotedblright.small" unicode="&#xe645;" horiz-adv-x="402" 
d="M85 401q32 73 56.5 141t41.5 133l99 12q-70 -180 -147 -295zM249 401q32 73 56.5 141t41.5 133l99 12q-70 -180 -147 -295z" />
    <glyph glyph-name="M.alt1" unicode="&#xe646;" horiz-adv-x="814" 
d="M439 436l335 276h57l-151 -712h-83l97 452q7 37 27 114h-6q-26 -25 -46 -42.5l-33 -28.5l-213 -176l-139 176l-17.5 24.5t-31.5 46.5h-6q-8 -48 -21 -114l-96 -452h-82l151 712h41z" />
    <glyph glyph-name="m.smallalt1" unicode="&#xe647;" horiz-adv-x="671" 
d="M348 340l235 194h68l-114 -534h-81l64 301l14 58q5 19 7.5 30t3.5 14h-6l-47 -42.5l-26 -23.5l-134 -111l-88 111q-11 14 -22 30t-22 36h-6l-9.5 -56.5t-9.5 -45.5l-64 -301h-81l114 534h51z" />
    <glyph glyph-name="ampersand.alt1" unicode="&#xe648;" horiz-adv-x="672" 
d="M329 346q-82 0 -139 -48q-57 -47 -57 -115q0 -52 34 -84t91 -32q63 0 112 40q50 41 63 101l29 138h-133zM494 494l87 31l-24 -111h130l-14 -68h-130l-38 -181q-3 -14 -3 -26q0 -31 17.5 -51.5t51.5 -20.5q23 0 44 7l-15 -74q-24 -6 -46 -6q-48 0 -79.5 22t-42.5 58
q-82 -85 -184 -85q-45 0 -82 13.5t-62.5 37.5t-39.5 58t-14 75q0 33 10 64t28.5 58.5t45 49.5t59.5 37q-64 37 -64 107q0 97 75 166t175 69q97 0 153 -48l-20 -94q-55 64 -141 64q-57 0 -106 -41q-47 -41 -47 -99q0 -40 32.5 -66t90.5 -26h135z" />
    <glyph glyph-name="ampersand.smallalt1" unicode="&#xe649;" horiz-adv-x="575" 
d="M344 246h-88q-59 0 -99 -34q-39 -35 -39 -79q0 -33 23.5 -51t62.5 -18q21 0 41 7.5t36.5 21t28 31t16.5 38.5zM555 246h-130l-18 -84q-3 -12 -3 -25q0 -32 17.5 -52.5t51.5 -20.5q24 0 45 7l-16 -74q-24 -6 -45 -6q-84 0 -117 68q-67 -70 -147 -70q-34 0 -63 9t-50 26
t-32.5 40t-11.5 52q0 45 27 93t74 74q-41 27 -41 78q0 74 57 127q58 52 136 52q69 0 110 -36l-19 -87q-14 22 -42 35t-57 13q-39 0 -70 -28q-30 -27 -30 -65q0 -26 21.5 -42.5t66.5 -16.5h89l12 57l88 32l-19 -89h130z" />
    <glyph glyph-name="alpha.small" unicode="&#xe800;" horiz-adv-x="549" 
d="M353 534l133 -534h-82l-28 120h-249l-74 -120h-90l340 534h50zM173 194h186l-37 169q-8 38 -9 67h-4l-34 -67z" />
    <glyph glyph-name="beta.small" unicode="&#xe801;" horiz-adv-x="479" 
d="M207 460l-32 -152h75q43 0 73 24t30 69q0 27 -19.5 43t-52.5 16h-74zM159 233l-34 -158h92q48 0 82.5 25t34.5 73q0 29 -23 44.5t-65 15.5h-87zM433 406q0 -38 -20 -75t-52 -57q53 -33 53 -101q0 -81 -60 -127q-59 -46 -137 -46h-188l113 534h138q76 0 114.5 -35.5
t38.5 -92.5z" />
    <glyph glyph-name="chi.small" unicode="&#xe802;" horiz-adv-x="478" 
d="M508 534l-221 -263l124 -271h-89l-66 152q-7 16 -12 30l-9 25h-5q-5 -8 -14.5 -21t-25.5 -32l-127 -154h-103l237 283l-113 251h88l58 -133q6 -14 10.5 -28t8.5 -28h6q22 37 39 57l110 132h104z" />
    <glyph glyph-name="delta.small" unicode="&#xe803;" horiz-adv-x="509" 
d="M280 401q-32 -66 -48 -93l-131 -232h253l-52 233q-5 21 -8.5 44t-5.5 48h-8zM-13 0l9 53l282 481h51l111 -481l-9 -53h-444z" />
    <glyph glyph-name="epsilon.small" unicode="&#xe804;" horiz-adv-x="452" 
d="M29 0l113 534h306l-15 -74h-226l-30 -141h218l-15 -76h-219q-1 -3 -5 -21l-12 -52t-13 -57.5t-7 -37.5h226l-15 -75h-306z" />
    <glyph glyph-name="eta.small" unicode="&#xe805;" horiz-adv-x="558" 
d="M406 319l46 215h82l-114 -534h-81l52 243h-230l-51 -243h-81l113 534h81l-46 -215h229z" />
    <glyph glyph-name="gamma.small" unicode="&#xe806;" horiz-adv-x="358" 
d="M205 458l-97 -458h-79l113 534h260l-16 -76h-181z" />
    <glyph glyph-name="iota.small" unicode="&#xe807;" horiz-adv-x="248" 
d="M223 534l-113 -534h-81l113 534h81z" />
    <glyph glyph-name="kappa.small" unicode="&#xe808;" horiz-adv-x="490" 
d="M255 282l167 -282h-91l-132 230l-52 -46l-38 -184h-80l113 534h80l-42 -191q-6 -29 -12 -43h5q6 7 15 16.5t22 20.5l218 197h104z" />
    <glyph glyph-name="lambda.small" unicode="&#xe809;" horiz-adv-x="515" 
d="M53 0h-92l331 534h53l105 -534h-82l-57 309q-8 34 -12 99h-5l-30 -58.5t-23 -40.5z" />
    <glyph glyph-name="mu.small" unicode="&#xe80a;" horiz-adv-x="672" 
d="M348 340l235 194h68l-114 -534h-81l64 301l14 58q5 19 7.5 30t3.5 14h-6l-47 -42.5l-26 -23.5l-134 -111l-88 111q-11 14 -22 30t-22 36h-6l-9.5 -56.5t-9.5 -45.5l-64 -301h-81l114 534h51z" />
    <glyph glyph-name="nu.small" unicode="&#xe80b;" horiz-adv-x="586" 
d="M203 534l172 -331q10 -19 16 -32.5t9 -21.5h4q6 52 9 64l68 321h79l-113 -534h-52l-181 342q-5 8 -10 22l-12 34h-4q-6 -50 -10 -64l-71 -334h-78l113 534h61z" />
    <glyph glyph-name="omega.small" unicode="&#xe80c;" horiz-adv-x="617" 
d="M429 76q8 1 20.5 1h31.5h52l-17 -77h-206l18 88q71 29 118 94t47 139q0 66 -39.5 106t-109.5 40q-87 0 -154 -65q-65 -65 -65 -153q0 -54 29.5 -97t75.5 -64l-18 -88h-207l17 77h52q34 0 51 -3v8q-38 28 -59.5 72t-21.5 93q0 125 94 210q95 86 213 86q99 0 161 -60
q61 -58 61 -156q0 -75 -38 -140.5t-107 -104.5z" />
    <glyph glyph-name="omicron.small" unicode="&#xe80d;" horiz-adv-x="637" 
d="M363 543q102 0 168 -66t66 -166q0 -129 -98 -224t-221 -95q-102 0 -168 66q-65 67 -65 166q0 130 97 224q98 95 221 95zM282 67q94 0 165 72q70 73 70 169q0 34 -11 63.5t-31.5 50.5t-49.5 33t-65 12q-95 0 -165 -73q-70 -71 -70 -168q0 -35 11 -64t31.5 -50t49.5 -33
t65 -12z" />
    <glyph glyph-name="phi.small" unicode="&#xe80e;" horiz-adv-x="635" 
d="M328 114q22 0 52 11t61 32q31 22 52.5 60.5t21.5 86.5q0 58 -38 87q-38 28 -84 30zM315 421q-22 -1 -51.5 -12t-61.5 -32t-53.5 -59.5t-21.5 -86.5q0 -59 38 -88q38 -27 85 -29zM220 -22l12 59q-19 1 -51 11t-62.5 31.5t-52.5 57t-22 86.5q0 63 24.5 113t58.5 79
q28 22 57.5 38t57.5 26t51 14.5t37 3.5l13 60h80l-13 -60q22 0 51 -10.5t61 -30.5q32 -19 53.5 -57t21.5 -86q0 -55 -17 -97t-43.5 -72.5t-59.5 -51t-64.5 -33t-58.5 -17.5t-42 -5l-12 -59h-80z" />
    <glyph glyph-name="pi.small" unicode="&#xe80f;" horiz-adv-x="557" 
d="M142 534h390l-113 -534h-80l97 458h-229l-97 -458h-81z" />
    <glyph glyph-name="psi.small" unicode="&#xe810;" horiz-adv-x="607" 
d="M529 534h78l-38 -178q-21 -100 -85 -150t-161 -51l-32 -155h-79l32 155q-76 0 -121.5 40t-45.5 112q0 26 5 49l38 178h80l-31 -144q-9 -39 -9 -67q0 -48 25 -69.5t76 -22.5l64 303h79l-64 -303q60 1 101 42.5t57 116.5z" />
    <glyph glyph-name="rho.small" unicode="&#xe811;" horiz-adv-x="462" 
d="M207 460l-43 -198h71q30 0 55 9t44 25t29.5 38.5t10.5 49.5q0 35 -27 55.5t-72 20.5h-68zM142 534h140q84 0 128 -40t44 -103q0 -100 -69 -152q-67 -52 -163 -52h-73l-40 -187h-80z" />
    <glyph glyph-name="sigma.small" unicode="&#xe812;" horiz-adv-x="454" 
d="M457 534l-16 -76h-226l97 -191l-178 -191h226l-16 -76h-334l13 69l193 207l-105 207l12 51h334z" />
    <glyph glyph-name="tau.small" unicode="&#xe813;" horiz-adv-x="382" 
d="M277 459l-96 -459h-81l97 459h-130l15 75h342l-15 -75h-132z" />
    <glyph glyph-name="theta.small" unicode="&#xe814;" horiz-adv-x="637" 
d="M233 300h190l-14 -65h-190zM363 543q102 0 168 -66t66 -166q0 -129 -98 -224t-221 -95q-102 0 -168 66q-65 67 -65 166q0 130 97 224q98 95 221 95zM282 67q94 0 165 72q70 73 70 169q0 34 -11 63.5t-31.5 50.5t-49.5 33t-65 12q-95 0 -165 -73q-70 -71 -70 -168
q0 -35 11 -64t31.5 -50t49.5 -33t65 -12z" />
    <glyph glyph-name="upsilon.small" unicode="&#xe815;" horiz-adv-x="463" 
d="M187 220l-113 314h85l64 -172q7 -16 13 -56h6l23 33.5l14 20.5l138 174h95l-245 -314l-47 -220h-80z" />
    <glyph glyph-name="xi.small" unicode="&#xe816;" horiz-adv-x="437" 
d="M114 458l16 76h303l-16 -76h-303zM17 0l16 77h303l-16 -77h-303zM75 243l17 77h290l-17 -77h-290z" />
    </font>
</defs>
</svg>
