<?xml version="1.0" standalone="no"?>
<!DOCTYPE svg PUBLIC "-//W3C//DTD SVG 1.1//EN" "http://www.w3.org/Graphics/SVG/1.1/DTD/svg11.dtd" >
<svg>
<metadata>
Created by FontForge 20090622 at Tue Sep 17 15:04:46 2019
 By deploy user
Copyright (c) 2013 by Aviation Partners. All rights reserved.
</metadata>
<defs>
<font id="CorsicaRamblerLX-BoldIt" horiz-adv-x="580" >
  <font-face 
    font-family="Corsica Rambler LX"
    font-weight="700"
    font-style="italic"
    font-stretch="normal"
    units-per-em="1000"
    panose-1="2 0 0 0 0 0 0 0 0 0"
    ascent="775"
    descent="-225"
    x-height="538"
    cap-height="712"
    bbox="-171 -268 1299 973"
    underline-thickness="50"
    underline-position="-50"
    slope="-12"
    unicode-range="U+000D-U+FB04"
  />
<missing-glyph horiz-adv-x="586" 
d="M146 724h500l-153 -724h-500zM463 37l139 650h-426l-139 -650h426zM181 233l-22 29l131 109l-84 110l34 28l86 -109l132 109l22 -28l-132 -110l85 -109l-34 -29l-86 109z" />
    <glyph glyph-name=".notdef" horiz-adv-x="586" 
d="M146 724h500l-153 -724h-500zM463 37l139 650h-426l-139 -650h426zM181 233l-22 29l131 109l-84 110l34 28l86 -109l132 109l22 -28l-132 -110l85 -109l-34 -29l-86 109z" />
    <glyph glyph-name="NULL" horiz-adv-x="0" 
 />
    <glyph glyph-name="NULL" horiz-adv-x="0" 
 />
    <glyph glyph-name="nonmarkingreturn" unicode="&#xd;" horiz-adv-x="333" 
 />
    <glyph glyph-name="space" unicode=" " horiz-adv-x="185" 
 />
    <glyph glyph-name="exclam" unicode="!" horiz-adv-x="307" 
d="M65 193l110 519h156l-110 -519h-156zM209 84q0 -34 -31 -62q-30 -27 -67 -27q-35 0 -58.5 22t-23.5 56q0 21 7.5 39t21 32t31.5 22t39 8q38 0 59.5 -26.5t21.5 -63.5z" />
    <glyph glyph-name="quotedbl" unicode="&#x22;" horiz-adv-x="405" 
d="M131 721h157l-84 -307h-114zM320 721h154l-88 -307h-113z" />
    <glyph glyph-name="numbersign" unicode="#" horiz-adv-x="422" 
d="M175 673h147l-59 -159h40l60 159h150l-60 -159h58l-31 -148h-81l-19 -52h63l-31 -146h-87l-63 -168h-148l62 168h-40l-62 -168h-148l60 168h-63l30 146h88l19 52h-71l31 148h94zM202 384l-33 -88h66l35 88h-68z" />
    <glyph glyph-name="dollar" unicode="$" horiz-adv-x="564" 
d="M506 244q0 -108 -76 -180q-75 -72 -185 -75l-11 -55h-52l12 58q-90 14 -154 78l34 166q27 -30 69 -54.5t84 -33.5l31 144l-32 19t-24 15t-21.5 16l-25.5 21q-53 49 -53 123q0 107 72 172q73 66 175 66l13 58h52l-13 -62q84 -14 138 -66l-34 -161q-61 57 -137 72l-26 -122
l33 -19.5t24 -15.5q11 -7 23.5 -16t26.5 -22q57 -48 57 -126zM345 211q0 27 -41 54l-26 -120q29 3 48 20t19 46zM264 514q0 -20 32 -43l20 97q-22 -2 -37 -16.5t-15 -37.5z" />
    <glyph glyph-name="percent" unicode="%" horiz-adv-x="800" 
d="M279 717q131 0 131 -132q0 -13 -1.5 -28l-3.5 -34q-38 -189 -195 -189q-134 0 -134 130q0 33 7 62q41 191 196 191zM224 436q21 0 42 19.5t31 57.5q6 24 6 56q0 46 -38 46q-22 0 -44 -20.5t-30 -62.5q-5 -25 -5 -50q0 -46 38 -46zM629 376q133 0 133 -128q0 -18 -6 -64
q-37 -190 -197 -190q-133 0 -133 130q0 12 1.5 27.5t5.5 34.5q36 190 196 190zM573 96q22 0 42.5 17t30.5 54q8 29 8 61q0 46 -39 46q-22 0 -44 -21t-31 -63q-2 -14 -3 -26t-1 -22q0 -46 37 -46zM208 -19l-78 55l488 677l79 -56z" />
    <glyph glyph-name="ampersand" unicode="&#x26;" horiz-adv-x="726" 
d="M509 0l-58 81q-51 -43 -98 -67.5t-103 -24.5q-91 0 -149 51q-59 53 -59 130q0 93 56 154q15 15 28 26.5t26.5 22t29 21t35.5 22.5q-31 46 -31 95q0 92 70 152q70 61 155 61q68 0 118 -41t50 -107q0 -64 -42 -116q-42 -53 -99 -87l42 -61l76 88h170l-169 -197l145 -203
h-193zM296 303q-38 -19 -66 -47t-28 -56q0 -23 18.5 -39t42.5 -16q26 0 58.5 13t53.5 33zM393 599q-21 0 -40.5 -17t-19.5 -40q0 -9 2 -16t7 -15q4 -7 10 -15.5t11 -16.5q30 15 51 38.5t21 45.5q0 15 -12.5 25.5t-29.5 10.5z" />
    <glyph glyph-name="quotesingle" unicode="'" horiz-adv-x="222" 
d="M133 721h157l-86 -307h-114z" />
    <glyph glyph-name="parenleft" unicode="(" horiz-adv-x="349" 
d="M237 724h164q-22 -26 -40 -50t-33 -46q-14 -21 -30.5 -49l-35.5 -63q-36 -69 -55 -152.5t-19 -177.5q0 -191 79 -348h-145l-16 37l-18 43l-16 42q-6 15 -10 27t-7 23.5t-5.5 23.5l-5.5 27q-6 31 -8.5 61.5t-2.5 63.5q0 71 14 144q15 72 30 116q17 47 52 109l30.5 53.5
t20.5 32.5z" />
    <glyph glyph-name="parenright" unicode=")" horiz-adv-x="350" 
d="M131 -162h-164q43 52 72 96q30 42 66 111q37 70 56 153.5t19 177.5q0 191 -79 348h145l16 -37l18 -43l16 -42q6 -15 10 -27t6.5 -23.5l5 -23.5l5.5 -27q7 -31 9.5 -61.5t2.5 -63.5q0 -36 -4 -73t-10.5 -71t-14.5 -64t-16 -53q-15 -44 -51 -109l-30.5 -53t-20.5 -32z" />
    <glyph glyph-name="asterisk" unicode="*" horiz-adv-x="484" 
d="M237 712h135l-14 -108l96 48l42 -129l-105 -22l73 -75l-110 -80l-50 92l-52 -92l-109 80l73 75l-104 22l41 129l97 -48z" />
    <glyph glyph-name="plus" unicode="+" 
d="M215 497h149v-174h174v-150h-174v-173h-149v173h-174v150h174v174z" />
    <glyph glyph-name="comma" unicode="," horiz-adv-x="292" 
d="M-81 -163q35 82 62 155.5t45 140.5l170 12q-76 -183 -178 -324z" />
    <glyph glyph-name="hyphen" unicode="-" horiz-adv-x="349" 
d="M60 374h285l-30 -145h-285z" />
    <glyph glyph-name="period" unicode="." horiz-adv-x="295" 
d="M127 173q18 0 33.5 -7t26.5 -19t16.5 -28.5t3.5 -35.5q-4 -38 -32.5 -63t-66.5 -25q-36 0 -59 25t-19 63q2 18 10.5 34.5t22 29t30 19.5t34.5 7z" />
    <glyph glyph-name="slash" unicode="/" horiz-adv-x="470" 
d="M435 743l117 -68l-494 -858l-116 68z" />
    <glyph glyph-name="zero" unicode="0" 
d="M384 724q203 0 203 -226q0 -67 -10 -111l-14 -66q-37 -174 -115.5 -253t-195.5 -79q-204 0 -204 226q0 29 3 57t8 55l13 66q64 331 312 331zM271 144q92 0 133 192l10 47q13 61 13 96q0 48 -15 68.5t-45 20.5q-100 0 -136 -191l-9 -47q-7 -32 -10 -56.5t-3 -40.5
q0 -49 15 -69t47 -20z" />
    <glyph glyph-name="one" unicode="1" 
d="M401 712h138l-151 -712h-161l104 489l-200 -138l42 199z" />
    <glyph glyph-name="two" unicode="2" 
d="M504 155l-33 -155h-450l29 139l258 232l50 47q18 17 38 44q20 29 20 46q0 25 -18.5 42t-45.5 17q-51 0 -109.5 -26.5t-106.5 -77.5l41 201q103 60 194 60q89 0 147 -55q59 -54 59 -136q0 -69 -41 -131q-41 -61 -126 -137l-123 -110h217z" />
    <glyph glyph-name="three" unicode="3" 
d="M184 303l28 146h41q63 0 96.5 20t33.5 50q0 21 -16.5 34.5t-41.5 13.5q-109 0 -186 -67l34 183q88 41 173 41q87 0 142 -52q56 -53 56 -131q0 -105 -80 -170q46 -43 46 -109q0 -118 -82 -196q-83 -77 -201 -77q-105 0 -190 55l33 158q61 -56 167 -56q23 0 43.5 6.5t36 19
t24.5 30t9 38.5q0 14 -10 25.5t-27 20t-39.5 13t-48.5 4.5h-41z" />
    <glyph glyph-name="four" unicode="4" 
d="M486 283h71l-32 -154h-70l-27 -129h-161l27 129h-302l31 149l400 434h156zM331 277l24 110q2 12 10 38t22 68h-7l-15 -20.5l-18.5 -25l-18 -23t-12.5 -14.5l-122 -133h137z" />
    <glyph glyph-name="five" unicode="5" 
d="M527 281q0 -115 -86 -204q-85 -88 -204 -88q-114 0 -208 69l34 157q77 -71 182 -71q51 0 85 37q36 37 36 87q0 31 -18.5 50.5t-52.5 19.5q-63 0 -133 -45l-76 40l132 379h379l-33 -155h-241l-23 -65q5 1 10.5 1h12.5q97 0 150 -60q54 -59 54 -152z" />
    <glyph glyph-name="six" unicode="6" 
d="M392 712h191l-202 -222q74 -17 122 -75q49 -58 49 -132q0 -116 -85 -205q-86 -89 -206 -89q-97 0 -162 62q-63 61 -63 154q0 115 110 237zM273 143q44 0 81 35q36 34 36 81q0 34 -24 57t-57 23q-42 0 -77 -35t-35 -82q0 -32 20 -55.5t56 -23.5z" />
    <glyph glyph-name="seven" unicode="7" 
d="M395 557h-268l24 155h494l-14 -89l-425 -623h-188z" />
    <glyph glyph-name="eight" unicode="8" 
d="M48 186q0 28 8 57t22 55.5t34.5 49.5t44.5 40q-30 37 -30 97q0 103 79 170q79 69 174 69q82 0 135 -51q54 -51 54 -130q0 -34 -22 -79q-21 -47 -58 -78q47 -50 47 -131q0 -110 -85 -188q-84 -78 -193 -78q-94 0 -152 55t-58 142zM313 312q-42 -2 -75 -33q-32 -30 -32 -71
q0 -32 21.5 -51t49.5 -19q37 0 71 31t34 75q0 30 -20.5 49t-48.5 19zM363 578q-30 -2 -57 -24q-26 -23 -26 -55q0 -20 15 -35.5t38 -15.5q15 0 29.5 6.5t26 18t18 25.5t6.5 29q0 21 -14 36t-36 15z" />
    <glyph glyph-name="nine" unicode="9" 
d="M238 0h-192l202 223q-75 17 -122 74q-48 58 -48 133q0 116 85 204q85 90 206 90q96 0 161 -63q64 -61 64 -153q0 -115 -110 -237zM356 570q-44 0 -81 -35q-35 -35 -35 -80q0 -36 22.5 -58.5t57.5 -22.5q42 0 77 35q36 34 36 83q0 32 -21 55t-56 23z" />
    <glyph glyph-name="colon" unicode=":" horiz-adv-x="295" 
d="M127 173q18 0 33.5 -7t26.5 -19t16.5 -28.5t3.5 -35.5q-4 -38 -32.5 -63t-66.5 -25q-36 0 -59 25t-19 63q2 18 10.5 34.5t22 29t30 19.5t34.5 7zM206 546q18 0 33.5 -7t26.5 -19t16.5 -28.5t3.5 -35.5q-4 -38 -32.5 -63t-66.5 -25q-36 0 -59 25t-19 63q2 18 10.5 34.5
t22 29t30 19.5t34.5 7z" />
    <glyph glyph-name="semicolon" unicode=";" horiz-adv-x="295" 
d="M202 546q18 0 33.5 -7t26.5 -19t16.5 -28.5t3.5 -35.5q-4 -38 -32.5 -63t-66.5 -25q-36 0 -59 25t-19 63q2 18 10.5 34.5t22 29t30 19.5t34.5 7zM-81 -163q35 82 62 155.5t45 140.5l170 12q-76 -183 -178 -324z" />
    <glyph glyph-name="less" unicode="&#x3c;" 
d="M539 517v-161l-256 -108l256 -108v-161l-498 213v113z" />
    <glyph glyph-name="equal" unicode="=" 
d="M41 422h497v-149h-497v149zM41 224h497v-151h-497v151z" />
    <glyph glyph-name="greater" unicode="&#x3e;" 
d="M41 356v161l497 -212v-113l-497 -213v161l254 108z" />
    <glyph glyph-name="question" unicode="?" horiz-adv-x="534" 
d="M349 724q39 0 70.5 -11.5t54 -32.5t34.5 -50.5t12 -65.5q0 -49 -21 -90t-52 -68q-22 -20 -46 -37.5t-44.5 -34.5t-35.5 -34t-19 -34l-15 -73h-154l20 99q6 29 24 54.5t41.5 48t49 42.5l46.5 37.5t35 34.5t14 33q0 32 -40 32q-75 0 -136 -40l35 165q69 25 127 25zM198 174
q34 0 57.5 -23t23.5 -56q0 -21 -8 -39t-21.5 -32t-31.5 -22t-39 -8q-34 0 -57.5 23t-23.5 56q0 21 8 39t21.5 32t31.5 22t39 8z" />
    <glyph glyph-name="at" unicode="@" horiz-adv-x="998" 
d="M778 498l-73 -343q-4 -20 -4 -28t12 -8q35 0 75 73t40 160q0 242 -285 242q-152 0 -255 -102q-104 -102 -104 -256q0 -142 85 -233t248 -91l-15 -129q-112 0 -200 34t-143 97q-54 61 -82 140.5t-28 175.5q0 143 68 258q34 57 80.5 101t102 74t119 45.5t132.5 15.5
q176 0 295 -95t119 -258q0 -158 -93 -270t-192 -112q-65 0 -92 52q-68 -52 -147 -52q-96 0 -148 63q-52 64 -52 161q0 118 75 207t191 89q62 0 127 -51l9 40h135zM460 120q25 0 46.5 11t38 30t28.5 44.5t18 54.5l15 66q-38 48 -105 48q-58 0 -90 -47q-30 -47 -30 -107
q0 -45 20.5 -72.5t58.5 -27.5z" />
    <glyph glyph-name="A" unicode="A" horiz-adv-x="739" 
d="M530 712l158 -712h-169l-27 145h-269l-87 -145h-185l460 712h119zM310 291h155l-15 101q-7 49 -12 113h-9q-17 -37 -32 -65.5t-27 -48.5z" />
    <glyph glyph-name="B" unicode="B" horiz-adv-x="601" 
d="M296 563l-28 -131h74q36 0 62.5 20t26.5 58q0 25 -18.5 39t-47.5 14h-69zM238 289l-30 -139h89q42 0 71.5 22t29.5 64q0 53 -77 53h-83zM589 540q0 -101 -83 -169q57 -45 57 -120q0 -114 -88 -183q-88 -68 -195 -68h-260l151 712h211q104 0 155.5 -48.5t51.5 -123.5z" />
    <glyph glyph-name="C" unicode="C" horiz-adv-x="617" 
d="M532 28q-89 -39 -163 -39q-135 0 -222 87q-86 89 -86 221q-2 84 33.5 162.5t95 138t136 94t156.5 32.5q74 0 166 -47l-38 -176q-74 66 -142 66q-100 0 -173 -78q-72 -77 -72 -179q0 -71 44 -118t118 -47q69 0 188 80z" />
    <glyph glyph-name="D" unicode="D" horiz-adv-x="694" 
d="M346 712q167 0 251 -86q85 -85 85 -212q0 -73 -29 -145.5t-83 -133.5q-54 -60 -140.5 -97.5t-192.5 -37.5h-219l151 712h177zM234 156q126 0 206 65t80 184q0 152 -195 152h-28l-87 -401h24z" />
    <glyph glyph-name="E" unicode="E" horiz-adv-x="562" 
d="M20 0l151 712h432l-32 -152h-274l-27 -126h266l-31 -147h-266l-29 -135h274l-32 -152h-432z" />
    <glyph glyph-name="F" unicode="F" horiz-adv-x="514" 
d="M542 560h-245l-26 -119h236l-31 -147h-236l-62 -294h-158l151 712h403z" />
    <glyph glyph-name="G" unicode="G" horiz-adv-x="704" 
d="M340 262l32 147h299l-80 -375q-121 -40 -221 -40q-136 0 -222 85q-87 85 -87 217q0 112 59 212q59 99 157 158q97 58 205 58q90 0 188 -54l-34 -163q-86 60 -168 60q-100 0 -173 -78q-73 -76 -73 -178q0 -36 11.5 -65.5t33 -50.5t51.5 -33t68 -12q39 0 69 6l24 106h-139z
" />
    <glyph glyph-name="H" unicode="H" horiz-adv-x="673" 
d="M488 451l56 261h162l-151 -712h-162l63 294h-215l-63 -294h-160l151 712h160l-56 -261h215z" />
    <glyph glyph-name="I" unicode="I" horiz-adv-x="298" 
d="M329 712l-151 -712h-160l151 712h160z" />
    <glyph glyph-name="J" unicode="J" horiz-adv-x="435" 
d="M305 712h161l-101 -471q-27 -124 -100 -188t-174 -64q-54 0 -97 15l35 166q32 -19 65 -19q39 0 71 23t42 74z" />
    <glyph glyph-name="K" unicode="K" horiz-adv-x="643" 
d="M752 712l-352 -331l234 -381h-187l-165 274l-58 -52l-47 -222h-157l151 712h157l-35 -166q-9 -42 -30 -104h6q78 87 92 101l164 169h227z" />
    <glyph glyph-name="L" unicode="L" horiz-adv-x="472" 
d="M329 712l-118 -556h219l-31 -156h-381l151 712h160z" />
    <glyph glyph-name="M" unicode="M" horiz-adv-x="833" 
d="M177 0h-158l151 712h96l187 -237l287 237h122l-151 -712h-158l67 315q6 28 16.5 64.5l24.5 82.5h-7q-73 -76 -109 -106l-127 -104l-82 104q-11 13 -26.5 39.5l-37.5 66.5h-7q-11 -95 -21 -147z" />
    <glyph glyph-name="N" unicode="N" horiz-adv-x="709" 
d="M581 712h159l-151 -712h-89l-200 346q-9 15 -18 33t-17 40h-4q-4 -27 -6.5 -46t-4.5 -30l-72 -343h-158l151 712h103l191 -331q9 -16 16.5 -33.5t14.5 -37.5h5q9 69 12 83z" />
    <glyph glyph-name="O" unicode="O" horiz-adv-x="804" 
d="M481 724q136 0 223 -88q87 -89 87 -222q0 -114 -61 -212q-60 -99 -158 -156t-204 -57q-134 0 -221 87q-86 89 -86 221q0 112 59 212q60 99 157 157t204 58zM385 146q100 0 172 76t72 179q0 36 -11 66.5t-32 52.5t-51 34.5t-67 12.5q-100 0 -173 -78q-72 -77 -72 -179
q0 -36 11.5 -66t32.5 -51.5t51 -34t67 -12.5z" />
    <glyph glyph-name="P" unicode="P" 
d="M295 557l-37 -174h53q27 0 51 8t41 22t27 34t10 44q0 30 -24.5 48t-66.5 18h-54zM169 712h198q57 0 101 -14.5t73.5 -41t45 -63t15.5 -81.5q0 -75 -27.5 -128.5t-72 -88.5t-101.5 -51.5t-116 -16.5h-60l-48 -227h-159z" />
    <glyph glyph-name="Q" unicode="Q" horiz-adv-x="804" 
d="M772 149l-32 -149h-369q-134 0 -222 87q-87 87 -87 218q0 110 60 208q61 99 157 154q97 57 203 57q136 0 223 -87q87 -86 87 -217q0 -168 -124 -274v-6q4 1 12.5 2.5t18 3t19 2.5t15.5 1h39zM386 155q100 0 172 75q72 76 72 177q0 36 -11.5 65.5t-32.5 51t-51 33.5
t-67 12q-99 0 -172 -76q-72 -77 -72 -175q0 -36 11 -65.5t32 -51.5t51 -34t68 -12z" />
    <glyph glyph-name="R" unicode="R" horiz-adv-x="628" 
d="M570 0h-176l-126 257h-36l-54 -257h-160l151 712h201q55 0 98 -13.5t72 -38.5t44.5 -59t15.5 -76q0 -84 -49 -149q-47 -65 -126 -97zM296 564l-34 -159h56q25 0 47.5 7.5t38.5 20.5t25.5 31t9.5 39q0 28 -22.5 44.5t-64.5 16.5h-56z" />
    <glyph glyph-name="S" unicode="S" horiz-adv-x="555" 
d="M506 244q0 -111 -78 -183t-191 -72q-116 0 -197 81l34 166q17 -19 39.5 -35t48.5 -30q54 -27 101 -27q35 0 58.5 17.5t23.5 49.5q0 20 -18 36t-45 32l-58.5 34t-58.5 41.5t-45 55.5t-18 76q0 108 73 172q73 66 175 66q119 0 189 -70l-34 -161q-80 76 -180 76
q-24 0 -42.5 -14.5t-18.5 -40.5q0 -18 25 -37t60 -39q26 -13 54 -31t51 -41.5t37.5 -54t14.5 -67.5z" />
    <glyph glyph-name="T" unicode="T" horiz-adv-x="505" 
d="M400 556l-118 -556h-161l117 556h-157l33 156h476l-33 -156h-157z" />
    <glyph glyph-name="U" unicode="U" horiz-adv-x="665" 
d="M600 262q-27 -127 -111 -200q-82 -73 -188 -73q-99 0 -166 58t-67 159q0 36 6 62l95 444h159l-95 -443q-5 -25 -5 -38q0 -42 22.5 -63t58.5 -21q22 0 43.5 9t39.5 25.5t31 40t19 52.5l93 438h161z" />
    <glyph glyph-name="V" unicode="V" horiz-adv-x="694" 
d="M609 712h183l-441 -712h-106l-141 712h163l64 -355q10 -50 10 -90h7q2 4 7 15l13 29t14 29.5t9 16.5z" />
    <glyph glyph-name="W" unicode="W" horiz-adv-x="919" 
d="M825 712h175l-271 -712h-169l-58 277q-4 20 -6.5 43.5t-4.5 50.5h-7q-17 -37 -52 -94l-174 -277h-168l31 712h156l-16 -348q-1 -20 -3.5 -43.5t-6.5 -52.5h8l30 59.5l21 38.5l199 323h76l61 -323q5 -27 8 -51t5 -46h8l11 38q10 36 18 57z" />
    <glyph glyph-name="X" unicode="X" horiz-adv-x="663" 
d="M743 712l-298 -352l167 -360h-182l-69 162q-17 38 -25 69h-5q-2 -2 -7.5 -10l-14.5 -22l-16.5 -23t-13.5 -17l-129 -159h-207l321 381l-149 331h174l57 -131q16 -36 26 -76h6q27 48 52 79l105 128h208z" />
    <glyph glyph-name="Y" unicode="Y" horiz-adv-x="641" 
d="M548 712h193l-329 -420l-62 -292h-159l62 292l-152 420h168l67 -182q2 -7 6.5 -24t9.5 -43h7q21 39 44 66z" />
    <glyph glyph-name="Z" unicode="Z" horiz-adv-x="584" 
d="M548 156l-33 -156h-546l22 104l325 371q30 34 82 78l1 6q-20 -1 -43 -1.5t-49 -0.5h-193l33 155h517l-22 -104l-331 -374q-10 -11 -29 -30l-47 -45l-1 -7q38 2 62.5 3t35.5 1h216z" />
    <glyph glyph-name="bracketleft" unicode="[" horiz-adv-x="345" 
d="M402 603h-90l-136 -633h91l-32 -149h-247l198 932h247z" />
    <glyph glyph-name="backslash" unicode="\" horiz-adv-x="470" 
d="M378 -140l-149 -22l-129 862l149 22z" />
    <glyph glyph-name="bracketright" unicode="]" horiz-adv-x="344" 
d="M188 603h-90l32 150h247l-198 -932h-245l30 149h89z" />
    <glyph glyph-name="asciicircum" unicode="^" horiz-adv-x="590" 
d="M457 724l117 -437h-154l-57 235l-154 -235h-176l299 437h125z" />
    <glyph glyph-name="underscore" unicode="_" horiz-adv-x="498" 
d="M434 -31l-27 -127h-485l27 127h485z" />
    <glyph glyph-name="grave" unicode="`" horiz-adv-x="409" 
d="M424 574l-62 -78l-213 150l73 93z" />
    <glyph glyph-name="a" unicode="a" horiz-adv-x="640" 
d="M329 550q77 0 142 -59l9 47h156l-114 -538h-136l3 47q-70 -58 -137 -58q-105 0 -163 64t-58 163q0 127 86 231q85 103 212 103zM277 136q27 0 50.5 10t42 28t32.5 42.5t21 53.5l17 69q-12 23 -40 43t-68 20q-59 0 -101 -50q-41 -50 -41 -121q0 -45 22.5 -70t64.5 -25z
" />
    <glyph glyph-name="b" unicode="b" horiz-adv-x="639" 
d="M612 320q0 -129 -85 -230q-86 -101 -221 -101q-18 0 -37 4.5t-38 12.5t-35 19t-28 23l-15 -48h-145l162 764h156l-54 -254q67 40 120 40q107 0 163 -66q57 -65 57 -164zM310 136q61 0 102 51q40 52 40 119q0 45 -22 70.5t-64 25.5q-54 0 -94 -40t-52 -96l-14 -65
q12 -23 38.5 -44t65.5 -21z" />
    <glyph glyph-name="c" unicode="c" horiz-adv-x="476" 
d="M381 16q-63 -27 -120 -27q-103 0 -166 65q-62 67 -62 165q0 138 95 235q96 96 221 96q62 0 121 -35l-35 -161q-47 48 -103 48q-54 0 -97 -48q-44 -47 -44 -116q0 -45 24.5 -73t64.5 -28q69 0 137 48z" />
    <glyph glyph-name="d" unicode="d" horiz-adv-x="640" 
d="M32 216q0 81 36 156q36 76 106 127t159 51q81 0 143 -39l54 253h155l-163 -764h-138l3 47q-70 -58 -143 -58q-103 0 -158 64q-54 64 -54 163zM333 402q-63 0 -103 -52t-40 -119q0 -45 22.5 -70t65.5 -25q27 0 50.5 10.5t42.5 28.5t33 42.5t20 52.5l20 86
q-12 15 -42.5 30.5t-68.5 15.5z" />
    <glyph glyph-name="e" unicode="e" horiz-adv-x="564" 
d="M395 335q0 42 -19 66t-54 24q-36 0 -65.5 -25t-45.5 -65h184zM426 27q-78 -38 -165 -38q-105 0 -167 60t-62 168q0 144 87 239q88 94 219 94q44 0 80.5 -14.5t62.5 -42t40.5 -68.5t14.5 -95q0 -48 -11 -101h-333q1 -103 89 -103q100 0 176 55z" />
    <glyph glyph-name="f" unicode="f" horiz-adv-x="368" 
d="M74 538h65l6 28q18 88 87 148q70 61 156 61q50 0 91 -9l-32 -154q-41 16 -65 16q-12 0 -25.5 -5t-25 -13.5t-20 -20t-11.5 -23.5l-6 -28h126l-28 -132h-126l-86 -406h-155l86 406h-65z" />
    <glyph glyph-name="g" unicode="g" horiz-adv-x="625" 
d="M274 156q26 0 49 9t41 25.5t30.5 39t17.5 49.5l11 59q-12 25 -38.5 44.5t-63.5 19.5q-55 0 -93 -47q-36 -47 -36 -114q0 -39 21 -62t61 -23zM621 538l-107 -508q-24 -110 -108 -182q-82 -73 -193 -73q-109 0 -191 50l33 156q85 -59 168 -59q41 0 83 33q42 32 53 79l3 14
q-59 -39 -119 -39q-100 0 -154 62q-54 61 -54 156q0 126 82 224q82 99 211 99q35 0 73.5 -16.5t61.5 -43.5l12 48h146z" />
    <glyph glyph-name="h" unicode="h" horiz-adv-x="599" 
d="M170 764h156l-56 -267q62 53 116 53q169 0 169 -160q0 -21 -2 -41t-6 -40l-64 -309h-155l62 299l3.5 23t1.5 18q0 62 -58 62q-19 0 -44 -12t-40 -24l-15 -12l-74 -354h-156z" />
    <glyph glyph-name="i" unicode="i" horiz-adv-x="282" 
d="M316 667q0 -39 -30 -70q-30 -30 -71 -30q-35 0 -58 24t-23 58q0 40 31 68q32 29 69 29q35 0 58.5 -22.5t23.5 -56.5zM165 0h-155l113 538h156z" />
    <glyph glyph-name="j" unicode="j" horiz-adv-x="282" 
d="M-132 -68q36 -14 67 -14q25 0 44.5 20.5t25.5 47.5l117 552h156l-116 -546q-20 -94 -84 -155q-65 -62 -164 -62q-35 0 -77 11zM316 667q0 -39 -30 -70q-30 -30 -71 -30q-35 0 -58 24t-23 58q0 40 31 68q32 29 69 29q35 0 58.5 -22.5t23.5 -56.5z" />
    <glyph glyph-name="k" unicode="k" horiz-adv-x="568" 
d="M344 283l171 -283h-178l-105 186l-36 -30l-32 -156h-155l164 764h153l-66 -310l-10 -43.5t-12 -43.5h6l54 58l122 113h205z" />
    <glyph glyph-name="l" unicode="l" horiz-adv-x="282" 
d="M8 0l162 764h156l-162 -764h-156z" />
    <glyph glyph-name="m" unicode="m" horiz-adv-x="860" 
d="M648 550q76 0 122 -43t46 -124q0 -36 -7 -70l-67 -313h-156l66 307q5 28 5 42q0 53 -46 53q-32 0 -59 -24q-25 -22 -30 -44l-68 -334h-156l63 302q6 27 6 47q0 53 -44 53q-31 0 -56 -22q-24 -20 -32 -41l-71 -339h-156l114 538h140l-3 -47q62 59 118 59q80 0 116 -64
q73 64 155 64z" />
    <glyph glyph-name="n" unicode="n" horiz-adv-x="599" 
d="M122 538h140l-2 -45q64 57 126 57q169 0 169 -160q0 -22 -2 -42.5t-6 -40.5l-64 -307h-155l62 299l3.5 23t1.5 18q0 62 -58 62q-19 0 -44 -12t-40 -24l-15 -12l-74 -354h-156z" />
    <glyph glyph-name="o" unicode="o" horiz-adv-x="610" 
d="M345 550q107 0 171 -70q66 -69 66 -172q0 -127 -93 -223t-221 -96q-107 0 -172 68q-64 68 -64 173q0 127 93 223q93 97 220 97zM282 137q53 0 97 47t44 113q0 48 -26 76.5t-65 28.5q-55 0 -98 -48q-44 -49 -44 -114q0 -46 27 -74.5t65 -28.5z" />
    <glyph glyph-name="p" unicode="p" horiz-adv-x="639" 
d="M614 322q0 -81 -36 -157q-36 -74 -107 -126q-71 -50 -159 -50q-79 0 -144 38l-50 -243h-156l160 754h140l-3 -47q71 59 143 59q101 0 157 -65q55 -64 55 -163zM312 137q61 0 102 51q41 53 41 118q0 45 -23 70.5t-66 25.5q-27 0 -50.5 -10.5t-42.5 -28.5t-32.5 -43
t-19.5 -53l-19 -85q6 -7 17 -15t25.5 -14.5t32 -11t35.5 -4.5z" />
    <glyph glyph-name="q" unicode="q" horiz-adv-x="640" 
d="M32 217q0 81 36 156q36 76 107 126q70 51 160 51q38 0 77 -17.5t63 -42.5l16 48h144l-160 -754h-155l53 244q-68 -39 -123 -39q-105 0 -162 64q-56 65 -56 164zM332 402q-61 0 -102 -53q-40 -52 -40 -118q0 -45 22 -69.5t64 -24.5q53 0 94 39t53 95l14 66
q-5 11 -14.5 22.5t-23 21t-30.5 15.5t-37 6z" />
    <glyph glyph-name="r" unicode="r" horiz-adv-x="390" 
d="M437 545l-33 -157q-15 3 -33 3q-72 0 -105 -33t-48 -102l-55 -256h-155l115 538h141l-5 -49q24 27 65 41q43 15 79 15h34z" />
    <glyph glyph-name="s" unicode="s" horiz-adv-x="442" 
d="M381 179q0 -83 -61 -137q-62 -53 -143 -53q-84 0 -158 50l32 155q73 -68 129 -68q18 0 30.5 9t12.5 22q0 7 -6.5 16.5t-17.5 19t-25 20t-29 20.5t-29 24t-25 31t-17.5 36t-6.5 39q0 79 61 133t145 54q67 0 140 -46l-33 -149q-64 58 -115 58q-15 0 -27.5 -9t-12.5 -22
q0 -11 11.5 -22t29 -24l37.5 -28.5t37.5 -34.5t29 -42.5t11.5 -51.5z" />
    <glyph glyph-name="t" unicode="t" horiz-adv-x="382" 
d="M307 1q-44 -11 -77 -11q-85 0 -126 43.5t-41 115.5q0 36 7 63l42 194h-65l28 132h65l20 90l169 65l-34 -155h127l-28 -132h-127l-45 -208q-1 -5 -1 -15q0 -48 51 -48q24 0 66 13z" />
    <glyph glyph-name="u" unicode="u" horiz-adv-x="589" 
d="M591 538l-66 -312q-24 -112 -96 -174.5t-181 -62.5q-94 0 -148 47.5t-54 132.5q0 37 5 60l67 309h156l-65 -300l-3.5 -22t-1.5 -16q0 -63 61 -63q37 0 66.5 25t41.5 80l63 296h155z" />
    <glyph glyph-name="v" unicode="v" horiz-adv-x="591" 
d="M459 538h182l-351 -538h-97l-130 538h160l42 -199q5 -26 8.5 -49.5t4.5 -43.5h7q13 40 48 93z" />
    <glyph glyph-name="w" unicode="w" horiz-adv-x="811" 
d="M677 538h173l-257 -538h-111l-60 187q-9 28 -18 74h-4q-9 -17 -47 -74l-132 -187h-111l-36 538h151l9 -206q1 -13 1 -35.5v-54.5h5q28 60 49 90l119 184h77l45 -182q4 -16 15 -92h6q8 25 16 47.5t18 42.5z" />
    <glyph glyph-name="x" unicode="x" horiz-adv-x="604" 
d="M644 538l-258 -272l150 -266h-175l-52 105q-8 14 -22 54h-6q-17 -29 -42 -56l-90 -103h-203l270 285l-141 253h174l42 -89q21 -47 24 -57h5q20 26 30.5 41t12.5 17l79 88h202z" />
    <glyph glyph-name="y" unicode="y" horiz-adv-x="596" 
d="M464 538h182l-509 -754h-177l212 308l-111 446h160l50 -197q4 -18 7.5 -38t6.5 -43h6q19 40 45 81z" />
    <glyph glyph-name="z" unicode="z" horiz-adv-x="515" 
d="M284 188q-19 -20 -32.5 -33t-23.5 -21l-1 -6q36 3 76 3h161l-27 -131h-466l17 76l252 277q21 23 53 50l1 7q-39 -3 -72 -3h-147l27 131h445l-17 -81z" />
    <glyph glyph-name="braceleft" unicode="{" horiz-adv-x="313" 
d="M214 288q25 -35 25 -70q2 -28 -12.5 -55t-33 -53l-35.5 -50.5t-21 -47.5q-1 -1 -1 -7q0 -15 10.5 -25t22.5 -10h60l-31 -147h-52q-68 0 -114 45q-46 43 -46 109q0 20 4 35q7 31 48 88q41 59 41 88q0 26 -57 26l31 148q25 0 39 4.5t21.5 11.5t9.5 16.5t2 18.5q0 21 -15 62
q-14 42 -14 65q0 84 73 148q74 65 153 65h74l-32 -147h-60q-19 0 -35.5 -18.5t-16.5 -43.5q0 -22 15 -64t15 -65q0 -68 -68 -127z" />
    <glyph glyph-name="bar" unicode="|" horiz-adv-x="291" 
d="M238 764v-980h-135v980h135z" />
    <glyph glyph-name="braceright" unicode="}" horiz-adv-x="313" 
d="M120 288q-25 35 -25 70q-2 28 12.5 55t33 53l35.5 50.5t21 47.5q1 1 1 7q0 15 -10.5 25t-22.5 10h-60l31 147h52q66 0 113 -45q47 -44 47 -109q0 -20 -4 -35q-7 -30 -48 -89q-41 -58 -41 -87q0 -26 57 -26l-31 -148q-25 0 -39 -4.5t-21.5 -11.5t-9.5 -16.5t-2 -18.5
q0 -20 14 -62q15 -41 15 -65q0 -84 -73 -148q-74 -65 -153 -65h-74l32 147h60q19 0 35.5 18.5t16.5 43.5q0 22 -15 64t-15 65q0 68 68 127z" />
    <glyph glyph-name="asciitilde" unicode="~" horiz-adv-x="591" 
d="M7 144q23 108 68.5 165.5t129.5 57.5q37 0 70.5 -13.5t52.5 -30.5l38.5 -29.5t29.5 -13.5q34 0 51 80h143q-23 -108 -68 -165.5t-129 -57.5q-37 0 -71 13.5t-53 29.5q-19 17 -38 30.5t-30 13.5q-34 0 -51 -80h-143z" />
    <glyph glyph-name="uni00A0" unicode="&#xa0;" horiz-adv-x="185" 
 />
    <glyph glyph-name="exclamdown" unicode="&#xa1;" horiz-adv-x="307" 
d="M246 312l-112 -528h-156l112 528h156zM201 510q34 0 57.5 -23t23.5 -56q0 -21 -8 -39t-21.5 -32t-31.5 -22t-39 -8q-34 0 -57.5 23t-23.5 56q0 21 8 39t21.5 32t31.5 22t39 8z" />
    <glyph glyph-name="cent" unicode="&#xa2;" horiz-adv-x="543" 
d="M389 15q-50 -22 -100 -26l-15 -73h-56l15 74q-89 12 -141 75q-52 62 -52 152q0 138 94 233q95 98 217 99l14 60h56l-14 -66q34 -7 70 -29l-34 -161q-31 34 -68 43l-55 -258q53 8 106 46zM200 237q0 -38 17 -64.5t47 -33.5l56 261q-49 -11 -84 -56q-36 -45 -36 -107z" />
    <glyph glyph-name="sterling" unicode="&#xa3;" horiz-adv-x="558" 
d="M218 151h282l-32 -151h-500l31 151h65l20 95h-61l16 76h61l36 169q21 98 97 165q77 68 188 68q61 0 120 -31l-33 -155q-43 35 -114 35q-34 0 -66 -26q-31 -25 -38 -59l-36 -166h199l-16 -76h-199z" />
    <glyph glyph-name="currency" unicode="&#xa4;" 
d="M522 289q0 -53 -24 -102l62 -64l-101 -101l-65 60q-56 -24 -104 -24q-51 0 -105 24l-15 -13t-20 -19l-30 -28l-101 101l61 64q-23 48 -23 102t24 102l-62 64l101 104l66 -64q45 24 104 24q56 0 103 -24l66 64l101 -104l-62 -64q24 -47 24 -102zM226 227q13 -13 30 -19.5
t34 -6.5t33.5 6.5t29.5 19.5t19.5 29.5t6.5 33t-6.5 32.5t-19.5 28q-13 13 -29.5 19.5t-33.5 6.5t-34 -6.5t-30 -19.5q-13 -12 -19.5 -28t-6.5 -32.5t6.5 -33t19.5 -29.5z" />
    <glyph glyph-name="yen" unicode="&#xa5;" horiz-adv-x="637" 
d="M548 712h193l-184 -235h61l-16 -76h-105l-62 -79h154l-16 -76h-171l-52 -246h-159l52 246h-168l16 76h151l-29 79h-109l16 76h66l-85 235h168l67 -182q2 -7 6.5 -24t9.5 -43h7q21 39 44 66z" />
    <glyph glyph-name="brokenbar" unicode="&#xa6;" horiz-adv-x="291" 
d="M233 773v-388h-135v388h135zM233 299v-388h-135v388h135z" />
    <glyph glyph-name="section" unicode="&#xa7;" horiz-adv-x="555" 
d="M217 336q0 -15 29 -32t84 -42q54 28 54 64q0 8 -8 16.5t-29 19.5l-18 10.5t-14 7.5l-16.5 8t-26.5 12q-55 -28 -55 -64zM520 574q-76 46 -167 46q-26 0 -43.5 -8.5t-17.5 -23.5q0 -16 38 -37q40 -22 83 -41q44 -19 83 -61q38 -41 38 -91q0 -103 -92 -171q32 -38 32 -84
q0 -87 -70 -150q-71 -63 -176 -63q-89 0 -180 42l33 158q75 -48 168 -48q25 0 42.5 9t17.5 24q0 14 -25 29t-61 31q-25 11 -52.5 27t-51 36.5t-38 47t-14.5 58.5q0 101 92 172q-32 40 -32 84q0 86 69 149q70 64 176 64q92 0 181 -43z" />
    <glyph glyph-name="dieresis" unicode="&#xa8;" horiz-adv-x="395" 
d="M183 546q-27 0 -45.5 18.5t-18.5 45.5q0 32 23.5 55.5t55.5 23.5q28 0 46.5 -19t18.5 -48q0 -15 -6.5 -28.5t-17.5 -24t-25.5 -17t-30.5 -6.5zM375 689q28 0 46.5 -19t18.5 -48q0 -15 -7 -29t-18 -24.5t-25.5 -16.5t-29.5 -6q-27 0 -45.5 18.5t-18.5 45.5q0 32 23.5 55.5
t55.5 23.5z" />
    <glyph glyph-name="copyright" unicode="&#xa9;" horiz-adv-x="806" 
d="M196 361q0 96 66 162q66 67 161 67q46 0 107 -29v-135q-64 52 -107 52q-24 0 -45 -9.5t-36.5 -25t-24 -37t-8.5 -45.5t8.5 -45.5t24 -37.5t36.5 -25.5t45 -9.5q40 0 107 52v-135q-56 -29 -107 -29q-95 0 -161 66q-66 67 -66 164zM403 733q154 0 262 -109
q109 -109 109 -263q0 -155 -109 -264q-108 -108 -262 -108q-155 0 -264 108q-108 109 -108 264q0 153 108 263q109 109 264 109zM403 89q111 0 191 80t80 192q0 111 -80 191q-79 79 -191 79q-113 0 -192 -79t-79 -191q0 -113 79 -192q80 -80 192 -80z" />
    <glyph glyph-name="ordfeminine" unicode="&#xaa;" horiz-adv-x="427" 
d="M380 716h105l-71 -332h-91l1 21q-34 -28 -76 -28q-66 0 -101.5 40t-35.5 103q0 77 53 141q52 63 130 63q48 0 82 -31zM355 592q-20 33 -59 33q-34 0 -57 -29.5t-23 -71.5q0 -22 12 -35.5t35 -13.5q27 0 49.5 23t33.5 54zM81 338h323l-20 -97h-323z" />
    <glyph glyph-name="guillemotleft" unicode="&#xab;" horiz-adv-x="557" 
d="M365 471l-188 -209l92 -195h-158l-97 209l174 195h177zM605 471l-187 -209l91 -195h-158l-97 209l175 195h176z" />
    <glyph glyph-name="logicalnot" unicode="&#xac;" 
d="M387 90v159h-346v149h497v-308h-151z" />
    <glyph glyph-name="registered" unicode="&#xae;" horiz-adv-x="435" 
d="M352 515q0 -76 -54 -130t-130 -54t-131 54q-54 54 -54 130q0 77 54 131q55 54 131 54t130 -54t54 -131zM310 515q0 59 -42 100q-41 41 -100 41t-100 -41t-41 -100t41 -100t100 -41t100 41q42 42 42 100zM251 407h-57l-41 78h-4v-78h-50v218h65q37 0 57.5 -19.5
t20.5 -49.5q0 -47 -39 -63zM149 578v-44h15q28 0 28 22t-28 22h-15z" />
    <glyph glyph-name="macron" unicode="&#xaf;" horiz-adv-x="397" 
d="M138 669h303l-19 -100h-303z" />
    <glyph glyph-name="degree" unicode="&#xb0;" horiz-adv-x="411" 
d="M40 559q-1 72 50 123q52 51 124 51t123 -51t51 -123t-51 -124q-51 -51 -123 -51t-123 51q-51 52 -51 124zM147 560q0 -28 19 -47.5t48 -19.5q28 0 47 19.5t19 46.5t-19 45.5t-48 18.5q-28 0 -47 -18.5t-19 -44.5z" />
    <glyph glyph-name="plusminus" unicode="&#xb1;" 
d="M41 -10v150h497v-150h-497zM215 593h149v-141h174v-149h-174v-137h-149v137h-174v149h174v141z" />
    <glyph glyph-name="twosuperior" unicode="&#xb2;" horiz-adv-x="304" 
d="M259 620h98l-18 -89h-238l15 78l133 120q51 43 51 63q0 11 -8 18.5t-20 7.5q-23 0 -55.5 -18t-61.5 -47l26 123q55 33 104 33q48 0 78.5 -28.5t30.5 -73.5q0 -18 -4.5 -34t-15 -32.5t-26.5 -34.5t-40 -40z" />
    <glyph glyph-name="threesuperior" unicode="&#xb3;" horiz-adv-x="284" 
d="M179 684l16 84h17q30 0 47 9.5t17 21.5q0 9 -6.5 15.5t-16.5 6.5q-59 0 -95 -27l17 92q51 23 89 23q46 0 77 -27t31 -69q0 -48 -43 -84q23 -26 23 -59q0 -61 -46 -103q-45 -42 -108 -42q-50 0 -98 24l19 89q33 -24 88 -24q19 0 34.5 13t15.5 32q0 12 -18.5 18.5
t-45.5 6.5h-14z" />
    <glyph glyph-name="acute" unicode="&#xb4;" horiz-adv-x="408" 
d="M188 496l-48 80l239 164l54 -96z" />
    <glyph glyph-name="mu" unicode="&#xb5;" horiz-adv-x="607" 
d="M-29 -216l160 754h157l-67 -307q-4 -15 -4 -34q0 -62 63 -62q16 0 40 11.5t40 23.5l15 12l76 356h155l-114 -538h-143v33q-74 -45 -110 -45q-38 0 -66 14l-47 -218h-155z" />
    <glyph glyph-name="paragraph" unicode="&#xb6;" horiz-adv-x="614" 
d="M691 712l-23 -106h-59l-155 -730h-106l155 730h-63l-155 -730h-106l91 426q-70 0 -118 45q-48 46 -48 119q0 105 77 176q76 70 190 70h320z" />
    <glyph glyph-name="periodcentered" unicode="&#xb7;" horiz-adv-x="417" 
d="M217 338q36 0 58.5 -23.5t22.5 -59.5q0 -39 -30 -67q-29 -28 -68 -28q-34 0 -57.5 23.5t-23.5 57.5q0 39 30 68q31 29 68 29z" />
    <glyph glyph-name="cedilla" unicode="&#xb8;" horiz-adv-x="387" 
d="M71 -91l36 91h68l-6 -36q33 -3 52.5 -25.5t19.5 -52.5q0 -48 -40 -82q-41 -35 -99 -35q-48 0 -79 27l14 82q40 -27 69 -27q12 0 23 10t11 24q0 11 -7 17.5t-17 6.5h-45z" />
    <glyph glyph-name="onesuperior" unicode="&#xb9;" horiz-adv-x="253" 
d="M274 904h79l-80 -373h-92l50 240l-102 -72l25 119z" />
    <glyph glyph-name="ordmasculine" unicode="&#xba;" horiz-adv-x="429" 
d="M452 573q0 -79 -57 -137q-57 -59 -136 -59q-33 0 -60 11.5t-46 31.5t-29.5 48t-10.5 61q0 77 56 136q57 59 136 59q65 0 106 -44t41 -107zM347 567q-1 27 -15 42.5t-35 15.5q-15 0 -29.5 -7.5t-26 -20t-18 -29.5t-6.5 -35q0 -26 14.5 -41.5t35.5 -15.5q15 0 29.5 7.5
t26 20t18 29t6.5 34.5zM80 338h315l-19 -97h-316z" />
    <glyph glyph-name="guillemotright" unicode="&#xbb;" horiz-adv-x="557" 
d="M204 67l188 209l-91 195h157l97 -209l-174 -195h-177zM-36 67l187 209l-91 195h158l97 -209l-175 -195h-176z" />
    <glyph glyph-name="onequarter" unicode="&#xbc;" horiz-adv-x="766" 
d="M635 182h41l-21 -105h-42q-16 -73 -16 -77h-109l17 77h-183l20 97l246 267h102zM445 173h91l16 74l6.5 22t12.5 38h-5q-26 -36 -49 -59zM137 721h93l-93 -441h-108l61 286l-122 -86l30 141zM113 -19l-78 55l488 677l79 -56z" />
    <glyph glyph-name="onehalf" unicode="&#xbd;" horiz-adv-x="825" 
d="M589 105h117l-22 -105h-282l19 91l162 146q57 52 57 73q0 13 -10 22.5t-24 9.5q-28 0 -66.5 -21t-71.5 -56l29 144q67 39 120 39q55 0 93 -36q39 -35 39 -87q0 -74 -89 -155zM137 721h93l-93 -441h-108l61 286l-122 -86l30 141zM113 -19l-78 55l488 677l79 -56z" />
    <glyph glyph-name="threequarters" unicode="&#xbe;" horiz-adv-x="786" 
d="M147 -19l-78 55l488 677l79 -56zM656 182h41l-21 -105h-42q-16 -73 -16 -77h-109l17 77h-183l20 97l246 267h102zM466 173h91l16 74l6.5 22t12.5 38h-5q-26 -36 -49 -59zM32 464l19 94h20q36 0 57.5 12t21.5 27q0 11 -9 18t-22 7q-66 0 -118 -35l24 113q59 28 103 28
q57 0 94 -32t37 -83q0 -55 -51 -98q28 -31 28 -70q0 -73 -54 -122q-53 -50 -126 -50q-62 0 -121 28l23 105q40 -27 105 -27q23 0 43.5 15t20.5 38q0 15 -21.5 23.5t-54.5 8.5h-19z" />
    <glyph glyph-name="questiondown" unicode="&#xbf;" horiz-adv-x="488" 
d="M143 -225q-38 0 -69 12.5t-53.5 34.5t-35 52.5t-12.5 66.5q0 43 15 76t37.5 59t49.5 46l51 38t41.5 35.5t22.5 37.5l16 79h154l-21 -105q-6 -30 -24 -55.5t-41.5 -47.5t-49 -41.5l-47 -37.5t-35 -35t-13.5 -33q0 -32 40 -32q75 0 136 40l-35 -165q-69 -25 -127 -25z
M315 510q34 0 57.5 -23t23.5 -56q0 -21 -8 -39t-21.5 -32t-31.5 -22t-39 -8q-34 0 -57.5 23t-23.5 56q0 21 8 39t21.5 32t31.5 22t39 8z" />
    <glyph glyph-name="Agrave" unicode="&#xc0;" horiz-adv-x="739" 
d="M530 712l158 -712h-169l-27 145h-269l-87 -145h-185l460 712h119zM310 291h155l-15 101q-7 49 -12 113h-9q-17 -37 -32 -65.5t-27 -48.5zM644 807l-62 -78l-213 150l73 93z" />
    <glyph glyph-name="Aacute" unicode="&#xc1;" horiz-adv-x="739" 
d="M530 712l158 -712h-169l-27 145h-269l-87 -145h-185l460 712h119zM310 291h155l-15 101q-7 49 -12 113h-9q-17 -37 -32 -65.5t-27 -48.5zM408 729l-48 80l239 164l54 -96z" />
    <glyph glyph-name="Acircumflex" unicode="&#xc2;" horiz-adv-x="739" 
d="M530 712l158 -712h-169l-27 145h-269l-87 -145h-185l460 712h119zM310 291h155l-15 101q-7 49 -12 113h-9q-17 -37 -32 -65.5t-27 -48.5zM706 812l-60 -72l-133 87l-152 -87l-52 74l214 152z" />
    <glyph glyph-name="Atilde" unicode="&#xc3;" horiz-adv-x="739" 
d="M530 712l158 -712h-169l-27 145h-269l-87 -145h-185l460 712h119zM310 291h155l-15 101q-7 49 -12 113h-9q-17 -37 -32 -65.5t-27 -48.5zM553 783q-26 0 -60 15q-35 15 -47 15q-20 0 -39 -31l-77 52q54 83 128 83q28 0 61 -16q34 -15 46 -15q19 0 40 33l77 -52
q-56 -84 -129 -84z" />
    <glyph glyph-name="Adieresis" unicode="&#xc4;" horiz-adv-x="739" 
d="M530 712l158 -712h-169l-27 145h-269l-87 -145h-185l460 712h119zM310 291h155l-15 101q-7 49 -12 113h-9q-17 -37 -32 -65.5t-27 -48.5zM409 779q-27 0 -45.5 18.5t-18.5 45.5q0 32 23.5 55.5t55.5 23.5q28 0 46.5 -19t18.5 -48q0 -15 -6.5 -28.5t-17.5 -24t-25.5 -17
t-30.5 -6.5zM601 922q28 0 46.5 -19t18.5 -48q0 -15 -7 -29t-18 -24.5t-25.5 -16.5t-29.5 -6q-27 0 -45.5 18.5t-18.5 45.5q0 32 23.5 55.5t55.5 23.5z" />
    <glyph glyph-name="Aring" unicode="&#xc5;" horiz-adv-x="739" 
d="M530 712l158 -712h-169l-27 145h-269l-87 -145h-185l460 712h119zM310 291h155l-15 101q-7 49 -12 113h-9q-17 -37 -32 -65.5t-27 -48.5zM396 850q-2 45 32 77q16 16 36.5 24.5t41.5 8.5t41 -8.5t36 -24.5q32 -32 32 -77q0 -46 -33 -77q-34 -32 -78 -32q-23 0 -42.5 8.5
t-34 23t-23 34.5t-8.5 43zM470 850q-1 -15 9.5 -25.5t25.5 -10.5t25.5 10.5t11.5 25.5q-1 15 -11.5 25.5t-26.5 10.5q-15 0 -25 -10.5t-9 -25.5z" />
    <glyph glyph-name="AE" unicode="&#xc6;" horiz-adv-x="943" 
d="M951 557h-316v-106h285l-33 -156h-252v-139h231l-33 -156h-361v145h-217l-89 -145h-215l478 712h555zM336 301h136v232h-8q-29 -65 -54 -109z" />
    <glyph glyph-name="Ccedilla" unicode="&#xc7;" horiz-adv-x="613" 
d="M271 -91l34 86q-109 19 -177 103q-67 82 -67 199q-2 84 33.5 162.5t95 138t136 94t156.5 32.5q74 0 166 -47l-38 -178q-77 68 -142 68q-100 0 -173 -78q-72 -77 -72 -179q0 -71 44 -118t118 -47q69 0 188 80l-41 -197q-84 -38 -159 -39l-4 -25q33 -3 52.5 -25.5
t19.5 -52.5q0 -48 -40 -82q-41 -35 -99 -35q-48 0 -79 27l14 82q40 -27 69 -27q12 0 23 10t11 24q0 11 -7 17.5t-17 6.5h-45z" />
    <glyph glyph-name="Egrave" unicode="&#xc8;" horiz-adv-x="555" 
d="M20 0l151 712h432l-32 -152h-274l-27 -126h266l-31 -147h-266l-29 -135h274l-32 -152h-432zM556 807l-62 -78l-213 150l73 93z" />
    <glyph glyph-name="Eacute" unicode="&#xc9;" horiz-adv-x="555" 
d="M20 0l151 712h432l-32 -152h-274l-27 -126h266l-31 -147h-266l-29 -135h274l-32 -152h-432zM315 729l-48 80l239 164l54 -96z" />
    <glyph glyph-name="Ecircumflex" unicode="&#xca;" horiz-adv-x="555" 
d="M20 0l151 712h432l-32 -152h-274l-27 -126h266l-31 -147h-266l-29 -135h274l-32 -152h-432zM608 812l-60 -72l-133 87l-152 -87l-52 74l214 152z" />
    <glyph glyph-name="Edieresis" unicode="&#xcb;" horiz-adv-x="555" 
d="M20 0l151 712h432l-32 -152h-274l-27 -126h266l-31 -147h-266l-29 -135h274l-32 -152h-432zM309 779q-27 0 -45.5 18.5t-18.5 45.5q0 32 23.5 55.5t55.5 23.5q28 0 46.5 -19t18.5 -48q0 -15 -6.5 -28.5t-17.5 -24t-25.5 -17t-30.5 -6.5zM501 922q28 0 46.5 -19t18.5 -48
q0 -15 -7 -29t-18 -24.5t-25.5 -16.5t-29.5 -6q-27 0 -45.5 18.5t-18.5 45.5q0 32 23.5 55.5t55.5 23.5z" />
    <glyph glyph-name="Igrave" unicode="&#xcc;" horiz-adv-x="281" 
d="M329 712l-151 -712h-160l151 712h160zM420 807l-62 -78l-213 150l73 93z" />
    <glyph glyph-name="Iacute" unicode="&#xcd;" horiz-adv-x="281" 
d="M329 712l-151 -712h-160l151 712h160zM179 729l-48 80l239 164l54 -96z" />
    <glyph glyph-name="Icircumflex" unicode="&#xce;" horiz-adv-x="281" 
d="M329 712l-151 -712h-160l151 712h160zM478 812l-60 -72l-133 87l-152 -87l-52 74l214 152z" />
    <glyph glyph-name="Idieresis" unicode="&#xcf;" horiz-adv-x="281" 
d="M183 779q-27 0 -45.5 18.5t-18.5 45.5q0 32 23.5 55.5t55.5 23.5q28 0 46.5 -19t18.5 -48q0 -15 -6.5 -28.5t-17.5 -24t-25.5 -17t-30.5 -6.5zM375 922q28 0 46.5 -19t18.5 -48q0 -15 -7 -29t-18 -24.5t-25.5 -16.5t-29.5 -6q-27 0 -45.5 18.5t-18.5 45.5q0 32 23.5 55.5
t55.5 23.5zM329 712l-151 -712h-160l151 712h160z" />
    <glyph glyph-name="Eth" unicode="&#xd0;" horiz-adv-x="693" 
d="M26 328l11 52h61l71 332h177q167 0 251 -86q85 -85 85 -212q0 -73 -29 -145.5t-83 -133.5q-54 -60 -140.5 -97.5t-192.5 -37.5h-219l69 328h-61zM234 156q126 0 206 65t80 184q0 75 -53 113.5t-152 38.5h-18l-39 -177h128l-11 -52h-128l-37 -172h24z" />
    <glyph glyph-name="Ntilde" unicode="&#xd1;" horiz-adv-x="708" 
d="M581 712h159l-151 -712h-89l-200 346q-9 15 -18 33t-17 40h-4q-4 -27 -6.5 -46t-4.5 -30l-72 -343h-158l151 712h103l191 -331q9 -16 16.5 -33.5t14.5 -37.5h5q9 69 12 83zM528 783q-26 0 -60 15q-35 15 -47 15q-20 0 -39 -31l-77 52q54 83 128 83q28 0 61 -16
q34 -15 46 -15q19 0 40 33l77 -52q-56 -84 -129 -84z" />
    <glyph glyph-name="Ograve" unicode="&#xd2;" horiz-adv-x="807" 
d="M481 724q136 0 223 -88q87 -89 87 -222q0 -114 -61 -212q-60 -99 -158 -156t-204 -57q-134 0 -221 87q-86 89 -86 221q0 112 59 212q60 99 157 157t204 58zM385 146q100 0 172 76t72 179q0 36 -11 66.5t-32 52.5t-51 34.5t-67 12.5q-100 0 -173 -78q-72 -77 -72 -179
q0 -36 11.5 -66t32.5 -51.5t51 -34t67 -12.5zM664 807l-62 -78l-213 150l73 93z" />
    <glyph glyph-name="Oacute" unicode="&#xd3;" horiz-adv-x="807" 
d="M481 724q136 0 223 -88q87 -89 87 -222q0 -114 -61 -212q-60 -99 -158 -156t-204 -57q-134 0 -221 87q-86 89 -86 221q0 112 59 212q60 99 157 157t204 58zM385 146q100 0 172 76t72 179q0 36 -11 66.5t-32 52.5t-51 34.5t-67 12.5q-100 0 -173 -78q-72 -77 -72 -179
q0 -36 11.5 -66t32.5 -51.5t51 -34t67 -12.5zM417 729l-48 80l239 164l54 -96z" />
    <glyph glyph-name="Ocircumflex" unicode="&#xd4;" horiz-adv-x="807" 
d="M481 724q136 0 223 -88q87 -89 87 -222q0 -114 -61 -212q-60 -99 -158 -156t-204 -57q-134 0 -221 87q-86 89 -86 221q0 112 59 212q60 99 157 157t204 58zM385 146q100 0 172 76t72 179q0 36 -11 66.5t-32 52.5t-51 34.5t-67 12.5q-100 0 -173 -78q-72 -77 -72 -179
q0 -36 11.5 -66t32.5 -51.5t51 -34t67 -12.5zM712 812l-60 -72l-133 87l-152 -87l-52 74l214 152z" />
    <glyph glyph-name="Otilde" unicode="&#xd5;" horiz-adv-x="807" 
d="M481 724q136 0 223 -88q87 -89 87 -222q0 -114 -61 -212q-60 -99 -158 -156t-204 -57q-134 0 -221 87q-86 89 -86 221q0 112 59 212q60 99 157 157t204 58zM385 146q100 0 172 76t72 179q0 36 -11 66.5t-32 52.5t-51 34.5t-67 12.5q-100 0 -173 -78q-72 -77 -72 -179
q0 -36 11.5 -66t32.5 -51.5t51 -34t67 -12.5zM565 783q-26 0 -60 15q-35 15 -47 15q-20 0 -39 -31l-77 52q54 83 128 83q28 0 61 -16q34 -15 46 -15q19 0 40 33l77 -52q-56 -84 -129 -84z" />
    <glyph glyph-name="Odieresis" unicode="&#xd6;" horiz-adv-x="807" 
d="M481 724q136 0 223 -88q87 -89 87 -222q0 -114 -61 -212q-60 -99 -158 -156t-204 -57q-134 0 -221 87q-86 89 -86 221q0 112 59 212q60 99 157 157t204 58zM385 146q100 0 172 76t72 179q0 36 -11 66.5t-32 52.5t-51 34.5t-67 12.5q-100 0 -173 -78q-72 -77 -72 -179
q0 -36 11.5 -66t32.5 -51.5t51 -34t67 -12.5zM422 779q-27 0 -45.5 18.5t-18.5 45.5q0 32 23.5 55.5t55.5 23.5q28 0 46.5 -19t18.5 -48q0 -15 -6.5 -28.5t-17.5 -24t-25.5 -17t-30.5 -6.5zM614 922q28 0 46.5 -19t18.5 -48q0 -15 -7 -29t-18 -24.5t-25.5 -16.5t-29.5 -6
q-27 0 -45.5 18.5t-18.5 45.5q0 32 23.5 55.5t55.5 23.5z" />
    <glyph glyph-name="multiply" unicode="&#xd7;" 
d="M35 399l103 106l36 -37l115 -115l150 152l105 -106l-150 -150l151 -152l-104 -104l-152 151l-152 -151l-103 104l151 152z" />
    <glyph glyph-name="Oslash" unicode="&#xd8;" horiz-adv-x="807" 
d="M481 724q100 0 180 -53l87 104l40 -34l-87 -103q90 -87 90 -224q0 -114 -61 -212q-60 -99 -158 -156t-204 -57q-99 0 -172 48l-83 -99l-39 34l81 97q-94 88 -94 228q0 112 59 212q60 99 157 157t204 58zM223 310q0 -69 39 -114l293 349q-37 22 -87 22q-100 0 -173 -78
q-72 -77 -72 -179zM385 146q100 0 172 77q73 76 73 178q0 65 -36 110l-291 -346q35 -19 82 -19z" />
    <glyph glyph-name="Ugrave" unicode="&#xd9;" horiz-adv-x="662" 
d="M600 262q-27 -127 -111 -200q-82 -73 -188 -73q-99 0 -166 58t-67 159q0 36 6 62l95 444h159l-95 -443q-5 -25 -5 -38q0 -42 22.5 -63t58.5 -21q22 0 43.5 9t39.5 25.5t31 40t19 52.5l93 438h161zM600 807l-62 -78l-213 150l73 93z" />
    <glyph glyph-name="Uacute" unicode="&#xda;" horiz-adv-x="662" 
d="M600 262q-27 -127 -111 -200q-82 -73 -188 -73q-99 0 -166 58t-67 159q0 36 6 62l95 444h159l-95 -443q-5 -25 -5 -38q0 -42 22.5 -63t58.5 -21q22 0 43.5 9t39.5 25.5t31 40t19 52.5l93 438h161zM361 729l-48 80l239 164l54 -96z" />
    <glyph glyph-name="Ucircumflex" unicode="&#xdb;" horiz-adv-x="662" 
d="M600 262q-27 -127 -111 -200q-82 -73 -188 -73q-99 0 -166 58t-67 159q0 36 6 62l95 444h159l-95 -443q-5 -25 -5 -38q0 -42 22.5 -63t58.5 -21q22 0 43.5 9t39.5 25.5t31 40t19 52.5l93 438h161zM656 812l-60 -72l-133 87l-152 -87l-52 74l214 152z" />
    <glyph glyph-name="Udieresis" unicode="&#xdc;" horiz-adv-x="662" 
d="M600 262q-27 -127 -111 -200q-82 -73 -188 -73q-99 0 -166 58t-67 159q0 36 6 62l95 444h159l-95 -443q-5 -25 -5 -38q0 -42 22.5 -63t58.5 -21q22 0 43.5 9t39.5 25.5t31 40t19 52.5l93 438h161zM366 779q-27 0 -45.5 18.5t-18.5 45.5q0 32 23.5 55.5t55.5 23.5
q28 0 46.5 -19t18.5 -48q0 -15 -6.5 -28.5t-17.5 -24t-25.5 -17t-30.5 -6.5zM558 922q28 0 46.5 -19t18.5 -48q0 -15 -7 -29t-18 -24.5t-25.5 -16.5t-29.5 -6q-27 0 -45.5 18.5t-18.5 45.5q0 32 23.5 55.5t55.5 23.5z" />
    <glyph glyph-name="Yacute" unicode="&#xdd;" horiz-adv-x="637" 
d="M548 712h193l-329 -420l-62 -292h-159l62 292l-152 420h168l67 -182q2 -7 6.5 -24t9.5 -43h7q21 39 44 66zM339 729l-48 80l239 164l54 -96z" />
    <glyph glyph-name="Thorn" unicode="&#xde;" 
d="M169 712h159l-23 -107h40q57 0 101 -14.5t74 -41t45.5 -63.5t15.5 -82q0 -94 -48 -161q-48 -66 -117 -95t-153 -29h-61l-13 -61l-12 -58h-159zM272 449l-37 -174h54q27 0 50.5 8t41.5 22.5t28 34t10 42.5q0 31 -25 49t-67 18h-55z" />
    <glyph glyph-name="germandbls" unicode="&#xdf;" horiz-adv-x="590" 
d="M560 590q0 -49 -22 -97t-55 -81q66 -54 66 -139q0 -125 -81 -204q-82 -80 -215 -80q-17 0 -33 1t-30 3l34 161q21 -8 45 -8q46 0 79 30t33 89q0 66 -96 66h-23l30 148h16q96 0 96 92q0 20 -12.5 34t-35.5 14q-22 0 -44 -21.5t-29 -51.5l-116 -546h-158l118 552
q21 96 89 160q67 63 157 63q82 0 135 -53q52 -52 52 -132z" />
    <glyph glyph-name="agrave" unicode="&#xe0;" horiz-adv-x="640" 
d="M329 550q77 0 142 -59l9 47h156l-114 -538h-136l3 47q-70 -58 -137 -58q-105 0 -163 64t-58 163q0 127 86 231q85 103 212 103zM277 136q27 0 50.5 10t42 28t32.5 42.5t21 53.5l17 69q-12 23 -40 43t-68 20q-59 0 -101 -50q-41 -50 -41 -121q0 -45 22.5 -70t64.5 -25z
M498 633l-62 -78l-213 150l73 93z" />
    <glyph glyph-name="aacute" unicode="&#xe1;" horiz-adv-x="640" 
d="M329 550q77 0 142 -59l9 47h156l-114 -538h-136l3 47q-70 -58 -137 -58q-105 0 -163 64t-58 163q0 127 86 231q85 103 212 103zM277 136q27 0 50.5 10t42 28t32.5 42.5t21 53.5l17 69q-12 23 -40 43t-68 20q-59 0 -101 -50q-41 -50 -41 -121q0 -45 22.5 -70t64.5 -25z
M262 555l-48 80l239 164l54 -96z" />
    <glyph glyph-name="acircumflex" unicode="&#xe2;" horiz-adv-x="640" 
d="M329 550q77 0 142 -59l9 47h156l-114 -538h-136l3 47q-70 -58 -137 -58q-105 0 -163 64t-58 163q0 127 86 231q85 103 212 103zM277 136q27 0 50.5 10t42 28t32.5 42.5t21 53.5l17 69q-12 23 -40 43t-68 20q-59 0 -101 -50q-41 -50 -41 -121q0 -45 22.5 -70t64.5 -25z
M561 638l-60 -72l-133 87l-152 -87l-52 74l214 152z" />
    <glyph glyph-name="atilde" unicode="&#xe3;" horiz-adv-x="640" 
d="M329 550q77 0 142 -59l9 47h156l-114 -538h-136l3 47q-70 -58 -137 -58q-105 0 -163 64t-58 163q0 127 86 231q85 103 212 103zM277 136q27 0 50.5 10t42 28t32.5 42.5t21 53.5l17 69q-12 23 -40 43t-68 20q-59 0 -101 -50q-41 -50 -41 -121q0 -45 22.5 -70t64.5 -25z
M413 609q-26 0 -60 15q-35 15 -47 15q-20 0 -39 -31l-77 52q54 83 128 83q28 0 61 -16q34 -15 46 -15q19 0 40 33l77 -52q-56 -84 -129 -84z" />
    <glyph glyph-name="adieresis" unicode="&#xe4;" horiz-adv-x="640" 
d="M329 550q77 0 142 -59l9 47h156l-114 -538h-136l3 47q-70 -58 -137 -58q-105 0 -163 64t-58 163q0 127 86 231q85 103 212 103zM277 136q27 0 50.5 10t42 28t32.5 42.5t21 53.5l17 69q-12 23 -40 43t-68 20q-59 0 -101 -50q-41 -50 -41 -121q0 -45 22.5 -70t64.5 -25z
M274 605q-27 0 -45.5 18.5t-18.5 45.5q0 32 23.5 55.5t55.5 23.5q28 0 46.5 -19t18.5 -48q0 -15 -6.5 -28.5t-17.5 -24t-25.5 -17t-30.5 -6.5zM466 748q28 0 46.5 -19t18.5 -48q0 -15 -7 -29t-18 -24.5t-25.5 -16.5t-29.5 -6q-27 0 -45.5 18.5t-18.5 45.5q0 32 23.5 55.5
t55.5 23.5z" />
    <glyph glyph-name="aring" unicode="&#xe5;" horiz-adv-x="640" 
d="M329 550q77 0 142 -59l9 47h156l-114 -538h-136l3 47q-70 -58 -137 -58q-105 0 -163 64t-58 163q0 127 86 231q85 103 212 103zM277 136q27 0 50.5 10t42 28t32.5 42.5t21 53.5l17 69q-12 23 -40 43t-68 20q-59 0 -101 -50q-41 -50 -41 -121q0 -45 22.5 -70t64.5 -25z
M263 676q-2 45 32 77q16 16 36.5 24.5t41.5 8.5t41 -8.5t36 -24.5q32 -32 32 -77q0 -46 -33 -77q-34 -32 -78 -32q-23 0 -42.5 8.5t-34 23t-23 34.5t-8.5 43zM337 676q-1 -15 9.5 -25.5t25.5 -10.5q16 0 26 10.5t11 25.5q-1 15 -11.5 25.5t-26.5 10.5q-15 0 -25 -10.5
t-9 -25.5z" />
    <glyph glyph-name="ae" unicode="&#xe6;" horiz-adv-x="878" 
d="M366 335l4 18q0 1 0.5 3.5t0.5 3.5q0 23 -21.5 39.5t-49.5 16.5q-51 0 -84 -10q-17 -5 -38 -12.5t-46 -18.5l28 139q97 36 158 36q104 0 164 -60q79 60 173 60q43 0 79.5 -14t62.5 -42t40.5 -68.5t14.5 -94.5q0 -2 -0.5 -7.5t-0.5 -9.5l-4 -40l-8 -45h-334
q3 -103 91 -103q97 0 175 57l-31 -156q-82 -38 -167 -38q-115 0 -172 73q-89 -73 -199 -73q-87 0 -132.5 38t-45.5 104q0 91 69 147q70 57 191 57h82zM347 229h-85q-43 0 -66 -19.5t-23 -51.5q0 -41 52 -41q48 0 80.5 29.5t39.5 69.5zM710 335q0 42 -19.5 66t-54.5 24
q-36 0 -65.5 -25.5t-44.5 -64.5h184z" />
    <glyph glyph-name="ccedilla" unicode="&#xe7;" horiz-adv-x="476" 
d="M164 -91l34 88q-78 19 -121.5 78.5t-43.5 143.5q0 138 95 235q96 96 221 96q62 0 121 -35l-35 -161q-47 48 -103 48q-54 0 -97 -48q-44 -47 -44 -116q0 -45 24.5 -73t64.5 -28q69 0 137 48l-36 -169q-61 -25 -115 -27l-4 -25q33 -3 52.5 -25.5t19.5 -52.5q0 -48 -40 -82
q-41 -35 -99 -35q-48 0 -79 27l14 82q40 -27 69 -27q12 0 23 10t11 24q0 24 -24 24h-45z" />
    <glyph glyph-name="egrave" unicode="&#xe8;" horiz-adv-x="564" 
d="M395 335q0 42 -19 66t-54 24q-36 0 -65.5 -25t-45.5 -65h184zM426 27q-78 -38 -165 -38q-105 0 -167 60t-62 168q0 144 87 239q88 94 219 94q44 0 80.5 -14.5t62.5 -42t40.5 -68.5t14.5 -95q0 -48 -11 -101h-333q1 -103 89 -103q100 0 176 55zM509 633l-62 -78l-213 150
l73 93z" />
    <glyph glyph-name="eacute" unicode="&#xe9;" horiz-adv-x="564" 
d="M395 335q0 42 -19 66t-54 24q-36 0 -65.5 -25t-45.5 -65h184zM426 27q-78 -38 -165 -38q-105 0 -167 60t-62 168q0 144 87 239q88 94 219 94q44 0 80.5 -14.5t62.5 -42t40.5 -68.5t14.5 -95q0 -48 -11 -101h-333q1 -103 89 -103q100 0 176 55zM276 555l-48 80l239 164
l54 -96z" />
    <glyph glyph-name="ecircumflex" unicode="&#xea;" horiz-adv-x="564" 
d="M395 335q0 42 -19 66t-54 24q-36 0 -65.5 -25t-45.5 -65h184zM426 27q-78 -38 -165 -38q-105 0 -167 60t-62 168q0 144 87 239q88 94 219 94q44 0 80.5 -14.5t62.5 -42t40.5 -68.5t14.5 -95q0 -48 -11 -101h-333q1 -103 89 -103q100 0 176 55zM570 638l-60 -72l-133 87
l-152 -87l-52 74l214 152z" />
    <glyph glyph-name="edieresis" unicode="&#xeb;" horiz-adv-x="564" 
d="M395 335q0 42 -19 66t-54 24q-36 0 -65.5 -25t-45.5 -65h184zM426 27q-78 -38 -165 -38q-105 0 -167 60t-62 168q0 144 87 239q88 94 219 94q44 0 80.5 -14.5t62.5 -42t40.5 -68.5t14.5 -95q0 -48 -11 -101h-333q1 -103 89 -103q100 0 176 55zM279 605q-27 0 -45.5 18.5
t-18.5 45.5q0 32 23.5 55.5t55.5 23.5q28 0 46.5 -19t18.5 -48q0 -15 -6.5 -28.5t-17.5 -24t-25.5 -17t-30.5 -6.5zM471 748q28 0 46.5 -19t18.5 -48q0 -15 -7 -29t-18 -24.5t-25.5 -16.5t-29.5 -6q-27 0 -45.5 18.5t-18.5 45.5q0 32 23.5 55.5t55.5 23.5z" />
    <glyph glyph-name="igrave" unicode="&#xec;" horiz-adv-x="284" 
d="M284 538l-115 -538h-157l115 538h157zM367 633l-62 -78l-213 150l73 93z" />
    <glyph glyph-name="iacute" unicode="&#xed;" horiz-adv-x="284" 
d="M284 538l-115 -538h-157l115 538h157zM133 555l-48 80l239 164l54 -96z" />
    <glyph glyph-name="icircumflex" unicode="&#xee;" horiz-adv-x="284" 
d="M284 538l-115 -538h-157l115 538h157zM430 638l-60 -72l-133 87l-152 -87l-52 74l214 152z" />
    <glyph glyph-name="idieresis" unicode="&#xef;" horiz-adv-x="284" 
d="M135 605q-27 0 -45.5 18.5t-18.5 45.5q0 32 23.5 55.5t55.5 23.5q28 0 46.5 -19t18.5 -48q0 -15 -6.5 -28.5t-17.5 -24t-25.5 -17t-30.5 -6.5zM327 748q28 0 46.5 -19t18.5 -48q0 -15 -7 -29t-18 -24.5t-25.5 -16.5t-29.5 -6q-27 0 -45.5 18.5t-18.5 45.5q0 32 23.5 55.5
t55.5 23.5zM284 538l-115 -538h-157l115 538h157z" />
    <glyph glyph-name="eth" unicode="&#xf0;" horiz-adv-x="610" 
d="M427 756l-68 -57q108 -57 166.5 -139t58.5 -181q0 -32 -6 -65q-28 -143 -123 -235q-95 -90 -213 -90q-95 0 -157 59q-61 60 -61 150q0 124 93 217q94 94 217 94q34 0 56 -5q-51 57 -145 99l-87 -73l-33 40l64 54l-63 16l26 135q79 -18 156 -51l86 72zM268 137q48 0 91 46
q45 48 61 120q-36 58 -108 58q-49 0 -89 -42q-39 -41 -39 -93q0 -38 23.5 -63.5t60.5 -25.5z" />
    <glyph glyph-name="ntilde" unicode="&#xf1;" horiz-adv-x="599" 
d="M122 538h140l-2 -45q64 57 126 57q169 0 169 -160q0 -22 -2 -42.5t-6 -40.5l-64 -307h-155l62 299l3.5 23t1.5 18q0 62 -58 62q-19 0 -44 -12t-40 -24l-15 -12l-74 -354h-156zM433 609q-26 0 -60 15q-35 15 -47 15q-20 0 -39 -31l-77 52q54 83 128 83q28 0 61 -16
q34 -15 46 -15q19 0 40 33l77 -52q-56 -84 -129 -84z" />
    <glyph glyph-name="ograve" unicode="&#xf2;" horiz-adv-x="610" 
d="M345 550q107 0 171 -70q66 -69 66 -172q0 -127 -93 -223t-221 -96q-107 0 -172 68q-64 68 -64 173q0 127 93 223q93 97 220 97zM282 137q53 0 97 47t44 113q0 48 -26 76.5t-65 28.5q-55 0 -98 -48q-44 -49 -44 -114q0 -46 27 -74.5t65 -28.5zM521 633l-62 -78l-213 150
l73 93z" />
    <glyph glyph-name="oacute" unicode="&#xf3;" horiz-adv-x="610" 
d="M345 550q107 0 171 -70q66 -69 66 -172q0 -127 -93 -223t-221 -96q-107 0 -172 68q-64 68 -64 173q0 127 93 223q93 97 220 97zM282 137q53 0 97 47t44 113q0 48 -26 76.5t-65 28.5q-55 0 -98 -48q-44 -49 -44 -114q0 -46 27 -74.5t65 -28.5zM278 555l-48 80l239 164
l54 -96z" />
    <glyph glyph-name="ocircumflex" unicode="&#xf4;" horiz-adv-x="610" 
d="M345 550q107 0 171 -70q66 -69 66 -172q0 -127 -93 -223t-221 -96q-107 0 -172 68q-64 68 -64 173q0 127 93 223q93 97 220 97zM282 137q53 0 97 47t44 113q0 48 -26 76.5t-65 28.5q-55 0 -98 -48q-44 -49 -44 -114q0 -46 27 -74.5t65 -28.5zM576 638l-60 -72l-133 87
l-152 -87l-52 74l214 152z" />
    <glyph glyph-name="otilde" unicode="&#xf5;" horiz-adv-x="610" 
d="M345 550q107 0 171 -70q66 -69 66 -172q0 -127 -93 -223t-221 -96q-107 0 -172 68q-64 68 -64 173q0 127 93 223q93 97 220 97zM282 137q53 0 97 47t44 113q0 48 -26 76.5t-65 28.5q-55 0 -98 -48q-44 -49 -44 -114q0 -46 27 -74.5t65 -28.5zM429 609q-26 0 -60 15
q-35 15 -47 15q-20 0 -39 -31l-77 52q54 83 128 83q28 0 61 -16q34 -15 46 -15q19 0 40 33l77 -52q-56 -84 -129 -84z" />
    <glyph glyph-name="odieresis" unicode="&#xf6;" horiz-adv-x="610" 
d="M345 550q107 0 171 -70q66 -69 66 -172q0 -127 -93 -223t-221 -96q-107 0 -172 68q-64 68 -64 173q0 127 93 223q93 97 220 97zM282 137q53 0 97 47t44 113q0 48 -26 76.5t-65 28.5q-55 0 -98 -48q-44 -49 -44 -114q0 -46 27 -74.5t65 -28.5zM283 605q-27 0 -45.5 18.5
t-18.5 45.5q0 32 23.5 55.5t55.5 23.5q28 0 46.5 -19t18.5 -48q0 -15 -6.5 -28.5t-17.5 -24t-25.5 -17t-30.5 -6.5zM475 748q28 0 46.5 -19t18.5 -48q0 -15 -7 -29t-18 -24.5t-25.5 -16.5t-29.5 -6q-27 0 -45.5 18.5t-18.5 45.5q0 32 23.5 55.5t55.5 23.5z" />
    <glyph glyph-name="divide" unicode="&#xf7;" 
d="M41 182v150h497v-150h-497zM288 -15q-37 0 -62.5 25t-25.5 63q0 19 7 35.5t19 28.5t28 19t34 7t34.5 -7t28.5 -19t19 -28.5t7 -35.5q0 -38 -25.5 -63t-63.5 -25zM288 526q19 0 35.5 -7t28.5 -19t18.5 -28.5t6.5 -34.5q0 -37 -25.5 -62.5t-63.5 -25.5q-37 0 -62.5 25.5
t-25.5 62.5t25.5 63t62.5 26z" />
    <glyph glyph-name="oslash" unicode="&#xf8;" horiz-adv-x="610" 
d="M345 550q73 0 131 -37l60 71l43 -35l-60 -71q63 -69 63 -170q0 -127 -93 -223t-221 -96q-75 0 -131 35l-62 -75l-43 37l61 73q-61 67 -61 171q0 127 93 223q93 97 220 97zM190 240q0 -31 12 -53l172 205q-19 10 -42 10q-55 0 -98 -48q-44 -49 -44 -114zM282 137
q53 0 97 47t44 113q0 28 -11 53l-172 -204q18 -9 42 -9z" />
    <glyph glyph-name="ugrave" unicode="&#xf9;" horiz-adv-x="589" 
d="M591 538l-66 -312q-24 -112 -96 -174.5t-181 -62.5q-94 0 -148 47.5t-54 132.5q0 37 5 60l67 309h156l-65 -300l-3.5 -22t-1.5 -16q0 -63 61 -63q37 0 66.5 25t41.5 80l63 296h155zM515 633l-62 -78l-213 150l73 93z" />
    <glyph glyph-name="uacute" unicode="&#xfa;" horiz-adv-x="589" 
d="M591 538l-66 -312q-24 -112 -96 -174.5t-181 -62.5q-94 0 -148 47.5t-54 132.5q0 37 5 60l67 309h156l-65 -300l-3.5 -22t-1.5 -16q0 -63 61 -63q37 0 66.5 25t41.5 80l63 296h155zM278 555l-48 80l239 164l54 -96z" />
    <glyph glyph-name="ucircumflex" unicode="&#xfb;" horiz-adv-x="589" 
d="M591 538l-66 -312q-24 -112 -96 -174.5t-181 -62.5q-94 0 -148 47.5t-54 132.5q0 37 5 60l67 309h156l-65 -300l-3.5 -22t-1.5 -16q0 -63 61 -63q37 0 66.5 25t41.5 80l63 296h155zM579 638l-60 -72l-133 87l-152 -87l-52 74l214 152z" />
    <glyph glyph-name="udieresis" unicode="&#xfc;" horiz-adv-x="589" 
d="M591 538l-66 -312q-24 -112 -96 -174.5t-181 -62.5q-94 0 -148 47.5t-54 132.5q0 37 5 60l67 309h156l-65 -300l-3.5 -22t-1.5 -16q0 -63 61 -63q37 0 66.5 25t41.5 80l63 296h155zM283 605q-27 0 -45.5 18.5t-18.5 45.5q0 32 23.5 55.5t55.5 23.5q28 0 46.5 -19
t18.5 -48q0 -15 -6.5 -28.5t-17.5 -24t-25.5 -17t-30.5 -6.5zM475 748q28 0 46.5 -19t18.5 -48q0 -15 -7 -29t-18 -24.5t-25.5 -16.5t-29.5 -6q-27 0 -45.5 18.5t-18.5 45.5q0 32 23.5 55.5t55.5 23.5z" />
    <glyph glyph-name="yacute" unicode="&#xfd;" horiz-adv-x="596" 
d="M464 538h182l-509 -754h-177l212 308l-111 446h160l50 -197q4 -18 7.5 -38t6.5 -43h6q19 40 45 81zM276 555l-48 80l239 164l54 -96z" />
    <glyph glyph-name="thorn" unicode="&#xfe;" horiz-adv-x="635" 
d="M611 321q0 -79 -38 -157q-38 -76 -109 -125q-73 -50 -160 -50q-78 0 -139 37l-49 -242h-155l208 980h154l-59 -270q68 56 133 56q102 0 158 -66q56 -65 56 -163zM311 136q60 0 101 51q41 52 41 118q0 45 -23 71t-65 26q-27 0 -51 -10.5t-43 -28.5t-33 -43t-20 -53
l-17 -75q12 -19 41.5 -37.5t68.5 -18.5z" />
    <glyph glyph-name="ydieresis" unicode="&#xff;" horiz-adv-x="596" 
d="M464 538h182l-509 -754h-177l212 308l-111 446h160l50 -197q4 -18 7.5 -38t6.5 -43h6q19 40 45 81zM279 605q-27 0 -45.5 18.5t-18.5 45.5q0 32 23.5 55.5t55.5 23.5q28 0 46.5 -19t18.5 -48q0 -15 -6.5 -28.5t-17.5 -24t-25.5 -17t-30.5 -6.5zM471 748q28 0 46.5 -19
t18.5 -48q0 -15 -7 -29t-18 -24.5t-25.5 -16.5t-29.5 -6q-27 0 -45.5 18.5t-18.5 45.5q0 32 23.5 55.5t55.5 23.5z" />
    <glyph glyph-name="Amacron" unicode="&#x100;" horiz-adv-x="739" 
d="M530 712l158 -712h-169l-27 145h-269l-87 -145h-185l460 712h119zM310 291h155l-15 101q-7 49 -12 113h-9q-17 -37 -32 -65.5t-27 -48.5zM364 902h303l-19 -100h-303z" />
    <glyph glyph-name="amacron" unicode="&#x101;" horiz-adv-x="640" 
d="M329 550q77 0 142 -59l9 47h156l-114 -538h-136l3 47q-70 -58 -137 -58q-105 0 -163 64t-58 163q0 127 86 231q85 103 212 103zM277 136q27 0 50.5 10t42 28t32.5 42.5t21 53.5l17 69q-12 23 -40 43t-68 20q-59 0 -101 -50q-41 -50 -41 -121q0 -45 22.5 -70t64.5 -25z
M222 728h303l-19 -100h-303z" />
    <glyph glyph-name="Abreve" unicode="&#x102;" horiz-adv-x="739" 
d="M530 712l158 -712h-169l-27 145h-269l-87 -145h-185l460 712h119zM310 291h155l-15 101q-7 49 -12 113h-9q-17 -37 -32 -65.5t-27 -48.5zM696 895q-39 -72 -94 -103.5t-110 -31.5q-54 0 -102.5 33t-74.5 105l96 40q17 -48 38.5 -62t50.5 -14q12 0 25.5 2t27.5 9.5
t28.5 23t29.5 42.5z" />
    <glyph glyph-name="abreve" unicode="&#x103;" horiz-adv-x="640" 
d="M329 550q77 0 142 -59l9 47h156l-114 -538h-136l3 47q-70 -58 -137 -58q-105 0 -163 64t-58 163q0 127 86 231q85 103 212 103zM277 136q27 0 50.5 10t42 28t32.5 42.5t21 53.5l17 69q-12 23 -40 43t-68 20q-59 0 -101 -50q-41 -50 -41 -121q0 -45 22.5 -70t64.5 -25z
M560 721q-39 -72 -94 -103.5t-110 -31.5q-54 0 -102.5 33t-74.5 105l96 40q17 -48 38.5 -62t50.5 -14q12 0 25.5 2t27.5 9.5t28.5 23t29.5 42.5z" />
    <glyph glyph-name="Aogonek" unicode="&#x104;" horiz-adv-x="739" 
d="M582 -207q-43 -20 -81 -20q-42 0 -68.5 23.5t-26.5 58.5q0 75 113 146l-27 144h-269l-87 -145h-185l460 712h119l158 -712h-36q-47 -14 -95 -51q-47 -38 -47 -64q0 -11 8 -19t18 -8q17 0 67 33zM310 291h155l-15 101q-7 49 -12 113h-9q-17 -37 -32 -65.5t-27 -48.5z" />
    <glyph glyph-name="aogonek" unicode="&#x105;" horiz-adv-x="640" 
d="M450 -207q-43 -20 -81 -20q-42 0 -68.5 23.5t-26.5 58.5q0 78 112 145l3 47q-70 -58 -137 -58q-105 0 -163 64t-58 163q0 127 86 231q85 103 212 103q77 0 142 -59l9 47h156l-113 -538q-47 -14 -96 -51t-49 -64q0 -11 8 -19t18 -8q17 0 67 33zM277 136q27 0 50.5 10
t42 28t32.5 42.5t21 53.5l17 69q-12 23 -40 43t-68 20q-59 0 -101 -50q-41 -50 -41 -121q0 -45 22.5 -70t64.5 -25z" />
    <glyph glyph-name="Cacute" unicode="&#x106;" horiz-adv-x="613" 
d="M532 28q-89 -39 -163 -39q-135 0 -222 87q-86 89 -86 221q-2 84 33.5 162.5t95 138t136 94t156.5 32.5q74 0 166 -47l-38 -176q-74 66 -142 66q-100 0 -173 -78q-72 -77 -72 -179q0 -71 44 -118t118 -47q69 0 188 80zM391 729l-48 80l239 164l54 -96z" />
    <glyph glyph-name="cacute" unicode="&#x107;" horiz-adv-x="476" 
d="M381 16q-63 -27 -120 -27q-103 0 -166 65q-62 67 -62 165q0 138 95 235q96 96 221 96q62 0 121 -35l-35 -161q-47 48 -103 48q-54 0 -97 -48q-44 -47 -44 -116q0 -45 24.5 -73t64.5 -28q69 0 137 48zM276 555l-48 80l239 164l54 -96z" />
    <glyph glyph-name="Ccircumflex" unicode="&#x108;" horiz-adv-x="613" 
d="M532 28q-89 -39 -163 -39q-135 0 -222 87q-86 89 -86 221q-2 84 33.5 162.5t95 138t136 94t156.5 32.5q74 0 166 -47l-38 -176q-74 66 -142 66q-100 0 -173 -78q-72 -77 -72 -179q0 -71 44 -118t118 -47q69 0 188 80zM689 812l-60 -72l-133 87l-152 -87l-52 74l214 152z
" />
    <glyph glyph-name="ccircumflex" unicode="&#x109;" horiz-adv-x="476" 
d="M381 16q-63 -27 -120 -27q-103 0 -166 65q-62 67 -62 165q0 138 95 235q96 96 221 96q62 0 121 -35l-35 -161q-47 48 -103 48q-54 0 -97 -48q-44 -47 -44 -116q0 -45 24.5 -73t64.5 -28q69 0 137 48zM553 638l-60 -72l-133 87l-152 -87l-52 74l214 152z" />
    <glyph glyph-name="Cdotaccent" unicode="&#x10a;" horiz-adv-x="613" 
d="M532 28q-89 -39 -163 -39q-135 0 -222 87q-86 89 -86 221q-2 84 33.5 162.5t95 138t136 94t156.5 32.5q74 0 166 -47l-38 -176q-74 66 -142 66q-100 0 -173 -78q-72 -77 -72 -179q0 -71 44 -118t118 -47q69 0 188 80zM581 849q-4 -29 -27 -49.5t-52 -20.5
q-28 0 -46.5 18.5t-18.5 45.5q0 16 6.5 30.5t17.5 25t25.5 17t30.5 6.5q28 0 46 -20.5t18 -52.5z" />
    <glyph glyph-name="cdotaccent" unicode="&#x10b;" horiz-adv-x="476" 
d="M381 16q-63 -27 -120 -27q-103 0 -166 65q-62 67 -62 165q0 138 95 235q96 96 221 96q62 0 121 -35l-35 -161q-47 48 -103 48q-54 0 -97 -48q-44 -47 -44 -116q0 -45 24.5 -73t64.5 -28q69 0 137 48zM449 675q-4 -29 -27 -49.5t-52 -20.5q-28 0 -46.5 18.5t-18.5 45.5
q0 16 6.5 30.5t17.5 25t25.5 17t30.5 6.5q28 0 46 -20.5t18 -52.5z" />
    <glyph glyph-name="Ccaron" unicode="&#x10c;" horiz-adv-x="613" 
d="M532 28q-89 -39 -163 -39q-135 0 -222 87q-86 89 -86 221q-2 84 33.5 162.5t95 138t136 94t156.5 32.5q74 0 166 -47l-38 -176q-74 66 -142 66q-100 0 -173 -78q-72 -77 -72 -179q0 -71 44 -118t118 -47q69 0 188 80zM638 967l51 -75l-212 -151l-185 152l60 74l134 -88z
" />
    <glyph glyph-name="ccaron" unicode="&#x10d;" horiz-adv-x="476" 
d="M381 16q-63 -27 -120 -27q-103 0 -166 65q-62 67 -62 165q0 138 95 235q96 96 221 96q62 0 121 -35l-35 -161q-47 48 -103 48q-54 0 -97 -48q-44 -47 -44 -116q0 -45 24.5 -73t64.5 -28q69 0 137 48zM497 793l51 -75l-212 -151l-185 152l60 74l134 -88z" />
    <glyph glyph-name="Dcaron" unicode="&#x10e;" horiz-adv-x="693" 
d="M346 712q167 0 251 -86q85 -85 85 -212q0 -73 -29 -145.5t-83 -133.5q-54 -60 -140.5 -97.5t-192.5 -37.5h-219l151 712h177zM234 156q126 0 206 65t80 184q0 152 -195 152h-28l-87 -401h24zM564 967l51 -75l-212 -151l-185 152l60 74l134 -88z" />
    <glyph glyph-name="dcaron" unicode="&#x10f;" horiz-adv-x="640" 
d="M32 216q0 81 36 156q36 76 106 127t159 51q81 0 143 -39l54 253h155l-163 -764h-138l3 47q-70 -58 -143 -58q-103 0 -158 64q-54 64 -54 163zM333 402q-63 0 -103 -52t-40 -119q0 -45 22.5 -70t65.5 -25q27 0 50.5 10.5t42.5 28.5t33 42.5t20 52.5l20 86
q-12 15 -42.5 30.5t-68.5 15.5zM727 579q56 126 78 218l134 8q-64 -147 -132 -239z" />
    <glyph glyph-name="Dcroat" unicode="&#x110;" horiz-adv-x="693" 
d="M26 328l11 52h61l71 332h177q167 0 251 -86q85 -85 85 -212q0 -73 -29 -145.5t-83 -133.5q-54 -60 -140.5 -97.5t-192.5 -37.5h-219l69 328h-61zM234 156q126 0 206 65t80 184q0 75 -53 113.5t-152 38.5h-18l-39 -177h128l-11 -52h-128l-37 -172h24z" />
    <glyph glyph-name="dcroat" unicode="&#x111;" horiz-adv-x="638" 
d="M31 216q0 81 36 156q37 76 108 127q70 51 159 51q82 0 141 -39l26 125h-137l11 56h138l16 72h155l-16 -72h58l-12 -56h-58l-135 -636h-138l3 47q-70 -58 -143 -58q-103 0 -158 64q-54 64 -54 163zM332 402q-63 0 -103 -52t-40 -119q0 -45 22.5 -70t65.5 -25
q27 0 50.5 10.5t42.5 28.5t33 42.5t20 52.5l18 76q-12 20 -41 38t-68 18z" />
    <glyph glyph-name="Emacron" unicode="&#x112;" horiz-adv-x="555" 
d="M20 0l151 712h432l-32 -152h-274l-27 -126h266l-31 -147h-266l-29 -135h274l-32 -152h-432zM269 902h303l-19 -100h-303z" />
    <glyph glyph-name="emacron" unicode="&#x113;" horiz-adv-x="564" 
d="M395 335q0 42 -19 66t-54 24q-36 0 -65.5 -25t-45.5 -65h184zM426 27q-78 -38 -165 -38q-105 0 -167 60t-62 168q0 144 87 239q88 94 219 94q44 0 80.5 -14.5t62.5 -42t40.5 -68.5t14.5 -95q0 -48 -11 -101h-333q1 -103 89 -103q100 0 176 55zM228 728h303l-19 -100h-303
z" />
    <glyph glyph-name="Ebreve" unicode="&#x114;" horiz-adv-x="555" 
d="M20 0l151 712h432l-32 -152h-274l-27 -126h266l-31 -147h-266l-29 -135h274l-32 -152h-432zM606 895q-39 -72 -94 -103.5t-110 -31.5q-54 0 -102.5 33t-74.5 105l96 40q17 -48 38.5 -62t50.5 -14q12 0 25.5 2t27.5 9.5t28.5 23t29.5 42.5z" />
    <glyph glyph-name="ebreve" unicode="&#x115;" horiz-adv-x="564" 
d="M395 335q0 42 -19 66t-54 24q-36 0 -65.5 -25t-45.5 -65h184zM426 27q-78 -38 -165 -38q-105 0 -167 60t-62 168q0 144 87 239q88 94 219 94q44 0 80.5 -14.5t62.5 -42t40.5 -68.5t14.5 -95q0 -48 -11 -101h-333q1 -103 89 -103q100 0 176 55zM568 721
q-39 -72 -94 -103.5t-110 -31.5q-54 0 -102.5 33t-74.5 105l96 40q17 -48 38.5 -62t50.5 -14q12 0 25.5 2t27.5 9.5t28.5 23t29.5 42.5z" />
    <glyph glyph-name="Edotaccent" unicode="&#x116;" horiz-adv-x="555" 
d="M20 0l151 712h432l-32 -152h-274l-27 -126h266l-31 -147h-266l-29 -135h274l-32 -152h-432zM488 849q-4 -29 -27 -49.5t-52 -20.5q-28 0 -46.5 18.5t-18.5 45.5q0 16 6.5 30.5t17.5 25t25.5 17t30.5 6.5q28 0 46 -20.5t18 -52.5z" />
    <glyph glyph-name="edotaccent" unicode="&#x117;" horiz-adv-x="564" 
d="M395 335q0 42 -19 66t-54 24q-36 0 -65.5 -25t-45.5 -65h184zM426 27q-78 -38 -165 -38q-105 0 -167 60t-62 168q0 144 87 239q88 94 219 94q44 0 80.5 -14.5t62.5 -42t40.5 -68.5t14.5 -95q0 -48 -11 -101h-333q1 -103 89 -103q100 0 176 55zM447 675q-4 -29 -27 -49.5
t-52 -20.5q-28 0 -46.5 18.5t-18.5 45.5q0 16 6.5 30.5t17.5 25t25.5 17t30.5 6.5q28 0 46 -20.5t18 -52.5z" />
    <glyph glyph-name="Eogonek" unicode="&#x118;" horiz-adv-x="555" 
d="M20 0l151 712h432l-32 -152h-274l-27 -126h266l-31 -147h-266l-29 -135h274l-32 -151q-50 -15 -97 -52q-48 -38 -48 -64q0 -11 8 -19t18 -8q17 0 67 33l-21 -98q-43 -20 -81 -20q-42 0 -68.5 23.5t-26.5 58.5q0 76 111 145h-294z" />
    <glyph glyph-name="eogonek" unicode="&#x119;" horiz-adv-x="564" 
d="M264 -207q-43 -20 -81 -20q-42 0 -68.5 23.5t-26.5 58.5q0 73 105 142q-76 17 -118.5 73.5t-42.5 146.5q0 144 87 239q88 94 219 94q44 0 80.5 -14.5t62.5 -42t40.5 -68.5t14.5 -95q0 -48 -11 -101h-333q1 -103 89 -103q100 0 176 55l-31 -154q-23 -11 -50.5 -20
t-60.5 -14q-45 -18 -84 -51t-39 -57q0 -11 8 -19t18 -8q17 0 67 33zM395 335q0 42 -19 66t-54 24q-36 0 -65.5 -25t-45.5 -65h184z" />
    <glyph glyph-name="Ecaron" unicode="&#x11a;" horiz-adv-x="555" 
d="M20 0l151 712h432l-32 -152h-274l-27 -126h266l-31 -147h-266l-29 -135h274l-32 -152h-432zM559 967l51 -75l-212 -151l-185 152l60 74l134 -88z" />
    <glyph glyph-name="ecaron" unicode="&#x11b;" horiz-adv-x="564" 
d="M395 335q0 42 -19 66t-54 24q-36 0 -65.5 -25t-45.5 -65h184zM426 27q-78 -38 -165 -38q-105 0 -167 60t-62 168q0 144 87 239q88 94 219 94q44 0 80.5 -14.5t62.5 -42t40.5 -68.5t14.5 -95q0 -48 -11 -101h-333q1 -103 89 -103q100 0 176 55zM522 793l51 -75l-212 -151
l-185 152l60 74l134 -88z" />
    <glyph glyph-name="Gcircumflex" unicode="&#x11c;" horiz-adv-x="703" 
d="M340 262l32 147h299l-80 -375q-121 -40 -221 -40q-136 0 -222 85q-87 85 -87 217q0 112 59 212q59 99 157 158q97 58 205 58q90 0 188 -54l-34 -163q-86 60 -168 60q-100 0 -173 -78q-73 -76 -73 -178q0 -36 11.5 -65.5t33 -50.5t51.5 -33t68 -12q39 0 69 6l24 106h-139z
M708 812l-60 -72l-133 87l-152 -87l-52 74l214 152z" />
    <glyph glyph-name="gcircumflex" unicode="&#x11d;" horiz-adv-x="625" 
d="M274 156q26 0 49 9t41 25.5t30.5 39t17.5 49.5l11 59q-12 25 -38.5 44.5t-63.5 19.5q-55 0 -93 -47q-36 -47 -36 -114q0 -39 21 -62t61 -23zM621 538l-107 -508q-24 -110 -108 -182q-82 -73 -193 -73q-109 0 -191 50l33 156q85 -59 168 -59q41 0 83 33q42 32 53 79l3 14
q-59 -39 -119 -39q-100 0 -154 62q-54 61 -54 156q0 126 82 224q82 99 211 99q35 0 73.5 -16.5t61.5 -43.5l12 48h146zM575 638l-60 -72l-133 87l-152 -87l-52 74l214 152z" />
    <glyph glyph-name="Gbreve" unicode="&#x11e;" horiz-adv-x="703" 
d="M340 262l32 147h299l-80 -375q-121 -40 -221 -40q-136 0 -222 85q-87 85 -87 217q0 112 59 212q59 99 157 158q97 58 205 58q90 0 188 -54l-34 -163q-86 60 -168 60q-100 0 -173 -78q-73 -76 -73 -178q0 -36 11.5 -65.5t33 -50.5t51.5 -33t68 -12q39 0 69 6l24 106h-139z
M705 895q-39 -72 -94 -103.5t-110 -31.5q-54 0 -102.5 33t-74.5 105l96 40q17 -48 38.5 -62t50.5 -14q12 0 25.5 2t27.5 9.5t28.5 23t29.5 42.5z" />
    <glyph glyph-name="gbreve" unicode="&#x11f;" horiz-adv-x="625" 
d="M274 156q26 0 49 9t41 25.5t30.5 39t17.5 49.5l11 59q-12 25 -38.5 44.5t-63.5 19.5q-55 0 -93 -47q-36 -47 -36 -114q0 -39 21 -62t61 -23zM621 538l-107 -508q-24 -110 -108 -182q-82 -73 -193 -73q-109 0 -191 50l33 156q85 -59 168 -59q41 0 83 33q42 32 53 79l3 14
q-59 -39 -119 -39q-100 0 -154 62q-54 61 -54 156q0 126 82 224q82 99 211 99q35 0 73.5 -16.5t61.5 -43.5l12 48h146zM576 721q-39 -72 -94 -103.5t-110 -31.5q-54 0 -102.5 33t-74.5 105l96 40q17 -48 38.5 -62t50.5 -14q12 0 25.5 2t27.5 9.5t28.5 23t29.5 42.5z" />
    <glyph glyph-name="Gdotaccent" unicode="&#x120;" horiz-adv-x="703" 
d="M340 262l32 147h299l-80 -375q-121 -40 -221 -40q-136 0 -222 85q-87 85 -87 217q0 112 59 212q59 99 157 158q97 58 205 58q90 0 188 -54l-34 -163q-86 60 -168 60q-100 0 -173 -78q-73 -76 -73 -178q0 -36 11.5 -65.5t33 -50.5t51.5 -33t68 -12q39 0 69 6l24 106h-139z
M590 849q-4 -29 -27 -49.5t-52 -20.5q-28 0 -46.5 18.5t-18.5 45.5q0 16 6.5 30.5t17.5 25t25.5 17t30.5 6.5q28 0 46 -20.5t18 -52.5z" />
    <glyph glyph-name="gdotaccent" unicode="&#x121;" horiz-adv-x="625" 
d="M274 156q26 0 49 9t41 25.5t30.5 39t17.5 49.5l11 59q-12 25 -38.5 44.5t-63.5 19.5q-55 0 -93 -47q-36 -47 -36 -114q0 -39 21 -62t61 -23zM621 538l-107 -508q-24 -110 -108 -182q-82 -73 -193 -73q-109 0 -191 50l33 156q85 -59 168 -59q41 0 83 33q42 32 53 79l3 14
q-59 -39 -119 -39q-100 0 -154 62q-54 61 -54 156q0 126 82 224q82 99 211 99q35 0 73.5 -16.5t61.5 -43.5l12 48h146zM457 675q-4 -29 -27 -49.5t-52 -20.5q-28 0 -46.5 18.5t-18.5 45.5q0 16 6.5 30.5t17.5 25t25.5 17t30.5 6.5q28 0 46 -20.5t18 -52.5z" />
    <glyph glyph-name="Gcommaaccent" unicode="&#x122;" horiz-adv-x="703" 
d="M340 262l32 147h299l-80 -375q-121 -40 -221 -40q-136 0 -222 85q-87 85 -87 217q0 112 59 212q59 99 157 158q97 58 205 58q90 0 188 -54l-34 -163q-86 60 -168 60q-100 0 -173 -78q-73 -76 -73 -178q0 -36 11.5 -65.5t33 -50.5t51.5 -33t68 -12q39 0 69 6l24 106h-139z
M201 -255q56 126 78 218l134 8q-64 -147 -132 -239z" />
    <glyph glyph-name="gcommaaccent" unicode="&#x123;" horiz-adv-x="625" 
d="M274 156q26 0 49 9t41 25.5t30.5 39t17.5 49.5l11 59q-12 25 -38.5 44.5t-63.5 19.5q-55 0 -93 -47q-36 -47 -36 -114q0 -39 21 -62t61 -23zM621 538l-107 -508q-24 -110 -108 -182q-82 -73 -193 -73q-109 0 -191 50l33 156q85 -59 168 -59q41 0 83 33q42 32 53 79l3 14
q-59 -39 -119 -39q-100 0 -154 62q-54 61 -54 156q0 126 82 224q82 99 211 99q35 0 73.5 -16.5t61.5 -43.5l12 48h146zM465 801q-56 -126 -78 -218l-134 -8q64 147 132 239z" />
    <glyph glyph-name="Hcircumflex" unicode="&#x124;" horiz-adv-x="672" 
d="M488 451l56 261h162l-151 -712h-162l63 294h-215l-63 -294h-160l151 712h160l-56 -261h215zM662 812l-60 -72l-133 87l-152 -87l-52 74l214 152z" />
    <glyph glyph-name="hcircumflex" unicode="&#x125;" horiz-adv-x="599" 
d="M170 764h156l-56 -267q62 53 116 53q169 0 169 -160q0 -21 -2 -41t-6 -40l-64 -309h-155l62 299l3.5 23t1.5 18q0 62 -58 62q-19 0 -44 -12t-40 -24l-15 -12l-74 -354h-156zM460 812l-60 -72l-133 87l-152 -87l-52 74l214 152z" />
    <glyph glyph-name="Hbar" unicode="&#x126;" horiz-adv-x="672" 
d="M750 602l-10 -51h-68l-117 -551h-162l63 294h-215l-63 -294h-160l117 551h-61l10 51h62l23 110h160l-24 -110h215l24 110h162l-23 -110h67zM488 451l21 100h-215l-21 -100h215z" />
    <glyph glyph-name="hbar" unicode="&#x127;" horiz-adv-x="599" 
d="M170 764h156l-15 -72h108l-11 -56h-109l-29 -139q62 53 116 53q169 0 169 -160q0 -46 -8 -81l-64 -309h-155l62 299l3.5 23t1.5 18q0 62 -58 62q-19 0 -44 -12t-40 -24l-15 -12l-74 -354h-156l135 636h-59l12 56h59z" />
    <glyph glyph-name="Itilde" unicode="&#x128;" horiz-adv-x="281" 
d="M324 783q-26 0 -60 15q-35 15 -47 15q-20 0 -39 -31l-77 52q54 83 128 83q28 0 61 -16q34 -15 46 -15q19 0 40 33l77 -52q-56 -84 -129 -84zM329 712l-151 -712h-160l151 712h160z" />
    <glyph glyph-name="itilde" unicode="&#x129;" horiz-adv-x="284" 
d="M278 609q-26 0 -60 15q-35 15 -47 15q-20 0 -39 -31l-77 52q54 83 128 83q28 0 61 -16q34 -15 46 -15q19 0 40 33l77 -52q-56 -84 -129 -84zM284 538l-115 -538h-157l115 538h157z" />
    <glyph glyph-name="Imacron" unicode="&#x12a;" horiz-adv-x="281" 
d="M329 712l-151 -712h-160l151 712h160zM136 902h303l-19 -100h-303z" />
    <glyph glyph-name="imacron" unicode="&#x12b;" horiz-adv-x="284" 
d="M284 538l-115 -538h-157l115 538h157zM88 728h303l-19 -100h-303z" />
    <glyph glyph-name="Ibreve" unicode="&#x12c;" horiz-adv-x="281" 
d="M329 712l-151 -712h-160l151 712h160zM469 895q-39 -72 -94 -103.5t-110 -31.5q-54 0 -102.5 33t-74.5 105l96 40q17 -48 38.5 -62t50.5 -14q12 0 25.5 2t27.5 9.5t28.5 23t29.5 42.5z" />
    <glyph glyph-name="ibreve" unicode="&#x12d;" horiz-adv-x="284" 
d="M284 538l-115 -538h-157l115 538h157zM421 721q-39 -72 -94 -103.5t-110 -31.5q-54 0 -102.5 33t-74.5 105l96 40q17 -48 38.5 -62t50.5 -14q12 0 25.5 2t27.5 9.5t28.5 23t29.5 42.5z" />
    <glyph glyph-name="Iogonek" unicode="&#x12e;" horiz-adv-x="281" 
d="M81 -207q-43 -20 -81 -20q-42 0 -68.5 23.5t-26.5 58.5q0 75 113 146l151 711h160l-151 -712h-27q-47 -14 -95 -51q-47 -38 -47 -64q0 -11 8 -19t18 -8q17 0 67 33z" />
    <glyph glyph-name="iogonek" unicode="&#x12f;" horiz-adv-x="282" 
d="M73 -207q-43 -20 -81 -20q-42 0 -68.5 23.5t-26.5 58.5q0 75 113 146l113 537h156l-114 -538h-22q-47 -14 -95 -51q-47 -38 -47 -64q0 -11 8 -19t18 -8q17 0 67 33zM315 661q0 -39 -30 -70q-30 -30 -71 -30q-35 0 -58 24t-23 58q0 40 31 68q32 29 69 29q35 0 58.5 -22.5
t23.5 -56.5z" />
    <glyph glyph-name="Idotaccent" unicode="&#x130;" horiz-adv-x="281" 
d="M329 712l-151 -712h-160l151 712h160zM353 849q-4 -29 -27 -49.5t-52 -20.5q-28 0 -46.5 18.5t-18.5 45.5q0 16 6.5 30.5t17.5 25t25.5 17t30.5 6.5q28 0 46 -20.5t18 -52.5z" />
    <glyph glyph-name="dotlessi" unicode="&#x131;" horiz-adv-x="284" 
d="M281 538l-115 -538h-157l115 538h157z" />
    <glyph glyph-name="IJ" unicode="&#x132;" horiz-adv-x="739" 
d="M609 712h161l-101 -471q-27 -124 -100 -188t-174 -64q-54 0 -97 15l35 166q32 -19 65 -19q39 0 71 23t42 74zM329 712l-151 -712h-160l151 712h160z" />
    <glyph glyph-name="ij" unicode="&#x133;" horiz-adv-x="570" 
d="M156 -68q36 -14 67 -14q25 0 44.5 20.5t25.5 47.5l117 552h156l-116 -546q-20 -94 -84 -155q-65 -62 -164 -62q-35 0 -77 11zM604 667q0 -39 -30 -70q-30 -30 -71 -30q-35 0 -58 24t-23 58q0 40 31 68q32 29 69 29q35 0 58.5 -22.5t23.5 -56.5zM316 667q0 -39 -30 -70
q-30 -30 -71 -30q-35 0 -58 24t-23 58q0 40 31 68q32 29 69 29q35 0 58.5 -22.5t23.5 -56.5zM165 0h-155l113 538h156z" />
    <glyph glyph-name="Jcircumflex" unicode="&#x134;" horiz-adv-x="423" 
d="M305 712h161l-101 -471q-27 -124 -100 -188t-174 -64q-54 0 -97 15l35 166q32 -19 65 -19q39 0 71 23t42 74zM612 812l-60 -72l-133 87l-152 -87l-52 74l214 152z" />
    <glyph glyph-name="jcircumflex" unicode="&#x135;" horiz-adv-x="282" 
d="M-132 -68q36 -14 67 -14q25 0 44.5 20.5t25.5 47.5l116 552h156l-115 -546q-20 -95 -83 -155q-65 -62 -165 -62q-35 0 -77 11zM421 638l-60 -72l-133 87l-152 -87l-52 74l214 152z" />
    <glyph glyph-name="Kcommaaccent" unicode="&#x136;" horiz-adv-x="643" 
d="M752 712l-352 -331l234 -381h-187l-165 274l-58 -52l-47 -222h-157l151 712h157l-35 -166q-9 -42 -30 -104h6q78 87 92 101l164 169h227zM120 -255q56 126 78 218l134 8q-64 -147 -132 -239z" />
    <glyph glyph-name="kcommaaccent" unicode="&#x137;" horiz-adv-x="568" 
d="M344 283l171 -283h-178l-105 186l-36 -30l-32 -156h-155l164 764h153l-66 -310l-10 -43.5t-12 -43.5h6l54 58l122 113h205zM52 -255q56 126 78 218l134 8q-64 -147 -132 -239z" />
    <glyph glyph-name="kgreenlandic" unicode="&#x138;" horiz-adv-x="568" 
d="M124 538h155l-13 -60q-3 -11 -6.5 -26.5t-7.5 -31l-7.5 -29t-4.5 -20.5h4l75.5 74l99.5 93h206l-281 -255l172 -283h-179l-106 185l-34 -30l-33 -155h-154z" />
    <glyph glyph-name="Lacute" unicode="&#x139;" horiz-adv-x="462" 
d="M329 712l-118 -556h219l-31 -156h-381l151 712h160zM259 729l-48 80l239 164l54 -96z" />
    <glyph glyph-name="lacute" unicode="&#x13a;" horiz-adv-x="282" 
d="M8 0l151 712h156l-151 -712h-156zM164 729l-48 80l239 164l54 -96z" />
    <glyph glyph-name="Lcommaaccent" unicode="&#x13b;" horiz-adv-x="462" 
d="M329 712l-118 -556h219l-31 -156h-381l151 712h160zM49 -255q56 126 78 218l134 8q-64 -147 -132 -239z" />
    <glyph glyph-name="lcommaaccent" unicode="&#x13c;" horiz-adv-x="282" 
d="M8 0l162 764h156l-162 -764h-156zM-67 -255q56 126 78 218l134 8q-64 -147 -132 -239z" />
    <glyph glyph-name="Lcaron" unicode="&#x13d;" horiz-adv-x="462" 
d="M329 712l-118 -556h219l-31 -156h-381l151 712h160zM347 544q56 126 78 218l134 8q-64 -147 -132 -239z" />
    <glyph glyph-name="lcaron" unicode="&#x13e;" horiz-adv-x="282" 
d="M8 0l162 764h156l-162 -764h-156zM369 579q56 126 78 218l134 8q-64 -147 -132 -239z" />
    <glyph glyph-name="Ldot" unicode="&#x13f;" horiz-adv-x="462" 
d="M329 712l-118 -556h219l-31 -156h-381l151 712h160zM374 366q36 0 58.5 -23.5t22.5 -59.5q0 -39 -30 -67q-29 -28 -68 -28q-34 0 -57.5 23.5t-23.5 57.5q0 39 30 68q31 29 68 29z" />
    <glyph glyph-name="ldot" unicode="&#x140;" horiz-adv-x="467" 
d="M8 0l162 764h156l-162 -764h-156zM378 366q36 0 58.5 -23.5t22.5 -59.5q0 -39 -30 -67q-29 -28 -68 -28q-34 0 -57.5 23.5t-23.5 57.5q0 39 30 68q31 29 68 29z" />
    <glyph glyph-name="Lslash" unicode="&#x141;" horiz-adv-x="462" 
d="M329 712l-55 -255l67 47l25 -39l-106 -75l-49 -234h219l-31 -156h-381l54 256l-62 -44l-25 39l101 72l83 389h160z" />
    <glyph glyph-name="lslash" unicode="&#x142;" horiz-adv-x="283" 
d="M-1 190l-25 39l97 69l99 466h157l-71 -334l65 47l25 -39l-104 -74l-77 -364h-157l49 231z" />
    <glyph glyph-name="Nacute" unicode="&#x143;" horiz-adv-x="708" 
d="M581 712h159l-151 -712h-89l-200 346q-9 15 -18 33t-17 40h-4q-4 -27 -6.5 -46t-4.5 -30l-72 -343h-158l151 712h103l191 -331q9 -16 16.5 -33.5t14.5 -37.5h5q9 69 12 83zM388 729l-48 80l239 164l54 -96z" />
    <glyph glyph-name="nacute" unicode="&#x144;" horiz-adv-x="599" 
d="M122 538h140l-2 -45q64 57 126 57q169 0 169 -160q0 -22 -2 -42.5t-6 -40.5l-64 -307h-155l62 299l3.5 23t1.5 18q0 62 -58 62q-19 0 -44 -12t-40 -24l-15 -12l-74 -354h-156zM286 555l-48 80l239 164l54 -96z" />
    <glyph glyph-name="Ncommaaccent" unicode="&#x145;" horiz-adv-x="708" 
d="M581 712h159l-151 -712h-89l-200 346q-9 15 -18 33t-17 40h-4q-4 -27 -6.5 -46t-4.5 -30l-72 -343h-158l151 712h103l191 -331q9 -16 16.5 -33.5t14.5 -37.5h5q9 69 12 83zM170 -255q56 126 78 218l134 8q-64 -147 -132 -239z" />
    <glyph glyph-name="ncommaaccent" unicode="&#x146;" horiz-adv-x="599" 
d="M122 538h140l-2 -45q64 57 126 57q169 0 169 -160q0 -22 -2 -42.5t-6 -40.5l-64 -307h-155l62 299l3.5 23t1.5 18q0 62 -58 62q-19 0 -44 -12t-40 -24l-15 -12l-74 -354h-156zM80 -255q56 126 78 218l134 8q-64 -147 -132 -239z" />
    <glyph glyph-name="Ncaron" unicode="&#x147;" horiz-adv-x="708" 
d="M581 712h159l-151 -712h-89l-200 346q-9 15 -18 33t-17 40h-4q-4 -27 -6.5 -46t-4.5 -30l-72 -343h-158l151 712h103l191 -331q9 -16 16.5 -33.5t14.5 -37.5h5q9 69 12 83zM626 967l51 -75l-212 -151l-185 152l60 74l134 -88z" />
    <glyph glyph-name="ncaron" unicode="&#x148;" horiz-adv-x="599" 
d="M122 538h140l-2 -45q64 57 126 57q169 0 169 -160q0 -22 -2 -42.5t-6 -40.5l-64 -307h-155l62 299l3.5 23t1.5 18q0 62 -58 62q-19 0 -44 -12t-40 -24l-15 -12l-74 -354h-156zM530 793l51 -75l-212 -151l-185 152l60 74l134 -88z" />
    <glyph glyph-name="napostrophe" unicode="&#x149;" horiz-adv-x="831" 
d="M354 538h140l-2 -45q64 57 126 57q169 0 169 -160q0 -22 -2 -42.5t-6 -40.5l-64 -307h-155l62 299l3.5 23t1.5 18q0 62 -58 62q-19 0 -44 -12t-40 -24l-15 -12l-74 -354h-156zM84 467q35 82 62 155.5t45 140.5l170 12q-76 -183 -178 -324z" />
    <glyph glyph-name="Eng" unicode="&#x14a;" horiz-adv-x="709" 
d="M305 -65q39 -15 66 -15q20 0 35 16.5t22 39.5l23 109l-151 261q-10 13 -33 73h-4q-2 -22 -5.5 -40.5t-7.5 -35.5l-72 -343h-158l151 712h103l191 -331q11 -25 18 -42.5t11 -28.5h5l6 35l8 48l68 319h159l-155 -733q-19 -88 -79 -146q-58 -58 -153 -58q-33 0 -79 12z" />
    <glyph glyph-name="eng" unicode="&#x14b;" horiz-adv-x="598" 
d="M122 538h140l-3 -45q64 57 126 57q169 0 169 -159q0 -19 -2 -39.5t-6 -43.5l-67 -316q-19 -93 -83 -155t-163 -62q-34 0 -77 12l30 145q33 -13 63 -13q28 0 48.5 19.5t25.5 47.5l67 313l3.5 23t1.5 18q0 32 -16 47.5t-43 15.5q-19 0 -44 -12t-40 -24l-15 -12l-74 -354
h-155z" />
    <glyph glyph-name="Omacron" unicode="&#x14c;" horiz-adv-x="807" 
d="M481 724q136 0 223 -88q87 -89 87 -222q0 -114 -61 -212q-60 -99 -158 -156t-204 -57q-134 0 -221 87q-86 89 -86 221q0 112 59 212q60 99 157 157t204 58zM385 146q100 0 172 76t72 179q0 36 -11 66.5t-32 52.5t-51 34.5t-67 12.5q-100 0 -173 -78q-72 -77 -72 -179
q0 -36 11.5 -66t32.5 -51.5t51 -34t67 -12.5zM380 902h303l-19 -100h-303z" />
    <glyph glyph-name="omacron" unicode="&#x14d;" horiz-adv-x="610" 
d="M345 550q107 0 171 -70q66 -69 66 -172q0 -127 -93 -223t-221 -96q-107 0 -172 68q-64 68 -64 173q0 127 93 223q93 97 220 97zM282 137q53 0 97 47t44 113q0 48 -26 76.5t-65 28.5q-55 0 -98 -48q-44 -49 -44 -114q0 -46 27 -74.5t65 -28.5zM241 728h303l-19 -100h-303z
" />
    <glyph glyph-name="Obreve" unicode="&#x14e;" horiz-adv-x="807" 
d="M481 724q136 0 223 -88q87 -89 87 -222q0 -114 -61 -212q-60 -99 -158 -156t-204 -57q-134 0 -221 87q-86 89 -86 221q0 112 59 212q60 99 157 157t204 58zM385 146q100 0 172 76t72 179q0 36 -11 66.5t-32 52.5t-51 34.5t-67 12.5q-100 0 -173 -78q-72 -77 -72 -179
q0 -36 11.5 -66t32.5 -51.5t51 -34t67 -12.5zM715 895q-39 -72 -94 -103.5t-110 -31.5q-54 0 -102.5 33t-74.5 105l96 40q17 -48 38.5 -62t50.5 -14q12 0 25.5 2t27.5 9.5t28.5 23t29.5 42.5z" />
    <glyph glyph-name="obreve" unicode="&#x14f;" horiz-adv-x="610" 
d="M345 550q107 0 171 -70q66 -69 66 -172q0 -127 -93 -223t-221 -96q-107 0 -172 68q-64 68 -64 173q0 127 93 223q93 97 220 97zM282 137q53 0 97 47t44 113q0 48 -26 76.5t-65 28.5q-55 0 -98 -48q-44 -49 -44 -114q0 -46 27 -74.5t65 -28.5zM574 721q-39 -72 -94 -103.5
t-110 -31.5q-54 0 -102.5 33t-74.5 105l96 40q17 -48 38.5 -62t50.5 -14q12 0 25.5 2t27.5 9.5t28.5 23t29.5 42.5z" />
    <glyph glyph-name="Ohungarumlaut" unicode="&#x150;" horiz-adv-x="807" 
d="M481 724q136 0 223 -88q87 -89 87 -222q0 -114 -61 -212q-60 -99 -158 -156t-204 -57q-134 0 -221 87q-86 89 -86 221q0 112 59 212q60 99 157 157t204 58zM385 146q100 0 172 76t72 179q0 36 -11 66.5t-32 52.5t-51 34.5t-67 12.5q-100 0 -173 -78q-72 -77 -72 -179
q0 -36 11.5 -66t32.5 -51.5t51 -34t67 -12.5zM355 806l161 157l70 -80l-174 -143zM529 806l161 157l71 -80l-175 -143z" />
    <glyph glyph-name="ohungarumlaut" unicode="&#x151;" horiz-adv-x="610" 
d="M345 550q107 0 171 -70q66 -69 66 -172q0 -127 -93 -223t-221 -96q-107 0 -172 68q-64 68 -64 173q0 127 93 223q93 97 220 97zM282 137q53 0 97 47t44 113q0 48 -26 76.5t-65 28.5q-55 0 -98 -48q-44 -49 -44 -114q0 -46 27 -74.5t65 -28.5zM213 632l161 157l70 -80
l-174 -143zM387 632l161 157l71 -80l-175 -143z" />
    <glyph glyph-name="OE" unicode="&#x152;" horiz-adv-x="964" 
d="M854 0h-394q-49 -11 -90 -11q-134 0 -221 87q-86 89 -86 221q0 112 59 212q60 99 157 157t204 58q49 0 91 -12h431l-32 -152h-274l-27 -126h266l-31 -147h-266l-29 -135h274zM387 146q33 0 68 11l84 397q-30 13 -69 13q-100 0 -173 -78q-72 -77 -72 -179q0 -36 11.5 -66
t32.5 -51.5t51 -34t67 -12.5z" />
    <glyph glyph-name="oe" unicode="&#x153;" horiz-adv-x="954" 
d="M921 330q0 -46 -12 -101h-333q1 -103 90 -103q97 0 175 57l-31 -156q-82 -38 -165 -38q-118 0 -179 78q-84 -78 -196 -78q-107 0 -173 69q-65 70 -65 172q0 127 93 223q94 97 221 97q110 0 176 -79q82 79 201 79q43 0 79.5 -14.5t63 -42t41 -68.5t14.5 -95zM284 137
q53 0 97 47q43 47 43 114q0 48 -26 76.5t-65 28.5q-55 0 -98 -48q-44 -49 -44 -114q0 -48 27 -76t66 -28zM780 335q0 42 -19.5 66t-54.5 24q-36 0 -65 -25t-45 -65h184z" />
    <glyph glyph-name="Racute" unicode="&#x154;" horiz-adv-x="614" 
d="M570 0h-176l-126 257h-36l-54 -257h-160l151 712h201q55 0 98 -13.5t72 -38.5t44.5 -59t15.5 -76q0 -84 -49 -149q-47 -65 -126 -97zM296 564l-34 -159h56q25 0 47.5 7.5t38.5 20.5t25.5 31t9.5 39q0 28 -22.5 44.5t-64.5 16.5h-56zM303 729l-48 80l239 164l54 -96z" />
    <glyph glyph-name="racute" unicode="&#x155;" horiz-adv-x="390" 
d="M437 545l-33 -157q-15 3 -33 3q-72 0 -105 -33t-48 -102l-55 -256h-155l115 538h141l-5 -49q24 27 65 41q43 15 79 15h34zM205 555l-48 80l239 164l54 -96z" />
    <glyph glyph-name="Rcommaaccent" unicode="&#x156;" horiz-adv-x="614" 
d="M570 0h-176l-126 257h-36l-54 -257h-160l151 712h201q55 0 98 -13.5t72 -38.5t44.5 -59t15.5 -76q0 -84 -49 -149q-47 -65 -126 -97zM296 564l-34 -159h56q25 0 47.5 7.5t38.5 20.5t25.5 31t9.5 39q0 28 -22.5 44.5t-64.5 16.5h-56zM120 -255q56 126 78 218l134 8
q-64 -147 -132 -239z" />
    <glyph glyph-name="rcommaaccent" unicode="&#x157;" horiz-adv-x="390" 
d="M437 545l-33 -157q-15 3 -33 3q-72 0 -105 -33t-48 -102l-55 -256h-155l115 538h141l-5 -49q24 27 65 41q43 15 79 15h34zM-45 -255q56 126 78 218l134 8q-64 -147 -132 -239z" />
    <glyph glyph-name="Rcaron" unicode="&#x158;" horiz-adv-x="614" 
d="M570 0h-176l-126 257h-36l-54 -257h-160l151 712h201q55 0 98 -13.5t72 -38.5t44.5 -59t15.5 -76q0 -84 -49 -149q-47 -65 -126 -97zM296 564l-34 -159h56q25 0 47.5 7.5t38.5 20.5t25.5 31t9.5 39q0 28 -22.5 44.5t-64.5 16.5h-56zM529 967l51 -75l-212 -151l-185 152
l60 74l134 -88z" />
    <glyph glyph-name="rcaron" unicode="&#x159;" horiz-adv-x="390" 
d="M437 545l-33 -157q-15 3 -33 3q-72 0 -105 -33t-48 -102l-55 -256h-155l115 538h141l-5 -49q24 27 65 41q43 15 79 15h34zM455 793l51 -75l-212 -151l-185 152l60 74l134 -88z" />
    <glyph glyph-name="Sacute" unicode="&#x15a;" horiz-adv-x="555" 
d="M506 244q0 -111 -78 -183t-191 -72q-116 0 -197 81l34 166q17 -19 39.5 -35t48.5 -30q54 -27 101 -27q35 0 58.5 17.5t23.5 49.5q0 20 -18 36t-45 32l-58.5 34t-58.5 41.5t-45 55.5t-18 76q0 108 73 172q73 66 175 66q119 0 189 -70l-34 -161q-80 76 -180 76
q-24 0 -42.5 -14.5t-18.5 -40.5q0 -18 25 -37t60 -39q26 -13 54 -31t51 -41.5t37.5 -54t14.5 -67.5zM283 729l-48 80l239 164l54 -96z" />
    <glyph glyph-name="sacute" unicode="&#x15b;" horiz-adv-x="442" 
d="M381 179q0 -83 -61 -137q-62 -53 -143 -53q-84 0 -158 50l32 155q73 -68 129 -68q18 0 30.5 9t12.5 22q0 7 -6.5 16.5t-17.5 19t-25 20t-29 20.5t-29 24t-25 31t-17.5 36t-6.5 39q0 79 61 133t145 54q67 0 140 -46l-33 -149q-64 58 -115 58q-15 0 -27.5 -9t-12.5 -22
q0 -11 11.5 -22t29 -24l37.5 -28.5t37.5 -34.5t29 -42.5t11.5 -51.5zM200 555l-48 80l239 164l54 -96z" />
    <glyph glyph-name="Scircumflex" unicode="&#x15c;" horiz-adv-x="555" 
d="M506 244q0 -111 -78 -183t-191 -72q-116 0 -197 81l34 166q17 -19 39.5 -35t48.5 -30q54 -27 101 -27q35 0 58.5 17.5t23.5 49.5q0 20 -18 36t-45 32l-58.5 34t-58.5 41.5t-45 55.5t-18 76q0 108 73 172q73 66 175 66q119 0 189 -70l-34 -161q-80 76 -180 76
q-24 0 -42.5 -14.5t-18.5 -40.5q0 -18 25 -37t60 -39q26 -13 54 -31t51 -41.5t37.5 -54t14.5 -67.5zM593 812l-60 -72l-133 87l-152 -87l-52 74l214 152z" />
    <glyph glyph-name="scircumflex" unicode="&#x15d;" horiz-adv-x="442" 
d="M381 179q0 -83 -61 -137q-62 -53 -143 -53q-84 0 -158 50l32 155q73 -68 129 -68q18 0 30.5 9t12.5 22q0 7 -6.5 16.5t-17.5 19t-25 20t-29 20.5t-29 24t-25 31t-17.5 36t-6.5 39q0 79 61 133t145 54q67 0 140 -46l-33 -149q-64 58 -115 58q-15 0 -27.5 -9t-12.5 -22
q0 -11 11.5 -22t29 -24l37.5 -28.5t37.5 -34.5t29 -42.5t11.5 -51.5zM503 638l-60 -72l-133 87l-152 -87l-52 74l214 152z" />
    <glyph glyph-name="Scedilla" unicode="&#x15e;" horiz-adv-x="555" 
d="M145 -91l34 86q-82 16 -139 75l34 166q17 -19 39.5 -35t48.5 -30q54 -27 101 -27q35 0 58.5 17.5t23.5 49.5q0 20 -18 36t-45 32l-58.5 34t-58.5 41.5t-45 55.5t-18 76q0 108 73 172q73 66 175 66q119 0 189 -70l-34 -161q-80 76 -180 76q-24 0 -42.5 -14.5t-18.5 -40.5
q0 -18 25 -37t60 -39q26 -13 54 -31t51 -41.5t37.5 -54t14.5 -67.5q0 -108 -75 -180q-75 -71 -184 -75l-4 -25q33 -3 52.5 -25.5t19.5 -52.5q0 -48 -40 -82q-41 -35 -99 -35q-48 0 -79 27l14 82q40 -27 69 -27q12 0 23 10t11 24q0 11 -7 17.5t-17 6.5h-45z" />
    <glyph glyph-name="scedilla" unicode="&#x15f;" horiz-adv-x="442" 
d="M86 -91l34 87q-51 10 -101 43l32 155q73 -68 129 -68q18 0 30.5 9t12.5 22q0 7 -6.5 16.5t-17.5 19t-25 20t-29 20.5t-29 24t-25 31t-17.5 36t-6.5 39q0 79 61 133t145 54q67 0 140 -46l-33 -149q-64 58 -115 58q-15 0 -27.5 -9t-12.5 -22q0 -11 11.5 -22t29 -24
l37.5 -28.5t37.5 -34.5t29 -42.5t11.5 -51.5q0 -81 -57 -133q-57 -53 -136 -57l-4 -25q33 -3 52.5 -25.5t19.5 -52.5q0 -48 -40 -82q-41 -35 -99 -35q-48 0 -79 27l14 82q40 -27 69 -27q12 0 23 10t11 24q0 24 -24 24h-45z" />
    <glyph glyph-name="Scaron" unicode="&#x160;" horiz-adv-x="555" 
d="M506 244q0 -111 -78 -183t-191 -72q-116 0 -197 81l34 166q17 -19 39.5 -35t48.5 -30q54 -27 101 -27q35 0 58.5 17.5t23.5 49.5q0 20 -18 36t-45 32l-58.5 34t-58.5 41.5t-45 55.5t-18 76q0 108 73 172q73 66 175 66q119 0 189 -70l-34 -161q-80 76 -180 76
q-24 0 -42.5 -14.5t-18.5 -40.5q0 -18 25 -37t60 -39q26 -13 54 -31t51 -41.5t37.5 -54t14.5 -67.5zM537 967l51 -75l-212 -151l-185 152l60 74l134 -88z" />
    <glyph glyph-name="scaron" unicode="&#x161;" horiz-adv-x="442" 
d="M381 179q0 -83 -61 -137q-62 -53 -143 -53q-84 0 -158 50l32 155q73 -68 129 -68q18 0 30.5 9t12.5 22q0 7 -6.5 16.5t-17.5 19t-25 20t-29 20.5t-29 24t-25 31t-17.5 36t-6.5 39q0 79 61 133t145 54q67 0 140 -46l-33 -149q-64 58 -115 58q-15 0 -27.5 -9t-12.5 -22
q0 -11 11.5 -22t29 -24l37.5 -28.5t37.5 -34.5t29 -42.5t11.5 -51.5zM452 793l51 -75l-212 -151l-185 152l60 74l134 -88z" />
    <glyph glyph-name="Tcommaaccent" unicode="&#x162;" horiz-adv-x="496" 
d="M400 556l-118 -556h-161l117 556h-157l33 156h476l-33 -156h-157zM74 -255q56 126 78 218l134 8q-64 -147 -132 -239z" />
    <glyph glyph-name="tcommaaccent" unicode="&#x163;" horiz-adv-x="382" 
d="M307 1q-44 -11 -77 -11q-85 0 -126 43.5t-41 115.5q0 36 7 63l42 194h-65l28 132h65l20 90l169 65l-34 -155h127l-28 -132h-127l-45 -208q-1 -5 -1 -15q0 -48 51 -48q24 0 66 13zM36 -255q56 126 78 218l134 8q-64 -147 -132 -239z" />
    <glyph glyph-name="Tcaron" unicode="&#x164;" horiz-adv-x="496" 
d="M400 556l-118 -556h-161l117 556h-157l33 156h476l-33 -156h-157zM530 967l51 -75l-212 -151l-185 152l60 74l134 -88z" />
    <glyph glyph-name="tcaron" unicode="&#x165;" horiz-adv-x="382" 
d="M307 1q-44 -11 -77 -11q-85 0 -126 43.5t-41 115.5q0 36 7 63l42 194h-65l28 132h65l20 90l169 65l-34 -155h127l-28 -132h-127l-45 -208q-1 -5 -1 -15q0 -48 51 -48q24 0 66 13zM388 579q56 126 78 218l134 8q-64 -147 -132 -239z" />
    <glyph glyph-name="Tbar" unicode="&#x166;" horiz-adv-x="496" 
d="M400 556l-37 -174h154l-11 -52h-154l-70 -330h-161l69 330h-149l11 52h149l37 174h-157l33 156h476l-33 -156h-157z" />
    <glyph glyph-name="tbar" unicode="&#x167;" horiz-adv-x="382" 
d="M359 239h-127l-9 -42q-1 -5 -1 -16q0 -48 50 -48q25 0 67 13l-31 -145q-39 -11 -78 -11q-85 0 -125.5 42.5t-40.5 114.5q0 36 7 63l7 29h-66l12 56h66l22 113h-65l29 130h64l21 90l169 65l-34 -155h127l-29 -130h-127l-10.5 -56t-12.5 -57h127z" />
    <glyph glyph-name="Utilde" unicode="&#x168;" horiz-adv-x="662" 
d="M600 262q-27 -127 -111 -200q-82 -73 -188 -73q-99 0 -166 58t-67 159q0 36 6 62l95 444h159l-95 -443q-5 -25 -5 -38q0 -42 22.5 -63t58.5 -21q22 0 43.5 9t39.5 25.5t31 40t19 52.5l93 438h161zM505 783q-26 0 -60 15q-35 15 -47 15q-20 0 -39 -31l-77 52q54 83 128 83
q28 0 61 -16q34 -15 46 -15q19 0 40 33l77 -52q-56 -84 -129 -84z" />
    <glyph glyph-name="utilde" unicode="&#x169;" horiz-adv-x="589" 
d="M591 538l-66 -312q-24 -112 -96 -174.5t-181 -62.5q-94 0 -148 47.5t-54 132.5q0 37 5 60l67 309h156l-65 -300l-3.5 -22t-1.5 -16q0 -63 61 -63q37 0 66.5 25t41.5 80l63 296h155zM428 609q-26 0 -60 15q-35 15 -47 15q-20 0 -39 -31l-77 52q54 83 128 83q28 0 61 -16
q34 -15 46 -15q19 0 40 33l77 -52q-56 -84 -129 -84z" />
    <glyph glyph-name="Umacron" unicode="&#x16a;" horiz-adv-x="662" 
d="M600 262q-27 -127 -111 -200q-82 -73 -188 -73q-99 0 -166 58t-67 159q0 36 6 62l95 444h159l-95 -443q-5 -25 -5 -38q0 -42 22.5 -63t58.5 -21q22 0 43.5 9t39.5 25.5t31 40t19 52.5l93 438h161zM316 902h303l-19 -100h-303z" />
    <glyph glyph-name="umacron" unicode="&#x16b;" horiz-adv-x="589" 
d="M591 538l-66 -312q-24 -112 -96 -174.5t-181 -62.5q-94 0 -148 47.5t-54 132.5q0 37 5 60l67 309h156l-65 -300l-3.5 -22t-1.5 -16q0 -63 61 -63q37 0 66.5 25t41.5 80l63 296h155zM237 728h303l-19 -100h-303z" />
    <glyph glyph-name="Ubreve" unicode="&#x16c;" horiz-adv-x="662" 
d="M600 262q-27 -127 -111 -200q-82 -73 -188 -73q-99 0 -166 58t-67 159q0 36 6 62l95 444h159l-95 -443q-5 -25 -5 -38q0 -42 22.5 -63t58.5 -21q22 0 43.5 9t39.5 25.5t31 40t19 52.5l93 438h161zM652 895q-39 -72 -94 -103.5t-110 -31.5q-54 0 -102.5 33t-74.5 105
l96 40q17 -48 38.5 -62t50.5 -14q12 0 25.5 2t27.5 9.5t28.5 23t29.5 42.5z" />
    <glyph glyph-name="ubreve" unicode="&#x16d;" horiz-adv-x="589" 
d="M591 538l-66 -312q-24 -112 -96 -174.5t-181 -62.5q-94 0 -148 47.5t-54 132.5q0 37 5 60l67 309h156l-65 -300l-3.5 -22t-1.5 -16q0 -63 61 -63q37 0 66.5 25t41.5 80l63 296h155zM573 721q-39 -72 -94 -103.5t-110 -31.5q-54 0 -102.5 33t-74.5 105l96 40
q17 -48 38.5 -62t50.5 -14q12 0 25.5 2t27.5 9.5t28.5 23t29.5 42.5z" />
    <glyph glyph-name="Uring" unicode="&#x16e;" horiz-adv-x="662" 
d="M600 262q-27 -127 -111 -200q-82 -73 -188 -73q-99 0 -166 58t-67 159q0 36 6 62l95 444h159l-95 -443q-5 -25 -5 -38q0 -42 22.5 -63t58.5 -21q22 0 43.5 9t39.5 25.5t31 40t19 52.5l93 438h161zM350 850q-2 45 32 77q16 16 36.5 24.5t41.5 8.5t41 -8.5t36 -24.5
q32 -32 32 -77q0 -46 -33 -77q-34 -32 -78 -32q-23 0 -42.5 8.5t-34 23t-23 34.5t-8.5 43zM424 850q-1 -15 9.5 -25.5t25.5 -10.5t25.5 10.5t11.5 25.5q-1 15 -11.5 25.5t-26.5 10.5q-15 0 -25 -10.5t-9 -25.5z" />
    <glyph glyph-name="uring" unicode="&#x16f;" horiz-adv-x="589" 
d="M591 538l-66 -312q-24 -112 -96 -174.5t-181 -62.5q-94 0 -148 47.5t-54 132.5q0 37 5 60l67 309h156l-65 -300l-3.5 -22t-1.5 -16q0 -63 61 -63q37 0 66.5 25t41.5 80l63 296h155zM270 676q-2 45 32 77q16 16 36.5 24.5t41.5 8.5t41 -8.5t36 -24.5q32 -32 32 -77
q0 -46 -33 -77q-34 -32 -78 -32q-23 0 -42.5 8.5t-34 23t-23 34.5t-8.5 43zM344 676q-1 -15 9.5 -25.5t25.5 -10.5t25.5 10.5t11.5 25.5q-1 15 -11.5 25.5t-26.5 10.5q-15 0 -25 -10.5t-9 -25.5z" />
    <glyph glyph-name="Uhungarumlaut" unicode="&#x170;" horiz-adv-x="662" 
d="M600 262q-27 -127 -111 -200q-82 -73 -188 -73q-99 0 -166 58t-67 159q0 36 6 62l95 444h159l-95 -443q-5 -25 -5 -38q0 -42 22.5 -63t58.5 -21q22 0 43.5 9t39.5 25.5t31 40t19 52.5l93 438h161zM274 806l161 157l70 -80l-174 -143zM448 806l161 157l71 -80l-175 -143z
" />
    <glyph glyph-name="uhungarumlaut" unicode="&#x171;" horiz-adv-x="589" 
d="M591 538l-66 -312q-24 -112 -96 -174.5t-181 -62.5q-94 0 -148 47.5t-54 132.5q0 37 5 60l67 309h156l-65 -300l-3.5 -22t-1.5 -16q0 -63 61 -63q37 0 66.5 25t41.5 80l63 296h155zM201 632l161 157l70 -80l-174 -143zM375 632l161 157l71 -80l-175 -143z" />
    <glyph glyph-name="Uogonek" unicode="&#x172;" horiz-adv-x="662" 
d="M305 -207q-43 -20 -81 -20q-42 0 -68.5 23.5t-26.5 58.5q0 75 106 142q-75 17 -121 71t-46 138q0 36 6 62l95 444h159l-95 -443q-5 -25 -5 -38q0 -42 22.5 -63t58.5 -21q22 0 43.5 9t39.5 25.5t31 40t19 52.5l93 438h161l-96 -450q-22 -105 -88 -177q-64 -70 -149 -89
q-47 -18 -88 -52q-42 -35 -42 -59q0 -11 8 -19t18 -8q17 0 67 33z" />
    <glyph glyph-name="uogonek" unicode="&#x173;" horiz-adv-x="589" 
d="M262 -207q-43 -20 -81 -20q-42 0 -68.5 23.5t-26.5 58.5q0 73 103 140q-67 13 -105 57.5t-38 116.5q0 13 1.5 28t3.5 32l67 309h156l-65 -300q-5 -17 -5 -38q0 -63 61 -63q37 0 66.5 25t41.5 80l63 296h155l-66 -312q-19 -88 -68 -146t-122 -79q-47 -14 -96 -51t-49 -65
q0 -11 8 -19t18 -8q17 0 67 33z" />
    <glyph glyph-name="Wcircumflex" unicode="&#x174;" horiz-adv-x="878" 
d="M825 712h175l-271 -712h-169l-58 277q-4 20 -6.5 43.5t-4.5 50.5h-7q-17 -37 -52 -94l-174 -277h-168l31 712h156l-16 -348q-1 -20 -3.5 -43.5t-6.5 -52.5h8l30 59.5l21 38.5l199 323h76l61 -323q5 -27 8 -51t5 -46h8l11 38q10 36 18 57zM786 812l-60 -72l-133 87
l-152 -87l-52 74l214 152z" />
    <glyph glyph-name="wcircumflex" unicode="&#x175;" horiz-adv-x="811" 
d="M677 538h173l-257 -538h-111l-60 187q-9 28 -18 74h-4q-9 -17 -47 -74l-132 -187h-111l-36 538h151l9 -206q1 -13 1 -35.5v-54.5h5q28 60 49 90l119 184h77l45 -182q4 -16 15 -92h6q8 25 16 47.5t18 42.5zM688 638l-60 -72l-133 87l-152 -87l-52 74l214 152z" />
    <glyph glyph-name="Ycircumflex" unicode="&#x176;" horiz-adv-x="637" 
d="M548 712h193l-329 -420l-62 -292h-159l62 292l-152 420h168l67 -182q2 -7 6.5 -24t9.5 -43h7q21 39 44 66zM638 812l-60 -72l-133 87l-152 -87l-52 74l214 152z" />
    <glyph glyph-name="ycircumflex" unicode="&#x177;" horiz-adv-x="596" 
d="M464 538h182l-509 -754h-177l212 308l-111 446h160l50 -197q4 -18 7.5 -38t6.5 -43h6q19 40 45 81zM573 638l-60 -72l-133 87l-152 -87l-52 74l214 152z" />
    <glyph glyph-name="Ydieresis" unicode="&#x178;" horiz-adv-x="637" 
d="M548 712h193l-329 -420l-62 -292h-159l62 292l-152 420h168l67 -182q2 -7 6.5 -24t9.5 -43h7q21 39 44 66zM342 779q-27 0 -45.5 18.5t-18.5 45.5q0 32 23.5 55.5t55.5 23.5q28 0 46.5 -19t18.5 -48q0 -15 -6.5 -28.5t-17.5 -24t-25.5 -17t-30.5 -6.5zM534 922
q28 0 46.5 -19t18.5 -48q0 -15 -7 -29t-18 -24.5t-25.5 -16.5t-29.5 -6q-27 0 -45.5 18.5t-18.5 45.5q0 32 23.5 55.5t55.5 23.5z" />
    <glyph glyph-name="Zacute" unicode="&#x179;" horiz-adv-x="578" 
d="M548 156l-33 -156h-546l22 104l325 371q30 34 82 78l1 6q-20 -1 -43 -1.5t-49 -0.5h-193l33 155h517l-22 -104l-331 -374q-10 -11 -29 -30l-47 -45l-1 -7q38 2 62.5 3t35.5 1h216zM322 729l-48 80l239 164l54 -96z" />
    <glyph glyph-name="zacute" unicode="&#x17a;" horiz-adv-x="515" 
d="M284 188q-19 -20 -32.5 -33t-23.5 -21l-1 -6q36 3 76 3h161l-27 -131h-466l17 76l252 277q21 23 53 50l1 7q-39 -3 -72 -3h-147l27 131h445l-17 -81zM247 555l-48 80l239 164l54 -96z" />
    <glyph glyph-name="Zdotaccent" unicode="&#x17b;" horiz-adv-x="578" 
d="M548 156l-33 -156h-546l22 104l325 371q30 34 82 78l1 6q-20 -1 -43 -1.5t-49 -0.5h-193l33 155h517l-22 -104l-331 -374q-10 -11 -29 -30l-47 -45l-1 -7q38 2 62.5 3t35.5 1h216zM489 849q-4 -29 -27 -49.5t-52 -20.5q-28 0 -46.5 18.5t-18.5 45.5q0 16 6.5 30.5
t17.5 25t25.5 17t30.5 6.5q28 0 46 -20.5t18 -52.5z" />
    <glyph glyph-name="zdotaccent" unicode="&#x17c;" horiz-adv-x="515" 
d="M284 188q-19 -20 -32.5 -33t-23.5 -21l-1 -6q36 3 76 3h161l-27 -131h-466l17 76l252 277q21 23 53 50l1 7q-39 -3 -72 -3h-147l27 131h445l-17 -81zM419 675q-4 -29 -27 -49.5t-52 -20.5q-28 0 -46.5 18.5t-18.5 45.5q0 16 6.5 30.5t17.5 25t25.5 17t30.5 6.5
q28 0 46 -20.5t18 -52.5z" />
    <glyph glyph-name="Zcaron" unicode="&#x17d;" horiz-adv-x="578" 
d="M548 156l-33 -156h-546l22 104l325 371q30 34 82 78l1 6q-20 -1 -43 -1.5t-49 -0.5h-193l33 155h517l-22 -104l-331 -374q-10 -11 -29 -30l-47 -45l-1 -7q38 2 62.5 3t35.5 1h216zM570 967l51 -75l-212 -151l-185 152l60 74l134 -88z" />
    <glyph glyph-name="zcaron" unicode="&#x17e;" horiz-adv-x="515" 
d="M284 188q-19 -20 -32.5 -33t-23.5 -21l-1 -6q36 3 76 3h161l-27 -131h-466l17 76l252 277q21 23 53 50l1 7q-39 -3 -72 -3h-147l27 131h445l-17 -81zM494 793l51 -75l-212 -151l-185 152l60 74l134 -88z" />
    <glyph glyph-name="longs" unicode="&#x17f;" horiz-adv-x="270" 
d="M67 538h62l5 21q19 93 83 155q64 61 164 61q38 0 77 -13l-32 -145q-39 14 -66 14t-46 -20.5t-25 -47.5l-120 -563h-154l102 482h-62z" />
    <glyph glyph-name="florin" unicode="&#x192;" horiz-adv-x="716" 
d="M565 511h94l-22 -142h-97q-1 -3 -1 -8l-47 -246l-9 -46.5t-8 -34.5q-6 -27 -24 -68q-16 -38 -40 -61q-22 -21 -61.5 -36.5t-93.5 -15.5q-51 0 -82 6l26 150q37 -6 63 -6q36 0 51 28t22 82l48 256h-69l23 142h72l11 60q38 197 199 202q36 2 86 -12l-28 -153q-29 17 -58 17
q-24 0 -34 -27q-5 -14 -7.5 -22.5t-5.5 -25.5z" />
    <glyph glyph-name="AEacute" unicode="&#x1fc;" horiz-adv-x="943" 
d="M951 557h-316v-106h285l-33 -156h-252v-139h231l-33 -156h-361v145h-217l-89 -145h-215l478 712h555zM336 301h136v232h-8q-29 -65 -54 -109zM631 723l-48 80l239 164l54 -96z" />
    <glyph glyph-name="aeacute" unicode="&#x1fd;" horiz-adv-x="878" 
d="M366 335l4 18q0 1 0.5 3.5t0.5 3.5q0 23 -21.5 39.5t-49.5 16.5q-51 0 -84 -10q-17 -5 -38 -12.5t-46 -18.5l28 139q97 36 158 36q104 0 164 -60q79 60 173 60q43 0 79.5 -14t62.5 -42t40.5 -68.5t14.5 -94.5q0 -2 -0.5 -7.5t-0.5 -9.5l-4 -40l-8 -45h-334
q3 -103 91 -103q97 0 175 57l-31 -156q-82 -38 -167 -38q-115 0 -172 73q-89 -73 -199 -73q-87 0 -132.5 38t-45.5 104q0 91 69 147q70 57 191 57h82zM347 229h-85q-43 0 -66 -19.5t-23 -51.5q0 -41 52 -41q48 0 80.5 29.5t39.5 69.5zM710 335q0 42 -19.5 66t-54.5 24
q-36 0 -65.5 -25.5t-44.5 -64.5h184zM581 555l-48 80l239 164l54 -96z" />
    <glyph glyph-name="Oslashacute" unicode="&#x1fe;" horiz-adv-x="807" 
d="M481 724q100 0 180 -53l87 104l40 -34l-87 -103q90 -87 90 -224q0 -114 -61 -212q-60 -99 -158 -156t-204 -57q-99 0 -172 48l-83 -99l-39 34l81 97q-94 88 -94 228q0 112 59 212q60 99 157 157t204 58zM223 310q0 -69 39 -114l293 349q-37 22 -87 22q-100 0 -173 -78
q-72 -77 -72 -179zM385 146q100 0 172 77q73 76 73 178q0 65 -36 110l-291 -346q35 -19 82 -19zM414 729l-48 80l239 164l54 -96z" />
    <glyph glyph-name="oslashacute" unicode="&#x1ff;" horiz-adv-x="610" 
d="M345 550q73 0 131 -37l60 71l43 -35l-60 -71q63 -69 63 -170q0 -127 -93 -223t-221 -96q-75 0 -131 35l-62 -75l-43 37l61 73q-61 67 -61 171q0 127 93 223q93 97 220 97zM190 240q0 -31 12 -53l172 205q-19 10 -42 10q-55 0 -98 -48q-44 -49 -44 -114zM282 137
q53 0 97 47t44 113q0 28 -11 53l-172 -204q18 -9 42 -9zM277 555l-48 80l239 164l54 -96z" />
    <glyph glyph-name="uni0200" unicode="&#x200;" horiz-adv-x="739" 
d="M530 712l158 -712h-169l-27 145h-269l-87 -145h-185l460 712h119zM310 291h155l-15 101q-7 49 -12 113h-9q-17 -37 -32 -65.5t-27 -48.5zM535 962l130 -158l-73 -64l-142 144zM361 962l129 -158l-72 -64l-142 144z" />
    <glyph glyph-name="uni0201" unicode="&#x201;" horiz-adv-x="640" 
d="M329 550q77 0 142 -59l9 47h156l-114 -538h-136l3 47q-70 -58 -137 -58q-105 0 -163 64t-58 163q0 127 86 231q85 103 212 103zM277 136q27 0 50.5 10t42 28t32.5 42.5t21 53.5l17 69q-12 23 -40 43t-68 20q-59 0 -101 -50q-41 -50 -41 -121q0 -45 22.5 -70t64.5 -25z
M386 788l130 -158l-73 -64l-142 144zM212 788l129 -158l-72 -64l-142 144z" />
    <glyph glyph-name="uni0202" unicode="&#x202;" horiz-adv-x="739" 
d="M530 712l158 -712h-169l-27 145h-269l-87 -145h-185l460 712h119zM310 291h155l-15 101q-7 49 -12 113h-9q-17 -37 -32 -65.5t-27 -48.5zM705 812l-60 -72l-133 87l-152 -87l-52 74l214 152z" />
    <glyph glyph-name="uni0203" unicode="&#x203;" horiz-adv-x="640" 
d="M329 550q77 0 142 -59l9 47h156l-114 -538h-136l3 47q-70 -58 -137 -58q-105 0 -163 64t-58 163q0 127 86 231q85 103 212 103zM277 136q27 0 50.5 10t42 28t32.5 42.5t21 53.5l17 69q-12 23 -40 43t-68 20q-59 0 -101 -50q-41 -50 -41 -121q0 -45 22.5 -70t64.5 -25z
M563 638l-60 -72l-133 87l-152 -87l-52 74l214 152z" />
    <glyph glyph-name="uni0204" unicode="&#x204;" horiz-adv-x="555" 
d="M20 0l151 712h432l-32 -152h-274l-27 -126h266l-31 -147h-266l-29 -135h274l-32 -152h-432zM441 962l130 -158l-73 -64l-142 144zM267 962l129 -158l-72 -64l-142 144z" />
    <glyph glyph-name="uni0205" unicode="&#x205;" horiz-adv-x="564" 
d="M395 335q0 42 -19 66t-54 24q-36 0 -65.5 -25t-45.5 -65h184zM426 27q-78 -38 -165 -38q-105 0 -167 60t-62 168q0 144 87 239q88 94 219 94q44 0 80.5 -14.5t62.5 -42t40.5 -68.5t14.5 -95q0 -48 -11 -101h-333q1 -103 89 -103q100 0 176 55zM411 788l130 -158l-73 -64
l-142 144zM237 788l129 -158l-72 -64l-142 144z" />
    <glyph glyph-name="uni0206" unicode="&#x206;" horiz-adv-x="555" 
d="M20 0l151 712h432l-32 -152h-274l-27 -126h266l-31 -147h-266l-29 -135h274l-32 -152h-432zM601 812l-60 -72l-133 87l-152 -87l-52 74l214 152z" />
    <glyph glyph-name="uni0207" unicode="&#x207;" horiz-adv-x="564" 
d="M395 335q0 42 -19 66t-54 24q-36 0 -65.5 -25t-45.5 -65h184zM426 27q-78 -38 -165 -38q-105 0 -167 60t-62 168q0 144 87 239q88 94 219 94q44 0 80.5 -14.5t62.5 -42t40.5 -68.5t14.5 -95q0 -48 -11 -101h-333q1 -103 89 -103q100 0 176 55zM567 638l-60 -72l-133 87
l-152 -87l-52 74l214 152z" />
    <glyph glyph-name="uni0208" unicode="&#x208;" horiz-adv-x="281" 
d="M329 712l-151 -712h-160l151 712h160zM311 962l130 -158l-73 -64l-142 144zM137 962l129 -158l-72 -64l-142 144z" />
    <glyph glyph-name="uni0209" unicode="&#x209;" horiz-adv-x="284" 
d="M281 538l-115 -538h-157l115 538h157zM256 788l130 -158l-73 -64l-142 144zM82 788l129 -158l-72 -64l-142 144z" />
    <glyph glyph-name="uni020A" unicode="&#x20a;" horiz-adv-x="281" 
d="M329 712l-151 -712h-160l151 712h160zM475 812l-60 -72l-133 87l-152 -87l-52 74l214 152z" />
    <glyph glyph-name="uni020B" unicode="&#x20b;" horiz-adv-x="284" 
d="M281 538l-115 -538h-157l115 538h157zM425 638l-60 -72l-133 87l-152 -87l-52 74l214 152z" />
    <glyph glyph-name="uni020C" unicode="&#x20c;" horiz-adv-x="807" 
d="M481 724q136 0 223 -88q87 -89 87 -222q0 -114 -61 -212q-60 -99 -158 -156t-204 -57q-134 0 -221 87q-86 89 -86 221q0 112 59 212q60 99 157 157t204 58zM385 146q100 0 172 76t72 179q0 36 -11 66.5t-32 52.5t-51 34.5t-67 12.5q-100 0 -173 -78q-72 -77 -72 -179
q0 -36 11.5 -66t32.5 -51.5t51 -34t67 -12.5zM537 962l130 -158l-73 -64l-142 144zM363 962l129 -158l-72 -64l-142 144z" />
    <glyph glyph-name="uni020D" unicode="&#x20d;" horiz-adv-x="610" 
d="M345 550q107 0 171 -70q66 -69 66 -172q0 -127 -93 -223t-221 -96q-107 0 -172 68q-64 68 -64 173q0 127 93 223q93 97 220 97zM282 137q53 0 97 47t44 113q0 48 -26 76.5t-65 28.5q-55 0 -98 -48q-44 -49 -44 -114q0 -46 27 -74.5t65 -28.5zM421 788l130 -158l-73 -64
l-142 144zM247 788l129 -158l-72 -64l-142 144z" />
    <glyph glyph-name="uni020E" unicode="&#x20e;" horiz-adv-x="807" 
d="M481 724q136 0 223 -88q87 -89 87 -222q0 -114 -61 -212q-60 -99 -158 -156t-204 -57q-134 0 -221 87q-86 89 -86 221q0 112 59 212q60 99 157 157t204 58zM385 146q100 0 172 76t72 179q0 36 -11 66.5t-32 52.5t-51 34.5t-67 12.5q-100 0 -173 -78q-72 -77 -72 -179
q0 -36 11.5 -66t32.5 -51.5t51 -34t67 -12.5zM710 812l-60 -72l-133 87l-152 -87l-52 74l214 152z" />
    <glyph glyph-name="uni020F" unicode="&#x20f;" horiz-adv-x="610" 
d="M345 550q107 0 171 -70q66 -69 66 -172q0 -127 -93 -223t-221 -96q-107 0 -172 68q-64 68 -64 173q0 127 93 223q93 97 220 97zM282 137q53 0 97 47t44 113q0 48 -26 76.5t-65 28.5q-55 0 -98 -48q-44 -49 -44 -114q0 -46 27 -74.5t65 -28.5zM575 638l-60 -72l-133 87
l-152 -87l-52 74l214 152z" />
    <glyph glyph-name="uni0210" unicode="&#x210;" horiz-adv-x="614" 
d="M570 0h-176l-126 257h-36l-54 -257h-160l151 712h201q55 0 98 -13.5t72 -38.5t44.5 -59t15.5 -76q0 -84 -49 -149q-47 -65 -126 -97zM296 564l-34 -159h56q25 0 47.5 7.5t38.5 20.5t25.5 31t9.5 39q0 28 -22.5 44.5t-64.5 16.5h-56zM439 962l130 -158l-73 -64l-142 144z
M265 962l129 -158l-72 -64l-142 144z" />
    <glyph glyph-name="uni0211" unicode="&#x211;" horiz-adv-x="390" 
d="M437 545l-33 -157q-15 3 -33 3q-72 0 -105 -33t-48 -102l-55 -256h-155l115 538h141l-5 -49q24 27 65 41q43 15 79 15h34zM345 788l130 -158l-73 -64l-142 144zM171 788l129 -158l-72 -64l-142 144z" />
    <glyph glyph-name="uni0212" unicode="&#x212;" horiz-adv-x="614" 
d="M570 0h-176l-126 257h-36l-54 -257h-160l151 712h201q55 0 98 -13.5t72 -38.5t44.5 -59t15.5 -76q0 -84 -49 -149q-47 -65 -126 -97zM296 564l-34 -159h56q25 0 47.5 7.5t38.5 20.5t25.5 31t9.5 39q0 28 -22.5 44.5t-64.5 16.5h-56zM580 812l-60 -72l-133 87l-152 -87
l-52 74l214 152z" />
    <glyph glyph-name="uni0213" unicode="&#x213;" horiz-adv-x="390" 
d="M437 545l-33 -157q-15 3 -33 3q-72 0 -105 -33t-48 -102l-55 -256h-155l115 538h141l-5 -49q24 27 65 41q43 15 79 15h34zM502 638l-60 -72l-133 87l-152 -87l-52 74l214 152z" />
    <glyph glyph-name="uni0214" unicode="&#x214;" horiz-adv-x="662" 
d="M600 262q-27 -127 -111 -200q-82 -73 -188 -73q-99 0 -166 58t-67 159q0 36 6 62l95 444h159l-95 -443q-5 -25 -5 -38q0 -42 22.5 -63t58.5 -21q22 0 43.5 9t39.5 25.5t31 40t19 52.5l93 438h161zM496 962l130 -158l-73 -64l-142 144zM322 962l129 -158l-72 -64l-142 144
z" />
    <glyph glyph-name="uni0215" unicode="&#x215;" horiz-adv-x="589" 
d="M591 538l-66 -312q-24 -112 -96 -174.5t-181 -62.5q-94 0 -148 47.5t-54 132.5q0 37 5 60l67 309h156l-65 -300l-3.5 -22t-1.5 -16q0 -63 61 -63q37 0 66.5 25t41.5 80l63 296h155zM402 788l130 -158l-73 -64l-142 144zM228 788l129 -158l-72 -64l-142 144z" />
    <glyph glyph-name="uni0216" unicode="&#x216;" horiz-adv-x="662" 
d="M600 262q-27 -127 -111 -200q-82 -73 -188 -73q-99 0 -166 58t-67 159q0 36 6 62l95 444h159l-95 -443q-5 -25 -5 -38q0 -42 22.5 -63t58.5 -21q22 0 43.5 9t39.5 25.5t31 40t19 52.5l93 438h161zM656 812l-60 -72l-133 87l-152 -87l-52 74l214 152z" />
    <glyph glyph-name="uni0217" unicode="&#x217;" horiz-adv-x="589" 
d="M591 538l-66 -312q-24 -112 -96 -174.5t-181 -62.5q-94 0 -148 47.5t-54 132.5q0 37 5 60l67 309h156l-65 -300l-3.5 -22t-1.5 -16q0 -63 61 -63q37 0 66.5 25t41.5 80l63 296h155zM578 638l-60 -72l-133 87l-152 -87l-52 74l214 152z" />
    <glyph glyph-name="Scommaaccent" unicode="&#x218;" horiz-adv-x="555" 
d="M506 244q0 -111 -78 -183t-191 -72q-116 0 -197 81l34 166q17 -19 39.5 -35t48.5 -30q54 -27 101 -27q35 0 58.5 17.5t23.5 49.5q0 20 -18 36t-45 32l-58.5 34t-58.5 41.5t-45 55.5t-18 76q0 108 73 172q73 66 175 66q119 0 189 -70l-34 -161q-80 76 -180 76
q-24 0 -42.5 -14.5t-18.5 -40.5q0 -18 25 -37t60 -39q26 -13 54 -31t51 -41.5t37.5 -54t14.5 -67.5zM93 -255q56 126 78 218l134 8q-64 -147 -132 -239z" />
    <glyph glyph-name="scommaaccent" unicode="&#x219;" horiz-adv-x="442" 
d="M381 179q0 -83 -61 -137q-62 -53 -143 -53q-84 0 -158 50l32 155q73 -68 129 -68q18 0 30.5 9t12.5 22q0 7 -6.5 16.5t-17.5 19t-25 20t-29 20.5t-29 24t-25 31t-17.5 36t-6.5 39q0 79 61 133t145 54q67 0 140 -46l-33 -149q-64 58 -115 58q-15 0 -27.5 -9t-12.5 -22
q0 -11 11.5 -22t29 -24l37.5 -28.5t37.5 -34.5t29 -42.5t11.5 -51.5zM29 -255q56 126 78 218l134 8q-64 -147 -132 -239z" />
    <glyph glyph-name="uni021A" unicode="&#x21a;" horiz-adv-x="496" 
d="M400 556l-118 -556h-161l117 556h-157l33 156h476l-33 -156h-157zM72 -255q56 126 78 218l134 8q-64 -147 -132 -239z" />
    <glyph glyph-name="uni021B" unicode="&#x21b;" horiz-adv-x="382" 
d="M307 1q-44 -11 -77 -11q-85 0 -126 43.5t-41 115.5q0 36 7 63l42 194h-65l28 132h65l20 90l169 65l-34 -155h127l-28 -132h-127l-45 -208q-1 -5 -1 -15q0 -48 51 -48q24 0 66 13zM37 -255q56 126 78 218l134 8q-64 -147 -132 -239z" />
    <glyph glyph-name="circumflex" unicode="&#x2c6;" horiz-adv-x="411" 
d="M482 579l-60 -72l-133 87l-152 -87l-52 74l214 152z" />
    <glyph glyph-name="caron" unicode="&#x2c7;" horiz-adv-x="411" 
d="M438 734l51 -75l-212 -151l-185 152l60 74l134 -88z" />
    <glyph glyph-name="breve" unicode="&#x2d8;" horiz-adv-x="405" 
d="M478 662q-39 -72 -94 -103.5t-110 -31.5q-54 0 -102.5 33t-74.5 105l96 40q17 -48 38.5 -62t50.5 -14q12 0 25.5 2t27.5 9.5t28.5 23t29.5 42.5z" />
    <glyph glyph-name="dotaccent" unicode="&#x2d9;" horiz-adv-x="395" 
d="M353 616q-4 -29 -27 -49.5t-52 -20.5q-28 0 -46.5 18.5t-18.5 45.5q0 16 6.5 30.5t17.5 25t25.5 17t30.5 6.5q28 0 46 -20.5t18 -52.5z" />
    <glyph glyph-name="ring" unicode="&#x2da;" horiz-adv-x="390" 
d="M169 617q-2 45 32 77q16 16 36.5 24.5t41.5 8.5t41 -8.5t36 -24.5q32 -32 32 -77q0 -46 -33 -77q-34 -32 -78 -32q-23 0 -42.5 8.5t-34 23t-23 34.5t-8.5 43zM243 617q-1 -15 9.5 -25.5t25.5 -10.5t25.5 10.5t11.5 25.5q-1 15 -11.5 25.5t-26.5 10.5q-15 0 -25 -10.5
t-9 -25.5z" />
    <glyph glyph-name="ogonek" unicode="&#x2db;" horiz-adv-x="396" 
d="M214 -207q-43 -20 -81 -20q-42 0 -68.5 23.5t-26.5 58.5q0 75 113 146h136q-47 -14 -96 -51t-49 -65q0 -11 8 -19t18 -8q17 0 67 33z" />
    <glyph glyph-name="tilde" unicode="&#x2dc;" horiz-adv-x="404" 
d="M328 550q-26 0 -60 15q-35 15 -47 15q-20 0 -39 -31l-77 52q54 83 128 83q28 0 61 -16q34 -15 46 -15q19 0 40 33l77 -52q-56 -84 -129 -84z" />
    <glyph glyph-name="hungarumlaut" unicode="&#x2dd;" horiz-adv-x="408" 
d="M83 573l161 157l70 -80l-174 -143zM257 573l161 157l71 -80l-175 -143z" />
    <glyph glyph-name="doublegrave" unicode="&#x30f;" horiz-adv-x="408" 
d="M350 729l130 -158l-73 -64l-142 144zM176 729l129 -158l-72 -64l-142 144z" />
    <glyph glyph-name="uni037E" unicode="&#x37e;" horiz-adv-x="295" 
d="M194 510q18 0 33.5 -7t26.5 -19t16.5 -28.5t3.5 -35.5q-4 -38 -32.5 -63t-66.5 -25q-36 0 -59 25t-19 63q2 18 10.5 34.5t22 29t30 19.5t34.5 7zM-81 -163q35 82 62 155.5t45 140.5l170 12q-76 -183 -178 -324z" />
    <glyph glyph-name="tonos" unicode="&#x384;" horiz-adv-x="301" 
d="M254 771l94 -46l-127 -202l-78 40z" />
    <glyph glyph-name="dieresistonos" unicode="&#x385;" horiz-adv-x="346" 
d="M178 618q0 -15 -6.5 -28t-18 -22.5t-25.5 -15.5t-29 -6q-28 0 -46.5 18t-18.5 44q0 16 6.5 31t17.5 26t25.5 17.5t30.5 6.5q27 0 45.5 -19.5t18.5 -51.5zM409 689q27 0 45.5 -18.5t18.5 -46.5q0 -15 -6.5 -29.5t-17.5 -25t-25.5 -17t-29.5 -6.5q-28 0 -46.5 18t-18.5 44
q0 16 6.5 31t17.5 26t25.5 17.5t30.5 6.5zM262 727l81 -41l-105 -167l-69 36z" />
    <glyph glyph-name="Alphatonos" unicode="&#x386;" horiz-adv-x="755" 
d="M530 712l158 -712h-169l-27 145h-269l-87 -145h-185l460 712h119zM310 291h155l-15 101q-7 49 -12 113h-9q-17 -37 -32 -65.5t-27 -48.5zM139 771l94 -46l-127 -202l-78 40z" />
    <glyph glyph-name="anoteleia" unicode="&#x387;" horiz-adv-x="417" 
d="M217 338q36 0 58.5 -23.5t22.5 -59.5q0 -39 -30 -67q-29 -28 -68 -28q-34 0 -57.5 23.5t-23.5 57.5q0 39 30 68q31 29 68 29z" />
    <glyph glyph-name="Epsilontonos" unicode="&#x388;" horiz-adv-x="659" 
d="M116 0l151 712h432l-32 -152h-274l-27 -126h266l-31 -147h-266l-29 -135h274l-32 -152h-432zM111 771l94 -46l-127 -202l-78 40z" />
    <glyph glyph-name="Etatonos" unicode="&#x389;" horiz-adv-x="773" 
d="M584 451l56 261h162l-151 -712h-162l63 294h-215l-63 -294h-160l151 712h160l-56 -261h215zM111 771l94 -46l-127 -202l-78 40z" />
    <glyph glyph-name="Iotatonos" unicode="&#x38a;" horiz-adv-x="396" 
d="M425 712l-151 -712h-160l151 712h160zM111 771l94 -46l-127 -202l-78 40z" />
    <glyph glyph-name="Omicrontonos" unicode="&#x38c;" horiz-adv-x="886" 
d="M563 724q136 0 223 -88q87 -89 87 -222q0 -114 -61 -212q-60 -99 -158 -156t-204 -57q-134 0 -221 87q-86 89 -86 221q0 112 59 212q60 99 157 157t204 58zM467 146q100 0 172 76t72 179q0 36 -11 66.5t-32 52.5t-51 34.5t-67 12.5q-100 0 -173 -78q-72 -77 -72 -179
q0 -36 11.5 -66t32.5 -51.5t51 -34t67 -12.5zM111 771l94 -46l-127 -202l-78 40z" />
    <glyph glyph-name="Upsilontonos" unicode="&#x38e;" horiz-adv-x="775" 
d="M669 712h193l-329 -420l-62 -292h-159l62 292l-152 420h168l67 -182q2 -7 6.5 -24t9.5 -43h7q21 39 44 66zM111 771l94 -46l-127 -202l-78 40z" />
    <glyph glyph-name="Omegatonos" unicode="&#x38f;" horiz-adv-x="869" 
d="M727 153q13 2 37.5 3t42.5 1h18l-33 -157h-302l34 168q77 35 125 99t48 137q0 36 -11.5 66t-32.5 51.5t-51 33.5t-68 12q-92 0 -156 -66q-63 -66 -63 -160q0 -54 27.5 -100.5t73.5 -72.5l-34 -168h-288l33 157q76 0 96 -4l2 7q-71 63 -71 174q0 18 3 36q22 152 136 254
q112 100 264 100q137 0 219 -82q83 -83 83 -213q0 -81 -33.5 -151t-96.5 -118zM111 771l94 -46l-127 -202l-78 40z" />
    <glyph glyph-name="iotadieresistonos" unicode="&#x390;" horiz-adv-x="303" 
d="M165 677q0 -15 -6.5 -28t-18 -22.5t-25.5 -15.5t-29 -6q-28 0 -46.5 18t-18.5 44q0 16 6.5 31t17.5 26t25.5 17.5t30.5 6.5q27 0 45.5 -19.5t18.5 -51.5zM396 748q27 0 45.5 -18.5t18.5 -46.5q0 -15 -6.5 -29.5t-17.5 -25t-25.5 -17t-29.5 -6.5q-28 0 -46.5 18t-18.5 44
q0 16 6.5 31t17.5 26t25.5 17.5t30.5 6.5zM249 786l81 -41l-105 -167l-69 36zM228 -4q-77 1 -128 52q-49 49 -49 124q0 17 5 45l69 321h156l-68 -319q-1 -5 -1.5 -9t-0.5 -7q0 -24 13 -40.5t35 -19.5z" />
    <glyph glyph-name="Alpha" unicode="&#x391;" horiz-adv-x="739" 
d="M530 712l158 -712h-169l-27 145h-269l-87 -145h-185l460 712h119zM310 291h155l-15 101q-7 49 -12 113h-9q-17 -37 -32 -65.5t-27 -48.5z" />
    <glyph glyph-name="Beta" unicode="&#x392;" horiz-adv-x="602" 
d="M296 563l-28 -131h74q36 0 62.5 20t26.5 58q0 25 -18.5 39t-47.5 14h-69zM238 289l-30 -139h89q42 0 71.5 22t29.5 64q0 53 -77 53h-83zM589 540q0 -101 -83 -169q57 -45 57 -120q0 -114 -88 -183q-88 -68 -195 -68h-260l151 712h211q104 0 155.5 -48.5t51.5 -123.5z" />
    <glyph glyph-name="Gamma" unicode="&#x393;" horiz-adv-x="467" 
d="M297 556l-118 -556h-158l151 712h379l-33 -156h-221z" />
    <glyph glyph-name="Delta" unicode="&#x394;" horiz-adv-x="692" 
d="M-1 0l15 97l362 615h106l140 -614l-16 -98h-607zM228 158h216l-43 197q-9 51 -12 87h-5q-9 -22 -19.5 -43.5t-23.5 -43.5z" />
    <glyph glyph-name="Epsilon" unicode="&#x395;" horiz-adv-x="563" 
d="M20 0l151 712h432l-32 -152h-274l-27 -126h266l-31 -147h-266l-29 -135h274l-32 -152h-432z" />
    <glyph glyph-name="Zeta" unicode="&#x396;" horiz-adv-x="584" 
d="M548 156l-33 -156h-546l22 104l325 371q30 34 82 78l1 6q-20 -1 -43 -1.5t-49 -0.5h-193l33 155h517l-22 -104l-331 -374q-10 -11 -29 -30l-47 -45l-1 -7q38 2 62.5 3t35.5 1h216z" />
    <glyph glyph-name="Eta" unicode="&#x397;" horiz-adv-x="677" 
d="M488 451l56 261h162l-151 -712h-162l63 294h-215l-63 -294h-160l151 712h160l-56 -261h215z" />
    <glyph glyph-name="Theta" unicode="&#x398;" horiz-adv-x="804" 
d="M338 414h200l-25 -116h-199zM481 724q136 0 223 -88q87 -89 87 -222q0 -114 -61 -212q-60 -99 -158 -156t-204 -57q-134 0 -221 87q-86 89 -86 221q0 112 59 212q60 99 157 157t204 58zM385 146q100 0 172 76t72 179q0 36 -11 66.5t-32 52.5t-51 34.5t-67 12.5
q-100 0 -173 -78q-72 -77 -72 -179q0 -36 11.5 -66t32.5 -51.5t51 -34t67 -12.5z" />
    <glyph glyph-name="Iota" unicode="&#x399;" horiz-adv-x="300" 
d="M329 712l-151 -712h-160l151 712h160z" />
    <glyph glyph-name="Kappa" unicode="&#x39a;" horiz-adv-x="662" 
d="M752 712l-352 -331l234 -381h-187l-165 274l-58 -52l-47 -222h-157l151 712h157l-35 -166q-9 -42 -30 -104h6q78 87 92 101l164 169h227z" />
    <glyph glyph-name="Lambda" unicode="&#x39b;" horiz-adv-x="706" 
d="M139 0h-183l441 712h106l141 -712h-163l-64 355q-10 50 -10 90h-7q-4 -6 -21 -44t-22 -46z" />
    <glyph glyph-name="Mu" unicode="&#x39c;" horiz-adv-x="833" 
d="M177 0h-158l151 712h96l187 -237l287 237h122l-151 -712h-158l67 315q6 28 16.5 64.5l24.5 82.5h-7q-73 -76 -109 -106l-127 -104l-82 104q-11 13 -26.5 39.5l-37.5 66.5h-7q-11 -95 -21 -147z" />
    <glyph glyph-name="Nu" unicode="&#x39d;" horiz-adv-x="711" 
d="M581 712h159l-151 -712h-89l-200 346q-9 15 -18 33t-17 40h-4q-4 -27 -6.5 -46t-4.5 -30l-72 -343h-158l151 712h103l191 -331q9 -16 16.5 -33.5t14.5 -37.5h5q9 69 12 83z" />
    <glyph glyph-name="Xi" unicode="&#x39e;" horiz-adv-x="552" 
d="M129 560l32 152h432l-32 -152h-432zM80 287l31 147h415l-31 -147h-415zM10 0l32 152h432l-32 -152h-432z" />
    <glyph glyph-name="Omicron" unicode="&#x39f;" horiz-adv-x="808" 
d="M481 724q136 0 223 -88q87 -89 87 -222q0 -114 -61 -212q-60 -99 -158 -156t-204 -57q-134 0 -221 87q-86 89 -86 221q0 112 59 212q60 99 157 157t204 58zM385 146q100 0 172 76t72 179q0 36 -11 66.5t-32 52.5t-51 34.5t-67 12.5q-100 0 -173 -78q-72 -77 -72 -179
q0 -36 11.5 -66t32.5 -51.5t51 -34t67 -12.5z" />
    <glyph glyph-name="Pi" unicode="&#x3a0;" horiz-adv-x="677" 
d="M172 712h535l-151 -712h-158l118 556h-219l-118 -556h-158z" />
    <glyph glyph-name="Rho" unicode="&#x3a1;" horiz-adv-x="581" 
d="M295 557l-37 -174h53q27 0 51 8t41 22t27 34t10 44q0 30 -24.5 48t-66.5 18h-54zM169 712h198q57 0 101 -14.5t73.5 -41t45 -63t15.5 -81.5q0 -75 -27.5 -128.5t-72 -88.5t-101.5 -51.5t-116 -16.5h-60l-48 -227h-159z" />
    <glyph glyph-name="Sigma" unicode="&#x3a3;" horiz-adv-x="606" 
d="M667 712l-32 -152h-274l114 -204l-201 -204h274l-32 -152h-496l30 145l230 229l-132 230l23 108h496z" />
    <glyph glyph-name="Tau" unicode="&#x3a4;" horiz-adv-x="509" 
d="M400 556l-118 -556h-161l117 556h-157l33 156h476l-33 -156h-157z" />
    <glyph glyph-name="Upsilon" unicode="&#x3a5;" horiz-adv-x="641" 
d="M548 712h193l-329 -420l-62 -292h-159l62 292l-152 420h168l67 -182q2 -7 6.5 -24t9.5 -43h7q21 39 44 66z" />
    <glyph glyph-name="Phi" unicode="&#x3a6;" horiz-adv-x="811" 
d="M571 661q9 0 30.5 -5t55.5 -21q24 -10 48 -28t43 -44.5t31 -62.5t13 -82q0 -51 -10.5 -93.5t-28.5 -77t-42.5 -61.5t-52.5 -47q-35 -27 -72 -44.5t-68 -27t-52.5 -13t-24.5 -3.5l-17 -80h-158l17 80q-10 0 -31 5t-56 21q-36 17 -63 40q-29 25 -50.5 71.5t-21.5 104.5
q0 80 24.5 138.5t62 99.5t82 66.5t84 39.5t67 19t32.5 5l17 79h158zM380 505q-11 0 -30 -6.5t-44 -21.5t-47.5 -46.5t-31.5 -74.5q-11 -48 -2 -77t26 -45.5t36 -21.5t29 -5zM474 207q10 0 29 6.5t44 21.5q26 15 48.5 47t31.5 74q7 48 1.5 77.5t-25.5 45.5t-35.5 21t-29.5 5z
" />
    <glyph glyph-name="Chi" unicode="&#x3a7;" horiz-adv-x="680" 
d="M743 712l-298 -352l167 -360h-182l-69 162q-17 38 -25 69h-5q-2 -2 -7.5 -10l-14.5 -22l-16.5 -23t-13.5 -17l-129 -159h-207l321 381l-149 331h174l57 -131q16 -36 26 -76h6q27 48 52 79l105 128h208z" />
    <glyph glyph-name="Psi" unicode="&#x3a8;" horiz-adv-x="751" 
d="M655 712h157l-53 -249q-14 -65 -42.5 -116t-69.5 -86.5t-93 -54.5t-112 -19l-39 -187h-155l39 187q-100 0 -153.5 50t-53.5 144q0 37 9 82l53 249h157l-52 -243q-6 -27 -6 -48q0 -77 80 -77l78 368h155l-78 -368q101 0 127 125z" />
    <glyph glyph-name="Omega" unicode="&#x3a9;" horiz-adv-x="780" 
d="M630 153q13 2 37.5 3t42.5 1h18l-33 -157h-302l34 168q77 35 125 99t48 137q0 36 -11.5 66t-32.5 51.5t-51 33.5t-68 12q-92 0 -156 -66q-63 -66 -63 -160q0 -54 27.5 -100.5t73.5 -72.5l-34 -168h-288l33 157q76 0 96 -4l2 7q-71 63 -71 174q0 18 3 36q22 152 136 254
q112 100 264 100q137 0 219 -82q83 -83 83 -213q0 -81 -33.5 -151t-96.5 -118z" />
    <glyph glyph-name="Iotadieresis" unicode="&#x3aa;" horiz-adv-x="460" 
d="M292 779q-27 0 -45.5 18.5t-18.5 45.5q0 32 23.5 55.5t55.5 23.5q28 0 46.5 -19t18.5 -48q0 -15 -6.5 -28.5t-17.5 -24t-25.5 -17t-30.5 -6.5zM484 922q28 0 46.5 -19t18.5 -48q0 -15 -7 -29t-18 -24.5t-25.5 -16.5t-29.5 -6q-27 0 -45.5 18.5t-18.5 45.5q0 32 23.5 55.5
t55.5 23.5zM440 712l-151 -712h-160l151 712h160z" />
    <glyph glyph-name="Upsilondieresis" unicode="&#x3ab;" horiz-adv-x="560" 
d="M548 712h193l-329 -420l-62 -292h-159l62 292l-152 420h168l67 -182q2 -7 6.5 -24t9.5 -43h7q21 39 44 66zM341 779q-27 0 -45.5 18.5t-18.5 45.5q0 32 23.5 55.5t55.5 23.5q28 0 46.5 -19t18.5 -48q0 -15 -6.5 -28.5t-17.5 -24t-25.5 -17t-30.5 -6.5zM533 922
q28 0 46.5 -19t18.5 -48q0 -15 -7 -29t-18 -24.5t-25.5 -16.5t-29.5 -6q-27 0 -45.5 18.5t-18.5 45.5q0 32 23.5 55.5t55.5 23.5z" />
    <glyph glyph-name="alphatonos" unicode="&#x3ac;" horiz-adv-x="640" 
d="M502 538h141l-115 -538h-140l4 53q-21 -20 -38 -32.5t-32.5 -19.5t-30.5 -9.5t-32 -2.5q-104 0 -163 65q-58 65 -58 164q0 83 36 158q36 76 106 125t160 49q100 0 144 -62zM288 138q59 0 102 49t43 111q0 45 -27 74t-72 29q-58 0 -98 -48q-39 -48 -39 -115
q0 -45 24.5 -72.5t66.5 -27.5zM407 830l94 -46l-127 -202l-78 40z" />
    <glyph glyph-name="epsilontonos" unicode="&#x3ad;" horiz-adv-x="506" 
d="M404 334l-22 -106h-77q-117 0 -117 -64q0 -43 66 -43q115 0 192 27l-28 -135q-113 -24 -184 -24q-90 0 -148 42q-58 43 -58 112q0 90 79 150q-23 35 -23 69q0 59 39 103q39 45 94 65t115 20q93 0 188 -24l-29 -134q-81 27 -175 27q-13 0 -26 -4t-23.5 -11t-17 -16
t-6.5 -18q0 -36 69 -36h92zM388 830l94 -46l-127 -202l-78 40z" />
    <glyph glyph-name="etatonos" unicode="&#x3ae;" horiz-adv-x="600" 
d="M122 538h140l-2 -45q64 57 126 57q169 0 169 -160q0 -22 -2 -42.5t-6 -40.5l-110 -523h-155l108 515l3.5 23t1.5 18q0 62 -58 62q-19 0 -44 -12t-40 -24l-15 -12l-74 -354h-156zM408 830l94 -46l-127 -202l-78 40z" />
    <glyph glyph-name="iotatonos" unicode="&#x3af;" horiz-adv-x="303" 
d="M228 -4q-77 1 -128 52q-49 49 -49 124q0 17 5 45l69 321h156l-68 -319q-1 -5 -1.5 -9t-0.5 -7q0 -24 13 -40.5t35 -19.5zM249 830l94 -46l-127 -202l-78 40z" />
    <glyph glyph-name="upsilondieresistonos" unicode="&#x3b0;" horiz-adv-x="608" 
d="M566 538q20 -60 20 -137q0 -94 -28 -173t-74 -131q-45 -51 -101.5 -79.5t-116.5 -28.5q-94 0 -154 45q-59 45 -59 125q0 38 8 67l66 312h155l-63 -297q-3 -18 -3 -34q0 -69 65 -69q52 0 96 72q44 73 44 166q0 94 -36 162h181zM311 677q0 -15 -6.5 -28t-18 -22.5
t-25.5 -15.5t-29 -6q-28 0 -46.5 18t-18.5 44q0 16 6.5 31t17.5 26t25.5 17.5t30.5 6.5q27 0 45.5 -19.5t18.5 -51.5zM542 748q27 0 45.5 -18.5t18.5 -46.5q0 -15 -6.5 -29.5t-17.5 -25t-25.5 -17t-29.5 -6.5q-28 0 -46.5 18t-18.5 44q0 16 6.5 31t17.5 26t25.5 17.5
t30.5 6.5zM395 786l81 -41l-105 -167l-69 36z" />
    <glyph glyph-name="alpha" unicode="&#x3b1;" horiz-adv-x="642" 
d="M502 538h141l-115 -538h-140l4 53q-21 -20 -38 -32.5t-32.5 -19.5t-30.5 -9.5t-32 -2.5q-104 0 -163 65q-58 65 -58 164q0 83 36 158q36 76 106 125t160 49q100 0 144 -62zM288 138q59 0 102 49t43 111q0 45 -27 74t-72 29q-58 0 -98 -48q-39 -48 -39 -115
q0 -45 24.5 -72.5t66.5 -27.5z" />
    <glyph glyph-name="beta" unicode="&#x3b2;" horiz-adv-x="601" 
d="M292 137q40 0 75 29q34 28 34 90q0 39 -29 60.5t-80 21.5h-19l29 136h17q54 0 78.5 27t24.5 70q0 24 -16 40t-44 16q-13 0 -27 -7t-26 -19t-22 -28.5t-14 -35.5l-78 -365q15 -14 43.5 -24.5t53.5 -10.5zM496 407q64 -52 64 -141q0 -124 -77 -201q-76 -76 -207 -76
q-14 0 -30.5 2.5t-32.5 6.5t-29.5 9t-21.5 11l-49 -234h-156l160 755q23 105 95 170q73 66 173 66q87 0 142 -53q55 -52 55 -128q0 -103 -86 -187z" />
    <glyph glyph-name="gamma" unicode="&#x3b3;" horiz-adv-x="591" 
d="M119 -216l59 277l-115 477h160l42 -199q5 -26 8.5 -49.5t4.5 -43.5h7q13 40 48 93l126 199h182l-305 -468l-61 -286h-156z" />
    <glyph glyph-name="delta" unicode="&#x3b4;" horiz-adv-x="624" 
d="M472 631q58 -51 90 -128.5t32 -162.5q1 -67 -23 -130.5t-67.5 -113t-102.5 -79t-127 -28.5q-107 0 -171 67q-65 68 -65 169q0 118 78 207q81 90 189 112l65 6q-28 59 -75 112l22 102h343l-28 -133h-60q-36 0 -99 6zM293 137q58 0 99 50q42 51 42 122q0 32 -11 81
q-29 12 -83 12q-51 0 -98 -47q-45 -47 -45 -115q0 -45 26.5 -74t69.5 -29z" />
    <glyph glyph-name="epsilon" unicode="&#x3b5;" horiz-adv-x="506" 
d="M404 334l-22 -106h-77q-117 0 -117 -64q0 -43 66 -43q115 0 192 27l-28 -135q-113 -24 -184 -24q-90 0 -148 42q-58 43 -58 112q0 90 79 150q-23 35 -23 69q0 59 39 103q39 45 94 65t115 20q93 0 188 -24l-29 -134q-81 27 -175 27q-13 0 -26 -4t-23.5 -11t-17 -16
t-6.5 -18q0 -36 69 -36h92z" />
    <glyph glyph-name="zeta" unicode="&#x3b6;" horiz-adv-x="469" 
d="M510 662q-46 -39 -93 -86t-98 -107t-83.5 -121.5t-32.5 -109.5q0 -51 51 -75q54 -23 127 -23h55q-101 -191 -213 -324l-97 16q23 42 44.5 85.5l43.5 89.5q-78 19 -126 71t-48 133q0 104 82 225q83 122 199 195l1 6q-69 -6 -101 -6h-60l28 133h343z" />
    <glyph glyph-name="eta" unicode="&#x3b7;" horiz-adv-x="599" 
d="M122 538h140l-2 -45q64 57 126 57q169 0 169 -160q0 -22 -2 -42.5t-6 -40.5l-110 -523h-155l108 515l3.5 23t1.5 18q0 62 -58 62q-19 0 -44 -12t-40 -24l-15 -12l-74 -354h-156z" />
    <glyph glyph-name="theta" unicode="&#x3b8;" horiz-adv-x="659" 
d="M399 627q-26 0 -50 -13t-45.5 -36t-39 -56t-29.5 -73h265v16q0 75 -26 118.5t-75 43.5zM312 137q52 0 96 49t69 130h-266v-15q0 -75 26.5 -119.5t74.5 -44.5zM411 775q108 0 174 -81q67 -80 67 -223q0 -109 -30.5 -202t-81.5 -153t-113.5 -93.5t-128.5 -33.5
q-106 0 -174 80q-66 79 -66 221q0 109 30 202.5t81 153.5q51 61 113.5 95t128.5 34z" />
    <glyph glyph-name="iota" unicode="&#x3b9;" horiz-adv-x="303" 
d="M228 -4q-77 1 -128 52q-49 49 -49 124q0 17 5 45l69 321h156l-68 -319q-1 -5 -1.5 -9t-0.5 -7q0 -24 13 -40.5t35 -19.5z" />
    <glyph glyph-name="kappa" unicode="&#x3ba;" horiz-adv-x="590" 
d="M124 538h155l-13 -60q-3 -11 -6.5 -26.5t-7.5 -31l-7.5 -29t-4.5 -20.5h4l75.5 74l99.5 93h206l-281 -255l172 -283h-179l-106 185l-34 -30l-33 -155h-154z" />
    <glyph glyph-name="lambda" unicode="&#x3bb;" horiz-adv-x="608" 
d="M554 0h-163l-46 189q-5 20 -8.5 40.5t-5.5 41.5h-10q-9 -24 -45 -79l-128 -192h-180l308 458l-81 306h162z" />
    <glyph glyph-name="uni03BC" unicode="&#x3bc;" horiz-adv-x="599" 
d="M-29 -216l160 754h157l-67 -307q-4 -15 -4 -34q0 -62 63 -62q16 0 40 11.5t40 23.5l15 12l76 356h155l-114 -538h-143v33q-74 -45 -110 -45q-38 0 -66 14l-47 -218h-155z" />
    <glyph glyph-name="nu" unicode="&#x3bd;" horiz-adv-x="598" 
d="M459 538h182l-351 -538h-97l-130 538h160l42 -199q5 -26 8.5 -49.5t4.5 -43.5h7q13 40 48 93z" />
    <glyph glyph-name="xi" unicode="&#x3be;" horiz-adv-x="520" 
d="M177 -166l47 89.5t41 85.5q-45 10 -83 29.5t-65.5 48t-42.5 65.5t-15 82q0 61 27 117.5t82 94.5q-34 37 -34 91q0 100 85 169t191 69q56 0 149 -32l-32 -155q-69 39 -140 39q-17 0 -33 -5t-29 -15t-21 -23.5t-8 -29.5q0 -23 24.5 -36.5t66.5 -13.5h85l-29 -133h-77
q-32 0 -59.5 -8t-48 -22t-32 -34.5t-11.5 -45.5q0 -60 66 -90q67 -29 151 -29h56q-102 -191 -213 -324z" />
    <glyph glyph-name="omicron" unicode="&#x3bf;" horiz-adv-x="616" 
d="M345 550q107 0 171 -70q66 -69 66 -172q0 -127 -93 -223t-221 -96q-107 0 -172 68q-64 68 -64 173q0 127 93 223q93 97 220 97zM282 137q53 0 97 47t44 113q0 48 -26 76.5t-65 28.5q-55 0 -98 -48q-44 -49 -44 -114q0 -46 27 -74.5t65 -28.5z" />
    <glyph glyph-name="pi" unicode="&#x3c0;" horiz-adv-x="616" 
d="M537 -4q-77 1 -128 52q-49 49 -49 124q0 20 6 44l41 190h-141l-86 -406h-155l86 406h-63l28 132h583l-29 -132h-69l-39 -187q-1 -5 -1.5 -9t-0.5 -7q0 -24 13 -40.5t35 -19.5z" />
    <glyph glyph-name="rho" unicode="&#x3c1;" horiz-adv-x="643" 
d="M377 550q106 0 171 -69q66 -68 66 -171q0 -128 -93 -225q-92 -96 -219 -96q-71 0 -132 36l-51 -241h-155l101 481q28 134 105.5 209.5t206.5 75.5zM316 138q53 0 96 46t43 111q0 48 -27.5 77.5t-67.5 29.5q-24 0 -46.5 -9.5t-41 -27.5t-32 -42.5t-19.5 -54.5l-13 -65
q13 -24 41.5 -44.5t66.5 -20.5z" />
    <glyph glyph-name="uni03C2" unicode="&#x3c2;" horiz-adv-x="492" 
d="M144 -166l44.5 85l42.5 88q-87 22 -141 77.5t-54 140.5q0 147 97 235q97 90 228 90q69 0 130 -34l-34 -155q-46 41 -111 41q-53 0 -99 -39t-46 -105q1 -32 19 -54.5t46.5 -36.5t64.5 -20.5t74 -5.5h50q-101 -189 -213 -323z" />
    <glyph glyph-name="sigma" unicode="&#x3c3;" horiz-adv-x="623" 
d="M681 538l-29 -131h-20q-17 0 -32.5 0.5t-28.5 1.5v-12q24 -36 24 -95q0 -126 -94 -220q-93 -93 -221 -93q-108 0 -174 66q-65 67 -65 169q0 127 93 220q94 94 222 94h325zM293 138q54 0 98 44q43 43 43 109q0 48 -25.5 73.5t-64.5 25.5q-56 0 -99 -45q-43 -44 -43 -110
q0 -46 26.5 -71.5t64.5 -25.5z" />
    <glyph glyph-name="tau" unicode="&#x3c4;" horiz-adv-x="428" 
d="M297 -4q-77 1 -128 52q-49 49 -49 124q0 20 6 44l40 190h-112l29 132h382l-28 -132h-117l-39 -187q-1 -5 -1.5 -9t-0.5 -7q0 -24 13.5 -40.5t35.5 -19.5z" />
    <glyph glyph-name="upsilon" unicode="&#x3c5;" horiz-adv-x="608" 
d="M566 538q20 -60 20 -137q0 -94 -28 -173t-74 -131q-45 -51 -101.5 -79.5t-116.5 -28.5q-94 0 -154 45q-59 45 -59 125q0 38 8 67l66 312h155l-63 -297q-3 -18 -3 -34q0 -69 65 -69q52 0 96 72q44 73 44 166q0 94 -36 162h181z" />
    <glyph glyph-name="phi" unicode="&#x3c6;" horiz-adv-x="778" 
d="M444 140q70 0 114 53q43 52 43 125q0 45 -17 64.5t-39 19.5q-45 0 -56 -50zM558 550q85 0 146 -56q60 -56 60 -151q0 -142 -101 -248q-101 -105 -250 -105l-43 -206h-155l45 206q-99 0 -166 67q-66 67 -66 161q0 129 90 222q91 94 208 109l-33 -152q-40 -18 -72 -62
q-31 -43 -31 -94q0 -43 28 -71.5t74 -29.5l44 207q20 96 78.5 149.5t143.5 53.5z" />
    <glyph glyph-name="chi" unicode="&#x3c7;" horiz-adv-x="628" 
d="M661 538l-258 -272l150 -266h-175l-52 105q-8 14 -22 54h-6q-17 -29 -42 -56l-90 -103h-203l270 285l-141 253h174l42 -89q21 -47 24 -57h5q20 26 30.5 41t12.5 17l79 88h202z" />
    <glyph glyph-name="psi" unicode="&#x3c8;" horiz-adv-x="829" 
d="M648 376q0 98 -35 162h180q19 -58 19 -138q0 -96 -33 -174.5t-87 -129.5t-119 -78t-134 -27l-43 -207h-156l44 207q-97 0 -164 49t-67 133q0 18 7 53l66 312h155l-63 -292q-2 -10 -2 -25q0 -21 8.5 -36t22.5 -24.5t32 -14.5t38 -5l122 571h152l-122 -571q62 0 121 69
q58 70 58 166z" />
    <glyph glyph-name="omega" unicode="&#x3c9;" horiz-adv-x="885" 
d="M705 377q0 93 -36 161h180q21 -62 21 -135q0 -94 -28.5 -173.5t-76.5 -131.5q-48 -51 -105 -80t-117 -29q-83 0 -130 43q-65 -43 -149 -43q-87 0 -150 65q-62 67 -62 171q0 158 117 313h180q-26 -28 -49.5 -61.5t-43.5 -75.5q-41 -84 -41 -154q0 -51 19 -80.5t52 -29.5
t52.5 22t31.5 79l38 179h151l-38 -177q-6 -30 -6 -51q0 -29 11.5 -40.5t37.5 -11.5q53 0 96 73q45 73 45 167z" />
    <glyph glyph-name="iotadieresis" unicode="&#x3ca;" horiz-adv-x="303" 
d="M228 -4q-77 1 -128 52q-49 49 -49 124q0 17 5 45l69 321h156l-68 -319q-1 -5 -1.5 -9t-0.5 -7q0 -24 13 -40.5t35 -19.5zM135 605q-27 0 -45.5 18.5t-18.5 45.5q0 32 23.5 55.5t55.5 23.5q28 0 46.5 -19t18.5 -48q0 -15 -6.5 -28.5t-17.5 -24t-25.5 -17t-30.5 -6.5z
M327 748q28 0 46.5 -19t18.5 -48q0 -15 -7 -29t-18 -24.5t-25.5 -16.5t-29.5 -6q-27 0 -45.5 18.5t-18.5 45.5q0 32 23.5 55.5t55.5 23.5z" />
    <glyph glyph-name="upsilondieresis" unicode="&#x3cb;" horiz-adv-x="608" 
d="M566 538q20 -60 20 -137q0 -94 -28 -173t-74 -131q-45 -51 -101.5 -79.5t-116.5 -28.5q-94 0 -154 45q-59 45 -59 125q0 38 8 67l66 312h155l-63 -297q-3 -18 -3 -34q0 -69 65 -69q52 0 96 72q44 73 44 166q0 94 -36 162h181zM282 605q-27 0 -45.5 18.5t-18.5 45.5
q0 32 23.5 55.5t55.5 23.5q28 0 46.5 -19t18.5 -48q0 -15 -6.5 -28.5t-17.5 -24t-25.5 -17t-30.5 -6.5zM474 748q28 0 46.5 -19t18.5 -48q0 -15 -7 -29t-18 -24.5t-25.5 -16.5t-29.5 -6q-27 0 -45.5 18.5t-18.5 45.5q0 32 23.5 55.5t55.5 23.5z" />
    <glyph glyph-name="omicrontonos" unicode="&#x3cc;" horiz-adv-x="616" 
d="M345 550q107 0 171 -70q66 -69 66 -172q0 -127 -93 -223t-221 -96q-107 0 -172 68q-64 68 -64 173q0 127 93 223q93 97 220 97zM282 137q53 0 97 47t44 113q0 48 -26 76.5t-65 28.5q-55 0 -98 -48q-44 -49 -44 -114q0 -46 27 -74.5t65 -28.5zM402 830l94 -46l-127 -202
l-78 40z" />
    <glyph glyph-name="upsilontonos" unicode="&#x3cd;" horiz-adv-x="608" 
d="M566 538q20 -60 20 -137q0 -94 -28 -173t-74 -131q-45 -51 -101.5 -79.5t-116.5 -28.5q-94 0 -154 45q-59 45 -59 125q0 38 8 67l66 312h155l-63 -297q-3 -18 -3 -34q0 -69 65 -69q52 0 96 72q44 73 44 166q0 94 -36 162h181zM392 830l94 -46l-127 -202l-78 40z" />
    <glyph glyph-name="omegatonos" unicode="&#x3ce;" horiz-adv-x="885" 
d="M705 377q0 93 -36 161h180q21 -62 21 -135q0 -94 -28.5 -173.5t-76.5 -131.5q-48 -51 -105 -80t-117 -29q-83 0 -130 43q-65 -43 -149 -43q-87 0 -150 65q-62 67 -62 171q0 158 117 313h180q-26 -28 -49.5 -61.5t-43.5 -75.5q-41 -84 -41 -154q0 -51 19 -80.5t52 -29.5
t52.5 22t31.5 79l38 179h151l-38 -177q-6 -30 -6 -51q0 -29 11.5 -40.5t37.5 -11.5q53 0 96 73q45 73 45 167zM552 830l94 -46l-127 -202l-78 40z" />
    <glyph glyph-name="uni0400" unicode="&#x400;" horiz-adv-x="563" 
d="M20 0l151 712h432l-32 -152h-274l-27 -126h266l-31 -147h-266l-29 -135h274l-32 -152h-432zM554 807l-62 -78l-213 150l73 93z" />
    <glyph glyph-name="afii10023" unicode="&#x401;" horiz-adv-x="563" 
d="M20 0l151 712h432l-32 -152h-274l-27 -126h266l-31 -147h-266l-29 -135h274l-32 -152h-432zM319 779q-27 0 -45.5 18.5t-18.5 45.5q0 32 23.5 55.5t55.5 23.5q28 0 46.5 -19t18.5 -48q0 -15 -6.5 -28.5t-17.5 -24t-25.5 -17t-30.5 -6.5zM511 922q28 0 46.5 -19t18.5 -48
q0 -15 -7 -29t-18 -24.5t-25.5 -16.5t-29.5 -6q-27 0 -45.5 18.5t-18.5 45.5q0 32 23.5 55.5t55.5 23.5z" />
    <glyph glyph-name="afii10051" unicode="&#x402;" horiz-adv-x="731" 
d="M687 319q0 -149 -87 -233t-225 -91l32 149q24 0 44.5 10t36 27.5t24.5 42.5t9 55q0 48 -56 48q-48 0 -115 -15l-66 -312h-159l118 556h-158l33 156h475l-33 -156h-158l-21 -95q42 7 75.5 10.5t60.5 3.5q85 0 127.5 -40.5t42.5 -115.5z" />
    <glyph glyph-name="afii10052" unicode="&#x403;" horiz-adv-x="467" 
d="M297 556l-118 -556h-158l151 712h379l-33 -156h-221zM289 729l-48 80l239 164l54 -96z" />
    <glyph glyph-name="afii10053" unicode="&#x404;" horiz-adv-x="610" 
d="M460 567q-69 0 -125 -37t-88 -100h265l-31 -147h-260q10 -61 53.5 -99t110.5 -38q43 0 78 9l40.5 12.5t52.5 18.5l-37 -174q-104 -23 -149 -23q-135 0 -224 89q-88 88 -88 223q-1 56 14.5 110t44 101t68 87t86.5 68t99 43t105 14q89 0 190 -27l-35 -163q-74 33 -170 33z
" />
    <glyph glyph-name="afii10054" unicode="&#x405;" horiz-adv-x="555" 
d="M506 244q0 -111 -78 -183t-191 -72q-116 0 -197 81l34 166q17 -19 39.5 -35t48.5 -30q54 -27 101 -27q35 0 58.5 17.5t23.5 49.5q0 20 -18 36t-45 32l-58.5 34t-58.5 41.5t-45 55.5t-18 76q0 108 73 172q73 66 175 66q119 0 189 -70l-34 -161q-80 76 -180 76
q-24 0 -42.5 -14.5t-18.5 -40.5q0 -18 25 -37t60 -39q26 -13 54 -31t51 -41.5t37.5 -54t14.5 -67.5z" />
    <glyph glyph-name="afii10055" unicode="&#x406;" horiz-adv-x="300" 
d="M329 712l-151 -712h-160l151 712h160z" />
    <glyph glyph-name="afii10056" unicode="&#x407;" horiz-adv-x="300" 
d="M182 779q-27 0 -45.5 18.5t-18.5 45.5q0 32 23.5 55.5t55.5 23.5q28 0 46.5 -19t18.5 -48q0 -15 -6.5 -28.5t-17.5 -24t-25.5 -17t-30.5 -6.5zM374 922q28 0 46.5 -19t18.5 -48q0 -15 -7 -29t-18 -24.5t-25.5 -16.5t-29.5 -6q-27 0 -45.5 18.5t-18.5 45.5q0 32 23.5 55.5
t55.5 23.5zM329 712l-151 -712h-160l151 712h160z" />
    <glyph glyph-name="afii10057" unicode="&#x408;" horiz-adv-x="423" 
d="M305 712h161l-101 -471q-27 -124 -100 -188t-174 -64q-54 0 -97 15l35 166q32 -19 65 -19q39 0 71 23t42 74z" />
    <glyph glyph-name="afii10058" unicode="&#x409;" horiz-adv-x="975" 
d="M736 451q102 0 161 -62q59 -61 43 -164q-16 -102 -98 -164q-79 -61 -182 -61h-263l118 556h-186l-66 -307q-26 -122 -110 -188q-83 -66 -188 -66l35 162q37 0 65.5 23.5t39.5 72.5l98 459h503l-56 -261h86zM677 150q38 0 66.5 20t35.5 55q8 35 -12 55t-58 20h-91
l-32 -150h91z" />
    <glyph glyph-name="afii10059" unicode="&#x40a;" horiz-adv-x="974" 
d="M735 451q102 0 161 -62q59 -61 43 -164q-16 -102 -98 -164q-79 -61 -182 -61h-263l62 294h-217l-62 -294h-158l151 712h158l-56 -261h217l56 261h158l-56 -261h86zM676 150q38 0 66.5 20t35.5 55q8 35 -12 55t-58 20h-91l-32 -150h91z" />
    <glyph glyph-name="afii10060" unicode="&#x40b;" horiz-adv-x="732" 
d="M521 475q82 0 123 -39t41 -114q0 -15 -2 -33t-6 -39l-53 -250h-155l50 238q2 12 3 20t1 13q0 56 -54 56q-52 0 -119 -15l-66 -312h-159l118 556h-158l33 156h475l-33 -156h-158l-21 -95q42 7 76.5 10.5t63.5 3.5z" />
    <glyph glyph-name="afii10061" unicode="&#x40c;" horiz-adv-x="675" 
d="M331 712l-59 -278h15q39 57 70 89l180 189h209l-294 -304q29 -12 52 -30.5t37 -37.5q15 -19 25.5 -48t15.5 -51q2 -11 4 -25.5t4 -33.5q3 -36 3 -58q1 -11 1 -27v-36q1 -20 1 -35.5v-25.5h-158v54q1 17 1 30.5v22.5q0 19 -2.5 46t-8.5 42t-19 33t-33 27q-19 9 -48.5 15.5
t-69.5 6.5h-19l-58 -277h-159l151 712h159zM357 729l-48 80l239 164l54 -96z" />
    <glyph glyph-name="uni040D" unicode="&#x40d;" horiz-adv-x="711" 
d="M172 712h159l-67 -314q-6 -25 -11.5 -45.5l-10.5 -37.5h5q3 3 10.5 12l16.5 19.5l18 21.5t16 18l304 326h129l-151 -712h-158l71 338q1 7 4 18.5l6 23l5.5 21.5t3.5 13h-4q-17 -22 -33 -40.5t-30 -32.5l-319 -341h-115zM616 807l-62 -78l-213 150l73 93z" />
    <glyph glyph-name="afii10062" unicode="&#x40e;" horiz-adv-x="654" 
d="M202 0h-185l231 307l-159 405h169l73 -182q4 -7 19 -67h7q11 27 41 66l139 183h192zM622 895q-39 -72 -94 -103.5t-110 -31.5q-54 0 -102.5 33t-74.5 105l96 40q17 -48 38.5 -62t50.5 -14q12 0 25.5 2t27.5 9.5t28.5 23t29.5 42.5z" />
    <glyph glyph-name="afii10145" unicode="&#x40f;" horiz-adv-x="677" 
d="M183 -176l38 176h-200l151 712h158l-118 -556h219l118 556h158l-151 -712h-202l-38 -176h-133z" />
    <glyph glyph-name="afii10017" unicode="&#x410;" horiz-adv-x="739" 
d="M530 712l158 -712h-169l-27 145h-269l-87 -145h-185l460 712h119zM310 291h155l-15 101q-7 49 -12 113h-9q-17 -37 -32 -65.5t-27 -48.5z" />
    <glyph glyph-name="afii10018" unicode="&#x411;" horiz-adv-x="599" 
d="M585 556h-288l-23 -105h86q102 0 161 -62q59 -61 43 -164q-16 -102 -98 -164q-79 -61 -182 -61h-263l151 712h446zM301 150q38 0 66.5 20t35.5 55q8 35 -12 55t-58 20h-91l-32 -150h91z" />
    <glyph glyph-name="afii10019" unicode="&#x412;" horiz-adv-x="602" 
d="M296 563l-28 -131h74q36 0 62.5 20t26.5 58q0 25 -18.5 39t-47.5 14h-69zM238 289l-30 -139h89q42 0 71.5 22t29.5 64q0 53 -77 53h-83zM589 540q0 -101 -83 -169q57 -45 57 -120q0 -114 -88 -183q-88 -68 -195 -68h-260l151 712h211q104 0 155.5 -48.5t51.5 -123.5z" />
    <glyph glyph-name="afii10020" unicode="&#x413;" horiz-adv-x="467" 
d="M297 556l-118 -556h-158l151 712h379l-33 -156h-221z" />
    <glyph glyph-name="afii10021" unicode="&#x414;" horiz-adv-x="810" 
d="M1 156h85q14 13 35 41.5t45.5 76.5t51.5 118t52 168l40 152h467l-119 -556h93l-62 -291h-133l29 135h-484l-29 -135h-132zM417 556l-28.5 -101.5t-30.5 -98t-41 -98.5t-60 -102h243l85 400h-168z" />
    <glyph glyph-name="afii10022" unicode="&#x415;" horiz-adv-x="563" 
d="M20 0l151 712h432l-32 -152h-274l-27 -126h266l-31 -147h-266l-29 -135h274l-32 -152h-432z" />
    <glyph glyph-name="afii10024" unicode="&#x416;" horiz-adv-x="999" 
d="M383 178l14 59.5t14 50.5h-17q-5 -8 -12 -17l-13.5 -17.5l-12 -15.5t-8.5 -10l-221 -228h-205l374 381l-201 331h182l126 -203q8 -12 12.5 -23t8.5 -19l7 -18h14l9.5 60.5t12.5 67.5l29 135h157l-29 -135q-7 -33 -15.5 -67.5t-16.5 -60.5h17l20 29.5t26 30.5l197 203h202
l-345 -348l217 -364h-186l-140 228q-2 3 -5 9.5l-7 15t-7.5 18t-5.5 17.5h-17q-3 -26 -6.5 -50.5t-11.5 -59.5l-38 -178h-157z" />
    <glyph glyph-name="afii10025" unicode="&#x417;" horiz-adv-x="521" 
d="M163 303l28 146h41q63 0 96.5 20t33.5 50q0 21 -16.5 34.5t-41.5 13.5q-109 0 -186 -67l34 183q88 41 173 41q87 0 142 -52q56 -53 56 -131q0 -105 -80 -170q46 -43 46 -109q0 -118 -82 -196q-83 -77 -201 -77q-105 0 -190 55l33 158q61 -56 167 -56q23 0 43.5 6.5t36 19
t24.5 30t9 38.5q0 14 -10 25.5t-27 20t-39.5 13t-48.5 4.5h-41z" />
    <glyph glyph-name="afii10026" unicode="&#x418;" horiz-adv-x="711" 
d="M172 712h159l-67 -314q-6 -25 -11.5 -45.5l-10.5 -37.5h5q3 3 10.5 12l16.5 19.5l18 21.5t16 18l304 326h129l-151 -712h-158l71 338q1 7 4 18.5l6 23l5.5 21.5t3.5 13h-4q-17 -22 -33 -40.5t-30 -32.5l-319 -341h-115z" />
    <glyph glyph-name="afii10027" unicode="&#x419;" horiz-adv-x="711" 
d="M172 712h159l-67 -314q-6 -25 -11.5 -45.5l-10.5 -37.5h5q3 3 10.5 12l16.5 19.5l18 21.5t16 18l304 326h129l-151 -712h-158l71 338q1 7 4 18.5l6 23l5.5 21.5t3.5 13h-4q-17 -22 -33 -40.5t-30 -32.5l-319 -341h-115zM675 895q-39 -72 -94 -103.5t-110 -31.5
q-54 0 -102.5 33t-74.5 105l96 40q17 -48 38.5 -62t50.5 -14q12 0 25.5 2t27.5 9.5t28.5 23t29.5 42.5z" />
    <glyph glyph-name="afii10028" unicode="&#x41a;" horiz-adv-x="662" 
d="M249 248q-2 3 -6 9.5t-8.5 15t-9 18t-6.5 17.5h-7q-3 -26 -6.5 -50.5t-11.5 -59.5l-42 -198h-156l150 712h157l-33 -156q-7 -33 -15.5 -67.5t-16.5 -60.5h7q5 8 12.5 17.5t15 18t14 15l9.5 9.5l216 224h205l-348 -351l230 -361h-199z" />
    <glyph glyph-name="afii10029" unicode="&#x41b;" horiz-adv-x="676" 
d="M203 712h503l-151 -712h-158l118 556h-186l-66 -307q-26 -122 -110 -188q-83 -66 -188 -66l35 162q37 0 65.5 23.5t39.5 72.5z" />
    <glyph glyph-name="afii10030" unicode="&#x41c;" horiz-adv-x="833" 
d="M177 0h-158l151 712h96l187 -237l287 237h122l-151 -712h-158l67 315q6 28 16.5 64.5l24.5 82.5h-7q-73 -76 -109 -106l-127 -104l-82 104q-11 13 -26.5 39.5l-37.5 66.5h-7q-11 -95 -21 -147z" />
    <glyph glyph-name="afii10031" unicode="&#x41d;" horiz-adv-x="677" 
d="M488 451l56 261h162l-151 -712h-162l63 294h-215l-63 -294h-160l151 712h160l-56 -261h215z" />
    <glyph glyph-name="afii10032" unicode="&#x41e;" horiz-adv-x="804" 
d="M481 724q136 0 223 -88q87 -89 87 -222q0 -114 -61 -212q-60 -99 -158 -156t-204 -57q-134 0 -221 87q-86 89 -86 221q0 112 59 212q60 99 157 157t204 58zM385 146q100 0 172 76t72 179q0 36 -11 66.5t-32 52.5t-51 34.5t-67 12.5q-100 0 -173 -78q-72 -77 -72 -179
q0 -36 11.5 -66t32.5 -51.5t51 -34t67 -12.5z" />
    <glyph glyph-name="afii10033" unicode="&#x41f;" horiz-adv-x="677" 
d="M172 712h535l-151 -712h-158l118 556h-219l-118 -556h-158z" />
    <glyph glyph-name="afii10034" unicode="&#x420;" horiz-adv-x="581" 
d="M295 557l-37 -174h53q27 0 51 8t41 22t27 34t10 44q0 30 -24.5 48t-66.5 18h-54zM169 712h198q57 0 101 -14.5t73.5 -41t45 -63t15.5 -81.5q0 -75 -27.5 -128.5t-72 -88.5t-101.5 -51.5t-116 -16.5h-60l-48 -227h-159z" />
    <glyph glyph-name="afii10035" unicode="&#x421;" horiz-adv-x="617" 
d="M532 28q-89 -39 -163 -39q-135 0 -222 87q-86 89 -86 221q-2 84 33.5 162.5t95 138t136 94t156.5 32.5q74 0 166 -47l-38 -176q-74 66 -142 66q-100 0 -173 -78q-72 -77 -72 -179q0 -71 44 -118t118 -47q69 0 188 80z" />
    <glyph glyph-name="afii10036" unicode="&#x422;" horiz-adv-x="509" 
d="M400 556l-118 -556h-161l117 556h-157l33 156h476l-33 -156h-157z" />
    <glyph glyph-name="afii10037" unicode="&#x423;" horiz-adv-x="668" 
d="M315 524q8 -26 13.5 -50l9.5 -43q4 -22 8 -41h8q8 19 19 41l23.5 43t31.5 50l128 188h192l-487 -712h-181l151 223l-151 489h178z" />
    <glyph glyph-name="afii10038" unicode="&#x424;" horiz-adv-x="804" 
d="M571 661q9 0 30.5 -5t55.5 -21q24 -10 48 -28t43 -44.5t31 -62.5t13 -82q0 -51 -10.5 -93.5t-28.5 -77t-42.5 -61.5t-52.5 -47q-35 -27 -72 -44.5t-68 -27t-52.5 -13t-24.5 -3.5l-17 -80h-158l17 80q-10 0 -31 5t-56 21q-36 17 -63 40q-29 25 -50.5 71.5t-21.5 104.5
q0 80 24.5 138.5t62 99.5t82 66.5t84 39.5t67 19t32.5 5l17 79h158zM380 505q-11 0 -30 -6.5t-44 -21.5t-47.5 -46.5t-31.5 -74.5q-11 -48 -2 -77t26 -45.5t36 -21.5t29 -5zM474 207q10 0 29 6.5t44 21.5q26 15 48.5 47t31.5 74q7 48 1.5 77.5t-25.5 45.5t-35.5 21t-29.5 5z
" />
    <glyph glyph-name="afii10039" unicode="&#x425;" horiz-adv-x="680" 
d="M743 712l-298 -352l167 -360h-182l-69 162q-17 38 -25 69h-5q-2 -2 -7.5 -10l-14.5 -22l-16.5 -23t-13.5 -17l-129 -159h-207l321 381l-149 331h174l57 -131q16 -36 26 -76h6q27 48 52 79l105 128h208z" />
    <glyph glyph-name="afii10040" unicode="&#x426;" horiz-adv-x="735" 
d="M9 0l152 712h158l-119 -556h219l119 556h158l-119 -556h99l-62 -292h-149l29 136h-485z" />
    <glyph glyph-name="afii10041" unicode="&#x427;" horiz-adv-x="626" 
d="M553 0h-158l53 251q-42 -7 -79 -10.5t-72 -3.5q-195 0 -147 225l53 250h157l-51 -238q-20 -89 47 -89q56 0 124 15l66 312h158z" />
    <glyph glyph-name="afii10042" unicode="&#x428;" horiz-adv-x="1003" 
d="M849 712h158l-151 -712h-860l150 712h158l-118 -556h194l118 556h158l-118 -556h193z" />
    <glyph glyph-name="afii10043" unicode="&#x429;" horiz-adv-x="1061" 
d="M791 -136l29 136h-811l152 712h158l-119 -556h194l119 556h158l-119 -556h193l119 556h158l-119 -556h99l-62 -292h-149z" />
    <glyph glyph-name="afii10044" unicode="&#x42a;" horiz-adv-x="698" 
d="M459 451q102 0 161 -62q59 -61 43 -164q-16 -102 -98 -164q-79 -61 -182 -61h-263l118 556h-153l33 156h311l-56 -261h86zM400 150q38 0 66.5 20t35.5 55q8 35 -12 55t-58 20h-91l-32 -150h91z" />
    <glyph glyph-name="afii10045" unicode="&#x42b;" horiz-adv-x="883" 
d="M360 451q102 0 161 -62q59 -61 43 -164q-16 -102 -98 -164q-79 -61 -182 -61h-263l151 712h158l-56 -261h86zM301 150q38 0 66.5 20t35.5 55q8 35 -12 55t-58 20h-91l-32 -150h91zM912 712l-151 -712h-160l151 712h160z" />
    <glyph glyph-name="afii10046" unicode="&#x42c;" horiz-adv-x="599" 
d="M360 451q102 0 161 -62q59 -61 43 -164q-16 -102 -98 -164q-79 -61 -182 -61h-263l151 712h158l-56 -261h86zM301 150q38 0 66.5 20t35.5 55q8 35 -12 55t-58 20h-91l-32 -150h91z" />
    <glyph glyph-name="afii10047" unicode="&#x42d;" horiz-adv-x="611" 
d="M201 146q69 0 125 37t88 100h-265l31 147h260q-10 61 -53.5 99t-110.5 38q-44 0 -78 -9l-40.5 -12.5t-52.5 -18.5l37 174q104 23 149 23q135 0 224 -89q88 -88 88 -223q1 -56 -14.5 -110t-44 -101.5t-68 -87t-86.5 -67.5t-99 -43.5t-105 -13.5q-90 0 -190 27l35 163
q73 -33 170 -33z" />
    <glyph glyph-name="afii10048" unicode="&#x42e;" horiz-adv-x="1104" 
d="M781 724q136 0 223 -88q87 -89 87 -222q0 -114 -61 -212q-60 -99 -158 -156t-204 -57q-133 0 -218 85q-86 86 -89 215h-121l-61 -289h-158l151 712h158l-59 -278h114q46 126 157 208q110 82 239 82zM685 146q100 0 172 76t72 179q0 36 -11 66.5t-32 52.5t-51 34.5
t-67 12.5q-100 0 -173 -78q-72 -77 -72 -179q0 -36 11.5 -66t32.5 -51.5t51 -34t67 -12.5z" />
    <glyph glyph-name="afii10049" unicode="&#x42f;" horiz-adv-x="629" 
d="M167 0h-205l265 281q-55 27 -79 81.5t-12 123.5q16 97 93 162q76 64 198 64h232l-151 -712h-158l54 257h-7zM436 405l33 159h-64q-43 0 -72.5 -21.5t-37.5 -56.5q-8 -37 12.5 -59t63.5 -22h65z" />
    <glyph glyph-name="afii10065" unicode="&#x430;" horiz-adv-x="640" 
d="M329 550q77 0 142 -59l9 47h156l-114 -538h-136l3 47q-70 -58 -137 -58q-105 0 -163 64t-58 163q0 127 86 231q85 103 212 103zM277 136q27 0 50.5 10t42 28t32.5 42.5t21 53.5l17 69q-12 23 -40 43t-68 20q-59 0 -101 -50q-41 -50 -41 -121q0 -45 22.5 -70t64.5 -25z
" />
    <glyph glyph-name="afii10066" unicode="&#x431;" horiz-adv-x="633" 
d="M272 137q30 0 56.5 14.5t46 38t31 53.5t11.5 60q0 45 -25 72t-63 27q-32 0 -58.5 -14.5t-46.5 -38t-31 -53.5t-11 -62q0 -42 24.5 -69.5t65.5 -27.5zM648 676q-22 -24 -44 -38.5t-46.5 -23t-52.5 -11t-61 -2.5q-31 0 -60 -1.5t-56.5 -11t-53 -30.5t-49.5 -59h10
q22 20 58 35t85 15q48 0 85 -15.5t63 -44t39.5 -67.5t13.5 -87q0 -66 -24.5 -128t-69 -110.5t-106.5 -78t-137 -29.5q-47 0 -87.5 15.5t-69.5 45t-45.5 73t-16.5 100.5q0 105 28.5 199.5t84 165.5t137.5 113t190 42q32 0 59.5 5.5t53.5 27.5z" />
    <glyph glyph-name="afii10067" unicode="&#x432;" horiz-adv-x="546" 
d="M503 402q0 -68 -59 -121q43 -42 43 -91q0 -88 -66 -139t-156 -51h-250l114 538h194q91 0 135.5 -38t44.5 -98zM258 419l-19 -90h60q19 0 34.5 14t15.5 41q0 16 -10 25.5t-27 9.5h-54zM215 217l-20 -96h67q24 0 42.5 16t18.5 44q0 36 -47 36h-61z" />
    <glyph glyph-name="afii10068" unicode="&#x433;" horiz-adv-x="412" 
d="M255 404l-86 -404h-154l114 538h332l-29 -134h-177z" />
    <glyph glyph-name="afii10069" unicode="&#x434;" horiz-adv-x="716" 
d="M16 134h66q18 18 36 46.5t35 64.5t32.5 77.5t27.5 85.5l36 130h418l-86 -404h87l-55 -257h-134l26 123h-385l-26 -123h-132zM351 355q-26 -83 -55 -140t-52 -81h182l58 274h-119z" />
    <glyph glyph-name="afii10070" unicode="&#x435;" horiz-adv-x="569" 
d="M395 335q0 42 -19 66t-54 24q-36 0 -65.5 -25t-45.5 -65h184zM426 27q-78 -38 -165 -38q-105 0 -167 60t-62 168q0 144 87 239q88 94 219 94q44 0 80.5 -14.5t62.5 -42t40.5 -68.5t14.5 -95q0 -48 -11 -101h-333q1 -103 89 -103q100 0 176 55z" />
    <glyph glyph-name="afii10072" unicode="&#x436;" horiz-adv-x="862" 
d="M325 135q5 26 10.5 44.5l11.5 38.5h-15q-9 -12 -21.5 -26.5t-17.5 -19.5l-156 -172h-185l281 295l-149 243h166l88 -154q3 -5 9.5 -19.5t9.5 -26.5h15q3 20 8 48.5t10 53.5l21 98h154l-21 -98q-5 -25 -12.5 -53.5t-13.5 -48.5h15q9 12 21.5 26.5t17.5 19.5l144 154h176
l-261 -270l164 -268h-176l-92 172q-2 5 -9 19.5t-10 26.5h-15l-6 -38.5t-8 -44.5l-29 -135h-154z" />
    <glyph glyph-name="afii10073" unicode="&#x437;" horiz-adv-x="506" 
d="M120 228l23 106h83q42 0 65 13.5t23 34.5q0 16 -13.5 26.5t-35.5 10.5q-106 0 -185 -25l28 132q105 24 176 24q82 0 137 -41q55 -40 55 -106q0 -62 -58 -120q36 -39 36 -95q0 -46 -23.5 -83t-62 -63.5t-86.5 -40t-96 -12.5q-92 0 -194 24l29 135q81 -27 181 -27
q40 0 66.5 16t26.5 50q0 41 -91 41h-84z" />
    <glyph glyph-name="afii10074" unicode="&#x438;" horiz-adv-x="608" 
d="M128 538h155l-26 -120l-10 -45l-12 -54.5t-8 -32.5h8l30.5 34.5t48.5 50.5l160 167h136l-115 -538h-155l27 126l17 77l15 65h-8q-9 -13 -45 -52l-40 -44l-168 -172h-125z" />
    <glyph glyph-name="afii10075" unicode="&#x439;" horiz-adv-x="608" 
d="M128 538h155l-26 -120l-10 -45l-12 -54.5t-8 -32.5h8l30.5 34.5t48.5 50.5l160 167h136l-115 -538h-155l27 126l17 77l15 65h-8q-9 -13 -45 -52l-40 -44l-168 -172h-125zM588 721q-39 -72 -94 -103.5t-110 -31.5q-54 0 -102.5 33t-74.5 105l96 40q17 -48 38.5 -62
t50.5 -14q12 0 25.5 2t27.5 9.5t28.5 23t29.5 42.5z" />
    <glyph glyph-name="afii10076" unicode="&#x43a;" horiz-adv-x="586" 
d="M229 187q-14 24 -19 46h-5l-6 -38.5t-8 -44.5l-32 -150h-154l115 538h154l-25 -118q-5 -25 -12 -51t-13 -46h5q8 12 17.5 22.5l21.5 23.5l158 169h190l-260 -264l163 -274h-185z" />
    <glyph glyph-name="afii10077" unicode="&#x43b;" horiz-adv-x="585" 
d="M141 538h447l-115 -538h-155l88 407h-138l-48 -220q-20 -94 -93 -143q-71 -48 -170 -50l29 136q69 5 79 56z" />
    <glyph glyph-name="afii10078" unicode="&#x43c;" horiz-adv-x="700" 
d="M497 294l-160 -120l-107 119l-62 -293h-155l115 538h101l141 -165l213 165h121l-115 -538h-155z" />
    <glyph glyph-name="afii10079" unicode="&#x43d;" horiz-adv-x="581" 
d="M388 350l40 188h155l-114 -538h-156l46 215h-145l-45 -215h-155l114 538h155l-40 -188h145z" />
    <glyph glyph-name="afii10080" unicode="&#x43e;" horiz-adv-x="616" 
d="M345 550q107 0 171 -70q66 -69 66 -172q0 -127 -93 -223t-221 -96q-107 0 -172 68q-64 68 -64 173q0 127 93 223q93 97 220 97zM282 137q53 0 97 47t44 113q0 48 -26 76.5t-65 28.5q-55 0 -98 -48q-44 -49 -44 -114q0 -46 27 -74.5t65 -28.5z" />
    <glyph glyph-name="afii10081" unicode="&#x43f;" horiz-adv-x="572" 
d="M129 538h445l-114 -538h-155l87 407h-137l-86 -407h-155z" />
    <glyph glyph-name="afii10082" unicode="&#x440;" horiz-adv-x="639" 
d="M614 322q0 -81 -36 -157q-36 -74 -107 -126q-71 -50 -159 -50q-79 0 -144 38l-50 -243h-156l160 754h140l-3 -47q71 59 143 59q101 0 157 -65q55 -64 55 -163zM312 137q61 0 102 51q41 53 41 118q0 45 -23 70.5t-66 25.5q-27 0 -50.5 -10.5t-42.5 -28.5t-32.5 -43
t-19.5 -53l-19 -85q6 -7 17 -15t25.5 -14.5t32 -11t35.5 -4.5z" />
    <glyph glyph-name="afii10083" unicode="&#x441;" horiz-adv-x="483" 
d="M381 16q-63 -27 -120 -27q-103 0 -166 65q-62 67 -62 165q0 138 95 235q96 96 221 96q62 0 121 -35l-35 -161q-47 48 -103 48q-54 0 -97 -48q-44 -47 -44 -116q0 -45 24.5 -73t64.5 -28q69 0 137 48z" />
    <glyph glyph-name="afii10084" unicode="&#x442;" horiz-adv-x="433" 
d="M327 404l-85 -404h-155l85 404h-122l29 134h403l-29 -134h-126z" />
    <glyph glyph-name="afii10085" unicode="&#x443;" horiz-adv-x="596" 
d="M464 538h182l-509 -754h-177l212 308l-111 446h160l50 -197q4 -18 7.5 -38t6.5 -43h6q19 40 45 81z" />
    <glyph glyph-name="afii10086" unicode="&#x444;" horiz-adv-x="757" 
d="M524 548q8 0 27 -4t43.5 -13.5t50.5 -26.5t47.5 -41.5t35.5 -58.5t14 -79q0 -130 -101 -228q-101 -97 -236 -104l-43 -209h-155l45 209q-6 0 -24.5 4t-43 13.5t-51 25.5t-49 40.5t-37 58.5t-14.5 79q0 130 100 227t237 106l47 217h154zM340 398q-45 0 -95 -47
q-49 -46 -49 -114q0 -45 27 -70t64 -25zM436 142q52 0 97 45q46 45 46 115q0 22 -7.5 40t-20.5 30.5t-29 19t-34 6.5z" />
    <glyph glyph-name="afii10087" unicode="&#x445;" horiz-adv-x="628" 
d="M644 538l-258 -272l150 -266h-175l-52 105q-8 14 -22 54h-6q-17 -29 -42 -56l-90 -103h-203l270 285l-141 253h174l42 -89q21 -47 24 -57h5q20 26 30.5 41t12.5 17l79 88h202z" />
    <glyph glyph-name="afii10088" unicode="&#x446;" horiz-adv-x="633" 
d="M17 0l115 538h155l-86 -404h145l86 404h155l-86 -404h84l-55 -257h-134l26 123h-405z" />
    <glyph glyph-name="afii10089" unicode="&#x447;" horiz-adv-x="531" 
d="M416 0h-154l37 181q-28 -4 -53 -5.5t-47 -1.5q-136 0 -136 113q0 32 6 58l42 193h154l-39 -180q-1 -4 -1.5 -10t-0.5 -15q0 -34 27 -34q34 0 76 9l49 230h156z" />
    <glyph glyph-name="afii10090" unicode="&#x448;" horiz-adv-x="823" 
d="M663 538h155l-115 -538h-699l115 538h155l-87 -407h117l87 407h155l-87 -407h117z" />
    <glyph glyph-name="afii10091" unicode="&#x449;" horiz-adv-x="876" 
d="M17 0l115 538h155l-86 -404h117l86 404h155l-86 -404h116l86 404h155l-86 -404h84l-55 -257h-134l26 123h-648z" />
    <glyph glyph-name="afii10092" unicode="&#x44a;" horiz-adv-x="611" 
d="M392 350q78 0 124.5 -39t46.5 -108q0 -92 -69 -147q-70 -56 -163 -56h-225l86 404h-143l29 134h297l-40 -188h57zM342 122q23 0 42.5 18t19.5 44q0 19 -11.5 30.5t-30.5 11.5h-54l-21 -104h55z" />
    <glyph glyph-name="afii10093" unicode="&#x44b;" horiz-adv-x="791" 
d="M300 350q78 0 125 -39t47 -108q0 -92 -70 -147q-70 -56 -162 -56h-225l114 538h155l-41 -188h57zM252 122q22 0 41 18t19 44q0 19 -11.5 30.5t-30.5 11.5h-53l-22 -104h57zM783 538l-115 -538h-157l115 538h157z" />
    <glyph glyph-name="afii10094" unicode="&#x44c;" horiz-adv-x="521" 
d="M300 350q78 0 125 -39t47 -108q0 -92 -70 -147q-70 -56 -162 -56h-225l114 538h155l-41 -188h57zM252 122q22 0 41 18t19 44q0 19 -11.5 30.5t-30.5 11.5h-53l-22 -104h57z" />
    <glyph glyph-name="afii10095" unicode="&#x44d;" horiz-adv-x="496" 
d="M97 217l22 106h205q-5 43 -32 66.5t-65 23.5q-85 0 -169 -38l32 148q85 27 152 27q109 0 172.5 -59t63.5 -170q0 -156 -91 -244t-225 -88q-17 0 -39 3t-49 8q-27 6 -49.5 12t-41.5 13l29 132q63 -31 164 -31q39 0 74.5 22.5t54.5 68.5h-208z" />
    <glyph glyph-name="afii10096" unicode="&#x44e;" horiz-adv-x="906" 
d="M650 550q107 0 172 -69q65 -68 65 -171q0 -128 -93 -225q-93 -96 -221 -96q-95 0 -159 57q-64 58 -77 147h-129l-42 -193h-154l114 538h155l-43 -200h117q36 93 116 152q81 60 179 60zM587 138q52 0 96 47t44 113q0 48 -26 76t-64 28q-55 0 -98 -48q-44 -47 -44 -113
q0 -46 27 -74.5t65 -28.5z" />
    <glyph glyph-name="afii10097" unicode="&#x44f;" horiz-adv-x="548" 
d="M155 0h-193l189 208q-68 47 -68 124q0 86 67 146t183 60h217l-114 -538h-156l37 177h-12zM344 304l26 116h-58q-26 0 -44.5 -15.5t-23.5 -40.5q-5 -27 7 -43.5t39 -16.5h54z" />
    <glyph glyph-name="uni0450" unicode="&#x450;" horiz-adv-x="569" 
d="M395 335q0 42 -19 66t-54 24q-36 0 -65.5 -25t-45.5 -65h184zM426 27q-78 -38 -165 -38q-105 0 -167 60t-62 168q0 144 87 239q88 94 219 94q44 0 80.5 -14.5t62.5 -42t40.5 -68.5t14.5 -95q0 -48 -11 -101h-333q1 -103 89 -103q100 0 176 55zM507 633l-62 -78l-213 150
l73 93z" />
    <glyph glyph-name="afii10071" unicode="&#x451;" horiz-adv-x="569" 
d="M395 335q0 42 -19 66t-54 24q-36 0 -65.5 -25t-45.5 -65h184zM426 27q-78 -38 -165 -38q-105 0 -167 60t-62 168q0 144 87 239q88 94 219 94q44 0 80.5 -14.5t62.5 -42t40.5 -68.5t14.5 -95q0 -48 -11 -101h-333q1 -103 89 -103q100 0 176 55zM274 605q-27 0 -45.5 18.5
t-18.5 45.5q0 32 23.5 55.5t55.5 23.5q28 0 46.5 -19t18.5 -48q0 -15 -6.5 -28.5t-17.5 -24t-25.5 -17t-30.5 -6.5zM466 748q28 0 46.5 -19t18.5 -48q0 -15 -7 -29t-18 -24.5t-25.5 -16.5t-29.5 -6q-27 0 -45.5 18.5t-18.5 45.5q0 32 23.5 55.5t55.5 23.5z" />
    <glyph glyph-name="afii10099" unicode="&#x452;" horiz-adv-x="599" 
d="M255 -82q25 0 44.5 20.5t25.5 47.5l65 313l3.5 23t1.5 18q0 62 -58 62q-19 0 -44 -12t-40 -24l-15 -12l-74 -354h-156l135 636h-59l12 56h59l15 72h156l-15 -72h108l-11 -56h-109l-29 -139q62 53 116 53q169 0 169 -160q0 -21 -2 -41t-6 -40l-65 -317q-19 -93 -86 -155
q-65 -62 -171 -62z" />
    <glyph glyph-name="afii10100" unicode="&#x453;" horiz-adv-x="412" 
d="M255 404l-86 -404h-154l114 538h332l-29 -134h-177zM219 555l-48 80l239 164l54 -96z" />
    <glyph glyph-name="afii10101" unicode="&#x454;" horiz-adv-x="496" 
d="M411 322l-22 -106h-205q5 -43 32 -66.5t65 -23.5q85 0 169 38l-32 -148q-86 -27 -152 -27q-109 0 -172.5 59t-63.5 170q0 156 91 244t225 88q34 0 88 -12q53 -10 91 -24l-29 -132q-63 31 -164 31q-39 0 -74.5 -22.5t-54.5 -68.5h208z" />
    <glyph glyph-name="afii10102" unicode="&#x455;" horiz-adv-x="452" 
d="M381 179q0 -83 -61 -137q-62 -53 -143 -53q-84 0 -158 50l32 155q73 -68 129 -68q18 0 30.5 9t12.5 22q0 7 -6.5 16.5t-17.5 19t-25 20t-29 20.5t-29 24t-25 31t-17.5 36t-6.5 39q0 79 61 133t145 54q67 0 140 -46l-33 -149q-64 58 -115 58q-15 0 -27.5 -9t-12.5 -22
q0 -11 11.5 -22t29 -24l37.5 -28.5t37.5 -34.5t29 -42.5t11.5 -51.5z" />
    <glyph glyph-name="afii10103" unicode="&#x456;" horiz-adv-x="290" 
d="M316 667q0 -39 -30 -70q-30 -30 -71 -30q-35 0 -58 24t-23 58q0 40 31 68q32 29 69 29q35 0 58.5 -22.5t23.5 -56.5zM165 0h-155l113 538h156z" />
    <glyph glyph-name="afii10104" unicode="&#x457;" horiz-adv-x="289" 
d="M133 605q-27 0 -45.5 18.5t-18.5 45.5q0 32 23.5 55.5t55.5 23.5q28 0 46.5 -19t18.5 -48q0 -15 -6.5 -28.5t-17.5 -24t-25.5 -17t-30.5 -6.5zM325 748q28 0 46.5 -19t18.5 -48q0 -15 -7 -29t-18 -24.5t-25.5 -16.5t-29.5 -6q-27 0 -45.5 18.5t-18.5 45.5q0 32 23.5 55.5
t55.5 23.5zM281 538l-115 -538h-157l115 538h157z" />
    <glyph glyph-name="afii10105" unicode="&#x458;" horiz-adv-x="289" 
d="M-132 -68q36 -14 67 -14q25 0 44.5 20.5t25.5 47.5l117 552h156l-116 -546q-20 -94 -84 -155q-65 -62 -164 -62q-35 0 -77 11zM316 667q0 -39 -30 -70q-30 -30 -71 -30q-35 0 -58 24t-23 58q0 40 31 68q32 29 69 29q35 0 58.5 -22.5t23.5 -56.5z" />
    <glyph glyph-name="afii10106" unicode="&#x459;" horiz-adv-x="817" 
d="M603 350q39 0 70.5 -10.5t54 -29.5t35 -46.5t12.5 -60.5q0 -92 -70 -147q-70 -56 -162 -56h-226l87 407h-138l-47 -220q-20 -94 -93 -143q-72 -48 -170 -50l29 136q69 5 79 56l76 352h446l-40 -188h57zM554 122q22 0 41.5 18t19.5 44q0 19 -11.5 30.5t-30.5 11.5h-54
l-21 -104h56z" />
    <glyph glyph-name="afii10107" unicode="&#x45a;" horiz-adv-x="813" 
d="M598 350q78 0 124.5 -39t46.5 -108q0 -92 -69 -147q-70 -56 -163 -56h-226l47 215h-145l-46 -215h-154l114 538h154l-40 -188h145l40 188h156l-41 -188h57zM549 122q23 0 42.5 18t19.5 44q0 19 -12 30.5t-32 11.5h-52l-23 -104h57z" />
    <glyph glyph-name="afii10108" unicode="&#x45b;" horiz-adv-x="599" 
d="M170 764h156l-15 -72h108l-11 -56h-109l-29 -139q62 53 116 53q169 0 169 -160q0 -46 -8 -81l-64 -309h-155l62 299l3.5 23t1.5 18q0 62 -58 62q-19 0 -44 -12t-40 -24l-15 -12l-74 -354h-156l135 636h-59l12 56h59z" />
    <glyph glyph-name="afii10109" unicode="&#x45c;" horiz-adv-x="557" 
d="M284 538l-45 -214h21q25 52 48 81l99 133h180l-191 -241q49 -29 65.5 -77.5t16.5 -120.5q0 -14 -0.5 -38.5t-1.5 -60.5h-154q0 2 0.5 10.5t1.5 22.5t1.5 26t0.5 21q0 55 -19.5 85t-73.5 30h-21l-42 -195h-156l114 538h156zM266 555l-48 80l239 164l54 -96z" />
    <glyph glyph-name="uni045D" unicode="&#x45d;" horiz-adv-x="608" 
d="M128 538h155l-26 -120l-10 -45l-12 -54.5t-8 -32.5h8l30.5 34.5t48.5 50.5l160 167h136l-115 -538h-155l27 126l17 77l15 65h-8q-9 -13 -45 -52l-40 -44l-168 -172h-125zM535 633l-62 -78l-213 150l73 93z" />
    <glyph glyph-name="afii10110" unicode="&#x45e;" horiz-adv-x="608" 
d="M464 538h182l-509 -754h-177l212 308l-111 446h160l50 -197q4 -18 7.5 -38t6.5 -43h6q19 40 45 81zM565 721q-39 -72 -94 -103.5t-110 -31.5q-54 0 -102.5 33t-74.5 105l96 40q17 -48 38.5 -62t50.5 -14q12 0 25.5 2t27.5 9.5t28.5 23t29.5 42.5z" />
    <glyph glyph-name="afii10193" unicode="&#x45f;" horiz-adv-x="572" 
d="M133 -182l39 182h-158l115 538h154l-87 -407h136l88 407h154l-114 -538h-158l-39 -182h-130z" />
    <glyph glyph-name="afii10050" unicode="&#x490;" horiz-adv-x="467" 
d="M297 556l-118 -556h-158l151 712h246l37 176h133l-70 -332h-221z" />
    <glyph glyph-name="afii10098" unicode="&#x491;" horiz-adv-x="412" 
d="M255 404l-86 -404h-154l114 538h201l38 180h130l-67 -314h-176z" />
    <glyph glyph-name="afii10846" unicode="&#x4d9;" horiz-adv-x="564" 
d="M170 203q0 -42 19 -66t54 -24q36 0 65.5 25t45.5 65h-184zM139 511q78 38 165 38q105 0 167 -60t62 -168q0 -145 -88 -239q-87 -94 -218 -94q-44 0 -80.5 14.5t-62.5 42t-40.5 68.5t-14.5 95q0 48 11 101h333q-1 103 -89 103q-100 0 -176 -55z" />
    <glyph glyph-name="Wgrave" unicode="&#x1e80;" horiz-adv-x="878" 
d="M825 712h175l-271 -712h-169l-58 277q-4 20 -6.5 43.5t-4.5 50.5h-7q-17 -37 -52 -94l-174 -277h-168l31 712h156l-16 -348q-1 -20 -3.5 -43.5t-6.5 -52.5h8l30 59.5l21 38.5l199 323h76l61 -323q5 -27 8 -51t5 -46h8l11 38q10 36 18 57zM725 807l-62 -78l-213 150l73 93
z" />
    <glyph glyph-name="wgrave" unicode="&#x1e81;" horiz-adv-x="811" 
d="M677 538h173l-257 -538h-111l-60 187q-9 28 -18 74h-4q-9 -17 -47 -74l-132 -187h-111l-36 538h151l9 -206q1 -13 1 -35.5v-54.5h5q28 60 49 90l119 184h77l45 -182q4 -16 15 -92h6q8 25 16 47.5t18 42.5zM625 633l-62 -78l-213 150l73 93z" />
    <glyph glyph-name="Wacute" unicode="&#x1e82;" horiz-adv-x="878" 
d="M825 712h175l-271 -712h-169l-58 277q-4 20 -6.5 43.5t-4.5 50.5h-7q-17 -37 -52 -94l-174 -277h-168l31 712h156l-16 -348q-1 -20 -3.5 -43.5t-6.5 -52.5h8l30 59.5l21 38.5l199 323h76l61 -323q5 -27 8 -51t5 -46h8l11 38q10 36 18 57zM490 729l-48 80l239 164l54 -96z
" />
    <glyph glyph-name="wacute" unicode="&#x1e83;" horiz-adv-x="811" 
d="M677 538h173l-257 -538h-111l-60 187q-9 28 -18 74h-4q-9 -17 -47 -74l-132 -187h-111l-36 538h151l9 -206q1 -13 1 -35.5v-54.5h5q28 60 49 90l119 184h77l45 -182q4 -16 15 -92h6q8 25 16 47.5t18 42.5zM390 555l-48 80l239 164l54 -96z" />
    <glyph glyph-name="Wdieresis" unicode="&#x1e84;" horiz-adv-x="878" 
d="M825 712h175l-271 -712h-169l-58 277q-4 20 -6.5 43.5t-4.5 50.5h-7q-17 -37 -52 -94l-174 -277h-168l31 712h156l-16 -348q-1 -20 -3.5 -43.5t-6.5 -52.5h8l30 59.5l21 38.5l199 323h76l61 -323q5 -27 8 -51t5 -46h8l11 38q10 36 18 57zM491 779q-27 0 -45.5 18.5
t-18.5 45.5q0 32 23.5 55.5t55.5 23.5q28 0 46.5 -19t18.5 -48q0 -15 -6.5 -28.5t-17.5 -24t-25.5 -17t-30.5 -6.5zM683 922q28 0 46.5 -19t18.5 -48q0 -15 -7 -29t-18 -24.5t-25.5 -16.5t-29.5 -6q-27 0 -45.5 18.5t-18.5 45.5q0 32 23.5 55.5t55.5 23.5z" />
    <glyph glyph-name="wdieresis" unicode="&#x1e85;" horiz-adv-x="811" 
d="M677 538h173l-257 -538h-111l-60 187q-9 28 -18 74h-4q-9 -17 -47 -74l-132 -187h-111l-36 538h151l9 -206q1 -13 1 -35.5v-54.5h5q28 60 49 90l119 184h77l45 -182q4 -16 15 -92h6q8 25 16 47.5t18 42.5zM393 605q-27 0 -45.5 18.5t-18.5 45.5q0 32 23.5 55.5t55.5 23.5
q28 0 46.5 -19t18.5 -48q0 -15 -6.5 -28.5t-17.5 -24t-25.5 -17t-30.5 -6.5zM585 748q28 0 46.5 -19t18.5 -48q0 -15 -7 -29t-18 -24.5t-25.5 -16.5t-29.5 -6q-27 0 -45.5 18.5t-18.5 45.5q0 32 23.5 55.5t55.5 23.5z" />
    <glyph glyph-name="Ygrave" unicode="&#x1ef2;" horiz-adv-x="637" 
d="M548 712h193l-329 -420l-62 -292h-159l62 292l-152 420h168l67 -182q2 -7 6.5 -24t9.5 -43h7q21 39 44 66zM574 807l-62 -78l-213 150l73 93z" />
    <glyph glyph-name="ygrave" unicode="&#x1ef3;" horiz-adv-x="596" 
d="M464 538h182l-509 -754h-177l212 308l-111 446h160l50 -197q4 -18 7.5 -38t6.5 -43h6q19 40 45 81zM512 633l-62 -78l-213 150l73 93z" />
    <glyph glyph-name="endash" unicode="&#x2013;" horiz-adv-x="523" 
d="M60 374h458l-30 -145h-458z" />
    <glyph glyph-name="emdash" unicode="&#x2014;" horiz-adv-x="917" 
d="M60 374h852l-30 -145h-852z" />
    <glyph glyph-name="quoteleft" unicode="&#x2018;" horiz-adv-x="285" 
d="M360 759q-35 -78 -61.5 -151t-45.5 -145l-171 -12q80 189 178 324z" />
    <glyph glyph-name="quoteright" unicode="&#x2019;" horiz-adv-x="285" 
d="M84 467q35 82 62 155.5t45 140.5l170 12q-76 -183 -178 -324z" />
    <glyph glyph-name="quotesinglbase" unicode="&#x201a;" horiz-adv-x="285" 
d="M-49 -163q35 82 62 155.5t45 140.5l170 12q-76 -183 -178 -324z" />
    <glyph glyph-name="quotedblleft" unicode="&#x201c;" horiz-adv-x="505" 
d="M360 759q-35 -78 -61.5 -151t-45.5 -145l-171 -12q80 189 178 324zM580 759q-35 -78 -61.5 -151t-45.5 -145l-171 -12q80 189 178 324z" />
    <glyph glyph-name="quotedblright" unicode="&#x201d;" horiz-adv-x="505" 
d="M84 467q35 82 62 155.5t45 140.5l170 12q-76 -183 -178 -324zM304 467q35 82 62 155.5t45 140.5l170 12q-76 -183 -178 -324z" />
    <glyph glyph-name="quotedblbase" unicode="&#x201e;" horiz-adv-x="505" 
d="M-49 -163q35 82 62 155.5t45 140.5l170 12q-76 -183 -178 -324zM170 -163q35 82 62 155.5t45 140.5l170 12q-76 -183 -178 -324z" />
    <glyph glyph-name="dagger" unicode="&#x2020;" horiz-adv-x="540" 
d="M458 762l-43 -197h143l-31 -151h-144l-108 -515h-155l109 515h-142l32 151h142l19 92q8 35 13.5 61.5t9.5 43.5h155z" />
    <glyph glyph-name="daggerdbl" unicode="&#x2021;" horiz-adv-x="540" 
d="M303 762h155l-42 -196h143l-31 -149h-144l-11 -51l-7.5 -38l-6.5 -31h143l-32 -150h-143l-52 -248h-155l53 248h-143l32 150h143q4 16 10 45.5l15 74.5h-142l32 149h142z" />
    <glyph glyph-name="bullet" unicode="&#x2022;" horiz-adv-x="403" 
d="M257 529q74 0 127 -53t53 -129t-53 -129t-127 -53q-75 0 -128 53q-52 52 -52 129q0 76 52 128q52 54 128 54z" />
    <glyph glyph-name="ellipsis" unicode="&#x2026;" horiz-adv-x="820" 
d="M125 173q18 0 34 -7t27 -19.5t16.5 -29.5t3.5 -36q-5 -37 -33.5 -61.5t-64.5 -24.5q-18 0 -33.5 7t-26 19t-16 28.5t-3.5 35.5q2 18 10.5 34t21.5 28t29.5 19t34.5 7zM387 173q19 0 35 -7t27 -19.5t16.5 -29.5t3.5 -36q-5 -37 -33 -61.5t-65 -24.5q-18 0 -34 7t-27 19.5
t-16.5 29t-3.5 34.5q5 37 33 62q29 26 64 26zM649 173q19 0 35 -7t26.5 -19.5t16 -29.5t3.5 -36q-5 -37 -33 -61.5t-65 -24.5q-18 0 -33.5 7t-26.5 19.5t-16.5 29t-3.5 34.5q5 37 33 62q29 26 64 26z" />
    <glyph glyph-name="perthousand" unicode="&#x2030;" horiz-adv-x="1153" 
d="M279 717q131 0 131 -132q0 -13 -1.5 -28l-3.5 -34q-38 -189 -195 -189q-134 0 -134 130q0 33 7 62q41 191 196 191zM224 436q21 0 42 19.5t31 57.5q6 24 6 56q0 46 -38 46q-22 0 -44 -20.5t-30 -62.5q-5 -25 -5 -50q0 -46 38 -46zM629 376q133 0 133 -128q0 -18 -6 -64
q-37 -190 -197 -190q-133 0 -133 130q0 12 1.5 27.5t5.5 34.5q36 190 196 190zM573 96q22 0 42.5 17t30.5 54q8 29 8 61q0 46 -39 46q-22 0 -44 -21t-31 -63q-2 -14 -3 -26t-1 -22q0 -46 37 -46zM208 -19l-78 55l488 677l79 -56zM982 376q133 0 133 -128q0 -18 -6 -64
q-37 -190 -197 -190q-133 0 -133 130q0 12 1.5 27.5t5.5 34.5q36 190 196 190zM926 96q22 0 42.5 17t30.5 54q8 29 8 61q0 46 -39 46q-22 0 -44 -21t-31 -63q-2 -14 -3 -26t-1 -22q0 -46 37 -46z" />
    <glyph glyph-name="guilsinglleft" unicode="&#x2039;" horiz-adv-x="323" 
d="M370 471l-188 -209l91 -195h-157l-97 209l174 195h177z" />
    <glyph glyph-name="guilsinglright" unicode="&#x203a;" horiz-adv-x="323" 
d="M-36 67l187 209l-91 195h158l97 -209l-175 -195h-176z" />
    <glyph glyph-name="fraction" unicode="&#x2044;" horiz-adv-x="178" 
d="M-93 -19l-78 55l488 677l79 -56z" />
    <glyph glyph-name="zerosuperior" unicode="&#x2070;" horiz-adv-x="339" 
d="M312 909q51 0 81 -27.5t30 -87.5q0 -11 -1.5 -26t-5.5 -35l-6 -33q-18 -91 -62 -133t-107 -42q-112 0 -112 115q0 32 7 61l7 34q36 174 169 174zM253 616q44 0 64 90l3 12t2 12q6 28 6 48q0 41 -29 41q-45 0 -64 -91l-3 -12t-2 -12q-6 -30 -6 -48q0 -40 29 -40z" />
    <glyph glyph-name="foursuperior" unicode="&#x2074;" horiz-adv-x="333" 
d="M367 686h35l-18 -90h-36l-14 -65h-93l14 65h-152l17 83l206 225h88zM294 726l18 58h-5q-30 -36 -45 -51l-49 -51h71z" />
    <glyph glyph-name="fivesuperior" unicode="&#x2075;" horiz-adv-x="316" 
d="M266 780q51 0 79.5 -27t28.5 -73q0 -62 -48 -108q-47 -47 -111 -47q-57 0 -100 31l18 90q30 -35 94 -35q23 0 38.5 18.5t15.5 41.5q0 32 -30 32t-68 -23l-38 23l68 201h198l-20 -91h-122l-12 -33h9z" />
    <glyph glyph-name="sixsuperior" unicode="&#x2076;" horiz-adv-x="315" 
d="M298 904h112l-103 -115q37 -7 58 -35.5t21 -70.5q0 -61 -47 -110q-47 -48 -111 -48q-51 0 -83 32.5t-32 81.5q0 55 61 125zM238 610q23 0 40.5 17.5t17.5 41.5q0 17 -10 27.5t-25 10.5q-21 0 -40.5 -17.5t-19.5 -41.5q0 -17 9.5 -27.5t27.5 -10.5z" />
    <glyph glyph-name="sevensuperior" unicode="&#x2077;" horiz-adv-x="296" 
d="M285 813h-129l16 91h262l-9 -54l-223 -319h-109z" />
    <glyph glyph-name="eightsuperior" unicode="&#x2078;" horiz-adv-x="311" 
d="M392 818q0 -49 -36 -85q19 -22 19 -65q0 -59 -47 -101t-105 -42q-49 0 -78 28t-29 73q0 55 52 107q-12 18 -12 48q0 53 44 91q43 37 95 37q42 0 69.5 -25.5t27.5 -65.5zM252 692q-16 0 -30 -11.5t-17 -28.5t6.5 -28.5t26.5 -11.5q19 -2 31 11t15 29t-4.5 28.5t-27.5 11.5
zM300 797q2 11 -4.5 19.5t-17.5 8.5t-21 -8.5t-12 -19.5q-2 -13 6 -19.5t18.5 -6.5t20 6.5t10.5 19.5z" />
    <glyph glyph-name="ninesuperior" unicode="&#x2079;" horiz-adv-x="315" 
d="M220 531h-113l104 114q-37 8 -58 37t-21 69q0 63 46 110q46 48 112 48q51 0 82.5 -32.5t31.5 -81.5q0 -55 -60 -125zM279 824q-22 0 -39.5 -17.5t-17.5 -41.5q0 -17 9.5 -27.5t25.5 -10.5q21 0 40 17.5t19 41.5q0 38 -37 38z" />
    <glyph glyph-name="parenleftsuperior" unicode="&#x207d;" horiz-adv-x="215" 
d="M349 938l-26.5 -34.5t-22.5 -31.5q-10 -14 -20 -35.5t-20 -50.5q-19 -54 -19 -117q0 -99 40 -175h-87l-9 19l-17 42q-6 15 -8.5 25.5t-5.5 25.5q-6 31 -6 63q0 36 8 71.5t15 56.5q4 11 10 25t16 31q20 36 26 43l10.5 14.5t18.5 27.5h97z" />
    <glyph glyph-name="parenrightsuperior" unicode="&#x207e;" horiz-adv-x="215" 
d="M70 493l26.5 34.5l22.5 30.5q19 29 39 86q20 58 20 118q0 99 -40 175h87l8 -19q7 -15 9.5 -21.5l8.5 -21.5q6 -14 8.5 -24.5t5.5 -26.5q6 -30 6 -62q0 -36 -8 -71.5t-15 -57.5q-8 -22 -27 -56l-16 -27.5t-9 -14.5l-10.5 -14.5t-18.5 -27.5h-97z" />
    <glyph glyph-name="zeroinferior" unicode="&#x2080;" horiz-adv-x="339" 
d="M151 188q51 0 81 -27.5t30 -87.5q0 -11 -1.5 -26.5t-5.5 -34.5l-6 -33q-18 -91 -62 -133t-107 -42q-112 0 -112 115q0 32 7 61l7 34q36 174 169 174zM92 -105q44 0 64 90q0 4 2 12l3 12q6 28 6 48q0 41 -29 41q-45 0 -64 -91q0 -4 -2 -12l-3 -12q-6 -30 -6 -48
q0 -40 29 -40z" />
    <glyph glyph-name="oneinferior" unicode="&#x2081;" horiz-adv-x="254" 
d="M113 183h79l-80 -373h-92l50 240l-102 -72l25 119z" />
    <glyph glyph-name="twoinferior" unicode="&#x2082;" horiz-adv-x="305" 
d="M100 -101h98l-18 -89h-238l15 78l133 120q51 43 51 63q0 11 -8 18.5t-20 7.5q-23 0 -55.5 -18t-61.5 -47l26 123q55 33 104 33q48 0 78.5 -28.5t30.5 -73.5q0 -18 -4.5 -34t-15 -32.5t-26.5 -34.5t-40 -40z" />
    <glyph glyph-name="threeinferior" unicode="&#x2083;" horiz-adv-x="285" 
d="M20 -37l16 84h17q30 0 47 9.5t17 21.5q0 9 -6.5 15.5t-16.5 6.5q-59 0 -95 -27l17 92q51 23 89 23q46 0 77 -27t31 -69q0 -48 -43 -84q23 -26 23 -59q0 -61 -46 -103q-45 -42 -108 -42q-50 0 -98 24l19 89q33 -24 88 -24q18 0 34 13t16 32q0 12 -18.5 18.5t-45.5 6.5h-14
z" />
    <glyph glyph-name="fourinferior" unicode="&#x2084;" horiz-adv-x="335" 
d="M207 -35h35l-18 -90h-36l-14 -65h-93l14 65h-152l17 83l206 225h88zM134 5l18 58h-5q-30 -36 -45 -51l-49 -51h71z" />
    <glyph glyph-name="fiveinferior" unicode="&#x2085;" horiz-adv-x="317" 
d="M106 59q51 0 79.5 -27t28.5 -73q0 -62 -48 -108q-47 -47 -111 -47q-57 0 -100 31l18 90q30 -35 94 -35q23 0 38.5 18.5t15.5 41.5q0 32 -30 32t-68 -23l-38 23l68 201h198l-20 -91h-122l-12 -33h9z" />
    <glyph glyph-name="sixinferior" unicode="&#x2086;" horiz-adv-x="316" 
d="M141 183h112l-103 -115q37 -7 58 -35.5t21 -70.5q0 -61 -47 -110q-47 -48 -111 -48q-51 0 -83 32.5t-32 81.5q0 55 61 125zM81 -111q23 0 40.5 17.5t17.5 41.5q0 17 -10 27.5t-25 10.5q-21 0 -40.5 -17.5t-19.5 -41.5q0 -17 9.5 -27.5t27.5 -10.5z" />
    <glyph glyph-name="seveninferior" unicode="&#x2087;" horiz-adv-x="298" 
d="M123 92h-129l16 91h262l-9 -54l-223 -319h-109z" />
    <glyph glyph-name="eightinferior" unicode="&#x2088;" horiz-adv-x="311" 
d="M235 97q0 -49 -36 -85q19 -22 19 -65q0 -59 -47 -101t-105 -42q-49 0 -78 28t-29 73q0 55 52 107q-12 18 -12 48q0 53 44 91q43 37 95 37q42 0 69.5 -25.5t27.5 -65.5zM95 -29q-16 0 -30 -11.5t-17 -28.5t6.5 -28.5t26.5 -11.5q19 -2 31 11t15 29t-4.5 28.5t-27.5 11.5z
M143 76q2 11 -4.5 19.5t-17.5 8.5t-21 -8.5t-12 -19.5q-2 -13 6 -19.5t18.5 -6.5t20 6.5t10.5 19.5z" />
    <glyph glyph-name="nineinferior" unicode="&#x2089;" horiz-adv-x="316" 
d="M67 -190h-113l104 114q-37 8 -58 37t-21 69q0 63 46 110q46 48 112 48q51 0 82.5 -32.5t31.5 -81.5q0 -55 -60 -125zM126 103q-22 0 -39.5 -17.5t-17.5 -41.5q0 -17 9.5 -27.5t25.5 -10.5q21 0 40 17.5t19 41.5q0 38 -37 38z" />
    <glyph glyph-name="parenleftinferior" unicode="&#x208d;" horiz-adv-x="215" 
d="M194 213l-26.5 -34.5t-22.5 -31.5q-10 -14 -20 -35.5t-20 -50.5q-19 -54 -19 -117q0 -99 40 -175h-87l-9 19l-17 43q-6 14 -8.5 24.5t-5.5 26.5q-6 30 -6 62q0 36 8 71.5t15 56.5q4 11 10 25t16 31q20 36 26 43l10.5 14.5t18.5 27.5h97z" />
    <glyph glyph-name="parenrightinferior" unicode="&#x208e;" horiz-adv-x="216" 
d="M-82 -232l26.5 34.5t22.5 31.5q19 28 39 86q20 57 20 117q0 99 -40 175h87l8 -19q7 -15 9.5 -21.5l8.5 -21.5q6 -14 8.5 -24.5t5.5 -26.5q6 -30 6 -62q0 -36 -8 -71.5t-15 -56.5q-7 -20 -27 -56l-16 -28t-9 -15l-10.5 -14.5t-18.5 -27.5h-97z" />
    <glyph glyph-name="Euro" unicode="&#x20ac;" horiz-adv-x="666" 
d="M551 401h-276q-8 -20 -12 -39.5t-5 -39.5h280l-17 -76h-252q17 -46 55.5 -73.5t95.5 -27.5q69 0 188 80l-41 -197q-89 -39 -163 -39q-120 0 -205 71q-84 73 -100 186h-76l17 76h57q2 38 13 79h-57l17 76h69q53 108 158 178q103 69 220 69q74 0 166 -47l-38 -178
q-77 68 -142 68q-109 0 -184 -90h249z" />
    <glyph glyph-name="trademark" unicode="&#x2122;" horiz-adv-x="880" 
d="M837 712v-416h-89v252l-107 -252h-62l-104 255v-255h-88v416h110l114 -266l116 266h110zM346 712v-84h-108v-332h-87v332h-107v84h302z" />
    <glyph glyph-name="uni2126" unicode="&#x2126;" horiz-adv-x="781" 
d="M634 153q13 2 37.5 3t42.5 1h18l-33 -157h-302l34 168q77 35 125 99t48 137q0 36 -11.5 66t-32.5 51.5t-51 33.5t-68 12q-92 0 -156 -66q-63 -66 -63 -160q0 -54 27.5 -100.5t73.5 -72.5l-34 -168h-288l33 157q76 0 96 -4l2 7q-71 63 -71 174q0 18 3 36q22 152 136 254
q112 100 264 100q137 0 219 -82q83 -83 83 -213q0 -81 -33.5 -151t-96.5 -118z" />
    <glyph glyph-name="estimated" unicode="&#x212e;" horiz-adv-x="760" 
d="M649 130q-51 -67 -123 -104t-151 -37q-133 0 -234 98q-100 99 -100 237q0 142 100 238q100 97 234 97q136 0 235 -99q99 -98 99 -236v-18h-542v-195q89 -86 208 -86q130 0 216 105h58zM167 343h417v194q-89 86 -209 86q-124 0 -208 -86v-194z" />
    <glyph glyph-name="arrowleft" unicode="&#x2190;" horiz-adv-x="826" 
d="M637 712l-277 -277h409v-158h-409l277 -277h-224l-356 356l356 356h224z" />
    <glyph glyph-name="arrowup" unicode="&#x2191;" horiz-adv-x="826" 
d="M769 132l-277 277v-409h-158v409l-277 -277v224l356 356l356 -356v-224z" />
    <glyph glyph-name="arrowright" unicode="&#x2192;" horiz-adv-x="826" 
d="M189 0l277 277h-409v158h409l-277 277h224l356 -356l-356 -356h-224z" />
    <glyph glyph-name="arrowdown" unicode="&#x2193;" horiz-adv-x="826" 
d="M57 580l277 -277v409h158v-409l277 277v-224l-356 -356l-356 356v224z" />
    <glyph glyph-name="partialdiff" unicode="&#x2202;" horiz-adv-x="623" 
d="M316 724q135 0 209.5 -74t74.5 -212q0 -79 -22.5 -159t-68 -144.5t-115 -105t-162.5 -40.5q-87 0 -141 54t-54 140q0 89 55 168q28 40 61.5 70t72.5 52q79 43 153 43q15 0 19.5 1t18.5 -2q-37 55 -122 55q-48 0 -112 -16l-8 146q7 2 22 5.5l38 8.5q44 10 81 10zM250 143
q61 0 116 52q56 53 56 114q0 26 -16 41.5t-43 15.5q-57 0 -111 -54q-53 -55 -53 -114q0 -25 13.5 -40t37.5 -15z" />
    <glyph glyph-name="uni2206" unicode="&#x2206;" horiz-adv-x="692" 
d="M-1 0l15 97l362 615h106l140 -614l-16 -98h-607zM228 158h216l-43 197q-9 51 -12 87h-5q-9 -22 -19.5 -43.5t-23.5 -43.5z" />
    <glyph glyph-name="product" unicode="&#x220f;" horiz-adv-x="662" 
d="M89 556l33 156h616l-32 -156h-60l-164 -772h-162l164 772h-172l-164 -772h-162l164 772h-61z" />
    <glyph glyph-name="summation" unicode="&#x2211;" horiz-adv-x="622" 
d="M122 712h570l-32 -156h-376l130 -309l-240 -305l362 2l-32 -160h-577l29 131l273 351l-133 319z" />
    <glyph glyph-name="minus" unicode="&#x2212;" 
d="M41 173v150h497v-150h-497z" />
    <glyph glyph-name="radical" unicode="&#x221a;" horiz-adv-x="549" 
d="M488 762h164l-379 -762h-157l-17 208h-83l32 158h180l17 -116z" />
    <glyph glyph-name="infinity" unicode="&#x221e;" horiz-adv-x="713" 
d="M498 108q-77 0 -144 70q-69 -69 -142 -69q-77 0 -127 53q-48 52 -48 136t48 137q49 54 127 54q79 0 141 -69q60 69 145 69q77 0 125 -54q49 -52 49 -137t-49 -137q-48 -53 -125 -53zM492 350q-26 0 -65 -54q35 -50 65 -50q18 0 29 14t11 38t-11 38t-29 14zM216 246
q27 0 66 52q-20 30 -35 41t-31 11q-17 0 -28.5 -15t-11.5 -37q0 -24 11 -38t29 -14z" />
    <glyph glyph-name="integral" unicode="&#x222b;" horiz-adv-x="401" 
d="M455 559q-48 17 -72 17q-17 0 -29 -14.5t-16 -33.5l-117 -550q-9 -44 -27.5 -80.5t-46 -63t-65.5 -41t-86 -14.5q-34 0 -77 12l32 152q48 -17 70 -17q17 0 29.5 15t16.5 33l117 551q9 43 27 80t46 63t65.5 41t85.5 15q34 0 79 -13z" />
    <glyph glyph-name="therefore" unicode="&#x2234;" 
d="M133 173q18 0 34.5 -7t28.5 -19t19 -28.5t7 -35.5q0 -38 -25.5 -63t-63.5 -25q-36 0 -62 25t-26 63q0 18 7 34.5t19 29t28 19.5t34 7zM446 173q18 0 34.5 -7t28.5 -19t19 -28.5t7 -35.5q0 -38 -25.5 -63t-63.5 -25q-36 0 -62 25t-26 63q0 18 7 34.5t19 29t28 19.5t34 7z
M290 470q18 0 34.5 -7t28.5 -19t19 -28.5t7 -35.5q0 -38 -25.5 -63t-63.5 -25q-36 0 -62 25t-26 63q0 18 7 34.5t19 29t28 19.5t34 7z" />
    <glyph glyph-name="approxequal" unicode="&#x2248;" 
d="M17 322q92 140 175 140q38 0 103 -36q66 -36 79 -36q15 0 31 11q8 5 13 10t8 9q4 5 10.5 14.5l17.5 24.5l109 -77q-88 -139 -174 -139q-39 0 -104 35q-65 36 -78 36q-15 0 -31 -11q-14 -10 -22 -21q-4 -5 -10.5 -14l-16.5 -23zM17 95q92 140 175 140q38 0 103 -36
q66 -36 79 -36q15 0 31 11q8 5 13 10t8 9q4 5 10.5 14.5l17.5 24.5l109 -77q-88 -139 -174 -139q-39 0 -104 35q-65 36 -78 36q-15 0 -31 -11q-14 -10 -22 -21q-4 -5 -10.5 -14l-16.5 -23z" />
    <glyph glyph-name="notequal" unicode="&#x2260;" 
d="M41 422h274l55 106l120 -63l-23 -43h71v-149h-148l-25 -49h173v-151h-252l-53 -103l-120 58l23 45h-95v151h172l25 49h-197v149z" />
    <glyph glyph-name="lessequal" unicode="&#x2264;" 
d="M539 694v-161l-256 -108l256 -106v-162l-499 212v113zM43 140h496v-150h-496v150z" />
    <glyph glyph-name="greaterequal" unicode="&#x2265;" 
d="M40 533v161l499 -212v-113l-499 -212v162l255 106zM40 140h496v-150h-496v150z" />
    <glyph glyph-name="triagup" unicode="&#x25b2;" horiz-adv-x="826" 
d="M769 55h-712l356 617z" />
    <glyph glyph-name="triagrt" unicode="&#x25ba;" horiz-adv-x="826" 
d="M104 0v712l617 -356z" />
    <glyph glyph-name="triagdn" unicode="&#x25bc;" horiz-adv-x="826" 
d="M57 651h712l-356 -617z" />
    <glyph glyph-name="triaglf" unicode="&#x25c4;" horiz-adv-x="826" 
d="M721 709v-712l-617 356z" />
    <glyph glyph-name="lozenge" unicode="&#x25ca;" horiz-adv-x="600" 
d="M600 297l-310 -420h-135l-129 426l306 421h135zM362 498l-162 -214l64 -180l158 209z" />
    <glyph glyph-name="slash.small" unicode="&#xe00c;" horiz-adv-x="313" 
d="M-78 -26l366 638l113 -65l-367 -638z" />
    <glyph glyph-name="backslash.small" unicode="&#xe00d;" horiz-adv-x="322" 
d="M188 592l97 -641l-142 -21l-96 641z" />
    <glyph glyph-name="bar.small" unicode="&#xe00e;" horiz-adv-x="192" 
d="M181 577v-612h-134v612h134z" />
    <glyph glyph-name="zero.small" unicode="&#xe019;" horiz-adv-x="500" 
d="M303 543q78 0 124 -41.5t46 -126.5q0 -34 -10 -84l-9 -46q-52 -253 -244 -253q-78 0 -124 41.5t-46 126.5q0 16 2.5 37.5t7.5 47.5l9 46q52 252 244 252zM227 130q51 0 76 121l7 33q4 19 6 35.5t2 32.5q0 52 -33 52q-51 0 -76 -120l-7 -33q-9 -44 -9 -69q0 -52 34 -52z
" />
    <glyph glyph-name="one.small" unicode="&#xe01a;" horiz-adv-x="378" 
d="M244 534h126l-113 -534h-152l69 326l-142 -94l39 180z" />
    <glyph glyph-name="two.small" unicode="&#xe01b;" horiz-adv-x="420" 
d="M224 138h140l-29 -138h-355l24 116l194 175q63 57 63 80q0 14 -8.5 23.5t-21.5 9.5q-81 0 -169 -69l34 161q86 47 152 47q70 0 117 -43q49 -42 49 -106q0 -55 -30 -98q-31 -45 -97 -102z" />
    <glyph glyph-name="three.small" unicode="&#xe01c;" horiz-adv-x="418" 
d="M106 223l21 111h24q101 0 101 47q0 13 -10 21.5t-27 8.5h-14h-17t-17 -2q-12 -1 -20 -4t-22 -9q-28 -11 -58 -33l29 143q75 37 150 37q69 0 110.5 -34.5t41.5 -94.5q0 -15 -3 -32.5t-10.5 -35t-19 -34t-29.5 -28.5q31 -31 31 -84q0 -88 -73 -148q-74 -60 -165 -60
q-71 0 -141 36l29 139q43 -38 100 -38q97 0 97 53q0 18 -21.5 29.5t-57.5 11.5h-29z" />
    <glyph glyph-name="four.small" unicode="&#xe01d;" horiz-adv-x="483" 
d="M394 228h50l-29 -136h-50l-19 -92h-150l19 92h-215l26 122l294 320h139zM159 216h92l15 70q2 10 12 37q5 15 8 25.5t5 15.5h-6l-34.5 -45.5t-23.5 -28.5z" />
    <glyph glyph-name="five.small" unicode="&#xe01e;" horiz-adv-x="464" 
d="M248 408l-19 -55q2 0 14 0.5t16 0.5q70 0 106 -37.5t36 -100.5q0 -90 -70 -157t-165 -67q-101 0 -157 44l31 143q29 -24 55 -35q14 -6 24 -9t19.5 -4.5t19 -1.5h21.5q28 0 48 19t20 49q0 17 -13.5 27t-33.5 10q-30 0 -84 -33l-67 36l105 297h294l-27 -126h-173z" />
    <glyph glyph-name="six.small" unicode="&#xe01f;" horiz-adv-x="462" 
d="M290 534h176l-144 -163q49 -15 75.5 -56t26.5 -95q0 -89 -66 -159q-65 -69 -162 -69q-78 0 -127 49q-48 49 -48 122q0 34 16 67q8 17 15.5 30t14.5 23q8 10 19 22.5l26 29.5zM216 123q29 0 49.5 22t20.5 51q0 22 -13.5 36.5t-34.5 14.5q-28 0 -50 -22t-22 -52
q0 -21 13 -35.5t37 -14.5z" />
    <glyph glyph-name="seven.small" unicode="&#xe020;" horiz-adv-x="423" 
d="M228 397h-181l16 137h392l-12 -82l-293 -452h-173z" />
    <glyph glyph-name="eight.small" unicode="&#xe021;" horiz-adv-x="472" 
d="M34 145q0 73 71 144q-20 29 -20 68q0 79 62 132q61 54 138 54q65 0 108 -40q44 -41 44 -101q0 -61 -50 -111q32 -37 32 -93q0 -86 -67 -146q-68 -60 -154 -60q-75 0 -119.5 42t-44.5 111zM168 174q-1 -3 -1 -10q0 -21 14 -34t33 -13q12 0 23.5 5.5t21 15t15.5 21.5t6 26
q0 20 -13 33t-31 13q-23 0 -43 -17t-25 -40zM274 423q-19 0 -37 -16t-18 -37q0 -14 11 -24.5t26 -10.5q19 0 36 15.5t17 34.5q0 15 -10 26.5t-25 11.5z" />
    <glyph glyph-name="nine.small" unicode="&#xe022;" horiz-adv-x="461" 
d="M183 1h-176l144 163q-49 15 -75.5 56t-26.5 95q0 88 65 158q66 70 163 70q78 0 126 -49q49 -49 49 -122q0 -34 -16 -67q-16 -34 -31 -53q-7 -10 -18 -22.5l-26 -29.5zM257 412q-29 0 -49.5 -22t-20.5 -51q0 -22 13.5 -36.5t34.5 -14.5q28 0 50 22t22 52q0 21 -13 35.5
t-37 14.5z" />
    <glyph glyph-name="dollar.small" unicode="&#xe023;" horiz-adv-x="426" 
d="M257 331l24 -14t19 -12t18 -13l20 -16q43 -36 43 -91q0 -82 -57 -136q-55 -52 -139 -57l-9 -40h-40l9 42q-71 10 -122 61l32 150q64 -76 116 -88l21 100l-44 25q-16 11 -37 28q-43 37 -43 93q0 80 55 129q55 51 138 51l9 41h41l-10 -45q62 -11 104 -51l-29 -137
q-52 48 -101 64zM192 384q0 -18 29 -33l14 68q-43 -6 -43 -35zM212 118q20 2 33.5 13t12.5 29q-1 22 -30 37z" />
    <glyph glyph-name="percent.small" unicode="&#xe024;" horiz-adv-x="661" 
d="M211 543q108 0 108 -105q0 -6 -1 -18t-3 -30q-28 -145 -155 -145q-109 0 -109 104q0 25 5 48q15 73 56.5 109.5t98.5 36.5zM171 337q12 0 24 12t18 38q4 15 4 39q0 25 -16 25q-13 0 -25.5 -14t-18.5 -40q-3 -15 -3 -35q0 -25 17 -25zM515 292q109 0 109 -102
q0 -11 -1.5 -23t-3.5 -26q-25 -145 -155 -145q-109 0 -109 103q0 20 5 48q31 145 155 145zM475 87q12 0 24 11t19 35l-1 -1q2 11 3.5 21.5t1.5 21.5q0 26 -17 26q-13 0 -25 -14t-18 -41q-4 -17 -4 -33q0 -26 17 -26zM560 494l-370 -513l-76 52l371 513z" />
    <glyph glyph-name="at.small" unicode="&#xe025;" horiz-adv-x="749" 
d="M365 -164q-161 0 -249 97q-89 97 -89 238q0 163 110 267t266 104q132 0 221 -71t89 -193q0 -119 -69 -203q-69 -83 -143 -83q-50 0 -70 41q-52 -41 -110 -41q-36 0 -63.5 12.5t-47 35t-29.5 52.5t-10 66q0 88 56 155q57 67 143 67q46 0 97 -39l9 30h96l-55 -257
q-3 -12 -3 -21q0 -8 8 -8q35 0 64 54q29 56 29 124q0 96 -57.5 141t-160.5 45q-115 0 -194 -78t-79 -196q0 -110 63 -177q64 -69 191 -69zM335 86q19 0 35.5 9t29.5 23.5t22 34t14 40.5l11 52q-29 38 -82 38q-45 0 -69 -37q-23 -37 -23 -82q0 -36 16 -57t46 -21z" />
    <glyph glyph-name="cent.small" unicode="&#xe026;" horiz-adv-x="358" 
d="M310 231q-37 28 -57 35l-32 -153q34 9 86 41l-30 -140q-48 -19 -82 -22l-10 -47h-40l10 49q-31 4 -56.5 18.5t-43.5 35.5t-27.5 48.5t-9.5 59.5q0 95 66 163q68 68 155 69l8 42h41l-9 -46q30 -6 59 -24zM147 169q0 -43 33 -56l33 155q-27 -9 -46.5 -36t-19.5 -63z" />
    <glyph glyph-name="sterling.small" unicode="&#xe027;" horiz-adv-x="433" 
d="M18 237h44l28 126q16 73 76 127q59 53 146 53q49 0 108 -32l-33 -152q-50 42 -94 42q-17 0 -33.5 -14t-20.5 -33l-25 -117h148l-11 -52h-148l-9 -43h199l-28 -142h-396l27 142h47l8 43h-44z" />
    <glyph glyph-name="copyright.small" unicode="&#xe028;" horiz-adv-x="620" 
d="M317 435q35 0 78 -20v-98q-47 38 -78 38q-37 0 -61 -26t-24 -63t24 -62.5t61 -25.5q31 0 78 37v-97q-44 -21 -78 -21q-69 0 -118 49t-49 120q0 70 49 119q50 50 118 50zM305 542q113 0 193 -81q81 -81 81 -195q0 -113 -81 -194q-80 -80 -193 -80t-195 80q-80 82 -80 194
q0 113 80 195q81 81 195 81zM508 266q0 84 -60 143q-59 59 -143 59t-143 -59q-58 -58 -58 -143t58 -143q59 -59 143 -59t143 59q60 60 60 143z" />
    <glyph glyph-name="yen.small" unicode="&#xe029;" horiz-adv-x="504" 
d="M397 534h179l-141 -184h54l-11 -52h-83l-47 -61h119l-11 -52h-129l-35 -185h-149l35 185h-126l11 52h115l-23 61h-81l11 52h50l-70 184h157l38 -116q6 -18 12 -58h5q3 6 13.5 25t21.5 33z" />
    <glyph glyph-name="Euro.small" unicode="&#xe02a;" horiz-adv-x="511" 
d="M414 30q-85 -38 -140 -38q-91 0 -156 53q-64 53 -76 140h-46l11 52h32q1 13 3 28.5t7 32.5h-31l11 52h38q40 85 121 139q82 54 173 54q70 0 140 -40l-29 -154q-24 27 -46 38q-12 6 -21 9.5t-18 5t-19 2t-25 0.5q-63 0 -109 -54h149l-11 -52h-170q-11 -31 -11 -61h170
l-11 -52h-148q27 -55 90 -55q72 0 152 66z" />
    <glyph glyph-name="germandbls.small" unicode="&#xe02b;" horiz-adv-x="868" 
d="M675 408q-9 0 -17.5 -4.5t-11.5 -12.5t2 -18.5t24 -21.5q14 -8 28.5 -15l30.5 -15t31.5 -20t27.5 -28t19.5 -35.5t7.5 -41.5q0 -87 -67 -145q-67 -59 -156 -59q-95 0 -155 60l29 156q30 -39 71 -58.5t79 -19.5q11 0 22 5.5t16 14.5t0.5 20.5t-24.5 23.5q-27 17 -59 32
q-16 7 -31.5 19.5t-27.5 28.5t-19 35.5t-7 40.5q0 82 62 138q61 55 146 55q90 0 150 -54l-26 -145q-83 64 -145 64zM257 408q-9 0 -17.5 -4.5t-11.5 -12.5t2 -18.5t24 -21.5q14 -8 28.5 -15l30.5 -15t31.5 -20t27.5 -28t19.5 -35.5t7.5 -41.5q0 -87 -67 -145
q-67 -59 -156 -59q-95 0 -155 60l29 156q30 -39 71 -58.5t79 -19.5q11 0 22 5.5t16 14.5t0.5 20.5t-24.5 23.5q-27 17 -59 32q-16 7 -31.5 19.5t-27.5 28.5t-19 35.5t-7 40.5q0 82 62 138q61 55 146 55q90 0 150 -54l-26 -145q-83 64 -145 64z" />
    <glyph glyph-name="dotlessi.small" unicode="&#xe02c;" horiz-adv-x="277" 
d="M272 534l-114 -534h-151l113 534h152z" />
    <glyph glyph-name="ampersand.01" unicode="&#xe37a;" horiz-adv-x="826" 
d="M536 435h277l-34 -158h-277l-58 -277h-158l58 277h-277l34 158h277l59 277h158z" />
    <glyph glyph-name="f_j" unicode="&#xe380;" horiz-adv-x="627" 
d="M554 577q-90 51 -172 51q-26 0 -52 -19q-27 -19 -31 -43l-6 -28h330l-116 -546q-20 -94 -84 -155q-65 -62 -164 -62q-35 0 -77 11l31 146q36 -14 67 -14q25 0 45 20.5t26 47.5l89 419h-175l-86 -405h-155l86 405h-64l28 133h64l6 28q18 86 87 148q70 61 157 61
q107 0 200 -37z" />
    <glyph glyph-name="f_b" unicode="&#xe381;" horiz-adv-x="984" 
d="M957 320q0 -129 -85 -230q-86 -101 -221 -101q-18 0 -37 4.5t-38 12.5t-35 19t-28 23l-14 -48h-145l130 613q-60 15 -103 15q-25 0 -51 -19q-27 -20 -31 -43l-6 -28h126l-28 -133h-126l-86 -405h-155l86 405h-64l28 133h64l6 28q18 88 87 148q70 61 156 61q129 0 275 -54
l-45 -211q67 40 120 40q107 0 163 -66q57 -65 57 -164zM655 136q61 0 102 51q40 52 40 119q0 45 -22 70.5t-64 25.5q-54 0 -94 -40t-52 -96l-14 -65q12 -23 38.5 -44t65.5 -21z" />
    <glyph glyph-name="f_f_b" unicode="&#xe382;" horiz-adv-x="1314" 
d="M1287 320q0 -129 -85 -230q-86 -101 -221 -101q-18 0 -37 4.5t-38 12.5t-35 19t-28 23l-14 -48h-145l130 613q-60 15 -103 15q-25 0 -51 -19q-27 -20 -31 -43l-6 -28h126l-28 -133h-126l-86 -405h-155l86 405h-175l-86 -405h-155l86 405h-64l28 133h64l3 17q16 86 87 148
q70 61 157 61q50 0 91 -9l-33 -154q-39 16 -65 16q-12 0 -25.5 -5t-25 -13.5t-20 -20t-11.5 -23.5l-3 -17h175l6 28q18 88 87 148q70 61 156 61q129 0 275 -54l-45 -211q67 40 120 40q107 0 163 -66q57 -65 57 -164zM985 136q61 0 102 51q40 52 40 119q0 45 -22 70.5
t-64 25.5q-54 0 -94 -40t-52 -96l-14 -65q12 -23 38.5 -44t65.5 -21z" />
    <glyph glyph-name="f_f_h" unicode="&#xe383;" horiz-adv-x="1275" 
d="M74 538h64l3 17q16 86 87 148q70 61 157 61q50 0 91 -9l-33 -154q-39 16 -65 16q-12 0 -25.5 -5t-25 -13.5t-20 -20t-11.5 -23.5l-3 -17h175l6 28q18 88 87 148q70 61 156 61q129 0 275 -54l-48 -224q62 53 117 53q170 0 170 -160q0 -21 -2 -41t-6 -40l-65 -309h-155
l63 299l3.5 23t1.5 18q0 62 -59 62q-19 0 -43.5 -12t-39.5 -24l-15 -12l-75 -354h-155l130 613q-60 15 -103 15q-25 0 -51 -19q-27 -20 -31 -43l-6 -28h126l-28 -133h-126l-86 -405h-155l86 405h-175l-86 -405h-155l86 405h-64z" />
    <glyph glyph-name="f_f_j" unicode="&#xe384;" horiz-adv-x="957" 
d="M543 -68q36 -14 67 -14q25 0 45 20.5t26 47.5l89 419h-175l-86 -405h-155l86 405h-175l-86 -405h-155l86 405h-64l28 133h64l6 29q18 86 85 141q68 56 156 56q50 0 91 -9l-33 -154q-39 16 -65 16q-27 0 -50.5 -13t-28.5 -37l-6 -29h175l6 28q18 86 87 148q70 61 157 61
q107 0 200 -37l-34 -161q-90 51 -172 51q-26 0 -52 -19q-27 -19 -31 -43l-6 -28h330l-116 -546q-20 -94 -84 -155q-65 -62 -164 -62q-35 0 -77 11z" />
    <glyph glyph-name="f_f_k" unicode="&#xe385;" horiz-adv-x="1243" 
d="M1018 283l172 -283h-178l-106 186l-34 -30l-33 -156h-155l130 613q-60 15 -103 15q-25 0 -51 -19q-27 -20 -31 -43l-6 -28h126l-28 -133h-126l-86 -405h-155l86 405h-175l-86 -405h-155l86 405h-64l28 133h64l3 17q16 86 87 148q70 61 157 61q50 0 91 -9l-33 -154
q-39 16 -65 16q-12 0 -25.5 -5t-25 -13.5t-20 -20t-11.5 -23.5l-3 -17h175l6 28q18 88 87 148q70 61 156 61q129 0 275 -54l-57 -267l-10 -43.5t-12 -43.5h6q3 3 9.5 10.5l14 16l15 17t14.5 14.5l122 113h205z" />
    <glyph glyph-name="f_h" unicode="&#xe386;" horiz-adv-x="945" 
d="M74 538h64l6 28q18 88 87 148q70 61 156 61q129 0 275 -54l-48 -224q62 53 117 53q170 0 170 -160q0 -21 -2 -41t-6 -40l-65 -309h-155l63 299l3.5 23t1.5 18q0 62 -59 62q-19 0 -43.5 -12t-39.5 -24l-15 -12l-75 -354h-155l130 613q-60 15 -103 15q-25 0 -51 -19
q-27 -20 -31 -43l-6 -28h126l-28 -133h-126l-86 -405h-155l86 405h-64z" />
    <glyph glyph-name="f_k" unicode="&#xe388;" horiz-adv-x="913" 
d="M688 283l172 -283h-178l-106 186l-34 -30l-33 -156h-155l130 613q-60 15 -103 15q-25 0 -51 -19q-27 -20 -31 -43l-6 -28h126l-28 -133h-126l-86 -405h-155l86 405h-64l28 133h64l6 28q18 88 87 148q70 61 156 61q129 0 275 -54l-57 -267l-10 -43.5t-12 -43.5h6
q3 3 9.5 10.5l14 16l15 17t14.5 14.5l122 113h205z" />
    <glyph glyph-name="f_t" unicode="&#xe389;" horiz-adv-x="711" 
d="M636 1q-44 -11 -77 -11q-85 0 -126 43.5t-41 115.5q0 36 7 63l42 194h-175l-86 -406h-155l86 406h-65l28 132h65l6 28q18 88 87 148q70 61 156 61q50 0 91 -9l-32 -154q-41 16 -65 16q-12 0 -25.5 -5t-25 -13.5t-20 -20t-11.5 -23.5l-6 -28h175l20 90l169 65l-34 -155
h127l-28 -132h-127l-45 -208q-1 -5 -1 -15q0 -48 51 -48q24 0 66 13z" />
    <glyph glyph-name="t_f" unicode="&#xe38a;" horiz-adv-x="740" 
d="M307 1q-44 -11 -77 -11q-85 0 -126 43.5t-41 115.5q0 36 7 63l42 194h-65l28 132h65l20 90l169 65l-34 -155h216l6 28q18 88 87 148q70 61 156 61q50 0 91 -9l-32 -154q-41 16 -65 16q-12 0 -25.5 -5t-25 -13.5t-20 -20t-11.5 -23.5l-6 -28h126l-28 -132h-126l-86 -406
h-155l86 406h-216l-45 -208q-1 -5 -1 -15q0 -48 51 -48q24 0 66 13z" />
    <glyph glyph-name="t_t" unicode="&#xe38b;" horiz-adv-x="754" 
d="M679 1q-44 -11 -77 -11q-85 0 -126 43.5t-41 115.5q0 36 7 63l42 194h-217l-45 -208q-1 -5 -1 -15q0 -48 51 -48q24 0 66 13l-31 -147q-44 -11 -77 -11q-85 0 -126 43.5t-41 115.5q0 36 7 63l42 194h-65l28 132h65l17 78l169 65l-31 -143h217l20 90l169 65l-34 -155h127
l-28 -132h-127l-45 -208q-1 -5 -1 -15q0 -48 51 -48q24 0 66 13z" />
    <glyph glyph-name="parenleft.uc" unicode="&#xe440;" horiz-adv-x="349" 
d="M253 800h164q-22 -26 -40 -50t-33 -46q-14 -21 -30.5 -49l-35.5 -63q-36 -69 -55 -152.5t-19 -177.5q0 -191 79 -348h-145l-16 37l-18 43l-16 42q-6 15 -10 27t-7 23.5t-5.5 23.5l-5.5 27q-6 31 -8.5 61.5t-2.5 63.5q0 71 14 144q15 72 30 116q17 47 52 109l30.5 53.5
t20.5 32.5z" />
    <glyph glyph-name="parenright.uc" unicode="&#xe441;" horiz-adv-x="350" 
d="M147 -86h-164q22 26 40 50t32 45q31 45 66 112q37 70 56 153.5t19 177.5q0 191 -79 348h145l16 -37l18 -43l16 -42q6 -15 10 -27t6.5 -23.5l5 -23.5l5.5 -27q7 -31 9.5 -61.5t2.5 -63.5q0 -36 -4 -73t-10.5 -71t-14.5 -64t-16 -53q-15 -44 -51 -109l-30.5 -53t-20.5 -32z
" />
    <glyph glyph-name="hyphen.uc" unicode="&#xe442;" horiz-adv-x="349" 
d="M72 431h285l-30 -145h-285z" />
    <glyph glyph-name="bracketleft.uc" unicode="&#xe443;" horiz-adv-x="345" 
d="M418 679h-90l-136 -633h91l-32 -149h-247l198 932h247z" />
    <glyph glyph-name="bracketright.uc" unicode="&#xe444;" horiz-adv-x="344" 
d="M204 679h-90l32 150h247l-198 -932h-245l30 149h89z" />
    <glyph glyph-name="braceleft.uc" unicode="&#xe460;" horiz-adv-x="313" 
d="M230 364q25 -35 25 -70q2 -28 -12.5 -55t-33 -53l-35.5 -50.5t-21 -47.5q-1 -1 -1 -7q0 -15 10.5 -25t22.5 -10h60l-31 -147h-52q-68 0 -114 45q-46 43 -46 109q0 20 4 35q7 31 48 88q41 59 41 88q0 26 -57 26l31 148q25 0 39 4.5t21.5 11.5t9.5 16.5t2 18.5q0 21 -15 62
q-14 42 -14 65q0 84 73 148q74 65 153 65h74l-32 -147h-60q-19 0 -35.5 -18.5t-16.5 -43.5q0 -22 15 -64t15 -65q0 -68 -68 -127z" />
    <glyph glyph-name="bar.uc" unicode="&#xe461;" horiz-adv-x="291" 
d="M254 840v-980h-135v980h135z" />
    <glyph glyph-name="braceright.uc" unicode="&#xe462;" horiz-adv-x="313" 
d="M136 364q-25 35 -25 70q-2 28 12.5 55t33 53l35.5 50.5t21 47.5q1 1 1 7q0 15 -10.5 25t-22.5 10h-60l31 147h52q66 0 113 -45q47 -44 47 -109q0 -20 -4 -35q-7 -30 -48 -89q-41 -58 -41 -87q0 -26 57 -26l-31 -148q-25 0 -39 -4.5t-21.5 -11.5t-9.5 -16.5t-2 -18.5
q0 -20 14 -62q15 -41 15 -65q0 -84 -73 -148q-74 -65 -153 -65h-74l32 147h60q19 0 35.5 18.5t16.5 43.5q0 22 -15 64t-15 65q0 68 68 127z" />
    <glyph glyph-name="slash.uc" unicode="&#xe463;" horiz-adv-x="470" 
d="M451 819l117 -68l-494 -858l-116 68z" />
    <glyph glyph-name="questiondown.uc" unicode="&#xe464;" horiz-adv-x="487" 
d="M130 -6q-39 0 -70.5 11.5t-54 32.5t-34.5 50.5t-12 65.5q0 49 21 90t51 68q22 19 46.5 37t45.5 35.5t35.5 34t18.5 33.5l15 73h154l-20 -99q-6 -29 -24 -54.5t-41.5 -48t-49 -42.5l-46.5 -37.5t-35 -34.5t-14 -33q0 -32 40 -32q75 0 136 40l-35 -165q-69 -25 -127 -25z
M281 544q-34 0 -57.5 23t-23.5 56q0 21 8 39t21.5 32t31.5 22t39 8q34 0 57.5 -23t23.5 -56q0 -21 -8 -39t-21.5 -32t-31.5 -22t-39 -8z" />
    <glyph glyph-name="exclamdown.uc" unicode="&#xe465;" horiz-adv-x="305" 
d="M230 513l-110 -519h-156l110 519h156zM86 622q0 34 30 61q31 28 68 28q35 0 58.5 -22t23.5 -56q0 -21 -7.5 -39t-21 -32t-31.5 -22t-39 -8q-38 0 -59.5 26.5t-21.5 63.5z" />
    <glyph glyph-name="backslash.uc" unicode="&#xe466;" horiz-adv-x="470" 
d="M394 -64l-149 -22l-129 862l149 22z" />
    <glyph glyph-name="endash.uc" unicode="&#xe470;" horiz-adv-x="523" 
d="M72 431h458l-30 -145h-458z" />
    <glyph glyph-name="emdash.uc" unicode="&#xe471;" horiz-adv-x="917" 
d="M72 431h852l-30 -145h-852z" />
    <glyph glyph-name="guilsinglleft.uc" unicode="&#xe472;" horiz-adv-x="323" 
d="M387 558l-188 -209l91 -195h-157l-96 209l173 195h177z" />
    <glyph glyph-name="guilsinglright.uc" unicode="&#xe473;" horiz-adv-x="323" 
d="M-17 154l185 209l-90 195h157l97 -209l-175 -195h-174z" />
    <glyph glyph-name="guillemotleft.uc" unicode="&#xe474;" horiz-adv-x="557" 
d="M382 558l-188 -209l92 -195h-158l-96 209l173 195h177zM622 558l-187 -209l91 -195h-158l-97 209l175 195h176z" />
    <glyph glyph-name="guillemotright.uc" unicode="&#xe475;" horiz-adv-x="557" 
d="M221 154l188 209l-91 195h157l97 -209l-174 -195h-177zM-17 154l185 209l-90 195h157l97 -209l-175 -195h-174z" />
    <glyph glyph-name="uni0200.small" unicode="&#xe540;" horiz-adv-x="575" 
d="M241 212h91l-9 66q-1 2 -2.5 22t-4.5 57h-5q-29 -68 -35 -79zM394 534l122 -534h-156l-15 103h-161l-53 -103h-172l328 534h107zM421 784l130 -158l-73 -64l-142 144zM247 784l129 -158l-72 -64l-142 144z" />
    <glyph glyph-name="uni0202.small" unicode="&#xe541;" horiz-adv-x="575" 
d="M241 212h91l-9 66q-1 2 -2.5 22t-4.5 57h-5q-29 -68 -35 -79zM394 534l122 -534h-156l-15 103h-161l-53 -103h-172l328 534h107zM579 634l-60 -72l-133 87l-152 -87l-52 74l214 152z" />
    <glyph glyph-name="uni0204.small" unicode="&#xe542;" horiz-adv-x="476" 
d="M21 0l113 534h345l-27 -129h-195l-14 -64h189l-27 -129h-189l-17 -80h195l-28 -132h-345zM369 784l130 -158l-73 -64l-142 144zM195 784l129 -158l-72 -64l-142 144z" />
    <glyph glyph-name="uni0206.small" unicode="&#xe543;" horiz-adv-x="476" 
d="M21 0l113 534h345l-27 -129h-195l-14 -64h189l-27 -129h-189l-17 -80h195l-28 -132h-345zM511 634l-60 -72l-133 87l-152 -87l-52 74l214 152z" />
    <glyph glyph-name="uni0208.small" unicode="&#xe544;" horiz-adv-x="294" 
d="M286 534l-114 -534h-151l113 534h152zM253 784l130 -158l-73 -64l-142 144zM79 784l129 -158l-72 -64l-142 144z" />
    <glyph glyph-name="uni020A.small" unicode="&#xe545;" horiz-adv-x="294" 
d="M286 534l-114 -534h-151l113 534h152zM434 634l-60 -72l-133 87l-152 -87l-52 74l214 152z" />
    <glyph glyph-name="uni020C.small" unicode="&#xe546;" horiz-adv-x="617" 
d="M354 543q104 0 171 -67q68 -68 68 -168q0 -127 -98 -222q-97 -94 -222 -94q-104 0 -171 66q-66 67 -66 168q0 128 97 222q98 95 221 95zM285 131q63 0 110 50q46 50 46 119q0 45 -26.5 74.5t-69.5 29.5q-65 0 -111 -51q-47 -52 -47 -119q0 -45 26.5 -74t71.5 -29z
M405 784l130 -158l-73 -64l-142 144zM231 784l129 -158l-72 -64l-142 144z" />
    <glyph glyph-name="uni020E.small" unicode="&#xe550;" horiz-adv-x="617" 
d="M354 543q104 0 171 -67q68 -68 68 -168q0 -127 -98 -222q-97 -94 -222 -94q-104 0 -171 66q-66 67 -66 168q0 128 97 222q98 95 221 95zM285 131q63 0 110 50q46 50 46 119q0 45 -26.5 74.5t-69.5 29.5q-65 0 -111 -51q-47 -52 -47 -119q0 -45 26.5 -74t71.5 -29z
M594 634l-60 -72l-133 87l-152 -87l-52 74l214 152z" />
    <glyph glyph-name="uni0210.small" unicode="&#xe551;" horiz-adv-x="508" 
d="M450 0h-176l-50 173h-17l-36 -173h-150l113 534h162q87 0 133 -40.5t46 -104.5q0 -58 -29.5 -105.5t-80.5 -74.5zM254 410l-22 -103h30q33 0 53.5 17t20.5 46q0 40 -62 40h-20zM355 784l130 -158l-73 -64l-142 144zM181 784l129 -158l-72 -64l-142 144z" />
    <glyph glyph-name="uni0212.small" unicode="&#xe552;" horiz-adv-x="508" 
d="M450 0h-176l-50 173h-17l-36 -173h-150l113 534h162q87 0 133 -40.5t46 -104.5q0 -58 -29.5 -105.5t-80.5 -74.5zM254 410l-22 -103h30q33 0 53.5 17t20.5 46q0 40 -62 40h-20zM511 634l-60 -72l-133 87l-152 -87l-52 74l214 152z" />
    <glyph glyph-name="uni0214.small" unicode="&#xe553;" horiz-adv-x="553" 
d="M474 202q-19 -95 -88 -153q-68 -57 -150 -57q-74 0 -127 44q-52 43 -52 120q0 24 5 46l71 332h150l-70 -327q-3 -14 -3 -24q0 -25 12 -38t31 -13q24 0 43.5 19.5t27.5 55.5l70 327h151zM403 784l130 -158l-73 -64l-142 144zM229 784l129 -158l-72 -64l-142 144z" />
    <glyph glyph-name="uni0216.small" unicode="&#xe554;" horiz-adv-x="553" 
d="M474 202q-19 -95 -88 -153q-68 -57 -150 -57q-74 0 -127 44q-52 43 -52 120q0 24 5 46l71 332h150l-70 -327q-3 -14 -3 -24q0 -25 12 -38t31 -13q24 0 43.5 19.5t27.5 55.5l70 327h151zM563 634l-60 -72l-133 87l-152 -87l-52 74l214 152z" />
    <glyph glyph-name="uni021A.small" unicode="&#xe555;" horiz-adv-x="412" 
d="M315 396l-84 -396h-153l85 396h-112l28 138h379l-31 -138h-112zM27 -255q56 126 78 218l134 8q-64 -147 -132 -239z" />
    <glyph glyph-name="quotedbl.small" unicode="&#xe640;" horiz-adv-x="405" 
d="M125 632h157l-84 -307h-114zM314 632h154l-88 -307h-113z" />
    <glyph glyph-name="quotesingle.small" unicode="&#xe641;" horiz-adv-x="222" 
d="M127 632h157l-86 -307h-114z" />
    <glyph glyph-name="quoteleft.small" unicode="&#xe642;" horiz-adv-x="285" 
d="M342 670q-35 -78 -61.5 -151t-45.5 -145l-171 -12q80 189 178 324z" />
    <glyph glyph-name="quoteright.small" unicode="&#xe643;" horiz-adv-x="285" 
d="M66 378q35 82 62 155.5t45 140.5l170 12q-76 -183 -178 -324z" />
    <glyph glyph-name="quotedblleft.small" unicode="&#xe644;" horiz-adv-x="505" 
d="M342 670q-35 -78 -61.5 -151t-45.5 -145l-171 -12q80 189 178 324zM561 670q-35 -78 -61.5 -151t-45.5 -145l-171 -12q80 189 178 324z" />
    <glyph glyph-name="quotedblright.small" unicode="&#xe645;" horiz-adv-x="505" 
d="M66 378q35 82 62 155.5t45 140.5l170 12q-76 -183 -178 -324zM285 378q35 82 62 155.5t45 140.5l170 12q-76 -183 -178 -324z" />
    <glyph glyph-name="M.alt1" unicode="&#xe646;" horiz-adv-x="831" 
d="M177 0h-158l151 712h96l187 -237l287 237h122l-151 -712h-158l67 315q6 28 16.5 64.5l24.5 82.5h-7q-73 -76 -109 -106l-127 -104l-82 104q-11 13 -26.5 39.5l-37.5 66.5h-7q-11 -95 -21 -147z" />
    <glyph glyph-name="m.smallalt1" unicode="&#xe647;" horiz-adv-x="695" 
d="M553 534h133l-113 -534h-150l43 203l27 99h-6l-40 -39.5t-21 -19.5l-93 -76l-60 76q-13 16 -36 59h-6l-15 -99l-43 -203h-150l113 534h107l122 -155z" />
    <glyph glyph-name="ampersand.alt1" unicode="&#xe648;" horiz-adv-x="730" 
d="M718 308h-116l-24 -114q-1 -5 -1.5 -9t-0.5 -6q0 -38 35 -38q26 0 74 14l-31 -148q-45 -12 -80 -12q-45 0 -77 18.5t-48 44.5q-77 -69 -169 -69q-111 0 -171 47t-60 129q0 66 22 119t82 98q-32 40 -32 98q0 100 85 172t187 72q77 0 138 -23l-36 -166q-53 32 -125 32
q-33 0 -58.5 -19.5t-25.5 -51.5q0 -23 19.5 -39t61.5 -16h108l10 47l169 65l-24 -112h116zM305 146q51 0 85 28.5t45 79.5l12 54h-96q-30 0 -56 -7.5t-45 -21.5t-30 -33t-11 -43q0 -57 96 -57z" />
    <glyph glyph-name="ampersand.smallalt1" unicode="&#xe649;" horiz-adv-x="605" 
d="M572 209h-116l-4 -18q-1 -3 -1 -13q0 -40 35 -40q26 0 74 14l-32 -148q-44 -12 -79 -12q-80 0 -114 51q-59 -54 -138 -54q-82 0 -127.5 32.5t-45.5 95.5q0 106 76 164q-23 25 -23 63q0 85 64 140q65 56 151 56q45 0 77 -9l-28 -135q-30 11 -68 11q-22 0 -36.5 -14
t-14.5 -33q0 -28 48 -28h57l6 30l169 65l-20 -95h116zM301 209h-52q-73 0 -73 -53q0 -31 52 -31q25 0 43 12.5t22 33.5z" />
    <glyph glyph-name="alpha.small" unicode="&#xe800;" horiz-adv-x="575" 
d="M241 212h91l-9 66q-1 2 -2.5 22t-4.5 57h-5q-29 -68 -35 -79zM394 534l122 -534h-156l-15 103h-161l-53 -103h-172l328 534h107z" />
    <glyph glyph-name="beta.small" unicode="&#xe801;" horiz-adv-x="501" 
d="M249 406l-15 -77h38q22 0 37.5 12t15.5 34q0 31 -39 31h-37zM212 211l-15 -83h44q23 0 41.5 13t18.5 38q0 32 -51 32h-38zM466 397q0 -70 -51 -118q35 -38 35 -90q0 -85 -68 -138q-68 -51 -152 -51h-209l113 534h167q82 0 123.5 -38.5t41.5 -98.5z" />
    <glyph glyph-name="chi.small" unicode="&#xe802;" horiz-adv-x="555" 
d="M327 0l-44 107q-11 22 -15 45h-5l-5 -8q-5 -7 -12.5 -18.5t-13.5 -18.5l-85 -107h-185l232 278l-115 256h166l34 -83q5 -13 13 -49h5q11 18 20 30l14 19l65 83h184l-212 -256l125 -278h-166z" />
    <glyph glyph-name="delta.small" unicode="&#xe803;" horiz-adv-x="514" 
d="M-21 0l14 84l263 450h101l102 -449l-15 -85h-465zM253 295l-72 -158h121l-19 159l-3 49h-6z" />
    <glyph glyph-name="epsilon.small" unicode="&#xe804;" horiz-adv-x="476" 
d="M21 0l113 534h345l-27 -129h-195l-14 -64h189l-27 -129h-189l-17 -80h195l-28 -132h-345z" />
    <glyph glyph-name="eta.small" unicode="&#xe805;" horiz-adv-x="560" 
d="M361 349l40 185h152l-113 -534h-153l46 210h-115l-46 -210h-151l113 534h152l-41 -185h116z" />
    <glyph glyph-name="gamma.small" unicode="&#xe806;" horiz-adv-x="393" 
d="M255 396l-84 -396h-150l113 534h305l-29 -138h-155z" />
    <glyph glyph-name="iota.small" unicode="&#xe807;" horiz-adv-x="292" 
d="M286 534l-114 -534h-151l113 534h152z" />
    <glyph glyph-name="kappa.small" unicode="&#xe808;" horiz-adv-x="554" 
d="M610 534l-263 -237l149 -297h-166l-90 192l-35 -32l-34 -160h-150l113 534h150l-19 -90q-4 -18 -9.5 -38t-12.5 -43h5q20 28 36.5 48.5t29.5 33.5l92 89h204z" />
    <glyph glyph-name="lambda.small" unicode="&#xe809;" horiz-adv-x="563" 
d="M501 0h-156l-33 228q-6 43 -6 85h-6l-23.5 -53.5t-15.5 -31.5l-130 -228h-169l331 534h103z" />
    <glyph glyph-name="mu.small" unicode="&#xe80a;" horiz-adv-x="692" 
d="M553 534h133l-113 -534h-150l43 203l27 99h-6l-40 -39.5t-21 -19.5l-93 -76l-60 76q-13 16 -36 59h-6l-15 -99l-43 -203h-150l113 534h107l122 -155z" />
    <glyph glyph-name="nu.small" unicode="&#xe80b;" horiz-adv-x="585" 
d="M426 534h151l-113 -534h-103l-97 185l-36 83h-4l-9 -53t-8 -43l-36 -172h-150l113 534h110l93 -176q8 -14 16.5 -34t12.5 -33l5 -13h4q4 27 8 49.5t8 40.5z" />
    </font>
</defs>
</svg>
