<?xml version="1.0" encoding="utf-8"?>
<!-- Generator: Adobe Illustrator 22.1.0, SVG Export Plug-In . SVG Version: 6.00 Build 0)  -->
<svg xmlns="http://www.w3.org/2000/svg" xmlns:xlink="http://www.w3.org/1999/xlink" version="1.1" id="Layer_1" x="0px" y="0px" viewBox="0 0 512 512" style="enable-background:new 0 0 512 512;" xml:space="preserve" width="512" height="512">
<style type="text/css">
	.st0{fill:#DB9C2E;}
	.st1{fill:#BF6C0D;}
	.st2{fill:#F9BB32;}
	.st3{fill:#FCE575;}
	.st4{fill:#FFD551;}
	.st5{fill:#FFC34C;}
	.st6{fill:#FFDF74;}
	.st7{fill:#FFA730;}
	.st8{fill:#FFF4C1;}
	.st9{fill:#FFEACF;}
	.st10{fill:#FF624B;}
	.st11{fill:#CCC033;}
	.st12{fill:#8C4C17;}
	.st13{fill:#FFD59A;}
	.st14{fill:#99AF17;}
	.st15{fill:#FCF9DE;}
	.st16{fill:#E58D23;}
	.st17{fill:#A56021;}
	.st18{fill:#FF4B34;}
	.st19{fill:#FF9079;}
	.st20{fill:#EACF32;}
	.st21{fill:#FFB74B;}
	.st22{fill:#FCDA4F;}
	.st23{fill:#FFEA63;}
</style>
<g>
	<g>
		<g>
			<path class="st6" d="M456.61,27.383H304.415c-19.063,0-34.516,15.453-34.516,34.516v74.832c0,19.063,15.453,34.516,34.516,34.516     h9.112c-3.087,8.957-9.519,17.96-22.303,23.467c-3.495,1.505-2.967,6.618,0.77,7.336c16.866,3.238,46.801,3.065,66.514-30.803     h98.102c19.063,0,34.516-15.453,34.516-34.516V61.899C491.126,42.836,475.672,27.383,456.61,27.383z"/>
		</g>
	</g>
	<g>
		<g>
			<path class="st10" d="M326.273,65.356v32.289c0,4.246,3.756,7.688,8.388,7.688h12.568v25.269c0,2.179,1.766,3.945,3.945,3.945     h13.067c2.179,0,3.945-1.766,3.945-3.945v-25.269V69.456v-4.1c0-4.246-3.756-7.688-8.388-7.688h-25.136     C330.028,57.668,326.273,61.11,326.273,65.356z"/>
		</g>
	</g>
	<g>
		<g>
			<path class="st10" d="M392.839,65.356v32.289c0,4.246,3.756,7.688,8.388,7.688h12.568v25.269c0,2.179,1.766,3.945,3.945,3.945     h13.067c2.179,0,3.945-1.766,3.945-3.945v-25.269V69.456v-4.1c0-4.246-3.756-7.688-8.388-7.688h-25.136     C396.595,57.668,392.839,61.11,392.839,65.356z"/>
		</g>
	</g>
	<g>
		<g>
			<path class="st5" d="M320.316,194.714c12.784-5.507,19.215-14.51,22.303-23.467h-9.112c-19.063,0-34.516-15.453-34.516-34.516     V61.899c0-19.063,15.453-34.516,34.516-34.516h-29.092c-19.063,0-34.516,15.453-34.516,34.516v74.832     c0,19.063,15.453,34.516,34.516,34.516h9.112c-3.087,8.957-9.519,17.96-22.303,23.467c-3.495,1.505-2.967,6.618,0.77,7.336     c7.473,1.435,17.513,2.197,28.092-0.342C317.293,200.351,317.165,196.072,320.316,194.714z"/>
		</g>
	</g>
	<g>
		<g>
			<path class="st8" d="M482.587,77.968c-0.124,0-0.249-0.004-0.374-0.012c-3.308-0.203-5.824-3.05-5.62-6.357     c1.587-25.796-26.925-29.038-28.139-29.164c-3.29-0.34-5.693-3.277-5.363-6.568c0.329-3.29,3.244-5.696,6.542-5.374     c0.413,0.04,10.249,1.048,19.872,6.479c13.43,7.578,20.022,19.807,19.064,35.364C488.374,75.518,485.732,77.968,482.587,77.968z"/>
		</g>
	</g>
	<g>
		<g>
			<path class="st19" d="M358.816,116.468c-3.313,0-6-2.686-6-6V68.516c0-3.314,2.687-6,6-6s6,2.686,6,6v41.952     C364.816,113.782,362.13,116.468,358.816,116.468z"/>
		</g>
	</g>
	<g>
		<g>
			<path class="st19" d="M424.89,116.468c-3.313,0-6-2.686-6-6V68.516c0-3.314,2.687-6,6-6s6,2.686,6,6v41.952     C430.89,113.782,428.203,116.468,424.89,116.468z"/>
		</g>
	</g>
	<g>
		<g>
			<path class="st11" d="M304.861,484.617H20.874v-29.283c0-52.467,42.533-95,95-95h93.987c52.467,0,95,42.533,95,95V484.617z"/>
		</g>
	</g>
	<g>
		<g>
			<path class="st20" d="M293.363,476.691c-0.197,0-0.396-0.01-0.598-0.03c-3.298-0.326-5.706-3.264-5.38-6.561     c4.89-49.433-15.866-60.837-16.076-60.947l0.094,0.046l5.154-10.837c1.169,0.556,28.568,14.294,22.77,72.919     C299.021,474.378,296.411,476.69,293.363,476.691z"/>
		</g>
	</g>
	<g>
		<g>
			<path class="st14" d="M60.874,469.334c0-52.467,42.533-95,95-95h93.987c3.586,0,7.123,0.206,10.605,0.593     c-14.652-9.241-32.002-14.593-50.605-14.593h-93.987c-52.467,0-95,42.533-95,95v29.283h40V469.334z"/>
		</g>
	</g>
	<g>
		<g>
			<path class="st12" d="M81.565,269.171h32.483V153.18c0-10.729-8.698-19.427-19.427-19.427H81.565     c-10.729,0-19.427,8.698-19.427,19.427v96.563C62.138,260.473,70.836,269.171,81.565,269.171z"/>
		</g>
	</g>
	<g>
		<g>
			<path class="st12" d="M244.63,133.802h-13.22c-10.684,0-19.345,8.661-19.345,19.345v16.844     c20.936,15.573,34.5,40.501,34.5,68.598v30.532c9.775-0.971,17.411-9.216,17.411-19.248v-96.727     C263.975,142.463,255.314,133.802,244.63,133.802z"/>
		</g>
	</g>
	<g>
		<g>
			<circle class="st9" cx="248.499" cy="245.931" r="27.635"/>
		</g>
	</g>
	<g>
		<g>
			<circle class="st13" cx="74.39" cy="245.931" r="27.635"/>
		</g>
	</g>
	<g>
		<g>
			<path class="st9" d="M162.868,412.561L162.868,412.561c-21.737,0-39.359-17.621-39.359-39.359v-93.855h78.717v93.855     C202.226,394.939,184.605,412.561,162.868,412.561z"/>
		</g>
	</g>
	<g>
		<g>
			<path class="st13" d="M150.757,373.202v-93.855h-27.248v93.855c0,21.737,17.621,39.359,39.359,39.359l0,0     c4.79,0,9.379-0.858,13.624-2.424C161.47,404.593,150.757,390.15,150.757,373.202z"/>
		</g>
	</g>
	<g>
		<g>
			<path class="st9" d="M163.057,344.315L163.057,344.315c-47.188,0-85.442-38.254-85.442-85.442v-43.498     c0-47.188,38.254-85.442,85.442-85.442h0c47.188,0,85.442,38.254,85.442,85.442v43.498     C248.499,306.061,210.245,344.315,163.057,344.315z"/>
		</g>
	</g>
	<g>
		<g>
			<path class="st13" d="M107.6,248.115v-42.413c0-3.235,0.181-6.428,0.533-9.569c0.544-4.863,4.713-8.512,9.607-8.512h126.146     c-11.522-33.563-43.357-57.688-80.829-57.688c-3.668,0-7.28,0.239-10.827,0.687c0.005-0.003,0.01-0.006,0.016-0.009     c-0.273,0.034-0.542,0.085-0.815,0.122c-0.901,0.122-1.799,0.253-2.69,0.403c-0.432,0.073-0.861,0.156-1.29,0.235     c-0.789,0.145-1.576,0.298-2.357,0.466c-0.453,0.097-0.904,0.199-1.355,0.303c-0.761,0.176-1.517,0.363-2.27,0.559     c-0.441,0.115-0.882,0.229-1.32,0.351c-0.78,0.217-1.553,0.449-2.325,0.687c-0.393,0.121-0.788,0.237-1.179,0.364     c-0.924,0.3-1.838,0.62-2.748,0.95c-0.225,0.082-0.453,0.155-0.677,0.239c-1.131,0.422-2.25,0.867-3.358,1.335     c-0.289,0.122-0.571,0.255-0.859,0.38c-0.811,0.353-1.618,0.712-2.416,1.089c-0.399,0.189-0.793,0.387-1.188,0.582     c-0.678,0.333-1.353,0.672-2.021,1.023c-0.423,0.222-0.843,0.45-1.262,0.679c-0.634,0.347-1.262,0.701-1.887,1.064     c-0.418,0.243-0.836,0.487-1.25,0.736c-0.626,0.378-1.245,0.767-1.861,1.161c-0.389,0.249-0.781,0.494-1.166,0.749     c-0.679,0.449-1.346,0.914-2.01,1.381c-0.306,0.215-0.617,0.423-0.92,0.641c-0.941,0.681-1.867,1.38-2.779,2.097     c-0.283,0.223-0.557,0.458-0.837,0.684c-0.636,0.514-1.269,1.03-1.89,1.561c-0.371,0.317-0.732,0.645-1.097,0.968     c-0.518,0.459-1.033,0.919-1.539,1.39c-0.383,0.356-0.759,0.718-1.136,1.082c-0.475,0.458-0.944,0.92-1.408,1.389     c-0.375,0.379-0.747,0.759-1.116,1.145c-0.453,0.476-0.898,0.959-1.34,1.444c-0.356,0.391-0.713,0.779-1.061,1.176     c-0.455,0.518-0.897,1.048-1.339,1.577c-0.315,0.377-0.637,0.749-0.946,1.131c-0.648,0.803-1.279,1.619-1.898,2.446     c-0.322,0.429-0.631,0.866-0.944,1.301c-0.433,0.601-0.867,1.202-1.284,1.814c-0.306,0.449-0.599,0.907-0.897,1.363     c-0.348,0.532-0.696,1.065-1.032,1.605c-0.301,0.484-0.594,0.974-0.886,1.464c-0.314,0.528-0.624,1.058-0.927,1.593     c-0.285,0.504-0.566,1.01-0.841,1.52c-0.291,0.539-0.573,1.083-0.853,1.628c-0.264,0.515-0.528,1.029-0.781,1.55     c-0.276,0.566-0.538,1.14-0.801,1.713c-0.234,0.51-0.475,1.016-0.699,1.531c-0.303,0.695-0.586,1.4-0.871,2.104     c-0.31,0.767-0.608,1.539-0.896,2.318c-0.236,0.637-0.479,1.271-0.7,1.916h0.007c-2.988,8.704-4.62,18.037-4.62,27.754v42.466     c0,47.006,37.534,85.983,84.537,86.47c15.112,0.156,29.33-3.612,41.701-10.347c-3.73,0.471-7.535,0.703-11.399,0.677     C145.317,334.321,107.6,295.253,107.6,248.115z"/>
		</g>
	</g>
	<g>
		<g>
			<path class="st17" d="M215.689,175.046H72.727c-15.983,0-28.94-12.957-28.94-28.94v-19.449c0-15.983,12.957-28.94,28.94-28.94     h142.962c15.983,0,28.94,12.957,28.94,28.94v19.449C244.63,162.089,231.673,175.046,215.689,175.046z"/>
		</g>
	</g>
	<g>
		<g>
			<path class="st1" d="M228.505,147.922c-3.206,0-5.865-2.535-5.991-5.767c-0.307-7.863-2.787-13.892-7.372-17.918     c-8.349-7.33-21.427-6.367-21.556-6.355c-3.301,0.3-6.22-2.132-6.52-5.432c-0.3-3.3,2.132-6.219,5.432-6.519     c0.742-0.067,18.248-1.523,30.562,9.289c7.154,6.283,11.005,15.188,11.444,26.468c0.129,3.311-2.45,6.1-5.762,6.229     C228.663,147.92,228.583,147.922,228.505,147.922z"/>
		</g>
	</g>
	<g>
		<g>
			<g>
				<circle class="st17" cx="114.693" cy="237.124" r="10.64"/>
			</g>
		</g>
		<g>
			<g>
				<circle class="st17" cx="211.42" cy="237.124" r="10.64"/>
			</g>
		</g>
	</g>
	<g>
		<g>
			<path class="st12" d="M93.786,146.106v-19.449c0-15.983,12.957-28.941,28.94-28.941h-50c-15.983,0-28.94,12.957-28.94,28.941     v19.449c0,15.983,12.957,28.94,28.94,28.94h50C106.743,175.046,93.786,162.089,93.786,146.106z"/>
		</g>
	</g>
	<g>
		<g>
			<circle class="st14" cx="102.025" cy="428.376" r="15.815"/>
		</g>
	</g>
	<g>
		<g>
			<circle class="st14" cx="140.67" cy="450.49" r="15.815"/>
		</g>
	</g>
	<g>
		<g>
			<circle class="st5" cx="322.831" cy="139.546" r="15.815"/>
		</g>
	</g>
</g>
</svg>
