<svg width="207" height="40" viewBox="0 0 207 40" fill="none" xmlns="http://www.w3.org/2000/svg">
    <path fill-rule="evenodd" clip-rule="evenodd"
          d="M3.7102 36.1633V28.3863L6.81928 25.1713L5.33936 21.2759L0 26.7971V36.1633V39.9998H3.7102H27.3346H31.0448V36.1633V26.7971L18.146 13.459L15.5224 10.7461L12.8989 13.459L8.53876 17.9676L10.5568 21.3065L15.5224 16.1718L27.3346 28.3863V36.1633H3.7102Z"
          fill="#FE4856"/>
    <path fill-rule="evenodd" clip-rule="evenodd"
          d="M15.5214 36.1753L12.9709 38.9428C14.3985 40.3524 16.6443 40.3524 18.072 38.9428L15.5214 36.1753ZM23.8804 24.8925C25.3674 22.0303 26.4531 18.9229 26.4531 15.9508C26.4531 12.7347 25.3014 9.65042 23.2513 7.37634C21.2012 5.10227 18.4207 3.82471 15.5214 3.82471C12.6222 3.82471 9.84164 5.10227 7.79155 7.37634C5.74147 9.65042 4.58975 12.7347 4.58975 15.9508C4.58975 22.4375 9.76081 29.5683 12.9899 33.3887C13.1576 33.5873 13.3201 33.7768 13.4763 33.9568C14.6856 35.3502 15.5214 36.1753 15.5214 36.1753C12.9709 38.9428 12.9702 38.9422 12.9696 38.9416L12.9681 38.9401L12.9643 38.9363L12.9537 38.9258C12.9454 38.9175 12.9344 38.9067 12.9209 38.8931C12.8938 38.866 12.8566 38.8286 12.81 38.7812C12.7167 38.6864 12.5853 38.5514 12.4214 38.3795C12.0937 38.0357 11.6344 37.5425 11.0872 36.9235C9.99664 35.6899 8.53745 33.9353 7.07039 31.8541C4.27106 27.8826 0.894531 21.9688 0.894531 15.9508C0.894531 11.8025 2.37772 7.77547 5.08983 4.76703C7.81002 1.74964 11.5563 0 15.5214 0C19.4865 0 23.2328 1.74964 25.953 4.76703C28.6651 7.77547 30.1483 11.8025 30.1483 15.9508C30.1483 20.1229 28.5254 24.245 26.5972 27.7044L23.8804 24.8925ZM21.679 28.5917C20.4305 30.4625 19.1331 32.1108 18.0529 33.3889C17.8852 33.5873 17.7228 33.7768 17.5665 33.9567C16.3571 35.3502 15.5214 36.1753 15.5214 36.1753C18.072 38.9428 18.0726 38.9422 18.0732 38.9416L18.0748 38.9401L18.0785 38.9363L18.0891 38.9258C18.0974 38.9175 18.1085 38.9067 18.1219 38.8931C18.149 38.866 18.1862 38.8286 18.2329 38.7812C18.3262 38.6864 18.4575 38.5514 18.6214 38.3795C18.9492 38.0357 19.4084 37.5425 19.9556 36.9235C21.0462 35.6899 22.5053 33.9353 23.9725 31.8541C24.082 31.6987 24.1922 31.5404 24.3032 31.3793L21.679 28.5917Z"
          fill="white"/>
    <path d="M57.2157 11.3065C56.2022 10.2872 54.9433 9.77219 53.439 9.77219C52.3828 9.77219 51.3906 10.1155 50.8571 10.4696C50.5904 10.652 50.345 10.8559 50.121 11.0812C49.6835 11.5533 49.6302 11.6713 49.5769 11.7894H49.4168V9.98678H46.2695V25.373H49.4168V19.6327H49.5555L49.8969 20.0082C50.1423 20.2765 50.5904 20.534 51.2412 20.7915C51.892 21.0597 52.6175 21.1885 53.439 21.1885C54.9433 21.1885 56.2022 20.6735 57.2157 19.6542C58.2293 18.6348 58.7307 17.24 58.7307 15.4803C58.7307 13.7207 58.2293 12.3258 57.2157 11.3065ZM54.6765 17.5619C54.1324 18.1091 53.3856 18.3773 52.4574 18.3773C51.5399 18.3773 50.8038 18.1091 50.249 17.5726C49.6942 17.0469 49.4168 16.3494 49.4168 15.4803C49.4168 14.6327 49.6942 13.9353 50.2383 13.3881C50.7824 12.8516 51.5293 12.5833 52.4574 12.5833C53.3856 12.5833 54.1324 12.8516 54.6765 13.3881C55.2207 13.9353 55.498 14.6327 55.498 15.4803C55.498 16.328 55.2207 17.0254 54.6765 17.5619Z"
          fill="white"/>
    <path d="M60.9178 17.873C60.9178 18.9567 61.3445 19.7829 62.2087 20.3409C63.0729 20.9095 64.1504 21.1885 65.4414 21.1885C66.6683 21.1885 67.7032 20.9524 68.2899 20.6735C69.2181 20.2336 69.5275 19.7078 69.5275 19.6542H69.6875L69.7516 19.8044C69.8369 20.019 70.1036 20.3516 70.4664 20.652C70.8291 20.9632 71.5439 21.1885 72.3227 21.1885C72.9629 21.1885 73.411 21.1134 73.6777 20.9739V18.3344L73.2189 18.4203C72.7068 18.4203 72.5041 18.1413 72.5041 17.24V13.8065C72.5041 12.4653 72.024 11.4567 71.0638 10.7808C70.1036 10.1048 68.7594 9.77219 67.0417 9.77219C65.3347 9.77219 63.9797 10.0833 62.9875 10.7057C61.9953 11.328 61.4832 12.2722 61.4726 13.5276H64.7052C64.7052 13.0554 64.9506 12.7014 65.4414 12.4761C65.9215 12.2507 66.4549 12.1434 67.0417 12.1434C67.8739 12.1434 68.4713 12.3044 68.8234 12.6155C69.1754 12.9374 69.3568 13.3344 69.3568 13.8065V15.416L69.0047 15.1692C68.7807 15.0297 68.3753 14.8795 67.7885 14.7185C67.2017 14.5683 66.5403 14.4932 65.8148 14.4932C64.3958 14.4932 63.2329 14.7722 62.3047 15.3301C61.3766 15.8988 60.9178 16.7464 60.9178 17.873ZM66.7323 18.7958C65.0146 18.7958 64.1504 18.4417 64.1504 17.7228C64.1504 17.0039 65.0146 16.6499 66.7323 16.6499C67.3191 16.6499 67.8312 16.7142 68.2899 16.8323C68.738 16.9503 69.0154 17.0469 69.1328 17.122C69.2395 17.1971 69.3141 17.2615 69.3568 17.3044V17.9589L69.1328 18.1627C68.9727 18.3022 68.6847 18.4417 68.2473 18.5812C67.8098 18.7207 67.2977 18.7958 66.7323 18.7958Z"
          fill="white"/>
    <path d="M87.7072 20.9739V14.5576C87.7072 12.9589 87.2911 11.7679 86.4482 10.9632C85.6054 10.1692 84.4958 9.77219 83.1196 9.77219C81.978 9.77219 80.9431 10.1048 80.399 10.4803C80.1323 10.6627 79.8976 10.8773 79.6949 11.1027C79.2895 11.5748 79.2468 11.6928 79.1935 11.8108H79.0121V9.98678H75.8648V20.9739H79.0121V15.4374C79.0121 14.5898 79.2575 13.8924 79.7376 13.3666C80.2177 12.8409 80.9005 12.5833 81.786 12.5833C83.5036 12.5833 84.5599 13.5597 84.5599 15.4374V20.9739H87.7072Z"
          fill="white"/>
    <path d="M100.904 13.3881C100.904 10.9739 99.1228 9.76146 95.5487 9.77219C93.8951 9.77219 92.5935 10.0512 91.6439 10.6198C90.6944 11.1885 90.2143 12.0254 90.2143 13.1091C90.2143 13.8494 90.417 14.461 90.8118 14.9439C91.2065 15.4267 91.6973 15.77 92.2841 15.9524C92.8709 16.1348 93.511 16.2851 94.1938 16.4031C94.8766 16.5211 95.5167 16.5962 96.1035 16.6391C96.6903 16.6928 97.1917 16.8001 97.5865 16.9718C97.9812 17.1542 98.1732 17.4009 98.1732 17.7228C98.1626 18.4632 97.3304 18.8387 95.6767 18.8387C93.9697 18.8387 93.2336 18.4524 93.2336 17.4546V17.1112H90.0009V17.4546C90.0009 19.9439 91.8893 21.1885 95.6767 21.1885C99.4962 21.1992 101.406 20.0297 101.406 17.6799C101.406 16.7894 101.129 16.0705 100.584 15.5447C100.04 15.019 99.3788 14.6649 98.6 14.5039C97.8212 14.343 97.0424 14.2357 96.2635 14.1606C95.4847 14.0855 94.8232 13.9782 94.2791 13.828C93.735 13.6885 93.4576 13.4524 93.4576 13.1306C93.4576 12.4546 94.1298 12.122 95.4847 12.122C96.4769 12.122 97.1277 12.2615 97.3838 12.5619C97.6291 12.873 97.6718 13.034 97.6718 13.3881H100.904Z"
          fill="white"/>
    <path d="M103.796 9.98678V20.9739H106.943V9.98678H103.796ZM104.094 7.87305C104.404 8.14129 104.831 8.27004 105.375 8.27004C105.919 8.27004 106.346 8.14129 106.655 7.87305C106.964 7.61554 107.124 7.26146 107.124 6.82154C107.124 6.38163 106.964 6.03828 106.655 5.77004C106.346 5.5018 105.919 5.37305 105.375 5.37305C104.831 5.37305 104.404 5.5018 104.094 5.77004C103.785 6.03828 103.625 6.38163 103.625 6.82154C103.625 7.26146 103.785 7.61554 104.094 7.87305Z"
          fill="white"/>
    <path d="M111.296 19.6756C112.448 20.6842 113.952 21.1885 115.798 21.1885C117.644 21.1885 119.148 20.6842 120.3 19.6756C121.453 18.667 122.029 17.2722 122.029 15.4803C122.029 13.6885 121.453 12.2936 120.3 11.2851C119.148 10.2765 117.644 9.77219 115.798 9.77219C113.952 9.77219 112.448 10.2765 111.296 11.2851C110.144 12.2936 109.568 13.6885 109.568 15.4803C109.568 17.2722 110.144 18.667 111.296 19.6756ZM117.996 17.637C117.462 18.1949 116.726 18.4739 115.798 18.4739C114.87 18.4739 114.134 18.1949 113.611 17.637C113.078 17.0791 112.811 16.3602 112.811 15.4803C112.811 14.6005 113.078 13.8816 113.611 13.3237C114.134 12.7658 114.87 12.4868 115.798 12.4868C116.726 12.4868 117.462 12.7658 117.996 13.3237C118.529 13.8816 118.796 14.6005 118.796 15.4803C118.796 16.3602 118.529 17.0791 117.996 17.637Z"
          fill="white"/>
    <path d="M136.485 20.9739V14.5576C136.485 12.9589 136.069 11.7679 135.226 10.9632C134.383 10.1692 133.274 9.77219 131.897 9.77219C130.756 9.77219 129.721 10.1048 129.177 10.4803C128.91 10.6627 128.675 10.8773 128.473 11.1027C128.067 11.5748 128.025 11.6928 127.971 11.8108H127.79V9.98678H124.643V20.9739H127.79V15.4374C127.79 14.5898 128.035 13.8924 128.515 13.3666C128.995 12.8409 129.678 12.5833 130.564 12.5833C132.281 12.5833 133.338 13.5597 133.338 15.4374V20.9739H136.485Z"
          fill="white"/>
    <path d="M138.992 17.873C138.992 18.9567 139.419 19.7829 140.283 20.3409C141.147 20.9095 142.225 21.1885 143.516 21.1885C144.743 21.1885 145.777 20.9524 146.364 20.6735C147.292 20.2336 147.602 19.7078 147.602 19.6542H147.762L147.826 19.8044C147.911 20.019 148.178 20.3516 148.541 20.652C148.903 20.9632 149.618 21.1885 150.397 21.1885C151.037 21.1885 151.485 21.1134 151.752 20.9739V18.3344L151.293 18.4203C150.781 18.4203 150.578 18.1413 150.578 17.24V13.8065C150.578 12.4653 150.098 11.4567 149.138 10.7808C148.178 10.1048 146.834 9.77219 145.116 9.77219C143.409 9.77219 142.054 10.0833 141.062 10.7057C140.07 11.328 139.558 12.2722 139.547 13.5276H142.78C142.78 13.0554 143.025 12.7014 143.516 12.4761C143.996 12.2507 144.529 12.1434 145.116 12.1434C145.948 12.1434 146.546 12.3044 146.898 12.6155C147.25 12.9374 147.431 13.3344 147.431 13.8065V15.416L147.079 15.1692C146.855 15.0297 146.45 14.8795 145.863 14.7185C145.276 14.5683 144.615 14.4932 143.889 14.4932C142.47 14.4932 141.307 14.7722 140.379 15.3301C139.451 15.8988 138.992 16.7464 138.992 17.873ZM144.807 18.7958C143.089 18.7958 142.225 18.4417 142.225 17.7228C142.225 17.0039 143.089 16.6499 144.807 16.6499C145.393 16.6499 145.905 16.7142 146.364 16.8323C146.812 16.9503 147.09 17.0469 147.207 17.122C147.314 17.1971 147.388 17.2615 147.431 17.3044V17.9589L147.207 18.1627C147.047 18.3022 146.759 18.4417 146.322 18.5812C145.884 18.7207 145.372 18.7958 144.807 18.7958Z"
          fill="white"/>
    <path d="M154.344 16.8215C154.344 19.8366 155.966 21.1885 159.167 21.1885C159.999 21.1992 160.682 21.0705 161.226 20.8022V18.1627L161.023 18.2486C160.799 18.3881 160.212 18.5597 159.626 18.5597C158.943 18.5597 158.42 18.4095 158.047 18.0984C157.673 17.7872 157.492 17.2293 157.492 16.4031V12.5404H160.895V9.98678H157.492V7.78721H155.785L152.744 10.7164V12.5404H154.344V16.8215Z"
          fill="white"/>
    <path d="M166.176 18.152C165.835 17.8409 165.387 17.6799 164.832 17.6799C164.277 17.6799 163.829 17.8409 163.488 18.152C163.146 18.4632 162.976 18.8924 162.976 19.4288C162.976 19.9761 163.146 20.4052 163.488 20.7164C163.829 21.0276 164.277 21.1885 164.832 21.1885C165.387 21.1885 165.835 21.0276 166.176 20.7164C166.518 20.4052 166.688 19.9761 166.688 19.4288C166.688 18.8924 166.518 18.4632 166.176 18.152Z"
          fill="white"/>
    <path d="M180.035 11.3065C179.021 10.2872 177.762 9.77219 176.258 9.77219C175.202 9.77219 174.21 10.1155 173.676 10.4696C173.41 10.652 173.164 10.8559 172.94 11.0812C172.503 11.5533 172.449 11.6713 172.396 11.7894H172.236V9.98678H169.089V25.373H172.236V19.6327H172.375L172.716 20.0082C172.962 20.2765 173.41 20.534 174.06 20.7915C174.711 21.0597 175.437 21.1885 176.258 21.1885C177.762 21.1885 179.021 20.6735 180.035 19.6542C181.048 18.6348 181.55 17.24 181.55 15.4803C181.55 13.7207 181.048 12.3258 180.035 11.3065ZM177.496 17.5619C176.952 18.1091 176.205 18.3773 175.277 18.3773C174.359 18.3773 173.623 18.1091 173.068 17.5726C172.513 17.0469 172.236 16.3494 172.236 15.4803C172.236 14.6327 172.513 13.9353 173.058 13.3881C173.602 12.8516 174.348 12.5833 175.277 12.5833C176.205 12.5833 176.952 12.8516 177.496 13.3881C178.04 13.9353 178.317 14.6327 178.317 15.4803C178.317 16.328 178.04 17.0254 177.496 17.5619Z"
          fill="white"/>
    <path d="M191.301 9.77219C190.192 9.77219 189.199 10.1585 188.677 10.5447C188.41 10.7486 188.186 10.9739 187.983 11.2314C187.578 11.7464 187.556 11.8859 187.503 12.0039H187.322V9.98678H184.174V20.9739H187.322V16.1134C187.322 15.2228 187.599 14.4825 188.143 13.9031C188.687 13.3344 189.477 13.0447 190.49 13.0447C191.291 13.034 191.92 13.1413 192.389 13.3666V9.87948L191.301 9.77219Z"
          fill="white"/>
    <path d="M195.537 19.6756C196.689 20.6842 198.193 21.1885 200.039 21.1885C201.885 21.1885 203.389 20.6842 204.541 19.6756C205.693 18.667 206.27 17.2722 206.27 15.4803C206.27 13.6885 205.693 12.2936 204.541 11.2851C203.389 10.2765 201.885 9.77219 200.039 9.77219C198.193 9.77219 196.689 10.2765 195.537 11.2851C194.384 12.2936 193.808 13.6885 193.808 15.4803C193.808 17.2722 194.384 18.667 195.537 19.6756ZM202.237 17.637C201.703 18.1949 200.967 18.4739 200.039 18.4739C199.111 18.4739 198.375 18.1949 197.852 17.637C197.318 17.0791 197.052 16.3602 197.052 15.4803C197.052 14.6005 197.318 13.8816 197.852 13.3237C198.375 12.7658 199.111 12.4868 200.039 12.4868C200.967 12.4868 201.703 12.7658 202.237 13.3237C202.77 13.8816 203.037 14.6005 203.037 15.4803C203.037 16.3602 202.77 17.0791 202.237 17.637Z"
          fill="white"/>
    <path d="M45.9426 35.1501C45.8734 35.5802 45.8362 35.8089 45.7191 36.092C45.6021 36.3806 45.4158 36.5222 45.1392 36.5222C45.0168 36.5222 44.8944 36.5004 44.7773 36.4568V37.3716L44.8572 37.4042C44.9423 37.4315 45.1392 37.4696 45.3147 37.4696C45.7457 37.4696 46.0862 37.3008 46.331 36.9687C46.5757 36.6365 46.762 36.0267 46.8843 35.1501L47.2408 32.7652H49.5713V37.3607H50.5077V31.894H46.448L45.9426 35.1501Z"
          fill="white"/>
    <path d="M51.4388 31.894L54.0247 37.4696L53.9502 37.671C53.7853 38.0957 53.631 38.4007 53.4767 38.5858C53.3224 38.7709 53.0989 38.8635 52.8169 38.8635C52.5615 38.8635 52.3434 38.8254 52.1625 38.7546V39.5931L52.2476 39.6149C52.3593 39.6584 52.6413 39.702 52.902 39.702C53.4235 39.702 53.8172 39.5495 54.0779 39.2446C54.3386 38.9397 54.6259 38.417 54.9399 37.671L57.4033 31.894H56.3871L54.5461 36.288H54.5142L52.4445 31.894H51.4388Z"
          fill="white"/>
    <path d="M59.1592 31.9321H58.2227V33.4894C58.2227 34.9051 59.0527 35.6456 60.6223 35.6456H62.0696V37.3607H63.006V31.9321H62.0696V34.7744H60.6223C59.5582 34.7744 59.1592 34.3224 59.1592 33.4894V31.9321Z"
          fill="white"/>
    <path d="M65.5812 36.4895V31.894H64.6448V37.3607H71.8543V31.894H70.9179V36.4895H68.7204V31.894H67.7787V36.4895H65.5812Z"
          fill="white"/>
    <path d="M78.7074 37.3607V31.894H77.5155L74.4455 36.2663H74.4242V31.894H73.4878V37.3607H74.6743L77.7443 32.9885H77.7656V37.3607H78.7074Z"
          fill="white"/>
    <path d="M85.9807 34.6274C85.9807 33.7725 85.7041 33.081 85.156 32.5638C84.6027 32.0465 83.9003 31.7851 83.0544 31.7851C82.203 31.7851 81.5007 32.0465 80.9527 32.5638C80.3993 33.081 80.1227 33.7725 80.1227 34.6274C80.1227 35.4931 80.3993 36.1792 80.958 36.6964C81.5114 37.2137 82.2296 37.4696 83.1076 37.4696C83.5226 37.4696 83.9003 37.4151 84.2355 37.2954C84.5708 37.181 84.8315 37.0558 85.0177 36.9088C85.2039 36.7618 85.3635 36.5984 85.5019 36.4133C85.6402 36.2282 85.7253 36.0975 85.7626 36.0267C85.7945 35.9559 85.8158 35.9015 85.8318 35.8579H84.7304L84.6878 35.9341C84.6186 36.0213 84.4271 36.1846 84.1983 36.3262C83.9642 36.4677 83.5545 36.5821 83.1076 36.5821C82.5063 36.5821 82.0221 36.4078 81.6657 36.0648C81.3038 35.7218 81.1229 35.3951 81.1229 35.0847H85.9488L85.9807 34.6274ZM84.4697 33.1954C84.8155 33.5384 84.9911 33.8814 84.9911 34.2136H81.1123C81.1123 33.8814 81.2879 33.5384 81.6391 33.1954C81.9849 32.8523 82.4584 32.6781 83.0544 32.6781C83.645 32.6781 84.1185 32.8523 84.4697 33.1954Z"
          fill="white"/>
    <path d="M95.143 37.3607V31.894H90.0245V37.3607H90.9609V32.7652H94.2065V37.3607H95.143Z" fill="white"/>
    <path d="M96.5636 35.8307C96.5636 36.3969 96.7977 36.8108 97.2712 37.0721C97.7448 37.3389 98.3566 37.4696 99.1122 37.4696C99.6389 37.4696 100.118 37.3552 100.384 37.2355C100.517 37.1756 100.634 37.1102 100.746 37.034C100.964 36.887 100.99 36.8325 101.017 36.8053H101.06L101.086 36.8707C101.129 36.9578 101.23 37.1048 101.384 37.2355C101.533 37.3716 101.826 37.4696 102.172 37.4696C102.379 37.4696 102.539 37.4424 102.65 37.3825V36.5222L102.629 36.5331C102.587 36.5712 102.475 36.593 102.347 36.593C102.028 36.593 101.89 36.4242 101.89 35.8579V33.8705C101.884 33.1954 101.645 32.6781 101.177 32.3187C100.708 31.9648 100.102 31.7851 99.3516 31.7851C98.612 31.7851 98.0055 31.9321 97.5319 32.2262C97.0584 32.5202 96.819 32.9667 96.8136 33.5711H97.7501C97.7501 32.9776 98.2822 32.6781 99.3516 32.6781C100.458 32.6781 100.953 33.1572 100.953 33.8705V34.7308L100.746 34.5947C100.607 34.5076 100.379 34.4205 100.059 34.3279C99.74 34.2353 99.3995 34.1918 99.0377 34.1918C98.3194 34.1918 97.7235 34.3224 97.2606 34.5892C96.7977 34.856 96.5636 35.2699 96.5636 35.8307ZM99.2505 35.0847C99.5964 35.0847 99.905 35.1174 100.187 35.1882C100.464 35.259 100.65 35.3243 100.751 35.3733C100.852 35.4278 100.916 35.4713 100.953 35.5094V36.1356C100.916 36.1737 100.852 36.2173 100.751 36.2717C100.65 36.3316 100.464 36.3969 100.182 36.4677C99.8996 36.544 99.591 36.5821 99.2505 36.5821C98.0959 36.5821 97.5213 36.3316 97.5213 35.8307C97.5213 35.3352 98.0959 35.0847 99.2505 35.0847Z"
          fill="white"/>
    <path d="M108.908 37.3607V31.894H107.966V34.1264H104.624V31.894H103.688V37.3607H104.624V34.9976H107.966V37.3607H108.908Z"
          fill="white"/>
    <path d="M111.153 36.6801C111.701 37.1973 112.403 37.4587 113.255 37.4587C113.733 37.4587 114.17 37.377 114.558 37.2082C114.947 37.0394 115.244 36.8325 115.452 36.5875C115.867 36.0975 116.085 35.602 116.085 35.2317H115.117L115.085 35.3733C115.037 35.553 114.872 35.8361 114.627 36.092C114.383 36.3534 113.877 36.5712 113.255 36.5712C112.659 36.5712 112.18 36.3861 111.823 36.0158C111.461 35.651 111.281 35.1827 111.281 34.6165C111.281 34.0556 111.461 33.5874 111.823 33.2226C112.18 32.8578 112.659 32.6781 113.255 32.6781C113.877 32.6781 114.383 32.9068 114.627 33.1464C114.75 33.2661 114.851 33.4023 114.936 33.5547C115.106 33.8596 115.101 33.9468 115.117 34.0175H116.085C116.085 33.6418 115.867 33.1409 115.452 32.6509C115.244 32.4059 114.947 32.2044 114.558 32.0356C114.17 31.8668 113.733 31.7851 113.255 31.7851C112.403 31.7851 111.701 32.041 111.153 32.5583C110.6 33.0756 110.323 33.7616 110.323 34.6165C110.323 35.4713 110.6 36.1628 111.153 36.6801Z"
          fill="white"/>
    <path d="M122.72 37.3607V31.894H121.528L118.458 36.2663H118.437V31.894H117.5V37.3607H118.687L121.757 32.9885H121.778V37.3607H122.72Z"
          fill="white"/>
    <path d="M124.965 36.691C125.513 37.2082 126.216 37.4696 127.067 37.4696C127.913 37.4696 128.615 37.2082 129.169 36.691C129.717 36.1737 129.993 35.4822 129.993 34.6274C129.993 33.7725 129.717 33.0865 129.169 32.5638C128.615 32.0465 127.913 31.7851 127.067 31.7851C126.216 31.7851 125.513 32.0465 124.965 32.5638C124.412 33.0865 124.135 33.7725 124.135 34.6274C124.135 35.4822 124.412 36.1737 124.965 36.691ZM128.498 36.0321C128.137 36.3969 127.658 36.5821 127.067 36.5821C126.471 36.5821 125.992 36.3969 125.636 36.0321C125.274 35.6673 125.093 35.1991 125.093 34.6274C125.093 34.0556 125.274 33.5874 125.636 33.2226C125.992 32.8578 126.471 32.6781 127.067 32.6781C127.658 32.6781 128.137 32.8578 128.498 33.2226C128.855 33.5874 129.036 34.0556 129.036 34.6274C129.036 35.1991 128.855 35.6673 128.498 36.0321Z"
          fill="white"/>
    <path d="M136.639 37.3607V31.894H135.697V34.1264H132.356V31.894H131.419V37.3607H132.356V34.9976H135.697V37.3607H136.639Z"
          fill="white"/>
    <path d="M138.054 35.8307C138.054 36.3969 138.288 36.8108 138.762 37.0721C139.235 37.3389 139.847 37.4696 140.603 37.4696C141.13 37.4696 141.608 37.3552 141.875 37.2355C142.008 37.1756 142.125 37.1102 142.236 37.034C142.454 36.887 142.481 36.8325 142.508 36.8053H142.55L142.577 36.8707C142.619 36.9578 142.721 37.1048 142.875 37.2355C143.024 37.3716 143.316 37.4696 143.662 37.4696C143.87 37.4696 144.029 37.4424 144.141 37.3825V36.5222L144.12 36.5331C144.077 36.5712 143.966 36.593 143.838 36.593C143.519 36.593 143.38 36.4242 143.38 35.8579V33.8705C143.375 33.1954 143.136 32.6781 142.667 32.3187C142.199 31.9648 141.593 31.7851 140.842 31.7851C140.103 31.7851 139.496 31.9321 139.023 32.2262C138.549 32.5202 138.31 32.9667 138.304 33.5711H139.241C139.241 32.9776 139.773 32.6781 140.842 32.6781C141.949 32.6781 142.444 33.1572 142.444 33.8705V34.7308L142.236 34.5947C142.098 34.5076 141.869 34.4205 141.55 34.3279C141.231 34.2353 140.89 34.1918 140.528 34.1918C139.81 34.1918 139.214 34.3224 138.751 34.5892C138.288 34.856 138.054 35.2699 138.054 35.8307ZM140.741 35.0847C141.087 35.0847 141.396 35.1174 141.678 35.1882C141.954 35.259 142.141 35.3243 142.242 35.3733C142.343 35.4278 142.407 35.4713 142.444 35.5094V36.1356C142.407 36.1737 142.343 36.2173 142.242 36.2717C142.141 36.3316 141.954 36.3969 141.672 36.4677C141.39 36.544 141.082 36.5821 140.741 36.5821C139.587 36.5821 139.012 36.3316 139.012 35.8307C139.012 35.3352 139.587 35.0847 140.741 35.0847Z"
          fill="white"/>
    <path d="M146.456 32.7652V37.3607L147.392 37.3716V32.7652H149.552V31.894H144.301V32.7652H146.456Z" fill="white"/>
    <path d="M155.921 37.3607H156.858V31.894H155.921V37.3607ZM151.468 33.7017V31.894H150.531V37.3607H152.532C154.133 37.3607 154.931 36.7509 154.931 35.5312C154.931 34.3116 154.133 33.7017 152.532 33.7017H151.468ZM153.66 36.2826C153.447 36.4405 153.069 36.5222 152.532 36.5222H151.468V34.5402H152.532C153.069 34.5402 153.447 34.6219 153.66 34.7798C153.867 34.9377 153.974 35.1882 153.974 35.5312C153.974 35.8742 153.867 36.1247 153.66 36.2826Z"
          fill="white"/>
    <path d="M165.881 35.2753L168.121 30.7833H168.169V37.3607H169.191V29.5527H167.621L165.259 34.2952H165.216L162.849 29.5527H161.279V37.3607H162.306V30.7833H162.349L164.594 35.2753H165.881Z"
          fill="white"/>
    <path d="M171.607 36.691C172.155 37.2082 172.857 37.4696 173.708 37.4696C174.554 37.4696 175.257 37.2082 175.81 36.691C176.358 36.1737 176.635 35.4822 176.635 34.6274C176.635 33.7725 176.358 33.0865 175.81 32.5638C175.257 32.0465 174.554 31.7851 173.708 31.7851C172.857 31.7851 172.155 32.0465 171.607 32.5638C171.053 33.0865 170.776 33.7725 170.776 34.6274C170.776 35.4822 171.053 36.1737 171.607 36.691ZM175.139 36.0321C174.778 36.3969 174.299 36.5821 173.708 36.5821C173.112 36.5821 172.633 36.3969 172.277 36.0321C171.915 35.6673 171.734 35.1991 171.734 34.6274C171.734 34.0556 171.915 33.5874 172.277 33.2226C172.633 32.8578 173.112 32.6781 173.708 32.6781C174.299 32.6781 174.778 32.8578 175.139 33.2226C175.496 33.5874 175.677 34.0556 175.677 34.6274C175.677 35.1991 175.496 35.6673 175.139 36.0321Z"
          fill="white"/>
    <path d="M178.672 36.6801C179.22 37.1973 179.923 37.4587 180.774 37.4587C181.253 37.4587 181.689 37.377 182.078 37.2082C182.466 37.0394 182.764 36.8325 182.972 36.5875C183.387 36.0975 183.605 35.602 183.605 35.2317H182.636L182.604 35.3733C182.556 35.553 182.392 35.8361 182.147 36.092C181.902 36.3534 181.397 36.5712 180.774 36.5712C180.178 36.5712 179.699 36.3861 179.343 36.0158C178.981 35.651 178.8 35.1827 178.8 34.6165C178.8 34.0556 178.981 33.5874 179.343 33.2226C179.699 32.8578 180.178 32.6781 180.774 32.6781C181.397 32.6781 181.902 32.9068 182.147 33.1464C182.269 33.2661 182.37 33.4023 182.455 33.5547C182.626 33.8596 182.62 33.9468 182.636 34.0175H183.605C183.605 33.6418 183.387 33.1409 182.972 32.6509C182.764 32.4059 182.466 32.2044 182.078 32.0356C181.689 31.8668 181.253 31.7851 180.774 31.7851C179.923 31.7851 179.22 32.041 178.672 32.5583C178.119 33.0756 177.842 33.7616 177.842 34.6165C177.842 35.4713 178.119 36.1628 178.672 36.6801Z"
          fill="white"/>
    <path d="M190.202 37.3607L187.143 34.5838L190 31.894H188.776L185.956 34.562V31.894H185.02V37.3607H185.956V34.6383L188.963 37.3607H190.202Z"
          fill="white"/>
    <path d="M195.794 33.3587C195.794 32.395 195.012 31.894 193.735 31.894H191.022V37.3607H193.964C195.427 37.3607 196.14 36.8707 196.14 35.8198C196.14 35.3624 195.933 35.0085 195.725 34.8343C195.619 34.7526 195.496 34.6818 195.353 34.6274C195.071 34.5239 195.002 34.5185 194.932 34.5185V34.464L195.018 34.4368C195.14 34.4205 195.326 34.317 195.496 34.1754C195.661 34.0339 195.794 33.729 195.794 33.3587ZM195.182 35.7545C195.182 36.2663 194.778 36.5222 193.964 36.5222H191.958V34.9976H193.964C194.778 34.9976 195.182 35.2481 195.182 35.7545ZM194.831 33.4567C194.831 33.8869 194.507 34.1863 193.842 34.2027H191.958V32.7325H193.735C194.464 32.7325 194.831 32.9721 194.831 33.4567Z"
          fill="white"/>
    <path d="M202.945 37.3607H203.882V31.894H202.945V37.3607ZM198.492 33.7017V31.894H197.556V37.3607H199.556C201.158 37.3607 201.956 36.7509 201.956 35.5312C201.956 34.3116 201.158 33.7017 199.556 33.7017H198.492ZM200.684 36.2826C200.471 36.4405 200.093 36.5222 199.556 36.5222H198.492V34.5402H199.556C200.093 34.5402 200.471 34.6219 200.684 34.7798C200.892 34.9377 200.998 35.1882 200.998 35.5312C200.998 35.8742 200.892 36.1247 200.684 36.2826Z"
          fill="white"/>
</svg>
