<svg width="168" height="60" viewBox="0 0 168 60" fill="none" xmlns="http://www.w3.org/2000/svg">
<g clip-path="url(#clip0_72_1371)">
<path d="M61.0602 27.92C60.5747 27.92 60.2042 27.7856 59.9487 27.5168C59.6932 27.248 59.5654 26.8704 59.5654 26.384V15.7472C59.5654 14.7232 60.0765 14.2112 61.0985 14.2112H67.6908C68.5339 14.2112 68.9555 14.6208 68.9555 15.44C68.9555 16.2592 68.5339 16.6688 67.6908 16.6688H62.5358V26.384C62.5358 26.8704 62.408 27.248 62.1525 27.5168C61.9098 27.7856 61.5457 27.92 61.0602 27.92Z" fill="white"/>
<path d="M69.1374 27.92C68.6009 27.92 68.2176 27.7408 67.9876 27.3824C67.7577 27.024 67.7641 26.5824 68.0068 26.0576L72.9127 15.2864C73.1171 14.8512 73.3598 14.5376 73.6409 14.3456C73.9219 14.1408 74.2477 14.0384 74.6182 14.0384C74.9887 14.0384 75.3145 14.1408 75.5955 14.3456C75.8766 14.5376 76.113 14.8512 76.3046 15.2864L81.2488 26.0576C81.4915 26.5952 81.4979 27.0432 81.2679 27.4016C81.0508 27.7472 80.693 27.92 80.1948 27.92C79.7604 27.92 79.4219 27.8176 79.1791 27.6128C78.9492 27.408 78.7447 27.088 78.5659 26.6528L77.761 24.8096H71.4562L70.6705 26.6528C70.4789 27.1008 70.2745 27.4272 70.0573 27.632C69.8401 27.824 69.5335 27.92 69.1374 27.92ZM74.5799 17.3792L72.4527 22.4864H76.7837L74.6182 17.3792H74.5799Z" fill="white"/>
<path d="M84.6777 27.92C84.1922 27.92 83.8217 27.7856 83.5662 27.5168C83.3107 27.248 83.1829 26.8704 83.1829 26.384V15.728C83.1829 14.7168 83.6876 14.2112 84.6969 14.2112H89.3536C90.8611 14.2112 92.0237 14.5952 92.8414 15.3632C93.659 16.1184 94.0678 17.1744 94.0678 18.5312C94.0678 19.888 93.659 20.9504 92.8414 21.7184C92.0237 22.4864 90.8611 22.8704 89.3536 22.8704H86.1533V26.384C86.1533 26.8704 86.0255 27.248 85.77 27.5168C85.5273 27.7856 85.1632 27.92 84.6777 27.92ZM86.1533 20.5664H88.8553C90.4268 20.5664 91.2125 19.888 91.2125 18.5312C91.2125 17.2 90.4268 16.5344 88.8553 16.5344H86.1533V20.5664Z" fill="white"/>
<path d="M97.2885 27.92C96.8541 27.92 96.5219 27.7984 96.292 27.5552C96.062 27.312 95.947 26.9728 95.947 26.5376V15.4208C95.947 14.9728 96.0684 14.6336 96.3111 14.4032C96.5539 14.16 96.8988 14.0384 97.346 14.0384C97.7292 14.0384 98.0295 14.1152 98.2467 14.2688C98.4766 14.4224 98.6874 14.672 98.879 15.0176L102.98 22.5248L107.081 15.0176C107.273 14.672 107.477 14.4224 107.694 14.2688C107.924 14.1152 108.224 14.0384 108.595 14.0384C109.029 14.0384 109.361 14.16 109.591 14.4032C109.834 14.6336 109.956 14.9728 109.956 15.4208V26.5376C109.956 27.4592 109.508 27.92 108.614 27.92C107.707 27.92 107.254 27.4592 107.254 26.5376V19.4912L104.111 25.1552C103.957 25.3984 103.791 25.584 103.612 25.712C103.446 25.8272 103.223 25.8848 102.942 25.8848C102.661 25.8848 102.431 25.8272 102.252 25.712C102.073 25.584 101.913 25.3984 101.773 25.1552L98.6299 19.5488V26.5376C98.6299 27.4592 98.1828 27.92 97.2885 27.92Z" fill="white"/>
<path d="M118.962 27.9584C117.633 27.9584 116.464 27.6704 115.455 27.0944C114.459 26.5056 113.679 25.6928 113.117 24.656C112.568 23.6064 112.293 22.3776 112.293 20.9696C112.293 19.5616 112.568 18.3392 113.117 17.3024C113.679 16.2528 114.459 15.44 115.455 14.864C116.452 14.288 117.621 14 118.962 14C120.303 14 121.472 14.288 122.469 14.864C123.478 15.44 124.257 16.2528 124.807 17.3024C125.369 18.3392 125.65 19.5552 125.65 20.9504C125.65 22.3584 125.369 23.5872 124.807 24.6368C124.257 25.6864 123.478 26.5056 122.469 27.0944C121.472 27.6704 120.303 27.9584 118.962 27.9584ZM118.962 25.424C120.086 25.424 120.961 25.0336 121.587 24.2528C122.226 23.4592 122.546 22.3648 122.546 20.9696C122.546 19.5616 122.233 18.4736 121.607 17.7056C120.981 16.9248 120.099 16.5344 118.962 16.5344C117.85 16.5344 116.975 16.9248 116.337 17.7056C115.711 18.4736 115.398 19.5616 115.398 20.9696C115.398 22.3648 115.711 23.4592 116.337 24.2528C116.975 25.0336 117.85 25.424 118.962 25.424Z" fill="white"/>
<path d="M129.442 27.92C128.957 27.92 128.586 27.7856 128.331 27.5168C128.075 27.248 127.948 26.8704 127.948 26.384V15.5744C127.948 14.5504 128.446 14.0384 129.442 14.0384C130.426 14.0384 130.918 14.5504 130.918 15.5744V19.6448H137.204V15.5744C137.204 14.5504 137.696 14.0384 138.679 14.0384C139.676 14.0384 140.174 14.5504 140.174 15.5744V26.384C140.174 26.8704 140.046 27.248 139.791 27.5168C139.535 27.7856 139.165 27.92 138.679 27.92C138.207 27.92 137.842 27.7856 137.587 27.5168C137.331 27.248 137.204 26.8704 137.204 26.384V22.1216H130.918V26.384C130.918 27.408 130.426 27.92 129.442 27.92Z" fill="white"/>
<path d="M144.165 27.92C143.769 27.92 143.456 27.792 143.226 27.536C143.009 27.2672 142.9 26.896 142.9 26.4224V15.4592C142.9 14.512 143.36 14.0384 144.28 14.0384C145.2 14.0384 145.66 14.512 145.66 15.4592V22.8704L151.869 14.9024C152.099 14.5952 152.323 14.3776 152.54 14.2496C152.757 14.1088 153.044 14.0384 153.402 14.0384C153.773 14.0384 154.066 14.1664 154.284 14.4224C154.501 14.6656 154.609 14.992 154.609 15.4016V26.48C154.609 27.44 154.149 27.92 153.23 27.92C152.31 27.92 151.85 27.44 151.85 26.48V19.0496L145.641 27.0368C145.398 27.344 145.175 27.568 144.97 27.7088C144.778 27.8496 144.51 27.92 144.165 27.92Z" fill="white"/>
<path d="M166.528 27.92C165.531 27.92 165.033 27.408 165.033 26.384V22.5056H163.768C163.385 22.5056 163.053 22.576 162.772 22.7168C162.491 22.8448 162.261 23.0816 162.082 23.4272L160.127 27.0176C159.923 27.3888 159.674 27.6384 159.38 27.7664C159.086 27.8944 158.792 27.9328 158.498 27.8816C158.204 27.8304 157.949 27.7088 157.732 27.5168C157.514 27.312 157.38 27.056 157.329 26.7488C157.278 26.4416 157.348 26.1024 157.54 25.7312L158.632 23.7344C159.028 22.992 159.559 22.512 160.223 22.2944C159.226 22.0512 158.46 21.5904 157.923 20.912C157.387 20.2336 157.118 19.3824 157.118 18.3584C157.118 17.0528 157.527 16.0352 158.345 15.3056C159.163 14.576 160.325 14.2112 161.833 14.2112H166.451C167.499 14.2112 168.022 14.7296 168.022 15.7664V26.384C168.022 26.8704 167.888 27.248 167.62 27.5168C167.365 27.7856 167 27.92 166.528 27.92ZM162.35 20.3552H165.033V16.5344H162.35C160.766 16.5344 159.974 17.168 159.974 18.4352C159.974 19.7152 160.766 20.3552 162.35 20.3552Z" fill="white"/>
<path d="M68.1885 52.1007C67.7286 52.1007 67.3772 51.9663 67.1345 51.6975C66.8918 51.4287 66.7704 51.0511 66.7704 50.5647V46.4367H65.6972C65.084 46.4367 64.5794 46.5647 64.1833 46.8207C63.8001 47.0767 63.4679 47.4991 63.1868 48.0879L61.7879 51.1407C61.6218 51.4991 61.3918 51.7551 61.098 51.9087C60.8169 52.0495 60.5231 52.1071 60.2165 52.0815C59.9226 52.0559 59.6544 51.9535 59.4116 51.7743C59.1817 51.5823 59.0283 51.3327 58.9517 51.0255C58.8878 50.7183 58.9517 50.3663 59.1433 49.9695L60.5806 47.0511C61.1683 45.8351 61.9284 44.9967 62.861 44.5359L60.159 40.3695C59.9418 40.0239 59.846 39.7039 59.8715 39.4095C59.9099 39.1023 60.0248 38.8527 60.2165 38.6607C60.4209 38.4559 60.6636 38.3215 60.9447 38.2575C61.2258 38.1935 61.5068 38.2191 61.7879 38.3343C62.069 38.4367 62.3117 38.6543 62.5161 38.9871L65.5823 43.9791H66.7704V39.7359C66.7704 38.7247 67.2431 38.2191 68.1885 38.2191C69.1339 38.2191 69.6066 38.7247 69.6066 39.7359V43.9791H70.7947L73.8609 38.9871C74.0525 38.6543 74.2889 38.4367 74.5699 38.3343C74.8638 38.2191 75.1512 38.1935 75.4323 38.2575C75.7134 38.3215 75.9497 38.4559 76.1413 38.6607C76.3458 38.8527 76.4607 39.1023 76.4863 39.4095C76.5246 39.7039 76.4352 40.0239 76.218 40.3695L73.5159 44.5359C74.4358 44.9967 75.1896 45.8351 75.7772 47.0511L77.2145 49.9695C77.4061 50.3663 77.4636 50.7183 77.387 51.0255C77.3231 51.3327 77.1762 51.5823 76.9462 51.7743C76.7163 51.9535 76.448 52.0559 76.1413 52.0815C75.8347 52.1071 75.5345 52.0495 75.2407 51.9087C74.9596 51.7551 74.736 51.4991 74.5699 51.1407L73.171 48.0879C72.8899 47.4863 72.5514 47.0639 72.1553 46.8207C71.7721 46.5647 71.2802 46.4367 70.6798 46.4367H69.6066V50.5647C69.6066 51.0511 69.4852 51.4287 69.2425 51.6975C68.9998 51.9663 68.6484 52.1007 68.1885 52.1007Z" fill="white"/>
<path d="M80.7792 52.1007C80.3832 52.1007 80.0702 51.9727 79.8402 51.7167C79.623 51.4479 79.5144 51.0767 79.5144 50.6031V39.6399C79.5144 38.6927 79.9743 38.2191 80.8942 38.2191C81.814 38.2191 82.274 38.6927 82.274 39.6399V47.0511L88.4829 39.0831C88.7129 38.7759 88.9365 38.5583 89.1537 38.4303C89.3708 38.2895 89.6583 38.2191 90.016 38.2191C90.3865 38.2191 90.6804 38.3471 90.8975 38.6031C91.1147 38.8463 91.2233 39.1727 91.2233 39.5823V50.6607C91.2233 51.6207 90.7634 52.1007 89.8435 52.1007C88.9237 52.1007 88.4638 51.6207 88.4638 50.6607V43.2303L82.2548 51.2175C82.0121 51.5247 81.7885 51.7487 81.5841 51.8895C81.3924 52.0303 81.1242 52.1007 80.7792 52.1007Z" fill="white"/>
<path d="M98.3125 52.1391C97.4309 52.1391 96.6133 52.0495 95.8595 51.8703C95.1058 51.6783 94.4351 51.4095 93.8474 51.0639C93.4641 50.8591 93.2278 50.6031 93.1383 50.2959C93.0489 49.9759 93.0681 49.6751 93.1958 49.3935C93.3236 49.1119 93.5344 48.9135 93.8282 48.7983C94.122 48.6831 94.467 48.7215 94.863 48.9135C95.7701 49.3999 96.8369 49.6431 98.0633 49.6431C99.0215 49.6431 99.7306 49.4959 100.19 49.2015C100.65 48.9071 100.88 48.4463 100.88 47.8191C100.88 47.2815 100.702 46.8847 100.344 46.6287C99.9861 46.3599 99.4239 46.2255 98.6574 46.2255H96.4536C95.636 46.2255 95.2271 45.8351 95.2271 45.0543C95.2271 44.2863 95.636 43.9023 96.4536 43.9023H98.3316C99.7881 43.9023 100.516 43.3775 100.516 42.3279C100.516 41.8287 100.325 41.4255 99.9414 41.1183C99.5581 40.8111 98.9385 40.6575 98.0825 40.6575C97.597 40.6575 97.1052 40.7151 96.6069 40.8303C96.1087 40.9455 95.6487 41.1055 95.2271 41.3103C94.8183 41.5151 94.467 41.5599 94.1732 41.4447C93.8793 41.3167 93.6685 41.1119 93.5408 40.8303C93.4258 40.5487 93.413 40.2543 93.5024 39.9471C93.5919 39.6271 93.8154 39.3711 94.1732 39.1791C94.7864 38.8463 95.4571 38.5967 96.1853 38.4303C96.9135 38.2639 97.6673 38.1807 98.4466 38.1807C100.12 38.1807 101.372 38.5327 102.203 39.2367C103.033 39.9279 103.448 40.8175 103.448 41.9055C103.448 42.6223 103.263 43.2431 102.893 43.7679C102.535 44.2799 102.037 44.6639 101.398 44.9199C102.164 45.1375 102.752 45.5215 103.161 46.0719C103.582 46.6223 103.793 47.3007 103.793 48.1071C103.793 49.3103 103.346 50.2831 102.452 51.0255C101.557 51.7679 100.178 52.1391 98.3125 52.1391Z" fill="white"/>
<path d="M107.546 52.1007C107.061 52.1007 106.69 51.9663 106.435 51.6975C106.179 51.4287 106.051 51.0511 106.051 50.5647V39.7551C106.051 38.7311 106.55 38.2191 107.546 38.2191C108.53 38.2191 109.022 38.7311 109.022 39.7551V43.8255H115.307V39.7551C115.307 38.7311 115.799 38.2191 116.783 38.2191C117.779 38.2191 118.278 38.7311 118.278 39.7551V50.5647C118.278 51.0511 118.15 51.4287 117.894 51.6975C117.639 51.9663 117.268 52.1007 116.783 52.1007C116.31 52.1007 115.946 51.9663 115.691 51.6975C115.435 51.4287 115.307 51.0511 115.307 50.5647V46.3023H109.022V50.5647C109.022 51.5887 108.53 52.1007 107.546 52.1007Z" fill="white"/>
<path d="M122.269 52.1007C121.873 52.1007 121.56 51.9727 121.33 51.7167C121.113 51.4479 121.004 51.0767 121.004 50.6031V39.6399C121.004 38.6927 121.464 38.2191 122.384 38.2191C123.304 38.2191 123.764 38.6927 123.764 39.6399V47.0511L129.973 39.0831C130.203 38.7759 130.426 38.5583 130.643 38.4303C130.861 38.2895 131.148 38.2191 131.506 38.2191C131.876 38.2191 132.17 38.3471 132.387 38.6031C132.604 38.8463 132.713 39.1727 132.713 39.5823V50.6607C132.713 51.6207 132.253 52.1007 131.333 52.1007C130.413 52.1007 129.953 51.6207 129.953 50.6607V43.2303L123.745 51.2175C123.502 51.5247 123.278 51.7487 123.074 51.8895C122.882 52.0303 122.614 52.1007 122.269 52.1007Z" fill="white"/>
<path fill-rule="evenodd" clip-rule="evenodd" d="M21.8688 45C21.8688 45 15.1817 49.2499 10.731 52.0271C8.9341 50.5082 7.39522 48.9827 6.09722 47.4573C13.8531 21.8432 31.5585 12.2265 35.5285 10.3168C35.9346 10.7587 36.354 11.1979 36.7606 11.6865C32.6932 15.2387 21.3473 26.943 21.8688 45ZM16.3175 21.4043C17.0974 17.8454 14.9611 10.4183 13.9525 7.23371C18.7957 2.71854 23.0465 0 23.0465 0C27.1388 2.93596 30.5934 5.66022 33.5755 8.36006C24.0227 12.3394 16.3175 21.4043 16.3175 21.4043ZM8.41111 32.191C8.01932 31.9337 3.85281 26.1593 1.96554 23.4541C4.19514 17.9715 8.09788 13.0687 12.0785 9.18084C12.5835 11.3577 13.3243 14.2842 13.9624 17.865C15.4493 26.208 9.0564 32.5274 8.41111 32.191ZM4.10986 44.8584C-0.210907 38.508 -0.661404 32.2183 0.940735 26.4469C3.15621 29.7617 7.90661 35.0562 7.90661 35.0562L4.10986 44.8584ZM17.9999 50.8987C17.9999 50.8987 22.4421 55.0013 28.5628 56.9378C25.2871 58.9493 22.8781 60 22.8781 60C19.1404 58.0326 15.9535 56.0339 13.2465 54.0189L17.9999 50.8987ZM46.3936 32.6557C45.573 33.149 42.291 34.9242 37.3452 35.0562C37.3452 35.0562 41.6393 28.4828 44.4495 22.9107C46.0171 26.3744 46.5028 29.6274 46.3936 32.6557ZM35.3267 37.4157C35.3267 37.4157 41.6432 37.1929 46.0255 36.2633C44.1509 44.3884 37.6358 50.6319 31.9834 54.6716C30.3816 54.401 26.8011 53.4222 21.0279 49.8875C21.0279 49.8875 33.7906 39.0593 35.3267 37.4157ZM38.2337 13.2812C40.1299 15.4891 41.6491 17.6304 42.8398 19.7031C41.5828 22.4447 34.8124 36.0667 24.7287 42.9774C24.7287 42.9774 27.8454 21.6853 38.2337 13.2812Z" fill="url(#paint0_linear_72_1371)"/>
</g>
<defs>
<linearGradient id="paint0_linear_72_1371" x1="0.080096" y1="3.89542e-07" x2="46.5022" y2="59.9145" gradientUnits="userSpaceOnUse">
<stop stop-color="#CCCCCC"/>
<stop offset="1" stop-color="#3C404F"/>
</linearGradient>
<clipPath id="clip0_72_1371">
<rect width="168" height="60" fill="white"/>
</clipPath>
</defs>
</svg>
