<svg width="42" height="42" viewBox="0 0 42 42" fill="none" xmlns="http://www.w3.org/2000/svg">
<path d="M36.7502 19.2499C36.7502 11.5179 30.4822 5.24989 22.7502 5.24989M24.5 12.4704C26.9599 13.1034 28.8966 15.0401 29.5297 17.5M27.725 25.45L28.7485 24.0853C29.3285 23.3121 30.3784 23.0642 31.2429 23.4965L35.3837 25.5668C36.1904 25.9702 36.6273 26.8635 36.4504 27.7479L35.3216 33.3922C35.1346 34.3271 34.3121 35.0085 33.3608 34.9469C19.7177 34.064 7.93599 22.2823 7.05306 8.63922C6.99149 7.68785 7.67292 6.86542 8.60777 6.67845L14.2521 5.54959C15.1365 5.37271 16.0298 5.80963 16.4332 6.61632L18.5035 10.7571C18.9358 11.6216 18.6879 12.6715 17.9147 13.2515L16.55 14.275C16.0464 14.6527 15.7319 15.2526 15.9134 15.8554C16.9515 19.3041 22.6959 25.0485 26.1446 26.0866C26.7474 26.2681 27.3473 25.9536 27.725 25.45Z" stroke="#FFC700" stroke-width="4" stroke-linecap="round" stroke-linejoin="round"/>
</svg>
