<svg width="44" height="50" viewBox="0 0 44 50" fill="none" xmlns="http://www.w3.org/2000/svg">
    <path d="M17.0007 21.6535C17.0007 18.8975 19.2401 16.6579 22.0007 16.6579C24.7612 16.6579 27.0007 18.8975 27.0007 21.6535C27.0007 24.4097 24.7612 26.6493 22.0007 26.6493C19.2401 26.6493 17.0007 24.4097 17.0007 21.6535Z"
          fill="#ff9a00"/>
    <path fill-rule="evenodd" clip-rule="evenodd"
          d="M0.333984 21.6535C0.333984 9.6959 10.0379 0 22.0007 0C33.9634 0 43.6673 9.6959 43.6673 21.6535C43.6673 30.567 39.2064 37.6286 34.4288 42.4031C32.0345 44.7958 29.5264 46.6509 27.3781 47.917C26.3046 48.5498 25.3012 49.047 24.429 49.3913C23.6054 49.7163 22.741 49.9696 22.0007 49.9696C21.2603 49.9696 20.3959 49.7163 19.5723 49.3913C18.7001 49.047 17.6967 48.5498 16.6232 47.917C14.4749 46.6509 11.9668 44.7958 9.57252 42.4031C4.79494 37.6286 0.333984 30.567 0.333984 21.6535ZM22.0007 13.3246C17.4012 13.3246 13.6673 17.0544 13.6673 21.6535C13.6673 26.2526 17.4012 29.9826 22.0007 29.9826C26.6001 29.9826 30.334 26.2526 30.334 21.6535C30.334 17.0544 26.6001 13.3246 22.0007 13.3246Z"
          fill="#ff9a00"/>
</svg>
