<svg width="15" height="15" viewBox="0 0 15 15" fill="none" xmlns="http://www.w3.org/2000/svg">
<path fill-rule="evenodd" clip-rule="evenodd" d="M7.33008 13.696C7.3993 13.7322 7.47669 13.7506 7.55408 13.75C7.63148 13.7494 7.70824 13.7304 7.77808 13.6936L10.008 12.5015C10.6404 12.1645 11.1356 11.7875 11.5219 11.3487C12.3619 10.3926 12.8206 9.17239 12.8124 7.91415L12.786 3.76374C12.7835 3.28569 12.4695 2.85913 12.0051 2.70407L7.85673 1.31223C7.60694 1.22765 7.33323 1.22949 7.08784 1.31652L2.95518 2.75801C2.49334 2.91919 2.18502 3.34882 2.18754 3.82748L2.21397 7.97482C2.22215 9.2349 2.69657 10.4496 3.55041 11.3959C3.94052 11.8286 4.44012 12.2 5.07939 12.5316L7.33008 13.696ZM6.73975 8.81808C6.83287 8.90756 6.95368 8.95169 7.07449 8.95046C7.1953 8.94985 7.31548 8.9045 7.40734 8.81379L9.84428 6.41131C10.0274 6.23051 10.0255 5.94001 9.8405 5.76166C9.65488 5.58331 9.35601 5.58454 9.17291 5.76534L7.06757 7.84054L6.20555 7.01193C6.01993 6.83358 5.72168 6.83542 5.53795 7.01622C5.35485 7.19702 5.35674 7.48752 5.54236 7.66587L6.73975 8.81808Z" fill="white"/>
</svg>
