<svg width="12" height="11" viewBox="0 0 12 11" fill="none" xmlns="http://www.w3.org/2000/svg">
<mask id="path-1-inside-1_393_1517" fill="white">
<path d="M6 8.91667L2.5 10.6667L3.375 7.16667L0.75 4.25L4.54167 3.95833L6 0.75L7.45833 3.95833L11.25 4.25L8.625 7.16667L9.5 10.6667L6 8.91667Z"/>
</mask>
<path d="M6 8.91667L19.4164 -17.9161C10.9706 -22.1391 1.02942 -22.1391 -7.41641 -17.9161L6 8.91667ZM2.5 10.6667L-26.6043 3.3906C-29.4458 14.7567 -25.4107 26.737 -16.2718 34.0679C-7.13294 41.3989 5.4374 42.739 15.9164 37.4995L2.5 10.6667ZM3.375 7.16667L32.4793 14.4427C34.8992 4.76317 32.3484 -5.48608 25.6738 -12.9023L3.375 7.16667ZM0.75 4.25L-1.5509 -25.6616C-12.9482 -24.7849 -22.8568 -17.5074 -27.1032 -6.89446C-31.3496 3.71851 -29.1957 15.8224 -21.5488 24.3189L0.75 4.25ZM4.54167 3.95833L6.84256 33.87C17.7451 33.0313 27.3278 26.3271 31.8527 16.3724L4.54167 3.95833ZM6 0.75L33.311 -11.6641C28.4429 -22.3739 17.7643 -29.25 6 -29.25C-5.76431 -29.25 -16.4429 -22.3739 -21.311 -11.6641L6 0.75ZM7.45833 3.95833L-19.8527 16.3724C-15.3278 26.3271 -5.74511 33.0313 5.15744 33.87L7.45833 3.95833ZM11.25 4.25L33.5488 24.3189C41.1957 15.8224 43.3496 3.71851 39.1032 -6.89446C34.8568 -17.5074 24.9482 -24.7849 13.5509 -25.6616L11.25 4.25ZM8.625 7.16667L-13.6738 -12.9023C-20.3484 -5.48608 -22.8992 4.76317 -20.4793 14.4427L8.625 7.16667ZM9.5 10.6667L-3.91641 37.4995C6.5626 42.739 19.1329 41.3989 28.2718 34.0679C37.4107 26.737 41.4458 14.7567 38.6043 3.3906L9.5 10.6667ZM-7.41641 -17.9161L-10.9164 -16.1661L15.9164 37.4995L19.4164 35.7495L-7.41641 -17.9161ZM31.6043 17.9427L32.4793 14.4427L-25.7293 -0.109401L-26.6043 3.3906L31.6043 17.9427ZM25.6738 -12.9023L23.0488 -15.8189L-21.5488 24.3189L-18.9238 27.2356L25.6738 -12.9023ZM3.0509 34.1616L6.84256 33.87L2.24077 -25.9533L-1.5509 -25.6616L3.0509 34.1616ZM31.8527 16.3724L33.311 13.1641L-21.311 -11.6641L-22.7693 -8.45575L31.8527 16.3724ZM-21.311 13.1641L-19.8527 16.3724L34.7693 -8.45575L33.311 -11.6641L-21.311 13.1641ZM5.15744 33.87L8.9491 34.1616L13.5509 -25.6616L9.75923 -25.9533L5.15744 33.87ZM-11.0488 -15.8189L-13.6738 -12.9023L30.9238 27.2356L33.5488 24.3189L-11.0488 -15.8189ZM-20.4793 14.4427L-19.6043 17.9427L38.6043 3.3906L37.7293 -0.109401L-20.4793 14.4427ZM22.9164 -16.1661L19.4164 -17.9161L-7.41641 35.7495L-3.91641 37.4995L22.9164 -16.1661Z" fill="#FFDB4D" mask="url(#path-1-inside-1_393_1517)"/>
</svg>
