<svg width="44" height="44" viewBox="0 0 44 44" fill="none" xmlns="http://www.w3.org/2000/svg">
<rect width="44" height="44" rx="22" fill="#8ABF3D"/>
<path d="M31.9085 12.0781C29.439 9.61719 26.1463 8.25 22.6707 8.25C15.4451 8.25 9.59146 14.0833 9.59146 21.2839C9.59146 23.5625 10.2317 25.8411 11.3293 27.7552L9.5 34.5L16.4512 32.6771C18.372 33.6797 20.4756 34.2266 22.6707 34.2266C29.8963 34.2266 35.75 28.3932 35.75 21.1927C35.6585 17.8203 34.378 14.5391 31.9085 12.0781ZM28.9817 25.9323C28.7073 26.6615 27.4268 27.3906 26.7866 27.4818C26.2378 27.5729 25.5061 27.5729 24.7744 27.3906C24.3171 27.2083 23.6768 27.026 22.9451 26.6615C19.6524 25.2943 17.5488 22.013 17.3659 21.7396C17.1829 21.5573 15.9939 20.0078 15.9939 18.3672C15.9939 16.7266 16.8171 15.9974 17.0915 15.6328C17.3659 15.2682 17.7317 15.2682 18.0061 15.2682C18.189 15.2682 18.4634 15.2682 18.6463 15.2682C18.8293 15.2682 19.1037 15.1771 19.378 15.8151C19.6524 16.4531 20.2927 18.0938 20.3841 18.1849C20.4756 18.3672 20.4756 18.5495 20.3841 18.7318C20.2927 18.9141 20.2012 19.0964 20.0183 19.2786C19.8354 19.4609 19.6524 19.7344 19.561 19.8255C19.378 20.0078 19.1951 20.1901 19.378 20.4635C19.561 20.8281 20.2012 21.8307 21.2073 22.7422C22.4878 23.8359 23.4939 24.2005 23.8598 24.3828C24.2256 24.5651 24.4085 24.474 24.5915 24.2917C24.7744 24.1094 25.4146 23.3802 25.5976 23.0156C25.7805 22.651 26.0549 22.7422 26.3293 22.8333C26.6037 22.9245 28.25 23.7448 28.5244 23.9271C28.8902 24.1094 29.0732 24.2005 29.1646 24.2917C29.2561 24.5651 29.2561 25.2031 28.9817 25.9323Z" fill="white"/>
</svg>
