<svg width="24" height="24" viewBox="0 0 24 24" fill="none" xmlns="http://www.w3.org/2000/svg">
<path d="M11.998 21C11.998 21 1.99805 17.14 1.99805 8.5C1.99805 7.04131 2.57744 5.64241 3.60889 4.61096C4.64034 3.57951 6.03936 3 7.49805 3C8.38205 2.9997 9.25279 3.21323 10.0364 3.62244C10.82 4.03164 11.4931 4.62436 11.998 5.34998C12.5036 4.62497 13.1765 4.03279 13.96 3.62366C14.7434 3.21452 15.6142 3.00055 16.498 3C17.9567 3 19.3555 3.57951 20.387 4.61096C21.4184 5.64241 21.998 7.04131 21.998 8.5C21.998 17.14 11.998 21 11.998 21Z" stroke="#4949E7" stroke-width="2" stroke-linejoin="round"/>
</svg>
