<svg width="34" height="34" viewBox="0 0 34 34" fill="none" xmlns="http://www.w3.org/2000/svg">
    <path d="M9.96875 14.1654L13.6239 4.48959C13.7983 4.00535 14.1176 3.58649 14.5383 3.28996C14.959 2.99343 15.4607 2.83354 15.9754 2.83203V2.83203C16.6367 2.83203 17.2707 3.09474 17.7383 3.56233C18.2059 4.02992 18.4687 4.66411 18.4687 5.32538V14.1654H28.3854C28.8202 14.1656 29.2491 14.266 29.6388 14.4586C30.0286 14.6512 30.3689 14.9308 30.6332 15.2759C30.8975 15.6211 31.0787 16.0225 31.1631 16.4489C31.2474 16.8754 31.2325 17.3156 31.1195 17.7354L28.3996 29.0687C28.235 29.6675 27.8781 30.1956 27.3841 30.5719C26.8901 30.9481 26.2865 31.1517 25.6655 31.1513H9.96875"
          stroke="#4949E7" stroke-width="2.5" stroke-linejoin="round"/>
    <path d="M5.66536 14.1797H9.91536V31.1797H5.66536C4.91392 31.1797 4.19325 30.8812 3.66189 30.3498C3.13054 29.8185 2.83203 29.0978 2.83203 28.3464V17.013C2.83203 16.2616 3.13054 15.5409 3.66189 15.0096C4.19325 14.4782 4.91392 14.1797 5.66536 14.1797Z"
          stroke="#4949E7" stroke-width="2.5" stroke-linejoin="round"/>
</svg>
